<?xml version="1.0" encoding="utf-8"?>
<!-- Generator: Adobe Illustrator 18.1.1, SVG Export Plug-In . SVG Version: 6.00 Build 0)  -->
<svg version="1.1" id="Layer_1" xmlns="http://www.w3.org/2000/svg" xmlns:xlink="http://www.w3.org/1999/xlink" x="0px" y="0px"
	 viewBox="0 0 27.3 15.1" enable-background="new 0 0 27.3 15.1" xml:space="preserve">
<path fill="#CF0A2C" d="M1.6,9.4c2.4,1.5,4.9,3.1,6.9,5.2c0.2,0.2,0.5,0.3,0.8,0.5c0.2,0.1,0.7-0.2,0.7-0.5C10,14,9.8,13.5,9.5,13
	c-0.6-0.8-1.3-1.6-1.9-2.4c-0.2-0.3-0.4-0.7-0.6-1C6.8,9.4,7,8.9,7.3,8.8c0.5-0.1,1.1-0.3,1.6-0.3c1.1,0,2.2-0.1,3.3-0.2
	c2.7-0.2,5.4-0.4,8.1-0.5c2.3-0.1,4.6-0.3,6.9-0.2c-0.1-0.6-0.1-1.1-0.2-1.7c-1.5,0-2.9,0.1-4.4,0.3c-0.6,0.1-1.1,0.1-1.7,0.1
	c-3.6,0.1-7.2,0.4-10.8,0.1c-0.6,0-1.1,0-1.7,0C7.8,6.5,7,6.9,6.3,6.3C6.2,5.2,7.2,4.9,7.8,4.4C8.9,3.5,9.6,2.3,10.1,1
	c0.1-0.2-0.1-0.6-0.2-0.9C9.8-0.1,9.3,0,9,0.1C8.6,0.4,8.3,0.7,7.9,1C7.1,1.7,6.5,2.5,5.7,3.2C4,4.6,2.4,6.3,0,6.6
	C0.1,7.8,0.5,8.7,1.6,9.4z"/>
</svg>
