<?xml version="1.0" encoding="utf-8"?>
<!-- Generator: Adobe Illustrator 18.1.1, SVG Export Plug-In . SVG Version: 6.00 Build 0)  -->
<svg version="1.1" id="Layer_1" xmlns="http://www.w3.org/2000/svg" xmlns:xlink="http://www.w3.org/1999/xlink" x="0px" y="0px"
	 viewBox="0 0 82.1 12" enable-background="new 0 0 82.1 12" xml:space="preserve">
<path fill="#CF0A2C" d="M82.1,6.7C80.2,7,79,8.3,77.6,9.4c-0.6,0.5-1.2,1.1-1.8,1.7c-0.3,0.3-0.6,0.5-0.9,0.7
	c-0.2,0.1-0.6,0.1-0.7,0c-0.1-0.2-0.3-0.5-0.2-0.7c0.4-1,1-1.9,1.8-2.6c0.5-0.4,1.3-0.6,1.2-1.5c-0.6-0.5-1.2-0.2-1.8-0.2
	c-0.4,0-0.9,0-1.3,0c-2.9-0.2-5.7,0-8.6,0.1c-0.4,0-0.9,0-1.3,0.1c-2.5,0.3-4.9,0.2-7.4,0c-1.5-0.1-2.9,0-4.4,0C51.2,7,50,7,48.9,7
	c-2.5,0-5.1,0.1-7.6,0.3c-1.4,0.1-2.8,0.1-4.2,0.2c-1.2,0.1-2.4,0.1-3.6,0.2c-0.3,0-0.5,0.1-0.8,0c-2.4-0.2-4.8,0.1-7.2,0.1
	c-2.2,0-4.4,0-6.7,0c-0.4,0-0.8-0.1-1.1,0C16,8,14.2,7.8,12.4,7.7c-1.7,0-3.4,0-5.1,0.1C5.2,8,3.1,7.9,1,7.9c-0.2,0-0.5-0.1-0.7-0.2
	C0.1,7.7-0.1,7.4,0,7.1c0.1-0.3,0.3-0.6,0.6-0.7C1.3,6.3,2,6.2,2.7,6.2c1.7,0.1,3.4,0.1,5.1,0c0.9-0.1,1.9,0,2.8,0.1
	c1.5,0.1,2.9,0,4.4,0c1,0,2,0.1,3,0.1c2.6-0.1,5.2,0.2,7.8,0c2.7-0.2,5.3-0.3,8-0.3c3.8,0.1,7.6-0.3,11.4-0.4c0.8,0,1.5-0.1,2.3,0
	c3.4,0.1,6.8,0.1,10.3,0c0.4,0,0.8-0.1,1.1,0c2.3,0.4,4.7,0.1,7,0c2.2-0.1,4.3-0.2,6.5-0.4c0.9-0.1,1.8-0.1,2.6-0.1
	c0.4,0,0.9-0.1,1.3-0.2c0.2,0,0.4-0.4,0.3-0.6c-0.2-0.3-0.3-0.5-0.5-0.8c-0.5-0.7-1-1.3-1.5-1.9c-0.3-0.4-0.4-0.8-0.4-1.2
	c0-0.2,0.4-0.5,0.6-0.4c0.2,0.1,0.5,0.2,0.6,0.4c1.6,1.6,3.5,2.9,5.5,4.1C81.7,5.1,82,5.8,82.1,6.7z"/>
</svg>
