<?xml version="1.0" encoding="utf-8"?>
<!-- Generator: Adobe Illustrator 18.1.1, SVG Export Plug-In . SVG Version: 6.00 Build 0)  -->
<!DOCTYPE svg PUBLIC "-//W3C//DTD SVG 1.1//EN" "http://www.w3.org/Graphics/SVG/1.1/DTD/svg11.dtd">
<svg version="1.1" id="Layer_1" xmlns="http://www.w3.org/2000/svg" xmlns:xlink="http://www.w3.org/1999/xlink" x="0px" y="0px"
	 width="84px" height="12.1px" viewBox="263.9 389.8 84 12.1" enable-background="new 263.9 389.8 84 12.1" xml:space="preserve">
<path fill="#CF0A2C" d="M347.9,396.6c-1.9,0.3-3.2,1.6-4.6,2.8c-0.6,0.5-1.2,1.1-1.8,1.7c-0.3,0.3-0.6,0.5-0.9,0.7
	c-0.2,0.1-0.6,0.1-0.7,0c-0.1-0.2-0.3-0.5-0.2-0.7c0.4-1,1-1.9,1.8-2.7c0.5-0.4,1.3-0.6,1.2-1.5c-0.6-0.5-1.2-0.2-1.8-0.2
	c-0.4,0-0.9,0-1.3,0c-3-0.2-5.8,0-8.8,0.1c-0.4,0-0.9,0-1.3,0.1c-2.6,0.3-5,0.2-7.6,0c-1.5-0.1-3,0-4.5,0c-1,0-2.3,0-3.4,0
	c-2.6,0-5.2,0.1-7.8,0.3c-1.4,0.1-2.9,0.1-4.3,0.2c-1.2,0.1-2.5,0.1-3.7,0.2c-0.3,0-0.5,0.1-0.8,0c-2.5-0.2-4.9,0.1-7.4,0.1
	c-2.3,0-4.5,0-6.9,0c-0.4,0-0.8-0.1-1.1,0c-1.7,0.2-3.6,0-5.4-0.1c-1.7,0-3.5,0-5.2,0.1c-2.1,0.2-4.3,0.1-6.4,0.1
	c-0.2,0-0.5-0.1-0.7-0.2c-0.2,0-0.4-0.3-0.3-0.6c0.1-0.3,0.3-0.6,0.6-0.7c0.7-0.1,1.4-0.2,2.1-0.2c1.7,0.1,3.5,0.1,5.2,0
	c0.9-0.1,1.9,0,2.9,0.1c1.5,0.1,3,0,4.5,0c1,0,2,0.1,3.1,0.1c2.7-0.1,5.3,0.2,8,0c2.8-0.2,5.4-0.3,8.2-0.3c3.9,0.1,7.8-0.3,11.7-0.4
	c0.8,0,1.5-0.1,2.4,0c3.5,0.1,7,0.1,10.5,0c0.4,0,0.8-0.1,1.1,0c2.4,0.4,4.8,0.1,7.2,0c2.3-0.1,4.4-0.2,6.6-0.4
	c0.9-0.1,1.8-0.1,2.7-0.1c0.4,0,0.9-0.1,1.3-0.2c0.2,0,0.4-0.4,0.3-0.6c-0.2-0.3-0.3-0.5-0.5-0.8c-0.5-0.7-1-1.3-1.5-1.9
	c-0.3-0.4-0.4-0.8-0.4-1.2c0-0.2,0.4-0.5,0.6-0.4c0.2,0.1,0.5,0.2,0.6,0.4c1.6,1.6,3.6,3,5.6,4.2
	C347.5,394.9,347.8,395.7,347.9,396.6z"/>
</svg>
