<?xml version="1.0" encoding="utf-8"?>
<!-- Generator: Adobe Illustrator 18.1.1, SVG Export Plug-In . SVG Version: 6.00 Build 0)  -->
<svg version="1.1" id="Layer_1" xmlns="http://www.w3.org/2000/svg" xmlns:xlink="http://www.w3.org/1999/xlink" x="0px" y="0px"
	 viewBox="0 0 10.1 14.4" enable-background="new 0 0 10.1 14.4" xml:space="preserve">
<path fill="#CF0A2C" d="M0.3,6.7c0.4,0,0.7-0.1,1-0.3C1.9,5.9,2.5,5.5,3,5c0.2-0.2,0.4-0.3,0.7-0.4c0.2-0.1,0.5,0,0.5,0.2
	c0.1,0.4,0.2,0.7,0.2,1.1c0,0.7,0,1.5,0.1,2.2c0.2,1.8,0.3,3.6,0.3,5.4c0,0.2,0,0.4,0,0.6c0.3,0.1,0.7,0.1,1,0.2c0-0.1,0-0.2,0-0.3
	c-0.1-2.4-0.2-4.8-0.1-7.2c0-0.4,0-0.7,0-1.1c0-0.5-0.2-1.1,0.2-1.5c0.8-0.1,0.9,0.6,1.3,1c0.6,0.7,1.4,1.1,2.2,1.5
	C9.5,6.8,9.8,6.7,10,6.6c0.1-0.1,0.1-0.4,0-0.6C9.8,5.8,9.6,5.5,9.4,5.3c-0.5-0.5-1-1-1.4-1.5C7,2.6,5.9,1.6,5.7,0
	C4.8,0.1,4.3,0.3,3.8,1.1c-1,1.6-2.1,3.2-3.4,4.6C0.2,5.8,0.1,6,0,6.2C-0.1,6.4,0.1,6.6,0.3,6.7z"/>
</svg>
