<?xml version="1.0" encoding="utf-8"?>
<!-- Generator: Adobe Illustrator 18.1.1, SVG Export Plug-In . SVG Version: 6.00 Build 0)  -->
<!DOCTYPE svg PUBLIC "-//W3C//DTD SVG 1.1//EN" "http://www.w3.org/Graphics/SVG/1.1/DTD/svg11.dtd">
<svg version="1.1" id="Layer_1" xmlns="http://www.w3.org/2000/svg" xmlns:xlink="http://www.w3.org/1999/xlink" x="0px" y="0px"
	 width="35.6px" height="12px" viewBox="-287 392.3 35.6 12" enable-background="new -287 392.3 35.6 12" xml:space="preserve">
<path fill="#CF0A2C" d="M-285.8,396.8c1.9-1.2,3.9-2.4,5.5-4.1c0.2-0.2,0.4-0.3,0.6-0.4c0.2-0.1,0.5,0.1,0.6,0.4
	c0,0.5-0.1,0.9-0.4,1.2c-0.5,0.7-1,1.3-1.5,1.9c-0.2,0.2-0.4,0.5-0.5,0.8c-0.1,0.2,0.1,0.6,0.3,0.6c0.4,0.1,0.9,0.2,1.3,0.2
	c0.9,0,1.8,0.1,2.6,0.1c2.1,0.2,4.3,0.3,6.5,0.4c2.3,0.1,4.7,0.4,7,0c0.4-0.1,0.8,0,1.1,0c3.4,0.1,6.8,0.1,10.3,0c0.3,0,0.7,0,1,0
	c-0.1,0.4-0.1,0.9-0.1,1.3c-0.7,0-1.5,0-2.2,0c-1.1,0-2.3,0-3.4,0c-1.5,0-2.9-0.1-4.4,0c-2.5,0.2-4.9,0.3-7.4,0
	c-0.4-0.1-0.9-0.1-1.3-0.1c-2.9-0.1-5.7-0.3-8.6-0.1c-0.4,0-0.9,0-1.3,0c-0.6,0-1.3-0.3-1.8,0.2c-0.1,0.9,0.7,1.1,1.2,1.5
	c0.8,0.7,1.4,1.7,1.8,2.6c0.1,0.2-0.1,0.5-0.2,0.7c-0.1,0.2-0.5,0.2-0.7,0c-0.3-0.2-0.6-0.5-0.9-0.7c-0.6-0.6-1.2-1.2-1.8-1.7
	c-1.3-1.1-2.6-2.4-4.5-2.7C-286.9,398.1-286.7,397.4-285.8,396.8z"/>
</svg>
