<?xml version="1.0" encoding="utf-8"?>
<!-- Generator: Adobe Illustrator 18.1.1, SVG Export Plug-In . SVG Version: 6.00 Build 0)  -->
<svg version="1.1" id="Layer_1" xmlns="http://www.w3.org/2000/svg" xmlns:xlink="http://www.w3.org/1999/xlink" x="0px" y="0px"
	 viewBox="0 0 27.3 15.1" enable-background="new 0 0 27.3 15.1" xml:space="preserve">
<path fill="#CF0A2C" d="M25.7,5.7c-2.4-1.5-4.9-3.1-6.9-5.2C18.6,0.3,18.3,0.2,18,0c-0.2-0.1-0.7,0.2-0.7,0.5
	c-0.1,0.6,0.2,1.1,0.5,1.6c0.6,0.8,1.3,1.6,1.9,2.4c0.2,0.3,0.4,0.7,0.6,1c0.1,0.2-0.1,0.7-0.3,0.8c-0.5,0.1-1.1,0.3-1.6,0.3
	c-1.1,0-2.2,0.1-3.3,0.2c-2.7,0.2-5.4,0.4-8.1,0.5C4.6,7.3,2.3,7.5,0,7.4C0.1,8,0.1,8.5,0.2,9.1c1.5,0,2.9-0.1,4.4-0.3
	c0.6-0.1,1.1-0.1,1.7-0.1C9.8,8.6,13.4,8.3,17,8.6c0.6,0,1.1,0,1.7,0c0.8,0,1.6-0.4,2.3,0.2c0.1,1.1-0.9,1.4-1.5,1.9
	c-1.1,0.9-1.7,2.1-2.3,3.3c-0.1,0.2,0.1,0.6,0.2,0.9c0.1,0.2,0.6,0.2,0.9,0c0.4-0.3,0.8-0.6,1.1-0.9c0.8-0.7,1.5-1.5,2.2-2.2
	c1.7-1.4,3.2-3.1,5.7-3.4C27.1,7.3,26.8,6.4,25.7,5.7z"/>
</svg>
