<?xml version="1.0" encoding="utf-8"?>
<!-- Generator: Adobe Illustrator 18.1.1, SVG Export Plug-In . SVG Version: 6.00 Build 0)  -->
<!DOCTYPE svg PUBLIC "-//W3C//DTD SVG 1.1//EN" "http://www.w3.org/Graphics/SVG/1.1/DTD/svg11.dtd">
<svg version="1.1" id="Layer_1" xmlns="http://www.w3.org/2000/svg" xmlns:xlink="http://www.w3.org/1999/xlink" x="0px" y="0px"
	 width="67.3px" height="42px" viewBox="-259 375.6 67.3 42" enable-background="new -259 375.6 67.3 42" xml:space="preserve">
<g>
	<path fill="#141313" d="M-208.1,377.3L-208.1,377.3c-0.2-0.1-0.4-0.2-0.6-0.2c-0.8,0.1-0.9,0.4-1,0.5c0,0-0.2,0.3-0.5,0.7
		c-0.9,1.2-3.3,3.8-5,4.5c0,0-0.9,0.3-1.9,0.3c-1,0.2-2.4,0.3-3.7,0.3c-0.4,0-0.9,0-1.3,0c-0.9-0.8-2.2-1.1-3.7-1.1
		c-0.8,0-1.6,0.1-2.5,0.3c-0.3,0.1-0.7,0.1-1.1,0.1c-1.6,0-3.5-0.4-5.3-0.6c-0.3,0-0.7-0.1-0.9-0.1c-1.4,0-2.4,0.3-3.3,0.8
		c-0.7,0.1-1.5,0.1-2.2,0.1c-1.6,0-3.3-0.2-4.7-0.4c-0.7-0.1-1.2-0.3-1.6-0.3s-0.8-0.2-0.8-0.3c-1.3-0.6-2.8-2-4.1-3.3
		c-0.8-0.5-1.2-1.1-1.6-1.6c-0.3-0.5-0.5-0.8-0.5-0.8c-0.1,0-0.3-0.4-1-0.5c-0.2,0-0.4,0.1-0.6,0.2c-0.5,0.3-0.7,0.9-0.7,1.1
		c0,0.3,0.1,0.5,0.1,0.5s0.6,1.6,1.6,3.6c0.9,1.9,2.2,4.1,3.7,5.3c0.8,0.6,2.3,1.4,4.2,2.1c-0.4,0.2-0.9,0.3-1.4,0.4
		c-0.5,0.2-1,0.3-1.4,0.3c-0.3,0.1-0.6,0.1-0.6,0.1l-1,0.1l0.2,1c0,0.1,0.2,0.9,0.6,2c-3.9,2-6.6,3.9-6.6,3.9l-1.7,1.4l2.2,0.4
		c0,0,0.3,0.1,0.9,0.3c1.7,0.4,5.4,1.6,7.8,3.6c4,3.3,5,5.7,7,8.6c3.5,5.2,9,7,9,7s35.9,0.1,40.4,0.1c0-2.7,0-34.2,0-34.2
		s-18.3,0.5-17.4-1.3c0.9-1.8,1.5-3.3,1.5-3.4s0.1-0.3,0.1-0.5C-207.5,378.2-207.5,377.6-208.1,377.3z"/>
	<path fill="#FFFFFF" d="M-208.1,377.3L-208.1,377.3c-0.2-0.1-0.4-0.2-0.6-0.2c-0.8,0.1-0.9,0.4-1,0.5c0,0-0.2,0.3-0.5,0.7
		c-0.9,1.2-3.3,3.8-5,4.5c0,0-0.9,0.3-1.9,0.3c-1,0.2-2.4,0.3-3.7,0.3c-0.4,0-0.9,0-1.3,0c-0.9-0.8-2.2-1.1-3.7-1.1
		c-0.8,0-1.6,0.1-2.5,0.3c-0.3,0.1-0.7,0.1-1.1,0.1c-1.6,0-3.5-0.4-5.3-0.6c-0.3,0-0.7-0.1-0.9-0.1c-1.4,0-2.4,0.3-3.3,0.8
		c-0.7,0.1-1.5,0.1-2.2,0.1c-1.6,0-3.3-0.2-4.7-0.4c-0.7-0.1-1.2-0.3-1.6-0.3s-0.8-0.2-0.8-0.3c-1.3-0.6-2.8-2-4.1-3.3
		c-0.8-0.5-1.2-1.1-1.6-1.6c-0.3-0.5-0.5-0.8-0.5-0.8c-0.1,0-0.3-0.4-1-0.5c-0.2,0-0.4,0.1-0.6,0.2c-0.5,0.3-0.7,0.9-0.7,1.1
		c0,0.3,0.1,0.5,0.1,0.5s0.6,1.6,1.6,3.6c0.9,1.9,2.2,4.1,3.7,5.3c0.8,0.6,2.3,1.4,4.2,2.1c-0.4,0.2-0.9,0.3-1.4,0.4
		c-0.5,0.2-1,0.3-1.4,0.3c-0.3,0.1-0.6,0.1-0.6,0.1l-1,0.1l0.2,1c0,0.1,0.2,0.9,0.6,2c-3.9,2-6.6,3.9-6.6,3.9l-1.7,1.4l2.2,0.4
		c0,0,0.3,0.1,0.9,0.3c1.7,0.4,5.4,1.6,7.8,3.6c4,3.3,5,5.7,7,8.6c3.5,5.2,9,7,9,7l-0.1-1.7c0-0.4-0.1-0.8-0.1-1.2
		c0-3.1,0.9-4.7,1.7-5.5c0.4-0.4,0.9-0.7,1.1-0.8c0.2-0.1,0.3-0.1,0.3-0.2c0,0,0,0,0.1,0c0.2,0,0.4,0,0.7,0c0.3,0,0.7,0,1,0.1
		c0.2,0,0.3,0,0.5,0c1.6,0,2.8-0.9,3.3-2.2c1.1-1.5,1.6-2.7,1.6-3.7c0-0.9-0.3-1.5-0.5-1.7c0-0.2-0.1-0.4-0.1-0.6
		c0-0.3,0-0.5,0.1-0.8c0.1-0.4,0.9-1.4,1.6-2.7c0.5,0.1,1,0.2,1.6,0.3c0.1,0,0.2,0,0.2,0c2.2,0,3.9-1.2,4.8-2.2
		c1-1.1,1.5-2.2,1.6-2.2l0.6-1.4h-1.5c-1.6,0-2.9-0.6-4.1-1.4c0.9-0.3,1.6-0.5,2.4-0.9c1.2-0.5,2.1-0.9,2.7-1.4
		c1.5-1.1,2.6-3.2,3.5-4.9c0.9-1.8,1.5-3.3,1.5-3.4s0.1-0.3,0.1-0.5C-207.5,378.2-207.5,377.6-208.1,377.3z"/>
	<g>
		<path fill="#231F20" d="M-208.6,378.1c-0.2-0.1-0.3,0.1-0.3,0.1s-3.1,4.2-5.9,5.4c-0.7,0.3-4.4,0.9-7.8,0.7
			c-0.9-1-2.9-1.4-5.6-0.9c-2,0.4-4.7-0.3-6.7-0.5c-1.8-0.2-3,0.2-3.9,0.7c-4.1,0.5-9.2-0.5-10-0.9c-3-1.4-6.4-6-6.4-6
			s-0.2-0.2-0.4-0.1c-0.2,0.2-0.1,0.4-0.1,0.4s2.4,6.5,5,8.5c0.8,0.6,3.2,1.8,6,2.6c-1.7,1.7-5.6,2-5.6,2s0.2,1.2,0.9,2.6
			c-4.3,2.2-7.3,4.3-7.3,4.3s9.8,1.6,15.4,11.6c-0.3-2-0.1-3.2-0.1-3.2c1.5,5.9,4.6,8.8,8.1,10.4c-0.5-7.8,4-8.7,4-8.7
			c0.5-0.1,1.2-0.1,2,0c1.5,0.2,2.5-0.6,2.8-1.7c2.5-3.1,1-4.6,1-4.6s-0.3-1.1,0-2.2c0.3-0.9,1.2-2,2-3.6c0.5,0.3,1.2,0.4,2.2,0.4
			c3.9,0.1,5.6-3.9,5.6-3.9c-2.8,0-4.7-1.5-6-2.8c3-0.7,5.7-1.9,6.5-2.5c2.4-1.8,4.7-7.8,4.7-7.8S-208.4,378.2-208.6,378.1z"/>
		<path fill="#CF0A2C" d="M-225.3,390.2c0.1-0.3,0.3-0.5,0.3-0.5c0.7-0.9,2.1,0,2.1,0c-0.3-1.1-1.4-1.4-2.2-1.5
			c0.4-0.3,0.9-1,0.7-2.1c-0.3-0.9-0.9-1.4-2.3-1.2c0,0-1.8,0.3-4,0.1c-1.6-0.2-4.3-1.5-6.6-0.1c0.6,0.8,0,2-0.1,2.1
			c-2.2,4.5-7.5,4.4-7.5,4.4c1.5-0.7,2.4-1.6,3-2.3c-1.3,0.9-3.1,1.6-5.6,1.9c0,0,0.4,3.4,4.6,3.4c1.1,0,1.9-0.2,2.5-0.4
			c0.3-1.2,0.7-2,0.7-2s-0.1,4.1,4.4,7.2c0.1-1.6,0.8-2.3,0.8-2.3s-0.2,1.8,0.4,3.4c0.5,1.6,0.5,2.7,0.6,3.4c0.3,1.5,1.6,1.6,2.1,1
			c0,0-0.9-2.8,0.2-3.8c1.1-0.9,2.7-0.1,2.7-0.1s1.2,0.6,2.2,0.3c1.1-0.4,1.8-0.2,1.8-0.2s-0.8-1.4-0.9-2.6
			c-0.2-1.6,0.3-2.1-0.1-3.4c-0.7,0.4-1.5,0.4-1.5,0.4C-225.7,394.2-225.7,391.8-225.3,390.2z M-234.1,393.5
			c-0.3,0.1-0.5-0.1-0.5-0.1c-0.1-0.1-0.5-0.5-0.2-1c0.2,0.2,0.4,0.3,0.4,0.3c0-0.1-0.3-0.8-0.3-0.9c-0.2,0-0.4,0-0.5,0.1
			c-0.3,0.3-0.3,0.9,0.2,1.3c-0.3-0.1-0.8-0.3-1-0.6c-0.6-0.7-0.7-1.6-0.2-2.2c0.3-0.2,0.5-0.3,0.8-0.3c-0.6-0.8-1.5-0.8-1.5-0.8
			s2-1.2,2.9,1.1c0.6,1.5,1.3,4.1,3.4,4.8C-230.7,395.4-232.9,395.9-234.1,393.5z"/>
		<path fill="#CF0A2C" d="M-241.2,397.7c0.2,6,2.6,11,5.2,13c0.9-6.5-2.9-7-4.3-14.8c-2.3,1.2-4.9,1.7-7.4,1.6
			c1.8,1.1,3.6,2.8,5.2,4.8C-242,399.5-241.2,397.7-241.2,397.7z"/>
		<g>
			<path fill="#FFFFFF" d="M-238.9,385.1c-3.3,0.1-8.8-0.1-11-1.6c0,0,2.2,2.8,11,3.3C-238.3,386.5-238.3,385.4-238.9,385.1z"/>
			<g>
				<path fill="#FFFFFF" d="M-230,402c-0.3,0.1-0.5,0.4-0.4,0.9s0.4,0.7,0.9,0.6c0.1,0,0.1,0,0.2-0.1c0.3-0.1,0.8,0,0.9,0.2
					L-230,402z"/>
				<path fill="#FFFFFF" d="M-224.7,402.3l-1.5,1.2c0.2-0.1,0.5-0.3,0.9-0.2l0.1,0.1c0.3,0.1,0.6-0.1,0.7-0.4
					C-224.3,402.7-224.5,402.4-224.7,402.3z"/>
			</g>
			<path fill="#FFFFFF" d="M-234.6,393.4c-0.1-0.1-0.5-0.5-0.2-1c0.2,0.2,0.4,0.3,0.4,0.3c0-0.1-0.3-0.8-0.3-0.9
				c-0.2,0-0.4,0-0.5,0.1c-0.3,0.3-0.3,0.9,0.2,1.3l0,0c0.3,0.3,0.6,0.3,0.9,0.3C-234.5,393.6-234.6,393.4-234.6,393.4z"/>
		</g>
	</g>
</g>
</svg>
