<?xml version="1.0" encoding="utf-8"?>
<!-- Generator: Adobe Illustrator 18.1.1, SVG Export Plug-In . SVG Version: 6.00 Build 0)  -->
<!DOCTYPE svg PUBLIC "-//W3C//DTD SVG 1.1//EN" "http://www.w3.org/Graphics/SVG/1.1/DTD/svg11.dtd">
<svg version="1.1" id="Layer_1" xmlns="http://www.w3.org/2000/svg" xmlns:xlink="http://www.w3.org/1999/xlink" x="0px" y="0px"
	 width="9px" height="9px" viewBox="0.4 783.5 9 9" enable-background="new 0.4 783.5 9 9" xml:space="preserve">
<rect x="0.4" y="783.5" opacity="1" fill="#333337" width="9" height="9"/>
<path fill="#1A1A21" d="M3.7,787.8c-0.1,0-0.1,0-0.2,0L3.4,788c0.1,0.1,0.1,0.3,0.3,0.3c0.1,0.1,0.3,0.1,0.5,0.2c0.8,0,1-0.2,1-1
	c0-0.1,0-0.3-0.1-0.4c-0.1-0.2-0.3-0.4-0.4-0.5c-0.1-0.1-0.2-0.1-0.3-0.1c-0.1,0.1-0.1,0.3-0.1,0.4c0.1,0.1,0.2,0.2,0.3,0.4
	c0.1,0.1,0,0.3-0.1,0.4C4.2,787.8,4.1,787.9,3.7,787.8z"/>
<path fill="#1A1A21" d="M8.3,787.6c0,0.4-0.2,0.8-0.5,0.8c-0.3,0.1-0.7,0.1-1-0.1s-0.4-0.6-0.2-0.9c0.1-0.2,0.1-0.4,0.2-0.5
	c0.1-0.2,0.2-0.3,0.4-0.3c0.1-0.1,0.3-0.1,0.5-0.1c0.3,0,0.6,0.2,0.6,0.6c0,0.1,0,0.2,0,0.2C8.3,787.5,8.3,787.5,8.3,787.6z
	 M7.7,787.6c-0.1,0-0.2,0.1-0.3,0.1v0.1c0,0.1,0.1,0.2,0.2,0.1C7.7,787.9,7.8,787.8,7.7,787.6C7.8,787.7,7.8,787.6,7.7,787.6z"/>
<path fill="#1A1A21" d="M6.7,785.1c-0.3-0.2-0.4-0.7-0.2-0.9c0.2-0.3,0.4-0.6,0.8-0.6c0.3-0.1,0.6,0.1,0.8,0.4
	c0,0.2,0.1,0.3,0.2,0.5s0,0.4-0.1,0.5c-0.1,0.2-0.2,0.3-0.3,0.4c-0.2,0.3-0.5,0.3-0.8,0c-0.1,0-0.2-0.1-0.2-0.1
	C6.8,785.2,6.7,785.2,6.7,785.1z M7.1,784.7c0.1-0.1,0.1-0.2,0.1-0.3c0,0,0-0.1-0.1-0.1c-0.1-0.1-0.2,0-0.3,0.1c0,0.1,0,0.3,0.1,0.3
	S7.1,784.8,7.1,784.7z"/>
<path fill="#1A1A21" d="M0.7,791.1c-0.3-0.3-0.4-0.7-0.2-1c0.2-0.3,0.4-0.5,0.8-0.6c0.3-0.1,0.7,0.1,0.8,0.4
	c0.1,0.2,0.1,0.4,0.2,0.6s0,0.4-0.1,0.5s-0.1,0.3-0.3,0.4c-0.2,0.2-0.5,0.2-0.8,0c-0.1-0.1-0.2-0.2-0.2-0.2
	C0.8,791.1,0.8,791.1,0.7,791.1z M1.2,790.7c0-0.1,0.1-0.2,0.1-0.3c0,0,0-0.1-0.1-0.1c-0.1-0.1-0.2,0-0.3,0.1
	c-0.1,0.1,0,0.2,0.1,0.3C1,790.7,1.1,790.7,1.2,790.7z"/>
<path fill="#1A1A21" d="M3.8,791.1c-0.3-0.3-0.4-0.7-0.3-1c0.2-0.3,0.5-0.5,0.9-0.6c0.3-0.1,0.7,0.1,0.8,0.4c0,0.2,0.1,0.4,0.1,0.6
	c0.1,0.2,0.1,0.4,0,0.5s-0.2,0.3-0.3,0.4c-0.3,0.2-0.6,0.2-0.9,0C4,791.3,4,791.2,4,791.2C3.8,791.1,3.8,791.1,3.8,791.1z
	 M4.2,790.7c0-0.1,0.1-0.2,0.1-0.3c0,0,0-0.1-0.1-0.1c-0.1-0.1-0.2,0-0.3,0.1c-0.1,0.1,0,0.2,0.1,0.3C4,790.7,4.1,790.7,4.2,790.7z"
	/>
<path fill="#1A1A21" d="M2.3,787.8c0,0.2,0,0.3,0,0.5c0,0-0.1,0.2-0.2,0.2c-0.3,0-0.7,0-1,0c-0.2,0-0.4-0.1-0.6-0.3
	c-0.1-0.2-0.1-0.4-0.1-0.6c0.1-0.3,0.3-0.6,0.6-0.8c0.2-0.1,0.4-0.2,0.6-0.2c0.3-0.1,0.5,0,0.6,0.3C2.2,787.2,2.3,787.5,2.3,787.8
	L2.3,787.8z M1.4,787.6L1.4,787.6L1.4,787.6L1.4,787.6z"/>
<path fill="#1A1A21" d="M8,790.1c0.1,0,0.1,0,0.2,0s0.2-0.2,0.1-0.2c0-0.1-0.1-0.2-0.2-0.3c-0.2-0.1-0.3-0.1-0.5-0.1
	c-0.8,0-1,0.2-1,1c0,0.1,0,0.3,0.1,0.4c0.1,0.2,0.3,0.3,0.4,0.5c0.1,0.1,0.2,0.1,0.3,0c0.1,0,0.1-0.3,0-0.4c0-0.1-0.1-0.2-0.2-0.3
	c-0.1-0.1,0-0.3,0.1-0.4C7.5,790.1,7.6,790.1,8,790.1z"/>
<path fill="#1A1A21" d="M0.5,784.5c0-0.4,0.2-0.8,0.5-0.8c0.3-0.2,0.7-0.2,1,0.1c0.3,0.2,0.4,0.6,0.2,0.9c-0.1,0.1-0.1,0.3-0.2,0.4
	c-0.1,0.2-0.3,0.3-0.4,0.4c-0.2,0-0.3,0-0.5,0c-0.3,0-0.6-0.2-0.6-0.6c0-0.1,0-0.2,0-0.2C0.5,784.6,0.5,784.5,0.5,784.5z M1,784.5
	c0.1,0,0.2-0.1,0.3-0.1v-0.1c0-0.1-0.1-0.2-0.2-0.1C1,784.2,0.9,784.3,1,784.5C0.9,784.4,1,784.5,1,784.5z"/>
<path fill="#1A1A21" d="M3.6,784.3c0-0.2,0-0.3,0-0.5c-0.1-0.1,0-0.3,0.1-0.3c0.3,0,0.7,0,1,0c0.2,0,0.4,0.1,0.5,0.3
	c0.2,0.2,0.3,0.4,0.2,0.7s-0.3,0.6-0.6,0.7c-0.2,0.1-0.4,0.2-0.6,0.3s-0.5-0.1-0.6-0.4C3.6,784.8,3.6,784.6,3.6,784.3
	C3.5,784.3,3.5,784.3,3.6,784.3z M4.4,784.4L4.4,784.4L4.4,784.4L4.4,784.4z"/>
</svg>