<?xml version="1.0" encoding="utf-8"?>
<!-- Generator: Adobe Illustrator 18.1.1, SVG Export Plug-In . SVG Version: 6.00 Build 0)  -->
<!DOCTYPE svg PUBLIC "-//W3C//DTD SVG 1.1//EN" "http://www.w3.org/Graphics/SVG/1.1/DTD/svg11.dtd">
<svg version="1.1" id="Layer_1" xmlns="http://www.w3.org/2000/svg" xmlns:xlink="http://www.w3.org/1999/xlink" x="0px" y="0px"
	 width="9px" height="9px" viewBox="0 0 9 9" enable-background="new 0 0 9 9" xml:space="preserve">
<g>
	<rect x="0" y="0" fill="#CF0A2C" opacity="0.6" width="9" height="9"/>
	<path fill="#B7082E" d="M3.3,4.3c-0.1,0-0.1,0-0.2,0C3.1,4.3,3,4.5,3,4.5c0.1,0.1,0.1,0.3,0.3,0.3C3.4,4.9,3.6,4.9,3.8,5
		c0.8,0,1-0.2,1-1c0-0.1,0-0.3-0.1-0.4C4.6,3.4,4.4,3.2,4.3,3.1C4.2,3,4.1,3,4,3C3.9,3.1,3.9,3.3,3.9,3.4C4,3.5,4.1,3.6,4.2,3.8
		c0.1,0.1,0,0.3-0.1,0.4C3.8,4.3,3.7,4.4,3.3,4.3z"/>
	<path fill="#B7082E" d="M7.9,4.1c0,0.4-0.2,0.8-0.5,0.8C7.1,5,6.7,5,6.4,4.8C6.1,4.6,6,4.2,6.2,3.9c0.1-0.2,0.1-0.4,0.2-0.5
		c0.1-0.2,0.2-0.3,0.4-0.3C6.9,3,7.1,3,7.3,3c0.3,0,0.6,0.2,0.6,0.6c0,0.1,0,0.2,0,0.2C7.9,4,7.9,4,7.9,4.1z M7.3,4.1
		c-0.1,0-0.2,0.1-0.3,0.1c0,0,0,0.1,0,0.1c0,0.1,0.1,0.2,0.2,0.1c0.1,0,0.2-0.1,0.2-0.3C7.4,4.2,7.4,4.1,7.3,4.1z"/>
	<path fill="#B7082E" d="M6.3,1.6C6,1.4,5.9,0.9,6.1,0.7c0.2-0.3,0.4-0.6,0.8-0.6C7.2,0,7.5,0.2,7.7,0.5C7.7,0.7,7.8,0.8,7.9,1
		c0.1,0.2,0,0.4-0.1,0.5C7.7,1.7,7.6,1.8,7.5,1.9C7.3,2.2,7,2.2,6.7,1.9C6.6,1.9,6.5,1.8,6.5,1.8C6.4,1.7,6.3,1.7,6.3,1.6z M6.7,1.2
		C6.8,1.1,6.8,1,6.8,0.9c0,0,0-0.1-0.1-0.1c-0.1-0.1-0.2,0-0.3,0.1C6.4,1,6.4,1.2,6.5,1.2C6.6,1.2,6.7,1.3,6.7,1.2z"/>
	<path fill="#B7082E" d="M0.3,7.6C0,7.3-0.1,6.9,0.1,6.6C0.3,6.3,0.5,6.1,0.9,6c0.3-0.1,0.7,0.1,0.8,0.4C1.8,6.6,1.8,6.8,1.9,7
		c0.1,0.2,0,0.4-0.1,0.5C1.7,7.6,1.7,7.8,1.5,7.9C1.3,8.1,1,8.1,0.7,7.9C0.6,7.8,0.5,7.7,0.5,7.7C0.4,7.6,0.4,7.6,0.3,7.6z M0.8,7.2
		C0.8,7.1,0.9,7,0.9,6.9c0,0,0-0.1-0.1-0.1c-0.1-0.1-0.2,0-0.3,0.1C0.4,7,0.5,7.1,0.6,7.2C0.6,7.2,0.7,7.2,0.8,7.2z"/>
	<path fill="#B7082E" d="M3.4,7.6C3.1,7.3,3,6.9,3.1,6.6C3.3,6.3,3.6,6.1,4,6c0.3-0.1,0.7,0.1,0.8,0.4C4.8,6.6,4.9,6.8,4.9,7
		C5,7.2,5,7.4,4.9,7.5C4.8,7.6,4.7,7.8,4.6,7.9C4.3,8.1,4,8.1,3.7,7.9C3.6,7.8,3.6,7.7,3.6,7.7C3.4,7.6,3.4,7.6,3.4,7.6z M3.8,7.2
		C3.8,7.1,3.9,7,3.9,6.9c0,0,0-0.1-0.1-0.1c-0.1-0.1-0.2,0-0.3,0.1C3.4,7,3.5,7.1,3.6,7.2C3.6,7.2,3.7,7.2,3.8,7.2z"/>
	<path fill="#B7082E" d="M1.9,4.3c0,0.2,0,0.3,0,0.5C1.9,4.8,1.8,5,1.7,5C1.4,5,1,5,0.7,5C0.5,5,0.3,4.9,0.1,4.7C0,4.5,0,4.3,0,4.1
		c0.1-0.3,0.3-0.6,0.6-0.8C0.8,3.2,1,3.1,1.2,3.1C1.5,3,1.7,3.1,1.8,3.4C1.8,3.7,1.9,4,1.9,4.3C1.9,4.3,1.9,4.3,1.9,4.3z M1,4.1
		L1,4.1L1,4.1L1,4.1z"/>
	<path fill="#B7082E" d="M7.6,6.6c0.1,0,0.1,0,0.2,0c0.1,0,0.2-0.2,0.1-0.2C7.9,6.3,7.8,6.2,7.7,6.1C7.5,6,7.4,6,7.2,6
		c-0.8,0-1,0.2-1,1c0,0.1,0,0.3,0.1,0.4c0.1,0.2,0.3,0.3,0.4,0.5C6.8,8,6.9,8,7,7.9C7.1,7.9,7.1,7.6,7,7.5C7,7.4,6.9,7.3,6.8,7.2
		c-0.1-0.1,0-0.3,0.1-0.4C7.1,6.6,7.2,6.6,7.6,6.6z"/>
	<path fill="#B7082E" d="M0.1,1c0-0.4,0.2-0.8,0.5-0.8C0.9,0,1.3,0,1.6,0.3c0.3,0.2,0.4,0.6,0.2,0.9C1.7,1.3,1.7,1.5,1.6,1.6
		C1.5,1.8,1.3,1.9,1.2,2C1,2,0.9,2,0.7,2C0.4,2,0.1,1.8,0.1,1.4c0-0.1,0-0.2,0-0.2C0.1,1.1,0.1,1,0.1,1z M0.6,1
		c0.1,0,0.2-0.1,0.3-0.1c0,0,0-0.1,0-0.1c0-0.1-0.1-0.2-0.2-0.1c-0.1,0-0.2,0.1-0.2,0.3C0.5,0.9,0.6,1,0.6,1z"/>
	<path fill="#B7082E" d="M3.2,0.8c0-0.2,0-0.3,0-0.5C3.1,0.2,3.2,0,3.3,0c0.3,0,0.7,0,1,0c0.2,0,0.4,0.1,0.5,0.3C5,0.5,5.1,0.7,5,1
		C4.9,1.3,4.7,1.6,4.4,1.7C4.2,1.8,4,1.9,3.8,2C3.6,2.1,3.3,1.9,3.2,1.6C3.2,1.3,3.2,1.1,3.2,0.8C3.1,0.8,3.1,0.8,3.2,0.8z M4,0.9
		L4,0.9L4,0.9L4,0.9z"/>
</g>
</svg>
