<?xml version="1.0" encoding="utf-8"?>
<!-- Generator: Adobe Illustrator 18.1.1, SVG Export Plug-In . SVG Version: 6.00 Build 0)  -->
<svg version="1.1" id="Layer_1" xmlns="http://www.w3.org/2000/svg" xmlns:xlink="http://www.w3.org/1999/xlink" x="0px" y="0px"
	 viewBox="0 0 11.6 12.5" enable-background="new 0 0 11.6 12.5" xml:space="preserve">
<path fill="#808080" d="M8.9,10.1C8.1,9.3,7.3,8.5,6.5,7.8C6,7.3,5.6,7.3,5.1,7.7c-0.9,0.8-1.7,1.6-2.5,2.5
	c-0.4,0.4-0.8,0.9-1.3,1.2c-0.2,0.1-0.5,0.2-0.7,0c-0.1-0.2-0.2-0.5-0.2-0.7c0-0.2,0.1-0.4,0.2-0.6c0.3-0.5,0.7-1,1.1-1.4
	C2.2,8,3,7.3,3.7,6.6c0.7-0.7,0.6-1-0.1-1.6C2.4,4,1.2,3.1,0.1,2.1C0,2,0,1.8,0,1.7c0-0.1,0.2-0.2,0.3-0.2c0.1,0,0.3,0,0.4,0.1
	c0.7,0.3,1.4,0.5,1.9,1c0.7,0.5,1.4,1,2.1,1.5c0.5,0.4,0.9,0.4,1.4,0c1.1-0.9,2.1-1.8,3.1-2.7c0.4-0.4,0.8-0.8,1.3-1.2
	C10.7,0,10.9,0,11.1,0c0.2,0,0.4,0.4,0.4,0.6c-0.1,0.3-0.1,0.7-0.3,0.9C10.8,2,10.3,2.5,9.8,3C9.1,3.8,8.4,4.5,7.7,5.3
	c-0.4,0.4-0.4,0.8,0,1.2c0.2,0.3,0.5,0.6,0.8,0.9c1.3,1.3,2.2,2.8,3.1,4.3c0,0.1,0,0.1,0.1,0.2c0.1,0.2,0,0.5-0.2,0.5
	c-0.1,0-0.3,0-0.4-0.1C10.3,11.7,9.6,10.9,8.9,10.1C8.9,10.1,8.9,10.1,8.9,10.1z"/>
</svg>
