<?xml version="1.0" encoding="utf-8"?>
<!-- Generator: Adobe Illustrator 18.1.1, SVG Export Plug-In . SVG Version: 6.00 Build 0)  -->
<svg version="1.1" id="Layer_1" xmlns="http://www.w3.org/2000/svg" xmlns:xlink="http://www.w3.org/1999/xlink" x="0px" y="0px"
	 viewBox="0 0 5.2 5" enable-background="new 0 0 5.2 5" xml:space="preserve">
<path fill="#CF0A2C" d="M3.6,5C2.9,4.9,2.1,4.8,1.4,4.6C1,4.6,0.6,4.3,0.3,3.9C0.1,3.7,0,3.4,0,3c0.2-1,0.4-2,1.1-2.7
	c0.3-0.3,0.6-0.4,1-0.1c1,0.7,1.8,1.7,2.7,2.5C5.2,3,5.3,3.5,5.2,4C5.2,4.6,4.9,4.9,4.4,4.9c-0.2,0-0.5,0-0.7,0C3.6,4.9,3.6,5,3.6,5
	z M1.3,1.5c0.1,0.1,0.2,0.2,0.3,0.2c0.2,0,0.3-0.2,0.3-0.4c0-0.1-0.2-0.1-0.3-0.2C1.5,1.2,1.4,1.3,1.3,1.5z M4.5,3.8l0-0.1l-0.1,0
	L4.5,3.8z"/>
</svg>
