<?xml version="1.0" encoding="utf-8"?>
<!-- Generator: Adobe Illustrator 18.1.1, SVG Export Plug-In . SVG Version: 6.00 Build 0)  -->
<svg version="1.1" id="Layer_1" xmlns="http://www.w3.org/2000/svg" xmlns:xlink="http://www.w3.org/1999/xlink" x="0px" y="0px"
	 viewBox="0 0 6.1 6.7" enable-background="new 0 0 6.1 6.7" xml:space="preserve">
<path fill="#CF0A2C" d="M1.1,4.6c-0.2,0-0.4-0.1-0.7-0.1C0.1,4.4-0.1,5,0.1,5.3c0.3,0.4,0.5,0.9,0.9,1C1.4,6.6,2,6.6,2.6,6.7
	C5.2,6.8,6,5.9,6.1,3.1c0-0.4-0.2-1-0.4-1.3C5.3,1.2,4.8,0.7,4.3,0.3C4,0,3.7-0.1,3.4,0.1C3,0.4,2.9,1.1,3.1,1.5
	c0.2,0.4,0.6,0.8,0.8,1.2c0.2,0.3,0,1.1-0.3,1.3C2.8,4.5,2.4,4.6,1.1,4.6z"/>
</svg>
