<?xml version="1.0" encoding="utf-8"?>
<!-- Generator: Adobe Illustrator 18.1.1, SVG Export Plug-In . SVG Version: 6.00 Build 0)  -->
<svg version="1.1" id="Layer_1" xmlns="http://www.w3.org/2000/svg" xmlns:xlink="http://www.w3.org/1999/xlink" x="0px" y="0px"
	 viewBox="0 0 3.9 4.9" enable-background="new 0 0 3.9 4.9" xml:space="preserve">
<g>
	<path fill="#CF0A2C" d="M0.3,1.5c0.9-1.8,1.6-2,3.1-0.7c0.3,0.2,0.5,0.5,0.5,0.9c0.2,1.1-0.2,2-0.9,2.8C2.4,5,1.4,5.1,0.9,4.6
		C0.4,4.2,0.1,3.5,0,2.6C0.1,2.4,0.1,1.9,0.3,1.5z M2.1,1.8c0.1-0.1,0.2-0.3,0.1-0.5C2.1,1.1,1.8,0.9,1.7,1.1
		C1.5,1.2,1.4,1.3,1.4,1.5c-0.1,0.2,0,0.4,0,0.5C1.1,2.1,0.8,2.2,0.7,2.5c0,0.2,0,0.3,0,0.5c0,0,0.1,0.1,0.1,0.1
		C1,3.1,1.2,3.1,1.2,3c0.1-0.3,0.1-0.7,0.1-1C1.6,1.9,1.9,1.9,2.1,1.8z"/>
</g>
</svg>
