<?xml version="1.0" encoding="utf-8"?>
<!-- Generator: Adobe Illustrator 18.1.1, SVG Export Plug-In . SVG Version: 6.00 Build 0)  -->
<!DOCTYPE svg PUBLIC "-//W3C//DTD SVG 1.1//EN" "http://www.w3.org/Graphics/SVG/1.1/DTD/svg11.dtd">
<svg version="1.1" id="Layer_1" xmlns="http://www.w3.org/2000/svg" xmlns:xlink="http://www.w3.org/1999/xlink" x="0px" y="0px"
	 width="611.8px" height="21.8px" viewBox="0 385.2 611.8 21.8" enable-background="new 0 385.2 611.8 21.8" xml:space="preserve">
<g>
	<path fill="#CF0A2C" d="M439.5,392.1c-2.9-1.9-6.3-1.9-9.4-1.2c-2.9,0.7-4.8,3.1-6.3,6c-0.2,0.7-0.2,1.9,0.5,2.7
		c1.2,1.2,2.7,2.4,3.9,3.6c0.5,0.5,1.5,0.7,2.2,0.7c2.7,0,5.3-0.2,8-1.5c3.6-1.7,4.6-5.6,2.4-9.4
		C440.4,392.9,439.9,392.4,439.5,392.1c-0.2,0.5-0.2,1.5-0.5,1.5c-1.2,0.5-1.7,1.7-1.9,2.7c0,0-0.7,0.2-0.7,0
		c-1.5-2.9-0.7-3.9,1.7-4.4C438.5,392.1,439,392.1,439.5,392.1z"/>
	<path fill="#CF0A2C" d="M373.6,404.2c-1.2-0.2-2.2-0.5-3.1-1c-1.7-0.7-2.4-2.9-1.7-4.6c0.7-1.7,1.5-3.4,2.4-4.8
		c1-1.7,2.7-2.9,4.6-3.6c2.2-0.7,4.6,0.5,4.8,2.7c0.2,1.5,0.7,2.9,1.9,3.6c1.7,0.7,1.5,2.2,1.5,3.6c-0.2,2.7-1.2,3.9-3.4,4.1
		c-1.2,0.2-2.2,0.2-1.9,0.2C375.8,404.2,374.6,404.5,373.6,404.2z M372.9,397.2c0.2,0.2,0.5,0.5,0.7,0.5l0.2-0.2
		c0-0.2-0.2-0.5-0.2-0.7C373.4,396.7,373.2,397,372.9,397.2z"/>
	<path fill="#CF0A2C" d="M262.8,404.2c-2.2-0.2-4.1-1.5-4.8-3.9c-0.2-0.5-0.5-1.2-0.7-1.7c-0.7-2.2-0.5-4.1,0.7-6
		c1.5-2.7,3.6-4.1,6.3-4.8c0.2,0,0.7,0,1.2,0c2.4,1.2,4.6,3.1,5.1,6.3c0.2,1.9,0.5,3.6,0.7,5.6c0.2,1.9-0.5,3.4-2.2,3.9
		c-1.2,0.5-2.7,0.7-3.4,0.7C264.5,404.2,263.5,404.2,262.8,404.2z M259.7,396.5c0,0.5,0.2,1,0.5,1c0.5,0.2,1.2,0.5,1.5,0.2
		c0.7-0.2,1.5-0.7,1.9-1.5c0.2-0.5,0.5-1.2,0.5-1.7c-0.2-0.5-0.7-0.7-1.2-1.2c-0.2,0-0.5,0-0.5,0
		C260.9,393.6,259.9,394.8,259.7,396.5z"/>
	<path fill="#CF0A2C" d="M325.2,405.9c-2.2-0.5-4.6-0.7-6.8-1.2c-1.2-0.2-2.4-1-3.4-2.2c-0.7-0.7-1.2-1.7-1-2.9
		c0.5-3.1,1.2-6,3.4-8.5c1-1,1.9-1.2,3.1-0.5c3.1,2.2,5.6,5.1,8.2,7.5c1.5,1.2,1.5,2.7,1.5,4.4c-0.2,1.7-1.2,2.7-2.7,2.7
		c-0.7,0-1.5,0-2.2,0C325.5,405.7,325.2,405.9,325.2,405.9z M318.2,395c0.2,0.2,0.7,0.5,1,0.5c0.5,0,1-0.5,1-1.2
		c0-0.2-0.5-0.5-1-0.7C318.9,394.1,318.5,394.5,318.2,395z M328.1,402.3l0.2-0.2h-0.2V402.3z"/>
	<path fill="#CF0A2C" d="M60,388.7c2.4,0.5,3.6,2.2,4.1,4.6c0.5,2.4,0.5,5.1-1.7,6.8c-0.2,0.2-0.2,0.7-0.5,1.2
		c0.2,0.7,1.2,1.5,1,2.2c-0.2,1.2-1.5,1.2-2.4,1.2c-1.9,0-3.9,0-5.8,0c-2.2-0.2-3.9-2.2-4.1-4.6c-0.2-2.7,0-5.1,2.7-6.3
		c0.2-0.2,0.7-0.5,1-0.7c1.5-1,1.2-2.4,1-4.6C57.4,388.7,58.6,388.5,60,388.7z M55.2,396.5c0.2-0.2,0.5-0.5,0.5-0.7
		c0,0-0.2-0.2-0.2-0.5c-0.2,0.2-0.5,0.5-0.7,0.7C54.9,396,54.9,396.2,55.2,396.5z"/>
	<path fill="#CF0A2C" d="M220.9,392.6c-1,0-1.9,0.2-2.9,0.2c-1-0.2-1.7-0.7-2.7-1c-2.2-0.7-4.1-0.2-5.6,1.9
		c-0.7,1.2-1.5,2.4-1.7,3.9c-0.7,2.4,0,4.4,1.5,6.3c0.5,0,1,0.5,1.5,0.5c1.2,0.2,2.7,0.2,3.9,0c7-1.2,8.5-1.2,6.5-10.4
		C221.4,393.6,221.2,393.1,220.9,392.6z"/>
	<path fill="#CF0A2C" d="M168.9,397.7c0.2,2.7-1.5,5.6-3.9,6.3c-2.7,0.7-5.3,0.5-7.7-1c-1.9-1.5-2.7-4.1-1.7-6.5
		c0.5-1.2,1.2-2.7,1.7-3.9c0.7-1.2,1.7-2.2,3.1-2.4c1.2-0.2,2.2-0.5,3.4-0.5c2.7,0,4.4,1.7,4.6,4.4c0,0.7,0,1.7,0,1.9
		C168.9,397,168.9,397.5,168.9,397.7z M164.6,397.7c-0.7,0-1.5,0.5-1.9,1c-0.2,0.2-0.2,0.7-0.2,1c0.2,0.7,1,1.2,1.7,1
		c1-0.2,1.7-1,1.5-2.4C165.3,398.2,165,397.7,164.6,397.7z"/>
	<path fill="#CF0A2C" d="M1,390.4c2.9-6.3,5.6-6.8,10.6-2.4c1,0.7,1.7,1.9,1.7,3.1c0.5,3.9-0.5,7-3.1,9.4c-1.9,1.9-5.1,1.9-7,0.5
		c-1.7-1.7-2.9-3.9-3.1-7C0.2,393.1,0.2,391.6,1,390.4z M7.3,391.2c0.5-0.2,0.7-1,0.2-1.7c-0.2-0.7-1.2-1.2-1.7-0.7
		c-0.5,0.5-1,1-1.2,1.5c-0.2,0.5,0,1.2,0,1.9c-1,0.2-1.9,0.5-1.9,1.7c0,0.5,0,1.2,0.2,1.7c0,0.2,0.2,0.5,0.5,0.5s1-0.2,1-0.5
		c0.2-1.2,0.2-2.4,0.5-3.4C5.3,391.9,6.3,391.6,7.3,391.2z"/>
	<path fill="#CF0A2C" d="M501.2,404.2c0.2,1.2-1,2.7-1.9,2.7c-2.7,0-5.3-0.2-8-0.5c-1,0-1.7-0.7-2.7-1.2c-0.5-0.5-1.2-1.2-1.5-1.9
		c-0.7-2.2-0.7-4.6,0.7-6.5c1.2-1.9,2.9-3.1,5.1-3.9c1.2-0.5,2.2-0.5,3.1,0.5c1.2,1,2.4,2.2,3.6,3.1
		C500.2,398.9,500.7,401.6,501.2,404.2z M492.9,400.4c0,0,0.5,0,0.5-0.2c0.2-0.2,0.5-0.7,0.5-1c0-0.2-0.2-1-0.5-1
		c-0.2-0.2-0.7,0-1,0.2c-0.2,0.2-0.2,0.7-0.5,1C492.5,399.9,492.7,400.1,492.9,400.4z M495.6,402.3c-0.2,0.2,0,0.7-0.2,1
		c0.2,0,0.7,0,1,0c0.2-0.2,0.5-0.5,0.7-1c0-0.2,0-0.5,0-0.5s-0.2-0.2-0.5-0.2C496.3,401.8,495.8,402,495.6,402.3z"/>
	<path fill="#CF0A2C" d="M269.3,397.2c0.2-0.2,0.2-0.5,0.5-0.7c0,0-0.2-0.2-0.2-0.5c-0.2,0.2-0.2,0.5-0.5,0.7
		C269.1,397,269.1,397,269.3,397.2z"/>
	<path fill="#CF0A2C" d="M557.3,402c0,1,0.2,1.9,0.2,3.1c0,0.7-0.7,1.7-1.2,1.7c-2.2,0-4.6,0.2-6.8,0c-1.5,0-2.4-1-3.4-2.2
		s-1.2-2.7-0.7-4.1c0.7-2.2,1.9-4.1,4.1-5.1c1.2-0.5,2.4-1.2,3.6-1.7c1.7-0.7,3.6,0.5,3.9,2.4C557.1,398.2,557.1,400.1,557.3,402
		L557.3,402z M551.7,401.1h0.5l-0.5-0.5V401.1z"/>
	<path fill="#CF0A2C" d="M608.9,396.5c0.2,1.7,0.7,2.7,2.4,3.1c0.2,0,0.7,1,0.5,1.5c-0.5,2.9-2.7,4.4-5.1,5.6
		c-0.5,0.2-1.2,0.2-1.7,0c-1.2-0.5-2.4-1-3.6-1.5c-0.5-0.2-1-0.7-1.2-1.2c-2.4-5.1-1.9-7,1.2-10.4c0.2-0.2,0.5-0.5,1-0.7
		c0.7-0.5,1.5-0.7,2.2-0.5c1.2,0.7,2.4,1.2,3.9,2.2C608.6,395.3,608.9,395.8,608.9,396.5z M603.3,399.6c0.2,0.2,0.7,0,1-0.2
		c0.2-0.5,0.5-1,0.7-1.7c0-0.2-0.2-1-0.5-1c-0.2,0-0.7,0-1,0.2c-0.2,0.5-0.5,1-0.7,1.5C603,398.9,603,399.4,603.3,399.6z"/>
	<path fill="#CF0A2C" d="M107,401.1c-0.5,0-0.7-0.2-1.2-0.2c-0.5,0-1,1-0.7,1.5c0.5,0.7,1,1.5,1.5,1.7c1.2,0.5,2.2,0.5,2.9,0.5
		c4.4,0.2,5.8-1.2,6-6c0-0.7-0.2-1.7-0.7-2.2c-0.7-1-1.5-1.9-2.4-2.7c-0.5-0.5-1-0.7-1.5-0.2c-0.5,0.5-0.7,1.7-0.5,2.2
		c0.5,0.7,1,1.2,1.5,1.9c0.2,0.5,0,1.7-0.5,2.2C109.9,401.1,109.1,401.1,107,401.1z"/>
</g>
</svg>
