<?xml version="1.0" encoding="utf-8"?>
<!-- Generator: Adobe Illustrator 18.1.1, SVG Export Plug-In . SVG Version: 6.00 Build 0)  -->
<svg version="1.1" id="Layer_1" xmlns="http://www.w3.org/2000/svg" xmlns:xlink="http://www.w3.org/1999/xlink" x="0px" y="0px"
	 viewBox="0 0 252.9 9" enable-background="new 0 0 252.9 9" xml:space="preserve">
<g>
	<path fill="#B3B3B3" d="M181.6,2.9c-1.2-0.8-2.6-0.8-3.9-0.5c-1.2,0.3-2,1.3-2.6,2.5C175,5.2,175,5.7,175.3,6
		c0.5,0.5,1.1,1,1.6,1.5c0.2,0.2,0.6,0.3,0.9,0.3c1.1,0,2.2-0.1,3.3-0.6c1.5-0.7,1.9-2.3,1-3.9C182,3.2,181.8,3,181.6,2.9
		c-0.1,0.2-0.1,0.6-0.2,0.6c-0.5,0.2-0.7,0.7-0.8,1.1c0,0-0.3,0.1-0.3,0c-0.6-1.2-0.3-1.6,0.7-1.8C181.2,2.9,181.4,2.9,181.6,2.9z"
		/>
	<path fill="#B3B3B3" d="M154.4,7.9c-0.5-0.1-0.9-0.2-1.3-0.4c-0.7-0.3-1-1.2-0.7-1.9c0.3-0.7,0.6-1.4,1-2c0.4-0.7,1.1-1.2,1.9-1.5
		c0.9-0.3,1.9,0.2,2,1.1c0.1,0.6,0.3,1.2,0.8,1.5c0.7,0.3,0.6,0.9,0.6,1.5c-0.1,1.1-0.5,1.6-1.4,1.7c-0.5,0.1-0.9,0.1-0.8,0.1
		C155.3,7.9,154.8,8,154.4,7.9z M154.1,5c0.1,0.1,0.2,0.2,0.3,0.2c0,0,0.1-0.1,0.1-0.1c0-0.1-0.1-0.2-0.1-0.3
		C154.3,4.8,154.2,4.9,154.1,5z"/>
	<path fill="#B3B3B3" d="M108.6,7.9c-0.9-0.1-1.7-0.6-2-1.6c-0.1-0.2-0.2-0.5-0.3-0.7c-0.3-0.9-0.2-1.7,0.3-2.5
		c0.6-1.1,1.5-1.7,2.6-2c0.1,0,0.3,0,0.5,0c1,0.5,1.9,1.3,2.1,2.6c0.1,0.8,0.2,1.5,0.3,2.3c0.1,0.8-0.2,1.4-0.9,1.6
		c-0.5,0.2-1.1,0.3-1.4,0.3C109.3,7.9,108.9,7.9,108.6,7.9z M107.3,4.7c0,0.2,0.1,0.4,0.2,0.4c0.2,0.1,0.5,0.2,0.6,0.1
		c0.3-0.1,0.6-0.3,0.8-0.6c0.1-0.2,0.2-0.5,0.2-0.7c-0.1-0.2-0.3-0.3-0.5-0.5c-0.1,0-0.2,0-0.2,0C107.8,3.5,107.4,4,107.3,4.7z"/>
	<path fill="#B3B3B3" d="M134.4,8.6c-0.9-0.2-1.9-0.3-2.8-0.5c-0.5-0.1-1-0.4-1.4-0.9c-0.3-0.3-0.5-0.7-0.4-1.2
		c0.2-1.3,0.5-2.5,1.4-3.5c0.4-0.4,0.8-0.5,1.3-0.2c1.3,0.9,2.3,2.1,3.4,3.1c0.6,0.5,0.6,1.1,0.6,1.8c-0.1,0.7-0.5,1.1-1.1,1.1
		c-0.3,0-0.6,0-0.9,0C134.5,8.5,134.4,8.6,134.4,8.6z M131.5,4.1c0.1,0.1,0.3,0.2,0.4,0.2c0.2,0,0.4-0.2,0.4-0.5
		c0-0.1-0.2-0.2-0.4-0.3C131.8,3.7,131.6,3.9,131.5,4.1z M135.6,7.1l0.1-0.1l-0.1,0L135.6,7.1z"/>
	<path fill="#B3B3B3" d="M24.8,1.5c1,0.2,1.5,0.9,1.7,1.9c0.2,1,0.2,2.1-0.7,2.8c-0.1,0.1-0.1,0.3-0.2,0.5c0.1,0.3,0.5,0.6,0.4,0.9
		c-0.1,0.5-0.6,0.5-1,0.5c-0.8,0-1.6,0-2.4,0c-0.9-0.1-1.6-0.9-1.7-1.9c-0.1-1.1,0-2.1,1.1-2.6c0.1-0.1,0.3-0.2,0.4-0.3
		c0.6-0.4,0.5-1,0.4-1.9C23.7,1.5,24.2,1.4,24.8,1.5z M22.8,4.7C22.9,4.6,23,4.5,23,4.4c0,0-0.1-0.1-0.1-0.2
		c-0.1,0.1-0.2,0.2-0.3,0.3C22.7,4.5,22.7,4.6,22.8,4.7z"/>
	<path fill="#B3B3B3" d="M91.3,3.1c-0.4,0-0.8,0.1-1.2,0.1c-0.4-0.1-0.7-0.3-1.1-0.4c-0.9-0.3-1.7-0.1-2.3,0.8
		c-0.3,0.5-0.6,1-0.7,1.6c-0.3,1,0,1.8,0.6,2.6C86.8,7.8,87,8,87.2,8c0.5,0.1,1.1,0.1,1.6,0c2.9-0.5,3.5-0.5,2.7-4.3
		C91.5,3.5,91.4,3.3,91.3,3.1z"/>
	<path fill="#B3B3B3" d="M69.8,5.2c0.1,1.1-0.6,2.3-1.6,2.6c-1.1,0.3-2.2,0.2-3.2-0.4c-0.8-0.6-1.1-1.7-0.7-2.7
		c0.2-0.5,0.5-1.1,0.7-1.6c0.3-0.5,0.7-0.9,1.3-1c0.5-0.1,0.9-0.2,1.4-0.2c1.1,0,1.8,0.7,1.9,1.8c0,0.3,0,0.7,0,0.8
		C69.8,4.9,69.8,5.1,69.8,5.2z M68,5.2c-0.3,0-0.6,0.2-0.8,0.4c-0.1,0.1-0.1,0.3-0.1,0.4c0.1,0.3,0.4,0.5,0.7,0.4
		c0.4-0.1,0.7-0.4,0.6-1C68.3,5.4,68.2,5.2,68,5.2z"/>
	<path fill="#B3B3B3" d="M0.4,2.2c1.2-2.6,2.3-2.8,4.4-1C5.2,1.5,5.5,2,5.5,2.5c0.2,1.6-0.2,2.9-1.3,3.9C3.4,7.2,2.1,7.2,1.3,6.6
		C0.6,5.9,0.1,5,0,3.7C0.1,3.3,0.1,2.7,0.4,2.2z M3,2.5c0.2-0.1,0.3-0.4,0.1-0.7C3,1.5,2.6,1.3,2.4,1.5C2.2,1.7,2,1.9,1.9,2.1
		c-0.1,0.2,0,0.5,0,0.8C1.5,3,1.1,3.1,1.1,3.6c0,0.2,0,0.5,0.1,0.7c0,0.1,0.1,0.2,0.2,0.2c0.1,0,0.4-0.1,0.4-0.2
		c0.1-0.5,0.1-1,0.2-1.4C2.2,2.8,2.6,2.7,3,2.5z"/>
	<path fill="#B3B3B3" d="M207.1,7.9c0.1,0.5-0.4,1.1-0.8,1.1c-1.1,0-2.2-0.1-3.3-0.2c-0.4,0-0.7-0.3-1.1-0.5
		c-0.2-0.2-0.5-0.5-0.6-0.8c-0.3-0.9-0.3-1.9,0.3-2.7c0.5-0.8,1.2-1.3,2.1-1.6c0.5-0.2,0.9-0.2,1.3,0.2c0.5,0.4,1,0.9,1.5,1.3
		C206.7,5.7,206.9,6.8,207.1,7.9z M203.7,6.3c0,0,0.2,0,0.2-0.1c0.1-0.1,0.2-0.3,0.2-0.4c0-0.1-0.1-0.4-0.2-0.4
		c-0.1-0.1-0.3,0-0.4,0.1c-0.1,0.1-0.1,0.3-0.2,0.4C203.5,6.1,203.6,6.2,203.7,6.3z M204.8,7.1c-0.1,0.1,0,0.3-0.1,0.4
		c0.1,0,0.3,0,0.4,0c0.1-0.1,0.2-0.2,0.3-0.4c0-0.1,0-0.2,0-0.2c0,0-0.1-0.1-0.2-0.1C205.1,6.9,204.9,7,204.8,7.1z"/>
	<path fill="#B3B3B3" d="M111.3,5c0.1-0.1,0.1-0.2,0.2-0.3c0,0-0.1-0.1-0.1-0.2c-0.1,0.1-0.1,0.2-0.2,0.3
		C111.2,4.9,111.2,4.9,111.3,5z"/>
	<path fill="#B3B3B3" d="M230.3,7c0,0.4,0.1,0.8,0.1,1.3c0,0.3-0.3,0.7-0.5,0.7c-0.9,0-1.9,0.1-2.8,0c-0.6,0-1-0.4-1.4-0.9
		c-0.4-0.5-0.5-1.1-0.3-1.7c0.3-0.9,0.8-1.7,1.7-2.1c0.5-0.2,1-0.5,1.5-0.7c0.7-0.3,1.5,0.2,1.6,1C230.2,5.4,230.2,6.2,230.3,7
		C230.3,7,230.3,7,230.3,7z M228,6.6l0.2,0L228,6.4L228,6.6z"/>
	<path fill="#B3B3B3" d="M251.6,4.7c0.1,0.7,0.3,1.1,1,1.3c0.1,0,0.3,0.4,0.2,0.6c-0.2,1.2-1.1,1.8-2.1,2.3c-0.2,0.1-0.5,0.1-0.7,0
		c-0.5-0.2-1-0.4-1.5-0.6c-0.2-0.1-0.4-0.3-0.5-0.5c-1-2.1-0.8-2.9,0.5-4.3c0.1-0.1,0.2-0.2,0.4-0.3c0.3-0.2,0.6-0.3,0.9-0.2
		c0.5,0.3,1,0.5,1.6,0.9C251.5,4.2,251.6,4.4,251.6,4.7z M249.3,6c0.1,0.1,0.3,0,0.4-0.1c0.1-0.2,0.2-0.4,0.3-0.7
		c0-0.1-0.1-0.4-0.2-0.4c-0.1,0-0.3,0-0.4,0.1c-0.1,0.2-0.2,0.4-0.3,0.6C249.2,5.7,249.2,5.9,249.3,6z"/>
	<path fill="#B3B3B3" d="M44.2,6.6c-0.2,0-0.3-0.1-0.5-0.1c-0.2,0-0.4,0.4-0.3,0.6c0.2,0.3,0.4,0.6,0.6,0.7C44.5,8,44.9,8,45.2,8
		c1.8,0.1,2.4-0.5,2.5-2.5c0-0.3-0.1-0.7-0.3-0.9c-0.3-0.4-0.6-0.8-1-1.1c-0.2-0.2-0.4-0.3-0.6-0.1c-0.2,0.2-0.3,0.7-0.2,0.9
		c0.2,0.3,0.4,0.5,0.6,0.8c0.1,0.2,0,0.7-0.2,0.9C45.4,6.6,45.1,6.6,44.2,6.6z"/>
</g>
</svg>
