<?xml version="1.0" encoding="utf-8"?>
<!-- Generator: Adobe Illustrator 18.1.1, SVG Export Plug-In . SVG Version: 6.00 Build 0)  -->
<svg version="1.1" id="Layer_1" xmlns="http://www.w3.org/2000/svg" xmlns:xlink="http://www.w3.org/1999/xlink" x="0px" y="0px"
	 viewBox="0 0 68.4 20.1" enable-background="new 0 0 68.4 20.1" xml:space="preserve">
<path fill="#B3B3B3" d="M26.1,7c-0.2,0-0.4-0.1-0.6-0.1c-0.4-0.1-0.8,0-1.2,0c-0.4,0-0.8-0.1-1.2-0.1c-1,0-2.1-0.2-3.1-0.5
	c-0.2,0-0.3-0.2-0.5-0.3c-0.1-0.1-0.1-0.2,0-0.3c0-0.1,0.1-0.3,0.2-0.3c0.2,0,0.4,0,0.5,0c0.5,0.1,1,0.2,1.5,0.2
	c0.4,0,0.8,0.1,1.2,0c1-0.2,2-0.5,3-1c0.3-0.1,0.6-0.1,1-0.2c1-0.2,2-0.3,2.9-0.6c0.6-0.2,1.2-0.4,1.9-0.4c0.8,0,1.6-0.2,2.4-0.2
	C34.8,3,35.6,3,36.4,3.2c0.7,0.1,1.3,0.2,2,0.3c0,0,0,0,0.1,0c0.5-0.3,1,0.1,1.5,0.2c0.8,0.1,1.6,0.5,2.5,0.7c0.2,0,0.4,0.1,0.6,0.2
	c1.1,0.5,2.3,1,3.4,1.4c0.2,0.1,0.4,0.2,0.6,0.3c0.7,0.3,1.4,0.6,2.1,0.9c0.1,0,0.1,0,0.2,0.1c0.7,0.6,1.5,0.8,2.3,1
	c0.2,0.1,0.3,0.1,0.5,0.2c0.3,0.1,0.6,0.2,0.8,0.3c0,0,0.1,0,0.1-0.1c0-0.1,0-0.1-0.1-0.2C53,8.4,52.9,8.2,52.7,8
	c-0.4-0.5-0.6-1.2-0.7-2c-0.2-1-0.3-2.1-0.3-3.2c0-0.2,0-0.3,0-0.5c-0.1-0.8,0.1-1.4,0.2-2.1C52,0.2,52,0,52.1,0
	c0.1,0,0.2,0.2,0.2,0.3c0,0.1,0.1,0.3,0,0.4c-0.1,0.3,0,0.6,0,0.8c0.1,0.9,0.4,1.7,0.7,2.4c0.5,0.9,1.1,1.6,1.9,1.8
	c0.7,0.2,1.4,0.5,2.1,0.8c0.2,0.1,0.4,0.2,0.6,0.2c0.7,0.1,1.4,0.5,2,1C59.8,7.9,59.9,8,60,8C60.7,8.5,61.3,9,62,9.5
	c0.4,0.3,0.8,0.6,1.1,1c0.7,0.6,1.2,1.4,1.8,2c0.2,0.2,0.4,0.6,0.7,0.6c0.3,0.3,0.5,0.6,0.7,0.9c0.2,0.4,0.5,0.6,0.9,0.5
	c0.1,0,0.2,0,0.2,0c0.3,0.4,0.6,0.4,0.9,0.5c0.1,0,0.1,0.3,0,0.4c-0.1,0.2-0.2,0.3-0.4,0.3c-0.2,0-0.4,0-0.6,0.2
	c-0.1,0.1-0.2,0.1-0.3,0c-0.2-0.1-0.3-0.1-0.5-0.1c-0.8,0.1-1.6-0.1-2.4-0.4c-0.5-0.2-1-0.3-1.5-0.2c-0.7-0.2-1.4,0.1-2.1-0.3
	c-0.4-0.2-0.9-0.3-1.3-0.5c-0.4-0.2-0.7-0.2-1.1-0.2c-0.7-0.1-1.5-0.2-2.2-0.4c-0.1,0-0.2-0.1-0.3-0.1c-0.6,0-1.2,0-1.8,0.1
	c-0.1,0-0.1,0-0.1,0.1c0,0.2-0.1,0.2-0.2,0.2c-0.1,0-0.1-0.1-0.2-0.1c-0.2-0.2-0.4-0.2-0.7-0.1c-0.4,0.1-0.7,0.2-1.1,0.3
	c-0.6,0.2-1.2,0.3-1.8,0.6c-0.6,0.3-1.3,0.5-2,0.7c-0.8,0.2-1.6,0.6-2.3,1c-0.5,0.3-1.1,0.5-1.6,0.8c0,0,0,0-0.1,0
	c-0.6,0.1-1.2,0.2-1.8,0.3c-0.1,0-0.3-0.1-0.4-0.1c-0.1-0.1-0.1-0.3,0-0.4c0.1-0.1,0.3-0.2,0.4-0.2c0.3-0.1,0.6-0.3,0.9-0.6
	C43,16,43,15.7,43,15.4c0-0.1-0.1-0.3-0.1-0.3c-0.2-0.2-0.4-0.4-0.7-0.6c-0.2-0.1-0.3-0.1-0.5-0.1c-0.3,0.1-0.6,0.1-0.9,0.2
	c-0.1,0-0.2,0.1-0.3,0.1c-0.2,0.1-0.5,0.2-0.7,0.2c-0.3,0-0.5,0.1-0.8,0.2c-0.4,0.1-0.9,0.1-1.3,0.2c-0.2,0-0.3,0-0.5,0.1
	c-0.3,0.1-0.6,0.2-1,0.3c-0.8,0.1-1.5,0.5-2.3,0.6c-0.8,0.2-1.6,0.4-2.4,0.4c-0.2,0-0.4,0.1-0.6,0.2c-0.5,0.1-1.1,0.2-1.6,0.4
	c-0.4,0.2-0.9,0.3-1.3,0.5c-0.2,0.1-0.4,0.1-0.6,0.1c-0.3,0-0.6,0-0.9,0.1c0,0-0.1,0-0.1,0c-0.5-0.1-0.9-0.1-1.4-0.3
	c-0.1,0-0.2-0.1-0.1-0.3c0-0.1,0.1-0.2,0.1-0.2c0.1-0.1,0.2-0.2,0.3-0.1c0.6,0.2,1.1,0,1.6-0.3c0.5-0.3,1.1-0.6,1.6-0.9
	c0.1-0.1,0.2-0.2,0.1-0.4c-0.1-0.2,0.1-0.2,0.1-0.3c0.2-0.3,0.2-0.4,0.1-0.7c-0.2-0.4-0.4-0.7-0.8-0.9c-0.3-0.1-0.5-0.3-0.8-0.4
	c-0.5-0.2-1-0.2-1.5-0.2c-0.3-0.1-0.7,0.1-1.1,0.2c-0.8,0.3-1.6,0.4-2.4,0.6c-1.1,0.3-2.2,0.5-3.3,0.6c-0.3,0-0.6,0.1-0.8,0.3
	c-0.3,0.2-0.7,0.3-1,0.4c-0.2,0.1-0.4,0.2-0.6,0.3c-0.5,0.3-1,0.6-1.6,0.6c-0.3,0-0.5,0.2-0.8,0.3c-0.5,0.2-1,0.3-1.5,0.5
	c-0.1,0-0.2,0-0.3,0.1c-0.3,0.1-0.5,0.3-0.8,0.5c-0.3,0.1-0.6,0.1-0.8,0.2c-0.1,0-0.3,0.1-0.4,0.2c-0.1,0-0.2,0.1-0.2,0.2
	c-0.6,0.2-1.3,0.4-1.9,0.6c-0.3,0.1-0.6,0.2-0.9,0.3c-0.3,0.1-0.7,0.3-1,0.5C5.6,19.8,5,20,4.3,20c-0.2,0-0.3,0-0.5,0.1
	C3.6,20.1,3.3,20.1,3,20c-0.1-0.1-0.2-0.1-0.3-0.1c-0.4,0.2-0.8-0.2-1.2-0.1c-0.4,0.2-0.9-0.1-1.3-0.2c-0.2-0.1-0.3-0.4-0.1-0.7
	c0.2-0.3,0.4-0.5,0.7-0.4c0.6,0.2,1.2,0,1.8,0.1c0.3,0,0.6-0.1,1-0.3c0.5-0.3,1.1-0.6,1.6-0.8c0,0,0,0,0.1,0
	c0.8-0.7,1.6-1.1,2.4-1.9c0.5-0.9,1.3-1.1,2-1.7c0.2-0.2,0.4-0.3,0.6-0.5c0.5-0.4,1-0.8,1.5-1.2c0.4-0.3,0.7-0.7,1.1-0.9
	c0.1,0,0.3-0.2,0.4-0.2c0.4,0,0.7-0.3,1-0.6c0.2-0.2,0.4-0.4,0.7-0.4c0.1,0,0.3-0.1,0.4-0.2c0.5-0.3,1.1-0.5,1.7-0.7
	c0.9-0.3,1.9-0.6,2.9-0.7c0.4-0.1,0.7-0.1,1.1-0.2c0.5-0.1,1.1-0.2,1.6-0.3C23.3,8,24.2,7.9,25.2,8c0.4,0,0.7,0.1,1.1,0.2
	c0.6,0.2,1.2,0,1.8,0c0,0,0.1-0.1,0.1-0.1"/>
</svg>
