<?xml version="1.0" encoding="utf-8"?>
<!-- Generator: Adobe Illustrator 18.1.1, SVG Export Plug-In . SVG Version: 6.00 Build 0)  -->
<svg version="1.1" id="Layer_1" xmlns="http://www.w3.org/2000/svg" xmlns:xlink="http://www.w3.org/1999/xlink" x="0px" y="0px"
	 viewBox="0 0 68 19.1" enable-background="new 0 0 68 19.1" xml:space="preserve">
<path fill="#B3B3B3" d="M34.3,1.8c1.4,0.3,2.7,0.5,4.1,0.6c0.1,0,0.2,0,0.2,0c0.4,0.4,1,0.2,1.4,0.5c0.5,0.3,1.1,0.6,1.6,1
	C41.8,4,42,4.1,42.2,4.2c0.2,0.1,0.4,0.2,0.6,0.5c0.3,0.5,0.7,0.8,1.1,0.9C44,5.7,44.1,5.9,44,6.1c-0.1,0.2-0.2,0.3-0.3,0.3
	c-0.3-0.1-0.7-0.2-1-0.3c-0.1,0-0.2-0.1-0.2,0c-0.5,0.4-1.1,0.1-1.6,0.5c-0.3,0.2-0.7,0.3-1.1,0.5c-0.1,0.1-0.3,0.1-0.4,0.2
	c-0.1,0-0.1,0.2,0,0.3c0,0,0,0.1,0,0.1c0.4,0.2,0.8,0.5,1.3,0.4c0.7-0.2,1.4-0.2,2.1-0.2c0.6-0.1,1.2,0,1.8,0c0.5,0,1.1,0.1,1.6,0.2
	C46.5,7.9,46.7,8,47,8C47.3,8,47.7,8.1,48,8.1c1,0.3,2.1,0.4,3.1,0.7c0.2,0.1,0.3,0.2,0.5,0.2c0.8,0.4,1.5,0.8,2.3,1.1
	c0.4,0.1,0.8,0.4,1.2,0.3c0.4,0.4,0.9,0.4,1.3,0.7c1,0.7,2,1.3,3,1.9c0.2,0.1,0.5,0.2,0.7,0.4c0.3,0.2,0.7,0.4,1,0.6
	c0.2,0.2,0.4,0.3,0.7,0.4c0.7,0.2,1.5,0.4,2.2,0.7c0.5,0.2,1,0.2,1.5,0.1c0.7-0.1,1.4-0.1,2.1-0.4c0.1,0,0.1,0,0.2,0
	c0,0,0.1,0.2,0.1,0.2c0,0.1-0.1,0.2-0.1,0.3c-0.5,0.8-1.1,1.5-1.8,2c-0.6,0.4-1.2,0.8-1.8,0.9c-0.5,0.1-0.9,0.3-1.4,0.3
	c-0.5,0-0.9,0.1-1.4,0.1c-0.3,0-0.6,0-0.9,0c-0.5,0-1-0.1-1.5-0.2c-0.7-0.2-1.4-0.4-2-0.6c-0.5-0.1-1-0.2-1.5-0.4
	c-0.2-0.1-0.5-0.2-0.7-0.3c-0.8-0.3-1.6-0.7-2.5-0.9c-0.4-0.1-0.7-0.3-1.1-0.4c-0.7-0.3-1.3-0.6-2-0.6c-0.6-0.4-1.2-0.4-1.8-0.7
	c-0.7-0.4-1.5-0.4-2.3-0.6c0,0,0,0-0.1,0c-0.2-0.1-0.5-0.3-0.8-0.2c-0.2,0.1-0.5-0.1-0.7-0.1c-1-0.2-2-0.1-3,0
	c-0.1,0-0.4,0.5-0.4,0.7c0,0,0,0,0,0.1c0,0,0,0,0.1,0c0.1,0,0.3,0,0.3,0.3c0,0,0.1,0.1,0.1,0.1c0.4,0.4,0.8,0.8,1.4,1
	c0.2,0,0.3,0.2,0.5,0.2c0.6,0.3,1.2,0.6,1.9,0.8c0.4,0.1,0.8,0.2,1.1,0.2c0.6,0.1,1.1,0.1,1.7,0.2c0.1,0,0.2,0,0.3,0.1
	c0.1,0,0.1,0.1,0.1,0.2c0,0.1-0.1,0.4-0.1,0.4c-0.8,0.3-1.6,0.9-2.4,0.8c-0.4,0-0.8,0-1.2,0c-0.5,0-1.1,0-1.6,0
	c-0.5,0-1.1-0.1-1.6-0.4c-0.7-0.4-1.5-0.7-2.3-0.9c0,0-0.1,0-0.1,0c-0.7-0.3-1.4-0.3-2.1-0.4c-0.2,0-0.4-0.1-0.5-0.1
	C35.4,17.1,35,17,34.7,17c-1.1-0.1-2.1-0.3-3.1-0.7c-0.3-0.1-0.6-0.3-1-0.4c-0.5-0.2-0.9-0.3-1.4-0.5c-0.5-0.2-1.1-0.3-1.6-0.5
	c-0.5-0.1-1-0.2-1.5-0.3c-0.8-0.2-1.7-0.2-2.5-0.4c-0.8-0.2-1.6-0.4-2.3-0.5c-0.6-0.1-1.2,0-1.8,0c-0.1,0-0.2,0.1-0.3,0.1
	C19,13.8,19,14,19.1,14.1c0.1,0.1,0.1,0.3,0.2,0.4c0.6,0.6,1.2,1,1.9,1.3c1,0.4,2,0.6,3,0.6c0.3,0,0.7,0.3,1,0.4
	c0.1,0,0.1,0.2,0.1,0.3c0,0.1,0,0.1-0.1,0.2c-0.4,0.5-0.9,0.9-1.5,1.1c-1.1,0.3-2.1,0.2-3.2,0.2c-0.3,0-0.6-0.1-0.9-0.2
	c-0.4-0.2-0.9-0.2-1.3-0.6c-0.2-0.2-0.5-0.2-0.7-0.3c-0.6-0.1-1.1-0.4-1.6-0.8c-0.5-0.4-1.1-0.7-1.7-1c-0.5-0.2-0.9-0.4-1.4-0.6
	c-0.5-0.2-1-0.4-1.3-0.8c-0.1-0.1-0.2-0.1-0.3-0.2C10.5,14,9.9,13.9,9.2,14c-1.5,0.2-2.9,0.7-4.2,1.5c-0.1,0.1-0.2,0.1-0.3,0.3
	C4.6,15.9,4.5,16,4.4,16c-0.6,0.1-1.1,0.4-1.6,0.7c-0.1,0.1-0.3,0.1-0.4-0.1c-0.1-0.2-0.2-0.3-0.4-0.2c-0.5,0.2-0.9-0.2-1.3-0.4
	c-0.2-0.1-0.3-0.4-0.6-0.3c0,0-0.1-0.1-0.1-0.2c0-0.1,0-0.3,0-0.4c0-0.2,0.1-0.3,0.2-0.3c0.8,0.1,1.3-0.4,1.9-1
	c0.1-0.2,0.3-0.4,0.4-0.6c0.3-0.4,0.5-0.7,0.9-1c0.8-0.8,1.6-1.6,2.4-2.4C6.4,9.2,7,8.6,7.7,8.1C8,7.8,8.4,7.5,8.8,7.2
	c0.8-0.7,1.8-1.1,2.7-1.5c1.3-0.6,2.3-1.6,3.1-3C15,2,15.4,1.2,15.5,0.3c0-0.1,0-0.1,0.1-0.2C15.7,0.1,15.7,0,15.8,0
	c0,0,0.1,0.1,0.2,0.1c0.1,0.2,0.1,0.4,0.1,0.5c0,0.9,0.3,1.7,0.5,2.6c0,0.1,0.1,0.2,0,0.4c-0.1,0.4,0,0.7,0.2,1.1
	c0.1,0.2,0.1,0.3,0,0.5c0,0.1,0,0.1-0.1,0.2c-0.2,0.4,0.1,0.8,0.1,1.1c0,0,0.1,0.1,0.1,0.1c0.3-0.2,0.5,0,0.8,0
	c0.5-0.1,0.9-0.2,1.4-0.4c0.5-0.1,1.1-0.3,1.6-0.4c0.2-0.1,0.4-0.1,0.6-0.2C22,5.3,22.7,5,23.4,4.8c0.4-0.1,0.8-0.2,1.1-0.3
	c0.5-0.1,0.9-0.2,1.4-0.4c0.2-0.1,0.4-0.3,0.6-0.4c0.2-0.1,0.5,0,0.7-0.1c0.1,0,0.3-0.1,0.4-0.2c0.2-0.3,0.5-0.4,0.8-0.4
	c0.5,0,1-0.2,1.5-0.3c0.6-0.2,1.2-0.4,1.8-0.3c0.4,0,0.8,0,1.2,0 M38.8,6.9C38.8,6.9,38.8,6.8,38.8,6.9c-0.2-0.1-0.3,0-0.4,0
	c0,0-0.1,0.1-0.1,0.1c0.1,0,0.1,0.1,0.2,0.1C38.6,7.2,38.8,7.1,38.8,6.9z"/>
</svg>
