<?xml version="1.0" encoding="utf-8"?>
<!-- Generator: Adobe Illustrator 18.1.1, SVG Export Plug-In . SVG Version: 6.00 Build 0)  -->
<svg version="1.1" id="Layer_1" xmlns="http://www.w3.org/2000/svg" xmlns:xlink="http://www.w3.org/1999/xlink" x="0px" y="0px"
	 viewBox="0 0 493.6 89.3" enable-background="new 0 0 493.6 89.3" xml:space="preserve">
<g>
	<path d="M439.7,27.6c0,0.2,0.1,0.3,0.1,0.5c1-0.1,1.9-0.6,2.9-0.2c-0.6,0.2-1.2,0.3-1.7,0.5c-0.5,0.2-1.3,0.2-1.4,1.1
		c0.7-0.2,1.3-0.5,2-0.1c0.1,0.9-0.7,0.6-1.2,0.7c0.5,0.7,0.5,1.1-0.2,1.4c-2,1-4.1,2-6.2,2.8c-1.5,0.6-3.2,1.1-4.8,1.7
		c-0.2,2.8-0.3,5.6-0.5,8.4c0.2,0,0.5,0.2,0.7,0.1c1.8-0.2,3.7-0.4,5.4-0.8c0.6-0.1,1,0,1.6,0c0.5,0,1-0.1,1.8-0.2
		c-1.1,0.8-5.1,1.6-9.4,2c-0.1,0.7-0.1,0.7,0.7,0.7l0,0c-0.3,0.4-1.1,0.1-1,0.9c-0.3-0.3-0.5-0.5-0.6-0.6c0.1-0.2,0.3-0.4,0.6-0.9
		c-0.6,0-1,0-1.3,0.1c-0.1,0.5-0.1,0.8-0.2,1.2c0,0.3,0,0.7,0,1.2c1.3-0.1,2.5-0.2,3.7-0.4c1.2-0.2,2.4-0.6,3.6-0.7
		c1.1-0.2,2.3-0.2,3.4-0.4c0.2,0,0.3,0,0.6,0.1c-0.2,0.2-0.3,0.3-0.4,0.4c1.6,0,3.1,0,4.9,0c0.2-0.9,0.3-1.8,0.5-2.6
		c-0.7-0.5-1.3,0.1-2.1-0.1c0.6-0.2,1.1-0.3,1.5-0.4c0.5,0,0.8-0.2,0.8-0.7c0-0.6,0.1-1.2,0.1-1.9c-1,0.1-1.9,0.1-2.8,0.3
		c-0.7,0.1-1.3,0.2-2,0.3c-0.7,0.1-1.3,0.3-2,0.4c-0.6,0.1-1.3,0.2-1.9,0.3c-0.1,0-0.2-0.1-0.5-0.3c3.2-0.7,6.2-1.3,9.3-1.4
		c0-0.2,0.1-0.4,0.2-0.7c0.5-2.7,1.1-5.4,1.6-8.1c0.4-2,0.9-4,1.4-6.1c0-0.2,0-0.5,0.1-0.5c0.8-0.3,0.5-0.8,0.5-1.4
		c0-0.6,0.2-1.2,0.3-1.7c0.2,0,0.3,0,0.6-0.1c0-0.5,0.4-0.8,0.1-1.4c-0.1-0.1,0.1-0.5,0.2-0.7c0.3-0.5,0.5-1,0.3-1.6
		c-0.1-0.2,0-0.4,0-0.6c0.2-0.9,0.3-1.8,0-2.8c-0.2-0.7-0.1-1.4-0.1-2.2c0.2,0,0.4-0.1,0.7-0.1c-0.1-0.4-0.3-0.6-0.4-0.9
		c0,0,0.1-0.1,0.1-0.1c0.6,0-0.2-0.6,0.4-0.7c0.5-0.1,0.2-0.5,0.2-0.7c0-0.3,0-0.6,0.1-0.8c0.2-0.6,0.3-0.6,0.1-1.3
		c0.8,0,0.5,0.7,0.9,1.1c1-0.3,0.9-1.4,1.4-2.3c0.7,1.1-0.1,2.3,0.5,3.5c0.2-0.2,0.3-0.3,0.3-0.4c0-0.3-0.1-0.6,0.4-0.5
		c0-0.2,0-0.4,0.1-0.5c0-0.1,0.3,0.1,0.4,0c0.2-0.1,0.3-0.3,0.3-0.5c0.1-0.4,0-0.9,0-1.4c0-0.4,0-0.7-0.1-1.2c0.4,0.2,0.6,0.4,1,0.6
		c-0.3,1.7-0.4,3.5,0.3,5.2c0.1,0,0.2,0,0.2,0c0-0.5,0-1-0.1-1.7c0.5,1.2,0.4,2.3,0.6,3.4c0.7-0.1,0.6-0.7,0.9-1c0,0,0.1,0,0.1,0
		c0,0,0,0.1,0,0.1c0,0.1,0,0.1,0.1,0.2c0.1-0.5,0.2-1,0.4-1.5c0.3,0.3,0.4,0.6,0.4,1c0,1,0,2.1-0.1,3.1c0,0.6,0.1,1,0.5,1.4
		c1.3,1.4,2.6,2.7,3.7,4.2c0.9,1.2,1.6,2.5,2.7,3.6c0.4,0.4,0.8,0.8,1.1,1.2c0.4,0.4,0.8,0.8,1.4,1.3c0.3,0,0.7-0.1,0.9-0.7
		c0.1-0.2,0.3-0.3,0.5-0.5c0.6-0.6,1.3-1.2,1.8-1.9c0.3-0.4,0.5-0.3,0.8-0.4c0.3-0.6,0.5-1.2,0.8-1.8c0.1,0,0.1,0,0.2,0
		c0,0.2,0,0.3,0,0.5c0,0,0.1,0,0.1,0.1c0.1-0.2,0.1-0.5,0.3-0.7c0.2-0.2,0.5-0.3,0.8-0.4c-0.2-0.1-0.3-0.2-0.4-0.3
		c0.6-1.2,1.8-2,1.8-3.4c0.1,0.1,0.3,0.2,0.5,0.5c0-0.3,0.1-0.5,0-0.6c-0.3-2.3-0.6-4.6-1-6.9c-0.1-0.5,0-0.9,0.7-1
		c-0.2-0.5-0.5-0.9,0.3-1.1c0.1,0.3,0.3,0.5,0.4,0.8c0.1,0.3,0.2,0.6,0.3,1c0.1,0.2,0.1,0.5,0.2,0.5c0.3,0.2,0.4,0,0.5-0.3
		c0,0,0.3,0,0.3-0.1c-0.1-1.3-0.2-2.6-0.3-3.9c0,0,0,0,0,0c0.5,0.2,0.7,0.6,0.7,1.1c0.1,0.9,0.3,1.8,0.9,2.6
		c0.3-0.3,0.3-0.6,0.2-0.9c-0.2-0.7-0.2-0.7,0.4-1.5c0.1,0.2,0.2,0.3,0.4,0.5c0.5-0.6,0-1.2-0.1-1.8l0,0c0.1-0.1,0.3-0.2,0.3-0.2
		c-0.1-0.6-0.3-1.3-0.4-1.9c-0.1-0.4-0.3-0.9,0.5-0.9c0.1,0.7,0.2,1.3,0.3,2c0.1,0.6,0.2,1.3,0.4,1.9c0.2,0.8,0.4,1.5,0.6,2.3
		c0,0,0,0.1,0,0.1c1.1,0.8,1,2.2,1.7,3.2c0,0,0.1,0,0.2,0c0-1.5-0.2-3-0.9-4.4c0.1-0.1,0.3-0.1,0.4-0.3c0.1-0.1,0.1-0.2,0.2-0.4
		c0.1,0.1,0.2,0.2,0.2,0.2c0.2,0.9,0.3,1.7,0.5,2.6c0.4,2.1,0.7,4.2,1.1,6.3c0,0.2,0.1,0.3,0.2,0.5c0.2,0.6,0.5,1.1,0.7,1.7
		c0,0.1,0,0.2,0,0.2c-0.6,0.5-0.3,1.1-0.1,1.7c0.2,1,0.5,2,0.8,3c0.2,0.8,0.4,1.7,0.6,2.5c0.6,2,1.3,4,1.8,6c0.3,1.4,1,2.6,1.3,3.9
		c0.7,2.6,1.3,5.2,2.1,7.8c0.7,2.3,1.1,4.7,1.5,7.1c0,0.2,0,0.4-0.2,0.6c-0.2-0.9-0.4-1.7-0.6-2.6c-0.6-2.7-1.1-5.4-2-8
		c-0.6-1.8-1.1-3.7-1.7-5.6c-0.3-1-0.7-2-1-2.9c-0.4-1.1-0.8-2.2-1.1-3.3c-0.7-2.4-1.3-4.9-1.9-7.3c-0.2-0.6-0.2-1.3-0.4-1.9
		c-0.3,0.5-0.4,0.9-0.3,1.5c0.6,3.8,1.5,7.5,2.9,11.1c0.4,1.2,0.8,2.4,1.3,3.6c0,0.1,0.1,0.2,0.1,0.3c-0.3,1.8,0.8,3.4,1.1,5.1
		c0.2,1.5,0.8,2.9,1.4,4.2c0.4,1,0.6,2.1,0.7,3.2c0.2,1.4,0.3,2.9,0.5,4.4c0,0.5,0.2,1-0.5,1.6c-0.1-0.8-0.2-1.5-0.3-2.1
		c-0.1-0.6-0.3-1.3-0.5-1.9c-0.1,0-0.2,0-0.3,0c0.1,0.3,0.1,0.7,0.2,1c0.2,1.3,0.5,2.5,0.4,3.8c-0.1,0.6-0.3,1-0.8,1.2
		c-0.5,0.2-0.8-0.2-1.1-0.6c0,0-0.1-0.1-0.2-0.1c-0.1,0.3-0.2,0.6-0.3,1c-0.5-0.5-0.9-1-1.7-0.9c-0.1,0-0.3-0.3-0.4-0.5
		c-0.2-0.6-0.4-1.2-0.7-2.1c-0.1,0.4-0.2,0.7-0.3,0.9c0,0-0.1-0.1-0.1-0.1c-0.2-0.6-0.4-1.2-0.6-1.8c-0.3-1.3-0.6-2.6-1-4
		c-0.2-0.7-0.5-1.3-0.7-2c-0.2-0.6-0.2-1.2-0.4-1.8c-0.3-1.3-0.7-2.6-1.3-3.8c-0.6-1.3-0.9-2.7-1.3-4.1c-0.6-2.1-1.3-4.1-1.9-6.2
		c0-0.1-0.1-0.1-0.2-0.2c-0.5,0.5-0.9,1-1.4,1.5c-1.6,2-3.6,3.6-5.5,5.2c-0.2,0.1-0.4,0.3-0.5,0.5c-0.1,0.2-0.3,0.2-0.4,0.2
		c-0.1,0-0.2,0.4-0.3,0.6c0,0.1,0.1,0.3,0.1,0.4c0,0.1,0,0.2-0.1,0.4c-0.2-0.1-0.4-0.3-0.7-0.4c-0.1,0.3-0.2,0.5-0.3,0.8
		c-0.7,0-1.4-0.1-1.9,0.6c-0.7-0.7-1.6-1.1-2-2.1c-0.1-0.2-0.3-0.3-0.5-0.5c-0.4-0.3-1-0.6-0.8-1.3c0-0.1-0.2-0.3-0.3-0.4
		c-0.8-0.9-1.6-1.7-2.3-2.6c-1.4-1.9-3-3.7-4.5-5.4c-0.4-0.4-0.8-0.9-1.2-1.3c-0.7,1.2-0.8,2.5-1.1,3.7c-0.1,0.6-0.4,1.2-0.6,1.9
		c-0.3,1.1-0.5,2.3-0.7,3.4c-0.1,0.5-0.2,1-0.3,1.4c-0.6,3.6-1.3,7.1-1.9,10.7c-0.2,1.5-0.5,3-0.3,4.6c0,0.3-0.2,0.7-0.3,1.2
		c-0.7-2.5,0-4.7,0-7c-0.2,1.4-0.4,2.7-0.6,4.1c0,0.3-0.2,0.6-0.2,0.9c-0.1,0.5-0.3,1.1-0.1,1.5c0.3,0.9-0.3,1.5-0.4,2.3
		c-0.6,0.2-0.7,1.1-1.5,1.1c-0.2,0-0.4,0.2-0.7,0.3c-0.4,0.2-0.7,0.4-1.2,0.2c-0.2-0.1-0.4,0.1-0.6,0.2c-0.3-0.5-0.6-1-1.1-1.4
		c-0.6-0.6-0.7-1.2-0.7-2c0-0.4,0.2-0.8-0.3-1.3c0,0.5-0.1,0.9-0.1,1.3c-0.6-1.3-0.8-2.6-0.6-4.1c-0.7,1.6-2.2,1.4-3.4,1.8
		c-2,0.6-4.2,0.9-6.3,1.3c-0.8,0.2-1.7,0.2-2.5,0.2c-1.9,0.1-3.7,0.2-5.6,0.1c-0.5,0-1.1,0.2-1.6,0.3c-0.6-0.9-1.3-1.7-1.9-2.5
		c-0.7-0.8-1.7-1.2-2.5-2.3c0.7,0.1,1.2,0.1,1.6,0.1c0-0.1,0-0.1,0.1-0.2c-0.3-0.1-0.6-0.2-0.9-0.4c-1.1-0.5-1.2-1-0.4-1.9
		c0.1-0.1,0.2-0.2,0.4-0.4c0.2,0.2,0.3,0.4,0.5,0.6c0.2-0.4,0.7-0.5,0.2-1c-0.1-0.1,0-0.4,0-0.6c-0.1-0.7-0.2-1.4-0.3-2
		c0-0.1-0.1-0.3,0-0.4c0.4-0.5,0.3-1.1,0.3-1.6c0.1-1,0.1-2.1,0.2-3.1c0-0.4,0-0.8-0.1-1.1c-1.4-0.6-2.4-1.5-3.1-3
		c0.3-0.3,0.6-0.5,1-0.9c-0.3-0.3-0.7-0.6-1.1-0.9c0.1-0.3,0.3-0.6,0.5-0.9c-0.2,0-0.5,0-0.8-0.1c0.2-0.3,0.5-0.6,0.8-1
		c0.3,0.6,0.8,0.6,1.3,0.3c0.6-0.3,1.1-0.1,1.7,0.5c0-1,0.1-1.7,0.1-2.5c-1.3,0.2-2.4-0.1-3.6-0.5c0.4-0.1,0.7-0.2,1.2-0.4
		c0.7,0.4,1.3,0.3,2.5-0.3c0-1.1,0-2.2,0.1-3.4c0-0.1,0-0.3-0.1-0.4c-0.7-0.4-0.3-0.9-0.3-1.5c-1.2,0-2-0.5-2.1-1.8
		c0-0.3,0-0.3,0.4-0.6c0.3,0.3,0.3,1.1,1.2,0.7c-0.5-0.5-0.9-1-1.4-1.5c0.5-0.1,1-0.2,1.5-0.3c-0.7-0.3-1.4-0.1-1.9-0.6
		c0.8,0,1.7-0.1,2.7-0.2c-0.1-0.6-0.2-1-0.3-1.4c-0.6-0.1-1.1-0.1-1.4-0.3c-0.2-0.1-0.2-0.6-0.4-1c0.8-0.2,1.4-0.6,1.9-1.1
		c0.5-0.5,1.1-0.9,1.6-1.4c0.1,0.2,0.3,0.4,0.5,0.7c0.5-0.5,0.1-1,0.1-1.4c0-0.5-0.2-0.9-0.3-1.5c0.1-0.2,0.3-0.4,0.5-0.8
		c0.2,1.1,0.4,2.2,0.6,3.2c0.9,0.3,1.5-0.4,2.3-0.3c0-1.4-0.7-2.8,0-4.2c0.1,1.3,0.3,2.6,0.4,4c0.4-0.1,0.7-0.1,1-0.3
		c1.4-0.9,3-0.9,4.5-1.1c1.4-0.2,2.7-0.3,4.1-0.4c-0.3,0.1-0.5,0.2-0.8,0.2c0.6,0.3,1.3,0.3,1.9,0.9c-2.8,0.3-5.5,0.5-8.3,0.8
		c0.1,0.4,0.2,0.8,0.4,1.4c1-0.2,2.1-0.4,3.3-0.6c-0.5,0.6-1.1,0.5-1.6,0.7c-0.5,0.2-1,0.3-1.6,0.4c0.1,0.6,0.2,1.1,0.2,1.6
		c2.5-0.2,4.9-0.3,7.4-0.5c-0.1,0.2-0.2,0.3-0.4,0.6c0.5,0,1-0.1,1.4,0c0.4,0.1,0.7,0.5,1.1,0.8c0.1-0.2,0.2-0.5,0.3-0.7
		c0.9-0.1,1.9-0.2,2.8-0.4c0,0.1,0,0.1,0,0.2c-0.3,0-0.5,0.1-0.8,0.1c0.1,0.3,0.3,0.6,0.4,0.9c-0.4,0.2-0.7,0.3-1.1,0.5
		c0.6,0.7,1.5,0.2,2.2,0.7c-0.6,0-1.2,0-1.8,0c0.5,0.8,1.8,0.1,1.9,1.2c-1.1,0.5-2.2,0.9-3.4,1.4c0.5,0.6,1.4,0.1,1.6,0.9
		c-0.7,0.1-1.3,0.2-1.9,0.3c-2.4,0.2-4.5,1.1-6.7,1.9c-0.7,0.2-1.4,0.4-2,0.6c-0.3,0.1-0.6,0.5-0.8,0.7c-0.1,0.1,0,0.4,0.1,0.5
		c0.1,0.1,0.3,0.1,0.5,0.1c0.6-0.1,1.1-0.3,1.7-0.5l0,0c-0.3,0.7-1,0.6-1.5,0.8c-0.4,0.2-0.8,0.4-0.8,0.8c0,0.5,0,1,0.6,1.3
		c-0.2,0.2-0.3,0.4-0.5,0.6c0,0.1,0.1,0.1,0.1,0.2c1.2-0.4,2.3-0.8,3.5-1.2c0-0.1,0-0.1,0-0.2c-0.6,0.1-1.1,0.1-1.7,0.2l0,0
		c0.9-0.5,1.7-1.1,2.6-1.6c0.2-0.1,0.4,0,0.6,0c0.1,0.2,0.2,0.4,0.2,0.6c-0.3,0.1-0.6,0.3-0.9,0.4c0,0.1,0,0.1,0,0.2
		c0.2,0,0.5,0.1,0.7,0.1c0,0.2,0.1,0.3,0.1,0.5c0.3-0.1,0.6-0.2,1-0.3c0.4,0.6,0.9,0.5,1.5,0.3C438.2,28.2,439,27.9,439.7,27.6
		L439.7,27.6z M424.9,14.6c0.2-0.1,0.4-0.2,0.8-0.4c-1.5-0.1-1.5-0.1-1.9,0.1C424,14.9,424.5,14.7,424.9,14.6
		c-0.3,0.1-0.6,0.3-0.8,0.4C424.4,15.1,424.9,15.3,424.9,14.6z M459.6,19.1c0.7,1.5,2.1,2.5,3.2,3.7c-0.3-0.6-0.6-1.1-1.1-1.6
		C461.1,20.5,460.3,19.8,459.6,19.1c0-0.6-0.4-0.8-0.9-1C459,18.5,459.3,18.8,459.6,19.1z M428.5,42.9c0-2.2,0.3-4.3-0.2-6.4
		c-0.8,0.2-0.8,0.2-0.9,0.9c0,1,0,2.1-0.1,3.1c0,0.8,0,1.5,0,2.3c0,0.1,0.1,0.2,0.2,0.3C427.8,43.1,428.1,43,428.5,42.9z M434.2,23
		c0-0.1,0-0.1-0.1-0.2c-1.1,0.2-2.3,0.3-3.4,0.5c-1,0.2-1,0.3-0.8,1.4C431.3,24.2,432.7,23.6,434.2,23z M428.6,14.6
		c-0.1-0.5-0.2-0.9-0.3-1.2c-0.6,0-1.1,0.1-1.5,0.1c-0.1,0.5-0.2,0.9-0.3,1.4C427.1,14.8,427.8,14.7,428.6,14.6z M427.2,16.9
		c0.6-0.1,1.2-0.2,1.8-0.3c-0.2-0.6-0.6-0.9-0.3-1.6c-0.7,0.2-1.2,0.3-1.6,0.4C427.2,16,427.2,16.4,427.2,16.9z M427.4,24.3
		c0.3,0.4,0.6,0.7,0.8,1c0.9-0.4,0.9-0.4,0.7-1.7C428.3,23.8,427.9,24,427.4,24.3z M428.7,27.5c-1.1,0.3-1.2,0.7-0.6,1.7
		C428.6,28.7,429.3,28.4,428.7,27.5z M428,27.1c0.3-0.2,0.6-0.3,0.9-0.5c0-0.4,0-0.7,0-1c-0.8-0.2-0.9,0.5-1.3,0.8
		C427.7,26.7,427.8,26.9,428,27.1z M427.3,44.7c0.4,0,0.7,0,1-0.1c0-0.4,0-0.7,0-1.1c-0.4,0.1-0.7,0.1-1,0.2
		C427.3,44,427.3,44.2,427.3,44.7z M421.3,18.3c0.3-0.6,0.3-1.1,0-1.5c-0.1-0.1-0.3,0-0.6,0C421,17.4,421.1,17.7,421.3,18.3z
		 M426.4,15.5c-0.1,0.6-0.2,1,0.3,1.5C426.8,16.1,426.8,16.1,426.4,15.5z M460,20.5c-0.1,0.1-0.1,0.1-0.2,0.2
		c0.4,0.6,0.8,1.1,1.4,1.5c0.1-0.1,0.1-0.1,0.2-0.2C460.9,21.5,460.4,21,460,20.5z M461.9,22.7c-0.1,0.1-0.1,0.1-0.2,0.2
		c0.4,0.4,0.8,0.8,1.2,1.3c0.1-0.1,0.1-0.1,0.2-0.2C462.7,23.5,462.3,23.1,461.9,22.7z M458.4,18.3c0,0.8,0.4,1.2,0.9,1.6
		c0.1,0,0.1-0.1,0.2-0.1C459.1,19.2,458.7,18.8,458.4,18.3z M451.4,44C451.4,44,451.5,44,451.4,44c0.1-0.4,0.2-0.9,0.2-1.3
		c0,0-0.1,0-0.1,0C451.5,43.1,451.4,43.6,451.4,44z M464.7,25.2c0.1-0.6-0.2-0.8-0.7-0.9C464.2,24.6,464.4,24.9,464.7,25.2z
		 M428.8,29.8c0-0.1,0-0.1,0-0.2c-0.2,0-0.4,0-0.6,0.1c0,0-0.1,0.2-0.1,0.4C428.3,30,428.5,29.9,428.8,29.8z M480.2,9.9
		c-0.1,0.3-0.3,0.6,0.3,1C480.4,10.4,480.3,10.2,480.2,9.9z M451.2,45.4C451.2,45.4,451.1,45.4,451.2,45.4c-0.1,0.3-0.1,0.6-0.1,0.9
		c0,0,0,0,0,0C451.1,46,451.2,45.7,451.2,45.4z M424.5,15.8c-0.1,0-0.2,0-0.3,0c0,0.2,0.1,0.4,0.1,0.6c0.1,0,0.1,0,0.2,0
		C424.5,16.2,424.5,16,424.5,15.8z M457.8,14.1c0,0,0.1,0,0.1,0c0-0.1,0-0.3,0-0.4c0,0,0,0,0,0C457.8,13.8,457.8,13.9,457.8,14.1z
		 M454,11c0,0,0.1,0,0.1,0c0-0.2,0-0.5,0-0.7c-0.1,0-0.1,0-0.2,0C454,10.5,454,10.8,454,11z"/>
	<path d="M19.6,56.4c0.6-0.3,0.3-0.8,0.3-1.2c-1.3-0.4-1.5-0.6-0.9-1.3c0,0.2,0,0.4,0.1,0.6c0.3-0.1,0.5-0.3,0.7-0.4
		c-0.1-0.5-0.4-0.7-0.8-0.8C18,53.2,17,53.1,16,53c-0.9-0.1-1.8-0.4-2.5-1.1c0.6-0.4,1.3,0.3,1.8-0.4c-0.3-0.2-0.5-0.3-0.9-0.5
		c0.6-0.1,1.1-0.1,1.6-0.2c0.1-0.5-0.2-0.6-0.4-0.6c-0.8-0.2-1.6-0.3-2.3-0.5c-0.5-0.1-1-0.4-1.5-0.6c-0.8-0.2-1.7-0.3-2.6-0.6
		c0.3,0,0.6,0,0.9,0c0.2,0,0.6-0.1,0.6-0.3c0.2-0.8,0.8-0.8,1.4-0.8c0.9,0,1.7,0.1,2.6,0.1c0.5,0,1,0,1-0.7c0.8,0,1.6,0,2.5,0
		c0.1-0.4,0.2-0.8,0.2-1.3c0.2-0.1,0.5-0.2,0.9-0.3c0,0,0-0.1,0-0.2c0.1-0.4,0.2-0.7,0.4-1.1c0.3-0.8,0.1-1.2-0.8-1.2
		c-2,0-4,0.1-6,0.1c-1.6,0-3.2-0.2-4.8-0.4c-0.7-0.1-1.4-0.5-2-0.7c-0.5-0.2-1-0.4-1.5-0.7c-0.5-0.3-0.8-0.7-1.4-0.8
		c-0.4,0-0.7-0.5-1-0.8c0.1-0.7,0.8-0.3,1.1-0.5c0.1-0.1,0.1-0.2,0.1-0.2c0-0.1-1.1-1.2-1.2-1.4c-0.2-0.2-0.2-0.4-0.4-0.7
		c-0.5-0.1-1.1-0.3-1.9-0.6c0.6-0.3,0.9-0.6,1.4-0.6c1.2,0.2,1.4,0,1.6-1c0.5-0.2,0.9-0.4,1.4-0.5c0.3-0.1,0.5-0.1,0.8-0.1
		c2.6,0,5.2,0,7.9-0.1c2.3-0.1,4.5-0.3,6.8-0.4c0.5,0,0.8-0.6,1.3-0.4c0,0,0.2-0.3,0.2-0.4c0.1-0.7,0.3-1.4,0.4-2
		c0-0.2-0.2-0.4-0.3-0.6c1-0.9,1.1-2.1,1.4-3.4c0.3-1.4,0.7-2.8,1.1-4.2c0.1-0.4,0.5-0.3,0.7-0.5c0.2-0.4,0.4-0.9,0.6-1.4
		c0.3-0.7,0.6-1.3,1-1.9c-0.1,1-0.9,1.9,0.1,3c0.3-0.3,0.6-0.6,0.9-1c0,0,0.2,0.1,0.3,0c1-0.5,1.7-0.2,2.5,0.5
		c0.2,0.2,0.6,0.1,1.1,0.2c0,0.8,0.1,1.7,0.1,2.7c0.1-0.2,0.2-0.4,0.3-0.6c0.4-1.1,1.3-1.3,2.2-0.5c0.5,0.4,1,0.6,1.6,1
		c-0.2,0.5-0.4,1.1-0.7,1.6c-0.1,0.1-0.1,0.3-0.2,0.3c-0.9,0.6-1.2,1.6-1.4,2.6c-0.1,0.4-0.3,0.7-0.4,1c-0.4,0.8-0.7,1.6-0.8,2.6
		c0.9,0.1,1.8,0,2.5-0.4c0.8-0.4,1.6-0.4,2.4-0.6c0.8-0.2,1.5-0.4,2.3-0.6c0.4-0.1,0.4-0.4,0.4-0.6c0-0.3-0.2-0.4-0.5-0.2l0,0
		c0.6-0.8,0.9-1.7,1-2.7c0.1-0.6,0.4-1.2,0.6-1.8c0.2-0.6,0.4-1.3,0.6-1.9c0-0.1,0.1-0.3,0.1-0.4c-0.1-1,0.1-2.2,0.5-3
		c0,0,0.1-0.1,0.3-0.1c-0.3,0.8-0.5,1.5-0.3,2.3c0.1-0.2,0.2-0.3,0.2-0.4c0-0.7,0.6-1.2,0.7-1.8c0.2-1.1,1-2,0.6-3.2
		c0-0.1,0.1-0.3,0.2-0.5c0.2-0.4,0.3-0.7,0.5-1.1c0-0.1,0.1-0.2,0.2-0.2c0.8-0.1,1.1-0.8,1.5-1.3c0.4-0.5,0.9-0.7,1.5-0.8
		c0.3,0.5,0.6,0.9,0.7,1.4c0.1,0.4,0,0.8,0,1.3c0.5,0.5,0.7-0.3,1.2-0.4c0.7,1,0.9,2.1,0.7,3.3c-0.3,1.3-0.4,2.6-1.2,3.7
		c-0.2,0.3-0.3,0.7-0.4,1.1c0,0.1,0,0.2-0.1,0.3c-1.1,0.8-1.2,2-1.6,3.2c-0.3,0.7-0.5,1.5-0.6,2.2c0,0.2,0,0.3-0.1,0.7
		c1.2-0.3,2.2-0.7,3.3-1c1.4-0.4,2.8-0.8,4.2-1.3c0.3-0.1,0.5-0.1,0.7,0.3c-0.5,0.3-1,0.6-1.6,0.9c0.7,0,1.2-0.2,1.8,0.1
		c0.4,0.3,1,0.3,1.1,1c1,0.5,0.8,1.4,0.8,2.2c0,0.5,0.3,1.1,0.4,1.6c-0.3,0.2-0.6,0.3-1,0.5c0,0.8-0.6,1.2-1.2,1.7
		c-1.8,1.4-3.9,1.9-6,2.7c-0.8,0.3-1.6,0.5-2.4,0.8c-0.2,0.1-0.5,0.4-0.5,0.7c-0.1,1.1-0.1,2.3-0.1,3.4c1.1,0.3,2.1-0.1,3-0.4
		c2-0.4,4-0.9,6-1.4c0.7-0.2,1.4-0.3,2.1-0.4c0.8-0.1,0.9-0.1,1.1,0.8c0,0.1,0.2,0.2,0.4,0.3c-0.4,0.1-0.6,0.2-0.9,0.3
		c0.4,0.4,0.7,0.7,1.1,1.2c0,0,0.3,0.1,0.5,0.2c0.9,0.3,0.9,0.4,0.9,1.4c0,0.3,0,0.6,0,0.8c0.1,0.5,0.2,1,0.3,1.5
		c-0.7,0.2-1.1,0.4-1.4,1c-0.1,0.3-0.4,0.5-0.7,0.6c-1.9,0.9-3.9,1.6-5.9,1.9c-1.5,0.3-3.1,0.7-4.6,1.1c-0.6,0.1-1.1,0.3-1.7,0.4
		c0,0.6-0.1,1.2-0.1,1.7c0,0.9,0.2,1.8-0.4,2.7c-0.1,0.1-0.1,0.3-0.1,0.4c0.3,1.3-0.3,2.5-0.2,3.8c0,0.5-0.1,0.9-0.6,1.2
		c-0.1,0.1-0.3,0.2-0.3,0.4c0,0.6-0.5,0.8-1,1.2c-0.2-1.1,0.4-2.3-0.5-3.4c-0.1,0.7-0.2,1.2-0.3,1.8c-0.4-0.1-0.4-0.1-0.1-0.8
		c-0.7-0.1-1.1-0.6-1.2-1.5c-0.4,0.6-0.6,1-0.8,1.4c0-0.2-0.1-0.4-0.1-0.7c-0.2-0.1-0.5-0.2-0.9-0.4c0.2-0.4,0.4-0.7,0.6-1.1
		c-0.5-0.3-0.7,0-0.9,0.4c-0.4-0.5-0.4-1-0.3-1.5c0.1-0.6,0-1.3,0-2c0-0.7,0-1.5,0-2.3c-1.1,0.1-2.2,0.2-3.3,0.3
		c-1.1,0.1-2.3,0.1-3.4,0.1c-0.1,1.8-0.1,3.5-0.2,5.2c0,0.8-0.2,1.6-0.3,2.4c-0.2,1.3-0.6,2.5-0.8,3.8c-0.1,0.9-0.4,1.6-1,2.5
		c0-0.4,0-0.6,0-0.7c-0.2,0.1-0.5,0.1-0.9,0.2c0.2-0.5,0.3-0.8,0.4-1.2c0-0.2-0.1-0.4-0.1-0.5c0,0-0.3,0.1-0.4,0.1
		c-0.2,0-0.4,0-0.6,0c0,0.3,0,0.5-0.1,0.9c-0.7,0-1,0.5-1.1,1.2c-0.2-0.1-0.5-0.2-0.5-0.3c0.1-0.7-0.1-1.6,0.7-2.2
		c-0.1-0.2-0.2-0.3-0.2-0.5c-0.1-0.2-0.2-0.4-0.3-0.6c0.1,0,0.3,0,0.4-0.1c0-0.4,0.1-0.8,0.1-1.4c-0.3,0.2-0.5,0.4-0.5,0.5
		c-0.3,0.5-0.5,1.1-1.1,1.4c-0.2,0.1-0.2,0.5-0.3,0.7c-0.2,0.4-0.2,1.1-1,1.2c-0.1,0-0.3,0.3-0.4,0.6c-0.1,0.5-0.2,1.1-0.3,1.7
		c-0.1,0.4,0.1,0.9-0.4,1.2c-0.1,0.1-0.1,0.3,0,0.5c0,0.4,0.1,0.8,0,1.3c-0.1-0.3-0.2-0.6-0.3-0.9c-0.1-0.4-0.1-0.8-0.3-1.1
		c-0.1-0.3-0.4-0.6-0.6-0.9c-0.2,0.3-0.4,0.5-0.6,0.7c-0.1-0.1-0.2-0.1-0.2-0.1c0.2-0.9,0.5-1.9,0.7-2.8c0-0.2-0.1-0.5-0.2-0.7
		c-0.6-0.9-0.9-1.9-1-2.9c0-0.1-0.1-0.2-0.2-0.3c-0.5,0.2-0.3,0.7-0.6,1.2c0-0.9,0-1.7-0.1-2.6c0-1.1,0.1-2.3,0.3-3.4
		c0-0.2-0.1-0.5-0.3-0.6c-0.5-0.3-0.4-0.6-0.1-0.9c0,0.2,0.1,0.4,0.2,0.9c0.2-0.6,0.2-0.6-0.2-0.8C19.5,56.6,19.5,56.5,19.6,56.4
		L19.6,56.4z M38,44.4c0-0.9,0-1.9,0-2.9c-2.5,0.5-4.8,0.9-7,1.4c0,0.8-0.1,1.5,0,2.2c0,0.3,0.3,0.6,0.4,0.8
		C33.7,45.5,35.9,45.4,38,44.4z M26.1,21.9c-0.4,0.4-0.4,0.8-0.3,1.2C25.9,22.8,26.7,22.6,26.1,21.9z M19.4,46
		c-0.7,0.3-0.4,0.6-0.2,0.9c0,0,0.1,0,0.2,0C19.5,46.6,19.4,46.4,19.4,46z M23.4,27.5c-0.1,0-0.1,0-0.2-0.1c-0.1,0.3-0.2,0.6-0.3,1
		c0.1,0,0.1,0,0.2,0.1C23.2,28.2,23.3,27.8,23.4,27.5z"/>
	<path d="M330.2,35.1c0.3,0.9,0.6,1.8,0.8,2.8c0.5,2.4,1,4.9,1.1,7.3c0.1,2,0.4,4,0.6,6c0.1,0.6,0.4,1.1,0,1.7
		c0.4,0.5,0.2,1.1,0,1.6c0,0.1,0.1,0.3,0.1,0.3c0.6,0,0.6,0.5,0.6,0.9c0.3,2,0.5,3.9,0.8,5.9c0.1,1.2,0.2,2.5,0.3,3.7
		c0,0.6-0.1,1.2-0.1,1.8c0.3,2.5,0.6,5,1,7.5c0.1,1.1,0.3,2.3,0.6,3.4c0.1-0.2,0.2-0.4,0.4-0.8c0.2,1,0.3,1.8,0.4,2.8
		c0.6-0.1,0.7-0.4,0.6-0.8c-0.1-0.4-0.2-0.8-0.2-1.2c0-0.6,0-1.2-0.1-1.7c-0.1-0.8-0.2-1.6-0.3-2.4c-0.1-0.5-0.1-1-0.1-1.5
		c0.8,2.2,0.4,4.6,1.5,6.7c0.1-0.6,0-1.3,0.3-1.8c0.4-0.7-0.3-1.3,0.2-1.9c0.1,1.1,0.2,2.1,0.3,3.1c0.1,1,0.9,1.8,0.9,2.9
		c0.2-0.1,0.4-0.2,0.5-0.3c0,0,0.1,0.1,0.1,0.1c0,0.6,0.2,1.2-0.3,1.7c-0.1,0.1-0.3,0.3-0.4,0.4c-0.4,0.3-0.9,0.7-1.3,1
		c0.2,0.4,0.3,0.8,0.5,1.2c-0.7,0.3-0.9-0.6-1.4-0.7c-1,0.8-1.1,1-0.5,1.6c-0.2,0.1-0.4,0.1-0.7,0.2c0.1,0.6,0.1,1.1,0.2,1.7
		c-0.6,0.2-1.2,0.6-1.9-0.3c0.1,0.4,0.2,0.6,0.3,1c-0.7-0.7-1.2-1.1-1.6-1.6c-1-1.1-1.3-2.5-1.5-3.9c-0.3-2.2-0.7-4.3-1.1-6.5
		c-0.2-1.1-0.2-2.2-0.4-3.2c-0.3-2.2-0.7-4.4-1-6.5c-0.6-4.5-1.1-9-1.6-13.5c-0.7-5.6-1.3-11.2-2-16.8c-0.6-4.6-1.4-9.1-2-13.7
		c-0.1-0.5-0.1-1.1-0.4-1.6c-0.2,0.7-0.5,1.3-0.7,2c-0.8,1.9-1.6,3.8-2.1,5.9c-0.1,0.6-0.4,1.2-0.6,1.9c-0.3,1-0.5,2.1-0.9,3.1
		c-0.4,1.2-0.8,2.4-1.1,3.6c-0.4,1.3-0.6,2.6-1,4c-0.1,0.5-0.3,1-0.4,1.5c-0.1,0.4-0.3,0.8-0.2,1.1c0.2,0.9-0.6,1.6-0.7,2.4
		c0,0.1-0.3,0.3-0.4,0.3c-0.1-0.1-0.2-0.3-0.3-0.5c-0.2,0.2-0.4,0.5-0.6,0.7c-0.1-0.1-0.2-0.1-0.3-0.2c0.4-0.5,0.2-1.1,0.1-1.6
		c-1-0.1-0.4,0.9-0.7,1.3c-0.7,0,0-0.5-0.4-0.7c-0.2,0-0.4,0-0.6,0c0-0.1,0-0.2,0.1-0.3c0.4-0.5,0.4-1.1,0-1.3
		c-0.3-0.2-0.8,0-1.1,0.4c-0.1,0.1-0.2,0.3-0.3,0.4c-0.5,0.2-0.9,0.6-1.2,1c-0.9-0.2-1.4-0.7-1.9-1.4c-1.2-1.6-1.9-3.4-2.5-5.3
		c-0.3-1-1.1-1.8-1.6-2.6c-1.3-2-2.8-3.8-3.9-5.9c-0.7-1.4-1.7-2.6-2.5-3.9c-0.1-0.2-0.2-0.5-0.6-0.7c-0.1,0.7-0.1,1.4-0.2,2.1
		c0,0.9,0,1.9-0.1,2.8c-0.1,0.9,0,1.8-0.3,2.7c-0.2,0.7,0,1.6,0.1,2.5c0,0.3,0.2,0.6-0.2,1c-0.2,0.1-0.1,0.5-0.1,0.8
		c0,1.1-0.1,2.2-0.1,3.2c-0.1,3.2-0.3,6.3-0.4,9.5c-0.1,1.5-0.1,2.9,0,4.4c0,0.7,0.3,1.3,0,2c0,0.1,0,0.2,0,0.2
		c0.7,0.7,0.3,1.7,0.4,2.5c0.1,0.9,0,1.7,0,2.6c0,0.7-0.1,0.8-1,0.7c0.1,0.9,0.3,1.9,0.4,2.9c-0.1,0.1-0.7,0-0.4,0.6
		c0.2,0.4-0.3,1.4-0.7,1.6c-0.3,0.2-1-0.1-1.4-0.4c-0.1-0.1-0.2-0.2-0.3-0.2c-0.4,0,0,0.7-0.6,0.5c-0.2-0.1-0.5,0-0.9,0.1
		c0,0.1,0,0.3,0,0.4c-0.2,0.1-1.3-0.3-1.4-0.5c-0.2-0.6-0.5-1.1-1-1.5c-0.2-0.1-0.2-0.4-0.3-0.7c-0.2-1.4-0.5-2.9-0.6-4.3
		c-0.1-1.5-0.2-3,0.1-4.5c0.2-0.9,0.1-1.8,0.1-2.7c0-1.2,0-2.5,0-3.7c0.1-1.7,0.2-3.4,0.3-5.1c0-0.4,0.2-0.7,0.2-1.1
		c0.1-1.5,0.1-2.9,0.2-4.4c0-0.8,0.1-1.7,0.2-2.5c0.3-2.5,0.1-5.1,0.8-7.6c0.3-1.3-0.1-2.6-0.1-3.8c0-0.2-0.1-0.5,0-0.7
		c0.5-2.9,1-5.8,1.4-8.7c0.1-0.5,0.2-1,0.2-1.4c0-0.6-0.2-1.2-0.4-1.7c-0.7-1.3-1.3-2.6-1.6-4.1c-0.1-0.5-0.3-1-0.5-1.5
		c0.3,0,0.5,0.5,0.8,0.1c0.1-0.2,0.5-0.1,0.9-0.2c-0.2-0.7-0.4-1.4-0.6-2.1c0.9,0.5,0.9,0.5,1.3,1.4c0.3,0.6,0.5,1.3,1.1,1.7
		c0.2,0.1,0.3,0.4,0.5,0.7c0.5,0.3,0.6-0.3,0.9-0.5c0.4,0.3,0.8,0.6,1.2,0.9c0.1,0.1,0.3,0.1,0.4,0.1c0.3-0.4,0.6-0.2,1-0.1
		c0.1,0,0.3-0.1,0.5-0.2c0.2,0.3,0.3,0.7,0.5,1c0.1,0.1,0.2,0.3,0.1,0.3c-0.3,0.6,0.1,1,0.5,1.4c-0.1,0.3-0.2,0.6-0.3,0.7
		c0.4,0.7,0.7,1.4,1,1.9c0.6,1,1.1,2.1,1.7,3.1c0.3,0.6,0.6,1.2,1.2,1.7c0.4,0.3,0.5,1,0.7,1.5c1,2.3,1.9,4.6,3.5,6.5
		c0.3,0.3,0.5,0.6,1,0.5c0.1,0,0.3,0.3,0.6,0.6c0.6,0,1.2,0.3,1.7,0.9c0.8-0.8,1.1-1.8,1.5-2.7c0.5-1.1,0.9-2.2,1.5-3.2
		c0.4-0.8,0.7-1.7,1-2.5c0.3-0.7,0.6-1.3,0.9-2c0-0.1,0.2-0.1,0.5-0.3c-0.2,0.6-0.3,1-0.4,1.4c-0.5,1.4-1,2.7-1.6,4.1
		c-0.1,0.2-0.2,0.4-0.2,0.5c0.2,0.8-0.1,1.4-0.4,2.1c0,0,0,0.1,0.1,0.2c0.7-0.6,3.1-6.4,2.8-7.8c0.2-0.2,0.6-0.4,0.7-0.7
		c0.5-1.3,0.9-2.6,1.2-3.9c0.1-0.5,0.1-1.2,0.2-1.8c0.1,0.1,0.3,0.2,0.6,0.3c0.2-0.7,0.3-1.3,0.5-2c0.2-0.8,0.3-1.6,0.5-2.4
		c0.3-1.1,0.8-2.1,1.1-3.2c0.2-0.6,0.4-1.2,0.6-1.8c0.1,0,0.4,0.1,0.6,0.2c0.4-0.8,0.4-1.7,1.1-2.4c-0.1-0.2-0.2-0.5-0.3-0.7
		c0.4,0,0.8-0.1,1.2-0.1c0.4,0.6,0,1-0.2,1.5c-0.2,0.5-0.3,1-0.4,1.6c0.2-0.2,0.4-0.4,0.6-0.7c0.2,0.2,0.4,0.4,0.5,0.5
		c0.5-0.9,0.8-1.7,1.4-2.5c0.2-0.3,0.6-0.5,1-0.7c0.1,0,0.1,0.1,0.2,0.1c-0.2,0.7-0.3,1.4-0.5,2c0.1,0.1,0.1,0.1,0.2,0.2
		c0.1-0.2,0.2-0.4,0.4-0.8c0.1,0.3,0.3,0.5,0.3,0.6c-0.3,0.7,0.1,1.2,0.2,1.8c0.1,0.3,0.1,0.7,0.1,1c-0.3,1.4,0.3,2.5,0.9,3.6
		c-0.3,0.5-0.4,1-0.3,1.7c0.1,0.9-0.1,1.8,0,2.6c0.2,2.3,0,4.6,0.5,6.9c0.4,2,0.5,4.1,0.8,6.1c0.3,2.3,0.8,4.6,1.2,6.9
		c0.2,1.5,0.6,3,0.7,4.5c0.1,0.7,0,1.6,0.5,2.3c0.2,0.3,0.4,0.9-0.1,1.4c-0.2,0.2,0,0.8,0,1.2c0.7-0.7,0.7-0.7,0.6-1.5
		c-0.2-1.6-0.4-3.3-0.7-4.9c-0.1-0.6-0.5-1.2-0.4-1.9C330,35.5,330.1,35.3,330.2,35.1L330.2,35.1z M311.1,29.3
		c0.1-0.3,0.3-0.5,0.4-0.8c-0.1,0-0.1-0.1-0.2-0.1C311.2,28.7,311.1,29.1,311.1,29.3c-0.1,0.2-0.3,0.4-0.5,0.6c0,0,0.1,0.1,0.1,0.1
		C310.9,29.8,311,29.6,311.1,29.3z M295,42.8c0.1,0,0.3,0,0.4,0c-0.7-2.9,0.2-5.8-0.3-8.7c-0.2,1-0.4,2.1-0.4,3.1
		c0,1,0.1,2.1,0.1,3.1c0,0.6,0,1.1-0.1,1.7C294.6,42.4,294.8,42.6,295,42.8c-0.2,0.1-0.4,0.1-0.6,0.2c0,0.3,0.1,0.5,0.1,0.7
		c-0.1,1.6-0.2,3.1-0.2,4.7c-0.1,2.3-0.2,4.5-0.2,6.8c0,1.5,0,3.1-0.1,4.6c0,1.1-0.2,2.2-0.2,3.3c0,0.7,0.1,1.5,0.8,2.2
		c0.2-1,0.3-1.7-0.4-2.2c0-0.8,0-1.4,0-2.1c0.2-1.9,0.1-3.9,0.4-5.8c0.2-1.9,0.1-3.8,0.1-5.7c0-0.9,0-1.9,0.3-2.7
		c0.3-0.7,0.3-1.3,0.4-2.1c-0.1,0.2-0.2,0.2-0.4,0.5C295,44.2,295,43.5,295,42.8z M291.7,51.5c-0.1,1.8-0.5,3.6-0.1,5.5
		c0.4-1.3,0.5-2.6,0.5-3.9C292.1,52.5,292.1,51.9,291.7,51.5c0.3,0,0.5-0.1,0.5-0.4c0.1-1.7,0.3-3.4,0.4-5.1c0-0.2,0-0.4-0.1-0.6
		c-0.1-0.7,0-1.3,0.3-1.9c0,1.2,0.1,2.5,0.1,3.7c0.2-0.5,0.4-1.1,0.4-1.6c0.2-2.4,0.4-4.9,0.6-7.3c0.2-2.1,0.3-4.1,0.4-6.2
		c0-0.5-0.2-1.1-0.2-1.6c-0.1-0.4-0.1-0.7-0.1-1.1c0-0.6,0.1-1.2,0.1-1.9c-0.2,0.1-0.3,0.2-0.4,0.3c-0.1,0.9-0.2,1.7-0.3,2.6
		c-0.1,1.1-0.3,2.3-0.2,3.4c0,0.6-0.5,0.7-0.5,1.2c-0.1,1.8-0.3,3.6-0.4,5.4c-0.2,3.1-0.3,6.2-0.5,9.3
		C291.6,50.4,291.6,50.9,291.7,51.5z M291.4,61.3c0.1-0.6,0.5-1.4,0.2-1.9c-0.3-0.7-0.1-1.2,0-1.8C291,58.9,291.1,60.1,291.4,61.3z
		 M292.9,49.7c-0.1,0-0.2,0-0.2,0c-0.1,0.3-0.2,0.6-0.3,0.9c0.1,0,0.2,0,0.2,0.1C292.8,50.4,292.8,50.1,292.9,49.7z M293,48
		c0,0-0.1,0-0.1,0c0,0.3,0,0.6-0.1,0.8c0,0,0,0,0.1,0C292.9,48.5,293,48.2,293,48z"/>
	<path d="M72.9,48.7c0-0.6,0-1.2,0.1-1.8c0.1-0.6,0.2-1.1,0.3-1.7c0-0.1,0.2-0.3,0.3-0.3c0.6,0,0.6-0.5,0.5-0.8
		c-0.2-0.3,0-0.6,0-0.9c0.1-1,0.4-2.1-0.2-3.2c0.1-0.1,0.2-0.2,0.3-0.3c0.5-0.4-0.2-1,0.5-1.5c0.4-0.3,0.3-0.9,0.2-1.4
		c-0.1-0.3,0-0.7,0-1l0,0c0.2-1.8,0.6-3.6,0.4-5.5c0.4,0.3,0.4,0.7,0.5,1.1c0,0,0.1,0,0.1,0c0.2,1,0.5,2,0.1,3
		c-0.2,0.6-0.3,1.1,0,1.7c0.2-0.8,0.3-1.5,0.4-2.3c0-0.2,0-0.5,0.1-0.6c0.5-0.3,0.3-0.8,0.4-1.2c0.1-0.2,0-0.5,0.2-0.7
		c0.6-0.6,0.6-1.3,0.8-2.1c-1.3-0.2-0.2-1.3-0.8-1.9c-0.2,0.2-0.3,0.4-0.4,0.7c-0.1,0.4-0.2,0.8-0.3,1.2c-0.2,0.7-0.1,1.5-0.6,2.1
		c0.2-0.9,0.3-1.8,0.5-2.7c0-0.2,0.3-0.6-0.2-0.7c0-0.2,0-0.5,0.1-0.7c0.3-0.5,0.4-1,0.3-1.7c-0.1,0.2-0.2,0.4-0.3,0.5
		c-0.1-0.1-0.3-0.2-0.4-0.3c-0.3,0.2-0.1,1.1-0.8,0.9l0,0c0.2-0.7,0.4-1.5,0.6-2.3c0.2,0.1,0.3,0.2,0.6,0.4c0-0.4-0.1-0.8,0-1
		c0.1-0.3,0.5-0.4,0.7-0.7c0.3,0.5,0.6,1.1,0.9,1.7c0.1,0,0.1-0.1,0.2-0.1c-0.1-0.8-0.2-1.6-0.5-2.2c-0.3-0.8-0.1-1.6,0-2.4
		c0.7,0,0.4-0.7,0.4-1.2c0.3-0.1,0.7-0.2,0.8-0.4c0.1-0.2-0.1-0.6-0.1-0.9c0-0.4,0.1-0.8,0.2-1.2c0.2-0.6,0.3-1.1,0.6-1.7
		c0.1-0.2,0.3-0.4,0.5-0.6c0.2-0.2,0.5-0.3,0.8-0.5c0.5-0.4,0.9-0.9,0.8-1.6c0-0.3,0.1-0.5,0.1-0.8c0.1,0,0.1-0.1,0.2-0.1
		c0.6-0.2,0.9-0.8,1.7-0.8c0.2,0,0.4-0.3,0.5-0.6c0.3-0.6,0.5-1.2,0.9-1.9c0.4,0.7,0.8,1.2,1.2,1.9c-0.1,0.1-0.1,0.4-0.2,0.6
		c0.9,0.5,0.9,0.4,1.4-0.9c0.4,0,0.9-0.3,1.3,0.2c0.4,0.5,0.6,1.1,0.3,1.8c-0.8,1.4-1.2,3-1.7,4.6c-0.1,0.2-0.1,0.4-0.2,0.6
		c-0.3,0.4-0.3,0.8-0.1,1.3c0.1,0.5,0.2,0.9,0.3,1.4c0.3-0.2,0.5-0.4,0.6-0.5c0.5-0.1,0.2,0.8,0.8,0.5c0,0,0.2,0.1,0.2,0.1
		c0.3,0.6,0.1,1.6-0.3,2.1c-0.3,0.4-0.6,0.2-0.9,0.2c0,0.6,0.1,1.2,0.1,1.8c0,0.1,0.2,0.2,0.3,0.2C88,25,88,25.8,87.9,26.5
		c0.1-0.1,0.1-0.3,0.1-0.4c0-0.6,0-1.2,0-1.8c0-0.4,0-0.8,0-1.2c0.1,0,0.1,0,0.2,0c0,0.2,0.1,0.4,0.1,0.6c0.1,1.2,0.1,2.4,0.1,3.5
		c0,0.5,0.2,1-0.4,1.3c-0.1,0.1-0.1,0.4-0.1,0.5c0.2,2.1,0.5,4.3,0.7,6.4c0.2,1.4,0.4,2.9,0.6,4.3c0.1,0.5,0.1,0.9,0.8,1
		c-0.8,1.4-0.3,2.8,0,4.1c0.8-0.7,1.1-1.6,0.9-2.5c-0.1-0.4,0-0.9,0.1-1.4c0.2-0.8,0.6-1.4,1.2-2c0.5-0.5,0.7-1.4,0.8-2.1
		c0.1-1,0.5-1.8,1-2.6c0.5-0.9,0.5-1-0.3-1.6c0.2-0.1,0.4-0.2,0.6-0.3l0,0c0.2,0,0.5,0.2,0.6-0.2c0.2-0.7,0.5-1.3,0.7-2
		c0.1-0.2,0.2-0.4,0.3-0.7c0.1-0.3,0.2-0.5,0.2-0.8c-0.1,0-0.1-0.1-0.2-0.1c-0.2,0.3-0.4,0.7-0.7,1.1c-0.2-0.5,0-0.8,0.2-1.2
		c0.2-0.3,0.4-0.5,0.2-0.8l0,0c0.3-0.3,0.6-0.8,1-0.9c1.1-0.3,0.9-1.2,1.3-2c-0.5,0-0.9-0.1-0.9-0.5c0-0.3,0.3-0.5,0.7-0.6
		c0-0.3,0-0.5-0.1-0.8c0.4,0,0.8,0,1.3,0c0.1-0.3,0.2-0.6,0.4-1c-0.2-0.2-0.4-0.4-0.6-0.5c0.1-0.3,0.2-0.6,0.4-0.8
		c0.1-0.1,0.3-0.3,0.4-0.3c0.6-0.2,0.7-0.3,0.6-0.9c-0.1-0.3-0.2-0.5-0.2-0.8c-0.1-0.3-0.2-0.6-0.3-1c1-0.1,1.4-0.5,1.4-1.4
		c0-0.1,0-0.3,0-0.4c0-0.3,0-0.6,0.1-1.2c0.2,0.8,0.6,0.5,0.9,0.7c-0.3,0.4-0.6,0.8-0.3,1.3c0.9-0.5,1-0.7,0.3-1.3
		c0.1-0.2,0.2-0.3,0.3-0.6c0.1,0,0.4,0,0.7,0.1c0-0.4,0.1-0.9,0-1.1c-0.3-0.4-0.2-0.7-0.2-1c0.1-0.5,0.2-1.1,0.3-1.7
		c0.2-0.1,0.5-0.1,0.8-0.2c-0.1,0.6-0.2,1.1-0.4,1.7c0.3,0.3,0.6,0.2,0.7-0.2c0.2-0.7,0.5-1.4,0.6-2.1c0.1-0.7,0.3-1.1,1-1
		c0.5-0.7,0.4-1.6,1.3-2.1c-0.3,1-0.5,1.8-0.8,2.8c0.7,0.1,1.3,0.2,1.9,0.2c1,0,1,0,0.9,0.9c-0.1,0.8,0,1.5-0.5,2.2
		c-0.1,0.2-0.1,0.5,0,0.8c0.1,1.2,0,2.3-0.4,3.4c-0.3,0.7-0.3,1.4-0.2,2.2c0.1,0.4,0,0.8-0.2,1.2c-0.3,0.8-0.4,1.6,0.3,2.4
		c-0.7,0.6-0.7,1.3-0.8,2c-0.1,1.9-0.2,3.8-0.3,5.6c-0.1,2.4-0.3,4.8-0.3,7.2c0,0.4-0.1,0.9,0.5,1.2c0.3,0.2,0.6,0.5,0.9,0.9
		c-0.7,0.1-0.8-0.7-1.3-0.7c-0.1,1-0.2,2-0.2,3.1c-0.1,2.8-0.1,5.7-0.2,8.5c0,1.1,0,2.2,0,3.2c0,1.2,0,2.3-0.1,3.5
		c0,0.6-0.1,1.3,0.3,1.6c-0.1,0.9-0.3,1.7-0.3,2.4c0,2.6,0.1,5.3,0.2,8c-0.3,0.1-0.6,0.2-1,0.3c-0.1,1-0.2,2.1-0.2,3.1
		c0,0.4,0,0.6-0.3,0.9c-0.7,0.7-0.8,1.4-0.4,2.1c-0.4,0.7-1.5,0.7-1.6,1.7c-0.5-0.1-0.9-0.2-1.4-0.3c0.3-1,0-1.9-0.8-2.7
		c-0.6-0.7-1.3-1.6-0.9-2.8c0.2,0.2,0.4,0.4,0.7,0.7c0.1-0.4,0.1-0.7,0.1-1c0-2.4,0-4.7,0-7.1c0-1,0.2-2.1,0.2-3.1
		c0-0.9-0.1-1.7-0.1-2.6c0-0.6-0.1-1.2-0.3-1.8c0,0.5,0,0.9,0,1.5c-0.3-0.2-0.5-0.2-0.6-0.6c-0.3-1.2,0-2.5,0-3.7
		c-0.1-2.1,0-4.3,0-6.4c0-1.2,0-2.4,0.1-3.5c0-1.8,0.1-3.6,0.1-5.4c0-0.3-0.1-0.7-0.1-1.1c-0.1,0.1-0.2,0.2-0.3,0.3
		c-0.2-0.8-0.4-1.5-0.2-2.3c0.2-0.6,0.2-1.2,0.2-1.9c-1.2,1.3-1.5,2.8-1.3,4.5c-0.1-0.3-0.2-0.6-0.3-1c-0.2,0.8-0.4,1.5-0.5,2.2
		c-0.1,0-0.1,0-0.2,0c0-0.4,0.1-0.8,0.1-1.4c-0.2,0.4-0.4,0.5-0.4,0.7c-0.5,1.2-0.8,2.4-1.4,3.5c-0.7,1.2-1.1,2.5-1.6,3.7
		c-0.5,1.2-0.9,2.4-1.4,3.6c-0.2,0.6-0.5,1.3-0.8,1.9c-0.3,0.6-0.5,1.3-0.3,1.9c0.3,1.3,0.1,2.4-0.3,3.6c-0.1,0.2,0,0.4-0.1,0.6
		c-0.3-0.5-0.7,0.2-1-0.2c-0.2-0.2-0.7-0.3-1.1-0.4c-1.4,1.1-2.2,2.6-3.6,3.6c-1-0.3-0.6-1-0.6-1.5c0-0.8-0.2-1.7-0.7-2.2
		C84.1,57,84,56.9,84,56.8c-0.3-0.2-0.6-0.4-0.3-0.8c0.3-0.4,0.5,0,0.8,0.1c0,0,0.1,0,0.1,0c0.3-0.8,0.2-1.8,1.1-2.5
		c0.2,0,0.4,0.1,0.7,0.1c0-0.1,0.1-0.2,0.1-0.3c-0.8-2.3-1.1-4.7-1.5-7.2c-0.2-1.5-0.6-3-0.9-4.5c-0.1-0.5-0.1-1-0.2-1.5
		c-0.1-0.6-0.3-1.1-0.5-1.7c-0.1,0-0.2,0-0.2,0c0,0.8,0.1,1.5,0.1,2.4c-0.2,0-0.3,0-0.4,0c0,0.4-0.1,0.9-0.1,1.3
		c-0.4,0-0.6,0.1-1,0.1c0.1,0.4,0.1,0.7,0.2,1c0.3,0.5,0.3,0.7,0.1,1.3c-0.2,0.6-0.3,1.3-0.5,2c-0.1,0.2,0,0.7,0.2,0.8
		c0.6,0.4,0.4,1.1,0.6,1.6c0.1,0.4-0.2,0.8-0.3,1.2c-0.1,0.3-0.1,0.6-0.1,0.9c0,0.4,0.6,0.9-0.2,1.1c0,0,0,0.2,0,0.3
		c0.2,0.3,0.2,0.5-0.1,0.8c-0.4,0.5-0.1,1,0,1.5c0.1,0.8,0.5,1.6,0.7,2.4c0.1,0.3,0.1,0.5,0.1,0.8c-0.3,0.1-0.5,0.1-0.7,0.2
		c-0.7,0.3-1.3,0.6-1.2,1.6c0.1,0.6,0.1,1.3-0.8,1.5c-0.2,0-0.4,0.6-0.4,0.9c0,0.3,0.1,0.6,0.1,1c-1.1,0.7-1.2,2.1-1.8,3.2
		c-0.2,0.4-0.3,0.8-0.7,1.1c-0.2,0.1-0.2,0.4-0.4,0.6c-0.2,0.2-0.4,0.5-0.8,0.8c-0.1-0.5-0.2-0.7-0.2-1c-0.1,0-0.3,0-0.3,0.1
		c-0.4,0.6-0.8,1.2-1.1,1.8c-0.2,0.3-0.4,0.6-0.9,0.4c-0.2-0.3-0.4-0.6-0.5-0.8c0.1-0.7,0.7-1.4-0.1-2.1c-0.4,0.7-0.7,1.3-1,2
		c-0.3-0.1-0.5-0.2-0.9-0.3c0.1-0.4,0.3-0.8,0.4-1.1c-0.9-0.9-1-0.9-2,0.5c0.3-1,0.7-1.9,0.7-2.8c0-0.9,0.7-1.5,0.9-2.4
		c-0.6-0.2-0.4-0.6-0.3-1l0,0c0.1-0.3,0.4-0.6,0.4-0.9c0.1-0.5,0.2-0.8,0.8-0.8c-0.2-0.6,0.2-1.2-0.1-1.8c0.8-0.2,0.3-0.9,0.5-1.4
		c0.2-0.5,0.4-0.9,0.6-1.4c0-0.1,0-0.1,0-0.2c0.1,0.2,0.3,0.4,0.6,0.9c0-0.6,0-1,0-1.6c-0.3,0.3-0.4,0.5-0.6,0.7
		c0.3-0.6,0.4-1.2,0-1.9c-0.2-0.4-0.1-1-0.1-1.5c0.4-0.1,0.7-0.2,1-0.4c-0.2-0.7-0.4-1.4-0.6-2.1C72.6,49.5,72.5,49,72.9,48.7
		c0.2,0,0.4,0.1,0.7,0.1c0-0.4-0.1-0.6-0.1-0.9C73.3,48.3,73.1,48.5,72.9,48.7z M74.2,47.7c0.1-0.1,0.2-0.2,0.3-0.4
		c0.2-0.9,0.3-1.9,0.6-2.8c0.1-0.5,0.2-0.9,0.1-1.4c-0.1-0.4-0.1-0.9-0.2-1.4c-0.1,0-0.2,0-0.2,0C74.3,43.6,74.1,45.6,74.2,47.7z
		 M75.7,40.8c0-0.9,0.1-1.7,0.1-2.5c0-0.2-0.2-0.4-0.3-0.7c-0.7,0.8-0.6,1.6-0.6,2.5C74.9,40.7,75.2,40.8,75.7,40.8z M78,27
		c-0.6,0.5-0.4,1.1-0.3,1.9C78.4,28.3,78.1,27.7,78,27z M73.5,47.1c0.1,0,0.2,0,0.3,0c0-0.5,0-1,0-1.5C73.2,46,73.2,46.5,73.5,47.1z
		 M73.3,57.6c-0.1,0-0.2,0-0.2-0.1c-0.5,0.8-0.5,0.8,0,1.4C73.2,58.4,73.2,58,73.3,57.6z M77.1,32.8c0.1,0,0.1,0,0.2,0
		c0-0.2,0-0.5,0.1-0.7c-0.1,0-0.2,0-0.3,0C77.1,32.4,77.1,32.6,77.1,32.8z M73.1,57.2c0.1,0,0.2,0,0.3,0c0-0.3,0-0.6,0.1-0.9
		c-0.1,0-0.1,0-0.2,0C73.2,56.6,73.1,56.9,73.1,57.2z"/>
	<path d="M182.4,32.8c-0.1-0.1-0.2-0.3-0.3-0.3c-0.3,0-0.5,0.1-0.8,0c1.3-1.3,3-1.7,4.7-2.6c0-0.1,0-0.3,0-0.6
		c2.6-0.5,5.2-1.1,7.8-1.6c0.8-0.2,1.7-0.1,2.6-0.1c0.8,0,1.6,0.2,2.4,0.4c0.7,0.2,1.4,0.6,2.1,0.8c0.2,0.1,0.4,0.3,0.7,0.3
		c0.9,0,1.3,0.7,1.9,1.1c0.3,0.2,0.2,0.7-0.1,0.8c-0.4,0.2-0.3,0.4-0.3,0.7c0,0,0,0.1,0,0.1c0.2,0.7-0.3,1.3-0.3,1.8
		c0,0.5,0.6,1.1,0.5,1.7c-0.2,1.3-0.6,2.5-1.5,3.5c-0.3,0.4-0.6,0.9-1,1.2c-0.3,0.4-0.7,0.7-1.1,1.1c-0.2,0.2-0.4,0.4-0.6,0.6
		c-0.7,0.6-1.3,1.1-2,1.6c-0.2,0.2-0.3,0.3-0.6,0.6c0.4,0.3,0.7,0.6,1.1,0.8c1.8,0.9,3.2,2.3,4.6,3.6c0.2,0.2,0.3,0.4,0.4,0.6
		c1.2,1.9,2.4,3.9,3.5,5.9c0.6,1.1,1,2.3,1.5,3.4l0,0c-0.5-0.7-1-1.4-1.5-2.1c-0.5-0.8-0.9-1.7-1.5-2.5c-1.1-1.4-1.9-3-2.8-4.5
		c-0.2-0.4-0.5-0.7-0.8-1.1c-0.1,0.1-0.2,0.1-0.2,0.2c0.5,0.9,1.1,1.8,1.6,2.7c1.1,1.8,2.3,3.4,3.3,5.2c0.7,1.3,1.5,2.6,2.7,3.7
		c0.1,0.1,0.2,0.3,0.3,0.4c-0.1,0.5,0.3,0.7,0.6,1c0.3,0.1,0.5,0.3,0.8,0.4c0.4,0.3,0.8,0.6,1.1,1c0.2,0.4,0.5,0.6,0.9,0.6
		c0.7,0.1,1.4,0.1,2.1,0.3c0.2,0.1,0.5-0.2,0.9-0.4c0.1,0.2,0.2,0.5,0.3,0.7c0.3,0,0.5-0.1,0.8-0.1c0,0.2,0.1,0.3,0.1,0.4
		c-0.1,0.3-0.3,0.5-0.3,0.8c-0.1,0.3-0.1,0.7,0,0.9c0.3,0.4,0.3,0.8,0.1,1.3c-0.1,0.3-0.1,0.6-0.2,0.9c-0.1,0.3-0.1,0.6-0.2,1
		c0.4,0,0.7-0.1,1-0.1c-0.1,0.9-0.9,0.9-1.4,1.2c-0.4,0.2-0.8,0.4-1.2,0.6c-0.4,0.2-0.5,0.5-0.2,0.9c-0.5,0.4-1,0.8-1.5,1.1
		c-0.6,0.4-1.8,0.2-2.4-0.2c-1-0.8-2-1.5-3.3-1.8c-0.5-0.1-0.9-0.7-1.2-1.1c-0.4-0.5-0.8-1-1.2-1.5c-0.7-1-1.5-2.1-2.1-3.2
		c-0.7-1.4-1.7-2.6-2.5-3.9c-1.1-1.6-2.1-3.3-3.2-4.9c0,0,0-0.1-0.1-0.1c-0.7-1.4-1.7-1.8-3.2-1.5c-0.5,0.1-1-0.1-1.5-0.1
		c-0.3,0.3-0.6,0.6-1,0.9c0.1,2.7,1.3,5.2,1.5,8c-0.3,0-0.5,0-0.7-0.1c0.1,0.4,0.4,0.7-0.1,1c-0.1,0.1-0.1,0.4-0.1,0.6
		c0,0.6,0.1,1.2,0,1.8c0,0.5,0.1,1.1-0.6,1.3c-0.1,0-0.1,0.2-0.2,0.4c-0.2,0.6-0.6,0.9-1.2,1c-0.8-0.7-0.9-1.7-1.3-2.7
		c0,0.2-0.1,0.5-0.1,0.7c0,0.2,0.1,0.3,0.2,0.5c0.2,0.8,0.1,1.2-0.6,1.6c-0.2,0.1-0.3,0.2-0.5,0.3c-0.7-0.2-1.1-0.9-1.9-1
		c-0.1,0-0.2-0.3-0.3-0.4c-0.4-1.1-0.9-2.2-1.1-3.4c0-0.4-0.3-0.8-0.4-1.2c-0.2-0.6-0.3-1.2-0.4-1.8c0-0.5-0.1-0.9-0.3-1.4
		c-0.2-0.9-0.8-1.7-0.3-2.7c0.1-0.2,0.1-0.6,0-0.8c-0.2-1.4-0.4-2.8-0.5-4.3c0-0.5,0-1,0.1-1.5c0-0.1,0.1-0.2,0.1-0.3
		c-0.1-1.4-0.3-2.8-0.5-4.1c0-0.1-0.1-0.3,0-0.4c0.3-0.8,0.4-1.7,0.1-2.6c-0.1-0.4,0.2-0.9,0.2-1.4c0-1.3,0-2.5-0.1-3.8
		c0-0.3,0-0.7,0.1-1c-0.5-0.4-1.1,0.4-1.6-0.2c0.4-0.5,1.1-0.5,1.7-1c-0.8-0.1-1.5-0.1-2.2-0.2c0,0,0-0.1,0-0.1
		c0.4-0.2,0.8-0.4,1.2-0.5c-0.7-0.1-1.2-0.6-1.9-0.9c0.6-0.5,1-1,1.8-1.1C181.5,33.5,182.1,33.5,182.4,32.8c0.3,0.3,0.7,0.2,1,0.1
		c0.1-0.1,0.2-0.2,0.3-0.3c-0.2-0.1-0.4-0.4-0.4-0.3C183,32.4,182.7,32.6,182.4,32.8z M198.4,36c-3.8-0.6-7.2,0.5-10.7,1.1
		c0.1,0.8,0.1,1.5,0.2,2.3c0.1,1,0.3,1.9,0.5,2.9c0.2,0.8,0.4,1.7,0.6,2.5c0,0.2,0.2,0.3,0.3,0.4c0.5,0.4,1.1,0.6,1.8,0.7
		c-0.6-0.5-1.2-0.9-1.7-1.3c0.5-0.7,1-1.3,1.4-1.9c0.1-0.1,0.4-0.2,0.5-0.2c0.9-0.2,1.8,0.1,2.6,0.5c0.4,0.2,0.8,0.4,1.2,0
		c0.6-0.6,1.2-1.1,1.7-1.7c1-1.2,1.9-2.4,2.8-3.5c0.2-0.2,0.3-0.4,0.4-0.7c-0.1,0-0.1-0.1-0.2-0.1c-0.6,0.6-1.2,1.1-1.8,1.7
		c-0.6,0.5-1.1,1.1-1.7,1.6c-0.6,0.5-1,1.3-1.9,1.5c0-0.2,0.1-0.3,0.2-0.5c0.7-0.8,1.3-1.6,2.1-2.2c0.8-0.6,0.7-1.1,0.6-1.9
		C197.7,36.9,198,36.5,198.4,36z M190.4,51.9c-0.4,1-0.4,1-0.1,1.9c1.3,0,2.7,0,4.2,0.1c-0.2-0.7-0.7-1-1.3-1
		c-0.6,0-1.1-0.2-1.6-0.4C191.3,52.2,190.9,52.1,190.4,51.9z M201.2,31.5c0.1,0.5,0.1,0.9,0.2,1.3c0,0.1,0.2,0.3,0.3,0.4
		c0.3-0.3,0.7-0.5,0.8-0.8c0.2-0.4,0.2-0.9-0.2-1.1c-0.8-0.6-1.6-1.3-2.8-1.1C199.7,31,199.8,31.1,201.2,31.5z M194.2,31.3
		c0.1,0.1,0.1,0.2,0.2,0.2c0.9,0.1,1.7,0.2,2.6,0.3c0.2,0,0.5,0,0.6,0.1c0.6,0.5,1.3,0.4,2,0.4c-0.1-0.2-0.1-0.5-0.2-0.5
		c-0.8-0.4-1.5-0.8-2.4-1c-0.8-0.1-1.6,0.5-2.5,0.3C194.4,31.1,194.3,31.2,194.2,31.3z M189.1,32c-1.4-0.6-2.5-0.2-3.6,0
		c-0.1,0-0.2,0.4-0.3,0.6C186.6,32.4,187.7,32.2,189.1,32z"/>
	<path d="M251.8,25.9c0.1,0,0.3,0.1,0.3,0.1c0.1,1,0.7,1.9,0.7,3c0,0.6,0.3,1.3,0.6,1.7c0.9,1.2,1.1,2.6,1.6,4
		c0.5,1.4,0.9,2.8,1.3,4.2c0.1,0.4,0.3,0.9,0.9,0.8c0.8-1,1.7-2.1,2.5-3.2c0-0.1,0.1-0.1,0.1-0.2c1.4-0.6,1.8-2,2.9-2.9
		c0.2-0.1,0.1-0.5,0.3-0.6c0.2-0.2,0.6-0.2,0.7-0.3c0.4-0.5,0.6-1.1,0.9-1.6c0.1-0.1,0.1-0.3,0.2-0.4c0.3-0.3,0.6-0.5,0.8-0.7
		c0.1-0.1,0.2-0.3,0.3-0.3c0.9,0.1,0.9-0.6,1.2-1.1c0.5-0.8,0.9-1.6,1.4-2.4c0.2,0.1,0.3,0.2,0.5,0.3c0.2-0.3,0.5-0.5,0.7-0.9
		c0.4,0.4,0.7,0.7,0.4,1.3c-0.2,0.4-0.3,0.8-0.4,1.2c-0.1,0.3,0,0.6,0,1.2c0.5-0.5,0.8-0.8,1.1-1.1c0.1,0.8-0.5,1.4-0.8,2
		c0.9,0.8,0.9,0.8,1.5-0.2c0.1-0.1,0.2-0.2,0.2-0.3c0.1-0.1,0.2-0.3,0.4-0.5c0.1,0.2,0.3,0.4,0.4,0.6c-0.1,1.1-1.5,1.8-0.9,3.3
		c0.4-0.5,0.8-0.9,1.1-1.3c0,0,0.1,0,0.1,0.1c-0.2,0.3-0.3,0.6-0.5,0.9c-0.5,1-1.2,1.9-1.6,2.9c-0.5,1.3-1.3,2.4-2.1,3.6
		c-0.2,0.4-0.6,0.7-0.9,1c-0.3,0.4-0.4,0.8-0.7,1.2c-0.8,1.2-1.6,2.4-2.4,3.6c0.6,0.8,1.5,1.2,2.3,1.8c2.1,1.3,4.3,2.5,6.1,4.2
		c0.5,0.5,1.2,0.8,1.8,1.3c0.9,0.8,1.7,1.7,2.5,2.6c0.7,0.8,1.3,2,2.8,1.7c-0.1,0.3-0.2,0.4-0.2,0.6c0.3,0.7,1,0.6,1.6,0.7
		c0.1,0.4,0.2,0.8,0.1,1.1c-0.1,0.5,0.1,0.8,0.6,0.8c0.1,0,0.2,0.1,0.3,0.1c0.5,0.6,0.9,1.3,1.4,2c-1,0.2-0.5,1.5-1.5,1.8
		c0.1,0.2,0.2,0.4,0.4,0.6c-0.6,0.1-1.2,0.2-1.7,0.3c-0.4,0.1-0.8,0.2-1,0.6c-0.1,0.2-0.6,0.5-0.8,0.5c-0.7-0.3-1.6-0.3-2.2-0.8
		c-1.5-1.3-3.1-2.5-4.6-3.8c-1.3-1.1-2.5-2.2-3.7-3.3c-1.3-1.2-2.8-2-4.3-2.9c-0.9-0.5-1.8-1-2.7-1.5c-0.4-0.2-0.8-0.3-1.2-0.5
		c-0.1,0.4-0.1,0.7-0.2,1c-0.1-0.3-0.2-0.7-0.3-1c0.1,0.5-0.3,1.1,0.3,1.7c0-0.4,0-0.6,0-0.8c0.3,1.3,0.6,2.6,0.9,3.9
		c0.4,1.5,0.5,3.2,1.1,4.7c0.1,0.2,0.1,0.5,0.1,0.8c0,0.3-0.1,0.5-0.2,1c-0.2-0.6-0.4-0.9-0.5-1.3c-0.3-1.5-0.6-3-0.9-4.6
		c-0.1-0.3,0-0.7-0.6-0.5c0,0-0.1-0.3-0.3-0.4c0.1,0.9,0.1,1.8,0.4,2.6c0.2,0.5,0.3,0.9,0.2,1.4c-0.2,1.2-0.2,2.3,0.3,3.5
		c0.2,0.6,0.3,1.1-0.3,1.7c-0.4,0.4-0.5,1-1.2,1.2c-0.1-0.2-0.2-0.4-0.2-0.6c-0.2-1.1-0.4-2.1-0.6-3.2c-0.1-0.3-0.3-0.6-0.5-0.9
		c0.1,0.7-0.1,1.4,0.3,2c0.1,0.1,0.1,0.4,0,0.6c-0.1,0.7-0.1,1.5-0.2,2.2c0,0.5-0.3,0.6-0.7,0.8c-0.5,0.2-0.9,0.1-1.2-0.4
		c-0.2-0.4-0.4-0.8-0.6-1.3c-0.2,0.2-0.4,0.4-0.6,0.6c-0.3-0.4-0.5-0.7-0.7-1.1c-0.2,0-0.4,0.1-0.7,0.2c-0.2-1.2-0.4-2.4-0.6-3.6
		c-0.4-2.5-0.8-5-1.1-7.4c-0.3-1.9-0.4-3.9-0.6-5.8c-0.2-1.6-0.4-3.2-1-4.7c-0.2-0.5-0.2-1-0.3-1.5c-0.1-1.6-0.3-3.3-1.1-4.7
		c-0.2,0-0.3,0.1-0.4,0.1c-0.1-0.1-0.1-0.2-0.1-0.2c0-0.5,0.1-1,0.1-1.4c0-0.2-0.1-0.5-0.1-0.5c-0.8-0.2-0.6-0.8-0.7-1.3
		c-0.1-0.5-0.3-1-0.6-1.5c-0.1-0.3-0.3-0.6-0.5-0.9c0.1-0.2,0.3-0.5,0.5-0.8c-0.3-0.4-0.6-0.9-0.9-1.4c1.1-0.6,0-1.6,0.4-2.5
		c0.3,0.3,0.5,0.5,0.9,0.7c0.2-0.7,0.2-1.3-0.2-1.8c-0.1-0.2-0.3-0.3-0.3-0.5c-0.1-0.4,0-0.7,0.6-0.6c-0.6-0.8,0.1-1.7-0.4-2.5
		c0.6,0.1,0.6,0.5,0.7,0.8c0.4,1.3,0.8,2.5,1,3.8c0.1,0.7,0.5,1,1.1,1.3c0-0.4,0.1-0.8,0.1-1.1c0.4-0.2,0.7-0.3,1-0.5
		c0.2,0.2,0.4,0.4,0.8,0.7C252.3,27.8,251.9,26.8,251.8,25.9L251.8,25.9z M260.3,57c0.1-0.3,0.2-0.4,0.2-0.5c-0.1-1.3-0.3-2.7-0.4-4
		c-0.1-0.5-0.3-0.6-1-0.3C259.3,53.8,259.6,55.4,260.3,57z M282.1,61.9c-0.1-0.6-0.3-0.9-0.9-0.9C281.1,61.6,281.2,62,282.1,61.9z"
		/>
	<path d="M410.6,13.9c0,0.2-0.1,0.5-0.2,0.7c-0.4,1-0.3,2-0.2,3c0.3,0,0.6,0,1,0.1c0.1-0.9,0.1-1.8,0.2-2.6c0.1,0,0.1,0,0.2,0
		c0,0.4,0,0.8,0,1.1c0,0.5-0.2,1.1,0.4,1.5c0.1,0.1,0,0.3,0,0.5c0,2.1,0.1,4.2-0.3,6.3c-0.2,1.3-0.1,2.6-0.2,3.9
		c0,0,0.1,0.1,0.2,0.2c0.3-0.7,0.4-1.4,0.5-2c0.1-0.8,0.1-1.6,0.2-2.4c0.2-1.2,0.4-2.3,0.6-3.5c0.1-0.7,0.4-1.5,0.2-2.3
		c-0.1-0.2,0-0.5,0-0.6c0.5-0.8,0.4-1.7,0.6-2.5c0.1,0.2,0.2,0.3,0.2,0.5c0,0.3,0,0.7,0,1c-0.2,2-0.4,4-0.6,6
		c-0.1,0.6-0.2,1.2-0.3,1.8c-0.2,1.2-0.4,2.5-0.6,3.8c0.4-0.1,0.7-0.1,1.1-0.1c-0.3,0.3-0.6,0.6-0.9,0.9c0,0.9,0,1.9,0,2.9
		c1.5-0.6,2.3,0.2,3,1.2c-0.2,0.3-0.4,0.6-0.7,1c0.5,0,0.8,0,1.1-0.1c0.1,0.4,0.3,0.7,0.4,1.1c-0.2,0.1-0.4,0.3-0.6,0.4
		c-0.7,0.3-1.3,0.5-1.7,1.2c-0.2,0.3-0.6,0.5-1,0.8c0.1,1.2,0.3,2.5,0.4,3.7c0.1,1.2,0.3,2.5,0.5,3.7c0.1,1.2,0.6,2.5,0.3,3.7
		c-0.9-3.5-1.7-7.1-2-10.8c-0.8,0.4-0.6,1.1-0.5,1.7c0.1,0.8,0.3,1.5,0.4,2.3c0.4,2.6,0.7,5.2,1.1,7.8c0,0.4,0,0.8-0.1,1.2
		c-0.1-0.5-0.3-1.1-0.4-1.6c0,0-0.1,0-0.1,0c0,0.9,0.1,1.8,0.1,2.7c-0.9-0.1-0.4,0.8-0.9,1.1c-0.8-0.2-1.3,0.4-1.4,1.2
		c-0.4,0.2-0.6,0.3-0.9,0.4c-0.5,0.2-0.9,0-1.1-0.4c-0.4-0.8-0.8-1.5-1.2-2.3c-0.2-0.3-0.2-0.7-0.3-1c-0.2-0.9-0.4-1.9-0.8-2.8
		c-0.4-0.8-0.5-1.8-0.7-2.7c-0.3-1.5-0.5-3-0.7-4.5c0-0.3-0.1-0.6-0.2-0.9c-2,0.3-4.1,0.3-6.1,1.2c0.3,2.7,0.6,5.4,0.9,8.1
		c-0.6-0.5-0.4-1.2-0.5-1.7c-0.1-0.6-0.1-1.2-0.2-1.9c-0.1,0-0.1,0-0.2,0c0,0.7,0.1,1.4,0.1,2.1c-0.1,0-0.1,0-0.2,0
		c-0.1-1.3-0.2-2.5-0.3-3.8c0.1,0.2,0.3,0.4,0.4,0.7c0,0,0.1,0,0.1,0c-0.2-1.1-0.3-2.3-0.5-3.4c0,0-0.1,0-0.1,0
		c0,0.4-0.1,0.7-0.1,1.1c-0.1-0.2-0.1-0.5-0.2-0.7c-0.1-0.2-0.1-0.4-0.3-0.6c-0.2,1.4,0.1,2.7,0.1,4.1c0.1,1.3,0.1,2.7,0.2,4
		c-0.1,0-0.1,0-0.2,0c-0.1-0.5-0.2-1.1-0.2-1.7c-0.4,0.2-0.3,0.5-0.3,0.7c0.1,0.4,0,0.7-0.4,0.8l0,0c-0.5,0.3-0.4,0.8-0.5,1.4
		c0.3-0.2,0.5-0.3,0.6-0.4l0,0c0.1,0,0.2,0,0.2,0c0.1,0.4,0.2,0.9,0.3,1.4c-0.1,0-0.2,0.1-0.2,0.1c-0.1-0.2-0.3-0.4-0.5-0.8
		c-0.5,1.5-1.4,2.6-1.5,4.2c-0.9-0.1-0.8-1-1.3-1.3c-0.3,0-0.7,0-1.1,0c-0.1-0.4-0.3-0.9-0.4-1.4c-0.4-2-0.7-4-1-6
		c-0.1-0.9,0-1.8-0.7-2.6c-0.2-1.3-0.8-2.5-0.7-3.9c0.1-1.3-0.1-2.6-0.1-3.9c0-1.3,0-2.6,0-3.9c0.1-1.8,0.2-3.6,0.3-5.4
		c0-0.3,0.1-0.7,0.2-1c0.8-2.3,0.9-4.6,1.1-7c0-0.2,0-0.3,0-0.5c0-0.2,0-0.3,0.1-0.5c0,0.2,0.1,0.3,0.1,0.5c-0.1,3.5-0.6,7-1,10.5
		c-0.2,1.3-0.4,2.7,0.2,4c0.1-1,0.1-2.1,0.3-3.1c0.3-2.3,0.7-4.6,0.9-6.9c0.3-2.6,0.3-5.3,0.2-8c0-0.8,0.1-1.6,0.5-2.4
		c0.2-0.4,0.2-1,0.1-1.5c0-0.6-0.1-1.1-0.2-1.7c-0.1-0.7,0.3-1.1,0.6-1.6c0.1-0.1,0.4-0.1,0.6-0.2c0,2.2,0.1,4.3,0.1,6.4
		c0.4-0.2,0.6-0.3,0.7-0.7c0-0.3-0.3-0.7,0.2-0.9c0.2-0.1,0.5-0.2,0.7-0.3c0.1,0,0.2-0.1,0.3-0.1c0.1,0.5,0.1,0.9,0.2,1.3
		c0.1,0,0.1,0,0.2,0c0.1-0.4,0.1-0.8,0.2-1.2c0.3,0.7-0.4,1.4,0.2,2c0.4,0.1,0.5-0.3,0.5-0.6c0-0.5-0.1-1-0.1-1.5
		c0-0.4,0.1-0.8,0.1-1.2c0.1,0,0.1,0,0.2,0c0,0.8,0.1,1.6,0.1,2.5c1,0.3,1,1.2,1,2c0,1.4,0,2.8,0,4.2c0,0.6,0,1.2,0,1.8
		c0.8-1.2,0.9-5.2,0.2-10c0.2,0.3,0.4,0.4,0.6,0.7c0-0.3,0-0.5,0.1-0.7c0.1,0,0.2,0,0.2,0.1c0.2,0.6,0.4,1.1,0.4,1.7
		c0,2.7,0,5.4-0.4,8c-0.3,1.7-0.4,3.4-0.7,5.1c-0.1,0.5-0.2,1-0.2,1.4c-0.1,0.9-0.1,1.8-0.2,2.8c0.5,0.2,1.1,0.2,1.6,0.1
		c1.2-0.1,2.4-0.2,3.5-0.3c-0.3,0.1-0.5,0.2-0.8,0.3c-1.3,0.2-2.6,0.3-3.9,0.5c-0.2,0-0.4,0.1-0.6,0.2c1.3,0.5,2.6-0.1,4.1,0.2
		c-0.8,0.6-1.5,0.1-2.1,0.3c-0.6,0.2-1.3,0.2-1.9,0.3c0,0.4-0.1,0.8-0.1,1.1c1.1,0.4,2.1,0.1,3.1,0c0.7-0.1,1.5-0.1,2.4-0.2
		c0-0.3,0.1-0.8,0-1.2c-0.2-0.4,0-0.8-0.1-1.3c0-0.1-0.2-0.1-0.2-0.2c0.1-0.2,0.4-0.4,0.4-0.7c0.1-1.1,0.2-2.2,0.3-3.2
		c0-1,0-1.9,0.1-2.9c0,0.5,0,1.1,0,1.6c0,0,0.1,0,0.1,0c0.4-2.5,0.7-5,1.1-7.5c0,1.8,0,3.6-0.3,5.4c0.2-0.4,0.6-1.9,0.6-2.3
		c0.1-1.3,0-2.6,0.6-3.8c0.1-0.2,0.1-0.5,0.1-0.8c0-0.4,0.2-0.7,0.5-1c0,0.3,0,0.7,0.1,1.2c0.5-0.6,0-0.8-0.1-1.1c0-0.3,0-0.6,0-0.8
		c0.2-0.6,0.1-1.2-0.1-1.8c-0.1-0.3,0-0.7,0.1-1.1c0.1-0.2,0.4-0.3,0.7-0.5c0.1,0.5,0.3,0.8,0.3,1.1c0,0.8-0.2,1.7-0.3,2.5
		c-0.1,0.6-0.2,1.1,0.4,1.5c0.2,0.2,0.3,0.6,0.4,0.9c0.1,0.2,0.2,0.4,0.3,0.6c0.1,0,0.2,0,0.3,0c0.1-0.3,0.1-0.6,0.2-0.9
		c0-0.3,0-0.6,0.1-0.8c0.4-0.6,0.7-1.2,0.8-1.9C410.4,14,410.5,14,410.6,13.9L410.6,13.9z M411.5,31.1c0.1,0,0.2,0,0.4,0
		c0-0.3-0.1-0.6-0.1-0.9c-0.1,0-0.2,0-0.3,0C411.4,30.5,411.4,30.8,411.5,31.1z M412.6,47.3c-0.1,0-0.1,0-0.2,0
		c0,0.4,0.1,0.8,0.1,1.2c0.1,0,0.1,0,0.2,0C412.8,48,412.7,47.7,412.6,47.3z M397.9,28C397.9,28,397.8,28,397.9,28
		c-0.1,0.4-0.2,0.8-0.2,1.2c0.1,0,0.1,0,0.2,0C397.8,28.8,397.9,28.4,397.9,28z M398.3,24.9c0,0,0.1,0,0.1,0
		c0.1-0.2,0.1-0.5,0.2-0.7c-0.1,0-0.1,0-0.2,0C398.4,24.4,398.3,24.7,398.3,24.9z M397.3,33.3c0.1,0,0.1,0,0.2,0.1
		c0-0.3,0-0.6,0.1-0.9c0,0-0.1,0-0.1,0C397.4,32.8,397.3,33,397.3,33.3z M397.7,30.6c0,0,0.1,0,0.1,0c0-0.2,0-0.4,0-0.6
		c0,0,0,0-0.1,0C397.7,30.2,397.7,30.4,397.7,30.6z"/>
	<path d="M371.1,23.2c0.3,0.2,0.5,0.4,0.8,0.6c-0.5,0.5-0.1,0.9,0.2,1.1c1.6,1.5,3.3,2.9,4.9,4.3c0,0,0.1-0.1,0.1-0.1
		c-0.5-0.5-0.9-1-1.4-1.5c0.5,0.1,0.9,0.4,1.2,0.8c0.3,0.3,0.9,0.1,0.9,0.6c0.3-0.4,0.6-0.7,0.8-1.1c0.2-0.4,0.3-0.8,0.4-1.2
		c0.2-1,0.4-1.9,1.3-2.5c0.3-0.2,0.7-0.6,0.4-1.2c-0.1-0.2,0.1-0.5,0.2-0.7c0.9-1.2,1.3-2.4,1.3-3.9c0-0.1,0.2-0.2,0.3-0.3
		c0.3,0.9,0.3,0.9,1.3,0.6c-0.3,0.5-0.4,0.6-1.4,1c0.1,0.2,0.3,0.4,0.3,0.6c0.1,0.4,0.6,0.8-0.1,1.2c-0.1,0.1,0,0.4,0,0.7
		c0.1,0,0.2,0.1,0.3,0.1c0.2-0.3,0.5-0.6,0.7-0.9c0.2-0.3,0.4-0.7,0.6-1c0.1-0.2,0.2-0.4,0.1-0.6c-0.1-1.3,0-1.3,0.7-2.3
		c0.4-0.5,1.2-0.9,1.1-1.7c0.6-0.3,0.7,0.4,1.1,0.6c0.6-0.3,1.3-0.7,2-1.1c0.1,0.3,0.1,0.6,0.2,1c-0.5,0.2-1.1,0.3-0.9,1.1
		c-0.4,0.3-0.3,0.9-0.8,1.1c-0.4,0.2-0.5,0.8-0.7,1.2c-0.5,1.2-1.1,2.3-1,3.7c0.5-0.2,1-0.3,1.3-0.8c0.1-0.2,0.6-0.2,0.9-0.3
		c0.2,0.3,0.3,0.6,0.5,0.8c0,0,0,0.1,0,0.1c-0.7,0.6-0.1,1.7-0.8,2.4c0.3-0.1,0.6-0.3,0.9-0.5c0.1,0.4,0.2,0.9-0.2,0.9
		c-0.5,0.1-0.7,0.5-1.1,0.8c-1.3,1.2-1.5,2.8-2,4.3c-0.5,1.6-0.2,3.2-0.4,4.8c-0.3,2.2-0.5,4.4-0.8,6.7c-0.1,0.7-0.3,1.3-0.2,2
		c0.1,0.4-0.3,0.8-0.5,1.3c-0.3-1.3-0.1-2.4,0.1-3.5c0.3-2,0.6-3.9,0.8-5.9c0.1-1,0.1-2,0.2-2.9c0.1-0.4-0.1-0.5-0.4-0.8
		c-0.1,0.2-0.2,0.4-0.2,0.6c-0.1,1.1-0.3,2.3-0.4,3.4c0,0.3,0.2,0.6,0.3,0.9c-0.1,0.1-0.4,0.2-0.4,0.4c-0.2,1.6-0.3,3.2-0.5,4.7
		c-0.3,1.7-0.3,3.5-1.3,5c-0.8,1.4-0.9,2.9-1.3,4.4c-0.2,0.7-0.1,1.4-0.2,2.1c-0.2,1.1-0.5,2.1-0.8,3.2c-0.3,0.9-0.5,1.8-0.8,2.7
		c-0.3,0.9-0.9,1.5-1.9,1.5c-0.3,0-0.6,0.3-1.1,0.5c0.1-0.2,0.3-0.4,0.3-0.5c0-0.2-0.1-0.5-0.3-0.6c-0.6-0.1-1.2-0.5-1.7,0.3
		c-0.5-0.4-0.7-1.1-1.5-0.9c0.2-0.2,0.4-0.3,0.6-0.6c-0.6-0.5-0.9-1.1-0.8-1.9c0.1-0.6-0.1-1.2,0.6-1.7c0.1,0,0.2,0.1,0.3,0.1
		c0.9,0.3,1.1,0.2,1.2-0.8c0.1-0.6,0.2-1.3,0.3-2.1c-0.3,0.2-0.4,0.3-0.6,0.4c-0.2-0.8-0.2-1.5-0.4-2.3c-0.2-0.5,0-1.2,0.2-1.7
		c0.3-0.6,0.1-1.1,0.1-1.6c0.2-0.3,0.5-0.6,0.5-0.9c0.3-1.8,0.6-3.6,0.8-5.4c0.1-1-0.4-1.8-1.1-2.3c-2.8-2.2-5.4-4.6-7.8-7.2
		c-1.7-1.8-3.2-3.9-4.7-5.9c-0.9-1.2-1.8-2.6-2.6-3.9c-0.3-0.5-0.5-1-0.6-1.5c-0.1-0.7-0.5-1.2-0.8-1.8c-0.2-0.4-0.4-0.9-0.7-1.5
		c0.6,0,1,0.1,1.5,0.1c0.1,1.2,1.5,0.7,2.1,1.5c0.3-0.8,0.3-1.5-0.1-2.1c-0.3-0.4-0.6-0.8-1-1.1c-0.5-0.5-0.9-0.9-0.7-1.7
		c0.8-0.2,1.6-0.1,2.3,0.6c0.4,0.4,0.8,0.9,1.3,1c0.8,0.2,1.3,0.7,1.7,1.4c1.2,0.3,1.6,1.6,2.4,2.3c0.2,0.2,0.4,0.4,0.7,0.6
		c0.1,0,0.1-0.1,0.2-0.1c0-0.2-0.1-0.5-0.2-0.8c0.2,0,0.4-0.1,0.8-0.2c-0.5,0.7-0.2,1.1,0.4,1.5c-0.3,0.1-0.4,0.2-0.6,0.3
		c0.1,0.1,0.3,0.3,0.4,0.3c0.5-0.2,0.8,0.1,1.1,0.5c0.5,0.5,1.1,1,1.8,1.4C371.2,23.5,371.2,23.3,371.1,23.2L371.1,23.2z
		 M380.3,26.7c-0.1,0-0.2,0-0.3,0c0.5,0.7-0.4,1.2-0.2,1.9c0.4-0.3,0.2-1.2,1-0.7c0.1-0.3,0.2-0.5,0.2-0.7
		C380.8,27.1,380.5,26.9,380.3,26.7z M370.7,24.1c0.1-0.1,0.1-0.1,0.2-0.2c-0.3-0.2-0.5-0.3-0.8-0.5c0,0.1-0.1,0.1-0.1,0.2
		C370.2,23.8,370.4,24,370.7,24.1z M363.7,18.9c0.1-0.1,0.1-0.1,0.2-0.2c-0.2-0.1-0.4-0.3-0.6-0.4c0,0-0.1,0.1-0.1,0.1
		C363.3,18.6,363.5,18.8,363.7,18.9z M372.7,26.4c0.1-0.1,0.2-0.2,0.2-0.2c0-0.1-0.1-0.2-0.2-0.2c-0.1,0-0.2,0.1-0.3,0.2
		C372.5,26.2,372.6,26.3,372.7,26.4z M381.8,25C381.8,25,381.8,25,381.8,25c0.1-0.2,0.1-0.4,0.1-0.7c0,0,0,0-0.1,0
		C381.8,24.6,381.8,24.8,381.8,25z"/>
	<path d="M164.4,57.8c0.6-0.7,1.3-0.6,2.1-0.6c0.2,0,0.4,0,0.5,0c0-0.1,0-0.2,0-0.2c-0.4-0.1-0.9-0.1-1.3-0.2
		c-0.3-0.1-0.5-0.3-0.8-0.4c-0.4-0.2-0.8-0.4-0.8,0.5c-0.3-0.4-0.5-0.7-0.9-1.1c0.6,0,1,0,1.5,0c0.5,0,1,0.1,1.5,0.1
		c0.6,0,1.2,0.1,1.7,0.5c0.7,0.6,1.6,0.4,2.4,0.3c0.4,0,0.8,0,1.2,0c0.2,0,0.5,0,0.6-0.1c0.5-0.3,1-0.2,1.5-0.3
		c0.8-0.2,1.6-0.1,2.3,0.3c0.2,0.1,0.6,0.1,0.9,0.1c0.4,0,0.7-0.2,1.2-0.3c-0.1,0.3-0.2,0.4-0.3,0.6c0.5,0.5,0.9,0,1.3-0.1
		c-0.7,1.6-2,2-3.4,2.3c-0.2,0.9-0.1,1,1.2,0.8c0,0,0,0.1,0,0.1c-0.1,1.6,0.1,1.3,1.5,0.9c0,0.3,0.1,0.7,0,0.8
		c-0.5,0.4-0.4,1.2-1.1,1.4c-0.1,0-0.1,0.1-0.2,0.1c-0.3,0.9-1.1,0.9-1.8,1.1c-1.8,0.6-3.7,0.6-5.5,0.9c-0.2,0-0.4,0-0.5,0
		c-2.4-0.3-4.8-0.6-7.2-1c-0.6-0.1-1.2-0.4-1.8-0.6c-0.2,0-0.3,0-0.6,0c-0.1,0.2-0.2,0.4-0.3,0.7c-0.2-0.4-0.4-0.7-0.6-1.1
		c-0.8,0.1-1.2-0.5-1.6-1.2c0.5-0.8,0.1-1.5-0.2-2.3c0.3-0.1,0.6-0.2,0.8-0.4c0.2-0.2,0.1-0.6,0.2-0.9c0-0.3,0.1-0.7,0.1-1
		c0-0.7,0.1-1.4,0.1-2.2c0-1.3-0.1-2.6-0.2-4c0-0.3,0-0.7-0.3-0.9c-0.2-0.2-0.1-0.5-0.2-0.9c-0.6,0-1.1-0.1-1.9-0.1
		c0.5-0.2,0.8-0.3,1.2-0.4c-0.6-0.6-0.7-1.2,0-1.8c-0.4,0-0.9,0-1.4,0c0.7-0.5,1.7,0.2,2.3-1c-0.2-0.1-0.5-0.2-0.6-0.3
		c0-0.3,0-0.4,0-0.4c0.6-0.2,0.5-0.8,0.5-1.2c-0.1-1.7,0-3.3,0.2-5c0.1-0.8,0-1.7-0.1-2.5c-0.7,1.2-0.9,2.5-1.3,3.8
		c0.2-0.9,0.3-1.9,0.5-2.8c0.2-0.8,0.5-1.5-0.4-2c-0.1-0.6-0.3-1-1-0.9c0,0.1,0,0.3,0,0.5c-0.2-0.2-0.5-0.3-0.9-0.6
		c0.3-0.2,0.5-0.3,0.8-0.5c-0.1-0.1-0.3-0.3-0.2-0.4c0.1-0.3,0.4-0.6-0.1-0.9c-0.2-0.1-0.5-0.2-0.8-0.3c0.7-0.3,1.3-0.7,2-0.9
		c0.7-0.2,1.5-0.2,2.2-0.5c-0.5-0.1-0.9-0.1-1.6-0.2c0.4-0.8,0.8-1.6,1.2-2.4c-0.7,0-1.3,0.1-1.9,0.1c0-0.1,0-0.2,0-0.2
		c0.7-0.1,1.4-0.2,2.2-0.3c0.1-0.1,0.2-0.2,0.2-0.4c0.3-0.6,0.8-0.9,1.4-0.9c1.2,0,2.4-0.3,3.6,0c0.1,0,0.2,0,0.2,0
		c0.8-0.6,1.8-0.3,2.7-0.5c0.9-0.2,1.7-0.3,2.6-0.5c0.6-0.1,1.4,0.1,2,0.2c0.9,0.1,1.8,0.2,2.6,0.3c0.2,0,0.3,0.1,0.6,0.3
		c-0.6,0.1-0.9,0.2-1.2,0.3c0.2,0.8,1.5,1.2,2.8,1.1c-0.6,0.2-1.2,0.4-1.8,0.7c-0.5,0.2-1,0.5-1.3,1c-0.2,0.3-0.2,0.8-0.3,1.2
		c0.8,0.5,1.5,0.6,2.3,0.4c0.4-0.1,0.8,0.2,1.4,0.4c-0.5,0.5-1.1,0.7-1.2,1.1c-0.2,0.7-0.9,0.4-1.1,0.8c0.1,0.7-0.1,1-0.8,1.1
		c-0.9,0-1.8,0.4-2.6,0.8c-1,0.5-2.1,0.8-3.2,1c-1.7,0.4-3.5,0.7-5.3,1.1c-0.2,0.6-0.7,1.2-0.1,1.9c0.1,0.1,0,0.4,0,0.6
		c0,0.5-0.1,1.1-0.1,1.8c1.3-0.2,2.3-0.4,3.4-0.6c0.7-0.1,1.3-0.2,2-0.1c1.9,0.2,3.7,0,5.4-0.9c0.3,0.2,0.6,0.3,1,0.5
		c-0.9,0.6-1.8,1.1-2.7,1.7c-0.1,0.3-0.1,0.7-0.1,1c0,0.3,0.1,0.6,0.2,1c0.7-0.1,1.3-0.1,1.9-0.2c0.1,0.2,0.3,0.5,0.6,0.8
		c-0.2,0.2-0.4,0.4-0.6,0.6c-0.6,0.5-1.4,0.7-1.6,1.6c0,0.1-0.1,0.1-0.1,0.2c-1.3,0.5-2.2,1.6-3.5,1.9c-1.8,0.5-3.6,1.3-5.5,1.4
		c-0.3,0-0.5,0.1-0.9,0.3c0,1,0.1,1.9,0.5,2.9c0.4,0.8,0.3,1.6,0.2,2.4c-0.3-0.9-0.6-1.9-1.6-2.4c0,0.6-0.1,1.2-0.1,1.8
		c-0.6-1.5,0.3-3-0.1-4.5c-0.2,0-0.4-0.1-0.6-0.1c0,1.8-0.1,3.6-0.1,5.3c0.7,0.6,1.4,0.1,2.1,0.5c0.6,0.3,1.4,0.2,2.2,0.2
		C164.3,57.5,164.3,57.6,164.4,57.8c-0.2-0.1-0.3-0.3-0.5-0.3c-0.6,0-1.2,0-1.8,0.1c0,0,0,0,0,0.1C162.9,57.7,163.6,57.8,164.4,57.8
		z M160.8,38.2c-0.1,0-0.1,0-0.2,0c-0.2,0.4-0.4,0.8-0.5,1.3c-0.4-0.4,0.2-0.9-0.5-1.2c-0.3,1.6,0.2,3,0.2,4.5
		c0.8-0.2,0.8-0.8,0.9-1.2C160.9,40.4,160.8,39.3,160.8,38.2z M161.3,41c-0.1,0.1-0.1,0.1-0.2,0.2c0.1,0.1,0.2,0.3,0.3,0.4
		c0,0,0.1-0.1,0.2-0.1C161.6,41.3,161.4,41.2,161.3,41z M167.2,56.8c0-0.1,0-0.1,0.1-0.2c-0.1-0.1-0.3-0.2-0.4-0.2
		c0,0.1-0.1,0.2-0.1,0.3C166.9,56.7,167,56.7,167.2,56.8z"/>
	<path d="M339.4,44c1.4-0.4,1-2,1.8-2.7c0.6-0.2,0.4,1,1.2,0.5c0.9-2.2,1.1-4.7,1.4-7.1c0.2-1.6,0.5-3.2,0.7-4.9
		c0.1-0.5,0-1.1-0.1-1.6c-0.1-0.4,0.1-0.7,0.3-1.1c-0.4-0.2-0.7-0.4-1.1-0.6c0.1-0.5,0.1-1,0.2-1.6c1.1,0.4,2.1,0.8,3.3,1.2
		c0.9-0.2,0.9-1,1.1-1.9c0.2,0.2,0.3,0.3,0.4,0.4c0.1,0.1,0.2,0.2,0.4,0.4c0.3-0.5,0.6-0.9,0.9-1.4c0.2,0.1,0.3,0.2,0.5,0.3
		c0.2,0.1,0.4,0.4,0.6,0.4c0.5,0.1,0.9,0.3,1,0.9c-0.3,0.3-0.7,0.6-1,0.9c0.3,0.5,0.3,0.5,0.9,0.5c0,0.2-0.1,0.5-0.1,0.7
		c0.2,0.1,0.5,0.3,1,0.6c-0.4,0-0.6,0.1-0.8,0.1c0.1,0.4,0.1,0.7,0.2,1.1c0.1,0.3,0.3,0.5,0.7,0.5c1,0,1.1,0.1,0.9,1
		c0.6,0.7,1.1,1.3,1.6,2c0.2,0.3,0.3,0.8,0.5,1.1c0.1,0.2,0.3,0.5,0.4,0.7c-0.2,0-0.5,0.1-1,0.2c0.7,0.6,0.8,1.5,1.7,1.8
		c0.2,0.1,0.3,0.6,0.4,0.9c0.2,0.7,0.3,0.7,1.1,0.4c0.1,0.2,0.2,0.5,0.4,0.9c0.2-0.5,0.4-0.8,0.6-1.3c0.6,1.1,1.5,0.9,2.5,0.8
		c1-0.2,2.1-0.1,3.1,0.3c-0.8,0.3-0.8,0.3-1.6,0.1c-0.7-0.1-2.1,0.1-3,0.5c0.2,0.2,0.4,0.4,0.5,0.4c0.5,0,0.8,0.2,0.9,0.8
		c-0.6,0-1.3-0.2-1.4,0.5c-0.1,0.7-0.5,0.7-1,0.6c-0.2,0.8,0,1.5,0.2,2.2c0.1,0.5,0.5,0.8,0.9,0.7c0.9-0.1,1.4,0.3,1.9,0.9
		c0.5,0.6,1.3,0.7,2.1,1.1c-0.7,0-1.2,0-1.7,0c0,0.1,0,0.1,0,0.2c0.3,0.1,0.7,0.2,1.1,0.3c0,0.3,0,0.5-0.1,0.8c-0.5,0-0.9,0-1.3,0
		c-0.2,0.3-0.3,0.7-0.5,0.9c-0.6,0.4-0.5,0.8-0.3,1.3c0.4,0.8,0.8,1.6,1.1,2.4c0.1,0.3,0.1,0.6,0.2,0.9c0.2,1.1,0.6,1.5,1.6,1.7
		c-0.3,0.8,0.6,1.3,0.7,2.2c-0.5-0.2-0.8-0.3-1.1-0.4c-0.3,0.8-0.6,1.5-1,2.3c-0.8,0.1-1.3-0.7-1.7-1.4c-0.6-1-1.1-2-1.5-3.1
		c-0.6-1.6-1.2-3.2-1.8-4.9c-0.3,0-0.8,0.1-1.2,0.1c-2.2,0.4-4.4,0.7-6.6,1.1c-0.6,0.1-0.9,0.3-1.1,0.9c-0.5,1.6-1,3.1-1.6,4.9
		c-0.1-0.5-0.1-0.7-0.1-1c-0.6,1.1-1.1,2.2-1.6,3.3c-0.6-0.2-0.9,0-1,0.5c-0.2,0.8-0.7,1.1-1.4,1.1c-0.1,0-0.3,0-0.4,0.1
		c-0.5,0.6-1,0.2-1.4-0.1c-0.1,0.1-0.2,0.2-0.6,0.5c0.1-0.6,0.2-1,0.3-1.4c-0.3,0-0.6,0-0.9-0.1c-0.3-1.5,0.9-2.8,0.3-4.4
		c-0.5,0.7-0.8,1.3-1.2,1.9c-0.4-0.8-0.6-1.7-0.2-2.6c0.5-1.1,0.6-2.3,1-3.5c0.5-1.4,0.4-1.4-0.5-2.6c0-0.6,0.1-1.2,0.2-2
		c0.4,0.2,0.8,0.3,1.2,0.5c0.1-0.2,0.2-0.7-0.2-0.7c-0.8,0-1.1-0.5-1.4-1.1C339.6,44.3,339.5,44.2,339.4,44z M353.1,34.5
		c-0.1,0-0.2,0.1-0.3,0.1c-0.2,1.8-0.5,3.6-0.7,5.5c1-0.3,1.7-0.5,2.6-0.8c-0.4-0.2-0.7-0.4-1-0.6c0.4-0.3,0.7-0.5,0.9-0.8
		C354.1,36.8,353.6,35.6,353.1,34.5z M349.4,25.4c0.1,0,0.1,0.1,0.2,0.1c0.2-0.2,0.5-0.3,0.6-0.5c0.1-0.1-0.1-0.4-0.2-0.6
		c-0.2,0.1-0.4,0.1-0.5,0.2C349.5,24.8,349.5,25.1,349.4,25.4z M354,42.1c-0.8,0.2-1.5,0.4-2.1,0.5C352.8,42.8,353,42.8,354,42.1z
		 M359.6,38.6c0,0.4-0.1,0.8-0.1,1.2c0.2-0.1,0.3-0.2,0.5-0.2C359.7,39.4,360.4,38.9,359.6,38.6z M349.5,27.5c0.1,0,0.2,0,0.3,0.1
		c0-0.3,0-0.6,0.1-0.9c-0.1,0-0.1,0-0.2,0C349.7,26.9,349.6,27.2,349.5,27.5z"/>
	<path d="M130.3,56.1c0.5,0.7,0.6,1.6,0.8,2.4c0.2,0.9,0.4,1.9,0.5,2.8c0.1,0.4,0.1,0.9,0.1,1.3c-0.1,0-0.2,0-0.3,0
		c-0.2-0.9-0.3-1.8-0.5-2.8c-0.8,0.2-0.9,0.3-0.8,0.9c0.1,0.7,0.3,1.3,0.4,1.9c0.1,1,0.3,2.1,0.3,3.2c-0.5-1.6-0.7-3.2-1.1-4.9
		c-0.2,0.1-0.2,0.2-0.2,0.2c0.1,1,0.1,2,0.2,2.9c0.1,0.9,0.4,1.7,0.5,2.6c0.1,0.5,0.1,1.1-0.5,1.5c-0.2,0.1-0.3,0.4-0.4,0.6
		c-0.3,0-0.6,0.1-1,0.1c-0.3-0.5-1-0.7-1.2-1.4c-0.3-1.3-0.6-2.6-0.9-3.9c-0.1-0.3-0.2-0.5-0.3-0.9c-0.2,0.2-0.3,0.3-0.4,0.4
		c-0.5-1.1-1.1-2.3-1.6-3.4c0.3,1,0.1,2.1,1,2.8c-0.8,1.3,0.4,2.3,0.3,3.5c-0.2,0-0.4-0.1-0.5-0.4c-0.5-1.9-0.8-3.9-1.7-5.8
		c-0.2-0.4-0.2-0.8-0.3-1.2c-0.1-0.3-0.3-0.5-0.6-0.4c-1.1,0.3-2.3,0-3.4,0.1c-0.8,0.1-1.6,0-2.3,0c-0.3,1.6-0.6,3.3-1.1,4.9
		c-0.5,1.6-0.4,3.3-1.2,4.8c-0.2-0.5-0.3-0.8-0.5-1.3c-0.3,0.3-0.4,0.5-0.6,0.7c-0.5,0.4-0.9,0.3-1.3-0.2c-0.6-0.9-0.4-1.9-0.5-2.8
		c0-0.7,0-1.3,0-2c0.1-0.7,0.2-1.3,0.3-2c0.1-0.5,0.2-1,0.4-1.5c0.4-1.3-0.3-2.2-1.2-3c-0.2-0.2-0.4-0.2-0.6-0.4
		c-0.5-0.5-0.4-1.4,0.2-1.8c0.3-0.2,0.6-0.4,0.9-0.6c-0.1-0.3-0.2-0.6-0.3-0.9c0-0.2-0.1-0.4-0.1-0.6c0.1-0.1,0.2-0.1,0.3-0.1
		c0.4,0,1.1,0.1,1.3-0.1c0.4-0.5,0.9-1.1,0.9-1.8c0-0.2,0-0.3,0.1-0.5c-0.2-0.1-0.3-0.2-0.5-0.2c0,0,0.1-0.1,0.1-0.1
		c0.6,0.1,0.7-0.4,0.9-0.7c0.7-1.8,1.3-3.5,1.9-5.3c0.3-0.8,0.4-1.7,0.7-2.5c0.3-0.7,0.4-1.6,1.3-2c0.2-0.1,0.4-0.5,0.5-0.8
		c0.2-0.5,0.2-0.9,0.8-1.2c0.3-0.2,0.5-0.9,0.4-1.5c-0.1-1.8-0.1-3.7-0.2-5.6c0.7,0.4,0.3,1.3,0.9,1.8c0.1-1,0.9-1.2,1.6-1.4
		c0.4,0.5,0.8,1.1,1.2,1.6c0.2-0.2,0.3-0.3,0.5-0.5c0.3,0.5,0.5,0.9,0.7,1.4c-0.1-0.1-0.3-0.2-0.4-0.2c0,0.2,0,0.3,0.1,0.5
		c0,0.1,0.2,0.1,0.3,0.1c0.3,0.5,0.5,1,0.3,1.6c-0.2,0.5,0,1,0.2,1.5c0.3,0.9,0.5,1.8,0.7,2.7c0.5,2.3,1.1,4.6,1.6,6.9
		c0.2,0.9,0.3,1.8,0.5,2.7c0.3,0,0.5,0,0.7,0.1c0-0.1,0.1-0.1,0.1-0.1c-0.5-3-1.1-6-1.6-9c0.1,0,0.1,0,0.2,0c0.2,1,0.4,1.9,0.6,2.9
		c0.5,2.3,1,4.5,1.5,6.8c0.1,0.6,0.5,0.4,1.1,0.1c-0.3,0.3-0.4,0.4-0.6,0.6c0.3,0.1,0.6,0.1,1.2,0.2c-0.5,0.3-0.9,0.5-1.3,0.7
		c0.1,0.5,0.2,1,0.3,1.6c0.6-0.1,1.2-0.1,1.8-0.2c0.2,0.7-0.7,0.1-0.7,0.6c0.3,0.2,0.7,0.4,1,0.6C131.1,53.9,130,54.6,130.3,56.1
		c-0.2-0.3-0.3-0.6-0.6-1c-0.1,0.3-0.3,0.6-0.2,0.8c0.3,0.9,0.6,1.8,0.9,2.8c0.5-0.4,0.1-0.9,0.1-1.4
		C130.4,56.8,130.3,56.5,130.3,56.1z M120.9,45.4c-1.1,0.8-0.3,1.8-0.6,2.8c-0.2-0.5-0.3-0.8-0.4-1c-0.2,1-0.5,1.9-0.7,2.9
		c0.6-0.2,1.1-0.4,1.6-0.5c0.5-0.2,0.8-0.5,0.7-1C121.3,47.5,121.1,46.5,120.9,45.4z M129.1,50.5c-0.4,0.1-0.8,0-0.7,0.6
		c0.1,0.6,0.2,0.8,1,0.9C129.2,51.6,129.2,51.1,129.1,50.5z"/>
	<path d="M133.5,37.4c-0.2,0.3-0.2,0.4-0.3,0.6c-0.2-0.9,0.3-1.8-0.6-2.3c0.9-0.6,0.6-1.5,0.8-2.6c0.5,0.8,0.6,1.7,1.4,2.1
		c-0.4-0.6-0.6-1.1-0.1-1.8c0.2-0.3-0.1-0.8-0.2-1.2c-0.1-0.4-0.2-0.7-0.3-1c0.4-0.2,0.7-0.2,0.8,0.2c0.2,0.5,0.4,1,0.5,1.6
		c0.1,0.6,0.2,1.2,0.4,1.8c0.4,0.2,0.7,0.3,1,0.5c0.3-0.7,0.3-0.7,0.4-1.9c0,0.2,0.1,0.4,0.1,0.7c0,1.2,0.3,2.3,0.8,3.3
		c0.3,0.6,0.5,1.2,0.7,1.9c0.2,0.4,0.2,0.8,0.8,1c0.4,0.1,0.5,0.5,0.6,0.9c0.6,1.1,0.5,2.3,1.3,3.3c0.4,0.5,0.5,1.2,0.6,1.8
		c0.1,0.8,0.4,1.5,1,2c-0.2,0.1-0.4,0.2-0.6,0.3c0.4,0.7,0.8,1.3,1.1,2c0.2,0.7,0.2,1.5,0.2,2.2c0.1,0,0.2,0,0.3,0
		c0.2-0.4,0.4-0.8,0.5-1.3c0.2-1,0.9-2,0.8-3.1c0-0.1,0.2-0.3,0.3-0.4c0.6-1,1.1-2,1.4-3.1c0.2-0.6,0.3-1.3,0.9-1.7
		c0.2-0.1,0.3-0.4,0.4-0.6c0.3-0.7,0.5-1.4,0.9-2c0.7-1.3,0.7-2.7,0.7-4c0-0.8,0.2-1.2,0.9-1.6c0.2,0.4,0.5,0.7,0.8,1.3
		c0.7-1.7,1.4-3.1,2-4.6c0.4,1,0.4,1.9-0.2,2.9c-0.3,0.5-0.3,1.3-0.4,2c0,0.1,0.4,0.4,0.4,0.3c0.8-0.5,1.3,0.2,1.9,0.4
		c0.1,0,0.2,0.1,0.3,0.1c0.2-0.2,0.4-0.5,0.6-0.7c0.1,0,0.1,0.1,0.2,0.1c0,0.2,0.1,0.4,0,0.5c-0.5,1.9-0.9,3.7-1.5,5.6
		c-0.3,0.9-0.8,1.7-1.2,2.5c-0.1,0.3-0.2,0.6-0.3,0.9c-0.5,1-1,2-1.5,3.1c-0.5,0.9-0.9,1.9-1.3,2.8c-0.5,1-1,2-1.4,3.1
		c-0.7,1.7-1.4,3.4-2,5c-0.1,0.2-0.1,0.4,0,0.6c0.5,0.8,0.2,1.8,0.4,2.6c0,0.2-0.1,0.4-0.1,0.6c-0.4,0.1-0.8,0.2-1,0.2
		c-0.5,0.6-0.9,1-1.2,1.4c-0.2,0.3-0.4,0.7-0.5,1.1c-0.2,0.6-0.3,1.2-0.4,1.8c-0.1,0-0.1,0-0.2,0c0-0.3,0.1-0.7,0.1-1
		c-0.6,0-0.6,0.3-0.6,0.6c-0.2,0.7-0.3,1.5-0.5,2.2c-0.1,0.2-0.3,0.5-0.5,0.6c-0.9,0.3-1.9,0.6-2.9,0.9c-1-0.5-0.4-1.3-0.1-2.1
		c-0.8,0-0.6-0.9-1.1-1.2c-0.1,0,0-0.3,0-0.4c0.6-0.6,0.7-1.5,1.2-2.3c0.3-0.5,0.5-1.1,0.4-1.8c0-0.2-0.1-0.4-0.1-0.6
		c-0.1-0.3-0.2-0.6-0.4-0.9c-0.2,0.2-0.4,0.4-0.7,0.7c-0.1-0.8,0.8-1.4,0.3-2.2c-0.3,0.1-0.5,0.3-0.7,0.4c0-0.1-0.1-0.1,0-0.2
		c0.6-1,0.2-1.9-0.1-2.8c-0.6-2.1-1.4-4.1-2-6.2c-0.6-2-1.1-4.1-1.6-6.1c-0.1-0.4-0.3-0.8-0.4-1.3c-0.3-1.1-0.6-2.2-0.9-3.3
		c0.7-0.8-0.4-1.7,0.1-2.6C133.8,38.5,133.6,38,133.5,37.4z M137.9,38.6c0,0.4,0,0.7,0.1,1c0.4,1.7,1.5,3.1,2.2,4.6
		c-0.3-1.2-0.5-2.5-0.8-3.7C138.3,40.4,138.7,39.2,137.9,38.6z M137.7,37.9c0-0.2,0.1-0.3,0-0.3c-0.1-0.1-0.2-0.1-0.2-0.2
		C137.5,37.6,137.6,37.7,137.7,37.9z M142.4,52.1c0,0,0.1-0.1,0.1-0.1c-0.1-0.2-0.2-0.3-0.3-0.5c0,0-0.1,0-0.1,0.1
		C142.3,51.8,142.3,52,142.4,52.1z"/>
	<path d="M238,34.2c0.3,0.3,0.5,0.7,0.8,1c1.2,1.1,1.9,2.6,2.6,4c0.1,0.1,0,0.3,0,0.4c-0.7,0-0.7,0-2-0.9c0.2,0.6,0.5,1.1,0.4,1.7
		c0,0.5-0.3,1.1-0.6,1.8c-0.7-0.9-1.3-1.5-1.9-2.2c-0.1-0.1-0.1-0.2-0.2-0.2c-1-0.5-1.6-1.4-2.3-2.4c-1,0.7-1.9,1.4-2.6,2.2
		c-0.3,2-0.6,3.9-0.9,5.8c-0.2,0-0.4,0.1-0.8,0.2c0.1,0.5,0.3,1,0.4,1.7c-0.3,0.7-0.3,1,0.6,2.2c-0.1,0.2-0.3,0.4-0.4,0.6
		c0,0,0.1,0.1,0.1,0.1c0.1-0.1,0.2-0.1,0.4-0.2c0,0.5,1,0.5,0.5,1.3c0.1,0.1,0.2,0.1,0.3,0.2c0.2,0.2,0.4,0.5,0.4,0.9
		c-0.3-0.1-0.5-0.3-0.8-0.4c0,0-0.1,0.1-0.1,0.1c0.2,0.4,0.4,0.7,0.7,1.1c0.3,0.5,0.5,1,0.7,1.5c0.4,0.8,1,1.1,1.7,1.4
		c0,0,0.2-0.2,0.3-0.3l0,0c0.5,0.6,1,0.8,1.8,0.6c0.7-0.2,1.4-0.3,2.1-0.4c0.2,0,0.4,0,0.6,0c0.4,0,0.8,0.1,1.3,0.2
		c0.2-0.5,0.4-0.9,0.7-1.3c0.7,0.4,0.8,0.4,1.2-0.3c0.1-0.2,0.2-0.4,0.4-0.6c0,0,0.1,0,0.2,0c0,0.1,0,0.3,0,0.5c0.1,0,0.2,0,0.3-0.1
		c0.2-0.4,0.5-0.9,0.8-1.5c0,0.5-0.1,0.9-0.1,1.3c0,0.4-0.1,0.8-0.1,1.3c0.3,0.1,0.6,0.2,1,0.3c-0.2,0.6-0.4,1.2-0.6,2
		c0.4-0.3,0.6-0.5,0.9-0.6c0.3,0.1,0.6,0.2,0.9,0.3c0,0.3,0,0.8,0,1.2c0.1-0.1,0.3-0.1,0.4-0.2c0.1,0.7,0.1,0.7-0.3,1.2
		c-0.4,0.4-0.8,0.8-1.2,1.2c-0.6,0.6-0.6,0.6-0.1,1.4c0.1,0.1,0.1,0.2,0.2,0.4c-0.7,0.7-1.5,1.4-2.5,1.7c-1.3,0.5-2.7,1.1-4.2,0.8
		c-0.9-0.1-1.8-0.3-2.7-0.5c-0.5-0.1-0.9-0.4-1.2-0.9c-0.3-0.4-0.6-0.9-1.3-0.8c-0.6,0-2.1-1.2-2.5-1.8c-0.1-0.1-0.1-0.3-0.1-0.4
		c0.3-0.6,0-0.9-0.4-1.3c-0.9-1-1.7-2.1-2.7-3.2c0.4-0.1,0.6-0.2,0.8-0.2c-0.3-0.8-0.5-1.6-0.8-2.5l0,0c0.1,0,0.2,0.1,0.6,0.2
		c-0.3-0.4-0.5-0.7-0.7-1c-0.1-0.1-0.1-0.3-0.2-0.4c-0.1-0.2-0.2-0.5-0.3-0.5c-0.7-0.1-0.7-0.7-0.9-1.1c-0.4-1.3-0.8-2.5-1.1-3.8
		c-0.1-0.5-0.2-1-0.2-1.4c0.1-1.6,0.2-3.1,0.4-4.7c0.1-1.4,0.5-2.7,1.1-3.9c0.4-0.9,0.9-1.7,1.3-2.6c0.6-1.3,1.6-2.1,2.6-3
		c0.6-0.5,1.2-1,2-0.9c0.4,0.1,0.7,0.2,1,0.4c0.5,0.3,0.9,0.5,1.6,0.2c1-0.4,2.3,0.2,2.9,1.1l0,0c-0.4-0.2-0.8-0.4-1.2-0.6
		c-0.7-0.3-1-0.3-1.8,0c0.6,1.1,1.6,1.4,2.7,1.7c-0.3,0.1-0.5,0.2-0.9,0.3C237.2,33.9,237.5,34.2,238,34.2L238,34.2z M231.5,35
		c1-0.4,1.7-1,2.4-1.7c-0.3,0-0.5,0.2-0.7,0.2c-0.3,0.1-0.5,0.1-0.9,0.1C232.1,34,231.8,34.4,231.5,35z"/>
	<path d="M213.7,56.7c0.3-0.5,0.3-1.3-0.1-1.5c-0.8-0.4-0.8-1.1-0.9-1.7c-0.4-2.2-0.7-4.3-1.1-6.5c-0.1-1-0.2-1.9-0.3-2.9
		c0.1,0,0.2,0,0.3,0c0.2,1.1,0.4,2.2,0.5,3.3c0.2,1.1,0.3,2.3,0.5,3.4c0.2,1.1,0.5,2.2,0.8,3.5c0.3-1.4-0.1-2.6-0.3-3.7
		c-0.3-1.5-0.5-3.1-0.8-4.6c-0.2-1-0.4-2-0.5-3c-0.1-0.7-0.2-1.4-0.3-2.1c-0.1-1.1-0.2-2.3-0.4-3.4c0-0.3-0.2-0.7-0.2-1
		c0-0.3,0-0.7,0.2-1c0.7,1.2,0.7,2.5,0.9,4c0.6-1.6-0.1-2.9-0.1-4.3c0-1.3-0.6-2.6-1-4.1c0.3,0.3,0.5,0.5,0.7,0.7
		c0.3-0.6-0.8-1.3,0.3-1.9c0.3,1,0.6,2,0.7,3c0.1,0.9,0.4,1.5,1,2.1c0.6-0.9-0.1-1.8,0.1-2.7c0.6,1.7,1.2,3.5,1.9,5.2
		c0,0.1,0.2,0.3,0.2,0.4c-0.3,1,0.4,1.8,0.7,2.7c0.2,0.7,0.3,1.4,0.4,2.1c0.1,0.4,0.1,0.8,0.3,1.1c0.2,0.3,0.5,0.6,0.8,0.8
		c-0.2-1-0.3-2-0.7-3c-0.5-1.2-0.5-2.6-0.7-3.9c0-0.2,0.2-0.4,0.3-0.7c0.4,1.3,1.1,2.4,1.5,3.7c0.3,1.1,0.5,2.1,0.8,3.2
		c0.1,0.5,0.2,1.1,0.3,1.6c0.4,1.7,0.8,3.4,1.2,5.1c0.3,1.5,0.4,3,0.7,4.5c0.2,1.3,0.4,2.7,0.6,4c0.1,0.5,0.1,0.9-0.5,1.2
		c-0.6,0.3-0.1,0.8,0,1.2c-0.1,0.1-0.3,0.2-0.4,0.3c-0.3,0-0.8-0.6-0.9-1.1c-0.1-0.5-0.1-1-0.2-1.5c0-0.2-0.2-0.5-0.3-0.7
		c-0.1,0-0.2,0-0.3,0c-0.1,0.6-0.1,1.1-0.2,1.7c0,0,0,0.1,0,0.1c0,0.5-0.1,1-0.1,1.6c0.1,0.7-0.8,0.6-0.9,1.1
		c-0.6-0.6-1.1-1.2-1.5-1.7c-0.6,0-1.1,0.1-1.6,0.1C213.8,60.1,213.6,58.4,213.7,56.7L213.7,56.7z"/>
	<path d="M298.1,44.6c0.1,3.1,0.1,6.2,0.2,9.3c0.1,3.4,0.2,6.7,0.3,10.1c0,1-0.1,2.1,0.5,3c-0.3,0-0.5,0-0.8,0.1
		c-0.4-0.4-0.2-1-0.2-1.6c0.1-0.9-0.1-1.9-0.2-2.8c0-1,0-2.1,0-3.1c0-1.5,0-2.9,0-4.4c0-2.2-0.1-4.3-0.1-6.5c0-1.4,0.1-2.8,0.1-4.2
		C298,44.6,298.1,44.6,298.1,44.6z"/>
	<path d="M70.2,62.2c-0.2,0.1-0.4,0.2-0.4,0.4c-0.3,0.7-0.5,1.5-0.7,2.2c-0.1,0.2-0.2,0.5-0.3,0.7c-0.1,0-0.1,0-0.2-0.1
		c0.1-0.3,0.1-0.6,0.2-0.9c0.3-1,0.6-2,0.8-3c0.2-1,0.2-2.1,0.3-3.1c0.2-1.4,0.4-2.7,0.6-4.1c0.7,0.1,0.4,0.7,0.5,1
		c0.1,0.4,0.2,0.7,0.4,1.2c-0.3,0.6-0.5,1.3-0.6,2.2c0,1-0.4,1.9-0.7,2.9C70,61.8,70.1,62,70.2,62.2C70.2,62.2,70.2,62.2,70.2,62.2z
		"/>
	<path d="M124,29.2c-0.3,0-0.4,0.1-0.7,0.1c-0.1,0.3-0.1,0.5-0.2,1c-0.1-0.5-0.1-0.8-0.2-1.1c-0.3,0-0.6,0-0.9,0
		c0.5-1,0.3-1.2-0.3-1.8c0-0.3,0.2-0.7,0-0.9c-0.2-0.3-0.2-0.5,0.1-0.6c0.2-0.1,0.4,0.1,0.6,0.2c0-0.2,0-0.4,0-0.6
		c0.2,0.1,0.3,0.1,0.3,0.2c0.2,0.7,0.4,1.4,0.7,2.1C122.9,28.5,123.8,28.6,124,29.2z"/>
	<path d="M385.7,12.2c-0.1,0.1-0.1,0.3-0.2,0.4c-0.1,0.1-0.2,0.2-0.3,0.4c0.2,0.1,0.3,0.1,0.5,0.2c0.4,0.2,0.4,0.5,0.1,0.7
		c-1.2,0.8-1.9,2-2,3.4c0,0.2-0.2,0.4-0.4,0.7c-0.1-0.2-0.3-0.3-0.3-0.4c0.1-0.7,0.3-1.3,0.5-2c0.3-0.7,0.6-1.4,0.9-2.1
		c0.3-0.6,0.6-1.1,0.9-1.6C385.5,12.1,385.6,12.2,385.7,12.2z"/>
	<path d="M298.9,44.1c-0.1-0.2-0.1-0.4-0.1-0.6c0-1.4,0-2.8,0-4.2c0-0.2-0.1-0.4-0.1-0.7c-0.3,0.2-0.5,0.3-0.7,0.4
		c-0.1-1.5-0.2-3-0.4-4.6c0.8,0.6,0.5,1.3,0.5,1.9c0.1,0.6,0,1.2,0.1,1.9c0.1-0.3,0.1-0.6,0.2-1.1c0.1,0.5,0.1,0.7,0.1,0.9
		c0,0,0.1,0,0.1,0c0-0.3,0.1-0.6,0.1-0.8C299.1,39.4,299.4,41.8,298.9,44.1L298.9,44.1z"/>
	<path d="M72.3,46c0,0.3,0,0.7-0.1,0.9c-0.3,0.5-0.2,0.9,0.4,1.3c-1.1,0.4-0.9,1.3-0.7,1.9c0.2,0.8-0.3,1.5-0.3,2.3
		c0,0.1,0,0.2-0.1,0.2c-0.7,0.1-0.7,0.8-1.2,1.2c0.1-1.6,0.1-1.6,0.5-2c0,0.2,0.1,0.4,0.2,0.8c0.1-0.2,0.2-0.3,0.2-0.4
		c0.2-1.1,0.3-2.2,0.5-3.3c0-0.1-0.1-0.3-0.2-0.4c-0.1-0.2-0.2-0.4-0.4-0.7c0.3,0,0.5,0,0.6,0c0.1-0.6,0.2-1.3,0.3-1.9
		C72.1,46,72.2,46,72.3,46z"/>
	<path d="M296.7,57.2c0.5,1.9,0.2,3.9,0.4,5.9c0.2,0,0.4-0.1,0.6-0.1c0,0.1,0,0.2,0,0.3c-0.2,0.3-0.5,0.5-0.8,0.9
		c-0.1-0.5-0.2-1-0.2-1.4C296.7,60.9,296.7,59,296.7,57.2z"/>
	<path d="M433.2,13.7c2.1-0.5,4.2-1,6.3-0.2c-0.4,0-0.8,0.2-1.2,0.1c-1.3-0.2-2.5,0-3.7,0.2c-0.4,0.1-0.9,0.1-1.3,0.2
		C433.2,13.9,433.2,13.8,433.2,13.7z"/>
	<path d="M298.9,44.1c0.1,0.2,0.3,0.5,0.3,0.7c0,1.8-0.1,3.5-0.2,5.3c0,0.1-0.1,0.2-0.1,0.3C298.6,49.7,298.6,45.6,298.9,44.1
		C298.9,44.1,298.9,44.1,298.9,44.1z"/>
	<path d="M293.7,6c0.5,0.3,0.9,0.6,1.4,0.9c0.2-0.4,0.3-0.8,0.5-1.3c0.8,0.5,0.1,1.5,0.7,2.1c-0.3-0.1-0.5-0.2-0.8-0.3
		c-0.3-0.1-0.6-0.2-0.8-0.3C294.1,7.1,293.8,6.7,293.7,6z"/>
	<path d="M436.4,11c0.4-0.1,0.9-0.1,1.3-0.2c1.2,0,2.5-0.1,3.7,0c0.5,0,1,0.1,1.5,0.6C440.7,10.9,438.5,11.1,436.4,11z"/>
	<path d="M208.8,60.3c-0.1-0.1-0.2-0.3-0.3-0.4c-0.2-0.3-0.3-0.6-0.5-0.9c-0.1-0.2-0.2-0.5-0.3-0.7l0,0c0.1,0.1,0.3,0.1,0.3,0.2
		c0.8,1,1.6,2,2.1,3.2c-0.3-0.1-0.5-0.3-0.8-0.4C209.2,60.9,209,60.6,208.8,60.3z"/>
	<path d="M296.7,51.3c0.2,1.6,0.4,3.2,0.1,4.8C296.6,54.6,296.6,52.9,296.7,51.3z"/>
	<path d="M340.3,76.2c-0.6-1-0.6-2.2-0.8-3.5c0.9,0.5,0.1,1.6,1,1.8C340.4,75.1,340.3,75.7,340.3,76.2L340.3,76.2z"/>
	<path d="M323,0c0.6,0.8,1,1.5,1.4,2.2C323.1,1.9,322.8,1.4,323,0z"/>
	<path d="M336.2,73.5c0.1,1.2,0.2,2.2,0.3,3.3c-0.1,0-0.2,0-0.3,0c-0.4-0.9-0.3-2-0.3-3C335.9,73.8,336.1,73.7,336.2,73.5z"/>
	<path d="M343.9,82.6c0.1-0.2,0.2-0.3,0.3-0.5c0,0.4,0,0.6,0,0.9c-0.2,0-0.3,0-0.3,0c-0.5-0.3-0.9-0.7-1.3-1.1
		c0.2-0.3,0.3-0.5,0.5-0.7c0,0,0.1,0.1,0.1,0.1C343.2,81.9,343.3,82.3,343.9,82.6z"/>
	<path d="M230.6,62.3c-1.1-0.8-1.9-1.6-2.3-2.8c0.4,0.4,0.7,0.9,1.1,1.3C229.7,61.3,230.5,61.4,230.6,62.3z"/>
	<path d="M355.4,31c-0.4-0.2-0.8-0.5-1.4-0.9c0.4-0.2,0.7-0.3,1-0.4C355.2,30.2,355.5,30.7,355.4,31z"/>
	<path d="M396.6,9.6c0-1-0.6-2,0.4-2.9c-0.1,0.5-0.2,0.9-0.2,1.4C396.7,8.7,396.7,9.1,396.6,9.6z"/>
	<path d="M340.2,76.2c0.2,1.4,0.4,2.7,0.5,4.1C340.4,79.8,340.1,77.2,340.2,76.2C340.3,76.2,340.2,76.2,340.2,76.2z"/>
	<path d="M238.2,32c0.8,0.4,1.5,1.1,1.8,2.1C239.4,33.3,238.4,33,238.2,32L238.2,32z"/>
	<path d="M474.4,5.6c0.3-0.1,0.6-0.2,0.9-0.3c0.7,0.7,0.6,1.5,0.6,2.5c-0.1-0.5-0.1-0.9-0.3-1.3C475.3,5.7,475.2,5.7,474.4,5.6z"/>
	<path d="M364.2,43.9c0.8-0.4,1.5-0.5,2.3-0.1C365.7,43.9,365,44.2,364.2,43.9z"/>
	<path d="M410.6,13.9c-0.2-1.1,0-2.1,0.3-3.1c0-0.1,0.2-0.2,0.3-0.3C411,11.7,410.8,12.8,410.6,13.9
		C410.6,13.9,410.6,13.9,410.6,13.9z"/>
	<path d="M329.4,31.9c-0.1-1-0.3-1.9-0.4-2.9c0.5,0.9,0.5,1.9,0.7,2.9C329.6,31.9,329.5,31.9,329.4,31.9z"/>
	<path d="M293.2,7.4c0.7,0.2,1.3,0.6,1.9,1.1C294.4,8.6,293.6,8.1,293.2,7.4z"/>
	<path d="M232.7,50.6c0.7,0.7,1.1,1.5,1.3,2.4C233.3,52.3,233,51.4,232.7,50.6L232.7,50.6z"/>
	<path d="M132,65.2c-0.2-0.7-0.3-1.5-0.5-2.2C132.1,63.7,132.1,64.5,132,65.2z"/>
	<path d="M73.7,34.2c0.1,0.2,0.2,0.5,0.3,0.8c-0.2,0.2-0.4,0.4-0.8,0.7c0.1-0.6,0.1-1,0.2-1.5C73.6,34.2,73.7,34.2,73.7,34.2z"/>
	<path d="M74.9,35.9c-0.1,0.3-0.3,0.5-0.4,0.8c-0.1,0-0.1,0-0.2-0.1c0.1-0.7,0.2-1.3,0.3-2.2C74.7,35.1,74.8,35.5,74.9,35.9
		C74.9,35.9,74.9,35.9,74.9,35.9z"/>
	<path d="M132.5,34.6c0-0.4,0-0.8,0-1.3c0.8,0.4,0.4,0.8,0.3,1.3C132.7,34.6,132.6,34.6,132.5,34.6z"/>
	<path d="M434.3,42.6c-0.6,0.1-1.2,0.1-1.9,0.2c0-0.1,0-0.2,0-0.3c0.6-0.1,1.2-0.1,1.9-0.2C434.3,42.4,434.3,42.5,434.3,42.6z"/>
	<path d="M18.6,60.8c0-0.4-0.5-0.9,0.2-1.3C19,60.1,19,60.1,18.6,60.8z"/>
	<path d="M249.5,24.6c-0.2-0.7-0.3-1.1-0.5-1.7C249.7,23.5,249.7,23.5,249.5,24.6z"/>
	<path d="M227.3,52.6c0,0.4,0,0.8,0.1,1.2c-0.1,0-0.1,0-0.2,0c-0.2-0.4-0.3-0.9-0.5-1.3c0.1,0,0.1-0.1,0.2-0.1
		C227,52.5,227.2,52.6,227.3,52.6C227.3,52.6,227.3,52.6,227.3,52.6z"/>
	<path d="M477.8,5.7c-0.5,0.3-0.7-0.1-1.1-0.5c0.3-0.2,0.5-0.4,0.7-0.6c0.1,0.1,0.1,0.2,0.2,0.2C477.6,5.1,477.7,5.4,477.8,5.7
		L477.8,5.7z"/>
	<path d="M100.1,63.4c-0.1-0.4-0.2-0.8-0.3-1.2C100.4,62.4,100.4,62.4,100.1,63.4z"/>
	<path d="M74.4,31.7c0,0.3-0.1,0.7-0.1,1.1C73.7,32.1,73.7,32.1,74.4,31.7z"/>
	<path d="M94.5,32.4c-0.1-0.2-0.3-0.5-0.2-0.6c0.1-0.4,0.4-0.8,0.6-1.1C95,31.2,94.8,31.8,94.5,32.4C94.5,32.4,94.5,32.4,94.5,32.4z
		"/>
	<path d="M337.7,55c0.1,0.6,0.2,1.2,0.3,1.8c-0.1,0-0.2,0-0.3,0c-0.1-0.6-0.2-1.2-0.3-1.7C337.5,55,337.6,55,337.7,55z"/>
	<path d="M409.3,13.5c0.1-0.7,0.1-1.4,0.2-2.1c0,0,0,0,0.1,0C409.5,12.1,409.4,12.8,409.3,13.5C409.3,13.5,409.3,13.5,409.3,13.5z"
		/>
	<path d="M332.8,47.4c-0.1-0.5-0.2-1.1-0.3-1.6c0.1,0,0.2,0,0.2,0c0.1,0.5,0.1,1.1,0.2,1.6C332.9,47.4,332.8,47.4,332.8,47.4z"/>
	<path d="M398.1,50.3c0.1,0.6,0.1,1.2,0.2,1.9c-0.1,0-0.1,0-0.2,0c-0.1-0.6-0.1-1.2-0.2-1.9C397.9,50.3,398,50.3,398.1,50.3z"/>
	<path d="M232.7,50.6c-0.3-0.6-0.5-1.2-0.8-1.7C232.6,49.3,232.6,49.9,232.7,50.6C232.7,50.6,232.7,50.6,232.7,50.6z"/>
	<path d="M107.5,58.5c-0.3-0.3-0.7-0.5-0.5-1.1C107.5,57.6,107.5,58,107.5,58.5z"/>
	<path d="M391.2,48.5c0,0.4,0.1,0.9,0.1,1.3c-0.1,0-0.2,0-0.2,0c0-0.2,0-0.4,0-0.5c0-0.2-0.1-0.5-0.2-0.7
		C391,48.5,391.1,48.5,391.2,48.5z"/>
	<path d="M299,35.3c0,0.4,0,0.8,0,1.2c-0.1,0-0.2,0-0.2,0c-0.2-0.4-0.1-0.8,0-1.2C298.8,35.3,298.9,35.3,299,35.3z"/>
	<path d="M83.4,8.9c-0.3,0.3-0.6,0.6-1,0.8c-0.1-0.1-0.1-0.1-0.2-0.2c0.3-0.3,0.6-0.6,0.9-0.9C83.2,8.7,83.3,8.8,83.4,8.9z"/>
	<path d="M95.8,27.8c-0.3,0.5-0.6,1-0.9,1.5C95,28,95,28,95.8,27.8C95.8,27.8,95.8,27.8,95.8,27.8z"/>
	<path d="M298,42.8c0-0.4-0.1-0.8-0.1-1.2c0,0,0.1,0,0.1,0c0,0.4,0.1,0.8,0.1,1.3C298,42.8,298,42.8,298,42.8z"/>
	<path d="M297,46.5c0,0.6-0.1,1.1-0.1,1.7C296.6,47.6,296.7,47,297,46.5z"/>
	<path d="M68.4,61.3c0.1-0.6,0.3-1.1,0.4-1.7c0.1,0,0.1,0,0.2,0c-0.1,0.6-0.3,1.2-0.4,1.7C68.5,61.3,68.5,61.3,68.4,61.3z"/>
	<path d="M72.5,31.4c-0.2,0.4-0.3,0.6-0.4,0.9c-0.1-0.3-0.2-0.6-0.3-1C72.1,31.3,72.3,31.4,72.5,31.4z"/>
	<path d="M339.1,66.6c0-0.5-0.1-0.7-0.1-1.1C339.6,65.7,339.6,66,339.1,66.6z"/>
	<path d="M363.3,45.1c0.6,0.1,1.1,0.2,1.7,0.3c0,0,0,0.1,0,0.1c-0.6,0-1.2-0.1-1.7-0.1C363.2,45.2,363.2,45.1,363.3,45.1z"/>
	<path d="M367.4,51.6c0.8,0.3,0.8,0.3,0.2,1C367.6,52.3,367.5,52,367.4,51.6z"/>
	<path d="M243,39.5c-0.2-0.4-0.3-0.8-0.5-1.3c0.1,0,0.1,0,0.2-0.1c0.2,0.4,0.3,0.8,0.5,1.3C243,39.5,243,39.5,243,39.5z"/>
	<path d="M37.9,27.6c0.8,0.4,0.5,0.7,0.3,1.3C38.1,28.4,38,28.1,37.9,27.6z"/>
	<path d="M227.8,52.2c0.1,0.1,0.1,0.3,0.2,0.4c0,0.3,0.1,0.6,0.1,0.9l0,0c-0.1-0.1-0.3-0.3-0.4-0.4c-0.1-0.2-0.3-0.4-0.4-0.5
		c0,0,0,0,0,0C227.3,52.3,227.3,52,227.8,52.2z"/>
	<path d="M227.1,57.8c-0.2-0.3-0.3-0.7-0.5-1c0.1,0,0.1-0.1,0.2-0.1c0.2,0.3,0.4,0.6,0.5,1C227.3,57.7,227.2,57.7,227.1,57.8z"/>
	<path d="M72.5,43.3c0,0.4-0.1,0.8-0.1,1.2c0,0-0.1,0-0.1,0c0-0.4,0-0.8,0-1.2C72.4,43.2,72.5,43.3,72.5,43.3z"/>
	<path d="M99.9,68.2c0,0.3,0,0.6,0.1,1c0,0-0.1,0-0.1,0C99.8,68.8,99.9,68.4,99.9,68.2z"/>
	<path d="M13.8,68.1c0.2-0.3,0.3-0.7,0.6-1.2c0.3,0.8-0.2,0.9-0.4,1.3C13.9,68.2,13.9,68.1,13.8,68.1z"/>
	<path d="M334.4,55c0.4,0.5,0.4,1,0.2,1.5C334.5,56,334.5,55.5,334.4,55L334.4,55z"/>
	<path d="M334.4,55c-0.1-0.5-0.2-1.1-0.2-1.6c0.1,0,0.1,0,0.2,0C334.4,53.9,334.4,54.4,334.4,55C334.4,55,334.4,55,334.4,55z"/>
	<path d="M231.7,46.8c0.1,0.3,0.1,0.6,0.2,0.9C231.5,47.2,231.5,47.2,231.7,46.8z"/>
	<path d="M66.8,64.6c0.2-0.4,0.4-0.8,0.6-1.2c0.1,0,0.1,0.1,0.2,0.1c-0.2,0.4-0.4,0.8-0.6,1.2C67,64.7,66.9,64.7,66.8,64.6z"/>
	<path d="M439.5,44.5c0.3,0,0.7,0,1,0c0,0,0,0.1,0,0.1c-0.3,0-0.7,0.1-1,0.1C439.5,44.6,439.5,44.6,439.5,44.5z"/>
	<path d="M240.2,34.9c0.3,0.3,0.6,0.5,0.9,0.8c0,0.1-0.1,0.1-0.1,0.2c-0.3-0.3-0.6-0.6-0.8-0.8C240.1,35,240.1,35,240.2,34.9z"/>
	<path d="M395.1,9c0-0.4,0.1-0.8,0.1-1.2c0,0,0.1,0,0.1,0C395.2,8.2,395.2,8.6,395.1,9C395.1,9,395.1,9,395.1,9z"/>
	<path d="M429.6,46.2c0.5-0.1,1.1-0.2,1.6-0.2c0,0.1,0,0.2,0,0.2C430.7,46.2,430.1,46.2,429.6,46.2
		C429.6,46.2,429.6,46.2,429.6,46.2z"/>
	<path d="M84.2,50.4c-0.1-0.2-0.2-0.3-0.3-0.5c0,0,0.2-0.2,0.2-0.2c0.1,0.1,0.3,0.3,0.4,0.4C84.4,50.3,84.3,50.4,84.2,50.4z"/>
	<path d="M118.2,36.5c0.1-0.3,0.3-0.5,0.4-0.8c0.1,0,0.1,0,0.2,0.1c0,0.2-0.1,0.3-0.1,0.5c-0.1,0.1-0.2,0.2-0.3,0.4
		C118.3,36.5,118.2,36.5,118.2,36.5z"/>
	<path d="M117,61.5c-0.1-0.3-0.2-0.6-0.3-1.1C117.2,60.8,117.5,61,117,61.5z"/>
	<path d="M296.9,48.7c0,0.3-0.1,0.6-0.1,0.9c-0.1,0-0.1,0-0.2,0c0-0.3,0-0.6,0-0.9C296.7,48.7,296.8,48.7,296.9,48.7z"/>
	<path d="M391.7,50.9c0.1,0.3,0.1,0.7,0.2,1c-0.1,0-0.1,0-0.2,0c-0.1-0.3-0.1-0.7-0.2-1C391.6,50.9,391.6,50.9,391.7,50.9z"/>
	<path d="M386,11.7c0.3-0.2,0.6-0.4,0.9-0.6c0,0.1,0.1,0.1,0.1,0.2c-0.3,0.2-0.6,0.4-0.8,0.7C386.1,11.9,386,11.8,386,11.7z"/>
	<path d="M339.6,65.1c-0.2,0-0.4-0.1-0.5-0.1c0.1-0.2,0.2-0.4,0.3-0.8C339.5,64.6,339.5,64.8,339.6,65.1z"/>
	<path d="M396.7,10.3c0,0.3,0,0.6,0,0.9c0,0-0.1,0-0.1,0c0-0.3-0.1-0.6-0.1-0.9C396.6,10.3,396.7,10.3,396.7,10.3z"/>
	<path d="M397.1,50.4L397.1,50.4c-0.1-0.3-0.1-0.6-0.2-0.9l0,0C397.4,49.6,397.4,50,397.1,50.4z"/>
	<path d="M136,33.1c0.2,0.4,0.3,0.6,0.5,0.9C136.1,33.7,136.1,33.7,136,33.1z"/>
	<path d="M213.7,56.7c-0.7-0.2-0.3-0.7-0.4-1c0.1,0,0.2,0,0.2-0.1C213.6,55.9,213.6,56.3,213.7,56.7
		C213.7,56.7,213.7,56.7,213.7,56.7z"/>
	<path d="M224.6,49.2c0-0.2,0-0.5,0-0.7c0.1,0,0.1,0,0.2,0c0,0.2,0.1,0.5,0.1,0.7C224.8,49.2,224.7,49.2,224.6,49.2z"/>
	<path d="M100.4,59.7c-0.3-0.3-0.4-0.4-0.6-0.6C100.4,59,100.4,59,100.4,59.7z"/>
	<path d="M99.3,39.5c0.1-0.3,0.1-0.5,0.1-0.8c0.1,0.1,0.2,0.1,0.2,0.1C99.7,39,99.8,39.3,99.3,39.5z"/>
	<path d="M330.2,35.1c-0.2,0-0.4-0.1-0.3-0.4c0.1-0.4,0.1-0.7,0.2-1.1l0,0C330.1,34.2,330.1,34.6,330.2,35.1
		C330.2,35.1,330.2,35.1,330.2,35.1z"/>
	<path d="M299,52.1c-0.2-0.5-0.3-0.7-0.4-1.2C299.1,51.2,299.1,51.5,299,52.1z"/>
	<path d="M303.8,18.1c0.5,0,0.5,0.4,0.5,0.7C304.1,18.6,304,18.3,303.8,18.1z"/>
	<path d="M404.8,22.5c0-0.4,0.1-0.7,0.1-1.1c0,0,0.1,0,0.1,0c0,0.4,0,0.7,0,1.1C404.9,22.5,404.9,22.5,404.8,22.5z"/>
	<path d="M155.9,29.4c0.2,0,0.5,0,0.7,0c0,0,0,0.1,0,0.1c-0.2,0.1-0.5,0.1-0.7,0.2C155.9,29.6,155.9,29.5,155.9,29.4z"/>
	<path d="M150.5,33.2c0-0.4,0-0.6-0.1-0.9C150.9,32.5,150.9,32.8,150.5,33.2z"/>
	<path d="M150.7,30.7c-0.1,0.3-0.2,0.5-0.2,0.8c-0.1,0-0.1,0-0.2-0.1c0.1-0.3,0.1-0.5,0.2-0.8C150.6,30.7,150.6,30.7,150.7,30.7z"/>
	<path d="M298.8,32.9c0,0.3,0,0.6-0.1,0.9c0,0-0.1,0-0.1,0C298.7,33.5,298.7,33.2,298.8,32.9C298.8,32.9,298.8,32.9,298.8,32.9z"/>
	<path d="M299,15.7c-0.1-0.2-0.2-0.4-0.4-0.5c0,0,0.1-0.1,0.1-0.1c0.1,0.2,0.2,0.4,0.4,0.5C299.1,15.6,299,15.7,299,15.7z"/>
	<path d="M431.5,28.3c-0.6,0.3-0.6,0.3-0.9-0.1C431,28.3,431.3,28.3,431.5,28.3C431.5,28.3,431.5,28.3,431.5,28.3z"/>
	<path d="M81.8,11.5c-0.1,0-0.1,0.1-0.2,0.1c-0.1-0.1-0.2-0.2-0.3-0.3c0.1-0.1,0.2-0.2,0.3-0.2C81.6,11.3,81.7,11.4,81.8,11.5z"/>
	<path d="M25,20c-0.1,0.3-0.2,0.7-0.3,1.2C24.4,20.6,24.8,20.3,25,20z"/>
	<path d="M385.3,15.6c0,0.2,0,0.4,0,0.6c-0.1,0-0.2,0-0.2,0c0-0.2,0-0.4,0-0.6C385.1,15.6,385.2,15.6,385.3,15.6z"/>
	<path d="M19.6,56.4c-0.4,0.1-0.8,0.2-0.9-0.6C19,56,19.3,56.2,19.6,56.4C19.6,56.4,19.6,56.4,19.6,56.4z"/>
	<path d="M364.4,53.9c0-0.2,0-0.5-0.1-0.7c0.1,0,0.1,0,0.2,0c0,0.3,0.1,0.5,0.1,0.8C364.6,53.9,364.5,53.9,364.4,53.9z"/>
	<path d="M371.2,23.2c-0.2-0.2-0.3-0.4-0.5-0.6c0.1,0,0.2-0.1,0.2-0.1C371.2,22.6,371.3,22.9,371.2,23.2
		C371.1,23.2,371.2,23.2,371.2,23.2z"/>
	<path d="M67.9,62.7c0.1-0.3,0.2-0.5,0.3-0.8c0.1,0,0.1,0,0.2,0.1c-0.1,0.3-0.2,0.5-0.3,0.8C68,62.7,68,62.7,67.9,62.7z"/>
	<path d="M220.8,43.5c0-0.2-0.1-0.5-0.1-0.7c0,0,0.1,0,0.1,0c0.1,0.2,0.1,0.4,0.2,0.7C221,43.5,220.9,43.5,220.8,43.5z"/>
	<path d="M439.5,16c0.2-0.5,0.6-0.4,1-0.2C440.1,15.9,439.8,15.9,439.5,16L439.5,16z"/>
	<path d="M330.1,33.7c-0.4-0.2-0.4-0.6-0.2-1C329.9,33,330,33.3,330.1,33.7L330.1,33.7z"/>
	<path d="M72.7,39.3c-0.1-0.2-0.1-0.5-0.2-0.7c0.1,0,0.1,0,0.2,0c0.1,0.2,0.1,0.5,0.2,0.7C72.8,39.2,72.7,39.2,72.7,39.3z"/>
	<path d="M71.9,55c0.1-0.2,0.2-0.4,0.3-0.7c0.1,0,0.1,0,0.2,0.1c-0.1,0.2-0.2,0.5-0.2,0.7C72,55.1,72,55,71.9,55z"/>
	<path d="M238,34.3c0.5-0.2,0.9-0.2,1.4,0.3C238.9,34.4,238.4,34.3,238,34.3C238,34.2,238,34.3,238,34.3z"/>
	<path d="M157.6,57.3c-0.3,0.1-0.6,0.1-0.9,0.2c0,0,0-0.1,0-0.1c0.3-0.1,0.6-0.2,0.9-0.2C157.6,57.2,157.6,57.3,157.6,57.3z"/>
	<path d="M338.7,62.2c0.1,0.2,0.2,0.4,0.3,0.6c-0.1,0-0.1,0.1-0.2,0.1c-0.1-0.2-0.2-0.4-0.3-0.6C338.5,62.3,338.6,62.2,338.7,62.2z"
		/>
	<path d="M167.3,24.8c0.2,0,0.5,0,0.8,0C167.8,25.3,167.6,25.2,167.3,24.8z"/>
	<path d="M74.8,26.9c0.2,0.4,0.2,0.8-0.1,1.2C74.3,27.6,74.7,27.3,74.8,26.9C74.8,26.9,74.8,26.9,74.8,26.9z"/>
	<path d="M92,38.9c-0.1-0.1-0.3-0.1-0.4-0.2c0-0.1,0.1-0.2,0.1-0.2c0.1,0.1,0.3,0.2,0.4,0.2C92.1,38.8,92.1,38.9,92,38.9z"/>
	<path d="M32,19.6c-0.1,0.1-0.2,0.2-0.3,0.3c-0.1-0.1-0.2-0.2-0.2-0.3c0-0.1,0.2-0.2,0.3-0.2C31.8,19.4,31.9,19.5,32,19.6z"/>
	<path d="M84.4,48.9c0.1-0.2,0.2-0.4,0.4-0.5c0.1,0,0.1,0.1,0.2,0.1c-0.1,0.2-0.2,0.4-0.3,0.6C84.5,49,84.5,48.9,84.4,48.9z"/>
	<path d="M398.8,49.1c0,0.3,0,0.6-0.1,0.8c0,0,0,0-0.1,0c0-0.3,0-0.6,0-0.8C398.7,49.1,398.8,49.1,398.8,49.1z"/>
	<path d="M412.4,18.9c0-0.3,0-0.5,0.1-0.8c0,0,0.1,0,0.1,0C412.6,18.4,412.5,18.6,412.4,18.9C412.5,18.9,412.5,18.9,412.4,18.9z"/>
	<path d="M477.8,5.6c0,0.4-0.3,0.6-0.5,0.9c0,0,0,0,0,0C476.9,6,477.4,5.9,477.8,5.6C477.8,5.7,477.8,5.6,477.8,5.6z"/>
	<path d="M41,22.7c0,0.3,0,0.6,0,0.8C40.8,23.3,40.4,23.1,41,22.7z"/>
	<path d="M479.7,6.7c-0.3-0.1-0.7,0.3-0.7-0.4C479.3,6.4,479.5,6.5,479.7,6.7C479.7,6.6,479.7,6.7,479.7,6.7z"/>
	<path d="M34.5,21.1c-0.1,0.2-0.1,0.4-0.2,0.6c-0.1,0-0.2,0-0.2-0.1c0-0.2,0.1-0.4,0.1-0.6C34.3,21,34.4,21.1,34.5,21.1z"/>
	<path d="M387.3,14.6c0,0.3-0.1,0.5-0.1,0.8c0,0-0.1,0-0.1,0c0-0.3,0-0.5,0.1-0.8C387.1,14.6,387.2,14.6,387.3,14.6z"/>
	<path d="M476.4,5.8c0.2,0.1,0.3,0.2,0.5,0.3c0,0.1-0.1,0.1-0.1,0.2c-0.2-0.1-0.4-0.2-0.6-0.3C476.3,5.9,476.3,5.8,476.4,5.8z"/>
	<path d="M391.8,15.1c-0.2,0.1-0.4,0.2-0.5,0.2c0,0,0-0.1-0.1-0.1c0.2-0.1,0.4-0.2,0.5-0.3C391.7,15,391.7,15.1,391.8,15.1z"/>
	<path d="M296.4,8.9c0.1,0.2,0.1,0.5,0.2,0.7c-0.1,0-0.2,0-0.2,0.1c-0.1-0.2-0.1-0.5-0.2-0.7C296.2,9,296.3,9,296.4,8.9z"/>
	<path d="M435.7,45.5c0.2,0,0.4-0.1,0.5-0.1c0,0,0,0.1,0,0.1c-0.2,0-0.4,0.1-0.5,0.1C435.7,45.6,435.7,45.6,435.7,45.5z"/>
	<path d="M251.8,25.9c-0.4-0.1-0.5-0.4-0.5-0.8C251.8,25.2,251.7,25.6,251.8,25.9L251.8,25.9z"/>
	<path d="M238.8,54.8c0.2-0.1,0.3-0.1,0.5-0.2c0,0,0,0.1,0.1,0.1c-0.1,0-0.1,0.1-0.2,0.1c-0.1,0-0.2,0-0.3,0.1
		C238.8,54.9,238.8,54.9,238.8,54.8z"/>
	<path d="M235.3,55.6c-0.2-0.2-0.5-0.4-0.7-0.6c0.1-0.1,0.1-0.1,0.2-0.2C235.1,55,235.3,55.2,235.3,55.6
		C235.3,55.6,235.3,55.6,235.3,55.6z"/>
	<path d="M335.4,62.9c0-0.2,0.1-0.4,0.1-0.7c0,0,0.1,0,0.1,0c0,0.2,0,0.4-0.1,0.7C335.5,62.9,335.4,62.9,335.4,62.9z"/>
	<path d="M438.4,45c-0.2,0.1-0.4,0.1-0.7,0.2c0,0,0-0.1,0-0.1c0.2-0.1,0.4-0.2,0.6-0.2C438.3,44.9,438.4,45,438.4,45z"/>
	<path d="M439.7,27.6c0.4-0.1,0.7-0.2,1.1-0.3c0,0.1,0,0.2,0,0.3C440.5,27.6,440.1,27.6,439.7,27.6
		C439.7,27.6,439.7,27.6,439.7,27.6z"/>
	<path d="M443.3,16.4c0.3,0,0.5,0,0.8,0c0,0,0,0.1,0,0.1C443.8,16.5,443.5,16.5,443.3,16.4C443.3,16.5,443.3,16.4,443.3,16.4z"/>
	<path d="M352.5,25.9c-0.1-0.2-0.2-0.3-0.2-0.4c0-0.1,0.1-0.2,0.2-0.2c0.1,0.1,0.2,0.1,0.3,0.2C352.7,25.6,352.6,25.7,352.5,25.9z"
		/>
	<path d="M353.3,26.3c-0.1-0.1-0.2-0.2-0.2-0.3c0-0.1,0.1-0.2,0.2-0.3c0.1,0.2,0.1,0.4,0.1,0.5C353.4,26.2,353.4,26.2,353.3,26.3z"
		/>
	<path d="M100.2,65.8c-0.2,0.2-0.2,0.3-0.3,0.4c0-0.1,0-0.2,0-0.3C99.9,65.9,100,65.9,100.2,65.8z"/>
	<path d="M125.3,30.1c-0.1,0.3-0.1,0.6-0.2,1C124.8,30.6,125.1,30.4,125.3,30.1z"/>
	<path d="M358.8,36.6c-0.1-0.2-0.2-0.4-0.4-0.6c0,0,0.1-0.1,0.1-0.1c0.1,0.2,0.3,0.4,0.4,0.5C358.9,36.5,358.8,36.5,358.8,36.6z"/>
	<path d="M39,29.6c-0.2,0-0.4,0-0.8,0.1C38.5,29.2,38.7,29.5,39,29.6C39,29.7,39,29.6,39,29.6z"/>
	<path d="M109.4,56.7c0-0.1,0-0.3,0-0.4c0,0,0.1,0,0.2,0c0,0.2,0,0.3,0,0.5C109.6,56.7,109.5,56.7,109.4,56.7z"/>
	<path d="M237.4,54.7c0.2,0,0.4,0,0.6,0.1c0,0,0,0.1,0,0.1c-0.2,0-0.4,0-0.6,0C237.4,54.8,237.4,54.8,237.4,54.7z"/>
	<path d="M439.5,15.9c-0.3,0-0.5,0-0.9,0.1C439.1,15.7,439.1,15.7,439.5,15.9C439.5,16,439.5,15.9,439.5,15.9z"/>
	<path d="M26.9,68.2c0,0.1,0,0.2,0,0.3c0,0.1-0.1,0.2-0.1,0.4c0,0,0-0.1,0-0.1c0-0.2,0-0.3,0-0.5C26.8,68.2,26.8,68.2,26.9,68.2z"/>
	<path d="M99.6,71.2c-0.2-0.1-0.3-0.2-0.5-0.3c0-0.1,0.1-0.1,0.1-0.2c0.2,0.1,0.3,0.2,0.5,0.3C99.7,71.1,99.6,71.2,99.6,71.2z"/>
	<path d="M434.6,25c0.2-0.1,0.3-0.1,0.5-0.2c0,0,0,0.1,0,0.1C434.9,25,434.8,25,434.6,25C434.6,25.1,434.6,25,434.6,25z"/>
	<path d="M432.2,45.9c0.2,0,0.4,0,0.7,0.1c0,0,0,0.1,0,0.1c-0.2,0-0.4,0-0.7-0.1C432.2,46,432.2,45.9,432.2,45.9z"/>
	<path d="M431.8,25.9c0.3-0.1,0.6-0.2,0.8-0.3C432.5,26,432.2,26.1,431.8,25.9C431.8,25.9,431.8,25.9,431.8,25.9z"/>
	<path d="M374.4,26.2c0.1,0.1,0.3,0.3,0.4,0.4c0,0-0.1,0.1-0.1,0.1c-0.1-0.1-0.3-0.2-0.4-0.4C374.3,26.3,374.4,26.2,374.4,26.2z"/>
	<path d="M97.2,23c0.1-0.1,0.1-0.3,0.2-0.4c0,0,0.1,0.1,0.1,0.1c-0.1,0.1-0.1,0.3-0.2,0.4C97.4,23.1,97.3,23.1,97.2,23z"/>
	<path d="M395.2,10.5c0-0.2,0-0.4,0-0.6c0,0,0,0,0,0C395.3,10.1,395.3,10.3,395.2,10.5C395.2,10.5,395.2,10.5,395.2,10.5z"/>
	<path d="M155.4,29.7c-0.1,0.1-0.3,0.3-0.4,0.4c0-0.1-0.1-0.1-0.1-0.2c0.2-0.1,0.3-0.3,0.5-0.4C155.3,29.6,155.3,29.6,155.4,29.7z"
		/>
	<path d="M161.5,55.7c0-0.1-0.1-0.3-0.1-0.4c0.1,0,0.1,0,0.2,0c0,0.1,0.1,0.3,0.1,0.4C161.6,55.6,161.5,55.7,161.5,55.7z"/>
	<path d="M72.8,45.2c0-0.2,0-0.5-0.1-0.7c0.1,0,0.1,0,0.2,0c0,0.2,0.1,0.5,0.1,0.7C73,45.1,72.9,45.1,72.8,45.2z"/>
	<path d="M337.1,62.6c0-0.2,0-0.4,0-0.6c0,0,0.1,0,0.1,0c0,0.2,0,0.4,0,0.6C337.2,62.6,337.2,62.6,337.1,62.6z"/>
	<path d="M210.1,34.6c0-0.1-0.1-0.3-0.1-0.4c0.1,0.1,0.2,0.1,0.3,0.2c0,0,0,0.1,0,0.2C210.2,34.5,210.2,34.5,210.1,34.6z"/>
	<path d="M214.2,30c0-0.1-0.1-0.3-0.1-0.4c0,0,0.1,0,0.1,0C214.2,29.7,214.3,29.8,214.2,30C214.3,30,214.3,30,214.2,30z"/>
	<path d="M364.5,51.7c0-0.2-0.1-0.4,0-0.5c0-0.1,0.1-0.1,0.2-0.1c0,0.1,0.1,0.2,0.1,0.3C364.7,51.5,364.6,51.5,364.5,51.7z"/>
	<path d="M328.8,27.8c0-0.2,0-0.5,0-0.7c0.1,0,0.1,0,0.2,0c0,0.2,0,0.5,0,0.7C329,27.7,328.9,27.8,328.8,27.8z"/>
	<path d="M37.2,43.9c0.1-0.4-1-0.6-0.3-1.2C37,43.2,37.1,43.6,37.2,43.9z"/>
	<path d="M293.7,33.7c0,0.2-0.1,0.3-0.1,0.5c-0.1,0-0.1,0-0.2,0c0-0.2,0-0.3,0-0.5C293.5,33.6,293.6,33.7,293.7,33.7z"/>
</g>
</svg>
