<?xml version="1.0" encoding="utf-8"?>
<!-- Generator: Adobe Illustrator 18.1.1, SVG Export Plug-In . SVG Version: 6.00 Build 0)  -->
<svg version="1.1" id="Layer_1" xmlns="http://www.w3.org/2000/svg" xmlns:xlink="http://www.w3.org/1999/xlink" x="0px" y="0px"
	 viewBox="0 0 521.5 94.7" enable-background="new 0 0 521.5 94.7" xml:space="preserve">
<g>
	<g>
		<path fill="#CF0A2C" d="M173.2,81c-1.2-0.8-2.6-0.8-3.9-0.5c-1.2,0.3-2,1.3-2.6,2.5c-0.2,0.4-0.2,0.9,0.1,1.2
			c0.5,0.5,1.1,1,1.6,1.5c0.2,0.2,0.6,0.3,0.9,0.3c1.1,0,2.2-0.1,3.3-0.6c1.5-0.7,1.9-2.3,1-3.9C173.5,81.3,173.3,81.1,173.2,81
			c-0.1,0.2-0.1,0.6-0.2,0.6c-0.5,0.2-0.7,0.7-0.8,1.1c0,0-0.3,0.1-0.3,0c-0.6-1.2-0.3-1.6,0.7-1.8C172.7,81,173,81,173.2,81z"/>
		<path fill="#CF0A2C" d="M145.9,86c-0.5-0.1-0.9-0.2-1.3-0.4c-0.7-0.3-1-1.2-0.7-1.9c0.3-0.7,0.6-1.4,1-2c0.4-0.7,1.1-1.2,1.9-1.5
			c0.9-0.3,1.9,0.2,2,1.1c0.1,0.6,0.3,1.2,0.8,1.5c0.7,0.3,0.6,0.9,0.6,1.5c-0.1,1.1-0.5,1.6-1.4,1.7c-0.5,0.1-0.9,0.1-0.8,0.1
			C146.9,86,146.4,86.1,145.9,86z M145.7,83c0.1,0.1,0.2,0.2,0.3,0.2c0,0,0.1-0.1,0.1-0.1c0-0.1-0.1-0.2-0.1-0.3
			C145.9,82.8,145.8,82.9,145.7,83z"/>
		<path fill="#CF0A2C" d="M100.2,86c-0.9-0.1-1.7-0.6-2-1.6c-0.1-0.2-0.2-0.5-0.3-0.7c-0.3-0.9-0.2-1.7,0.3-2.5
			c0.6-1.1,1.5-1.7,2.6-2c0.1,0,0.3,0,0.5,0c1,0.5,1.9,1.3,2.1,2.6c0.1,0.8,0.2,1.5,0.3,2.3c0.1,0.8-0.2,1.4-0.9,1.6
			c-0.5,0.2-1.1,0.3-1.4,0.3C100.8,86,100.5,86,100.2,86z M98.9,82.7c0,0.2,0.1,0.4,0.2,0.4c0.2,0.1,0.5,0.2,0.6,0.1
			c0.3-0.1,0.6-0.3,0.8-0.6c0.1-0.2,0.2-0.5,0.2-0.7c-0.1-0.2-0.3-0.3-0.5-0.5c-0.1,0-0.2,0-0.2,0C99.3,81.6,98.9,82,98.9,82.7z"/>
		<path fill="#CF0A2C" d="M126,86.7c-0.9-0.2-1.9-0.3-2.8-0.5c-0.5-0.1-1-0.4-1.4-0.9c-0.3-0.3-0.5-0.7-0.4-1.2
			c0.2-1.3,0.5-2.5,1.4-3.5c0.4-0.4,0.8-0.5,1.3-0.2c1.3,0.9,2.3,2.1,3.4,3.1c0.6,0.5,0.6,1.1,0.6,1.8c-0.1,0.7-0.5,1.1-1.1,1.1
			c-0.3,0-0.6,0-0.9,0C126,86.6,126,86.6,126,86.7z M123.1,82.2c0.1,0.1,0.3,0.2,0.4,0.2c0.2,0,0.4-0.2,0.4-0.5
			c0-0.1-0.2-0.2-0.4-0.3C123.3,81.8,123.2,82,123.1,82.2z M127.2,85.2l0.1-0.1l-0.1,0L127.2,85.2z"/>
		<path fill="#CF0A2C" d="M82.8,81.1c-0.4,0-0.8,0.1-1.2,0.1c-0.4-0.1-0.7-0.3-1.1-0.4c-0.9-0.3-1.7-0.1-2.3,0.8
			c-0.3,0.5-0.6,1-0.7,1.6c-0.3,1,0,1.8,0.6,2.6c0.2,0.2,0.4,0.3,0.6,0.3c0.5,0.1,1.1,0.1,1.6,0c2.9-0.5,3.5-0.5,2.7-4.3
			C83.1,81.6,82.9,81.3,82.8,81.1z"/>
		<path fill="#CF0A2C" d="M61.4,83.3c0.1,1.1-0.6,2.3-1.6,2.6c-1.1,0.3-2.2,0.2-3.2-0.4c-0.8-0.6-1.1-1.7-0.7-2.7
			c0.2-0.5,0.5-1.1,0.7-1.6c0.3-0.5,0.7-0.9,1.3-1c0.5-0.1,0.9-0.2,1.4-0.2c1.1,0,1.8,0.7,1.9,1.8c0,0.3,0,0.7,0,0.8
			C61.3,83,61.4,83.1,61.4,83.3z M59.6,83.3c-0.3,0-0.6,0.2-0.8,0.4c-0.1,0.1-0.1,0.3-0.1,0.4c0.1,0.3,0.4,0.5,0.7,0.4
			c0.4-0.1,0.7-0.4,0.6-1C59.9,83.5,59.7,83.2,59.6,83.3z"/>
		<path fill="#CF0A2C" d="M198.6,86c0.1,0.5-0.4,1.1-0.8,1.1c-1.1,0-2.2-0.1-3.3-0.2c-0.4,0-0.7-0.3-1.1-0.5
			c-0.2-0.2-0.5-0.5-0.6-0.8c-0.3-0.9-0.3-1.9,0.3-2.7c0.5-0.8,1.2-1.3,2.1-1.6c0.5-0.2,0.9-0.2,1.3,0.2c0.5,0.4,1,0.9,1.5,1.3
			C198.2,83.8,198.5,84.9,198.6,86z M195.3,84.4c0,0,0.2,0,0.2-0.1c0.1-0.1,0.2-0.3,0.2-0.4c0-0.1-0.1-0.4-0.2-0.4
			c-0.1-0.1-0.3,0-0.4,0.1c-0.1,0.1-0.1,0.3-0.2,0.4C195.1,84.2,195.2,84.3,195.3,84.4z M196.4,85.1c-0.1,0.1,0,0.3-0.1,0.4
			c0.1,0,0.3,0,0.4,0c0.1-0.1,0.2-0.2,0.3-0.4c0-0.1,0-0.2,0-0.2c0,0-0.1-0.1-0.2-0.1C196.6,85,196.5,85,196.4,85.1z"/>
		<path fill="#CF0A2C" d="M102.9,83c0.1-0.1,0.1-0.2,0.2-0.3c0,0-0.1-0.1-0.1-0.2c-0.1,0.1-0.1,0.2-0.2,0.3
			C102.8,82.9,102.8,83,102.9,83z"/>
		<path fill="#CF0A2C" d="M221.8,85c0,0.4,0.1,0.8,0.1,1.3c0,0.3-0.3,0.7-0.5,0.7c-0.9,0-1.9,0.1-2.8,0c-0.6,0-1-0.4-1.4-0.9
			c-0.4-0.5-0.5-1.1-0.3-1.7c0.3-0.9,0.8-1.7,1.7-2.1c0.5-0.2,1-0.5,1.5-0.7c0.7-0.3,1.5,0.2,1.6,1C221.8,83.5,221.8,84.3,221.8,85
			C221.9,85,221.8,85,221.8,85z M219.6,84.7l0.2,0l-0.1-0.2L219.6,84.7z"/>
		<path fill="#CF0A2C" d="M243.2,82.7c0.1,0.7,0.3,1.1,1,1.3c0.1,0,0.3,0.4,0.2,0.6c-0.2,1.2-1.1,1.8-2.1,2.3
			c-0.2,0.1-0.5,0.1-0.7,0c-0.5-0.2-1-0.4-1.5-0.6c-0.2-0.1-0.4-0.3-0.5-0.5c-1-2.1-0.8-2.9,0.5-4.3c0.1-0.1,0.2-0.2,0.4-0.3
			c0.3-0.2,0.6-0.3,0.9-0.2c0.5,0.3,1,0.5,1.6,0.9C243.1,82.2,243.2,82.5,243.2,82.7z M240.9,84.1c0.1,0.1,0.3,0,0.4-0.1
			c0.1-0.2,0.2-0.4,0.3-0.7c0-0.1-0.1-0.4-0.2-0.4c-0.1,0-0.3,0-0.4,0.1c-0.1,0.2-0.2,0.4-0.3,0.6C240.7,83.8,240.8,84,240.9,84.1z"
			/>
		<path fill="#CF0A2C" d="M35.8,84.6c-0.2,0-0.3-0.1-0.5-0.1c-0.2,0-0.4,0.4-0.3,0.6c0.2,0.3,0.4,0.6,0.6,0.7
			c0.3,0.2,0.8,0.2,1.1,0.2c1.8,0.1,2.4-0.5,2.5-2.5c0-0.3-0.1-0.7-0.3-0.9c-0.3-0.4-0.6-0.8-1-1.1c-0.2-0.2-0.4-0.3-0.6-0.1
			c-0.2,0.2-0.3,0.7-0.2,0.9c0.2,0.3,0.4,0.5,0.6,0.8c0.1,0.2,0,0.7-0.2,0.9C37,84.6,36.7,84.7,35.8,84.6z"/>
	</g>
	<g>
		<path fill="#CF0A2C" d="M328.4,87c1.2,0.8,2.6,0.8,3.9,0.5c1.2-0.3,2-1.3,2.6-2.5c0.2-0.4,0.2-0.9-0.1-1.2c-0.5-0.5-1.1-1-1.6-1.5
			c-0.2-0.2-0.6-0.3-0.9-0.3c-1.1,0-2.2,0.1-3.3,0.6c-1.5,0.7-1.9,2.3-1,3.9C328.1,86.7,328.3,86.8,328.4,87
			c0.1-0.2,0.1-0.6,0.2-0.6c0.5-0.2,0.7-0.7,0.8-1.1c0,0,0.3-0.1,0.3,0c0.6,1.2,0.3,1.6-0.7,1.8C328.9,87,328.7,87,328.4,87z"/>
		<path fill="#CF0A2C" d="M355.7,82c0.5,0.1,0.9,0.2,1.3,0.4c0.7,0.3,1,1.2,0.7,1.9c-0.3,0.7-0.6,1.4-1,2c-0.4,0.7-1.1,1.2-1.9,1.5
			c-0.9,0.3-1.9-0.2-2-1.1c-0.1-0.6-0.3-1.2-0.8-1.5c-0.7-0.3-0.6-0.9-0.6-1.5c0.1-1.1,0.5-1.6,1.4-1.7c0.5-0.1,0.9-0.1,0.8-0.1
			C354.7,82,355.2,81.9,355.7,82z M355.9,84.9c-0.1-0.1-0.2-0.2-0.3-0.2c0,0-0.1,0.1-0.1,0.1c0,0.1,0.1,0.2,0.1,0.3
			C355.8,85.1,355.8,85,355.9,84.9z"/>
		<path fill="#CF0A2C" d="M401.4,82c0.9,0.1,1.7,0.6,2,1.6c0.1,0.2,0.2,0.5,0.3,0.7c0.3,0.9,0.2,1.7-0.3,2.5c-0.6,1.1-1.5,1.7-2.6,2
			c-0.1,0-0.3,0-0.5,0c-1-0.5-1.9-1.3-2.1-2.6c-0.1-0.8-0.2-1.5-0.3-2.3c-0.1-0.8,0.2-1.4,0.9-1.6c0.5-0.2,1.1-0.3,1.4-0.3
			C400.8,82,401.1,82,401.4,82z M402.7,85.2c0-0.2-0.1-0.4-0.2-0.4c-0.2-0.1-0.5-0.2-0.6-0.1c-0.3,0.1-0.6,0.3-0.8,0.6
			c-0.1,0.2-0.2,0.5-0.2,0.7c0.1,0.2,0.3,0.3,0.5,0.5c0.1,0,0.2,0,0.2,0C402.3,86.3,402.7,85.9,402.7,85.2z"/>
		<path fill="#CF0A2C" d="M375.6,81.3c0.9,0.2,1.9,0.3,2.8,0.5c0.5,0.1,1,0.4,1.4,0.9c0.3,0.3,0.5,0.7,0.4,1.2
			c-0.2,1.3-0.5,2.5-1.4,3.5c-0.4,0.4-0.8,0.5-1.3,0.2c-1.3-0.9-2.3-2.1-3.4-3.1c-0.6-0.5-0.6-1.1-0.6-1.8c0.1-0.7,0.5-1.1,1.1-1.1
			c0.3,0,0.6,0,0.9,0C375.6,81.4,375.6,81.3,375.6,81.3z M378.5,85.8c-0.1-0.1-0.3-0.2-0.4-0.2c-0.2,0-0.4,0.2-0.4,0.5
			c0,0.1,0.2,0.2,0.4,0.3C378.3,86.2,378.4,86,378.5,85.8z M374.4,82.8l-0.1,0.1l0.1,0L374.4,82.8z"/>
		<path fill="#CF0A2C" d="M485.3,88.3c-1-0.2-1.5-0.9-1.7-1.9c-0.2-1-0.2-2.1,0.7-2.8c0.1-0.1,0.1-0.3,0.2-0.5
			c-0.1-0.3-0.5-0.6-0.4-0.9c0.1-0.5,0.6-0.5,1-0.5c0.8,0,1.6,0,2.4,0c0.9,0.1,1.6,0.9,1.7,1.9c0.1,1.1,0,2.1-1.1,2.6
			c-0.1,0.1-0.3,0.2-0.4,0.3c-0.6,0.4-0.5,1-0.4,1.9C486.4,88.4,485.8,88.5,485.3,88.3z M487.3,85.2c-0.1,0.1-0.2,0.2-0.3,0.3
			c0,0,0.1,0.1,0.1,0.2c0.1-0.1,0.2-0.2,0.3-0.3C487.4,85.4,487.3,85.3,487.3,85.2z"/>
		<path fill="#CF0A2C" d="M418.8,86.8c0.4,0,0.8-0.1,1.2-0.1c0.4,0.1,0.7,0.3,1.1,0.4c0.9,0.3,1.7,0.1,2.3-0.8
			c0.3-0.5,0.6-1,0.7-1.6c0.3-1,0-1.8-0.6-2.6c-0.2-0.2-0.4-0.3-0.6-0.3c-0.5-0.1-1.1-0.1-1.6,0c-2.9,0.5-3.5,0.5-2.7,4.3
			C418.5,86.4,418.7,86.6,418.8,86.8z"/>
		<path fill="#CF0A2C" d="M440.2,84.7c-0.1-1.1,0.6-2.3,1.6-2.6c1.1-0.3,2.2-0.2,3.2,0.4c0.8,0.6,1.1,1.7,0.7,2.7
			c-0.2,0.5-0.5,1.1-0.7,1.6c-0.3,0.5-0.7,0.9-1.3,1c-0.5,0.1-0.9,0.2-1.4,0.2c-1.1,0-1.8-0.7-1.9-1.8c0-0.3,0-0.7,0-0.8
			C440.3,85,440.2,84.8,440.2,84.7z M442.1,84.7c0.3,0,0.6-0.2,0.8-0.4c0.1-0.1,0.1-0.3,0.1-0.4c-0.1-0.3-0.4-0.5-0.7-0.4
			c-0.4,0.1-0.7,0.4-0.6,1C441.7,84.5,441.9,84.7,442.1,84.7z"/>
		<path fill="#CF0A2C" d="M509.7,87.7c-1.2,2.6-2.3,2.8-4.4,1c-0.4-0.3-0.6-0.8-0.7-1.3c-0.2-1.6,0.2-2.9,1.3-3.9
			c0.8-0.7,2.2-0.8,2.9-0.2c0.8,0.7,1.2,1.6,1.3,2.9C510,86.5,509.9,87.2,509.7,87.7z M507.1,87.3c-0.2,0.1-0.3,0.4-0.1,0.7
			c0.2,0.3,0.6,0.5,0.8,0.3c0.2-0.2,0.3-0.4,0.4-0.6c0.1-0.2,0-0.5,0-0.8c0.4-0.1,0.8-0.2,0.8-0.7c0-0.2,0-0.5-0.1-0.7
			c0-0.1-0.1-0.2-0.2-0.2c-0.1,0-0.4,0.1-0.4,0.2c-0.1,0.5-0.1,1-0.2,1.4C507.8,87.1,507.4,87.2,507.1,87.3z"/>
		<path fill="#CF0A2C" d="M303,82c-0.1-0.5,0.4-1.1,0.8-1.1c1.1,0,2.2,0.1,3.3,0.2c0.4,0,0.7,0.3,1.1,0.5c0.2,0.2,0.5,0.5,0.6,0.8
			c0.3,0.9,0.3,1.9-0.3,2.7c-0.5,0.8-1.2,1.3-2.1,1.6c-0.5,0.2-0.9,0.2-1.3-0.2c-0.5-0.4-1-0.9-1.5-1.3
			C303.4,84.1,303.2,83.1,303,82z M306.4,83.6c0,0-0.2,0-0.2,0.1c-0.1,0.1-0.2,0.3-0.2,0.4c0,0.1,0.1,0.4,0.2,0.4
			c0.1,0.1,0.3,0,0.4-0.1c0.1-0.1,0.1-0.3,0.2-0.4C306.5,83.8,306.5,83.7,306.4,83.6z M305.2,82.8c0.1-0.1,0-0.3,0.1-0.4
			c-0.1,0-0.3,0-0.4,0c-0.1,0.1-0.2,0.2-0.3,0.4c0,0.1,0,0.2,0,0.2c0,0,0.1,0.1,0.2,0.1C305,83,305.1,82.9,305.2,82.8z"/>
		<path fill="#CF0A2C" d="M398.8,84.9c-0.1,0.1-0.1,0.2-0.2,0.3c0,0,0.1,0.1,0.1,0.2c0.1-0.1,0.1-0.2,0.2-0.3
			C398.8,85,398.8,85,398.8,84.9z"/>
		<path fill="#CF0A2C" d="M279.8,82.9c0-0.4-0.1-0.8-0.1-1.3c0-0.3,0.3-0.7,0.5-0.7c0.9,0,1.9-0.1,2.8,0c0.6,0,1,0.4,1.4,0.9
			c0.4,0.5,0.5,1.1,0.3,1.7c-0.3,0.9-0.8,1.7-1.7,2.1c-0.5,0.2-1,0.5-1.5,0.7c-0.7,0.3-1.5-0.2-1.6-1
			C279.9,84.4,279.8,83.7,279.8,82.9C279.8,82.9,279.8,82.9,279.8,82.9z M282.1,83.3l-0.2,0l0.1,0.2L282.1,83.3z"/>
		<path fill="#CF0A2C" d="M258.4,85.2c-0.1-0.7-0.3-1.1-1-1.3c-0.1,0-0.3-0.4-0.2-0.6c0.2-1.2,1.1-1.8,2.1-2.3
			c0.2-0.1,0.5-0.1,0.7,0c0.5,0.2,1,0.4,1.5,0.6c0.2,0.1,0.4,0.3,0.5,0.5c1,2.1,0.8,2.9-0.5,4.3c-0.1,0.1-0.2,0.2-0.4,0.3
			c-0.3,0.2-0.6,0.3-0.9,0.2c-0.5-0.3-1-0.5-1.6-0.9C258.5,85.7,258.4,85.5,258.4,85.2z M260.7,83.9c-0.1-0.1-0.3,0-0.4,0.1
			c-0.1,0.2-0.2,0.4-0.3,0.7c0,0.1,0.1,0.4,0.2,0.4c0.1,0,0.3,0,0.4-0.1c0.1-0.2,0.2-0.4,0.3-0.6C260.9,84.2,260.8,83.9,260.7,83.9z
			"/>
		<path fill="#CF0A2C" d="M465.8,83.3c0.2,0,0.3,0.1,0.5,0.1c0.2,0,0.4-0.4,0.3-0.6c-0.2-0.3-0.4-0.6-0.6-0.7
			c-0.3-0.2-0.8-0.2-1.1-0.2c-1.8-0.1-2.4,0.5-2.5,2.5c0,0.3,0.1,0.7,0.3,0.9c0.3,0.4,0.6,0.8,1,1.1c0.2,0.2,0.4,0.3,0.6,0.1
			c0.2-0.2,0.3-0.7,0.2-0.9c-0.2-0.3-0.4-0.5-0.6-0.8c-0.1-0.2,0-0.7,0.2-0.9C464.6,83.3,464.9,83.3,465.8,83.3z"/>
	</g>
</g>
<g>
	<g>
		<path fill="#FFFFFF" d="M465,31.9c0,0.2,0.1,0.3,0.1,0.6c1-0.1,2-0.6,3.1-0.2c-0.6,0.2-1.2,0.3-1.8,0.5c-0.6,0.2-1.3,0.2-1.5,1.1
			c0.7-0.1,1.4-0.5,2.1-0.1c0,0.9-0.8,0.6-1.2,0.7c0.5,0.7,0.5,1.2-0.2,1.5c-2.2,1-4.4,2-6.6,2.8c-1.6,0.6-3.4,1.1-5.1,1.7
			c-0.2,3-0.4,5.9-0.7,8.9c0.2,0.1,0.5,0.2,0.7,0.1c1.9-0.2,3.9-0.3,5.8-0.7c0.6-0.1,1.1,0,1.6,0c0.5,0,1.1-0.1,1.9-0.2
			c-1.2,0.9-5.4,1.6-10,1.9c-0.1,0.7-0.1,0.7,0.7,0.8l0,0c-0.3,0.4-1.1,0.1-1,1c-0.3-0.3-0.5-0.5-0.6-0.7c0.1-0.2,0.3-0.5,0.7-0.9
			c-0.7,0-1,0-1.4,0c-0.1,0.5-0.2,0.9-0.2,1.3c0,0.4,0,0.7-0.1,1.2c1.4-0.1,2.7-0.2,3.9-0.3c1.3-0.2,2.6-0.5,3.9-0.7
			c1.2-0.2,2.4-0.2,3.6-0.3c0.2,0,0.4,0.1,0.6,0.1c-0.2,0.2-0.3,0.3-0.4,0.5c1.7,0,3.3,0.1,5.1,0.1c0.2-0.9,0.4-1.8,0.6-2.8
			c-0.7-0.5-1.4,0.1-2.3-0.2c0.7-0.2,1.1-0.3,1.6-0.3c0.5,0,0.8-0.2,0.9-0.7c0.1-0.6,0.1-1.2,0.2-2c-1,0.1-2,0.1-3,0.2
			c-0.7,0.1-1.4,0.2-2.1,0.3c-0.7,0.1-1.4,0.3-2.1,0.4c-0.7,0.1-1.3,0.2-2,0.3c-0.1,0-0.2-0.1-0.5-0.3c3.4-0.7,6.6-1.2,9.9-1.3
			c0.1-0.2,0.1-0.4,0.2-0.7c0.6-2.8,1.3-5.7,1.9-8.5c0.5-2.1,1.1-4.3,1.6-6.4c0-0.2,0-0.5,0.1-0.5c0.9-0.3,0.6-0.9,0.6-1.5
			c0-0.6,0.2-1.2,0.4-1.8c0.2,0,0.4,0,0.6-0.1c0-0.5,0.5-0.9,0.1-1.5c-0.1-0.2,0.1-0.5,0.3-0.8c0.3-0.5,0.6-1,0.4-1.7
			c-0.1-0.2,0-0.4,0-0.7c0.2-1,0.3-1.9,0-2.9c-0.2-0.7,0-1.5,0-2.3c0.2,0,0.5-0.1,0.8-0.1c-0.1-0.4-0.3-0.7-0.4-1
			c0,0,0.1-0.1,0.1-0.1c0.6,0-0.1-0.7,0.4-0.7c0.5-0.1,0.2-0.5,0.2-0.8c0-0.3,0-0.6,0.1-0.8c0.3-0.7,0.3-0.7,0.1-1.3
			c0.8,0,0.5,0.8,0.9,1.2c1.1-0.3,1-1.5,1.5-2.4c0.7,1.2-0.1,2.5,0.5,3.7c0.2-0.2,0.4-0.3,0.4-0.4c0-0.3-0.1-0.6,0.4-0.5
			c0-0.2,0.1-0.4,0.2-0.6c0-0.1,0.3,0.1,0.4,0c0.2-0.1,0.4-0.3,0.4-0.5c0.1-0.5,0.1-1,0.1-1.4c0-0.4,0-0.8,0-1.3
			c0.4,0.2,0.7,0.4,1,0.6c-0.4,1.8-0.5,3.7,0.2,5.5c0.1,0,0.2,0,0.3,0c0-0.5,0-1.1,0-1.8c0.5,1.3,0.4,2.4,0.5,3.6
			c0.7-0.1,0.7-0.8,1-1.1c0,0,0.1,0,0.1,0.1c0,0,0,0.1,0,0.1c0,0.1,0,0.1,0.1,0.2c0.1-0.5,0.3-1,0.4-1.6c0.4,0.3,0.4,0.7,0.4,1
			c-0.1,1.1-0.1,2.2-0.2,3.3c0,0.6,0.1,1,0.5,1.5c1.3,1.5,2.7,2.9,3.8,4.6c0.9,1.3,1.7,2.7,2.8,3.8c0.4,0.4,0.8,0.9,1.2,1.3
			c0.4,0.4,0.9,0.9,1.4,1.4c0.3,0,0.8,0,1-0.7c0.1-0.2,0.4-0.3,0.5-0.5c0.7-0.6,1.4-1.2,1.9-1.9c0.3-0.4,0.6-0.3,0.8-0.4
			c0.3-0.7,0.6-1.3,0.8-1.9c0.1,0,0.1,0,0.2,0.1c0,0.2,0,0.4-0.1,0.6c0,0,0.1,0.1,0.1,0.1c0.1-0.2,0.2-0.5,0.3-0.7
			c0.2-0.2,0.5-0.3,0.8-0.5c-0.2-0.1-0.3-0.2-0.4-0.3c0.6-1.2,2-2,2-3.6c0.1,0.1,0.3,0.3,0.5,0.5c0-0.3,0.1-0.5,0.1-0.6
			c-0.3-2.5-0.6-4.9-0.9-7.4c-0.1-0.5,0-0.9,0.7-1c-0.3-0.5-0.5-1,0.3-1.1c0.1,0.3,0.3,0.6,0.4,0.8c0.1,0.3,0.2,0.7,0.3,1
			c0.1,0.2,0.1,0.5,0.2,0.6c0.3,0.2,0.4,0,0.5-0.3c0-0.1,0.3,0,0.4-0.1c-0.1-1.4-0.2-2.8-0.3-4.2c0,0,0,0,0,0
			c0.6,0.2,0.7,0.7,0.7,1.2c0,1,0.2,1.9,0.9,2.8c0.4-0.3,0.4-0.6,0.2-1c-0.2-0.8-0.2-0.8,0.5-1.6c0.1,0.2,0.2,0.3,0.4,0.6
			c0.6-0.7,0-1.3,0-1.9l0,0c0.1-0.1,0.3-0.2,0.3-0.2c-0.1-0.7-0.2-1.4-0.3-2.1c-0.1-0.4-0.2-0.9,0.6-0.9c0.1,0.7,0.2,1.4,0.3,2.1
			c0.1,0.7,0.2,1.4,0.3,2c0.2,0.8,0.4,1.6,0.6,2.5c0,0,0,0.1,0,0.1c1.1,0.9,1,2.4,1.7,3.5c0,0,0.1,0,0.2,0c0-1.6-0.1-3.2-0.9-4.6
			c0.1-0.1,0.3-0.1,0.4-0.3c0.1-0.1,0.1-0.2,0.2-0.4c0.1,0.1,0.2,0.2,0.3,0.3c0.2,0.9,0.3,1.8,0.5,2.7c0.3,2.2,0.6,4.5,1,6.7
			c0,0.2,0.1,0.3,0.2,0.5c0.2,0.6,0.5,1.2,0.7,1.8c0,0.1,0,0.2,0,0.2c-0.7,0.5-0.3,1.2-0.2,1.7c0.2,1.1,0.5,2.1,0.7,3.2
			c0.2,0.9,0.3,1.8,0.6,2.7c0.6,2.1,1.3,4.2,1.8,6.4c0.3,1.4,1,2.8,1.3,4.2c0.7,2.8,1.2,5.6,2,8.3c0.7,2.5,1,5,1.4,7.5
			c0,0.2,0,0.4-0.2,0.7c-0.2-0.9-0.4-1.8-0.5-2.8c-0.5-2.9-1-5.7-1.9-8.5c-0.6-2-1.1-4-1.7-5.9c-0.3-1.1-0.7-2.1-1-3.1
			c-0.4-1.2-0.8-2.3-1-3.5c-0.6-2.6-1.2-5.2-1.8-7.8c-0.1-0.7-0.2-1.3-0.4-2c-0.4,0.5-0.5,1-0.4,1.6c0.6,4,1.5,8,2.8,11.8
			c0.4,1.3,0.8,2.5,1.3,3.8c0,0.1,0.2,0.2,0.1,0.3c-0.3,1.9,0.8,3.6,1,5.4c0.2,1.5,0.8,3,1.4,4.5c0.5,1.1,0.6,2.3,0.7,3.4
			c0.2,1.5,0.3,3.1,0.4,4.6c0,0.5,0.2,1.1-0.5,1.7c-0.1-0.9-0.1-1.6-0.3-2.3c-0.1-0.7-0.3-1.3-0.5-2c-0.1,0-0.2,0-0.3,0
			c0.1,0.4,0.1,0.7,0.2,1.1c0.2,1.4,0.5,2.7,0.3,4.1c-0.1,0.6-0.3,1.1-0.9,1.2c-0.6,0.2-0.9-0.2-1.1-0.7c0-0.1-0.1-0.1-0.2-0.1
			c-0.1,0.3-0.2,0.6-0.4,1.1c-0.6-0.5-1-1.1-1.7-0.9c-0.1,0-0.4-0.3-0.4-0.6c-0.2-0.7-0.4-1.3-0.7-2.2c-0.1,0.4-0.2,0.7-0.3,1
			c0,0-0.1-0.1-0.1-0.1c-0.2-0.6-0.4-1.3-0.6-1.9c-0.3-1.4-0.6-2.8-1-4.2c-0.2-0.7-0.5-1.4-0.7-2.1c-0.2-0.6-0.2-1.3-0.4-1.9
			c-0.3-1.4-0.7-2.8-1.3-4.1c-0.6-1.4-0.9-2.9-1.3-4.3c-0.6-2.2-1.2-4.4-1.8-6.6c0-0.1-0.1-0.1-0.2-0.3c-0.5,0.5-1,1-1.5,1.5
			c-1.8,2.1-3.9,3.7-6,5.4c-0.2,0.2-0.4,0.3-0.5,0.5c-0.1,0.2-0.3,0.2-0.5,0.2c-0.2,0-0.3,0.4-0.3,0.6c0,0.1,0.1,0.3,0.1,0.4
			c0,0.1,0,0.2-0.1,0.4c-0.2-0.2-0.4-0.3-0.7-0.5c-0.1,0.3-0.2,0.6-0.4,0.9c-0.7-0.1-1.4-0.1-2,0.6c-0.8-0.7-1.7-1.2-2-2.3
			c-0.1-0.2-0.3-0.4-0.5-0.5c-0.4-0.4-1-0.6-0.8-1.4c0-0.1-0.2-0.3-0.3-0.4c-0.8-0.9-1.7-1.8-2.4-2.8c-1.4-2.1-3.1-4-4.7-5.9
			c-0.4-0.5-0.8-0.9-1.3-1.4c-0.8,1.2-0.9,2.6-1.2,3.9c-0.2,0.7-0.5,1.3-0.7,2c-0.3,1.2-0.6,2.4-0.8,3.6c-0.1,0.5-0.2,1-0.3,1.5
			c-0.8,3.8-1.6,7.5-2.3,11.3c-0.3,1.6-0.6,3.2-0.4,4.8c0,0.3-0.2,0.7-0.3,1.3c-0.7-2.6,0.1-5,0.1-7.4c-0.3,1.4-0.5,2.9-0.8,4.3
			c-0.1,0.3-0.2,0.6-0.2,1c-0.1,0.5-0.3,1.1-0.2,1.6c0.3,0.9-0.4,1.6-0.5,2.4c-0.6,0.2-0.8,1.1-1.6,1.1c-0.2,0-0.5,0.2-0.7,0.3
			c-0.4,0.2-0.8,0.4-1.3,0.2c-0.2-0.1-0.4,0.1-0.7,0.2c-0.3-0.5-0.6-1.1-1.1-1.5c-0.6-0.6-0.7-1.3-0.7-2.1c0-0.4,0.2-0.9-0.3-1.4
			c-0.1,0.6-0.1,1-0.1,1.4c-0.6-1.4-0.7-2.8-0.6-4.3c-0.7,1.6-2.4,1.5-3.7,1.8c-2.2,0.6-4.4,0.9-6.6,1.2c-0.9,0.1-1.8,0.1-2.7,0.2
			c-2,0.1-3.9,0.1-5.9,0c-0.6,0-1.1,0.2-1.7,0.2c-0.6-1-1.3-1.9-2-2.7c-0.7-0.8-1.8-1.3-2.6-2.4c0.7,0.1,1.2,0.1,1.7,0.2
			c0-0.1,0-0.1,0.1-0.2c-0.3-0.1-0.6-0.3-0.9-0.4c-1.1-0.6-1.2-1.1-0.3-2c0.1-0.1,0.2-0.3,0.4-0.4c0.2,0.2,0.3,0.4,0.5,0.6
			c0.2-0.4,0.8-0.6,0.2-1.1c-0.1-0.1,0-0.4,0-0.6c-0.1-0.7-0.2-1.4-0.3-2.2c0-0.1-0.1-0.3,0-0.4c0.5-0.5,0.3-1.1,0.4-1.7
			c0.1-1.1,0.2-2.2,0.3-3.3c0-0.4,0-0.8,0-1.2c-1.5-0.6-2.5-1.7-3.2-3.2c0.3-0.3,0.6-0.6,1-1c-0.4-0.3-0.7-0.6-1.2-1
			c0.2-0.3,0.4-0.6,0.5-0.9c-0.2,0-0.5-0.1-0.8-0.1c0.3-0.3,0.5-0.6,0.9-1c0.3,0.6,0.8,0.7,1.4,0.4c0.6-0.3,1.2-0.1,1.8,0.6
			c0.1-1,0.1-1.8,0.1-2.7c-1.3,0.1-2.5-0.2-3.8-0.6c0.4-0.1,0.8-0.2,1.3-0.4c0.7,0.4,1.4,0.3,2.7-0.3c0-1.1,0.1-2.4,0.1-3.6
			c0-0.1,0-0.4-0.1-0.4c-0.7-0.4-0.3-1-0.3-1.6c-1.2,0-2.1-0.6-2.2-2c0-0.3,0-0.3,0.5-0.6c0.3,0.4,0.3,1.1,1.2,0.8
			c-0.5-0.6-0.9-1.1-1.4-1.6c0.5-0.1,1-0.2,1.5-0.3c-0.7-0.4-1.5-0.1-2-0.7c0.9,0,1.8-0.1,2.9-0.1c-0.1-0.6-0.2-1.1-0.3-1.5
			c-0.6-0.1-1.1-0.1-1.5-0.4c-0.2-0.2-0.2-0.7-0.4-1.1c0.9-0.2,1.4-0.6,2-1.1c0.5-0.5,1.2-0.9,1.8-1.4c0.1,0.2,0.3,0.5,0.5,0.8
			c0.6-0.5,0.1-1,0.1-1.5c0-0.5-0.2-1-0.3-1.6c0.1-0.2,0.3-0.4,0.5-0.8c0.2,1.2,0.4,2.3,0.6,3.4c0.9,0.3,1.6-0.3,2.5-0.3
			c0.1-1.5-0.7-3,0.1-4.4c0.1,1.4,0.2,2.8,0.3,4.2c0.4-0.1,0.8-0.1,1-0.3c1.5-0.9,3.2-0.9,4.8-1.1c1.4-0.2,2.9-0.3,4.4-0.3
			c-0.3,0.1-0.6,0.2-0.8,0.2c0.6,0.3,1.4,0.3,2,1c-3,0.2-5.8,0.4-8.8,0.7c0.1,0.4,0.2,0.9,0.4,1.5c1.1-0.2,2.2-0.3,3.5-0.5
			c-0.5,0.7-1.2,0.5-1.7,0.7c-0.5,0.2-1.1,0.2-1.7,0.4c0.1,0.6,0.1,1.2,0.2,1.7c2.7-0.1,5.2-0.2,7.8-0.3c-0.1,0.2-0.2,0.4-0.5,0.7
			c0.6,0,1.1-0.1,1.5,0.1c0.4,0.1,0.7,0.5,1.2,0.8c0.1-0.2,0.2-0.5,0.4-0.8c1-0.1,2-0.2,3-0.3c0,0.1,0,0.1,0,0.2
			c-0.3,0-0.6,0-0.8,0.1c0.1,0.3,0.3,0.6,0.4,1c-0.4,0.2-0.8,0.3-1.2,0.5c0.7,0.8,1.6,0.2,2.3,0.8c-0.7,0-1.2,0-2,0
			c0.5,0.8,1.9,0.1,2,1.4c-1.2,0.5-2.4,0.9-3.6,1.4c0.5,0.6,1.4,0.2,1.7,1c-0.7,0.1-1.4,0.2-2,0.3c-2.5,0.1-4.8,1-7.1,1.8
			c-0.7,0.2-1.4,0.4-2.1,0.6c-0.3,0.1-0.6,0.5-0.9,0.8c-0.1,0.1,0,0.4,0,0.5c0.1,0.1,0.3,0.1,0.5,0.1c0.6-0.1,1.2-0.3,1.8-0.5l0,0
			c-0.3,0.7-1,0.6-1.6,0.8c-0.4,0.2-0.9,0.4-0.9,0.8c0,0.5-0.1,1.1,0.6,1.3c-0.2,0.2-0.4,0.4-0.6,0.6c0,0.1,0.1,0.1,0.1,0.2
			c1.3-0.4,2.5-0.8,3.8-1.2c0-0.1,0-0.1,0-0.2c-0.6,0-1.2,0.1-1.8,0.1l0,0c0.9-0.6,1.8-1.1,2.8-1.6c0.2-0.1,0.4,0,0.7,0
			c0.1,0.2,0.2,0.4,0.2,0.7c-0.3,0.1-0.6,0.3-0.9,0.4c0,0.1,0,0.1,0,0.2c0.3,0,0.5,0.1,0.8,0.1c0,0.2,0.1,0.3,0.1,0.6
			c0.3-0.1,0.7-0.2,1.1-0.3c0.4,0.7,1,0.6,1.6,0.3C463.5,32.4,464.3,32.2,465,31.9L465,31.9z M449.7,17.8c0.2-0.1,0.5-0.2,0.8-0.4
			c-1.6-0.1-1.6-0.1-2,0.1C448.8,18.1,449.2,17.9,449.7,17.8c-0.3,0.1-0.6,0.3-0.9,0.4C449.2,18.4,449.7,18.5,449.7,17.8z
			 M486.3,23.4c0.8,1.6,2.2,2.7,3.3,4c-0.3-0.6-0.7-1.2-1.1-1.7C487.8,24.8,487,24.1,486.3,23.4c0-0.6-0.4-0.9-0.9-1
			C485.7,22.7,486,23,486.3,23.4z M452.8,47.8c0.1-2.3,0.5-4.5,0-6.7c-0.9,0.2-0.9,0.2-0.9,0.9c0,1.1-0.1,2.2-0.1,3.3
			c0,0.8-0.1,1.6-0.1,2.4c0,0.1,0.1,0.2,0.2,0.3C452.1,48,452.4,47.9,452.8,47.8z M459.3,26.9c0-0.1,0-0.2-0.1-0.2
			c-1.2,0.1-2.4,0.3-3.6,0.5c-1,0.2-1.1,0.3-0.9,1.5C456.2,28.1,457.8,27.5,459.3,26.9z M453.6,17.9c-0.1-0.5-0.2-0.9-0.3-1.3
			c-0.6,0-1.1,0.1-1.6,0.1c-0.1,0.5-0.2,1-0.3,1.4C452,18,452.8,18,453.6,17.9z M452.1,20.3c0.7-0.1,1.3-0.2,1.9-0.2
			c-0.2-0.6-0.6-1-0.3-1.7c-0.7,0.2-1.2,0.3-1.7,0.4C452,19.3,452.1,19.7,452.1,20.3z M452.1,28.1c0.3,0.4,0.6,0.7,0.8,1.1
			c1-0.3,1-0.3,0.8-1.8C453.1,27.6,452.6,27.8,452.1,28.1z M453.4,31.5c-1.2,0.3-1.3,0.7-0.6,1.8C453.2,32.8,454,32.5,453.4,31.5z
			 M452.6,31.1c0.4-0.2,0.6-0.3,0.9-0.5c0-0.4,0-0.7,0-1.1c-0.8-0.2-1,0.5-1.4,0.8C452.4,30.6,452.5,30.8,452.6,31.1z M451.5,49.6
			c0.4,0,0.7,0,1.1-0.1c0-0.4,0-0.7,0.1-1.2c-0.4,0.1-0.7,0.1-1,0.2C451.6,48.9,451.6,49.2,451.5,49.6z M445.8,21.6
			c0.4-0.7,0.4-1.1,0.1-1.5c-0.1-0.1-0.4,0-0.6,0C445.5,20.6,445.6,21,445.8,21.6z M451.2,18.8c-0.2,0.6-0.2,1.1,0.2,1.6
			C451.6,19.4,451.6,19.4,451.2,18.8z M486.6,24.8c-0.1,0.1-0.1,0.1-0.2,0.2c0.4,0.6,0.9,1.2,1.4,1.6c0.1-0.1,0.1-0.1,0.2-0.2
			C487.5,25.9,487.1,25.4,486.6,24.8z M488.7,27.2c-0.1,0.1-0.1,0.1-0.2,0.2c0.4,0.5,0.8,0.9,1.3,1.4c0.1-0.1,0.1-0.1,0.2-0.2
			C489.5,28.1,489.1,27.7,488.7,27.2z M485,22.4c-0.1,0.8,0.4,1.2,0.9,1.7c0.1,0,0.1-0.1,0.2-0.1C485.7,23.5,485.3,23,485,22.4z
			 M477,49.5C477.1,49.5,477.1,49.5,477,49.5c0.1-0.4,0.2-0.9,0.2-1.4c0,0-0.1,0-0.1,0C477.1,48.6,477.1,49,477,49.5z M491.5,29.9
			c0.1-0.6-0.2-0.9-0.8-1C491,29.2,491.2,29.6,491.5,29.9z M453.4,34c0-0.1,0-0.1,0-0.2c-0.2,0-0.5,0-0.7,0.1c0,0-0.1,0.2-0.1,0.4
			C452.9,34.1,453.2,34,453.4,34z M508.3,14.2c-0.1,0.3-0.3,0.7,0.3,1C508.5,14.7,508.4,14.4,508.3,14.2z M476.8,50.9
			C476.7,50.9,476.7,50.9,476.8,50.9c-0.1,0.3-0.1,0.6-0.1,1c0,0,0,0,0,0C476.7,51.6,476.7,51.2,476.8,50.9z M449.2,19
			c-0.1,0-0.2,0-0.3,0c0,0.2,0,0.5,0.1,0.7c0.1,0,0.2,0,0.2,0C449.2,19.5,449.2,19.3,449.2,19z M484.5,18c0,0,0.1,0,0.1,0
			c0-0.2,0-0.3,0-0.5c0,0,0,0-0.1,0C484.5,17.7,484.5,17.9,484.5,18z M480.5,14.7c0.1,0,0.1,0,0.2,0c0-0.3,0-0.5,0-0.8
			c-0.1,0-0.1,0-0.2,0C480.5,14.1,480.5,14.4,480.5,14.7z"/>
		<path fill="#FFFFFF" d="M20.2,52.6c0.6-0.3,0.3-0.9,0.3-1.3c-1.4-0.5-1.5-0.7-0.9-1.3c0,0.2,0,0.4,0.1,0.7
			c0.3-0.1,0.5-0.3,0.7-0.4c-0.1-0.6-0.4-0.7-0.8-0.8c-1-0.2-2-0.3-3-0.5c-1-0.1-1.9-0.5-2.7-1.2c0.6-0.4,1.3,0.3,2-0.4
			c-0.3-0.2-0.5-0.3-0.9-0.5c0.7-0.1,1.2-0.1,1.7-0.2c0.1-0.5-0.2-0.6-0.4-0.7c-0.8-0.2-1.6-0.4-2.4-0.6c-0.6-0.2-1.1-0.5-1.6-0.6
			c-0.9-0.2-1.8-0.4-2.7-0.6c0.3,0,0.6,0.1,1,0c0.2,0,0.6-0.1,0.6-0.3C11.4,43,12,43,12.6,43c0.9,0,1.8,0.2,2.8,0.2c0.5,0,1,0,1-0.7
			c0.9,0,1.7,0.1,2.6,0.1c0.1-0.5,0.2-0.9,0.3-1.4c0.2-0.1,0.5-0.1,0.9-0.3c0,0,0-0.1,0-0.2c0.1-0.4,0.3-0.8,0.4-1.1
			c0.4-0.9,0.1-1.2-0.8-1.2c-2.1,0-4.2,0-6.3-0.1c-1.7-0.1-3.4-0.3-5-0.6c-0.7-0.1-1.4-0.5-2.1-0.8c-0.5-0.2-1.1-0.4-1.5-0.8
			c-0.5-0.4-0.8-0.8-1.5-0.9c-0.4-0.1-0.7-0.6-1-0.9c0.2-0.8,0.8-0.3,1.2-0.5c0.1-0.1,0.1-0.2,0.1-0.2c0-0.1-1.1-1.3-1.2-1.5
			C2.3,32,2.2,31.8,2,31.4c-0.5-0.2-1.1-0.4-2-0.6c0.7-0.3,1-0.6,1.5-0.6c1.3,0.2,1.4,0.1,1.8-1c0.6-0.2,1-0.4,1.5-0.5
			c0.3-0.1,0.6-0.1,0.8-0.1c2.8,0,5.5,0.1,8.3,0.1c2.4,0,4.8-0.3,7.2-0.3c0.6,0,0.9-0.6,1.4-0.4c0,0,0.2-0.3,0.3-0.4
			c0.2-0.7,0.3-1.4,0.4-2.1c0-0.2-0.2-0.4-0.3-0.6c1-0.9,1.2-2.2,1.5-3.5c0.4-1.5,0.8-3,1.2-4.5c0.1-0.4,0.6-0.3,0.7-0.5
			c0.3-0.4,0.4-0.9,0.6-1.4c0.3-0.7,0.7-1.4,1.1-2c-0.1,1-1,2,0,3.1c0.3-0.3,0.6-0.6,1-1.1c0,0,0.2,0.1,0.3,0.1
			c1-0.5,1.8-0.1,2.6,0.6c0.2,0.2,0.7,0.2,1.2,0.3c0,0.9,0,1.8,0.1,2.8c0.1-0.3,0.2-0.4,0.3-0.6c0.4-1.2,1.4-1.4,2.4-0.5
			c0.5,0.4,1.1,0.7,1.7,1.1c-0.2,0.5-0.5,1.1-0.8,1.7c-0.1,0.1-0.1,0.3-0.3,0.4c-1,0.6-1.3,1.6-1.5,2.7c-0.1,0.4-0.3,0.7-0.5,1.1
			c-0.5,0.8-0.8,1.7-0.9,2.7c1,0.1,1.9,0.1,2.6-0.3c0.8-0.4,1.7-0.4,2.5-0.6c0.8-0.2,1.6-0.4,2.5-0.6c0.4-0.1,0.5-0.4,0.4-0.7
			c0-0.3-0.3-0.4-0.6-0.2l0,0c0.6-0.9,1-1.8,1.2-2.8c0.1-0.6,0.4-1.2,0.7-1.9c0.2-0.7,0.5-1.3,0.7-2c0-0.1,0.1-0.3,0.1-0.4
			c-0.1-1.1,0.2-2.3,0.6-3.2c0,0,0.1-0.1,0.3-0.1c-0.3,0.8-0.6,1.5-0.4,2.4c0.1-0.2,0.2-0.3,0.3-0.4c0.1-0.7,0.6-1.2,0.8-1.9
			c0.3-1.1,1.1-2.1,0.7-3.4c0-0.1,0.1-0.3,0.2-0.5c0.2-0.4,0.4-0.8,0.6-1.2c0-0.1,0.1-0.2,0.2-0.2c0.8-0.1,1.2-0.9,1.6-1.4
			c0.5-0.5,1-0.7,1.6-0.8c0.3,0.5,0.6,1,0.7,1.5c0.1,0.4,0,0.8,0,1.3c0.5,0.6,0.8-0.3,1.3-0.3c0.8,1.1,0.9,2.3,0.6,3.5
			c-0.3,1.3-0.5,2.7-1.4,3.9c-0.2,0.3-0.3,0.8-0.4,1.2c0,0.1,0,0.2-0.1,0.3c-1.2,0.8-1.3,2.1-1.8,3.3c-0.3,0.8-0.6,1.5-0.7,2.4
			c0,0.2,0,0.4-0.1,0.7c1.2-0.3,2.3-0.6,3.5-1c1.5-0.4,3-0.8,4.5-1.3c0.4-0.1,0.6-0.1,0.8,0.3c-0.5,0.3-1.1,0.6-1.8,0.9
			c0.7,0,1.3-0.2,1.9,0.1c0.5,0.3,1.1,0.3,1.1,1c1.1,0.5,0.8,1.5,0.8,2.4c0,0.6,0.3,1.1,0.4,1.7c-0.3,0.2-0.7,0.3-1.1,0.5
			c0,0.9-0.6,1.3-1.3,1.8c-1.9,1.4-4.2,2-6.4,2.7c-0.8,0.3-1.7,0.5-2.5,0.8c-0.3,0.1-0.6,0.4-0.6,0.7c-0.1,1.2-0.1,2.4-0.2,3.6
			c1.2,0.3,2.2-0.1,3.2-0.3c2.1-0.4,4.2-0.9,6.4-1.3c0.7-0.1,1.4-0.3,2.2-0.4c0.9-0.1,0.9-0.1,1.2,0.9c0,0.1,0.2,0.2,0.4,0.3
			c-0.4,0.1-0.7,0.2-0.9,0.3c0.4,0.4,0.7,0.8,1.2,1.3c0,0,0.3,0.1,0.5,0.2c0.9,0.4,1,0.5,0.9,1.5c0,0.3,0,0.6,0,0.9
			c0.1,0.5,0.2,1,0.3,1.6c-0.7,0.2-1.2,0.4-1.5,1c-0.1,0.3-0.4,0.5-0.7,0.6c-2,0.9-4.1,1.6-6.3,1.9c-1.6,0.2-3.2,0.7-4.9,1
			c-0.6,0.1-1.2,0.3-1.8,0.4c-0.1,0.7-0.2,1.2-0.2,1.8c0,1,0.2,1.9-0.5,2.8c-0.1,0.1-0.1,0.3-0.1,0.4c0.3,1.4-0.4,2.7-0.3,4
			c0,0.5-0.1,0.9-0.6,1.2c-0.2,0.1-0.4,0.2-0.4,0.4c-0.1,0.7-0.6,0.9-1.1,1.2c-0.2-1.2,0.5-2.4-0.4-3.6c-0.1,0.7-0.3,1.3-0.4,1.9
			c-0.4-0.2-0.4-0.2,0-0.9c-0.7-0.1-1.1-0.6-1.2-1.6c-0.4,0.6-0.6,1-0.9,1.5c0-0.3-0.1-0.5-0.1-0.7c-0.2-0.1-0.5-0.2-0.9-0.4
			c0.2-0.4,0.5-0.8,0.7-1.2c-0.5-0.3-0.7,0-1,0.4c-0.4-0.5-0.4-1-0.3-1.6c0.1-0.7,0-1.4,0.1-2.1c0-0.8,0-1.6,0.1-2.4
			c-1.2,0.1-2.3,0.2-3.5,0.3c-1.2,0.1-2.4,0-3.6,0c-0.1,1.9-0.2,3.7-0.3,5.5c-0.1,0.8-0.2,1.7-0.4,2.5c-0.3,1.3-0.6,2.6-0.9,4
			c-0.2,0.9-0.5,1.7-1.1,2.7c0-0.4,0-0.6,0-0.8c-0.3,0.1-0.5,0.1-0.9,0.2c0.2-0.5,0.3-0.9,0.4-1.2c0-0.2-0.1-0.4-0.1-0.6
			c0,0-0.3,0.1-0.4,0.1c-0.2,0-0.4,0-0.7-0.1c0,0.3-0.1,0.6-0.1,0.9c-0.8,0-1.1,0.5-1.2,1.2c-0.2-0.1-0.5-0.2-0.5-0.3
			c0.1-0.8,0-1.7,0.8-2.3c-0.1-0.2-0.2-0.4-0.2-0.6c-0.1-0.2-0.2-0.4-0.3-0.6c0.1,0,0.3,0,0.4,0c0-0.4,0.1-0.8,0.1-1.5
			c-0.3,0.3-0.5,0.4-0.6,0.5c-0.3,0.6-0.5,1.1-1.2,1.4c-0.2,0.1-0.2,0.5-0.4,0.8c-0.3,0.5-0.2,1.2-1,1.2c-0.1,0-0.3,0.4-0.4,0.6
			c-0.1,0.6-0.2,1.2-0.3,1.7c-0.1,0.4,0.1,1-0.4,1.3c-0.1,0.1-0.1,0.3-0.1,0.5c0,0.4,0.1,0.9,0,1.3c-0.1-0.3-0.2-0.6-0.3-0.9
			c-0.1-0.4-0.1-0.8-0.3-1.2c-0.1-0.3-0.4-0.6-0.6-1c-0.2,0.3-0.4,0.5-0.6,0.7c-0.1-0.1-0.2-0.1-0.2-0.2c0.3-1,0.5-2,0.8-3
			c0.1-0.2,0-0.6-0.2-0.8c-0.6-0.9-0.9-2-1-3.1c0-0.1-0.1-0.2-0.2-0.3c-0.5,0.2-0.3,0.8-0.6,1.2c0-1,0-1.9,0-2.7
			c0-1.2,0.1-2.4,0.4-3.6c0-0.2-0.1-0.5-0.3-0.6c-0.6-0.3-0.4-0.6-0.1-1c0,0.2,0.1,0.5,0.1,0.9c0.2-0.7,0.2-0.7-0.2-0.9
			C20.1,52.8,20.2,52.6,20.2,52.6L20.2,52.6z M40,40.3c0-1,0-2,0-3.1c-2.6,0.4-5.1,0.9-7.4,1.3c0,0.9-0.1,1.6-0.1,2.3
			c0,0.3,0.3,0.7,0.4,0.9C35.4,41.4,37.7,41.3,40,40.3z M27.9,16.3c-0.5,0.4-0.4,0.8-0.4,1.3C27.7,17.2,28.5,17,27.9,16.3z
			 M20.3,41.6c-0.8,0.3-0.5,0.6-0.3,1c0,0,0.1,0,0.3,0C20.3,42.3,20.3,42,20.3,41.6z M24.9,22.2c-0.1,0-0.1,0-0.2-0.1
			c-0.1,0.3-0.2,0.7-0.3,1c0.1,0,0.1,0,0.2,0.1C24.7,22.8,24.8,22.5,24.9,22.2z"/>
		<path fill="#FFFFFF" d="M349.1,37.3c0.3,1,0.6,1.9,0.8,2.9c0.5,2.6,0.9,5.1,1,7.8c0.1,2.1,0.4,4.3,0.5,6.4c0,0.6,0.4,1.2-0.1,1.8
			c0.4,0.6,0.2,1.2,0,1.7c0,0.1,0.1,0.3,0.1,0.3c0.7,0,0.6,0.6,0.6,1c0.2,2.1,0.5,4.2,0.7,6.3c0.1,1.3,0.2,2.6,0.2,3.9
			c0,0.6-0.2,1.3-0.1,1.9c0.2,2.6,0.6,5.3,0.8,7.9c0.1,1.2,0.3,2.4,0.6,3.6c0.1-0.2,0.3-0.4,0.5-0.8c0.1,1,0.3,2,0.4,2.9
			c0.6-0.1,0.7-0.4,0.7-0.9c0-0.4-0.1-0.9-0.2-1.3c0-0.6,0-1.2,0-1.9c-0.1-0.8-0.2-1.7-0.3-2.5c-0.1-0.5-0.1-1.1-0.1-1.6
			c0.8,2.3,0.3,4.9,1.4,7.1c0.1-0.6,0-1.4,0.3-1.9c0.5-0.7-0.3-1.4,0.3-2.1c0.1,1.1,0.2,2.2,0.3,3.3c0.1,1.1,0.9,2,0.9,3.1
			c0.2-0.1,0.4-0.2,0.6-0.3c0,0,0.1,0.1,0.1,0.1c0,0.6,0.2,1.3-0.3,1.8c-0.2,0.1-0.3,0.3-0.4,0.4c-0.5,0.4-0.9,0.7-1.4,1.1
			c0.2,0.5,0.3,0.9,0.5,1.3c-0.8,0.3-0.9-0.7-1.4-0.8c-1.1,0.8-1.2,1-0.6,1.7c-0.2,0.1-0.5,0.1-0.8,0.2c0,0.6,0.1,1.2,0.1,1.8
			c-0.6,0.2-1.3,0.6-2-0.3c0.1,0.5,0.2,0.6,0.3,1.1c-0.7-0.7-1.2-1.2-1.7-1.8c-1-1.2-1.3-2.6-1.5-4.1c-0.3-2.3-0.7-4.6-1-6.9
			c-0.1-1.1-0.2-2.3-0.3-3.4c-0.3-2.3-0.6-4.6-0.9-6.9c-0.5-4.8-1-9.6-1.4-14.4c-0.6-5.9-1.1-11.9-1.8-17.8
			c-0.5-4.9-1.2-9.7-1.8-14.5c-0.1-0.6-0.1-1.1-0.4-1.7c-0.3,0.7-0.5,1.4-0.8,2.1c-0.9,2-1.8,4-2.3,6.2c-0.2,0.7-0.5,1.3-0.7,2
			c-0.3,1.1-0.6,2.2-1,3.3c-0.4,1.3-0.9,2.5-1.3,3.8c-0.4,1.4-0.7,2.8-1.1,4.2c-0.1,0.5-0.3,1.1-0.5,1.6c-0.1,0.4-0.3,0.8-0.3,1.2
			c0.2,1-0.7,1.6-0.8,2.5c0,0.1-0.4,0.3-0.5,0.3c-0.2-0.1-0.2-0.3-0.3-0.5c-0.2,0.2-0.4,0.5-0.6,0.7c-0.1-0.1-0.2-0.1-0.3-0.2
			c0.4-0.6,0.3-1.1,0.1-1.7c-1.1-0.2-0.5,0.9-0.7,1.3c-0.7-0.1,0-0.6-0.4-0.8c-0.2,0-0.4,0-0.6,0c0-0.1,0-0.2,0.1-0.3
			c0.4-0.5,0.4-1.1,0.1-1.4c-0.3-0.2-0.9,0-1.2,0.4c-0.1,0.1-0.2,0.4-0.3,0.4c-0.5,0.2-0.9,0.6-1.2,1.1c-0.9-0.3-1.5-0.8-2-1.6
			c-1.2-1.7-1.9-3.6-2.6-5.6c-0.3-1-1.1-1.9-1.7-2.8c-1.3-2.1-2.9-4.1-4-6.3c-0.7-1.5-1.7-2.8-2.6-4.2c-0.1-0.2-0.2-0.5-0.6-0.8
			c-0.1,0.7-0.2,1.5-0.2,2.2c-0.1,1,0,2-0.1,3c-0.1,0.9-0.1,1.9-0.4,2.8c-0.3,0.8,0,1.7,0.1,2.6c0,0.4,0.2,0.7-0.2,1
			c-0.2,0.2-0.1,0.6-0.2,0.8c-0.1,1.1-0.1,2.3-0.2,3.4c-0.2,3.4-0.5,6.7-0.7,10.1c-0.1,1.5-0.2,3.1-0.1,4.6c0,0.7,0.3,1.4-0.1,2.1
			c0,0.1,0,0.2,0,0.2c0.7,0.8,0.3,1.8,0.4,2.7c0.1,0.9,0,1.8,0,2.8c0,0.7-0.1,0.8-1.1,0.7c0.1,1,0.2,2,0.4,3.1
			c-0.1,0.1-0.8,0-0.4,0.7c0.2,0.4-0.3,1.5-0.7,1.7c-0.3,0.2-1.1-0.1-1.5-0.5c-0.1-0.1-0.2-0.2-0.3-0.3c-0.4,0-0.1,0.8-0.7,0.5
			c-0.2-0.1-0.6,0-0.9,0.1c0,0.1,0,0.3,0,0.5c-0.2,0.1-1.3-0.3-1.4-0.6c-0.2-0.6-0.5-1.2-1-1.6c-0.2-0.1-0.2-0.5-0.3-0.7
			c-0.2-1.5-0.5-3.1-0.5-4.6c0-1.6-0.2-3.2,0.2-4.8c0.2-0.9,0.2-1.9,0.2-2.8c0.1-1.3,0.1-2.6,0.1-3.9c0.1-1.8,0.3-3.6,0.4-5.4
			c0-0.4,0.2-0.8,0.2-1.2c0.1-1.5,0.2-3.1,0.3-4.6c0.1-0.9,0.1-1.8,0.2-2.6c0.4-2.7,0.3-5.4,1-8c0.4-1.3,0-2.7,0-4.1
			c0-0.3,0-0.5,0-0.8c0.6-3.1,1.1-6.1,1.7-9.2c0.1-0.5,0.3-1,0.3-1.5c0-0.6-0.1-1.3-0.4-1.8c-0.7-1.4-1.3-2.8-1.6-4.3
			c-0.1-0.5-0.3-1.1-0.4-1.6c0.3,0,0.5,0.5,0.9,0.1c0.2-0.2,0.5-0.1,0.9-0.2c-0.2-0.7-0.4-1.5-0.6-2.2c0.9,0.6,0.9,0.6,1.3,1.6
			c0.3,0.7,0.5,1.4,1.2,1.8c0.2,0.2,0.3,0.5,0.5,0.7c0.6,0.3,0.7-0.3,0.9-0.5c0.4,0.3,0.8,0.6,1.2,0.9c0.1,0.1,0.4,0.1,0.4,0.1
			c0.3-0.4,0.7-0.2,1-0.1c0.2,0,0.3-0.1,0.5-0.1c0.2,0.4,0.3,0.7,0.5,1.1c0.1,0.1,0.2,0.3,0.1,0.4c-0.3,0.6,0.1,1.1,0.5,1.5
			c-0.1,0.3-0.3,0.6-0.3,0.7c0.4,0.8,0.7,1.4,1,2.1c0.6,1.1,1.1,2.2,1.7,3.3c0.4,0.6,0.6,1.3,1.2,1.8c0.4,0.3,0.5,1.1,0.7,1.6
			c1,2.4,1.9,4.9,3.5,7c0.3,0.4,0.5,0.7,1.1,0.5c0.1,0,0.3,0.4,0.6,0.7c0.7,0,1.3,0.3,1.8,1c0.8-0.8,1.2-1.9,1.6-2.9
			c0.5-1.1,1-2.3,1.6-3.4c0.5-0.8,0.8-1.7,1.2-2.6c0.3-0.7,0.7-1.4,1-2.1c0.1-0.1,0.2-0.1,0.6-0.3c-0.2,0.6-0.3,1-0.5,1.4
			c-0.6,1.4-1.2,2.9-1.8,4.3c-0.1,0.2-0.2,0.4-0.2,0.5c0.2,0.8-0.1,1.5-0.5,2.2c0,0,0,0.1,0.1,0.2c0.7-0.6,3.4-6.7,3.2-8.2
			c0.3-0.2,0.6-0.4,0.7-0.7c0.5-1.3,1-2.7,1.4-4.1c0.2-0.6,0.1-1.2,0.2-1.9c0.2,0.1,0.3,0.2,0.6,0.3c0.2-0.7,0.4-1.4,0.5-2.1
			c0.2-0.8,0.3-1.7,0.6-2.5c0.4-1.1,0.8-2.2,1.3-3.3c0.2-0.6,0.4-1.2,0.7-1.9c0.1,0,0.4,0.1,0.6,0.2c0.5-0.8,0.5-1.8,1.3-2.5
			c-0.1-0.3-0.2-0.5-0.3-0.8c0.5,0,0.9,0,1.3-0.1c0.4,0.6,0,1-0.3,1.6c-0.3,0.5-0.4,1-0.4,1.7c0.2-0.2,0.4-0.4,0.7-0.7
			c0.2,0.2,0.4,0.4,0.5,0.6c0.5-0.9,0.9-1.8,1.5-2.6c0.2-0.3,0.7-0.5,1-0.7c0.1,0.1,0.1,0.1,0.2,0.2c-0.2,0.7-0.4,1.4-0.6,2.1
			c0.1,0.1,0.1,0.1,0.2,0.2c0.1-0.2,0.3-0.5,0.5-0.8c0.2,0.3,0.3,0.5,0.3,0.6c-0.3,0.7,0.1,1.3,0.2,1.9c0.1,0.3,0.1,0.7,0,1.1
			c-0.4,1.4,0.2,2.6,0.9,3.8c-0.3,0.5-0.4,1.1-0.4,1.8c0.1,0.9-0.2,1.9-0.1,2.8c0.1,2.4-0.1,4.9,0.4,7.3c0.4,2.1,0.4,4.3,0.7,6.4
			c0.3,2.4,0.8,4.9,1.1,7.3c0.2,1.6,0.5,3.2,0.7,4.8c0.1,0.8,0,1.6,0.4,2.4c0.2,0.3,0.4,1-0.1,1.5c-0.2,0.2,0,0.8,0,1.3
			c0.7-0.7,0.7-0.7,0.6-1.5c-0.2-1.7-0.4-3.5-0.6-5.2c-0.1-0.7-0.5-1.3-0.4-2C348.9,37.7,349,37.5,349.1,37.3L349.1,37.3z M329,30.7
			c0.1-0.3,0.3-0.6,0.4-0.8c-0.1,0-0.2-0.1-0.2-0.1C329.2,30.1,329.1,30.4,329,30.7c-0.2,0.2-0.3,0.4-0.5,0.6c0,0,0.1,0.1,0.1,0.1
			C328.8,31.2,328.9,31,329,30.7z M311.7,44.6c0.1,0,0.3,0,0.5,0c-0.7-3.1,0.4-6.1-0.1-9.2c-0.3,1.1-0.5,2.2-0.5,3.3
			c-0.1,1.1,0,2.2,0,3.3c0,0.6-0.1,1.2-0.2,1.7C311.3,44.2,311.5,44.4,311.7,44.6c-0.2,0.1-0.4,0.1-0.6,0.1c0,0.3,0.1,0.5,0.1,0.8
			c-0.1,1.7-0.2,3.3-0.3,5c-0.2,2.4-0.3,4.8-0.4,7.2c-0.1,1.6-0.1,3.3-0.2,4.9c-0.1,1.2-0.3,2.4-0.3,3.5c0,0.8,0,1.6,0.7,2.4
			c0.2-1,0.3-1.8-0.4-2.3c0-0.8,0-1.5,0.1-2.2c0.3-2,0.2-4.1,0.5-6.2c0.3-2,0.2-4,0.3-6.1c0.1-1,0-2,0.4-2.8
			c0.3-0.7,0.4-1.4,0.4-2.2c-0.1,0.2-0.2,0.3-0.4,0.5C311.7,46.1,311.7,45.3,311.7,44.6z M308,53.7c-0.1,1.9-0.6,3.8-0.2,5.8
			c0.5-1.3,0.6-2.7,0.6-4.1C308.4,54.8,308.5,54.2,308,53.7c0.3,0,0.5-0.1,0.5-0.4c0.2-1.8,0.3-3.6,0.5-5.4c0-0.2,0-0.4,0-0.7
			c-0.1-0.7,0-1.3,0.3-2c0,1.3,0,2.6,0,3.9c0.3-0.6,0.4-1.1,0.5-1.7c0.3-2.6,0.5-5.1,0.8-7.7c0.2-2.2,0.4-4.3,0.6-6.5
			c0-0.6-0.1-1.2-0.2-1.7c0-0.4-0.1-0.8-0.1-1.2c0-0.7,0.1-1.3,0.1-2c-0.3,0.1-0.4,0.2-0.4,0.3c-0.1,0.9-0.3,1.8-0.4,2.7
			c-0.1,1.2-0.3,2.4-0.3,3.6c0,0.6-0.6,0.8-0.6,1.3c-0.2,1.9-0.4,3.8-0.6,5.7c-0.3,3.3-0.5,6.6-0.7,9.8
			C307.9,52.5,308,53.1,308,53.7z M307.5,64.1c0.1-0.7,0.5-1.5,0.3-2c-0.3-0.7-0.1-1.3,0-1.9C307.1,61.5,307.2,62.8,307.5,64.1z
			 M309.3,51.9c-0.1,0-0.2,0-0.2,0c-0.1,0.3-0.2,0.6-0.3,1c0.1,0,0.2,0,0.3,0.1C309.2,52.6,309.3,52.2,309.3,51.9z M309.5,50
			c0,0-0.1,0-0.1,0c0,0.3-0.1,0.6-0.1,0.9c0,0,0,0,0.1,0C309.4,50.6,309.4,50.3,309.5,50z"/>
		<path fill="#FFFFFF" d="M76.8,45.7c0-0.6,0.1-1.2,0.1-1.9c0.1-0.6,0.2-1.2,0.3-1.8c0-0.1,0.2-0.4,0.3-0.4c0.7,0,0.7-0.5,0.5-0.8
			c-0.2-0.4,0-0.6,0-0.9c0.1-1.1,0.5-2.2-0.1-3.4c0.1-0.1,0.2-0.2,0.3-0.3c0.5-0.4-0.2-1.1,0.5-1.5c0.5-0.3,0.4-0.9,0.3-1.5
			c-0.1-0.3,0-0.7,0-1l0,0c0.3-1.9,0.7-3.8,0.5-5.8c0.4,0.3,0.5,0.7,0.5,1.1c0,0,0.1,0,0.1,0c0.1,1.1,0.5,2.1,0,3.2
			c-0.2,0.6-0.4,1.2,0,1.8c0.2-0.8,0.4-1.6,0.5-2.4c0-0.2,0-0.5,0.1-0.6c0.5-0.3,0.4-0.8,0.5-1.3c0.1-0.2,0.1-0.6,0.2-0.7
			c0.6-0.6,0.6-1.4,0.9-2.2c-1.3-0.2-0.2-1.3-0.8-2c-0.2,0.3-0.4,0.5-0.5,0.7c-0.1,0.4-0.2,0.9-0.3,1.3c-0.3,0.7-0.1,1.6-0.7,2.2
			c0.2-0.9,0.4-1.9,0.6-2.8c0-0.2,0.3-0.7-0.2-0.8c0-0.2,0-0.5,0.2-0.7c0.3-0.5,0.4-1.1,0.3-1.8c-0.2,0.2-0.2,0.4-0.3,0.5
			c-0.1-0.1-0.3-0.2-0.4-0.4c-0.4,0.2-0.1,1.2-0.9,0.9l0,0c0.2-0.8,0.5-1.6,0.7-2.4c0.2,0.2,0.3,0.3,0.6,0.5c0-0.4-0.1-0.8,0-1.1
			c0.2-0.3,0.5-0.4,0.8-0.7c0.3,0.6,0.6,1.2,1,1.8c0.1,0,0.2,0,0.2-0.1c-0.1-0.8-0.2-1.6-0.5-2.4c-0.3-0.8,0-1.7,0-2.5
			c0.8,0,0.4-0.7,0.5-1.2c0.3-0.1,0.7-0.2,0.8-0.4c0.1-0.2-0.1-0.6,0-0.9c0-0.4,0.1-0.9,0.3-1.3c0.2-0.6,0.4-1.2,0.6-1.7
			c0.1-0.2,0.4-0.4,0.6-0.6c0.3-0.2,0.6-0.3,0.8-0.5c0.6-0.4,0.9-0.9,0.8-1.7c0-0.3,0.1-0.6,0.2-0.9c0.1,0,0.2-0.1,0.2-0.1
			c0.6-0.2,1-0.9,1.8-0.8c0.2,0,0.4-0.3,0.6-0.6c0.3-0.6,0.6-1.2,1-2c0.4,0.7,0.8,1.3,1.3,2.1c-0.1,0.2-0.2,0.4-0.3,0.7
			c0.9,0.5,1,0.5,1.5-0.9c0.5,0,0.9-0.3,1.4,0.2c0.5,0.5,0.6,1.2,0.3,1.9c-0.9,1.5-1.3,3.2-1.9,4.8c-0.1,0.2-0.1,0.5-0.2,0.6
			c-0.4,0.4-0.3,0.9-0.2,1.3c0.1,0.5,0.2,1,0.3,1.5c0.3-0.2,0.5-0.4,0.7-0.5c0.5-0.1,0.2,0.8,0.8,0.5c0,0,0.2,0.1,0.2,0.2
			c0.3,0.6,0.1,1.7-0.4,2.2c-0.3,0.4-0.6,0.2-1,0.2c0,0.6,0,1.3,0.1,1.9c0,0.1,0.2,0.2,0.3,0.3c-0.1,0.8-0.2,1.5-0.2,2.3
			c0.1-0.1,0.1-0.3,0.1-0.4c0-0.6,0.1-1.2,0.1-1.9c0-0.4,0-0.9,0.1-1.3c0.1,0,0.1,0,0.2,0c0,0.2,0.1,0.4,0.1,0.6
			c0,1.3,0.1,2.5,0.1,3.8c0,0.5,0.2,1-0.4,1.4c-0.1,0.1-0.1,0.4-0.1,0.6c0.2,2.3,0.4,4.5,0.6,6.8c0.2,1.5,0.4,3.1,0.5,4.6
			c0.1,0.5,0.1,1,0.8,1.1c-0.9,1.5-0.4,2.9-0.1,4.4c0.9-0.7,1.2-1.6,1-2.7c-0.1-0.5,0.1-1,0.2-1.5c0.2-0.8,0.7-1.5,1.3-2.1
			c0.5-0.5,0.8-1.4,0.9-2.2c0.1-1,0.6-1.9,1.1-2.7c0.6-0.9,0.6-1.1-0.3-1.7c0.2-0.1,0.4-0.2,0.6-0.3l0,0c0.2,0,0.5,0.2,0.6-0.2
			c0.3-0.7,0.5-1.4,0.8-2.1c0.1-0.2,0.2-0.5,0.3-0.7c0.1-0.3,0.2-0.6,0.3-0.9c-0.1,0-0.1-0.1-0.2-0.1c-0.2,0.3-0.4,0.7-0.8,1.2
			c-0.2-0.6,0-0.9,0.2-1.2c0.2-0.3,0.5-0.5,0.2-0.9l0,0c0.4-0.3,0.7-0.8,1.1-0.9c1.2-0.3,1-1.3,1.5-2.1c-0.5,0-1-0.1-0.9-0.6
			c0-0.3,0.4-0.5,0.8-0.7c0-0.3,0-0.5,0-0.9c0.5,0,0.9,0,1.3,0c0.1-0.3,0.3-0.6,0.4-1c-0.2-0.2-0.5-0.4-0.7-0.6
			c0.2-0.3,0.3-0.6,0.4-0.8c0.1-0.1,0.3-0.3,0.4-0.3c0.6-0.2,0.7-0.3,0.6-1c-0.1-0.3-0.2-0.6-0.2-0.8c-0.1-0.3-0.2-0.7-0.3-1
			c1.1-0.1,1.5-0.5,1.5-1.5c0-0.1,0-0.3,0.1-0.4c0-0.3,0.1-0.6,0.1-1.3c0.1,0.8,0.6,0.6,0.9,0.7c-0.3,0.4-0.6,0.8-0.4,1.4
			c1-0.5,1-0.7,0.4-1.4c0.1-0.2,0.2-0.4,0.3-0.6c0.1,0,0.4,0,0.7,0.1c0-0.4,0.2-0.9,0-1.2c-0.3-0.4-0.2-0.7-0.2-1.1
			c0.1-0.6,0.2-1.1,0.3-1.8c0.2-0.1,0.5-0.1,0.8-0.2c-0.1,0.6-0.3,1.2-0.4,1.7c0.3,0.3,0.6,0.3,0.7-0.2c0.3-0.7,0.6-1.5,0.7-2.2
			c0.1-0.8,0.4-1.2,1.1-1.1c0.5-0.7,0.5-1.7,1.4-2.2c-0.3,1-0.6,1.9-0.9,2.9c0.7,0.1,1.4,0.2,2,0.2c1.1,0,1.1,0,0.9,1
			c-0.1,0.8-0.1,1.6-0.6,2.3c-0.1,0.2-0.1,0.6-0.1,0.9c0.1,1.2,0,2.5-0.5,3.6c-0.3,0.8-0.3,1.5-0.3,2.3c0.1,0.5,0,0.8-0.2,1.3
			c-0.3,0.8-0.4,1.7,0.3,2.5c-0.8,0.6-0.8,1.4-0.9,2.1c-0.2,2-0.3,4-0.5,6c-0.2,2.5-0.4,5.1-0.5,7.6c0,0.4-0.1,0.9,0.5,1.2
			c0.3,0.2,0.6,0.6,0.9,1c-0.8,0.1-0.8-0.7-1.4-0.7c-0.1,1.1-0.3,2.2-0.3,3.2c-0.1,3-0.3,6-0.4,9c0,1.1,0,2.3-0.1,3.4
			c0,1.2-0.1,2.5-0.2,3.7c-0.1,0.7-0.2,1.3,0.3,1.7c-0.1,1-0.4,1.7-0.4,2.5c0,2.8,0,5.6,0,8.5c-0.3,0.1-0.7,0.2-1,0.3
			c-0.1,1.1-0.2,2.2-0.3,3.3c0,0.4-0.1,0.7-0.4,1c-0.7,0.7-0.9,1.4-0.5,2.2c-0.4,0.8-1.6,0.8-1.7,1.8c-0.5-0.1-0.9-0.2-1.4-0.4
			c0.4-1.1,0.1-2-0.8-2.9c-0.7-0.7-1.3-1.7-0.9-3c0.2,0.2,0.4,0.4,0.7,0.7c0.1-0.4,0.2-0.7,0.2-1.1c0.1-2.5,0.1-5,0.2-7.5
			c0-1.1,0.2-2.2,0.3-3.3c0-0.9,0-1.8,0-2.7c0-0.7-0.1-1.3-0.3-2c0,0.5,0,1-0.1,1.6c-0.4-0.2-0.5-0.3-0.6-0.7
			c-0.3-1.3,0.1-2.6,0.1-3.9c0-2.3,0.1-4.5,0.1-6.8c0-1.3,0.1-2.5,0.1-3.8c0.1-1.9,0.2-3.8,0.3-5.7c0-0.4-0.1-0.7-0.1-1.1
			c-0.1,0.1-0.2,0.2-0.3,0.3c-0.2-0.9-0.4-1.6-0.1-2.5c0.2-0.6,0.2-1.3,0.2-2c-1.3,1.3-1.7,2.9-1.5,4.7c-0.1-0.3-0.2-0.6-0.3-1
			c-0.2,0.9-0.4,1.6-0.6,2.3c-0.1,0-0.1,0-0.2,0c0-0.4,0.1-0.8,0.1-1.5c-0.3,0.4-0.4,0.5-0.5,0.7c-0.5,1.2-0.9,2.5-1.6,3.6
			c-0.7,1.2-1.2,2.6-1.8,3.9c-0.5,1.3-1,2.5-1.5,3.8c-0.3,0.7-0.6,1.3-0.9,2c-0.3,0.6-0.5,1.3-0.4,2c0.3,1.3,0,2.6-0.4,3.8
			c-0.1,0.2,0,0.4-0.1,0.7c-0.3-0.6-0.7,0.2-1.1-0.2c-0.2-0.3-0.7-0.3-1.2-0.4c-1.5,1.1-2.4,2.7-3.9,3.7c-1-0.3-0.6-1.1-0.6-1.6
			c0.1-0.8-0.1-1.8-0.7-2.4c-0.1-0.1-0.1-0.2-0.2-0.2c-0.3-0.2-0.6-0.5-0.3-0.8c0.3-0.4,0.6,0,0.8,0.2c0,0,0.1,0,0.1,0
			c0.4-0.9,0.3-1.9,1.2-2.7c0.2,0,0.5,0.1,0.8,0.2c0-0.1,0.1-0.3,0.1-0.3c-0.8-2.5-1-5-1.4-7.6c-0.2-1.6-0.6-3.2-0.9-4.8
			c-0.1-0.5-0.1-1.1-0.2-1.6c-0.1-0.6-0.3-1.2-0.5-1.8c-0.1,0-0.2,0-0.3,0c0,0.8,0,1.6,0.1,2.5c-0.2,0-0.3,0-0.4,0
			c0,0.5-0.1,0.9-0.1,1.4c-0.4,0-0.7,0-1.1,0.1c0.1,0.4,0,0.8,0.2,1c0.3,0.5,0.3,0.8,0.1,1.4c-0.3,0.6-0.4,1.4-0.6,2.1
			c-0.1,0.2,0,0.7,0.2,0.8c0.6,0.5,0.4,1.1,0.6,1.7c0.1,0.4-0.2,0.8-0.3,1.3c-0.1,0.3-0.1,0.6-0.1,1c0,0.4,0.6,0.9-0.3,1.1
			c0,0,0,0.2,0,0.3c0.3,0.3,0.2,0.5-0.1,0.8c-0.4,0.5-0.2,1.1-0.1,1.6c0.1,0.9,0.4,1.7,0.6,2.5c0.1,0.3,0,0.6,0.1,0.9
			c-0.3,0.1-0.5,0.1-0.7,0.2c-0.8,0.3-1.4,0.6-1.3,1.7c0.1,0.6,0,1.4-0.9,1.6c-0.2,0-0.4,0.6-0.5,0.9c-0.1,0.3,0.1,0.7,0.1,1.1
			c-1.2,0.7-1.3,2.2-2,3.3c-0.2,0.4-0.3,0.9-0.8,1.1c-0.2,0.1-0.3,0.4-0.4,0.6c-0.2,0.3-0.5,0.5-0.8,0.9c-0.1-0.5-0.2-0.8-0.2-1.1
			c-0.1,0-0.3,0-0.3,0.1c-0.4,0.6-0.9,1.2-1.2,1.8c-0.2,0.4-0.5,0.6-1,0.4c-0.2-0.3-0.4-0.6-0.5-0.9c0.2-0.8,0.8-1.5-0.1-2.2
			c-0.4,0.7-0.8,1.4-1.1,2c-0.3-0.1-0.6-0.2-0.9-0.3c0.2-0.4,0.3-0.8,0.5-1.2c-0.9-1-1.1-1-2.1,0.5c0.3-1.1,0.8-2,0.8-2.9
			c0-1,0.7-1.6,1-2.5c-0.7-0.2-0.4-0.7-0.3-1.1l0,0c0.2-0.3,0.4-0.6,0.5-1c0.1-0.5,0.3-0.8,0.8-0.9c-0.2-0.7,0.2-1.3-0.1-1.9
			c0.8-0.2,0.4-1,0.6-1.5c0.2-0.5,0.4-1,0.6-1.5c0-0.1,0-0.1,0-0.2c0.2,0.2,0.3,0.5,0.6,0.9c0-0.7,0-1.1,0.1-1.7
			c-0.3,0.3-0.5,0.5-0.6,0.7c0.3-0.6,0.4-1.2,0-2c-0.2-0.4,0-1,0-1.6c0.4-0.1,0.7-0.2,1.1-0.4c-0.2-0.8-0.4-1.5-0.5-2.2
			C76.5,46.5,76.4,46,76.8,45.7c0.2,0,0.4,0.1,0.7,0.1c0-0.4-0.1-0.7-0.1-0.9C77.2,45.2,77,45.5,76.8,45.7z M78.2,44.6
			c0.1-0.1,0.2-0.2,0.3-0.4c0.2-1,0.4-2,0.7-3c0.1-0.5,0.3-1,0.2-1.5c-0.1-0.5-0.1-1-0.1-1.5c-0.1,0-0.2,0-0.2,0
			C78.4,40.3,78.1,42.4,78.2,44.6z M79.9,37.4c0.1-1,0.1-1.8,0.1-2.6c0-0.2-0.2-0.4-0.3-0.7c-0.8,0.8-0.6,1.7-0.7,2.6
			C79.1,37.3,79.4,37.4,79.9,37.4z M82.7,22.9c-0.6,0.5-0.4,1.2-0.4,2C83,24.2,82.8,23.6,82.7,22.9z M77.5,44c0.1,0,0.2,0,0.3,0
			c0-0.5,0.1-1.1,0.1-1.6C77.2,42.9,77.2,43.4,77.5,44z M77,55.1c-0.1,0-0.2-0.1-0.2-0.1c-0.5,0.8-0.5,0.8,0,1.4
			C76.8,56,76.9,55.5,77,55.1z M81.6,29c0.1,0,0.1,0,0.2,0c0-0.3,0.1-0.5,0.1-0.8c-0.1,0-0.2,0-0.3,0C81.6,28.5,81.6,28.8,81.6,29z
			 M76.8,54.6c0.1,0,0.2,0,0.3,0.1c0-0.3,0.1-0.6,0.1-1c-0.1,0-0.1,0-0.2,0C76.9,54,76.9,54.3,76.8,54.6z"/>
		<path fill="#FFFFFF" d="M192.9,31.4c-0.1-0.1-0.2-0.4-0.3-0.4c-0.3,0-0.6,0.1-0.9,0c1.4-1.4,3.3-1.7,5-2.6c0-0.1,0-0.3,0-0.6
			c2.8-0.5,5.5-1,8.3-1.5c0.9-0.1,1.8-0.1,2.8,0c0.8,0.1,1.7,0.2,2.5,0.5c0.8,0.2,1.5,0.6,2.2,0.9c0.2,0.1,0.5,0.3,0.7,0.3
			c0.9,0,1.4,0.8,2,1.3c0.3,0.2,0.2,0.7-0.1,0.9c-0.4,0.2-0.3,0.4-0.3,0.7c0,0,0,0.1,0,0.1c0.2,0.7-0.3,1.3-0.4,1.9
			c0,0.5,0.6,1.1,0.5,1.8c-0.2,1.4-0.7,2.6-1.7,3.7c-0.4,0.4-0.7,0.9-1,1.3c-0.4,0.4-0.8,0.7-1.2,1.1c-0.2,0.2-0.4,0.4-0.6,0.6
			c-0.7,0.6-1.4,1.1-2.1,1.7c-0.2,0.2-0.4,0.3-0.7,0.6c0.4,0.3,0.8,0.7,1.2,0.9c1.8,1,3.3,2.5,4.8,3.9c0.2,0.2,0.3,0.4,0.4,0.6
			c1.2,2.1,2.4,4.1,3.5,6.3c0.6,1.2,1,2.4,1.5,3.6l0,0c-0.5-0.8-1.1-1.5-1.5-2.3c-0.5-0.9-0.9-1.9-1.5-2.7c-1.1-1.5-1.9-3.2-2.9-4.8
			c-0.2-0.4-0.6-0.8-0.8-1.2c-0.1,0.1-0.2,0.1-0.2,0.2c0.6,1,1.1,1.9,1.7,2.9c1.1,1.9,2.4,3.6,3.4,5.6c0.7,1.4,1.6,2.8,2.8,3.9
			c0.1,0.2,0.2,0.3,0.3,0.5c-0.1,0.5,0.3,0.8,0.6,1.1c0.3,0.2,0.5,0.3,0.8,0.5c0.4,0.4,0.9,0.7,1.2,1.1c0.2,0.4,0.5,0.6,0.9,0.7
			c0.7,0.2,1.5,0.1,2.2,0.3c0.2,0.1,0.5-0.2,1-0.4c0.1,0.2,0.2,0.5,0.3,0.8c0.3,0,0.6-0.1,0.8-0.1c0,0.2,0.1,0.3,0.1,0.4
			c-0.1,0.3-0.3,0.5-0.4,0.8c-0.1,0.3-0.1,0.7,0,0.9c0.3,0.5,0.3,0.9,0.1,1.4c-0.1,0.3-0.1,0.6-0.2,0.9c-0.1,0.3-0.1,0.6-0.3,1.1
			c0.4,0,0.7-0.1,1.1-0.1c-0.2,0.9-1,0.9-1.5,1.2c-0.4,0.3-0.9,0.4-1.3,0.6c-0.4,0.2-0.6,0.6-0.2,1c-0.6,0.4-1.1,0.8-1.7,1.1
			c-0.6,0.4-2,0.2-2.5-0.3c-1-0.9-2.1-1.6-3.5-2c-0.5-0.1-0.9-0.7-1.3-1.2c-0.4-0.5-0.9-1.1-1.2-1.6c-0.8-1.1-1.5-2.2-2.1-3.4
			c-0.7-1.4-1.7-2.8-2.6-4.1c-1.1-1.8-2.2-3.5-3.3-5.3c0,0,0-0.1-0.1-0.1c-0.7-1.5-1.8-2-3.4-1.7c-0.5,0.1-1.1-0.1-1.6-0.1
			c-0.3,0.3-0.7,0.6-1,1c0.1,2.8,1.2,5.6,1.4,8.5c-0.3,0-0.5-0.1-0.8-0.1c0.1,0.4,0.4,0.8-0.1,1.1c-0.1,0.1-0.1,0.4-0.1,0.6
			c0,0.6,0,1.2,0,1.9c0,0.5,0.1,1.2-0.6,1.4c-0.1,0-0.2,0.2-0.2,0.4c-0.2,0.6-0.7,0.9-1.3,1c-0.9-0.8-1-1.9-1.3-2.9
			c0,0.2-0.1,0.5-0.1,0.7c0,0.2,0.1,0.3,0.2,0.5c0.2,0.9,0.1,1.2-0.7,1.7c-0.2,0.1-0.4,0.2-0.5,0.3c-0.8-0.3-1.2-1-2-1.1
			c-0.1,0-0.2-0.3-0.3-0.5c-0.4-1.2-0.9-2.3-1-3.6c0-0.4-0.3-0.8-0.4-1.3c-0.1-0.6-0.3-1.3-0.4-1.9c0-0.5-0.1-1-0.2-1.5
			c-0.2-0.9-0.9-1.8-0.3-2.9c0.1-0.2,0.1-0.6,0-0.9c-0.1-1.5-0.3-3-0.4-4.5c0-0.5,0.1-1.1,0.1-1.6c0-0.1,0.1-0.2,0.1-0.3
			c-0.1-1.5-0.3-2.9-0.4-4.4c0-0.1,0-0.3,0-0.4c0.3-0.9,0.5-1.7,0.2-2.7c-0.1-0.4,0.2-1,0.3-1.5c0-1.3,0-2.7,0-4
			c0-0.4,0.1-0.7,0.1-1c-0.6-0.4-1.2,0.4-1.7-0.2c0.4-0.5,1.2-0.5,1.9-1c-0.9-0.1-1.6-0.2-2.3-0.2c0,0,0-0.1,0-0.1
			c0.4-0.2,0.8-0.4,1.3-0.5c-0.8-0.1-1.2-0.7-2-1c0.7-0.5,1.1-1.1,1.9-1.2C191.9,32.2,192.6,32.1,192.9,31.4
			c0.3,0.3,0.7,0.3,1.1,0.1c0.1-0.1,0.2-0.2,0.3-0.4c-0.2-0.1-0.4-0.4-0.5-0.4C193.5,31,193.2,31.2,192.9,31.4z M209.7,35.2
			c-3.9-0.8-7.6,0.4-11.3,0.9c0,0.9,0,1.6,0.1,2.4c0.1,1,0.3,2.1,0.4,3.1c0.2,0.9,0.4,1.8,0.6,2.7c0,0.2,0.2,0.3,0.3,0.4
			c0.5,0.4,1.1,0.7,1.9,0.7c-0.6-0.5-1.2-0.9-1.8-1.4c0.6-0.7,1-1.3,1.6-1.9c0.1-0.1,0.4-0.2,0.6-0.2c1-0.2,1.9,0.1,2.7,0.6
			c0.4,0.2,0.8,0.5,1.3,0c0.6-0.6,1.3-1.1,1.9-1.7c1.1-1.2,2.1-2.4,3.1-3.7c0.2-0.2,0.3-0.5,0.4-0.7c-0.1-0.1-0.1-0.1-0.2-0.2
			c-0.7,0.6-1.3,1.1-2,1.7c-0.6,0.6-1.2,1.2-1.9,1.7c-0.6,0.5-1.1,1.4-2,1.6c0-0.2,0.1-0.4,0.2-0.5c0.7-0.8,1.4-1.7,2.2-2.3
			c0.8-0.6,0.8-1.2,0.7-2C209,36.1,209.3,35.7,209.7,35.2z M200.9,51.7c-0.5,1-0.5,1-0.1,2c1.4,0.1,2.9,0.1,4.4,0.2
			c-0.2-0.7-0.8-1.1-1.3-1.1c-0.6,0-1.1-0.2-1.6-0.5C201.8,52.2,201.4,52,200.9,51.7z M212.8,30.5c0,0.5,0.1,0.9,0.2,1.4
			c0,0.2,0.2,0.3,0.3,0.4c0.3-0.3,0.7-0.5,0.9-0.8c0.3-0.4,0.2-0.9-0.2-1.2c-0.9-0.6-1.7-1.4-2.9-1.2
			C211.2,29.9,211.3,30,212.8,30.5z M205.4,30.1c0.1,0.1,0.1,0.2,0.2,0.2c0.9,0.1,1.8,0.2,2.7,0.4c0.2,0,0.5,0,0.6,0.1
			c0.6,0.5,1.3,0.4,2.1,0.5c-0.1-0.2-0.1-0.5-0.2-0.6c-0.8-0.4-1.6-0.9-2.5-1.1c-0.9-0.1-1.7,0.5-2.7,0.3
			C205.6,29.9,205.5,30,205.4,30.1z M200,30.7c-1.4-0.6-2.6-0.3-3.8,0c-0.1,0-0.2,0.4-0.3,0.6C197.3,31.1,198.5,30.9,200,30.7z"/>
		<path fill="#FFFFFF" d="M266.4,25.7c0.1,0,0.3,0.1,0.3,0.1c0.1,1.1,0.7,2.1,0.7,3.2c0,0.6,0.3,1.3,0.6,1.9
			c0.9,1.3,1.2,2.8,1.6,4.2c0.5,1.5,0.9,3,1.3,4.4c0.1,0.4,0.3,0.9,0.9,0.9c0.9-1.1,1.8-2.2,2.7-3.3c0-0.1,0.1-0.1,0.1-0.2
			c1.5-0.6,2-2.1,3.1-3c0.2-0.1,0.1-0.5,0.3-0.7c0.2-0.2,0.6-0.1,0.8-0.3c0.4-0.5,0.7-1.1,1-1.7c0.1-0.1,0.1-0.3,0.2-0.4
			c0.3-0.3,0.6-0.5,0.9-0.8c0.1-0.1,0.2-0.3,0.3-0.3c0.9,0.1,1-0.7,1.3-1.2c0.5-0.8,1-1.6,1.5-2.5c0.2,0.1,0.3,0.2,0.5,0.3
			c0.3-0.3,0.5-0.6,0.8-0.9c0.4,0.4,0.7,0.8,0.4,1.4c-0.2,0.4-0.4,0.8-0.5,1.2c-0.1,0.3,0,0.7,0,1.2c0.6-0.5,0.9-0.9,1.2-1.2
			c0.1,0.9-0.5,1.4-0.9,2.1c0.9,0.8,0.9,0.8,1.6-0.2c0.1-0.1,0.2-0.2,0.3-0.4c0.1-0.1,0.2-0.3,0.4-0.5c0.1,0.2,0.3,0.4,0.4,0.6
			c-0.2,1.2-1.6,1.9-1,3.5c0.5-0.5,0.8-0.9,1.2-1.3c0,0,0.1,0,0.1,0.1c-0.2,0.3-0.3,0.6-0.5,0.9c-0.6,1-1.3,2-1.7,3
			c-0.6,1.4-1.4,2.6-2.3,3.8c-0.3,0.4-0.7,0.7-0.9,1.1c-0.3,0.4-0.5,0.9-0.8,1.3c-0.9,1.3-1.8,2.5-2.7,3.8c0.7,0.9,1.5,1.4,2.4,1.9
			c2.2,1.4,4.5,2.7,6.3,4.6c0.5,0.5,1.3,0.9,1.8,1.4c1,0.8,1.8,1.8,2.6,2.8c0.7,0.8,1.3,2.1,2.9,1.9c-0.1,0.3-0.2,0.5-0.3,0.6
			c0.3,0.8,1.1,0.7,1.7,0.8c0.1,0.4,0.2,0.8,0.1,1.2c-0.1,0.6,0.1,0.8,0.7,0.9c0.1,0,0.2,0.1,0.3,0.1c0.5,0.7,0.9,1.4,1.5,2.1
			c-1,0.2-0.6,1.6-1.6,1.9c0.1,0.2,0.3,0.4,0.4,0.6c-0.7,0.1-1.2,0.2-1.8,0.2c-0.5,0.1-0.8,0.2-1.1,0.6c-0.1,0.3-0.7,0.6-0.9,0.5
			c-0.8-0.3-1.7-0.3-2.3-0.9c-1.6-1.4-3.2-2.7-4.8-4.1c-1.3-1.1-2.6-2.3-3.8-3.5c-1.3-1.3-2.9-2.2-4.5-3.2c-0.9-0.6-1.9-1.1-2.8-1.7
			c-0.4-0.2-0.8-0.3-1.3-0.5c-0.1,0.4-0.1,0.7-0.2,1.1c-0.1-0.4-0.2-0.7-0.3-1.1c0.1,0.6-0.3,1.2,0.3,1.8c0-0.4,0-0.6,0-0.8
			c0.3,1.4,0.6,2.7,0.9,4.1c0.4,1.6,0.4,3.4,1.1,5c0.1,0.3,0.1,0.6,0.1,0.9c0,0.3-0.1,0.5-0.2,1.1c-0.2-0.6-0.5-1-0.5-1.4
			c-0.3-1.6-0.6-3.2-0.8-4.8c-0.1-0.3,0-0.8-0.6-0.6c0,0-0.1-0.3-0.3-0.4c0.1,0.9,0,1.9,0.4,2.8c0.2,0.5,0.3,1,0.2,1.4
			c-0.2,1.2-0.2,2.4,0.3,3.7c0.2,0.6,0.3,1.2-0.4,1.8c-0.4,0.4-0.5,1.1-1.3,1.3c-0.1-0.2-0.2-0.4-0.2-0.7c-0.2-1.1-0.4-2.3-0.6-3.4
			c-0.1-0.3-0.3-0.6-0.5-0.9c0,0.7-0.2,1.5,0.3,2.2c0.1,0.2,0,0.4,0,0.6c-0.1,0.8-0.2,1.5-0.3,2.3c0,0.5-0.4,0.7-0.8,0.8
			c-0.5,0.1-1,0.1-1.2-0.4c-0.2-0.4-0.4-0.9-0.6-1.4c-0.2,0.2-0.4,0.4-0.7,0.7c-0.3-0.4-0.5-0.8-0.7-1.2c-0.2,0-0.4,0.1-0.8,0.2
			c-0.2-1.3-0.4-2.5-0.6-3.8c-0.4-2.6-0.7-5.3-1-7.9c-0.2-2.1-0.3-4.1-0.5-6.2c-0.1-1.7-0.3-3.4-0.9-5c-0.2-0.5-0.2-1.1-0.3-1.6
			c-0.1-1.7-0.2-3.5-1-5c-0.2,0-0.3,0.1-0.5,0.1c-0.1-0.1-0.1-0.2-0.1-0.3c0.1-0.5,0.1-1,0.2-1.5c0-0.2,0-0.5-0.1-0.5
			c-0.8-0.2-0.6-0.8-0.7-1.4c-0.1-0.6-0.3-1.1-0.6-1.6c-0.1-0.3-0.4-0.6-0.6-1c0.2-0.2,0.3-0.5,0.5-0.8c-0.3-0.5-0.6-0.9-0.9-1.5
			c1.1-0.6,0-1.7,0.4-2.6c0.3,0.3,0.6,0.5,0.9,0.8c0.2-0.7,0.3-1.3-0.2-1.9c-0.1-0.2-0.3-0.4-0.3-0.6c-0.1-0.4,0-0.7,0.6-0.7
			c-0.6-0.8,0.1-1.8-0.4-2.6c0.6,0.1,0.6,0.6,0.7,0.9c0.4,1.4,0.8,2.7,1,4.1c0.1,0.8,0.5,1,1.2,1.4c0-0.4,0.1-0.8,0.1-1.1
			c0.4-0.2,0.7-0.3,1.1-0.5c0.2,0.2,0.4,0.4,0.8,0.8C266.9,27.7,266.5,26.7,266.4,25.7L266.4,25.7z M274.7,58.8
			c0.2-0.4,0.2-0.4,0.2-0.5c-0.1-1.4-0.2-2.8-0.4-4.3c-0.1-0.6-0.3-0.6-1-0.3C273.8,55.4,274,57,274.7,58.8z M297.6,64.5
			c-0.1-0.6-0.3-0.9-0.9-1C296.6,64.2,296.7,64.6,297.6,64.5z"/>
		<path fill="#FFFFFF" d="M434.6,16.8c-0.1,0.2-0.1,0.5-0.2,0.7c-0.5,1-0.4,2.1-0.3,3.2c0.3,0,0.6,0.1,1,0.1
			c0.1-0.9,0.2-1.8,0.3-2.8c0.1,0,0.1,0,0.2,0c0,0.4,0,0.8,0,1.2c-0.1,0.6-0.3,1.2,0.4,1.6c0.1,0.1,0,0.3,0,0.5c0,2.2,0,4.4-0.5,6.6
			c-0.3,1.3-0.2,2.8-0.3,4.2c0,0,0.1,0.1,0.2,0.2c0.3-0.7,0.5-1.4,0.6-2.2c0.1-0.8,0.1-1.7,0.2-2.5c0.2-1.2,0.5-2.5,0.7-3.7
			c0.2-0.8,0.4-1.6,0.2-2.4c0-0.2,0-0.5,0.1-0.7c0.5-0.8,0.5-1.8,0.7-2.7c0.1,0.2,0.2,0.3,0.2,0.5c0,0.4,0,0.7-0.1,1.1
			c-0.2,2.1-0.5,4.2-0.7,6.4c-0.1,0.6-0.2,1.2-0.3,1.9c-0.2,1.3-0.4,2.6-0.7,4c0.5,0,0.8-0.1,1.2-0.1c-0.3,0.3-0.6,0.6-1,1
			c0,0.9-0.1,2-0.1,3.1c1.6-0.6,2.4,0.2,3.2,1.3c-0.2,0.3-0.4,0.6-0.8,1.1c0.5,0,0.8,0,1.2,0c0.1,0.4,0.3,0.8,0.4,1.2
			c-0.2,0.1-0.4,0.3-0.6,0.4c-0.7,0.3-1.4,0.5-1.8,1.3c-0.2,0.3-0.6,0.5-1.1,0.8c0.1,1.2,0.2,2.6,0.4,4c0.1,1.3,0.3,2.6,0.4,4
			c0.1,1.3,0.5,2.6,0.2,3.9c-0.9-3.8-1.6-7.5-1.8-11.5c-0.9,0.4-0.7,1.1-0.6,1.7c0.1,0.8,0.3,1.6,0.4,2.4c0.3,2.8,0.6,5.5,0.9,8.3
			c0,0.4,0,0.8-0.1,1.2c-0.1-0.6-0.3-1.1-0.4-1.7c0,0-0.1,0-0.1,0c0,1,0,1.9,0.1,2.9c-1-0.2-0.4,0.8-1,1.1c-0.9-0.2-1.4,0.4-1.5,1.2
			c-0.4,0.2-0.7,0.3-0.9,0.4c-0.5,0.2-0.9,0-1.1-0.5c-0.4-0.8-0.8-1.6-1.2-2.4c-0.2-0.3-0.2-0.7-0.3-1.1c-0.2-1-0.3-2-0.8-3
			c-0.4-0.9-0.5-1.9-0.7-2.9c-0.2-1.6-0.4-3.2-0.6-4.7c0-0.3-0.1-0.6-0.2-1c-2.2,0.2-4.3,0.2-6.5,1.2c0.2,2.8,0.5,5.7,0.7,8.6
			c-0.6-0.5-0.4-1.2-0.4-1.8c-0.1-0.7-0.1-1.3-0.2-2c-0.1,0-0.1,0-0.2,0c0,0.7,0,1.5,0,2.2c-0.1,0-0.1,0-0.2,0
			c-0.1-1.3-0.2-2.7-0.3-4c0.1,0.2,0.3,0.5,0.4,0.7c0,0,0.1,0,0.1,0c-0.1-1.2-0.3-2.4-0.4-3.6c0,0-0.1,0-0.1,0
			c0,0.4-0.1,0.8-0.1,1.1c-0.1-0.2-0.1-0.5-0.2-0.7c-0.1-0.2-0.1-0.4-0.3-0.6c-0.3,1.5,0,2.9,0.1,4.3c0,1.4,0.1,2.9,0.1,4.3
			c-0.1,0-0.1,0-0.2,0c-0.1-0.6-0.1-1.1-0.2-1.8c-0.5,0.2-0.3,0.5-0.3,0.8c0.1,0.4,0,0.7-0.4,0.9l0,0c-0.6,0.3-0.4,0.8-0.6,1.4
			c0.3-0.2,0.5-0.3,0.7-0.4l0,0c0.1,0,0.2,0,0.2,0c0.1,0.5,0.2,1,0.3,1.4c-0.1,0-0.2,0.1-0.2,0.1c-0.1-0.2-0.3-0.5-0.5-0.9
			c-0.6,1.5-1.6,2.8-1.7,4.4c-0.9-0.1-0.8-1.1-1.3-1.4c-0.3,0-0.7,0-1.2,0c-0.1-0.5-0.3-0.9-0.3-1.4c-0.3-2.1-0.7-4.2-1-6.3
			c-0.1-0.9,0.1-1.9-0.7-2.7c-0.2-1.4-0.7-2.7-0.6-4.1c0.1-1.4,0-2.7,0-4.1c0-1.4,0-2.7,0.1-4.1c0.1-1.9,0.3-3.8,0.4-5.7
			c0-0.4,0.1-0.7,0.2-1.1c0.9-2.4,1.1-4.9,1.3-7.4c0-0.2,0-0.4,0-0.5c0-0.2,0-0.3,0.2-0.5c0,0.2,0.1,0.4,0.1,0.5
			c-0.2,3.7-0.7,7.4-1.3,11.1c-0.2,1.4-0.5,2.8,0.1,4.3c0.1-1.1,0.2-2.2,0.3-3.3c0.4-2.4,0.8-4.8,1.1-7.2c0.4-2.8,0.4-5.6,0.4-8.4
			c0-0.9,0.2-1.7,0.6-2.5c0.2-0.4,0.2-1.1,0.2-1.6c0-0.6-0.1-1.2-0.2-1.8c-0.1-0.7,0.3-1.2,0.6-1.7c0.1-0.1,0.4-0.1,0.6-0.2
			c0,2.3,0,4.5-0.1,6.8c0.4-0.2,0.7-0.3,0.7-0.7c0-0.3-0.3-0.7,0.2-0.9c0.3-0.1,0.5-0.2,0.8-0.3c0.1,0,0.2-0.1,0.3-0.1
			c0.1,0.5,0.1,0.9,0.1,1.4c0.1,0,0.1,0,0.2,0c0.1-0.4,0.2-0.8,0.2-1.2c0.3,0.7-0.5,1.5,0.2,2.2c0.5,0.1,0.6-0.3,0.6-0.6
			c0-0.5,0-1,0-1.6c0-0.4,0.1-0.8,0.1-1.2c0.1,0,0.1,0,0.2,0c0,0.9,0.1,1.7,0.1,2.7c1,0.4,1,1.3,1,2.2c0,1.5-0.1,3-0.1,4.4
			c0,0.6,0,1.2-0.1,1.9c0.9-1.3,1-5.5,0.5-10.5c0.2,0.3,0.4,0.5,0.6,0.7c0-0.3,0.1-0.5,0.1-0.7c0.1,0,0.2,0,0.2,0.1
			c0.2,0.6,0.4,1.2,0.4,1.8c0,2.8-0.1,5.7-0.6,8.5c-0.3,1.8-0.6,3.6-0.8,5.4c-0.1,0.5-0.2,1-0.3,1.5c-0.1,1-0.2,1.9-0.3,3
			c0.6,0.3,1.1,0.2,1.7,0.2c1.2-0.1,2.5-0.2,3.7-0.3c-0.3,0.1-0.5,0.2-0.8,0.3c-1.4,0.2-2.8,0.3-4.2,0.4c-0.2,0-0.4,0.1-0.6,0.2
			c1.4,0.5,2.7-0.1,4.3,0.3c-0.9,0.6-1.6,0.1-2.2,0.3c-0.7,0.2-1.4,0.2-2,0.3c0,0.5-0.1,0.8-0.1,1.2c1.2,0.4,2.2,0.1,3.3,0
			c0.8-0.1,1.6-0.1,2.5-0.1c0-0.3,0.2-0.8,0-1.2c-0.2-0.5,0-0.9,0-1.3c0-0.1-0.2-0.1-0.2-0.2c0.1-0.2,0.4-0.5,0.4-0.7
			c0.2-1.1,0.3-2.3,0.4-3.4c0.1-1,0-2,0.2-3.1c0,0.6,0,1.1,0,1.7c0,0,0.1,0,0.1,0c0.4-2.6,0.9-5.3,1.3-7.9c0,1.9-0.1,3.8-0.5,5.7
			c0.3-0.4,0.7-2,0.7-2.5c0.1-1.3,0-2.7,0.8-4c0.1-0.2,0.2-0.6,0.1-0.9c0-0.5,0.2-0.8,0.5-1c0,0.4,0,0.7,0.1,1.2
			c0.6-0.6,0-0.9-0.1-1.2c0-0.3,0-0.6,0.1-0.9c0.2-0.7,0.2-1.3-0.1-1.9c-0.1-0.3,0-0.8,0.1-1.1c0.1-0.2,0.4-0.3,0.8-0.6
			c0.1,0.5,0.3,0.8,0.3,1.2c-0.1,0.9-0.2,1.7-0.3,2.6c-0.1,0.6-0.2,1.1,0.4,1.6c0.2,0.2,0.3,0.7,0.4,1c0.1,0.2,0.2,0.4,0.3,0.6
			c0.1,0,0.2,0,0.3,0c0.1-0.3,0.1-0.7,0.2-1c0-0.3,0-0.6,0.1-0.9c0.4-0.6,0.8-1.2,0.9-2C434.3,16.8,434.5,16.8,434.6,16.8
			L434.6,16.8z M435.1,34.9c0.1,0,0.3,0,0.4,0c0-0.3-0.1-0.7-0.1-1c-0.1,0-0.2,0-0.3,0C435.1,34.3,435.1,34.6,435.1,34.9z M436,52.1
			c-0.1,0-0.1,0-0.2,0c0,0.4,0.1,0.8,0.1,1.2c0.1,0,0.2,0,0.2,0C436.1,52.9,436,52.5,436,52.1z M420.8,31.4c0,0-0.1,0-0.1,0
			c-0.1,0.4-0.1,0.8-0.2,1.2c0.1,0,0.1,0,0.2,0C420.7,32.2,420.8,31.8,420.8,31.4z M421.3,28.1c0,0,0.1,0,0.1,0
			c0.1-0.3,0.1-0.5,0.2-0.8c-0.1,0-0.1,0-0.2,0C421.4,27.5,421.4,27.8,421.3,28.1z M420.1,36.9c0.1,0,0.1,0,0.2,0.1
			c0-0.3,0.1-0.6,0.1-0.9c0,0-0.1,0-0.1,0C420.2,36.4,420.1,36.6,420.1,36.9z M420.5,34.1c0,0,0.1,0,0.1,0c0-0.2,0-0.4,0-0.6
			c0,0,0,0-0.1,0C420.6,33.7,420.5,33.9,420.5,34.1z"/>
		<path fill="#FFFFFF" d="M392.7,25.6c0.3,0.2,0.6,0.5,0.9,0.7c-0.6,0.5-0.1,1,0.1,1.2c1.7,1.6,3.4,3.1,5.1,4.7
			c0.1,0,0.1-0.1,0.2-0.1c-0.5-0.5-1-1.1-1.5-1.6c0.6,0.1,0.9,0.5,1.2,0.8c0.3,0.3,0.9,0.1,1,0.7c0.3-0.4,0.7-0.7,0.9-1.2
			c0.2-0.4,0.3-0.8,0.4-1.2c0.2-1,0.5-2,1.4-2.7c0.3-0.2,0.7-0.6,0.5-1.2c-0.1-0.2,0.1-0.5,0.2-0.7c0.9-1.2,1.4-2.6,1.5-4.1
			c0-0.1,0.2-0.2,0.3-0.3c0.3,0.9,0.3,0.9,1.4,0.7c-0.3,0.5-0.4,0.6-1.5,1c0.1,0.2,0.3,0.4,0.3,0.6c0.1,0.4,0.6,0.8-0.1,1.2
			c-0.1,0.1,0,0.5,0,0.7c0.1,0,0.2,0.1,0.3,0.1c0.3-0.3,0.6-0.6,0.8-1c0.3-0.3,0.5-0.7,0.7-1.1c0.1-0.2,0.2-0.4,0.2-0.6
			c-0.1-1.4,0-1.4,0.8-2.4c0.4-0.5,1.3-0.9,1.2-1.8c0.7-0.3,0.7,0.4,1.1,0.6c0.7-0.3,1.4-0.7,2.2-1.1c0,0.3,0.1,0.7,0.2,1.1
			c-0.5,0.2-1.2,0.3-0.9,1.1c-0.4,0.3-0.3,0.9-0.9,1.2c-0.4,0.2-0.6,0.8-0.8,1.3c-0.5,1.2-1.2,2.4-1.1,3.9c0.5-0.2,1-0.3,1.4-0.8
			c0.2-0.2,0.6-0.2,1-0.3c0.2,0.3,0.3,0.6,0.5,0.9c0,0,0,0.1,0,0.1c-0.8,0.6-0.1,1.8-0.9,2.5c0.3-0.1,0.6-0.3,1-0.5
			c0.1,0.5,0.2,0.9-0.3,1c-0.6,0.1-0.8,0.5-1.2,0.8c-1.4,1.2-1.7,2.9-2.2,4.5c-0.5,1.7-0.2,3.4-0.5,5c-0.4,2.3-0.6,4.7-1,7
			c-0.1,0.7-0.4,1.4-0.3,2.2c0.1,0.4-0.3,0.8-0.6,1.4c-0.3-1.4,0-2.5,0.2-3.7c0.4-2.1,0.7-4.2,1-6.2c0.1-1,0.1-2.1,0.3-3.1
			c0.1-0.5-0.1-0.6-0.4-0.8c-0.1,0.3-0.2,0.4-0.3,0.6c-0.2,1.2-0.4,2.4-0.5,3.6c0,0.3,0.2,0.6,0.3,0.9c-0.1,0.1-0.4,0.3-0.5,0.4
			c-0.2,1.7-0.4,3.3-0.7,5c-0.3,1.8-0.4,3.7-1.5,5.3c-0.9,1.4-1.1,3.1-1.5,4.6c-0.2,0.7-0.1,1.5-0.3,2.2c-0.3,1.1-0.6,2.2-1,3.4
			c-0.3,1-0.6,1.9-1,2.8c-0.4,0.9-0.9,1.6-2,1.6c-0.3,0-0.7,0.3-1.1,0.5c0.2-0.2,0.3-0.4,0.3-0.5c0-0.2-0.1-0.6-0.3-0.6
			c-0.6-0.1-1.3-0.6-1.8,0.2c-0.5-0.4-0.7-1.2-1.6-1c0.2-0.2,0.4-0.4,0.7-0.6c-0.7-0.5-0.9-1.2-0.8-2c0.1-0.6,0-1.3,0.6-1.7
			c0.1,0,0.2,0.1,0.4,0.1c1,0.3,1.1,0.2,1.3-0.8c0.1-0.7,0.2-1.3,0.4-2.2c-0.3,0.2-0.5,0.3-0.7,0.5c-0.2-0.8-0.2-1.6-0.4-2.4
			c-0.2-0.5,0-1.3,0.3-1.8c0.3-0.6,0.2-1.1,0.2-1.7c0.2-0.3,0.5-0.6,0.6-0.9c0.4-1.9,0.7-3.8,1-5.7c0.1-1-0.4-1.9-1.1-2.5
			c-2.9-2.4-5.6-5-8.1-7.7c-1.8-2-3.3-4.2-4.8-6.3c-1-1.3-1.8-2.8-2.7-4.2c-0.3-0.5-0.5-1.1-0.6-1.6c-0.1-0.7-0.5-1.3-0.8-1.9
			c-0.2-0.5-0.4-1-0.7-1.6c0.6,0.1,1,0.1,1.6,0.2c0.1,1.2,1.5,0.8,2.2,1.7c0.3-0.9,0.3-1.6-0.1-2.3c-0.3-0.4-0.6-0.8-1-1.2
			c-0.5-0.5-0.9-1-0.7-1.8c0.9-0.2,1.7,0,2.4,0.7c0.4,0.4,0.9,0.9,1.4,1.1c0.8,0.3,1.4,0.8,1.8,1.5c1.3,0.4,1.6,1.7,2.4,2.5
			c0.2,0.2,0.5,0.4,0.7,0.6c0.1,0,0.1-0.1,0.2-0.1c0-0.2-0.1-0.5-0.2-0.8c0.2,0,0.4-0.1,0.9-0.2c-0.5,0.7-0.3,1.2,0.4,1.5
			c-0.3,0.1-0.4,0.2-0.6,0.3c0.1,0.1,0.3,0.4,0.4,0.3c0.6-0.2,0.9,0.2,1.2,0.5c0.5,0.6,1.1,1.1,1.8,1.6
			C392.7,26,392.7,25.8,392.7,25.6L392.7,25.6z M402.2,29.6c-0.1,0-0.2,0-0.3,0c0.5,0.8-0.4,1.2-0.2,2c0.4-0.3,0.2-1.3,1-0.7
			c0.1-0.3,0.2-0.5,0.2-0.7C402.8,30,402.5,29.8,402.2,29.6z M392.1,26.6c0.1-0.1,0.1-0.1,0.2-0.2c-0.3-0.2-0.5-0.3-0.8-0.5
			c0,0.1-0.1,0.1-0.1,0.2C391.6,26.3,391.9,26.5,392.1,26.6z M384.9,20.9c0.1-0.1,0.1-0.1,0.2-0.2c-0.2-0.2-0.4-0.3-0.6-0.5
			c0,0-0.1,0.1-0.1,0.1C384.5,20.6,384.7,20.8,384.9,20.9z M394.3,29c0.1-0.1,0.2-0.2,0.2-0.3c0-0.1-0.1-0.2-0.2-0.2
			c-0.1,0.1-0.2,0.1-0.3,0.2C394,28.8,394.1,28.9,394.3,29z M403.9,27.8C403.9,27.8,403.9,27.8,403.9,27.8c0.1-0.2,0.1-0.5,0.1-0.7
			c0,0,0,0-0.1,0C403.9,27.3,403.9,27.6,403.9,27.8z"/>
		<path fill="#FFFFFF" d="M173.3,57.5c0.6-0.7,1.4-0.6,2.2-0.5c0.2,0,0.4,0,0.6,0c0-0.1,0-0.2,0-0.2c-0.5-0.1-0.9-0.1-1.4-0.2
			c-0.3-0.1-0.6-0.3-0.8-0.5c-0.4-0.2-0.9-0.4-0.8,0.5c-0.3-0.5-0.6-0.8-0.9-1.2c0.6,0,1.1,0,1.5,0.1c0.5,0,1.1,0.2,1.6,0.1
			c0.7,0,1.2,0.1,1.8,0.5c0.7,0.6,1.7,0.4,2.5,0.4c0.4,0,0.9,0,1.3,0c0.2,0,0.5,0,0.6-0.1c0.5-0.4,1.1-0.2,1.6-0.3
			c0.9-0.2,1.7-0.1,2.4,0.4c0.2,0.2,0.6,0.1,1,0.1c0.4,0,0.8-0.2,1.3-0.3c-0.2,0.3-0.3,0.4-0.4,0.6c0.5,0.5,0.9,0,1.4-0.1
			c-0.7,1.7-2.2,2.1-3.7,2.4c-0.2,1-0.2,1,1.2,0.9c0,0,0,0.1,0,0.1c-0.1,1.7,0.1,1.4,1.6,1c0,0.3,0.1,0.7,0,0.8
			c-0.5,0.4-0.5,1.3-1.2,1.4c-0.1,0-0.2,0.1-0.2,0.1c-0.3,1-1.2,0.9-1.9,1.1c-1.9,0.6-3.9,0.6-5.9,0.9c-0.2,0-0.4,0-0.6,0
			c-2.5-0.4-5-0.7-7.5-1.2c-0.6-0.1-1.3-0.5-1.9-0.7c-0.2,0-0.4,0-0.6-0.1c-0.1,0.2-0.2,0.4-0.3,0.8c-0.2-0.4-0.4-0.7-0.6-1.1
			c-0.9,0.1-1.2-0.6-1.7-1.3c0.6-0.8,0.1-1.6-0.1-2.4c0.3-0.1,0.7-0.2,0.8-0.4c0.2-0.2,0.1-0.6,0.2-1c0.1-0.3,0.1-0.7,0.2-1
			c0.1-0.8,0.2-1.5,0.2-2.3c0-1.4-0.1-2.8-0.1-4.2c0-0.4,0-0.7-0.3-1c-0.2-0.2-0.1-0.6-0.2-1c-0.6-0.1-1.2-0.1-2-0.2
			c0.5-0.2,0.8-0.3,1.3-0.4c-0.6-0.7-0.7-1.3,0.1-1.9c-0.5,0-0.9,0-1.4-0.1c0.7-0.5,1.8,0.2,2.5-1c-0.2-0.1-0.5-0.3-0.7-0.3
			c0-0.3,0-0.4,0-0.4c0.6-0.3,0.6-0.8,0.6-1.3c-0.1-1.8,0.1-3.5,0.4-5.3c0.1-0.9,0.1-1.8,0-2.6c-0.8,1.2-1,2.6-1.5,4
			c0.2-1,0.4-2,0.6-3c0.2-0.8,0.6-1.6-0.4-2.1c-0.1-0.6-0.3-1-1.1-1c0,0.1,0,0.3-0.1,0.5c-0.3-0.2-0.5-0.3-0.9-0.6
			c0.3-0.2,0.6-0.3,0.9-0.5c-0.1-0.1-0.3-0.3-0.2-0.4c0.1-0.3,0.5-0.6,0-0.9c-0.3-0.1-0.5-0.2-0.9-0.4c0.7-0.3,1.4-0.7,2.1-0.9
			c0.7-0.2,1.5-0.2,2.3-0.4c-0.5-0.1-1-0.2-1.6-0.3c0.5-0.9,0.9-1.6,1.4-2.5c-0.8,0-1.4,0-2,0c0-0.1,0-0.2,0-0.2
			c0.7-0.1,1.5-0.2,2.3-0.3c0.1-0.1,0.2-0.2,0.3-0.4c0.3-0.6,0.8-0.9,1.5-0.9c1.3,0,2.6-0.2,3.8,0.1c0.1,0,0.2,0,0.2,0
			c0.9-0.6,1.9-0.3,2.9-0.5c0.9-0.2,1.9-0.3,2.8-0.5c0.7-0.1,1.4,0.2,2.2,0.2c0.9,0.1,1.9,0.2,2.8,0.4c0.2,0,0.3,0.2,0.7,0.4
			c-0.6,0.1-0.9,0.2-1.3,0.2c0.2,0.8,1.5,1.3,3,1.2c-0.6,0.2-1.3,0.4-1.9,0.6c-0.5,0.2-1,0.6-1.4,1c-0.3,0.3-0.2,0.9-0.3,1.3
			c0.9,0.5,1.6,0.7,2.5,0.5c0.4-0.1,0.8,0.2,1.5,0.4c-0.6,0.5-1.2,0.7-1.3,1.1c-0.2,0.8-0.9,0.4-1.2,0.8c0.1,0.7-0.2,1.1-0.9,1.1
			c-1,0-1.9,0.4-2.8,0.8c-1.1,0.5-2.2,0.8-3.4,1c-1.8,0.4-3.7,0.7-5.6,1c-0.2,0.6-0.7,1.2-0.2,2c0.1,0.1,0,0.4-0.1,0.6
			c-0.1,0.6-0.1,1.2-0.2,1.9c1.3-0.2,2.5-0.3,3.6-0.5c0.7-0.1,1.4-0.2,2.1-0.1c2,0.3,3.9,0.1,5.7-0.8c0.3,0.2,0.7,0.4,1.1,0.6
			c-1,0.6-1.9,1.1-2.8,1.7c-0.1,0.4-0.2,0.7-0.2,1.1c0,0.3,0.1,0.6,0.2,1c0.7,0,1.4-0.1,2.1-0.1c0.2,0.2,0.3,0.5,0.6,0.9
			c-0.2,0.2-0.5,0.4-0.7,0.6c-0.6,0.5-1.5,0.7-1.7,1.6c0,0.1-0.1,0.1-0.2,0.2c-1.3,0.5-2.3,1.6-3.7,2c-1.9,0.4-3.8,1.3-5.8,1.4
			c-0.3,0-0.6,0.1-1,0.2c0,1,0,2,0.5,3c0.4,0.8,0.3,1.7,0.2,2.6c-0.3-1-0.6-2-1.6-2.6c-0.1,0.6-0.1,1.3-0.2,1.9
			c-0.6-1.6,0.3-3.1,0-4.8c-0.2,0-0.4-0.1-0.6-0.1c-0.1,1.9-0.1,3.8-0.2,5.6c0.7,0.6,1.5,0.2,2.2,0.5c0.6,0.3,1.5,0.2,2.3,0.3
			C173.1,57.1,173.2,57.3,173.3,57.5c-0.2-0.1-0.3-0.3-0.5-0.3c-0.6,0-1.2,0-1.9,0c0,0,0,0,0,0.1C171.7,57.3,172.5,57.4,173.3,57.5z
			 M170,36.6c-0.1,0-0.1,0-0.2,0c-0.2,0.4-0.4,0.9-0.6,1.4c-0.4-0.4,0.2-0.9-0.5-1.3c-0.4,1.6,0.2,3.2,0.1,4.7
			c0.8-0.2,0.9-0.8,1-1.3C170,38.9,170,37.8,170,36.6z M170.4,39.6c-0.1,0.1-0.2,0.1-0.2,0.2c0.1,0.2,0.2,0.3,0.4,0.5
			c0,0,0.2-0.1,0.2-0.1C170.7,39.9,170.6,39.8,170.4,39.6z M176.3,56.4c0-0.1,0.1-0.1,0.1-0.2c-0.2-0.1-0.3-0.2-0.5-0.3
			c0,0.1-0.1,0.2-0.1,0.3C176,56.3,176.1,56.3,176.3,56.4z"/>
		<path fill="#FFFFFF" d="M358.6,46.9c1.5-0.4,1.1-2.1,2-2.8c0.6-0.2,0.4,1.1,1.2,0.6c1-2.4,1.2-4.9,1.6-7.5
			c0.3-1.7,0.6-3.4,0.8-5.1c0.1-0.5,0-1.1-0.1-1.6c-0.1-0.5,0.1-0.7,0.3-1.2c-0.4-0.2-0.7-0.4-1.1-0.6c0.1-0.5,0.2-1,0.3-1.7
			c1.1,0.4,2.2,0.9,3.5,1.4c0.9-0.2,1-1.1,1.2-2c0.2,0.2,0.3,0.3,0.4,0.4c0.1,0.1,0.2,0.2,0.4,0.4c0.3-0.5,0.6-0.9,1-1.4
			c0.2,0.1,0.3,0.2,0.5,0.4c0.2,0.2,0.4,0.4,0.7,0.4c0.6,0.1,0.9,0.4,1,0.9c-0.4,0.3-0.7,0.6-1.1,0.9c0.4,0.6,0.4,0.6,1,0.5
			c0,0.3-0.1,0.5-0.1,0.7c0.3,0.2,0.5,0.3,1,0.6c-0.4,0-0.6,0-0.8,0.1c0.1,0.4,0.1,0.8,0.2,1.2c0.1,0.3,0.3,0.5,0.7,0.5
			c1.1,0,1.2,0.2,0.9,1.1c0.6,0.8,1.1,1.4,1.6,2.2c0.2,0.4,0.3,0.8,0.5,1.2c0.1,0.3,0.3,0.5,0.4,0.7c-0.2,0-0.5,0.1-1.1,0.2
			c0.7,0.7,0.8,1.6,1.7,1.9c0.2,0.1,0.3,0.6,0.4,0.9c0.2,0.7,0.3,0.8,1.1,0.4c0.1,0.3,0.2,0.5,0.4,0.9c0.3-0.5,0.5-0.8,0.7-1.3
			c0.6,1.1,1.6,1,2.6,0.9c1.1-0.2,2.2-0.1,3.3,0.3c-0.9,0.3-0.9,0.3-1.7,0.1c-0.7-0.2-2.2,0-3.2,0.5c0.2,0.2,0.4,0.5,0.5,0.5
			c0.6,0,0.9,0.3,1,0.9c-0.6-0.1-1.3-0.2-1.5,0.5c-0.2,0.7-0.5,0.8-1.1,0.6c-0.2,0.9,0,1.6,0.2,2.3c0.1,0.5,0.6,0.8,0.9,0.8
			c0.9-0.1,1.5,0.4,2,1c0.5,0.7,1.3,0.7,2.2,1.2c-0.7,0-1.3,0-1.8,0c0,0.1,0,0.1,0,0.2c0.4,0.1,0.7,0.2,1.1,0.3
			c0,0.3-0.1,0.5-0.1,0.9c-0.5,0-1,0-1.4,0c-0.2,0.4-0.3,0.8-0.6,0.9c-0.6,0.4-0.5,0.8-0.3,1.3c0.4,0.8,0.8,1.7,1.1,2.5
			c0.1,0.3,0.1,0.6,0.2,1c0.1,1.1,0.6,1.6,1.6,1.8c-0.4,0.9,0.6,1.4,0.7,2.3c-0.5-0.2-0.8-0.3-1.2-0.4c-0.4,0.8-0.7,1.6-1.1,2.5
			c-0.9,0.1-1.4-0.7-1.8-1.5c-0.6-1.1-1.1-2.2-1.5-3.3c-0.6-1.7-1.2-3.4-1.8-5.2c-0.4,0-0.8,0-1.2,0.1c-2.3,0.3-4.7,0.7-7,1
			c-0.6,0.1-1,0.2-1.2,0.9c-0.5,1.6-1.1,3.2-1.8,5.1c-0.1-0.5-0.1-0.7-0.1-1.1c-0.6,1.2-1.2,2.3-1.8,3.5c-0.6-0.3-0.9-0.1-1.1,0.5
			c-0.2,0.8-0.7,1.2-1.5,1.1c-0.1,0-0.3,0-0.4,0.1c-0.6,0.6-1,0.2-1.5-0.2c-0.1,0.1-0.3,0.2-0.6,0.5c0.1-0.7,0.2-1,0.3-1.5
			c-0.4,0-0.7-0.1-1-0.1c-0.3-1.6,1-2.9,0.5-4.7c-0.5,0.8-0.9,1.4-1.3,1.9c-0.4-0.8-0.6-1.8-0.1-2.7c0.6-1.2,0.7-2.4,1.1-3.6
			c0.5-1.5,0.5-1.5-0.4-2.8c0.1-0.6,0.1-1.3,0.2-2.1c0.4,0.2,0.8,0.3,1.2,0.5c0.1-0.3,0.3-0.7-0.2-0.7c-0.9,0-1.2-0.6-1.4-1.2
			C358.8,47.2,358.8,47.1,358.6,46.9z M373.3,37.2c-0.1,0-0.2,0.1-0.3,0.1c-0.3,1.9-0.6,3.8-0.9,5.8c1-0.3,1.9-0.5,2.8-0.8
			c-0.4-0.2-0.7-0.4-1.1-0.6c0.4-0.3,0.7-0.5,1-0.8C374.3,39.6,373.8,38.4,373.3,37.2z M369.7,27.5c0.1,0,0.1,0.1,0.2,0.1
			c0.2-0.2,0.5-0.3,0.7-0.6c0.1-0.1-0.1-0.4-0.2-0.6c-0.2,0.1-0.5,0.1-0.5,0.2C369.7,26.9,369.7,27.2,369.7,27.5z M374.1,45.2
			c-0.9,0.2-1.6,0.4-2.3,0.5C372.8,46,373,45.9,374.1,45.2z M380.1,41.7c0,0.5-0.1,0.8-0.1,1.3c0.2-0.1,0.4-0.2,0.5-0.2
			C380.2,42.5,380.9,42,380.1,41.7z M369.7,29.7c0.1,0,0.2,0,0.3,0.1c0-0.3,0.1-0.6,0.1-0.9c-0.1,0-0.1,0-0.2,0
			C369.9,29.1,369.8,29.4,369.7,29.7z"/>
		<path fill="#FFFFFF" d="M137.3,54.9c0.5,0.8,0.6,1.7,0.8,2.6c0.2,1,0.3,2,0.5,3c0.1,0.5,0,0.9,0.1,1.4c-0.1,0-0.2,0-0.3,0
			c-0.1-1-0.3-2-0.4-2.9c-0.9,0.2-1,0.3-0.9,1c0.1,0.7,0.3,1.4,0.4,2.1c0.1,1.1,0.2,2.2,0.2,3.3c-0.5-1.7-0.6-3.4-1-5.2
			c-0.2,0.1-0.2,0.2-0.2,0.2c0.1,1,0.1,2.1,0.2,3.1c0.1,0.9,0.4,1.8,0.5,2.7c0.1,0.6,0.1,1.2-0.5,1.6c-0.2,0.1-0.3,0.4-0.4,0.6
			c-0.3,0-0.7,0.1-1.1,0.1c-0.3-0.6-1.1-0.8-1.2-1.6c-0.3-1.4-0.6-2.7-0.9-4.1c-0.1-0.3-0.2-0.5-0.3-0.9c-0.2,0.2-0.3,0.3-0.4,0.4
			c-0.5-1.2-1.1-2.4-1.6-3.7c0.3,1,0,2.2,1,3c-0.9,1.3,0.4,2.4,0.3,3.7c-0.3,0-0.4-0.2-0.5-0.5c-0.5-2.1-0.8-4.2-1.6-6.2
			c-0.2-0.4-0.1-0.9-0.2-1.3c-0.1-0.3-0.3-0.5-0.6-0.5c-1.2,0.2-2.4-0.1-3.6,0.1c-0.8,0.1-1.7,0-2.5,0c-0.4,1.7-0.7,3.4-1.2,5.1
			c-0.5,1.6-0.5,3.4-1.4,5.1c-0.2-0.5-0.3-0.9-0.5-1.4c-0.3,0.3-0.5,0.5-0.7,0.7c-0.5,0.5-1,0.3-1.3-0.2c-0.6-0.9-0.4-2-0.4-3
			c0-0.7,0-1.4,0.1-2.1c0.1-0.7,0.3-1.4,0.4-2.1c0.1-0.5,0.2-1.1,0.4-1.6c0.5-1.4-0.3-2.3-1.2-3.1c-0.2-0.2-0.4-0.3-0.6-0.5
			c-0.5-0.6-0.3-1.4,0.3-1.9c0.3-0.2,0.6-0.4,1-0.6c-0.1-0.4-0.2-0.7-0.3-1c0-0.2,0-0.4-0.1-0.6c0.1-0.1,0.2-0.1,0.3-0.1
			c0.5,0,1.1,0.1,1.4-0.1c0.5-0.5,0.9-1.1,1-1.9c0-0.2,0.1-0.4,0.1-0.5c-0.2-0.1-0.4-0.2-0.5-0.3c0,0,0.1-0.1,0.1-0.1
			c0.6,0.1,0.8-0.4,0.9-0.8c0.7-1.8,1.5-3.7,2.1-5.6c0.3-0.9,0.5-1.8,0.8-2.6c0.3-0.7,0.5-1.6,1.4-2c0.3-0.1,0.4-0.5,0.5-0.8
			c0.2-0.5,0.2-1,0.9-1.3c0.4-0.2,0.5-0.9,0.5-1.6c-0.1-1.9,0-3.9-0.1-5.9c0.8,0.5,0.2,1.4,0.9,2c0.1-1.1,1-1.2,1.7-1.5
			c0.4,0.6,0.8,1.1,1.2,1.7c0.2-0.2,0.3-0.3,0.5-0.5c0.3,0.5,0.5,1,0.7,1.5c-0.1-0.1-0.3-0.2-0.4-0.2c0,0.2,0,0.4,0.1,0.5
			c0,0.1,0.2,0.1,0.3,0.2c0.3,0.5,0.5,1.1,0.2,1.7c-0.2,0.6,0,1,0.2,1.5c0.3,0.9,0.4,1.9,0.7,2.9c0.5,2.4,1,4.9,1.5,7.3
			c0.2,1,0.3,2,0.5,2.9c0.3,0,0.5,0.1,0.7,0.1c0-0.1,0.1-0.1,0.1-0.1c-0.5-3.2-1-6.4-1.5-9.6c0.1,0,0.2,0,0.2,0
			c0.2,1,0.4,2.1,0.6,3.1c0.5,2.4,0.9,4.8,1.4,7.2c0.1,0.6,0.5,0.4,1.1,0.1c-0.3,0.3-0.4,0.4-0.6,0.6c0.4,0.1,0.6,0.2,1.2,0.3
			c-0.6,0.3-0.9,0.5-1.4,0.7c0.1,0.5,0.2,1,0.2,1.6c0.6,0,1.2-0.1,1.9-0.1c0.2,0.8-0.7,0.1-0.8,0.6c0.3,0.2,0.7,0.4,1.1,0.6
			C138.2,52.5,137,53.3,137.3,54.9c-0.2-0.3-0.3-0.6-0.6-1.1c-0.1,0.3-0.3,0.6-0.3,0.8c0.2,1,0.6,2,0.8,2.9c0.5-0.4,0.1-1,0.1-1.5
			C137.4,55.6,137.3,55.2,137.3,54.9z M127.6,43.3c-1.2,0.8-0.4,1.9-0.7,3c-0.2-0.5-0.3-0.8-0.4-1.1c-0.3,1-0.5,2-0.8,3
			c0.6-0.2,1.1-0.4,1.7-0.5c0.5-0.2,0.8-0.5,0.7-1.1C127.9,45.5,127.8,44.5,127.6,43.3z M136.1,48.9c-0.4,0.1-0.8,0-0.8,0.6
			c0,0.7,0.2,0.9,1,1C136.3,50,136.2,49.5,136.1,48.9z"/>
		<path fill="#FFFFFF" d="M141.1,35.2c-0.2,0.3-0.2,0.4-0.3,0.7c-0.1-0.9,0.4-1.9-0.5-2.5c0.9-0.6,0.7-1.6,0.9-2.7
			c0.5,0.9,0.6,1.8,1.4,2.2c-0.4-0.6-0.6-1.2-0.1-1.9c0.2-0.3-0.1-0.8-0.2-1.3c-0.1-0.4-0.2-0.8-0.3-1.1c0.5-0.2,0.7-0.2,0.8,0.2
			c0.2,0.6,0.4,1.1,0.5,1.7c0.1,0.6,0.2,1.3,0.3,1.9c0.4,0.2,0.7,0.4,1,0.5c0.4-0.7,0.4-0.7,0.4-2c0,0.2,0.1,0.5,0.1,0.7
			c0,1.2,0.3,2.4,0.8,3.5c0.3,0.6,0.5,1.3,0.7,2c0.2,0.4,0.2,0.9,0.8,1.1c0.4,0.1,0.5,0.6,0.7,0.9c0.6,1.1,0.5,2.5,1.3,3.6
			c0.4,0.5,0.5,1.3,0.6,1.9c0.1,0.8,0.4,1.6,1,2.1c-0.3,0.1-0.4,0.2-0.7,0.3c0.4,0.8,0.9,1.4,1.1,2.2c0.2,0.7,0.1,1.6,0.2,2.4
			c0.1,0,0.2,0,0.3,0c0.2-0.4,0.5-0.9,0.6-1.3c0.3-1.1,1-2.1,0.9-3.3c0-0.1,0.2-0.3,0.3-0.5c0.7-1,1.3-2.1,1.6-3.3
			c0.2-0.7,0.4-1.4,1-1.8c0.2-0.1,0.3-0.4,0.4-0.7c0.3-0.7,0.6-1.4,1-2.1c0.8-1.3,0.8-2.8,0.9-4.2c0-0.8,0.2-1.3,1-1.6
			c0.2,0.4,0.5,0.8,0.8,1.4c0.8-1.7,1.5-3.2,2.3-4.9c0.4,1.1,0.4,2-0.2,3c-0.4,0.6-0.4,1.4-0.5,2.1c0,0.1,0.4,0.4,0.4,0.4
			c0.8-0.5,1.3,0.3,2,0.5c0.1,0,0.2,0.1,0.3,0.2c0.2-0.2,0.4-0.5,0.6-0.7c0.1,0,0.1,0.1,0.2,0.1c0,0.2,0,0.4,0,0.6
			c-0.6,2-1.1,3.9-1.7,5.8c-0.3,0.9-0.9,1.7-1.3,2.6c-0.1,0.3-0.2,0.6-0.3,0.9c-0.6,1.1-1.1,2.1-1.7,3.2c-0.5,1-1,1.9-1.4,2.9
			c-0.5,1.1-1.1,2.1-1.6,3.2c-0.8,1.8-1.5,3.5-2.2,5.3c-0.1,0.2-0.1,0.5,0,0.6c0.5,0.9,0.2,1.9,0.4,2.8c0,0.2-0.1,0.4-0.2,0.6
			c-0.5,0.1-0.9,0.2-1.1,0.2c-0.5,0.6-0.9,1-1.3,1.5c-0.2,0.4-0.4,0.8-0.5,1.2c-0.2,0.6-0.3,1.2-0.5,1.9c-0.1,0-0.1,0-0.2,0
			c0-0.3,0.1-0.7,0.1-1.1c-0.6-0.1-0.6,0.3-0.7,0.6c-0.2,0.8-0.3,1.6-0.6,2.3c-0.1,0.2-0.3,0.5-0.6,0.6c-1,0.3-2,0.6-3.1,0.9
			c-1-0.6-0.4-1.4-0.1-2.3c-0.8-0.1-0.7-0.9-1.1-1.3c-0.1,0,0-0.3,0.1-0.4c0.7-0.7,0.8-1.6,1.3-2.4c0.3-0.5,0.6-1.2,0.5-1.9
			c0-0.2-0.1-0.4-0.1-0.6c-0.1-0.3-0.2-0.6-0.4-0.9c-0.2,0.2-0.4,0.4-0.7,0.7c-0.1-0.8,0.8-1.5,0.3-2.4c-0.3,0.1-0.5,0.3-0.8,0.4
			c0-0.1-0.1-0.2,0-0.2c0.7-1,0.3-2,0-3c-0.6-2.2-1.3-4.4-1.9-6.6c-0.6-2.2-1.1-4.3-1.6-6.5c-0.1-0.5-0.3-0.9-0.4-1.4
			c-0.3-1.2-0.6-2.4-0.8-3.5c0.8-0.9-0.3-1.8,0.2-2.8C141.4,36.4,141.2,35.8,141.1,35.2z M145.7,36.5c0,0.4,0,0.7,0,1
			c0.4,1.8,1.5,3.3,2.2,4.9c-0.3-1.3-0.5-2.6-0.7-3.9C146.1,38.4,146.5,37.1,145.7,36.5z M145.5,35.8c0-0.2,0.1-0.3,0.1-0.3
			c-0.1-0.1-0.2-0.1-0.3-0.2C145.4,35.4,145.4,35.5,145.5,35.8z M150.2,50.9c0.1,0,0.1-0.1,0.2-0.1c-0.1-0.2-0.2-0.3-0.3-0.5
			c0,0-0.1,0-0.1,0.1C150,50.5,150.1,50.7,150.2,50.9z"/>
		<path fill="#FFFFFF" d="M251.6,34.2c0.3,0.4,0.5,0.8,0.8,1.1c1.2,1.2,2,2.8,2.7,4.3c0.1,0.1,0,0.3,0,0.4c-0.8,0-0.8,0-2.1-1
			c0.2,0.6,0.5,1.2,0.4,1.8c0,0.6-0.4,1.1-0.6,1.9c-0.7-0.9-1.3-1.7-2-2.4c-0.1-0.1-0.1-0.2-0.2-0.3c-1.1-0.5-1.7-1.5-2.4-2.6
			c-1.1,0.7-2.1,1.4-2.8,2.2c-0.4,2.1-0.8,4.1-1.1,6.2c-0.2,0-0.5,0.1-0.9,0.2c0.1,0.6,0.3,1.1,0.4,1.8c-0.4,0.7-0.3,1,0.5,2.4
			c-0.1,0.2-0.3,0.4-0.5,0.6c0,0,0.1,0.1,0.1,0.1c0.1-0.1,0.3-0.1,0.5-0.2c0,0.5,1,0.6,0.5,1.3c0.1,0.1,0.2,0.1,0.3,0.2
			c0.2,0.3,0.4,0.6,0.4,1c-0.3-0.2-0.5-0.3-0.8-0.5c-0.1,0-0.1,0.1-0.2,0.1c0.2,0.4,0.5,0.8,0.7,1.2c0.3,0.5,0.5,1,0.8,1.6
			c0.4,0.8,1.1,1.2,1.8,1.6c0,0,0.2-0.2,0.3-0.3l0,0c0.5,0.7,1.1,0.9,1.9,0.7c0.7-0.2,1.5-0.3,2.3-0.4c0.2,0,0.4,0,0.6,0
			c0.4,0,0.8,0.1,1.3,0.2c0.3-0.5,0.5-1,0.7-1.4c0.7,0.4,0.9,0.4,1.2-0.3c0.1-0.2,0.3-0.4,0.4-0.6c0,0,0.1,0,0.2,0
			c0,0.2,0,0.3,0,0.5c0.1,0,0.3,0,0.3-0.1c0.3-0.5,0.5-0.9,0.9-1.6c-0.1,0.6-0.1,1-0.1,1.4c0,0.4-0.1,0.9-0.1,1.4
			c0.3,0.1,0.6,0.2,1,0.4c-0.2,0.6-0.4,1.2-0.7,2.1c0.4-0.3,0.7-0.5,1-0.7c0.3,0.1,0.6,0.2,0.9,0.3c0,0.4,0,0.8,0,1.2
			c0.1-0.1,0.3-0.1,0.4-0.2c0.1,0.8,0.1,0.8-0.3,1.2c-0.4,0.4-0.9,0.8-1.3,1.2c-0.7,0.6-0.7,0.6-0.2,1.5c0.1,0.1,0.1,0.3,0.2,0.5
			c-0.8,0.8-1.6,1.4-2.6,1.7c-1.4,0.5-2.9,1.1-4.4,0.8c-0.9-0.2-1.9-0.3-2.8-0.6c-0.5-0.1-1-0.4-1.3-1c-0.3-0.5-0.6-0.9-1.4-0.9
			c-0.7,0-2.2-1.3-2.6-1.9c-0.1-0.1-0.1-0.3-0.1-0.4c0.3-0.6,0-0.9-0.4-1.3c-0.9-1.1-1.8-2.2-2.8-3.5c0.4-0.1,0.6-0.2,0.8-0.2
			c-0.2-0.9-0.5-1.7-0.7-2.6l0,0c0.1,0,0.2,0.1,0.6,0.2c-0.3-0.5-0.5-0.8-0.7-1.1c-0.1-0.2-0.1-0.3-0.2-0.5
			c-0.1-0.2-0.2-0.5-0.3-0.6c-0.7-0.1-0.8-0.7-0.9-1.2c-0.4-1.3-0.8-2.7-1.1-4.1c-0.1-0.5-0.2-1-0.2-1.5c0.1-1.6,0.3-3.3,0.5-4.9
			c0.2-1.4,0.6-2.8,1.3-4.1c0.5-0.9,1-1.8,1.5-2.7c0.6-1.3,1.8-2.2,2.8-3.1c0.6-0.5,1.3-1.1,2.2-0.9c0.4,0.1,0.7,0.2,1.1,0.4
			c0.5,0.3,1,0.5,1.6,0.3c1.1-0.4,2.5,0.3,3,1.2l0,0c-0.4-0.2-0.8-0.4-1.3-0.6c-0.8-0.3-1.1-0.3-1.9-0.1c0.6,1.2,1.7,1.5,2.8,1.9
			c-0.3,0.1-0.6,0.2-0.9,0.3C250.9,33.8,251.1,34.2,251.6,34.2L251.6,34.2z M244.8,34.9c1.1-0.4,1.8-1,2.5-1.7
			c-0.3,0-0.5,0.2-0.8,0.2c-0.3,0.1-0.6,0-0.9,0.1C245.4,33.8,245.1,34.3,244.8,34.9z"/>
		<path fill="#FFFFFF" d="M225.4,57.4c0.4-0.5,0.4-1.4-0.1-1.6c-0.8-0.4-0.8-1.2-0.9-1.9c-0.4-2.3-0.7-4.6-1-6.9c-0.1-1-0.2-2-0.3-3
			c0.1,0,0.2,0,0.3,0c0.2,1.2,0.3,2.3,0.5,3.5c0.2,1.2,0.2,2.4,0.4,3.6c0.2,1.2,0.5,2.4,0.8,3.7c0.3-1.5,0-2.7-0.2-3.9
			c-0.2-1.6-0.5-3.3-0.7-4.9c-0.2-1.1-0.3-2.1-0.5-3.2c-0.1-0.7-0.2-1.5-0.3-2.2c-0.1-1.2-0.2-2.4-0.3-3.6c0-0.4-0.2-0.7-0.2-1.1
			c0-0.4,0.1-0.7,0.2-1.1c0.7,1.2,0.7,2.6,0.9,4.2c0.7-1.7-0.1-3.1,0-4.6c0-1.4-0.6-2.8-0.9-4.4c0.3,0.4,0.5,0.6,0.7,0.8
			c0.3-0.6-0.9-1.4,0.4-2c0.2,1.1,0.6,2.1,0.7,3.1c0.1,0.9,0.3,1.6,1,2.2c0.6-0.9,0-1.9,0.2-2.8c0.6,1.9,1.2,3.7,1.9,5.6
			c0,0.1,0.2,0.3,0.2,0.4c-0.3,1.1,0.4,1.9,0.6,2.8c0.2,0.7,0.3,1.5,0.4,2.2c0.1,0.4,0.1,0.8,0.3,1.2c0.2,0.4,0.5,0.6,0.9,0.9
			c-0.2-1.1-0.2-2.1-0.6-3.2c-0.5-1.3-0.5-2.7-0.7-4.1c0-0.2,0.2-0.4,0.4-0.7c0.4,1.4,1.1,2.6,1.5,3.9c0.3,1.1,0.5,2.2,0.8,3.4
			c0.1,0.6,0.2,1.1,0.3,1.7c0.4,1.8,0.8,3.6,1.1,5.5c0.3,1.6,0.4,3.2,0.6,4.8c0.2,1.4,0.4,2.9,0.6,4.3c0.1,0.5,0.1,1-0.5,1.3
			c-0.7,0.3-0.1,0.8,0,1.3c-0.1,0.1-0.3,0.2-0.5,0.3c-0.3,0-0.9-0.7-0.9-1.2c-0.1-0.5-0.1-1-0.1-1.5c0-0.3-0.2-0.5-0.3-0.7
			c-0.1,0-0.2,0-0.3,0c-0.1,0.6-0.1,1.2-0.2,1.8c0,0,0,0.1,0,0.1c0,0.5-0.1,1.1-0.1,1.6c0,0.8-0.8,0.6-1,1.2
			c-0.6-0.7-1.1-1.3-1.6-1.8c-0.7,0-1.2,0-1.7,0C225.5,61,225.3,59.2,225.4,57.4L225.4,57.4z"/>
		<path fill="#FFFFFF" d="M314.9,46.6c0,3.3,0,6.6,0,9.9c0,3.6,0,7.1,0.1,10.7c0,1.1-0.2,2.2,0.5,3.2c-0.3,0-0.5,0-0.8,0.1
			c-0.4-0.5-0.2-1-0.2-1.7c0.1-1-0.1-2-0.1-3c0-1.1,0-2.2,0-3.3c0-1.5,0-3.1,0.1-4.6c0-2.3,0-4.6,0-6.9c0-1.5,0.2-2.9,0.2-4.4
			C314.9,46.5,314.9,46.5,314.9,46.6z"/>
		<path fill="#FFFFFF" d="M73.6,59.9c-0.2,0.1-0.4,0.2-0.5,0.4c-0.3,0.8-0.5,1.5-0.8,2.3c-0.1,0.3-0.2,0.5-0.4,0.7
			c-0.1,0-0.1-0.1-0.2-0.1c0.1-0.3,0.1-0.6,0.2-0.9c0.3-1.1,0.7-2.1,0.9-3.2c0.2-1.1,0.2-2.2,0.4-3.3c0.2-1.4,0.5-2.9,0.8-4.3
			c0.8,0.1,0.4,0.7,0.5,1.1c0.1,0.4,0.2,0.8,0.4,1.3c-0.4,0.6-0.6,1.4-0.7,2.3c-0.1,1-0.5,2-0.8,3.1C73.4,59.5,73.5,59.7,73.6,59.9
			C73.6,59.9,73.6,59.9,73.6,59.9z"/>
		<path fill="#FFFFFF" d="M131.2,26.2c-0.3,0-0.5,0.1-0.7,0.1c-0.1,0.3-0.1,0.6-0.3,1.1c-0.1-0.5-0.1-0.8-0.2-1.1
			c-0.3,0-0.6,0-0.9,0c0.6-1.1,0.4-1.3-0.3-1.9c0-0.3,0.2-0.7,0.1-0.9c-0.2-0.3-0.2-0.5,0.1-0.6c0.2-0.1,0.4,0.1,0.7,0.2
			c0-0.2,0-0.4,0-0.7c0.2,0.1,0.3,0.1,0.3,0.2c0.2,0.7,0.4,1.5,0.6,2.2C130.1,25.5,131,25.7,131.2,26.2z"/>
		<path fill="#FFFFFF" d="M408.3,14.4c-0.1,0.2-0.1,0.3-0.2,0.5c-0.1,0.1-0.2,0.2-0.3,0.4c0.2,0.1,0.3,0.2,0.5,0.2
			c0.4,0.2,0.4,0.5,0.1,0.8c-1.3,0.8-2,2-2.2,3.5c0,0.2-0.2,0.4-0.4,0.7c-0.1-0.2-0.3-0.3-0.3-0.4c0.2-0.7,0.3-1.4,0.6-2.1
			c0.3-0.7,0.6-1.5,1-2.2c0.3-0.6,0.7-1.1,1-1.7C408.1,14.3,408.2,14.3,408.3,14.4z"/>
		<path fill="#FFFFFF" d="M315.8,46c-0.1-0.2-0.1-0.4-0.1-0.6c0-1.5,0.1-2.9,0.1-4.4c0-0.2-0.1-0.4-0.1-0.7
			c-0.3,0.2-0.6,0.3-0.8,0.4c-0.1-1.6-0.2-3.1-0.3-4.9c0.8,0.7,0.5,1.4,0.5,2c0.1,0.6,0,1.3,0.1,2c0.1-0.3,0.2-0.6,0.3-1.2
			c0.1,0.5,0.1,0.7,0.1,1c0,0,0.1,0,0.1,0c0.1-0.3,0.1-0.6,0.2-0.9C316.1,41.1,316.4,43.6,315.8,46L315.8,46z"/>
		<path fill="#FFFFFF" d="M76.2,42.9c0,0.3,0,0.7-0.1,0.9c-0.3,0.6-0.2,1,0.4,1.4c-1.1,0.4-0.9,1.3-0.8,2c0.2,0.9-0.3,1.6-0.3,2.4
			c0,0.1-0.1,0.2-0.1,0.2c-0.8,0.1-0.8,0.9-1.2,1.3c0.1-1.7,0.1-1.7,0.6-2.1c0,0.2,0.1,0.4,0.2,0.9c0.1-0.2,0.2-0.3,0.2-0.4
			c0.2-1.2,0.4-2.3,0.6-3.5c0-0.1-0.1-0.3-0.2-0.5c-0.1-0.2-0.2-0.4-0.4-0.7c0.3,0,0.5,0,0.6,0.1c0.1-0.7,0.2-1.3,0.3-2
			C76,42.8,76.1,42.8,76.2,42.9z"/>
		<path fill="#FFFFFF" d="M313.2,59.9c0.5,2,0.1,4.1,0.3,6.3c0.2,0,0.4-0.1,0.7-0.1c0,0.1,0,0.3,0,0.3c-0.2,0.3-0.5,0.5-0.9,0.9
			c-0.1-0.5-0.2-1-0.2-1.5C313,63.8,313.1,61.8,313.2,59.9z"/>
		<path fill="#FFFFFF" d="M458.5,17c2.2-0.5,4.4-1,6.7-0.1c-0.4,0-0.9,0.1-1.3,0.1c-1.3-0.3-2.6,0-4,0.1c-0.5,0.1-0.9,0.1-1.4,0.1
			C458.5,17.2,458.5,17.1,458.5,17z"/>
		<path fill="#FFFFFF" d="M315.8,46c0.1,0.2,0.3,0.5,0.3,0.7c-0.1,1.9-0.2,3.7-0.3,5.6c0,0.1-0.1,0.2-0.1,0.3
			C315.4,52,315.5,47.6,315.8,46C315.8,46,315.8,46,315.8,46z"/>
		<path fill="#FFFFFF" d="M311.2,5.6c0.5,0.3,1,0.6,1.5,1c0.2-0.5,0.4-0.8,0.6-1.3c0.8,0.6,0.1,1.6,0.7,2.2
			c-0.3-0.1-0.6-0.2-0.9-0.3c-0.3-0.1-0.6-0.2-0.9-0.3C311.6,6.8,311.2,6.4,311.2,5.6z"/>
		<path fill="#FFFFFF" d="M461.9,14.2c0.5,0,0.9-0.1,1.4-0.1c1.3,0,2.6,0,3.9,0c0.5,0,1.1,0.1,1.5,0.7
			C466.4,14.3,464.2,14.4,461.9,14.2z"/>
		<path fill="#FFFFFF" d="M220.1,61c-0.1-0.2-0.2-0.3-0.3-0.5c-0.2-0.3-0.4-0.6-0.5-0.9c-0.1-0.2-0.2-0.5-0.3-0.8l0,0
			c0.1,0.1,0.3,0.1,0.4,0.2c0.8,1.1,1.7,2.1,2.2,3.4c-0.3-0.2-0.5-0.3-0.8-0.5C220.5,61.8,220.3,61.4,220.1,61z"/>
		<path fill="#FFFFFF" d="M313.3,53.7c0.1,1.7,0.3,3.4,0,5.1C313.1,57.1,313.1,55.4,313.3,53.7z"/>
		<path fill="#FFFFFF" d="M358.8,80.9c-0.6-1.1-0.6-2.3-0.7-3.7c0.9,0.5,0.1,1.7,1,2C359,79.8,358.9,80.4,358.8,80.9L358.8,80.9z"/>
		<path fill="#FFFFFF" d="M342.3,0c0.6,0.9,1,1.6,1.4,2.3C342.4,2,342,1.5,342.3,0z"/>
		<path fill="#FFFFFF" d="M354.6,78c0.1,1.3,0.1,2.4,0.2,3.5c-0.1,0-0.2,0-0.3,0c-0.4-1-0.2-2.1-0.3-3.1
			C354.2,78.3,354.4,78.2,354.6,78z"/>
		<path fill="#FFFFFF" d="M362.4,87.8c0.1-0.2,0.2-0.3,0.3-0.5c0,0.4,0,0.7,0,1c-0.2,0-0.3,0-0.3-0.1c-0.5-0.4-0.9-0.8-1.4-1.2
			c0.2-0.3,0.4-0.5,0.5-0.7c0,0,0.1,0.1,0.1,0.1C361.7,87,361.9,87.5,362.4,87.8z"/>
		<path fill="#FFFFFF" d="M243.2,63.8c-1.1-0.9-2-1.7-2.4-3c0.4,0.5,0.8,0.9,1.1,1.4C242.3,62.7,243.1,62.7,243.2,63.8z"/>
		<path fill="#FFFFFF" d="M375.9,33.5c-0.4-0.3-0.9-0.6-1.5-1c0.5-0.2,0.7-0.3,1-0.4C375.7,32.7,376,33.2,375.9,33.5z"/>
		<path fill="#FFFFFF" d="M419.9,11.9c0-1-0.6-2.1,0.4-3c-0.1,0.5-0.2,1-0.3,1.5C420,10.9,420,11.4,419.9,11.9z"/>
		<path fill="#FFFFFF" d="M358.8,80.9c0.2,1.4,0.3,2.9,0.5,4.3C358.8,84.7,358.6,82,358.8,80.9C358.8,80.9,358.8,80.9,358.8,80.9z"
			/>
		<path fill="#FFFFFF" d="M251.9,31.8c0.8,0.4,1.6,1.2,1.8,2.2C253.2,33.3,252.1,32.9,251.9,31.8L251.9,31.8z"/>
		<path fill="#FFFFFF" d="M502.2,9.4c0.3-0.1,0.6-0.2,0.9-0.3c0.8,0.7,0.6,1.6,0.6,2.6c-0.1-0.5-0.1-1-0.3-1.4
			C503.2,9.6,503.1,9.5,502.2,9.4z"/>
		<path fill="#FFFFFF" d="M384.8,47.4c0.9-0.4,1.6-0.5,2.5,0C386.4,47.4,385.7,47.7,384.8,47.4z"/>
		<path fill="#FFFFFF" d="M434.6,16.8c-0.2-1.1,0-2.2,0.4-3.3c0-0.1,0.2-0.2,0.3-0.3C435,14.4,434.8,15.6,434.6,16.8
			C434.6,16.8,434.6,16.8,434.6,16.8z"/>
		<path fill="#FFFFFF" d="M348.4,33.9c-0.1-1-0.2-2.1-0.4-3.1c0.5,1,0.5,2,0.6,3C348.5,33.9,348.5,33.9,348.4,33.9z"/>
		<path fill="#FFFFFF" d="M310.6,7.2c0.8,0.2,1.3,0.7,2,1.2C311.8,8.4,311,7.9,310.6,7.2z"/>
		<path fill="#FFFFFF" d="M245.7,51.4c0.7,0.7,1.1,1.6,1.3,2.5C246.2,53.2,245.9,52.3,245.7,51.4L245.7,51.4z"/>
		<path fill="#FFFFFF" d="M138.8,64.5c-0.2-0.8-0.3-1.6-0.5-2.3C139,62.9,139,63.7,138.8,64.5z"/>
		<path fill="#FFFFFF" d="M78,30.3c0.1,0.3,0.2,0.5,0.3,0.8c-0.3,0.2-0.5,0.4-0.8,0.7c0.1-0.6,0.2-1.1,0.2-1.6
			C77.8,30.3,77.9,30.3,78,30.3z"/>
		<path fill="#FFFFFF" d="M79.1,32.2c-0.1,0.3-0.3,0.5-0.4,0.8c-0.1,0-0.1,0-0.2-0.1c0.1-0.7,0.2-1.4,0.4-2.3
			C79,31.3,79.1,31.8,79.1,32.2C79.2,32.2,79.1,32.2,79.1,32.2z"/>
		<path fill="#FFFFFF" d="M140.1,32.2c0-0.4,0-0.8,0-1.4c0.8,0.4,0.4,0.9,0.3,1.3C140.3,32.1,140.2,32.2,140.1,32.2z"/>
		<path fill="#FFFFFF" d="M459,47.6c-0.7,0-1.3,0.1-2,0.1c0-0.1,0-0.2,0-0.3c0.7-0.1,1.3-0.1,2-0.2C458.9,47.4,459,47.5,459,47.6z"
			/>
		<path fill="#FFFFFF" d="M19.1,57.2c0-0.5-0.5-1,0.2-1.4C19.5,56.5,19.5,56.5,19.1,57.2z"/>
		<path fill="#FFFFFF" d="M264,24.4c-0.2-0.7-0.3-1.1-0.4-1.8C264.3,23.2,264.3,23.2,264,24.4z"/>
		<path fill="#FFFFFF" d="M239.9,53.4c0,0.4,0,0.9,0,1.3c-0.1,0-0.1,0-0.2,0c-0.2-0.5-0.3-0.9-0.5-1.4c0.1,0,0.1-0.1,0.2-0.1
			C239.6,53.3,239.8,53.3,239.9,53.4C239.9,53.4,239.9,53.4,239.9,53.4z"/>
		<path fill="#FFFFFF" d="M505.8,9.6c-0.5,0.3-0.8-0.2-1.2-0.5c0.3-0.2,0.5-0.4,0.8-0.6c0.1,0.1,0.1,0.2,0.2,0.3
			C505.6,9,505.7,9.3,505.8,9.6L505.8,9.6z"/>
		<path fill="#FFFFFF" d="M105.2,61.8c-0.1-0.4-0.2-0.8-0.3-1.2C105.5,60.8,105.5,60.8,105.2,61.8z"/>
		<path fill="#FFFFFF" d="M78.7,27.8c0,0.4-0.1,0.7-0.1,1.1C78,28.2,78,28.2,78.7,27.8z"/>
		<path fill="#FFFFFF" d="M100,28.9c-0.1-0.2-0.3-0.5-0.2-0.7c0.2-0.4,0.4-0.8,0.7-1.2C100.5,27.7,100.3,28.4,100,28.9
			C100,28.9,100,28.9,100,28.9z"/>
		<path fill="#FFFFFF" d="M356.5,58.5c0.1,0.6,0.2,1.2,0.3,1.9c-0.1,0-0.2,0-0.3,0c-0.1-0.6-0.2-1.2-0.3-1.9
			C356.4,58.5,356.5,58.5,356.5,58.5z"/>
		<path fill="#FFFFFF" d="M433.2,16.3c0.1-0.7,0.2-1.5,0.2-2.2c0,0,0.1,0,0.1,0C433.5,14.8,433.4,15.6,433.2,16.3
			C433.3,16.3,433.3,16.3,433.2,16.3z"/>
		<path fill="#FFFFFF" d="M351.6,50.3c-0.1-0.6-0.2-1.1-0.3-1.7c0.1,0,0.2,0,0.3,0c0,0.6,0.1,1.1,0.1,1.7
			C351.7,50.3,351.6,50.3,351.6,50.3z"/>
		<path fill="#FFFFFF" d="M420.5,54.9c0.1,0.7,0.1,1.3,0.2,2c-0.1,0-0.1,0-0.2,0c-0.1-0.7-0.1-1.3-0.2-2
			C420.3,54.9,420.4,54.9,420.5,54.9z"/>
		<path fill="#FFFFFF" d="M245.7,51.4c-0.3-0.6-0.5-1.2-0.8-1.8C245.6,50,245.6,50.7,245.7,51.4C245.7,51.4,245.7,51.4,245.7,51.4z"
			/>
		<path fill="#FFFFFF" d="M113.1,56.8c-0.3-0.3-0.7-0.6-0.5-1.2C113.2,55.9,113.1,56.4,113.1,56.8z"/>
		<path fill="#FFFFFF" d="M413.3,52.8c0,0.5,0.1,0.9,0.1,1.4c-0.1,0-0.2,0-0.2,0c0-0.2,0-0.4,0-0.6c0-0.2-0.1-0.5-0.1-0.7
			C413.1,52.9,413.2,52.8,413.3,52.8z"/>
		<path fill="#FFFFFF" d="M316.1,36.8c0,0.4,0,0.8,0,1.2c-0.1,0-0.2,0-0.2,0c-0.2-0.4-0.1-0.8,0-1.3C315.9,36.7,316,36.8,316.1,36.8
			z"/>
		<path fill="#FFFFFF" d="M88.8,3.9c-0.3,0.3-0.7,0.6-1,0.8c-0.1-0.1-0.1-0.1-0.2-0.2c0.3-0.3,0.7-0.6,1-0.9
			C88.6,3.7,88.7,3.8,88.8,3.9z"/>
		<path fill="#FFFFFF" d="M101.4,24.1c-0.3,0.5-0.6,1.1-0.9,1.6C100.6,24.3,100.6,24.3,101.4,24.1C101.5,24.2,101.4,24.1,101.4,24.1
			z"/>
		<path fill="#FFFFFF" d="M314.8,44.7c0-0.4,0-0.9-0.1-1.3c0.1,0,0.1,0,0.2,0c0,0.4,0,0.9,0.1,1.3C314.9,44.7,314.9,44.7,314.8,44.7
			z"/>
		<path fill="#FFFFFF" d="M313.7,48.5c-0.1,0.6-0.1,1.2-0.2,1.8C313.3,49.7,313.4,49.1,313.7,48.5z"/>
		<path fill="#FFFFFF" d="M71.7,58.9c0.2-0.6,0.3-1.2,0.5-1.8c0.1,0,0.1,0,0.2,0c-0.2,0.6-0.3,1.2-0.5,1.8
			C71.9,59,71.8,58.9,71.7,58.9z"/>
		<path fill="#FFFFFF" d="M76.8,27.4c-0.2,0.4-0.3,0.6-0.5,0.9c-0.1-0.4-0.2-0.7-0.2-1.1C76.3,27.3,76.5,27.3,76.8,27.4z"/>
		<path fill="#FFFFFF" d="M357.8,70.7c0-0.5-0.1-0.8-0.1-1.2C358.3,69.9,358.3,70.2,357.8,70.7z"/>
		<path fill="#FFFFFF" d="M383.8,48.6c0.6,0.1,1.2,0.2,1.7,0.3c0,0,0,0.1,0,0.1c-0.6-0.1-1.2-0.1-1.8-0.2
			C383.8,48.7,383.8,48.6,383.8,48.6z"/>
		<path fill="#FFFFFF" d="M388.1,55.6c0.9,0.3,0.9,0.3,0.2,1.1C388.2,56.3,388.2,56,388.1,55.6z"/>
		<path fill="#FFFFFF" d="M256.8,39.9c-0.2-0.5-0.3-0.9-0.5-1.4c0.1,0,0.1,0,0.2-0.1c0.2,0.5,0.3,0.9,0.5,1.4
			C256.9,39.9,256.8,39.9,256.8,39.9z"/>
		<path fill="#FFFFFF" d="M40.3,22.6c0.9,0.4,0.5,0.8,0.2,1.3C40.4,23.4,40.4,23.1,40.3,22.6z"/>
		<path fill="#FFFFFF" d="M240.4,53c0.1,0.2,0.1,0.3,0.2,0.5c0,0.3,0.1,0.6,0.1,0.9l0,0c-0.1-0.1-0.3-0.3-0.4-0.4
			c-0.2-0.2-0.3-0.4-0.4-0.6c0,0,0,0,0,0C240,53.1,239.9,52.7,240.4,53z"/>
		<path fill="#FFFFFF" d="M239.6,58.9c-0.2-0.4-0.4-0.7-0.5-1.1c0.1,0,0.1-0.1,0.2-0.1c0.2,0.3,0.4,0.7,0.5,1
			C239.7,58.8,239.7,58.8,239.6,58.9z"/>
		<path fill="#FFFFFF" d="M76.5,39.9c0,0.4-0.1,0.9-0.1,1.3c0,0-0.1,0-0.1,0c0-0.4,0-0.9,0-1.3C76.4,39.9,76.4,39.9,76.5,39.9z"/>
		<path fill="#FFFFFF" d="M104.9,66.9c0,0.3,0,0.6,0.1,1c-0.1,0-0.1,0-0.2,0C104.8,67.6,104.8,67.2,104.9,66.9z"/>
		<path fill="#FFFFFF" d="M13.8,64.8c0.2-0.3,0.4-0.7,0.7-1.2c0.3,0.8-0.3,1-0.5,1.3C14,64.9,13.9,64.9,13.8,64.8z"/>
		<path fill="#FFFFFF" d="M353.1,58.4c0.4,0.5,0.4,1,0.2,1.6C353.2,59.5,353.2,58.9,353.1,58.4L353.1,58.4z"/>
		<path fill="#FFFFFF" d="M353.1,58.4c-0.1-0.6-0.1-1.1-0.2-1.7c0.1,0,0.1,0,0.2,0C353.1,57.2,353.1,57.8,353.1,58.4
			C353.1,58.4,353.1,58.4,353.1,58.4z"/>
		<path fill="#FFFFFF" d="M244.7,47.3c0.1,0.3,0.1,0.6,0.2,1C244.5,47.8,244.5,47.8,244.7,47.3z"/>
		<path fill="#FFFFFF" d="M70,62.4c0.2-0.4,0.5-0.8,0.7-1.2c0.1,0,0.1,0.1,0.2,0.1c-0.2,0.4-0.4,0.8-0.6,1.3
			C70.2,62.5,70.1,62.4,70,62.4z"/>
		<path fill="#FFFFFF" d="M464.4,49.7c0.4,0,0.7,0,1.1,0c0,0,0,0.1,0,0.1c-0.4,0-0.7,0.1-1.1,0.1C464.4,49.9,464.4,49.8,464.4,49.7z
			"/>
		<path fill="#FFFFFF" d="M253.9,35c0.3,0.3,0.6,0.6,0.9,0.9c-0.1,0.1-0.1,0.1-0.2,0.2c-0.3-0.3-0.6-0.6-0.9-0.9
			C253.8,35.1,253.9,35.1,253.9,35z"/>
		<path fill="#FFFFFF" d="M418.3,11.1c0-0.4,0.1-0.9,0.1-1.3c0,0,0.1,0,0.1,0C418.5,10.3,418.4,10.7,418.3,11.1
			C418.4,11.2,418.3,11.2,418.3,11.1z"/>
		<path fill="#FFFFFF" d="M453.9,51.3c0.6-0.1,1.1-0.1,1.7-0.2c0,0.1,0,0.2,0,0.2C455.1,51.3,454.5,51.3,453.9,51.3
			C453.9,51.3,453.9,51.3,453.9,51.3z"/>
		<path fill="#FFFFFF" d="M88.7,47.8c-0.1-0.2-0.2-0.3-0.3-0.5c0,0,0.2-0.2,0.2-0.2c0.1,0.2,0.3,0.3,0.4,0.5
			C88.9,47.6,88.8,47.7,88.7,47.8z"/>
		<path fill="#FFFFFF" d="M124.9,33.8c0.2-0.3,0.3-0.6,0.5-0.8c0.1,0,0.1,0.1,0.2,0.1c0,0.2-0.1,0.4-0.2,0.5
			c-0.1,0.1-0.2,0.3-0.3,0.4C125,33.9,125,33.8,124.9,33.8z"/>
		<path fill="#FFFFFF" d="M123.1,60.3c-0.1-0.3-0.2-0.6-0.3-1.1C123.4,59.5,123.7,59.8,123.1,60.3z"/>
		<path fill="#FFFFFF" d="M313.6,50.9c-0.1,0.3-0.1,0.6-0.2,1c-0.1,0-0.1,0-0.2,0c0-0.3,0-0.7,0-1C313.4,50.8,313.5,50.8,313.6,50.9
			z"/>
		<path fill="#FFFFFF" d="M413.7,55.4c0,0.4,0.1,0.7,0.1,1.1c-0.1,0-0.1,0-0.2,0c-0.1-0.4-0.1-0.7-0.2-1.1
			C413.6,55.4,413.7,55.4,413.7,55.4z"/>
		<path fill="#FFFFFF" d="M408.6,13.8c0.3-0.2,0.6-0.4,0.9-0.7c0,0.1,0.1,0.1,0.1,0.2c-0.3,0.2-0.6,0.5-0.9,0.7
			C408.7,14,408.7,13.9,408.6,13.8z"/>
		<path fill="#FFFFFF" d="M358.3,69.2c-0.2,0-0.4-0.1-0.6-0.1c0.1-0.2,0.2-0.5,0.3-0.8C358.2,68.7,358.3,68.9,358.3,69.2z"/>
		<path fill="#FFFFFF" d="M420,12.6c0,0.3,0,0.6,0,0.9c0,0-0.1,0-0.1,0c0-0.3,0-0.6-0.1-0.9C419.9,12.6,419.9,12.6,420,12.6z"/>
		<path fill="#FFFFFF" d="M419.5,55L419.5,55c-0.1-0.3-0.1-0.7-0.2-1l0,0C419.8,54.2,419.8,54.6,419.5,55z"/>
		<path fill="#FFFFFF" d="M143.8,30.6c0.2,0.4,0.4,0.7,0.5,0.9C143.9,31.3,143.9,31.3,143.8,30.6z"/>
		<path fill="#FFFFFF" d="M225.4,57.4c-0.7-0.2-0.3-0.7-0.4-1.1c0.1,0,0.2,0,0.3-0.1C225.3,56.6,225.4,57,225.4,57.4
			C225.4,57.4,225.4,57.4,225.4,57.4z"/>
		<path fill="#FFFFFF" d="M237.1,49.7c0-0.3,0-0.5,0-0.8c0.1,0,0.1,0,0.2,0c0,0.2,0.1,0.5,0.1,0.7C237.3,49.7,237.2,49.7,237.1,49.7
			z"/>
		<path fill="#FFFFFF" d="M105.6,58c-0.3-0.3-0.4-0.4-0.6-0.6C105.6,57.3,105.6,57.3,105.6,58z"/>
		<path fill="#FFFFFF" d="M104.9,36.5c0.1-0.3,0.1-0.6,0.2-0.9c0.1,0.1,0.2,0.1,0.2,0.1C105.3,36.1,105.4,36.4,104.9,36.5z"/>
		<path fill="#FFFFFF" d="M349.1,37.3c-0.3,0-0.4-0.1-0.3-0.4c0.1-0.4,0.2-0.8,0.2-1.1l0,0C349,36.3,349,36.8,349.1,37.3
			C349.1,37.3,349.1,37.3,349.1,37.3z"/>
		<path fill="#FFFFFF" d="M315.7,54.5c-0.2-0.5-0.2-0.8-0.4-1.3C315.9,53.6,315.8,53.9,315.7,54.5z"/>
		<path fill="#FFFFFF" d="M321.6,18.7c0.6,0,0.5,0.4,0.5,0.8C321.9,19.2,321.8,19,321.6,18.7z"/>
		<path fill="#FFFFFF" d="M428.3,25.6c0-0.4,0.1-0.8,0.1-1.2c0,0,0.1,0,0.1,0c0,0.4,0,0.8,0,1.2C428.4,25.7,428.3,25.6,428.3,25.6z"
			/>
		<path fill="#FFFFFF" d="M164.9,27.3c0.2,0,0.5,0,0.7,0c0,0,0,0.1,0,0.1c-0.3,0.1-0.5,0.1-0.8,0.2
			C164.9,27.4,164.9,27.3,164.9,27.3z"/>
		<path fill="#FFFFFF" d="M159.1,31.1c0-0.4,0-0.6,0-1C159.6,30.4,159.6,30.6,159.1,31.1z"/>
		<path fill="#FFFFFF" d="M159.5,28.5c-0.1,0.3-0.2,0.5-0.3,0.8c-0.1,0-0.1,0-0.2-0.1c0.1-0.3,0.1-0.5,0.2-0.8
			C159.3,28.4,159.4,28.5,159.5,28.5z"/>
		<path fill="#FFFFFF" d="M316,34.2c0,0.3-0.1,0.6-0.1,0.9c0,0-0.1,0-0.1,0C315.8,34.8,315.9,34.5,316,34.2
			C315.9,34.2,316,34.2,316,34.2z"/>
		<path fill="#FFFFFF" d="M316.5,16c-0.1-0.2-0.2-0.4-0.4-0.6c0,0,0.1-0.1,0.1-0.1c0.1,0.2,0.3,0.4,0.4,0.6
			C316.6,16,316.6,16,316.5,16z"/>
		<path fill="#FFFFFF" d="M456.4,32.5c-0.6,0.3-0.6,0.3-1-0.1C455.8,32.4,456.1,32.4,456.4,32.5C456.4,32.5,456.4,32.5,456.4,32.5z"
			/>
		<path fill="#FFFFFF" d="M87.1,6.6c-0.1,0-0.2,0.1-0.2,0.1c-0.1-0.1-0.2-0.2-0.3-0.3c0.1-0.1,0.2-0.2,0.3-0.2
			C86.9,6.3,87,6.5,87.1,6.6z"/>
		<path fill="#FFFFFF" d="M26.8,14.2c-0.1,0.4-0.2,0.7-0.3,1.2C26.2,14.8,26.6,14.5,26.8,14.2z"/>
		<path fill="#FFFFFF" d="M407.8,17.9c0,0.2,0,0.4,0,0.7c-0.1,0-0.2,0-0.3,0c0-0.2,0-0.4,0-0.7C407.6,17.9,407.7,17.9,407.8,17.9z"
			/>
		<path fill="#FFFFFF" d="M20.2,52.5c-0.4,0.1-0.9,0.2-1-0.6C19.7,52.2,19.9,52.4,20.2,52.5C20.2,52.6,20.2,52.5,20.2,52.5z"/>
		<path fill="#FFFFFF" d="M384.8,58c0-0.3,0-0.5,0-0.8c0.1,0,0.1,0,0.2,0c0,0.3,0.1,0.5,0.1,0.8C385,58,384.9,58,384.8,58z"/>
		<path fill="#FFFFFF" d="M392.7,25.6c-0.2-0.2-0.3-0.4-0.5-0.7c0.1,0,0.2-0.2,0.3-0.1C392.8,25,392.8,25.3,392.7,25.6
			C392.7,25.6,392.7,25.6,392.7,25.6z"/>
		<path fill="#FFFFFF" d="M71.2,60.4c0.1-0.3,0.2-0.5,0.3-0.8c0.1,0,0.1,0.1,0.2,0.1c-0.1,0.3-0.2,0.6-0.3,0.8
			C71.3,60.4,71.2,60.4,71.2,60.4z"/>
		<path fill="#FFFFFF" d="M233.3,43.7c0-0.2-0.1-0.5-0.1-0.7c0.1,0,0.1,0,0.2,0c0.1,0.2,0.1,0.5,0.2,0.7
			C233.4,43.6,233.4,43.6,233.3,43.7z"/>
		<path fill="#FFFFFF" d="M465.1,19.6c0.2-0.5,0.6-0.4,1-0.1C465.8,19.5,465.4,19.5,465.1,19.6L465.1,19.6z"/>
		<path fill="#FFFFFF" d="M349,35.7c-0.5-0.2-0.4-0.6-0.2-1C348.9,35.1,348.9,35.4,349,35.7L349,35.7z"/>
		<path fill="#FFFFFF" d="M76.8,35.7c-0.1-0.2-0.1-0.5-0.2-0.7c0.1,0,0.1,0,0.2,0c0.1,0.2,0.1,0.5,0.2,0.7
			C76.9,35.7,76.8,35.7,76.8,35.7z"/>
		<path fill="#FFFFFF" d="M75.5,52.3c0.1-0.2,0.2-0.5,0.3-0.7c0.1,0,0.1,0.1,0.2,0.1c-0.1,0.2-0.2,0.5-0.3,0.7
			C75.7,52.4,75.6,52.4,75.5,52.3z"/>
		<path fill="#FFFFFF" d="M251.7,34.2c0.5-0.2,1-0.2,1.4,0.3C252.6,34.4,252.1,34.3,251.7,34.2C251.6,34.2,251.7,34.2,251.7,34.2z"
			/>
		<path fill="#FFFFFF" d="M166.1,56.8c-0.3,0.1-0.6,0.1-1,0.2c0-0.1,0-0.1,0-0.2c0.3-0.1,0.6-0.2,1-0.2
			C166.1,56.6,166.1,56.7,166.1,56.8z"/>
		<path fill="#FFFFFF" d="M357.4,66.1c0.1,0.2,0.2,0.4,0.3,0.6c-0.1,0-0.1,0.1-0.2,0.1c-0.1-0.2-0.2-0.4-0.4-0.6
			C357.2,66.2,357.3,66.1,357.4,66.1z"/>
		<path fill="#FFFFFF" d="M177.1,22.6c0.2,0,0.5,0,0.8,0C177.7,23.2,177.4,23.1,177.1,22.6z"/>
		<path fill="#FFFFFF" d="M79.3,22.7c0.2,0.4,0.2,0.8-0.1,1.2C78.8,23.4,79.2,23.1,79.3,22.7C79.3,22.7,79.3,22.7,79.3,22.7z"/>
		<path fill="#FFFFFF" d="M97.2,35.8c-0.2-0.1-0.3-0.1-0.5-0.2c0.1-0.1,0.1-0.2,0.2-0.2c0.1,0.1,0.3,0.2,0.4,0.3
			C97.3,35.7,97.3,35.7,97.2,35.8z"/>
		<path fill="#FFFFFF" d="M34.2,14c-0.1,0.1-0.2,0.2-0.3,0.3c-0.1-0.1-0.2-0.2-0.2-0.3c0-0.1,0.2-0.2,0.3-0.3
			C34,13.8,34.1,13.9,34.2,14z"/>
		<path fill="#FFFFFF" d="M88.9,46.1c0.1-0.2,0.3-0.4,0.4-0.6c0.1,0,0.1,0.1,0.2,0.1c-0.1,0.2-0.3,0.4-0.4,0.6
			C89.1,46.2,89,46.2,88.9,46.1z"/>
		<path fill="#FFFFFF" d="M421.3,53.6c0,0.3-0.1,0.6-0.1,0.9c0,0,0,0-0.1,0c0-0.3,0-0.6,0-0.9C421.2,53.6,421.2,53.6,421.3,53.6z"/>
		<path fill="#FFFFFF" d="M436.4,22c0-0.3,0.1-0.5,0.1-0.8c0,0,0.1,0,0.1,0C436.6,21.5,436.5,21.8,436.4,22
			C436.5,22,436.4,22,436.4,22z"/>
		<path fill="#FFFFFF" d="M505.8,9.6c0,0.4-0.3,0.7-0.6,1c0,0,0,0,0,0C504.8,9.9,505.4,9.8,505.8,9.6C505.8,9.6,505.8,9.6,505.8,9.6
			z"/>
		<path fill="#FFFFFF" d="M43.7,17.5c0,0.3,0,0.6,0,0.8C43.4,18.1,43.1,17.9,43.7,17.5z"/>
		<path fill="#FFFFFF" d="M507.9,10.7c-0.3-0.1-0.7,0.3-0.7-0.4C507.4,10.4,507.6,10.5,507.9,10.7C507.8,10.7,507.9,10.7,507.9,10.7
			z"/>
		<path fill="#FFFFFF" d="M36.8,15.6c-0.1,0.2-0.1,0.4-0.2,0.6c-0.1,0-0.2,0-0.2-0.1c0.1-0.2,0.1-0.4,0.2-0.6
			C36.6,15.6,36.7,15.6,36.8,15.6z"/>
		<path fill="#FFFFFF" d="M409.9,16.9c-0.1,0.3-0.1,0.5-0.2,0.8c0,0-0.1,0-0.1,0c0-0.3,0.1-0.5,0.1-0.8
			C409.8,16.9,409.8,16.9,409.9,16.9z"/>
		<path fill="#FFFFFF" d="M504.3,9.7c0.2,0.1,0.4,0.2,0.5,0.3c0,0.1-0.1,0.1-0.1,0.2c-0.2-0.1-0.4-0.2-0.6-0.3
			C504.2,9.8,504.2,9.7,504.3,9.7z"/>
		<path fill="#FFFFFF" d="M414.6,17.6c-0.2,0.1-0.4,0.2-0.6,0.2c0-0.1,0-0.1-0.1-0.2c0.2-0.1,0.4-0.2,0.6-0.3
			C414.6,17.5,414.6,17.5,414.6,17.6z"/>
		<path fill="#FFFFFF" d="M314,8.8c0.1,0.3,0.1,0.5,0.2,0.8c-0.1,0-0.2,0-0.3,0.1c-0.1-0.2-0.1-0.5-0.2-0.7
			C313.8,8.9,313.9,8.9,314,8.8z"/>
		<path fill="#FFFFFF" d="M460.4,50.7c0.2,0,0.4-0.1,0.6-0.1c0,0.1,0,0.1,0,0.2c-0.2,0-0.4,0.1-0.6,0.1
			C460.4,50.8,460.4,50.8,460.4,50.7z"/>
		<path fill="#FFFFFF" d="M266.4,25.7c-0.4-0.1-0.5-0.4-0.5-0.9C266.4,25,266.4,25.4,266.4,25.7L266.4,25.7z"/>
		<path fill="#FFFFFF" d="M252,56c0.2-0.1,0.3-0.1,0.5-0.2c0,0,0,0.1,0.1,0.1c-0.1,0-0.1,0.1-0.2,0.1c-0.1,0-0.2,0-0.3,0.1
			C252.1,56.1,252.1,56.1,252,56z"/>
		<path fill="#FFFFFF" d="M248.3,56.7c-0.2-0.2-0.5-0.4-0.7-0.6c0.1-0.1,0.1-0.1,0.2-0.2C248.1,56.1,248.3,56.4,248.3,56.7
			C248.3,56.8,248.3,56.7,248.3,56.7z"/>
		<path fill="#FFFFFF" d="M353.9,66.7c0-0.2,0.1-0.5,0.1-0.7c0,0,0.1,0,0.1,0c0,0.2,0,0.5-0.1,0.7C354,66.7,354,66.7,353.9,66.7z"/>
		<path fill="#FFFFFF" d="M463.3,50.3c-0.2,0.1-0.5,0.1-0.7,0.2c0,0,0-0.1,0-0.1c0.2-0.1,0.4-0.1,0.6-0.2
			C463.2,50.2,463.2,50.2,463.3,50.3z"/>
		<path fill="#FFFFFF" d="M465.1,31.9c0.4-0.1,0.8-0.2,1.2-0.3c0,0.1,0,0.2,0,0.3C465.8,31.9,465.4,31.9,465.1,31.9
			C465,31.9,465.1,31.9,465.1,31.9z"/>
		<path fill="#FFFFFF" d="M469.1,20.1c0.3,0,0.5,0,0.8,0c0,0,0,0.1,0,0.1C469.6,20.3,469.3,20.2,469.1,20.1
			C469.1,20.2,469.1,20.2,469.1,20.1z"/>
		<path fill="#FFFFFF" d="M372.9,28.1c-0.1-0.2-0.2-0.3-0.2-0.4c0-0.1,0.2-0.2,0.2-0.2c0.1,0.1,0.2,0.2,0.3,0.3
			C373.1,27.8,373,27.9,372.9,28.1z"/>
		<path fill="#FFFFFF" d="M373.7,28.5c-0.1-0.1-0.2-0.2-0.2-0.3c0-0.1,0.1-0.2,0.2-0.3c0.1,0.2,0.1,0.4,0.1,0.6
			C373.9,28.4,373.8,28.4,373.7,28.5z"/>
		<path fill="#FFFFFF" d="M105.3,64.4c-0.2,0.2-0.2,0.3-0.3,0.4c0-0.1,0-0.2,0-0.3C104.9,64.5,105.1,64.5,105.3,64.4z"/>
		<path fill="#FFFFFF" d="M132.6,27.2c-0.1,0.3-0.2,0.7-0.2,1C132,27.8,132.4,27.5,132.6,27.2z"/>
		<path fill="#FFFFFF" d="M379.3,39.5c-0.1-0.2-0.2-0.4-0.4-0.6c0,0,0.1-0.1,0.1-0.1c0.1,0.2,0.3,0.4,0.4,0.6
			C379.4,39.4,379.3,39.5,379.3,39.5z"/>
		<path fill="#FFFFFF" d="M41.3,24.8c-0.2,0-0.5,0-0.8,0C40.9,24.3,41.1,24.6,41.3,24.8C41.4,24.8,41.3,24.8,41.3,24.8z"/>
		<path fill="#FFFFFF" d="M115.2,55c0-0.1,0-0.3,0-0.4c0,0,0.1,0,0.2,0c0,0.2,0,0.3,0,0.5C115.4,55,115.3,55,115.2,55z"/>
		<path fill="#FFFFFF" d="M250.5,55.9c0.2,0,0.4,0.1,0.6,0.1c0,0,0,0.1,0,0.1c-0.2,0-0.4,0-0.6-0.1
			C250.5,55.9,250.5,55.9,250.5,55.9z"/>
		<path fill="#FFFFFF" d="M465.1,19.6c-0.3,0-0.5,0-0.9,0.1C464.6,19.3,464.6,19.3,465.1,19.6C465.1,19.6,465.1,19.6,465.1,19.6z"/>
		<path fill="#FFFFFF" d="M27.7,65.2c0,0.1,0,0.2,0,0.3c0,0.1-0.1,0.3-0.2,0.4c0,0,0-0.1,0-0.1c0-0.2,0-0.4,0-0.5
			C27.6,65.3,27.6,65.3,27.7,65.2z"/>
		<path fill="#FFFFFF" d="M104.5,70.1c-0.2-0.1-0.4-0.2-0.5-0.3c0-0.1,0.1-0.1,0.1-0.2c0.2,0.1,0.3,0.3,0.5,0.4
			C104.6,70,104.5,70.1,104.5,70.1z"/>
		<path fill="#FFFFFF" d="M459.7,29c0.2-0.1,0.3-0.1,0.5-0.2c0,0,0,0.1,0,0.1C460,29,459.9,29,459.7,29
			C459.7,29.1,459.7,29,459.7,29z"/>
		<path fill="#FFFFFF" d="M456.6,51c0.2,0,0.5,0,0.7,0.1c0,0,0,0.1,0,0.1c-0.2,0-0.5,0-0.7-0.1C456.6,51.1,456.6,51.1,456.6,51z"/>
		<path fill="#FFFFFF" d="M456.8,29.9c0.3-0.1,0.6-0.2,0.9-0.3C457.4,30,457.1,30.1,456.8,29.9C456.7,29.9,456.8,29.9,456.8,29.9z"
			/>
		<path fill="#FFFFFF" d="M396,28.9c0.1,0.1,0.3,0.3,0.4,0.4c0,0-0.1,0.1-0.1,0.1c-0.1-0.1-0.3-0.3-0.4-0.4
			C395.9,29,396,28.9,396,28.9z"/>
		<path fill="#FFFFFF" d="M103.1,19.1c0.1-0.1,0.2-0.3,0.2-0.4c0.1,0,0.2,0.1,0.1,0.1c-0.1,0.1-0.1,0.3-0.2,0.4
			C103.2,19.2,103.2,19.1,103.1,19.1z"/>
		<path fill="#FFFFFF" d="M418.4,12.8c0-0.2,0-0.4,0.1-0.6c0,0,0,0,0,0C418.5,12.4,418.5,12.6,418.4,12.8
			C418.4,12.8,418.4,12.8,418.4,12.8z"/>
		<path fill="#FFFFFF" d="M164.4,27.5c-0.1,0.2-0.3,0.3-0.4,0.5c0-0.1-0.1-0.1-0.1-0.2c0.2-0.1,0.3-0.3,0.5-0.4
			C164.3,27.4,164.3,27.4,164.4,27.5z"/>
		<path fill="#FFFFFF" d="M170.3,55.1c0-0.1-0.1-0.3-0.1-0.4c0.1,0,0.1,0,0.2,0c0,0.2,0.1,0.3,0.1,0.5
			C170.4,55.1,170.3,55.1,170.3,55.1z"/>
		<path fill="#FFFFFF" d="M76.8,41.9c0-0.2,0-0.5,0-0.7c0.1,0,0.1,0,0.2,0c0,0.2,0.1,0.5,0.1,0.7C77,41.9,76.9,41.9,76.8,41.9z"/>
		<path fill="#FFFFFF" d="M355.8,66.5c0-0.2,0-0.4,0-0.6c0,0,0.1,0,0.1,0c0,0.2,0,0.4,0,0.6C355.9,66.5,355.9,66.5,355.8,66.5z"/>
		<path fill="#FFFFFF" d="M222.2,33.9c0-0.2-0.1-0.3-0.1-0.5c0.1,0.1,0.2,0.1,0.3,0.2c0,0,0,0.1,0,0.2
			C222.3,33.9,222.3,33.9,222.2,33.9z"/>
		<path fill="#FFFFFF" d="M226.6,29.2c0-0.2-0.1-0.3-0.1-0.5c0,0,0.1,0,0.1,0C226.6,28.8,226.7,29,226.6,29.2
			C226.7,29.2,226.7,29.2,226.6,29.2z"/>
		<path fill="#FFFFFF" d="M384.9,55.6c0-0.3-0.1-0.4,0-0.5c0-0.1,0.2-0.1,0.2-0.1c0,0.1,0.1,0.2,0.1,0.3
			C385.2,55.4,385.1,55.4,384.9,55.6z"/>
		<path fill="#FFFFFF" d="M347.8,29.5c0-0.3,0-0.5,0-0.8c0.1,0,0.1,0,0.2,0c0,0.2,0,0.5,0,0.7C348,29.5,347.9,29.5,347.8,29.5z"/>
		<path fill="#FFFFFF" d="M39.1,39.8c0.1-0.4-1-0.6-0.2-1.3C39,39.1,39.1,39.4,39.1,39.8z"/>
		<path fill="#FFFFFF" d="M310.5,34.9c0,0.2-0.1,0.4-0.1,0.5c-0.1,0-0.1,0-0.2,0c0-0.2,0-0.4,0-0.5
			C310.3,34.9,310.4,34.9,310.5,34.9z"/>
	</g>
</g>
</svg>
