<?xml version="1.0" encoding="utf-8"?>
<!-- Generator: Adobe Illustrator 18.1.1, SVG Export Plug-In . SVG Version: 6.00 Build 0)  -->
<!DOCTYPE svg PUBLIC "-//W3C//DTD SVG 1.1//EN" "http://www.w3.org/Graphics/SVG/1.1/DTD/svg11.dtd">
<svg version="1.1" id="Layer_1" xmlns="http://www.w3.org/2000/svg" xmlns:xlink="http://www.w3.org/1999/xlink" x="0px" y="0px"
	 width="40px" height="33px" viewBox="-274.5 380 40 33" enable-background="new -274.5 380 40 33" xml:space="preserve">
<g>
	<path fill="#FFFFFF" d="M-235,381.6c-0.2-0.1-0.3-0.2-0.5-0.2c-0.6,0.1-0.7,0.3-0.8,0.4c0,0-0.2,0.2-0.4,0.6
		c-0.7,0.9-2.5,2.9-3.8,3.4c0,0-0.7,0.2-1.5,0.3c-0.8,0.1-1.8,0.2-2.9,0.2h-1c-0.7-0.6-1.7-0.9-2.9-0.9c-0.6,0-1.3,0.1-1.9,0.2
		c-0.2,0.1-0.6,0.1-0.9,0.1c-1.2,0-2.7-0.4-4.1-0.5h-0.8c-1,0-1.9,0.2-2.5,0.6c-0.6,0.1-1.1,0.1-1.7,0.1c-1.3,0-2.5-0.2-3.6-0.3
		c-0.5-0.1-1-0.2-1.3-0.2s-0.6-0.2-0.6-0.2c-1.2-0.6-2.4-1.7-3.3-2.6c-0.5-0.6-0.9-1-1.1-1.4c-0.3-0.3-0.4-0.6-0.4-0.6
		c-0.1-0.1-0.2-0.4-0.8-0.4c-0.2,0-0.3,0-0.5,0.1c-0.5,0.2-0.6,0.7-0.6,0.9c0,0.2,0.1,0.4,0.1,0.4s0.5,1.3,1.2,2.8
		c0.7,1.5,1.7,3.2,2.9,4.1c0.6,0.5,1.7,1,3.3,1.6c-0.3,0.2-0.7,0.2-1,0.3c-0.4,0.1-0.8,0.2-1.1,0.2s-0.5,0.1-0.5,0.1l-0.8,0.1
		l0.2,0.8c0,0.1,0.1,0.7,0.5,1.5c-3,1.6-5.1,3-5.1,3l-1.4,1l1.7,0.4c0,0,0.2,0.1,0.7,0.2c1.3,0.3,4.2,1.3,6,2.8
		c3.1,2.5,3.9,4.5,5.4,6.7c2.7,4.1,7,5.4,7,5.4l-0.1-1.4v-1c0-2.4,0.7-3.6,1.4-4.3c0.3-0.3,0.6-0.6,0.9-0.6c0.1-0.1,0.2-0.1,0.2-0.1
		h0.6c0.2,0,0.5,0,0.8,0.1h0.4c1.2,0,2.2-0.7,2.5-1.7c0.9-1.1,1.2-2.1,1.2-2.9c0-0.6-0.2-1.1-0.4-1.4c0-0.2-0.1-0.3-0.1-0.5
		c0-0.2,0-0.4,0.1-0.6c0.1-0.3,0.6-1,1.2-2.1c0.4,0.1,0.8,0.2,1.3,0.2h0.2c1.7,0,3-0.9,3.7-1.7c0.8-0.9,1.1-1.7,1.2-1.7l0.5-1h-1.2
		c-1.3,0-2.3-0.5-3.1-1c0.6-0.2,1.3-0.4,1.8-0.6c1-0.4,1.6-0.7,2.1-1c1.1-0.9,2-2.5,2.7-3.8c0.7-1.4,1.1-2.5,1.2-2.5
		c0-0.1,0.1-0.2,0.1-0.4C-234.6,382.2-234.6,381.8-235,381.6z"/>
	<path fill="#231F20" d="M-235.4,382.2c-0.2-0.1-0.2,0.1-0.2,0.1s-2.4,3.3-4.5,4.2c-0.5,0.2-3.3,0.7-6,0.5c-0.7-0.8-2.2-1.1-4.3-0.6
		c-1.5,0.3-3.6-0.2-5.2-0.4c-1.4-0.1-2.3,0.1-3,0.6c-3.1,0.4-7.2-0.4-7.7-0.7c-2.4-1.1-4.9-4.7-4.9-4.7s-0.2-0.2-0.4-0.1
		c-0.2,0.1-0.1,0.4-0.1,0.4s1.9,5,3.9,6.6c0.6,0.5,2.5,1.4,4.6,2c-1.4,1.3-4.3,1.6-4.3,1.6s0.2,1,0.7,2c-3.3,1.7-5.6,3.3-5.6,3.3
		s7.6,1.3,11.8,8.9c-0.3-1.5-0.1-2.5-0.1-2.5c1.1,4.5,3.6,6.8,6.3,8.1c-0.4-6,3.1-6.8,3.1-6.8c0.4-0.1,1-0.1,1.5,0
		c1.1,0.2,2-0.5,2.1-1.4c2-2.5,0.8-3.6,0.8-3.6s-0.2-0.9,0-1.7c0.2-0.7,1-1.5,1.5-2.8c0.4,0.2,1,0.3,1.7,0.3c2.9,0.1,4.4-3,4.4-3
		c-2.1,0-3.7-1.1-4.7-2.2c2.3-0.6,4.4-1.4,5-1.9c1.8-1.4,3.7-6,3.7-6S-235.3,382.3-235.4,382.2z"/>
	<path fill="#CF0A2C" d="M-248.3,391.6c0.1-0.2,0.2-0.4,0.2-0.4c0.6-0.6,1.6,0,1.6,0c-0.3-0.9-1.1-1.1-1.7-1.1
		c0.3-0.3,0.7-0.8,0.5-1.6c-0.2-0.6-0.8-1-1.8-1c0,0-1.4,0.3-3.1,0.1c-1.3-0.2-3.3-1.1-5.2,0c0.5,0.6,0,1.5-0.1,1.6
		c-1.7,3.5-5.8,3.4-5.8,3.4c1.1-0.5,1.9-1.2,2.3-1.7c-1,0.6-2.4,1.3-4.4,1.4c0,0,0.3,2.5,3.6,2.6c0.9,0,1.5-0.2,2-0.3
		c0.2-1,0.6-1.5,0.6-1.5s-0.1,3.2,3.4,5.5c0.1-1.2,0.6-1.8,0.6-1.8s-0.1,1.4,0.3,2.6s0.4,2.1,0.5,2.6c0.2,1.1,1.2,1.3,1.6,0.8
		c0,0-0.7-2.1,0.1-2.9c0.9-0.7,2.1-0.1,2.1-0.1s1,0.5,1.7,0.2c0.9-0.3,1.4-0.2,1.4-0.2s-0.6-1-0.7-2c-0.1-1.2,0.2-1.6-0.1-2.7
		c-0.6,0.3-1.1,0.4-1.1,0.4C-248.7,394.7-248.7,392.8-248.3,391.6z M-255.1,394.2c-0.2,0.1-0.4-0.1-0.4-0.1c-0.1,0-0.4-0.4-0.2-0.8
		c0.2,0.1,0.3,0.2,0.3,0.2c0-0.1-0.2-0.6-0.3-0.7c-0.2,0-0.3,0-0.4,0.1c-0.2,0.2-0.2,0.7,0.2,1c-0.3-0.1-0.6-0.2-0.8-0.5
		c-0.6-0.6-0.6-1.3-0.2-1.7c0.2-0.2,0.4-0.2,0.6-0.2c-0.5-0.6-1.1-0.6-1.1-0.6s1.5-1,2.3,0.9c0.5,1.1,1,3.1,2.6,3.7
		C-252.5,395.6-254.2,396-255.1,394.2z M-260.6,397.4c0.1,4.7,2,8.6,4,10.1c0.6-5-2.2-5.4-3.3-11.5c-1.8,1-3.8,1.3-5.7,1.2
		c1.4,0.9,2.8,2.1,4.1,3.7C-261.3,398.8-260.6,397.4-260.6,397.4z"/>
	<g>
		<path fill="#FFFFFF" d="M-258.9,387.6c-2.5,0.1-6.8-0.1-8.4-1.2c0,0,1.7,2.1,8.5,2.5C-258.4,388.7-258.4,387.9-258.9,387.6z
			 M-252,400.7c-0.2,0.1-0.4,0.4-0.4,0.6c0.1,0.3,0.3,0.5,0.6,0.5h0.1c0.3-0.1,0.6,0,0.7,0.2L-252,400.7z M-247.8,400.9l-1.1,1
			c0.2-0.1,0.4-0.2,0.7-0.1c0,0,0.1,0,0.1,0.1c0.2,0.1,0.5-0.1,0.6-0.3C-247.6,401.2-247.7,401-247.8,400.9z M-255.5,394.1
			c-0.1,0-0.4-0.4-0.2-0.8c0.2,0.1,0.3,0.2,0.3,0.2c0-0.1-0.2-0.6-0.3-0.7c-0.2,0-0.3,0-0.4,0.1c-0.2,0.2-0.2,0.7,0.2,1
			c0.2,0.2,0.5,0.2,0.7,0.2C-255.5,394.2-255.5,394.1-255.5,394.1z"/>
	</g>
</g>
</svg>
