<?xml version="1.0" encoding="utf-8"?>
<!-- Generator: Adobe Illustrator 18.1.1, SVG Export Plug-In . SVG Version: 6.00 Build 0)  -->
<svg version="1.1" id="Layer_1" xmlns="http://www.w3.org/2000/svg" xmlns:xlink="http://www.w3.org/1999/xlink" x="0px" y="0px"
	 viewBox="0 216.5 799 794" enable-background="new 0 216.5 799 794" xml:space="preserve">
<path fill="#FFFFFF" d="M615.4,662.4c-55.5,0-116,0-171.5,0c-35.3,0-50.4,15.1-50.4,50.4c-5,60.5-5,121.1,0,181.6
	c0,30.3,5,60.5-5,90.8c-5,15.1-10.1,25.2-25.2,25.2c-10.1,0-25.2-10.1-35.3-15.1c-5-5-10.1-15.1-15.1-25.2
	c-5-35.3-10.1-65.6-10.1-95.8c0-50.4,0-100.9,0-151.3s-15.1-60.5-60.5-55.5c-75.7,5-151.3,15.1-227,20.2c-5,0-10.1-5-15.1-10.1
	c0-5,0-10.1,5-15.1c5-5,10.1-10.1,15.1-10.1c35.3-15.1,65.6-30.3,105.9-35.3c40.4-5,85.8-15.1,126.1-20.2
	c30.3-5,50.4-20.2,50.4-50.4c5-70.6,10.1-141.2,15.1-211.9c0-30.3,0-60.5,0-90.8c0-10.1,10.1-15.1,15.1-25.2
	c10.1-5,30.3,0,40.4,10.1c10.1,15.1,20.2,30.3,20.2,45.4c5,35.3,5,65.6,5,100.9c0,55.5,5,105.9,5,161.4c0,30.3,15.1,45.4,45.4,45.4
	c20.2,0,40.4,5,60.5,5c90.8,0,176.6,25.2,267.4,45.4c5,0,5,5,10.1,5c10.1,5,15.1,20.2,10.1,25.2c-5,5-10.1,10.1-15.1,10.1
	C721.4,667.5,670.9,662.4,615.4,662.4L615.4,662.4z"/>
</svg>
