<?xml version="1.0" encoding="utf-8"?>
<!-- Generator: Adobe Illustrator 18.1.1, SVG Export Plug-In . SVG Version: 6.00 Build 0)  -->
<!DOCTYPE svg PUBLIC "-//W3C//DTD SVG 1.1//EN" "http://www.w3.org/Graphics/SVG/1.1/DTD/svg11.dtd">
<svg version="1.1" xmlns="http://www.w3.org/2000/svg" xmlns:xlink="http://www.w3.org/1999/xlink" x="0px" y="0px" width="100px"
	 height="105px" viewBox="-35.1 344.5 100 105" enable-background="new -35.1 344.5 100 105" xml:space="preserve">
<g id="Layer_1">
	<g>
		<path fill="#FFFFFF" d="M-15.9,357.9c1-1.2,1.9-2.5,3.1-3.7c0.6-0.7,1.6-0.9,2.3-1.5c2.3-1.9,4.5-3.8,6.8-5.7
			c0.8-0.7,1.8-1.3,2.8-1.8c1.8-0.8,2.5-0.2,2.6,1.7c0,0.2,0.1,0.4,0.1,0.8c1.7-0.5,3.3-1,4.9-1.6c4.4-1.6,8.8-1,13.2,0.2
			c2.3,0.7,4.7,1.4,7,2c0.3,0.1,0.7-0.4,1.1-0.5c0.4-0.2,1.1-0.5,1.2-0.3c2,2.2,5,2,7.4,3.2c2.6,1.3,4.9,3.1,7.3,4.7
			c0.7,0.4,1.3,1,1.8,1.6c1.3,1.5,1.3,1.5-0.5,2.6c0.5,0.3,0.9,0.8,1.4,1c1.8,0.4,2.7,1.7,3.7,3c1.7,2.1,3.3,4.3,5,6.4
			c0.2,0.2,0.4,0.3,0.4,0.6c0.5,2.1,2.1,2.7,3.9,2.8c1.8,0.1,2.4,1.4,2.7,2.7c0.9,3.8,1.7,7.5,2.3,11.3c0.3,2.2,0,4.5,0.1,6.8
			c0.1,3.3,0.3,6.7,0.5,10c0.1,1,0,1.7-1.2,1.8c-0.4,0.1-1,0.8-1.1,1.4c-0.4,1.6-0.5,3.3-0.8,4.9c-0.2,0.9-0.3,1.9-1.7,1.9
			c-0.4,0-1,0.7-1.3,1.3c-2.7,4.5-5.1,9.2-8.1,13.4c-2.7,3.8-5.9,7.2-10.1,9.5c-3,1.7-5.9,3.4-8.8,5.1c-0.4,0.3-1.1,0.6-1.4,0.5
			c-2.3-0.8-3.8,0.8-5.6,1.5c-1.5,0.6-2.9,0.9-4.5,0.4c-1.9-0.5-3.8-0.5-5.7,0.3c-0.9,0.4-1.9,0.6-2.5,0.8c-0.3,0.8-0.3,1.8-0.7,2.1
			c-0.8,0.5-1.5-0.1-2.2-0.7c-1.8-1.3-3.7-2.6-5.7-3.5c-3.7-1.8-7.3-3.8-10.8-6c-3.6-2.3-7.3-4.3-10.8-6.6c-2-1.3-3.7-2.9-5.7-4.3
			c-2.4-1.7-3.5-4.2-4.6-6.8c-0.7-1.8-1.9-3.3-2.9-5c-0.4-0.7-0.9-1.4-1.1-2.2c-0.5-3.1-1.1-6.1-1.5-9.2c-0.4-3.1-0.7-6.3-0.8-9.4
			c-0.2-4.5-0.3-9.1,1.4-13.4c1.1-2.8,1.9-5.8,2-8.9c0.1-1,0.4-2.1,1-2.9c2.3-3.3,4.9-6.5,7.1-9.8c1.3-1.9,3.2-2.9,5.1-3.9
			c0.5-0.2,1.3-0.4,1.7-0.2C-16.2,356.5-16.1,357.2-15.9,357.9z M-3.6,356.1c-0.4,0.1-0.7,0.1-0.8,0.3c-2.1,1.1-4.2,2-6.2,3.2
			c-1.2,0.7-2.6,1.5-3.4,2.5c-2.3,2.9-4.4,6-6.5,9c-1.9,2.7-3.5,5.5-4.3,8.7c-0.4,1.5-1.2,3-1.7,4.5c-0.4,1.4-1.1,2.8-1,4.2
			c0.2,2.6,0.8,5.2,1.2,7.8c0.2,1.1,0.3,2.2,0.3,3.2c0,0.7-0.4,1.4-0.3,2.1c0.7,3.4,1.5,6.8,2.3,10.2c0.4,1.8-0.1,3.9,1.3,5.5
			c0.3,0.3,0.3,0.9,0.5,1.3c0.5,1,1,2,1.5,3c0.2-0.1,0.3-0.2,0.5-0.2c-0.3-1.2-0.7-2.5-1-3.7c-0.2-1,0.1-1.9,1.2-2.1
			c1-0.2,1.1,0.7,1.3,1.5c0.8,3,1.6,6.1,2.6,9.1c0.4,1.2,1.2,2.3,2,3.2c0.9,0.9,2.2,1.4,3.3,2.2c2.6,1.7,5,3.4,7.7,4.9
			c0.9,0.5,2.2,1.3,3.4-0.4c2.1,1.7,4.2,3.2,6.2,4.8c1.8,1.5,3.2,1.6,4.8,0.2c2.6,1,5.1,1.6,7.8,0.7c1.5-0.4,2.9-0.9,4.3-1.6
			c2.7-1.3,5.4-2.4,7.9-4.1c3.9-2.6,7.6-5.5,11.2-8.5c1.7-1.4,2.9-3.6,4.7-4.8c1.8-1.2,2.7-2.9,3.9-4.3c0.3-0.4,0.8-0.9,1.2-0.9
			c1.1-0.1,1.1-0.8,1.3-1.6c0.1-0.4,0.1-0.8,0.2-1.1c2.4-6.5,4.8-13,7.1-19.6c0.1-0.4,0-0.9-0.1-1.3c-0.3-0.8-0.8-1.5-0.9-2.3
			c-0.6-4.8-1.3-9.5-3.2-13.9c-1.1-2.5-2.2-5-3.8-7.2c-1.8-2.4-4.1-4.5-6.1-6.7c-0.7-0.7-1.3-1.4-2.1-2c-0.4-0.3-1-0.7-1.3-0.5
			c-0.9,0.4-1.3-0.2-1.6-0.7c-1.2-2.7-3.7-3.8-6-5c-2.6-1.3-5.6-2.3-8.3-3.7c-4.3-2.3-9-3.4-13.7-4.4c-0.6-0.1-1.3,0.1-2.1,0.2
			c1.1,0.5,2,0.8,2.8,1.2c0,0.2,0,0.3,0,0.5c-0.5,0.3-0.9,0.8-1.5,1c-2.9,0.8-5.9,1.3-8.7,2.2c-1.5,0.5-3.1,1.3-4,2.5
			c-1.4,1.7-2.3,3.8-3.3,5.8c-0.5,1-1.1,1.4-2,1c-1-0.4-0.7-1.3-0.3-2.1C-5.1,358.5-4.4,357.5-3.6,356.1z M61.5,382.7
			c-0.1-3.2-1.2-6.3-2.4-6.7C59.6,378.4,59.7,380.8,61.5,382.7z M-29.7,381.6c0.1,0,0.3,0.1,0.3,0.1c0.8-1.9,1.6-3.8,2.5-5.9
			C-29.5,377.2-29.5,379.4-29.7,381.6z"/>
		<path fill="#FFFFFF" d="M42.6,391.2c0.4,0.2,0.8,0.3,1.2,0.5c0.2,0.1,0.5,0.1,0.6,0.2c0.5,1.3,1.9,1.5,2.8,2.3
			c-0.6,1.2-0.8,1.3-2.1,0.7c-1.3-0.5-2.5-1-3.8-1.5c-0.2,0.3-0.3,0.6-0.5,0.8c0.1,0.1,0.1,0.2,0.2,0.2c0.3,0.3,0.7,0.5,0.8,0.9
			s-0.1,0.8-0.3,1.2c-0.1,0.1-0.7,0-0.9-0.2c-2.4-2.1-2.3-1.3-4.6,0c-2.1,1.2-3.9,2.8-5.9,4c-2.8,1.8-5.7,3.5-8.6,5.3
			c-2.3,1.4-4.4,3-6.6,4.4c-3.3,2.2-6.8,4.3-10.1,6.4c-1.2,0.8-2.1,1.5-1.8,3.2c0.2,1.1,0.1,2.3,0.1,3.5c0,0.3,0,0.7-0.2,0.9
			c-0.2,0.3-0.5,0.4-0.8,0.5c-0.1-0.2-0.3-0.4-0.4-0.6c-0.2-0.8-0.4-1.5-0.6-2.2c-0.4,0.1-1,0.3-1.3,0.1c-0.3-0.2-0.3-0.9-0.5-1.3
			c0-0.1,0-0.3-0.1-0.3c-1.2-0.8-0.7-1.5-0.1-2.3c0.3-0.3,0.1-0.9,0.2-1.5c-0.9,0.2-1.6,0.2-1.3-1.1c0-0.1-0.6-0.5-0.9-0.4
			c-0.8,0.2-1.5,0.6-2.3,0.9c-0.4,0.1-0.8,0.1-1.4,0.1c0.4-1.1,0.8-1.8,1.9-2c1.1-0.2,2.1-0.7,3.1-1.1c0.8-0.3,1.3-0.9,1.5-2
			c0.6-4,0.6-8.1,0.3-12.2c-0.3-3.3-0.5-6.7-0.6-10c-0.1-2.3-0.2-4.7-0.3-7.1c0-0.3,0.1-0.6,0.1-0.8c-0.1-0.3-0.3-0.7-0.5-0.8
			c-1.5-0.6-3-1.2-4.4-1.7c-0.1-0.1-0.3-0.1-0.3-0.2c-0.3-0.3-0.4-0.5-0.7-0.8c0.3-0.2,0.6-0.5,0.9-0.5c0.8,0,1.6,0.1,2.4,0
			c-0.5-0.2-1.1-0.3-1.6-0.6c-0.3-0.2-0.5-0.5-0.8-0.8c0.3-0.2,0.7-0.5,1-0.5c1.1,0.3,2.2,0.6,3.2,0.9c0.4,0.1,0.8,0.3,1.3,0.4
			c0.2-2.5-1.3-5,0.1-7.5c0.9,0.5,0.7,1.6,1.1,2.4c0.3-0.7,0.5-1.4,0.8-2.4c0.3,0.4,0.7,0.6,0.8,0.8c0.2,0.7,0.4,1.4,0.5,2.1
			c0.1,1,0,2.1,0.1,3.1c0.1,0.7,0.3,1.4,0.6,2.1c0.1,0.2,0.5,0.3,0.8,0.5c0.1,0.1,0.3,0.1,0.3,0.2c1.5,1.9,3.9,2,5.9,2.8
			c4.7,1.8,9.4,3.5,14.2,5.1c3.9,1.3,7.8,2.6,11.7,3.8c2.4,0.8,4.5,0.5,6.3-1.3c0.5-0.5,1.2-0.9,1.7-1.4c0.5-0.4,1-0.6,1.4-0.1
			c0.4,0.5,0.2,1-0.3,1.4c-1.1,0.9-2.2,1.9-3.3,2.9C42.7,390.9,42.7,391,42.6,391.2z M19.2,386.1c0-0.1,0.1-0.2,0.1-0.3
			c-4.8-1.8-9.5-3.5-14.3-5.3c-0.1,0.2-0.1,0.4-0.2,0.6C9.5,383.3,14.2,385,19.2,386.1z M8.7,412.4c0-0.1-0.1-0.1-0.1-0.2
			c-1.6,0.7-3.2,1.4-4.8,2.2c-0.3,0.1-0.4,0.6-0.6,0.9c0.1,0.1,0.2,0.1,0.2,0.2C5.2,414.4,6.9,413.4,8.7,412.4z M3.7,402.8
			c0,2.4,0,4.8,0,7.3c0.1,0,0.2,0,0.3,0C4.4,407.7,4,405.3,3.7,402.8z"/>
		<path fill="#FFFFFF" d="M34.5,365.3c-0.6-0.3-1.2-0.6-1.7-1c-0.5-0.4-1-0.8-1.4-1.3c-0.2-0.3-0.2-0.7-0.3-1c0.4-0.1,1-0.3,1.2-0.1
			c1,0.7,1.8,1.4,2.7,2.2c0.2,0.2,0.3,0.6,0.3,0.8C35.3,365.1,34.9,365.2,34.5,365.3z"/>
	</g>
</g>
<g id="Layer_2">
	<path fill="#FFFFFF" d="M42.5,390.2c0.5,0.2,1,0.4,1.5,0.6c0.2,0.1,0.6,0.1,0.7,0.2c0.7,1.6,2.4,1.9,3.5,2.9
		c-0.8,1.5-0.9,1.5-2.6,0.8c-1.5-0.6-3.1-1.3-4.7-1.9c-0.3,0.4-0.4,0.7-0.6,1.1c0.1,0.1,0.2,0.2,0.3,0.3c0.3,0.3,0.9,0.7,1,1.1
		c0.1,0.4-0.1,1-0.3,1.5c-0.1,0.1-0.9,0-1.2-0.2c-2.9-2.6-2.9-1.6-5.7-0.1c-2.6,1.4-4.8,3.4-7.3,5c-3.5,2.3-7.1,4.3-10.6,6.6
		c-2.8,1.8-5.4,3.7-8.2,5.5c-4.2,2.7-8.3,5.3-12.5,7.9c-1.5,0.9-2.6,1.9-2.3,3.9c0.2,1.4,0.1,2.8,0.1,4.3c0,0.4,0,0.8-0.2,1.1
		c-0.2,0.3-0.6,0.4-0.9,0.7c-0.2-0.3-0.4-0.5-0.5-0.7c-0.3-0.9-0.5-1.9-0.7-2.8c-0.5,0.1-1.3,0.4-1.7,0.2c-0.4-0.2-0.4-1.1-0.6-1.6
		c0-0.1,0-0.3-0.1-0.3c-1.5-0.9-0.9-1.8-0.1-2.9c0.3-0.4,0.2-1.1,0.3-1.8c-1.1,0.2-2,0.2-1.6-1.3c0-0.1-0.8-0.6-1.1-0.5
		c-1,0.3-1.9,0.8-2.8,1.1c-0.5,0.2-1,0.1-1.8,0.2c0.6-1.4,1-2.3,2.3-2.5c1.3-0.2,2.6-0.8,3.8-1.3c1.1-0.4,1.7-1.2,1.9-2.4
		c0.8-5,0.7-10,0.3-15c-0.3-4.1-0.6-8.3-0.8-12.4c-0.2-2.9-0.2-5.8-0.3-8.7c0-0.3,0.2-0.7,0.1-1c-0.1-0.4-0.3-0.9-0.6-1
		c-1.8-0.8-3.7-1.4-5.5-2.1c-0.2-0.1-0.3-0.1-0.4-0.3c-0.3-0.3-0.6-0.7-0.8-1c0.4-0.2,0.7-0.6,1.1-0.6c1,0,2,0.1,3,0
		c-0.7-0.2-1.3-0.4-1.9-0.7c-0.4-0.2-0.6-0.6-0.9-1c0.4-0.2,0.8-0.7,1.2-0.6c1.3,0.3,2.7,0.8,4,1.2c0.5,0.2,0.9,0.3,1.6,0.5
		c0.2-3.1-1.7-6.2,0.2-9.3c1.2,0.7,0.8,2,1.4,3c0.3-0.9,0.6-1.8,1-3c0.4,0.4,0.8,0.7,0.9,1c0.3,0.8,0.5,1.7,0.6,2.6
		c0.1,1.3,0,2.6,0.1,3.8c0.1,0.9,0.4,1.8,0.8,2.6c0.1,0.3,0.6,0.4,0.9,0.6c0.2,0.1,0.3,0.1,0.4,0.2c1.8,2.4,4.8,2.4,7.3,3.4
		c5.8,2.2,11.6,4.3,17.5,6.3c4.8,1.7,9.7,3.2,14.5,4.8c2.9,1,5.5,0.6,7.8-1.6c0.7-0.6,1.4-1.2,2.1-1.8c0.6-0.5,1.3-0.7,1.8-0.1
		c0.5,0.6,0.3,1.2-0.4,1.7c-1.4,1.2-2.7,2.3-4,3.5C42.6,389.8,42.5,390,42.5,390.2z M-2.7,412.3c11.9-5.9,23.4-12.3,34.6-19.9
		c-0.6-0.3-0.8-0.4-1-0.5c-2.8-1-5.6-2.1-8.4-3.1c-4-1.4-8-3.1-12.1-4.2c-4.2-1.1-8.2-2.5-12.2-4.2c-0.7-0.3-1.5-0.5-2.7-0.9
		C-3.9,390.6-3.3,401.4-2.7,412.3z M13.5,383.9c0.1-0.1,0.1-0.2,0.2-0.3c-5.9-2.2-11.8-4.3-17.6-6.5c-0.1,0.2-0.2,0.5-0.3,0.7
		C1.4,380.4,7.3,382.5,13.5,383.9z M0.5,416.4c0-0.1-0.1-0.2-0.1-0.3c-2,0.9-4,1.7-5.9,2.7c-0.3,0.2-0.5,0.7-0.8,1.1
		c0.1,0.1,0.2,0.2,0.3,0.3C-3.9,418.9-1.7,417.7,0.5,416.4z M-5.7,404.6c0,3,0,6,0,9c0.1,0,0.3,0,0.4,0
		C-4.8,410.6-5.3,407.6-5.7,404.6z"/>
</g>
</svg>
