<svg xmlns="http://www.w3.org/2000/svg" width="274" height="50" viewBox="0 0 274 50"><g fill="#fff"><path d="M244.5 17.5c0 .1 0 .2.1.3.5 0 1.1-.3 1.6-.1l-1 .3c-.3.1-.7.1-.8.6.4-.1.7-.3 1.1 0 0 .5-.4.3-.7.4.3.4.2.6-.1.8l-3.5 1.5c-.9.3-1.8.6-2.7.8l-.4 4.7.4.1c1-.1 2-.2 3-.4.3-.1.6 0 .9 0 .3 0 .6-.1 1-.1-.6.5-2.8.8-5.3 1-.1.4-.1.4.4.4-.2.2-.6 0-.5.5-.1-.2-.2-.3-.3-.4.1-.1.2-.2.4-.5h-.7c0 .3-.1.5-.1.7v.6l2.1-.2 2-.4c.6-.1 1.3-.1 1.9-.1.1 0 .2 0 .3.1l-.2.2c.9 0 1.7.1 2.7.1l.3-1.5c-.4-.3-.7 0-1.2-.1.4-.1.6-.2.8-.2.3 0 .4-.1.5-.4 0-.3.1-.6.1-1.1-.5 0-1.1 0-1.6.1-.4 0-.7.1-1.1.2-.4.1-.8.1-1.1.2-.4.1-.7.1-1.1.1l-.3-.2c1.8-.3 3.5-.6 5.2-.6 0-.1.1-.2.1-.4l1.1-4.5c.3-1.1.6-2.2.9-3.4 0-.1 0-.3.1-.3.4-.1.3-.5.3-.8 0-.3.1-.6.2-1h.3c0-.3.3-.5.1-.8l.1-.4c.2-.3.3-.5.2-.9v-.3c.1-.5.2-1 0-1.5-.1-.4 0-.8 0-1.2h.4c-.1-.2-.1-.4-.2-.5 0 0 0-.1.1-.1l.2-.4c.3 0 .1-.3.1-.4 0-.1 0-.3.1-.4.1-.3.2-.3.1-.7.4 0 .2.4.5.6.6-.1.5-.8.8-1.2.3.6-.1 1.3.2 2l.2-.2c0-.2-.1-.3.2-.2 0-.1 0-.2.1-.3h.2c.1-.1.2-.2.2-.3v-1.5c.2.1.4.2.5.3-.2 1-.3 1.9.1 2.9h.1v-1c.3.7.2 1.3.3 1.9.4 0 .4-.4.5-.6v.2l.2-.8c.2.2.2.4.2.5 0 .6-.1 1.2-.1 1.7 0 .3.1.5.3.8.7.8 1.4 1.6 2 2.4.5.7.9 1.4 1.4 2l.6.7c.2.2.4.5.7.8.2 0 .4 0 .5-.4 0-.1.2-.2.3-.3.3-.3.7-.6 1-1 .2-.2.3-.2.4-.2l.5-1h.1v.3h.1l.2-.4.4-.2-.2-.2c.3-.6 1-1.1 1.1-1.9l.3.3v-.3l-.4-3.9c0-.3 0-.5.4-.5-.1-.3-.3-.5.2-.6.1.2.1.3.2.4.1.2.1.4.2.5 0 .1 0 .3.1.3.2.1.2 0 .3-.2h.2l-.1-2.2c.3.1.4.4.4.7 0 .5.1 1 .4 1.5.2-.2.2-.3.1-.5-.1-.4-.1-.4.3-.8l.2.3c.3-.4 0-.7 0-1 .1 0 .2-.1.2-.1 0-.4-.1-.7-.2-1.1 0-.2-.1-.5.3-.5.1.4.1.8.2 1.1l.2 1.1.3 1.3v.1c.6.5.5 1.3.9 1.8h.1c0-.8 0-1.7-.4-2.4.1 0 .2-.1.2-.1s.1-.1.1-.2l.1.1c.1.5.2 1 .2 1.4.2 1.2.3 2.4.5 3.5l.1.3c.1.3.2.6.3 1v.1c-.3.3-.2.6-.1.9l.4 1.7c.1.5.2 1 .3 1.4.3 1.1.7 2.2.9 3.4.2.8.5 1.5.7 2.2.3 1.5.6 2.9 1 4.4.3 1.3.5 2.6.7 4 0 .1 0 .2-.1.4l-.3-1.5c-.3-1.5-.5-3-.9-4.5l-.9-3.1c-.2-.6-.4-1.1-.5-1.7-.2-.6-.4-1.2-.5-1.9l-.9-4.1c-.1-.3-.1-.7-.2-1.1-.2.3-.3.5-.2.8.3 2.1.7 4.2 1.4 6.3.2.7.4 1.3.7 2l.1.2c-.2 1 .4 1.9.5 2.9.1.8.4 1.6.7 2.4.2.6.3 1.2.4 1.8l.2 2.4c0 .3.1.6-.3.9 0-.5-.1-.8-.1-1.2-.1-.4-.2-.7-.2-1.1h-.1c0 .2 0 .4.1.6.1.7.2 1.4.1 2.2 0 .3-.2.6-.5.6-.3.1-.5-.1-.6-.4 0 0-.1 0-.1-.1-.1.2-.1.3-.2.6-.3-.3-.5-.6-.9-.5-.1 0-.2-.2-.2-.3-.1-.3-.2-.7-.4-1.2-.1.2-.1.4-.2.5l-.1-.1-.3-1-.5-2.2c-.1-.4-.3-.7-.3-1.1l-.2-1c-.2-.7-.3-1.5-.7-2.2-.3-.7-.4-1.5-.6-2.3l-.9-3.5-.1-.1-.8.8c-.9 1.1-2.1 1.9-3.2 2.8l-.3.3c-.1.1-.1.1-.2.1s-.1.2-.2.3v.4c-.1-.1-.2-.2-.4-.2l-.2.5c-.4 0-.8-.1-1.1.3-.4-.4-.9-.6-1-1.2 0-.1-.2-.2-.3-.3-.2-.2-.5-.3-.4-.7 0-.1-.1-.2-.2-.2-.4-.5-.9-1-1.2-1.5-.7-1.1-1.6-2.1-2.4-3.1-.2-.3-.4-.5-.7-.8-.4.6-.5 1.4-.7 2-.1.4-.3.7-.4 1l-.5 1.9-.2.8c-.4 2-.9 4-1.3 5.9-.2.8-.4 1.7-.3 2.5 0 .2-.1.4-.2.7-.3-1.4.1-2.6.1-3.9l-.4 2.3-.1.5c0 .3-.2.6-.1.8.1.5-.2.8-.3 1.3-.3.1-.4.6-.9.6l-.4.1c-.2.1-.4.2-.7.1l-.3.1c-.2-.3-.3-.6-.6-.8-.3-.3-.4-.7-.4-1.1 0-.2.1-.5-.1-.7 0 .3-.1.5-.1.7-.3-.7-.4-1.5-.3-2.3-.4.9-1.3.8-1.9.9-1.1.3-2.3.4-3.5.6-.5.1-.9.1-1.4.1-1 0-2.1 0-3.1-.1l-.9.1c-.3-.5-.7-1-1-1.4-.4-.4-.9-.7-1.3-1.3.4 0 .6.1.9.1v-.1l-.5-.2c-.6-.3-.6-.6-.2-1.1l.2-.2.2.3c.1-.2.4-.3.1-.6-.1-.1 0-.2 0-.3 0-.4-.1-.8-.1-1.1v-.2c.3-.3.2-.6.2-.9.1-.6.1-1.2.2-1.7v-.6c-.8-.3-1.3-.9-1.7-1.7l.6-.5-.6-.5c.1-.1.2-.3.3-.5h-.4c.1-.2.3-.3.5-.5.2.3.4.4.7.2.3-.2.6 0 .9.3l.1-1.4c-.7.1-1.3-.1-2-.3.2-.1.4-.1.7-.2.4.2.7.2 1.4-.1 0-.6.1-1.2.1-1.9v-.2c-.4-.2-.1-.5-.1-.9-.6 0-1.1-.3-1.1-1.1 0-.2 0-.2.3-.3.1.2.2.6.7.4l-.7-.9.8-.2c-.4-.2-.8-.1-1-.4h1.5c-.1-.3-.1-.6-.1-.8-.3-.1-.6-.1-.8-.2-.1-.1-.1-.4-.2-.6.5-.1.8-.3 1.1-.6.3-.3.6-.5.9-.7.1.1.2.2.3.4.3-.3.1-.5.1-.8 0-.3-.1-.5-.2-.8.1-.1.2-.2.3-.4l.3 1.8c.5.2.9-.2 1.3-.1 0-.8-.4-1.6.1-2.3 0 .7.1 1.5.2 2.2.2-.1.4-.1.5-.1.8-.5 1.7-.5 2.5-.6.8-.1 1.5-.1 2.3-.1l-.4.1c.3.2.7.2 1.1.5-1.6.1-3.1.2-4.6.3.1.2.1.5.2.8.6-.1 1.2-.2 1.9-.3-.3.3-.6.3-.9.3l-.9.2.1.9c1.4 0 2.8-.1 4.1-.1-.1.1-.1.2-.2.4h.8c.2.1.4.3.6.5l.2-.4c.5-.1 1-.1 1.6-.2v.1h-.4l.2.5-.6.3c.3.4.9.1 1.2.4h-1c.3.4 1 .1 1 .7l-1.9.7c.3.3.8.1.9.5l-1.1.1c-1.3.1-2.5.5-3.8.9-.4.1-.8.2-1.1.3-.2.1-.3.2-.5.4v.3c0 .1.2.1.3.1.3-.1.6-.2 1-.2-.2.4-.5.3-.8.4-.2.1-.5.2-.5.4 0 .3 0 .6.3.7l-.3.3v.1l2-.6v-.1c-.3 0-.6 0-.9.1l1.5-.9h.3l.1.3-.5.2v.1l.4.1c0 .1 0 .2.1.3l.6-.1c.2.4.5.3.8.2-.4.2.1 0 .5-.1zm-8-7.5c.1-.1.2-.1.4-.2-.9-.1-.9-.1-1.1 0 .2.3.4.2.7.2l-.5.2c.2.1.5.2.5-.2zm19.2 3.1c.4.9 1.1 1.4 1.7 2.1-.2-.3-.3-.6-.6-.9-.3-.4-.7-.8-1.1-1.2 0-.3-.2-.5-.5-.5l.5.5zm-17.7 12.7c0-1.2.3-2.4 0-3.5-.5.1-.5.1-.5.5 0 .6-.1 1.2-.1 1.7 0 .4 0 .9-.1 1.3 0 0 0 .1.1.2.2-.1.3-.1.6-.2zm3.5-11v-.1l-1.9.2c-.6.1-.6.1-.5.8l2.4-.9zm-3-4.8c-.1-.3-.1-.5-.2-.7h-.8l-.2.8c.4 0 .8 0 1.2-.1zm-.8 1.3c.4 0 .7-.1 1-.1-.1-.3-.3-.5-.1-.9-.4.1-.6.1-.9.2v.8zm0 4.1c.2.2.3.4.4.6.5-.2.5-.2.4-.9l-.8.3zm.6 1.8c-.6.2-.7.4-.3 1 .3-.3.7-.5.3-1zm-.3-.2c.2-.1.3-.2.5-.2v-.6c-.4-.1-.5.3-.7.4 0 .2.1.3.2.4zm-.7 9.8h.6v-.6l-.6.1v.5zm-2.9-14.8c.2-.3.2-.6 0-.8h-.3c.1.2.2.5.3.8zm2.9-1.5c-.1.3-.1.6.1.8.1-.4.1-.4-.1-.8zm18.6 3.4l-.1.1c.2.3.4.6.7.9l.1-.1c-.3-.3-.5-.6-.7-.9zm1 1.3l-.1.1c.2.2.4.5.7.7l.1-.1-.7-.7zm-1.9-2.6c0 .4.2.7.4.9 0 0 .1 0 .1-.1-.1-.2-.3-.5-.5-.8zm-4.3 14.3c.1-.2.1-.5.1-.7-.1.2-.1.4-.1.7zm7.7-10.3c0-.3-.1-.5-.4-.5.1.1.3.3.4.5zm-20 1.9v-.1h-.4s0 .1-.1.2c.2 0 .3 0 .5-.1zm28.9-10.1c-.1.2-.2.4.2.5-.1-.2-.1-.4-.2-.5zm-16.8 19.2l-.1.5c.1-.2.1-.3.1-.5zm-14.3-17h-.2v.4h.1c.1-.1.1-.2.1-.4zm18.6-.3c.1-.1.1-.2.1-.3-.1.1-.1.2-.1.3zm-2.1-1.8c.1-.1.1-.3.1-.4h-.1v.4zM10.5 26c.3-.2.2-.4.2-.7-.7-.3-.8-.4-.4-.7v.3l.4-.2c0-.3-.2-.4-.4-.4l-1.6-.3c-.5-.1-1-.3-1.4-.6.3-.2.7.2 1-.2l-.5-.3c.4 0 .6-.1.9-.1.1-.3-.1-.3-.2-.4l-1.3-.3c-.3-.1-.6-.3-.8-.4-.5-.1-.9-.2-1.4-.4h.5c.1 0 .3-.1.3-.1.1-.4.5-.4.8-.4.4.1.9.2 1.4.2.3 0 .5 0 .5-.4.5 0 .9 0 1.4.1l.2-.7c.1 0 .3-.1.5-.1v-.1l.2-.6c.2-.5.1-.7-.4-.7-1.1 0-2.2 0-3.3-.1-.9-.1-1.8-.2-2.6-.3-.5-.1-.8-.3-1.2-.5-.3-.1-.6-.2-.8-.4-.2-.2-.4-.4-.8-.5-.2 0-.4-.3-.5-.5.1-.4.4-.2.6-.2 0-.1.1-.1.1-.1l-.6-.8-.2-.4c-.3-.1-.6-.2-1.1-.4.4-.2.5-.3.8-.3.7.1.8.1.9-.5l.8-.3.4-.1 4.4.1 3.8-.1c.3 0 .5-.3.7-.2 0 0 .1-.1.1-.2.1-.4.2-.7.2-1.1l-.1-.3c.5-.5.7-1.2.8-1.9.2-.8.4-1.6.7-2.3.1-.2.4-.1.5-.2l.3-.7.6-1.1c-.1.5-.5 1 0 1.7.2-.2.3-.3.5-.6 0 0 .1.1.2 0 .5-.2 1-.1 1.4.3.1.1.4.1.6.1v1.5l.2-.3c.2-.6.7-.7 1.2-.2.2.2.6.4.9.6l-.4.9-.1.2c-.5.3-.7.9-.8 1.4 0 .2-.2.4-.3.6-.3.4-.4.9-.5 1.4.5.1 1 0 1.4-.2.4-.2.9-.2 1.3-.3l1.3-.3c.2 0 .2-.2.2-.3 0-.2-.1-.2-.3-.1.3-.4.5-.9.6-1.5.1-.3.2-.7.4-1l.4-1.1c0-.1.1-.2 0-.2 0-.6.1-1.2.3-1.7 0 0 .1 0 .2-.1-.2.4-.3.8-.2 1.3.1-.1.1-.1.1-.2 0-.4.3-.6.4-1 .2-.6.6-1.1.4-1.8l.1-.3.3-.6.1-.1c.4-.1.6-.5.9-.7.2-.3.5-.4.9-.4l.4.8c.1.2 0 .4 0 .7.2.3.4-.2.7-.2.4.6.5 1.2.3 1.9s-.3 1.4-.8 2c-.1.2-.2.4-.2.6v.2c-.6.4-.7 1.1-1 1.7-.2.4-.3.8-.4 1.2v.4l1.8-.5 2.4-.6c.2-.1.3 0 .4.2-.3.1-.6.3-.9.5.4 0 .7-.1 1 .1.2.2.6.2.6.6.6.3.4.8.4 1.2 0 .3.1.6.2.9l-.6.3c0 .5-.3.7-.7.9-1 .8-2.2 1-3.4 1.4l-1.3.4c-.1.1-.3.2-.3.4-.1.6-.1 1.3-.1 1.9.6.2 1.1 0 1.7-.1 1.1-.2 2.2-.4 3.4-.7.4-.1.8-.1 1.1-.2.5-.1.5 0 .6.5 0 .1.1.1.2.2-.2.1-.4.1-.5.1.2.2.4.4.6.7 0 0 .2.1.3.1.5.2.5.3.5.8v.5l.1.9c-.4.1-.6.2-.8.5-.1.1-.2.3-.4.3-1.1.5-2.2.8-3.3 1-.9.1-1.7.3-2.6.5-.3.1-.6.1-1 .2 0 .3-.1.6-.1 1 0 .5.1 1-.3 1.5 0 .1-.1.2 0 .2.1.7-.2 1.4-.2 2.1 0 .3-.1.5-.3.6-.1 0-.2.1-.2.2 0 .3-.3.5-.6.6-.1-.6.3-1.3-.2-1.9-.1.4-.1.7-.2 1-.2-.1-.2-.1 0-.5-.4-.1-.6-.3-.6-.9l-.5.8c0-.1 0-.2-.1-.4-.1-.1-.3-.1-.5-.2.1-.2.2-.4.4-.6-.3-.2-.4 0-.5.2-.2-.3-.2-.5-.1-.8.1-.4 0-.7 0-1.1v-1.3c-.6 0-1.2.1-1.9.1h-1.9c-.1 1-.1 2-.2 2.9 0 .4-.1.9-.2 1.3-.2.7-.4 1.4-.5 2.1-.1.5-.3.9-.6 1.4v-.4c-.1 0-.3.1-.5.1.1-.3.2-.5.2-.7 0-.1 0-.2-.1-.3h-.5c0 .2 0 .3-.1.5-.4 0-.6.2-.6.6-.1-.1-.3-.1-.3-.2.1-.4 0-.9.4-1.2l-.1-.3c0-.1-.1-.2-.2-.3h.2c0-.2 0-.4.1-.8-.1.1-.3.2-.3.3-.2.3-.3.6-.6.7-.1 0-.1.3-.2.4-.1.2-.1.6-.6.6-.1 0-.2.2-.2.3l-.2.9c0 .2 0 .5-.2.7v.3c0 .2.1.5 0 .7l-.1-.5-.1-.6-.3-.5c-.1.2-.2.3-.3.4l-.1-.1c.1-.5.3-1 .4-1.6 0-.1 0-.3-.1-.4-.3-.5-.4-1.1-.5-1.6l-.1-.2c-.3.1-.2.4-.3.7v-1.4c0-.6.1-1.3.3-1.9 0-.1 0-.3-.1-.3-.3-.2-.2-.3-.1-.5 0 .1 0 .2.1.5.1-.3.1-.3-.1-.5v-.1zm10.4-6.4v-1.6c-1.4.2-2.7.4-3.9.6 0 .5-.1.9 0 1.2 0 .2.2.4.2.5 1.4-.1 2.6-.2 3.7-.7zm-6.2-12.7c-.2.2-.2.4-.2.7.1-.2.6-.4.2-.7zm-4.1 13.3c-.4.1-.3.3-.2.5h.1c.1-.2.1-.3.1-.5zm2.5-10.3h-.1c-.1.2-.1.4-.2.5h.1c.1-.1.2-.3.2-.5zM183.5 19.7l.4 1.5c.3 1.4.4 2.7.5 4.1 0 1.1.2 2.2.2 3.4 0 .3.2.6-.1.9.2.3.1.6 0 .9 0 0 0 .1.1.1.4 0 .3.3.3.5l.3 3.3c.1.7.1 1.4.1 2.1l-.1 1 .4 4.2c.1.6.1 1.3.3 1.9.1-.1.1-.2.3-.4.1.6.1 1 .2 1.5.3 0 .4-.2.4-.5l-.1-.7v-1l-.1-1.3-.1-.9c.4 1.2.1 2.6.7 3.8.1-.3 0-.7.2-1l.2-1.1c0 .6.1 1.2.1 1.7 0 .6.5 1 .4 1.7.1-.1.2-.1.3-.1l.1.1c0 .3.1.7-.2.9l-.2.2c-.2.2-.5.4-.8.6.1.3.2.5.3.7-.4.2-.5-.3-.8-.4-.6.4-.6.5-.3.9-.1 0-.2.1-.4.1 0 .3 0 .6.1.9-.3.1-.7.3-1.1-.2.1.2.1.3.1.6l-.9-.9c-.5-.6-.7-1.4-.8-2.2-.1-1.2-.3-2.4-.5-3.7l-.2-1.8c-.1-1.2-.3-2.4-.4-3.7-.2-2.5-.4-5.1-.7-7.6l-.8-9.4-.9-7.7c0-.3-.1-.6-.2-.9l-.4 1.1c-.5 1.1-1 2.1-1.2 3.3-.1.4-.3.7-.4 1-.2.6-.3 1.2-.5 1.7l-.7 2-.6 2.2c-.1.3-.2.6-.2.8-.1.2-.2.4-.2.6.1.5-.4.9-.4 1.3 0 .1-.2.2-.3.1-.1 0-.1-.2-.2-.3-.1.1-.2.2-.3.4l-.1-.1c.2-.3.1-.6.1-.9-.6-.1-.2.5-.4.7-.4 0 0-.3-.2-.4h-.3v-.2c.2-.2.2-.6 0-.7-.2-.1-.5 0-.6.2-.1.1-.1.2-.2.2-.3.1-.5.3-.7.6-.5-.1-.8-.4-1-.8-.6-.9-1-1.9-1.3-3-.2-.5-.6-1-.9-1.5-.7-1.1-1.5-2.2-2.1-3.4-.4-.8-.9-1.5-1.3-2.2-.1-.1-.1-.3-.3-.4l-.1 1.2c0 .5 0 1.1-.1 1.6s0 1-.2 1.5c-.1.4 0 .9 0 1.4 0 .2.1.4-.1.5-.1.1-.1.3-.1.4l-.1 1.8-.4 5.3c-.1.8-.1 1.6-.1 2.4 0 .4.1.8 0 1.1v.1c.4.4.2.9.2 1.4v1.5c0 .4-.1.4-.6.4.1.5.1 1 .2 1.6 0 .1-.4 0-.2.3.1.2-.2.8-.4.9-.2.1-.6 0-.8-.3l-.1-.1c-.2 0 0 .4-.3.3h-.5v.2c-.1.1-.7-.2-.7-.3-.1-.3-.2-.6-.5-.9-.1-.1-.1-.2-.1-.4l-.3-2.4c0-.8-.1-1.7.1-2.5.1-.5.1-1 .1-1.5 0-.7 0-1.4.1-2.1.1-.9.2-1.9.2-2.8l.1-.6.2-2.4.1-1.4c.2-1.4.2-2.8.6-4.2.2-.7 0-1.4 0-2.1v-.4c.3-1.6.6-3.2 1-4.9.1-.3.2-.5.1-.8 0-.3-.1-.7-.2-.9-.4-.7-.7-1.5-.8-2.3-.1-.3-.1-.6-.2-.8.2 0 .2.3.5.1.1-.1.3-.1.5-.1l-.3-1.2c.5.3.5.3.7.8.1.4.3.7.6 1 .1.1.2.2.2.4.3.2.4-.1.5-.3l.6.5c.1 0 .2.1.2 0 .2-.2.3-.1.5 0 .1 0 .2 0 .3-.1l.3.6c0 .1.1.2.1.2-.2.3 0 .6.3.8-.1.2-.1.3-.2.4.2.4.3.8.5 1.1.3.6.6 1.2.9 1.7.2.3.3.7.6 1l.4.8c.5 1.3 1 2.6 1.8 3.7.1.2.3.4.6.3.1 0 .2.2.3.4.3 0 .7.2.9.5.4-.4.6-1 .9-1.5.3-.6.5-1.2.9-1.8.3-.4.4-.9.6-1.4l.6-1.1c0-.1.1-.1.3-.2l-.3.8-.9 2.3-.1.3c.1.4-.1.8-.3 1.1v.1c.4-.3 1.8-3.5 1.7-4.3.1-.1.3-.2.4-.4l.8-2.1c.1-.3.1-.6.1-1 .1 0 .2.1.3.2l.3-1.1.3-1.3c.2-.6.5-1.2.7-1.7.1-.3.2-.6.4-1l.3.1c.2-.4.3-1 .7-1.3 0-.1-.1-.3-.2-.4h.7c.2.3 0 .6-.2.8-.1.2-.2.5-.2.9l.4-.4.3.3.8-1.4.5-.4.1.1-.3 1.1.1.1c.1-.1.1-.2.3-.4.1.2.2.3.1.3-.2.4 0 .7.1 1 0 .2.1.4 0 .6-.2.8.1 1.4.4 2-.2.3-.2.6-.2.9l-.1 1.5c.1 1.3-.1 2.6.2 3.9.2 1.1.2 2.3.3 3.4l.5 3.9c.1.8.3 1.7.3 2.5 0 .4 0 .9.2 1.3.1.2.2.5-.1.8-.1.1 0 .4 0 .7.4-.4.4-.4.3-.8l-.3-2.7c0-.4-.3-.7-.2-1-.1.1-.1 0 0-.1zm-10.5-3.6c.1-.1.2-.3.2-.4h-.1c-.1.1-.1.3-.1.4l-.3.3s.1 0 .1.1c0-.1.1-.2.2-.4zm-9.2 7.2h.2c-.3-1.6.2-3.2 0-4.8-.1.6-.3 1.2-.3 1.7v1.7c0 .3 0 .6-.1.9 0 .3.1.4.2.5l-.3.1.1.4-.2 2.6-.3 3.8c-.1.9-.1 1.7-.1 2.6 0 .6-.2 1.2-.2 1.9 0 .4 0 .9.4 1.2.1-.5.2-1-.2-1.2 0-.4 0-.8.1-1.2l.3-3.3.2-3.2c0-.5 0-1 .2-1.5.2-.4.2-.7.2-1.2-.1.1-.1.1-.2.3v-1.3zm-2 4.8c-.1 1-.3 2-.1 3.1.2-.7.3-1.4.3-2.1 0-.4 0-.7-.2-1 .1 0 .3 0 .3-.2l.3-2.8v-.3c-.1-.4 0-.7.2-1v2.1l.3-.9.5-4.1.3-3.4-.1-.9-.1-.6.1-1c-.1 0-.2.1-.2.2-.1.5-.2 1-.2 1.4-.1.6-.2 1.3-.2 1.9l-.3.7-.3 3c-.2 1.7-.3 3.5-.4 5.2-.2.1-.2.4-.2.7zm-.4 5.5c.1-.4.3-.8.2-1.1-.2-.4 0-.7 0-1-.3.7-.3 1.4-.2 2.1zm1.1-6.4h-.1l-.2.5h.1c.1-.2.2-.3.2-.5zm.1-1c-.1.1-.1.3-.1.5l.1-.5zM40.3 22.7c0-.3 0-.7.1-1 0-.3.1-.6.2-1 0-.1.1-.2.2-.2.4 0 .4-.2.3-.4-.1-.2 0-.3 0-.5.1-.6.3-1.2 0-1.8l.2-.2c.3-.2-.1-.6.3-.8.2-.1.2-.5.2-.8v-.5c.2-1 .4-2 .3-3.1.2.2.2.4.3.6h.1c.1.6.2 1.1 0 1.7-.1.3-.2.6 0 1l.3-1.3v-.3c.3-.2.2-.4.3-.7 0-.1 0-.3.1-.4.3-.3.3-.7.5-1.1-.7-.1-.1-.7-.4-1.1-.1.1-.2.2-.2.4l-.2.7c-.1.4-.1.8-.4 1.1l.3-1.5c0-.1.2-.3-.1-.4 0-.1 0-.3.1-.4.2-.3.2-.6.2-.9l-.2.3-.2-.2c-.2.1-.1.6-.5.5.1-.4.3-.8.4-1.3l.3.2c0-.2-.1-.4 0-.6.1-.1.3-.2.4-.4.2.3.3.6.5 1h.1l-.2-1.3c-.2-.4 0-.9 0-1.3.4 0 .2-.4.3-.6.2-.1.4-.1.4-.2.1-.1 0-.3 0-.5s.1-.4.1-.7c.1-.3.2-.6.4-.9l.3-.3.4-.2c.3-.2.5-.5.5-.9l.1-.4s.1 0 .1-.1c.3-.1.5-.4.9-.4.1 0 .2-.2.3-.3.2-.3.3-.6.5-1 .2.4.4.7.7 1.1 0 .1-.1.2-.1.4.5.3.5.3.8-.5.2 0 .5-.2.7.1.2.3.3.6.1 1-.5.8-.7 1.7-1 2.5l-.1.3c-.2.2-.2.5-.1.7l.2.8.4-.3c.3 0 .1.4.4.3 0 0 .1 0 .1.1.2.3 0 .9-.2 1.2-.2.2-.3.1-.5.1v1c0 .1.1.1.2.1l-.1 1.2.1-.2c0-.3 0-.7.1-1v-.7h.1l.1.3v2c0 .3.1.5-.2.7-.1 0-.1.2-.1.3l.3 3.6.3 2.4c0 .3.1.5.4.6-.5.8-.2 1.5-.1 2.3.5-.4.6-.9.5-1.4 0-.2 0-.5.1-.8.1-.4.4-.8.7-1.1.3-.3.4-.8.5-1.2.1-.5.3-1 .6-1.4.3-.5.3-.6-.1-.9l.3-.1c.1 0 .3.1.3-.1l.4-1.1c0-.1.1-.2.2-.4.1-.1.1-.3.1-.5h-.1c-.1.2-.2.4-.4.6-.1-.3 0-.5.1-.6.1-.1.2-.3.1-.5.2-.2.4-.4.6-.5.6-.1.5-.7.8-1.1-.3 0-.5-.1-.5-.3 0-.1.2-.3.4-.3v-.5h.7l.2-.5-.3-.3c.1-.2.1-.3.2-.4l.2-.2c0 .2.1.2 0-.2 0-.2-.1-.3-.1-.4l-.1-.6c.6 0 .8-.2.8-.8v-.2c0-.2 0-.3.1-.7.1.4.3.3.5.4-.2.3-.4.5-.3.8.5-.2.6-.4.2-.7 0-.1.1-.2.2-.3h.4c0-.2.1-.5 0-.6-.2-.2-.1-.4-.1-.6 0-.3.1-.6.2-.9l.4-.1c-.1.3-.2.6-.2.9.2.2.3.1.4-.1l.4-1.2c.1-.4.2-.6.6-.6.3-.4.3-.9.8-1.2l-.5 1.5c.4.1.7.1 1.1.1.6 0 .6 0 .5.5-.1.4 0 .8-.3 1.2-.1.1 0 .3 0 .5 0 .6 0 1.3-.3 1.9-.2.4-.2.8-.1 1.2 0 .2 0 .4-.1.7-.4.6-.5 1.1-.1 1.5-.4.3-.4.7-.5 1.1l-.3 3.1-.3 4c0 .2 0 .5.2.7.2.1.3.3.5.5-.4.1-.4-.4-.7-.4l-.2 1.7c-.1 1.6-.2 3.2-.2 4.7 0 .6 0 1.2-.1 1.8l-.1 2c0 .4-.1.7.1.9-.1.5-.2.9-.2 1.3 0 1.5 0 3-.1 4.5-.2.1-.4.1-.5.2-.1.6-.1 1.2-.2 1.7 0 .2 0 .4-.2.5-.4.4-.5.7-.3 1.2-.2.4-.8.4-.9.9-.3-.1-.5-.1-.7-.2.2-.6 0-1-.4-1.5-.3-.4-.7-.9-.5-1.6l.4.4.1-.6.1-3.9c0-.6.1-1.2.2-1.7v-1.4c0-.3 0-.7-.1-1v.8c-.2-.1-.3-.1-.3-.4-.2-.7.1-1.4.1-2.1l.1-3.6.1-2 .2-3v-.6l-.2.2c-.1-.5-.2-.9 0-1.3.1-.3.1-.7.1-1-.7.7-.9 1.5-.8 2.5l-.1-.5c-.1.5-.2.8-.3 1.2h-.1c0-.2 0-.4.1-.8-.1.2-.2.3-.3.4-.3.6-.5 1.3-.9 1.9-.4.7-.7 1.4-1 2.1l-.8 2c-.1.4-.3.7-.5 1-.2.3-.3.7-.2 1.1.1.7 0 1.4-.2 2v.4c-.2-.3-.4.1-.6-.1-.1-.1-.4-.2-.6-.2-.8.6-1.3 1.4-2.1 1.9-.5-.2-.3-.6-.3-.9 0-.4-.1-1-.3-1.3l-.1-.1c-.1-.1-.3-.2-.1-.4.2-.2.3 0 .4.1h.1c.2-.5.2-1 .6-1.4.1 0 .2.1.4.1 0-.1.1-.1 0-.2-.4-1.3-.5-2.7-.7-4l-.4-2.5c0-.3 0-.6-.1-.9-.1-.3-.2-.6-.2-1h-.1v1.3h-.2l-.1.7h-.6c0 .2 0 .4.1.5.1.3.2.4 0 .8-.1.3-.2.7-.3 1.1 0 .1 0 .4.1.4.3.2.2.6.3.9 0 .2-.1.4-.2.7l-.1.5c0 .2.3.5-.2.6v.2c.1.2.1.3-.1.4-.2.2-.1.6 0 .8.1.5.2.9.3 1.3v.5c-.1 0-.3 0-.4.1-.4.2-.7.3-.7.9 0 .3 0 .7-.5.8-.1 0-.2.3-.2.5s0 .3.1.6c-.6.4-.7 1.1-1 1.7-.1.2-.2.5-.4.6l-.2.3c-.1.1-.3.3-.5.4 0-.3-.1-.4-.1-.6h-.2c-.2.3-.5.6-.7 1-.1.2-.2.3-.5.2l-.3-.5c.1-.4.4-.8 0-1.2l-.6 1.1-.5-.2.3-.6c-.5-.5-.5-.5-1.1.2.2-.6.4-1 .4-1.6 0-.5.4-.9.5-1.3-.4-.1-.2-.4-.2-.6.1-.2.2-.3.2-.5 0-.3.1-.4.4-.5-.1-.4.1-.7 0-1 .4-.1.2-.5.3-.8l.3-.8v-.1c.1.1.2.3.3.5v-.9c-.2.2-.3.3-.3.4.2-.3.2-.7 0-1-.1-.2 0-.6 0-.9l.6-.2-.3-1.2.2-.1c.1 0 .2 0 .4.1v-.5c-.2.1-.3.2-.4.4zm.7-.6c.1-.1.1-.1.1-.2.1-.5.2-1 .4-1.6.1-.3.1-.5.1-.8l-.1-.8h-.1c-.2 1.1-.4 2.2-.4 3.4zm1-3.8l.1-1.4c0-.1-.1-.2-.1-.4-.4.4-.3.9-.4 1.4-.1.3.1.4.4.4zm1.5-7.6c-.3.3-.2.6-.2 1 .4-.3.3-.7.2-1zm-2.9 11.1h.2v-.8c-.3.2-.3.4-.2.8zm-.3 5.8h-.1c-.3.4-.3.4 0 .8l.1-.8zm2.6-13.7h.1v-.4h-.1v.4zm-2.7 13.5h.1c0-.2 0-.3.1-.5h-.1c0 .1 0 .3-.1.5zM101.4 15.8c-.1-.1-.1-.2-.2-.2h-.5c.7-.7 1.7-.9 2.6-1.4v-.3c1.5-.3 2.9-.5 4.4-.7.5-.1 1 0 1.4 0 .4 0 .9.1 1.3.3.4.1.8.3 1.2.5.1.1.2.2.4.2.5 0 .7.4 1 .7.2.1.1.4 0 .4-.2.1-.2.2-.2.4v.1c.1.4-.2.7-.2 1l.3.9c-.1.7-.4 1.4-.9 1.9l-.6.7-.6.6-.3.3c-.4.3-.8.6-1.1.9l-.3.3c.2.2.4.4.6.5 1 .5 1.7 1.3 2.5 2.1.1.1.2.2.2.3l1.8 3.3c.3.6.5 1.3.7 1.9l-.8-1.2c-.3-.5-.4-1-.8-1.4-.6-.8-1-1.7-1.5-2.6l-.4-.6-.1.1.9 1.5c.6 1 1.2 1.9 1.7 3 .4.8.8 1.5 1.4 2.1.1.1.1.2.2.2 0 .3.2.4.3.6.1.1.3.2.4.2.2.2.5.4.6.6.1.2.3.3.5.4.4.1.8.1 1.1.2.1 0 .3-.1.5-.2 0 .1.1.3.2.4h.4c0 .1.1.2 0 .2-.1.1-.2.3-.2.4 0 .2-.1.4 0 .5.1.3.1.5 0 .7-.1.2-.1.3-.1.5s-.1.3-.1.6c.2 0 .4 0 .6-.1-.1.5-.5.5-.8.6l-.7.3c-.2.1-.3.3-.1.5l-.9.6c-.3.2-1 .1-1.3-.2-.5-.5-1.1-.9-1.8-1.1-.3-.1-.5-.4-.7-.6l-.6-.9c-.4-.6-.8-1.2-1.1-1.8-.4-.8-.9-1.5-1.3-2.2l-1.7-2.8v-.1c-.3-.8-.9-1.1-1.8-.9-.3 0-.6 0-.9-.1-.2.1-.4.3-.6.5 0 1.5.6 2.9.7 4.5h-.4c0 .2.2.4-.1.6-.1 0-.1.2-.1.3v1c0 .3.1.6-.3.7 0 0-.1.1-.1.2-.1.3-.4.5-.7.5-.4-.4-.5-1-.7-1.6l-.1.4.1.3c.1.5 0 .7-.4.9l-.3.2-1-.6c-.1 0-.1-.2-.1-.2-.2-.6-.5-1.2-.5-1.9 0-.2-.1-.4-.2-.7-.1-.3-.2-.7-.2-1 0-.3 0-.5-.1-.8-.1-.5-.4-1-.1-1.5.1-.1 0-.3 0-.5l-.2-2.4c0-.3 0-.6.1-.9l.1-.2-.2-2.3v-.2c.2-.5.3-.9.1-1.4-.1-.2.1-.5.1-.8v-2.1c0-.2 0-.4.1-.6-.3-.2-.6.2-.9-.1.2-.3.6-.3 1-.5-.5-.1-.8-.1-1.2-.1v-.1c.2-.1.4-.2.7-.3l-1-.5c.3-.3.6-.6 1-.6s.7 0 .9-.3c.2.2.4.1.6.1.1 0 .1-.1.2-.2l-.2-.2c-.3 0-.4.2-.6.3zm8.8 2.1c-2.1-.4-4 .2-5.9.4 0 .5 0 .9.1 1.3l.2 1.6.3 1.4c0 .1.1.2.2.2.3.2.6.4 1 .4-.3-.3-.6-.5-.9-.7.3-.4.6-.7.8-1 .1-.1.2-.1.3-.1.5-.1 1 .1 1.4.3.2.1.4.3.7 0l1-.9c.6-.6 1.1-1.3 1.6-1.9.1-.1.2-.2.2-.4l-.1-.1-1 .9c-.3.3-.6.6-1 .9-.3.3-.6.7-1.1.8 0-.1 0-.2.1-.3.4-.4.7-.9 1.2-1.2.4-.3.4-.6.4-1 .1-.2.3-.4.5-.6zm-4.7 8.6c-.3.5-.3.5-.1 1.1.7 0 1.5.1 2.3.1-.1-.4-.4-.6-.7-.6-.3 0-.6-.1-.9-.2-.1-.1-.3-.2-.6-.4zm6.3-11.1c0 .3 0 .5.1.7 0 .1.1.2.2.2.2-.1.4-.2.5-.4.1-.2.1-.5-.1-.6-.5-.3-.9-.7-1.5-.7 0 .4.1.5.8.8zm-3.8-.3l.1.1c.5.1 1 .1 1.4.2.1 0 .3 0 .3.1.3.3.7.2 1.1.3 0-.1 0-.3-.1-.3-.4-.2-.8-.5-1.3-.6-.5-.1-.9.3-1.4.1l-.1.1zm-2.9.3c-.7-.3-1.4-.2-2 0-.1 0-.1.2-.2.3.8-.1 1.5-.2 2.2-.3zM140.1 13.1c.1 0 .1 0 .1.1.1.6.3 1.1.3 1.7 0 .3.1.7.3 1 .5.7.6 1.5.8 2.2.2.8.4 1.6.7 2.4.1.2.1.5.5.5.5-.6 1-1.1 1.4-1.7 0 0 0-.1.1-.1.8-.3 1.1-1.1 1.7-1.6.1-.1.1-.3.2-.3l.4-.2.6-.9c0-.1.1-.2.1-.2l.5-.4.2-.2c.5.1.5-.3.7-.6l.8-1.3.3.2c.1-.1.3-.3.4-.5.2.2.4.4.2.7l-.3.6v.7c.3-.3.5-.4.6-.6 0 .5-.3.7-.5 1.1.5.4.5.4.8-.1l.1-.2.2-.2.2.3c-.1.6-.9 1-.6 1.8.3-.3.4-.5.6-.7h.1l-.3.5c-.3.5-.7 1-.9 1.6-.3.7-.8 1.3-1.2 2-.1.2-.3.4-.5.6-.2.2-.3.5-.4.7l-1.4 2c.3.5.8.7 1.2 1 1.1.8 2.3 1.5 3.3 2.5.3.3.7.5 1 .7.5.4.9 1 1.4 1.5.4.4.7 1.1 1.5 1-.1.1-.1.2-.1.3.2.4.6.4.9.4l.1.6c0 .3 0 .4.3.5.1 0 .1 0 .1.1.2.4.5.7.8 1.1-.5.1-.3.8-.8 1l.2.3-1 .1c-.2 0-.4.1-.6.3-.1.1-.3.3-.5.2-.4-.2-.9-.2-1.2-.5l-2.5-2.2c-.7-.6-1.3-1.2-2-1.9s-1.5-1.2-2.4-1.7l-1.5-.9c-.2-.1-.4-.2-.7-.3l-.1.6-.2-.6c0 .3-.2.6.1 1v-.4c.2.7.3 1.4.5 2.2.2.9.2 1.8.5 2.6.1.1.1.3 0 .5 0 .1-.1.3-.1.6-.1-.3-.2-.5-.3-.7-.2-.9-.3-1.7-.4-2.6 0-.2 0-.4-.3-.3l-.2-.2c.1.5 0 1 .2 1.5.1.3.1.5.1.8-.1.7-.1 1.3.1 1.9.1.3.1.6-.2.9-.2.2-.3.6-.7.7l-.1-.3-.3-1.8c0-.2-.1-.3-.2-.5 0 .4-.1.8.1 1.1.1.1 0 .2 0 .3l-.1 1.2c0 .3-.2.4-.4.4-.3.1-.5 0-.6-.2l-.3-.7-.4.4-.4-.6c-.1 0-.2 0-.4.1l-.3-2c-.2-1.4-.4-2.8-.5-4.2l-.2-3.3c-.1-.9-.1-1.8-.5-2.6-.1-.3-.1-.6-.1-.9 0-.9-.1-1.8-.5-2.7-.1 0-.2 0-.2.1 0-.1-.1-.1-.1-.1l.1-.8c0-.1 0-.3-.1-.3-.4-.1-.3-.4-.3-.7 0-.3-.2-.6-.3-.9l-.3-.5.3-.4c-.2-.2-.3-.5-.5-.8.6-.3 0-.9.2-1.4.2.2.3.3.5.4.1-.4.1-.7-.1-1l-.2-.3c0-.2 0-.4.3-.3l-.2-1.4c.3.1.3.3.4.5.2.7.4 1.4.5 2.2.1.4.3.6.6.7 0-.2 0-.4.1-.6l.6-.3.4.4c.4-.6.2-1.1.2-1.7zm4.2 17.6c.1-.2.1-.2.1-.3l-.2-2.3c0-.3-.2-.3-.5-.2.1 1 .2 1.8.6 2.8zm12 3.1c0-.3-.2-.5-.5-.5 0 .3 0 .5.5.5zM228.6 9.4c0 .1 0 .3-.1.4-.2.5-.2 1.1-.2 1.7.2 0 .3 0 .5.1l.2-1.5h.1v.6c0 .3-.1.6.2.9v.3c0 1.2 0 2.3-.3 3.5-.2.7-.1 1.5-.2 2.2 0 0 .1 0 .1.1.2-.4.3-.7.3-1.1.1-.4.1-.9.1-1.3.1-.7.3-1.3.4-1.9.1-.4.2-.8.1-1.3v-.3c.3-.4.3-.9.4-1.4l.1.3v.6l-.4 3.3c0 .3-.1.6-.2 1-.1.7-.2 1.4-.4 2.1.2 0 .4 0 .6-.1l-.5.5c0 .5 0 1-.1 1.6.8-.3 1.3.1 1.7.7-.1.2-.2.3-.4.5h.6l.2.6c-.1.1-.2.2-.3.2-.4.1-.7.3-1 .7-.1.2-.3.2-.6.4l.2 2.1.2 2.1c.1.7.3 1.4.1 2.1-.4-2-.8-4-.9-6.1-.5.2-.4.6-.3.9 0 .4.1.8.2 1.3.2 1.5.3 2.9.4 4.4 0 .2 0 .4-.1.6l-.2-.9h-.1v1.5c-.5-.1-.2.4-.5.6-.5-.1-.7.2-.8.6-.2.1-.4.1-.5.2-.3.1-.5 0-.6-.3l-.6-1.3-.2-.6c-.1-.5-.2-1.1-.4-1.6s-.3-1-.3-1.5l-.3-2.5-.1-.5c-1.1.1-2.3.1-3.4.6.1 1.5.2 3 .3 4.6-.3-.3-.2-.6-.2-1l-.1-1h-.1v1.2h-.1l-.1-2.1c.1.1.2.3.2.4h.1l-.2-1.9h-.1c0 .2 0 .4-.1.6l-.1-.4c0-.1-.1-.2-.2-.3-.2.8 0 1.5 0 2.3 0 .8 0 1.5.1 2.3h-.1l-.1-.9c-.2.1-.2.3-.2.4 0 .2 0 .4-.2.5-.3.1-.2.4-.3.7.2-.1.3-.1.4-.2h.1l.1.8h-.1l-.3-.5c-.3.8-.8 1.4-.9 2.3-.5-.1-.4-.6-.7-.8h-.6c-.1-.2-.1-.5-.2-.8-.2-1.1-.3-2.2-.5-3.4-.1-.5.1-1-.3-1.4-.1-.7-.4-1.4-.3-2.2.1-.7 0-1.4 0-2.2 0-.7 0-1.4.1-2.2l.3-3c0-.2 0-.4.1-.6.5-1.3.6-2.6.7-3.9v-.3c0-.1 0-.2.1-.3 0 .1.1.2 0 .3-.1 2-.4 3.9-.8 5.9-.1.7-.3 1.5 0 2.3l.2-1.8.6-3.8c.2-1.5.3-3 .3-4.4 0-.5.1-.9.3-1.3.1-.2.1-.6.1-.8 0-.3 0-.6-.1-.9-.1-.4.2-.6.3-.9 0-.1.2-.1.3-.1 0 1.2 0 2.4-.1 3.6.2-.1.4-.2.4-.4s-.1-.4.1-.5l.4-.2s.1 0 .2-.1c0 .3 0 .5.1.7h.1l.1-.6c.2.4-.2.8.1 1.1.2 0 .3-.2.3-.3v-.8c0-.2 0-.4.1-.7h.1v1.4c.5.2.5.7.5 1.2 0 .8-.1 1.6-.1 2.3v1c.5-.7.6-2.9.3-5.6l.3.4v-.4h.1c.1.3.2.6.2 1 0 1.5-.1 3-.4 4.5-.2.9-.3 1.9-.5 2.9 0 .3-.1.5-.2.8-.1.5-.1 1-.2 1.6.3.1.6.1.9.1l2-.1-.4.1-2.2.2-.3.1c.7.3 1.4 0 2.3.2-.5.3-.8 0-1.2.1-.3.1-.7.1-1 .1 0 .2 0 .4-.1.6.6.2 1.2.1 1.7 0 .4 0 .8 0 1.3-.1 0-.2.1-.4 0-.7-.1-.3 0-.5 0-.7l-.1-.1c.1-.1.2-.2.2-.4.1-.6.2-1.2.2-1.8 0-.5 0-1.1.1-1.6v.9h.1l.7-4.2c0 1-.1 2-.3 3 .1-.2.4-1.1.4-1.3.1-.7 0-1.4.4-2.1.1-.1.1-.3.1-.5s.1-.4.3-.5v.7c.3-.3 0-.5 0-.6v-.5c.1-.3.1-.7 0-1-.1-.2 0-.4.1-.6 0-.1.2-.2.4-.3.1.3.2.4.1.6 0 .5-.1.9-.2 1.4 0 .3-.1.6.2.8.1.1.1.3.2.5l.1.3h.1l.1-.5c0-.2 0-.3.1-.4.2-.3.4-.6.5-1 .7.1.8.1.9.1zm.1 9.5h.2v-.5h-.2v.5zm.4 9.1c-.1.2 0 .4 0 .7h.1c-.1-.3-.1-.5-.1-.7zm-7.9-11l-.2.6h.1c.1-.2.1-.4.1-.6zm.3-1.8c.1-.1.1-.2.2-.4h-.1c0 .2-.1.3-.1.4zm-.7 4.7h.1c0-.2 0-.3.1-.5h-.1c0 .2-.1.4-.1.5zm.3-1.5c.1-.1.1-.2.1-.3-.1.1-.1.2-.1.3zM206.5 13.8c.1.1.3.2.4.4-.3.3-.1.5.1.6.9.8 1.8 1.7 2.6 2.5l.1-.1c-.3-.3-.5-.6-.8-.8.3 0 .5.3.6.5.1.2.5 0 .5.4.2-.2.4-.4.5-.6.1-.2.2-.4.2-.7.1-.5.3-1 .7-1.4.2-.1.4-.3.3-.7 0-.1 0-.3.1-.4.5-.6.8-1.3.8-2.1l.1-.2c.2.5.2.5.7.4-.2.3-.2.3-.8.5.1.1.2.2.2.3 0 .2.3.4-.1.6-.1 0 0 .2 0 .4 0 0 .1 0 .1.1l.4-.5.4-.6c.1-.1.1-.2.1-.3-.1-.8 0-.7.4-1.3.2-.3.7-.5.6-.9.3-.2.4.2.6.3.4-.2.7-.4 1.2-.6 0 .2 0 .4.1.6-.3.1-.6.2-.5.6-.2.2-.2.5-.5.6-.2.1-.3.4-.4.7-.3.6-.7 1.3-.6 2 .3-.1.6-.1.7-.4.1-.1.3-.1.5-.2l.3.5-.5 1.3c.2-.1.3-.2.5-.2.1.3.1.5-.2.5-.3 0-.4.3-.6.4-.7.6-.9 1.5-1.2 2.4-.3.9-.1 1.8-.3 2.7l-.6 3.7c-.1.4-.2.7-.2 1.1 0 .2-.2.4-.3.7-.2-.7 0-1.3.1-2 .2-1.1.4-2.2.5-3.3l.2-1.6c0-.2-.1-.3-.2-.4-.1.1-.1.2-.1.3l-.3 1.9.1.5c-.1.1-.2.1-.2.2-.1.9-.2 1.8-.4 2.6-.2.9-.3 1.9-.8 2.8-.5.7-.6 1.6-.8 2.4-.1.4-.1.8-.2 1.1-.1.6-.3 1.2-.5 1.8l-.5 1.5c-.2.5-.5.8-1.1.8-.2 0-.3.1-.6.3.1-.1.2-.2.2-.3 0-.1-.1-.3-.1-.3-.3-.1-.7-.3-.9.1-.3-.2-.4-.6-.8-.5.1-.1.2-.2.4-.3-.3-.3-.5-.6-.4-1.1 0-.3 0-.7.3-.9 0 0 .1 0 .2.1.5.2.6.1.7-.4l.2-1.1c-.2.1-.3.2-.4.2l-.2-1.3c-.1-.3 0-.7.2-1 .2-.3.1-.6.1-.9.1-.2.3-.3.3-.5.2-1 .4-2 .5-3 .1-.5-.2-1-.6-1.3-1.5-1.3-2.9-2.7-4.2-4.1-.9-1-1.7-2.2-2.5-3.4l-1.4-2.2c-.1-.3-.3-.6-.3-.9 0-.4-.2-.7-.4-1-.1-.2-.2-.5-.3-.9l.8.1c0 .7.8.4 1.1.9.2-.5.2-.8 0-1.2-.1-.2-.3-.4-.5-.6-.3-.3-.5-.5-.4-1 .5-.1.9 0 1.2.4.2.2.4.5.7.6.4.1.7.4.9.8.7.2.8.9 1.3 1.4.1.1.2.2.4.3 0 0 .1 0 .1-.1s0-.3-.1-.4c.1 0 .2 0 .5-.1-.3.4-.1.6.2.8-.1.1-.2.1-.3.1l.2.2c.3-.1.5.1.6.3.3.3.6.6.9.8.4.2.4.1.4 0zm5 2.1h-.2c.2.4-.2.7-.1 1.1.2-.1.1-.7.6-.4.1-.1.1-.3.1-.4-.2 0-.3-.1-.4-.3zm-5.3-1.6l.1-.1-.4-.3s0 .1-.1.1c.1.1.2.2.4.3zm-3.8-3l.1-.1-.3-.3-.1.1.3.3zm4.9 4.3l.1-.1-.1-.1-.2.1c.1 0 .1 0 .2.1zm5-.6c.1-.1.1-.2.1-.4 0 .2 0 .3-.1.4zM90.9 29.4c.3-.4.8-.3 1.2-.3h.3v-.1l-.7-.1c-.2 0-.3-.2-.4-.2-.2-.1-.4-.2-.4.3l-.5-.6h.8c.3 0 .6.1.8.1.4 0 .7.1.9.3.4.3.9.2 1.3.2h1c.3-.2.6-.1.8-.2.5-.1.9 0 1.3.2.1.1.3.1.5.1s.4-.1.7-.1l-.2.3c.3.3.5 0 .7-.1-.4.9-1.2 1.1-2 1.2-.1.5-.1.5.6.5-.1.9 0 .7.8.5 0 .2.1.4 0 .4-.3.2-.2.7-.6.8 0 0-.1 0-.1.1-.2.5-.6.5-1 .6-1 .3-2.1.3-3.1.4h-.3c-1.3-.2-2.6-.4-4-.7l-1-.4h-.3c0 .1-.1.2-.2.4l-.3-.6c-.5.1-.7-.3-.9-.7.3-.4.1-.8-.1-1.3l.4-.2c.1-.1.1-.3.1-.5s.1-.4.1-.5l.1-1.2v-2.2c0-.2 0-.4-.2-.5-.1-.1-.1-.3-.1-.5-.3 0-.6-.1-1.1-.1l.7-.2c-.3-.4-.4-.7 0-1h-.8c.4-.3 1 .1 1.3-.5-.1-.1-.3-.1-.3-.2v-.2c.3-.1.3-.4.3-.7 0-.9.1-1.9.2-2.8.1-.5 0-.9 0-1.4-.4.6-.6 1.4-.8 2.1.1-.5.2-1.1.4-1.6.1-.4.3-.8-.2-1.1 0-.3-.2-.5-.5-.5v.3c-.1-.1-.2-.2-.5-.3l.5-.3c0-.1-.1-.2-.1-.2.1-.2.3-.3 0-.5-.1-.1-.3-.1-.5-.2l1.1-.4 1.2-.2c-.3 0-.5-.1-.9-.1.3-.5.5-.9.7-1.3h-1v-.1l1.2-.1.1-.2c.2-.3.4-.5.8-.5.7 0 1.3-.1 2 .1h.1c.5-.3 1-.2 1.5-.3.5-.1 1-.2 1.5-.2.4-.1.8.1 1.1.1l1.5.2c.1 0 .2.1.3.2-.3.1-.5.1-.7.1.1.4.8.7 1.5.7l-1 .3c-.3.1-.6.3-.7.5l-.2.7c.5.3.8.4 1.3.3.2 0 .4.1.8.2-.3.2-.6.4-.7.6-.1.4-.5.2-.6.4.1.4-.1.6-.5.6-.5 0-1 .2-1.5.4-.6.2-1.2.4-1.8.5-1 .2-1.9.3-3 .5-.1.3-.4.6-.1 1v.3c0 .3-.1.6-.1 1 .7-.1 1.3-.2 1.9-.2.4-.1.7-.1 1.1 0 1 .2 2.1.1 3-.4l.6.3-1.5.9-.1.6c0 .2.1.3.1.6h1.1c.1.1.2.3.3.5-.1.1-.2.2-.4.3-.3.3-.8.4-.9.8 0 0 0 .1-.1.1-.7.3-1.2.9-2 1-1 .2-2 .6-3.1.7l-.5.1c0 .6 0 1.1.2 1.6.2.4.1.9.1 1.4-.2-.5-.3-1.1-.8-1.4l-.1 1c-.3-.8.2-1.7 0-2.5-.1 0-.2 0-.3-.1 0 1-.1 2-.1 2.9.4.3.8.1 1.1.3.3.2.8.1 1.2.2.7-.2.7-.1.7 0-.1-.1-.2-.2-.3-.2h-1c.5.1.9.1 1.3.2zm-1.6-11h-.1l-.3.7c-.2-.2.1-.5-.2-.7-.2.9.1 1.7 0 2.5.4-.1.5-.4.5-.7.1-.6.1-1.2.1-1.8zm.2 1.6l-.1.1c.1.1.1.2.2.2 0 0 .1 0 .1-.1s-.1-.2-.2-.2zm3 8.8c0-.1-.1-.2-.2-.2 0 0 0 .1-.1.1.2.1.2.1.3.1zM188.5 24.8c.8-.2.6-1.1 1.1-1.5.3-.1.2.6.6.3.5-1.2.7-2.6.9-3.9l.5-2.7v-.9c-.1-.2.1-.4.2-.6l-.6-.3c0-.3.1-.5.2-.9l1.8.7c.5-.1.5-.6.7-1.1l.2.2.2.2c.2-.3.3-.5.5-.7l.3.2c.1.1.2.2.4.2.3.1.5.2.5.5l-.6.5c.2.3.2.3.5.3 0 .1 0 .2-.1.4.1.1.3.2.5.3h-.4l.1.6c0 .2.2.3.4.3.6 0 .6.1.5.6.3.4.6.8.8 1.1l.3.6.2.4c-.1 0-.3 0-.6.1.4.4.4.9.9 1 .1 0 .2.3.2.5.1.4.1.4.6.2.1.1.1.3.2.5.1-.3.2-.4.4-.7.3.6.8.5 1.4.5.6-.1 1.2 0 1.7.2-.5.1-.5.1-.9 0s-1.2 0-1.7.2c.1.1.2.2.3.2.3 0 .4.1.5.5-.3 0-.7-.1-.8.2-.1.4-.3.4-.6.3-.1.4 0 .8.1 1.2.1.3.3.4.5.4.5 0 .8.2 1 .5.3.4.7.4 1.2.6h-.9v.1l.6.2c0 .1 0 .3-.1.5h-.7c-.1.2-.2.4-.3.5-.3.2-.3.4-.2.7l.6 1.3c.1.2.1.3.1.5.1.6.3.9.8 1-.2.5.3.7.4 1.2-.3-.1-.4-.2-.6-.2-.2.4-.4.8-.6 1.3-.5 0-.7-.4-.9-.8l-.8-1.8c-.3-.9-.6-1.8-.9-2.8h-.6l-3.7.5c-.3 0-.5.1-.6.5-.3.9-.6 1.7-1 2.7 0-.3 0-.4-.1-.6-.3.6-.6 1.2-1 1.8-.3-.1-.5 0-.6.3-.1.4-.4.6-.8.6h-.2c-.3.3-.5.1-.8-.1l-.3.3.2-.8c-.2 0-.4 0-.5-.1-.2-.8.5-1.5.3-2.5-.3.4-.5.7-.7 1-.2-.5-.3-1-.1-1.4.3-.6.4-1.3.6-1.9.3-.8.3-.8-.2-1.5 0-.3.1-.7.1-1.1.2.1.4.2.7.3.1-.1.1-.4-.1-.4-.5 0-.6-.3-.7-.7-.4.4-.5.3-.5.2zm7.7-5h-.2c-.2 1-.3 2-.5 3.1l1.5-.4-.6-.3c.2-.2.4-.3.5-.4-.2-.7-.4-1.4-.7-2zm-1.8-5.2s.1 0 .1.1l.4-.3c0-.1 0-.2-.1-.3-.1 0-.2 0-.3.1-.1.1-.1.3-.1.4zm2.2 9.4c-.5.1-.8.2-1.2.3.5.1.6.1 1.2-.3zm3.2-1.8c0 .2 0 .4-.1.7l.3-.1c-.2-.2.2-.5-.2-.6zm-5.4-6.4h.2c0-.2 0-.3.1-.5h-.1c-.2.2-.2.4-.2.5zM72 27.8c.2.4.3.9.4 1.4.1.5.2 1 .2 1.6v.7h-.1c-.1-.5-.1-1-.2-1.6-.5.1-.5.1-.5.5s.1.7.2 1.1c.1.6.1 1.2.1 1.8l-.5-2.7-.1.1c0 .5 0 1.1.1 1.6 0 .5.2 1 .2 1.4 0 .3.1.6-.3.8-.1.1-.2.2-.2.3-.2 0-.3 0-.6.1-.2-.3-.6-.4-.6-.8-.1-.7-.3-1.4-.4-2.2 0-.1-.1-.3-.1-.5l-.2.2-.8-1.9c.1.5 0 1.2.5 1.6-.5.7.2 1.3.1 2-.1 0-.2-.1-.3-.3-.3-1.1-.4-2.2-.8-3.3-.1-.2-.1-.5-.1-.7 0-.2-.1-.3-.3-.3-.6.1-1.3 0-1.9 0h-1.3c-.2.9-.4 1.8-.7 2.7-.3.9-.3 1.8-.8 2.7-.1-.3-.2-.5-.3-.7l-.4.4c-.3.2-.5.2-.7-.1-.3-.5-.2-1-.2-1.6v-1.1c0-.4.1-.7.2-1.1.1-.3.1-.6.2-.8.3-.7-.1-1.2-.6-1.7l-.3-.2c-.3-.3-.2-.8.2-1l.5-.3c-.1-.2-.1-.4-.1-.5v-.3l.2-.1c.2 0 .6.1.7-.1.2-.3.5-.6.5-1v-.3c-.1-.1-.2-.1-.3-.1 0 0 .1-.1.1 0 .3.1.4-.2.5-.4l1.2-2.9c.2-.4.3-.9.5-1.4.2-.4.3-.9.7-1.1l.3-.4c.1-.3.1-.5.5-.7.2-.1.3-.5.3-.8v-3.1c.4.3.1.8.5 1 .1-.6.5-.6.9-.8l.6.9c.1-.1.2-.1.3-.3l.4.8-.2-.1v.3l.1.1c.2.3.2.6.1.9-.1.3 0 .5.1.8.2.5.2 1 .3 1.5l.8 3.9c.1.5.2 1 .2 1.5h.4v-.1l-.7-5.1h.1l.3 1.6.7 3.8c.1.3.3.2.6.1l-.3.3c.2 0 .3.1.6.2-.3.1-.5.2-.7.4 0 .3.1.5.1.9.3 0 .6 0 1-.1.1.4-.4.1-.4.3l.6.3c-.6.8-1.2 1.2-1.1 2-.1-.2-.2-.3-.3-.6-.1.2-.2.3-.1.4.1.5.3 1 .4 1.6.3-.2.1-.5.1-.8 0-.2 0-.4-.1-.6zm-5-6.1c-.6.4-.2 1-.4 1.6-.1-.3-.2-.4-.2-.6-.2.6-.3 1.1-.4 1.6l.9-.3c.3-.1.4-.3.4-.6-.1-.5-.2-1.1-.3-1.7zm4.5 3c-.2 0-.4 0-.4.3 0 .4.1.5.5.5-.1-.2-.1-.5-.1-.8zM74.2 17.5c-.1.2-.1.2-.2.3-.1-.5.2-1-.3-1.3.5-.3.4-.8.5-1.4.3.5.3 1 .7 1.2-.2-.3-.3-.6 0-1 .1-.1 0-.4-.1-.7l-.1-.6c.2-.1.4-.1.4.1l.3.9.2 1c.2.1.4.2.5.3.2-.4.2-.4.2-1l.1.4c0 .7.1 1.3.4 1.9.1.3.2.7.4 1 .1.2.1.5.4.6.2.1.2.3.3.5.3.6.2 1.3.6 1.9.2.3.2.7.3 1 .1.4.2.8.5 1.1-.1.1-.2.1-.3.1.2.4.4.8.5 1.2.1.4.1.8.1 1.2h.1c.1-.2.3-.5.3-.7.1-.6.5-1.1.5-1.7 0-.1.1-.2.2-.2.4-.5.7-1.1.9-1.7.1-.3.2-.7.5-1 .1-.1.2-.2.2-.3.2-.4.3-.8.5-1.1.4-.7.5-1.5.5-2.2 0-.4.1-.7.5-.9.1.2.2.4.4.7l1.2-2.6c.2.6.2 1.1-.1 1.6-.2.3-.2.7-.3 1.1 0 .1.2.2.2.2.4-.2.7.2 1 .3.1 0 .1 0 .2.1l.3-.4s.1 0 .1.1v.3l-.9 3.1-.7 1.4-.2.5-.9 1.7-.8 1.5-.9 1.7c-.4.9-.8 1.8-1.2 2.8 0 .1-.1.2 0 .3.3.5.1 1 .2 1.5l-.1.3c-.2 0-.5.1-.6.1-.3.3-.5.5-.7.8.1.1 0 .3 0 .5l-.3 1h-.1c0-.2 0-.4.1-.6-.3 0-.3.2-.4.3l-.3 1.2c0 .1-.2.3-.3.3l-1.6.5c-.5-.3-.2-.7 0-1.2-.4 0-.3-.5-.6-.7v-.2c.4-.3.4-.9.7-1.3.2-.3.3-.6.3-1 0-.1 0-.2-.1-.3 0-.2-.1-.3-.2-.5l-.4.4c0-.4.4-.8.2-1.2-.2.1-.3.1-.4.2v-.1c.4-.5.1-1 0-1.6l-1-3.5-.8-3.4c-.1-.2-.2-.5-.2-.7l-.4-1.9c.4-.4-.2-1 .1-1.5 0-.1-.1-.4-.1-.7zm2.4.7v.5c.2.9.8 1.7 1.1 2.6-.1-.7-.2-1.4-.4-2.1-.5 0-.3-.7-.7-1zm-.1-.4v-.2l-.1-.1c0 .1 0 .2.1.3zm2.3 8v-.3h-.1c.1.1.1.2.1.3zM132.3 17.6c.1.2.2.4.4.6.6.6 1 1.5 1.4 2.3v.2c-.4 0-.4 0-1.1-.5.1.3.2.6.2.9 0 .3-.2.6-.3 1-.4-.5-.7-.9-1-1.3l-.1-.1c-.6-.3-.9-.8-1.2-1.4-.6.4-1.1.7-1.5 1.2-.2 1.1-.4 2.2-.6 3.2-.1 0-.2 0-.5.1l.2.9c-.2.4-.2.5.3 1.3-.1.1-.2.2-.2.3 0 0 0 .1.1.1l.2-.1c0 .3.5.3.2.7l.2.1c.1.1.2.3.2.5l-.4-.3s-.1 0-.1.1l.3.6.4.8c.2.4.6.6.9.8l.2-.2c.2.4.6.5 1 .4l1.2-.2h.3c.2 0 .4.1.7.1.1-.3.3-.5.4-.7.4.2.4.2.7-.1l.2-.3h.1v.3h.2c.1-.2.3-.5.5-.8 0 .3-.1.5-.1.7 0 .2 0 .5-.1.7l.5.2c-.1.3-.2.7-.4 1.1.2-.1.4-.2.5-.3.1.1.3.1.5.2v.7l.2-.1c.1.4.1.4-.2.6l-.7.6c-.4.3-.4.3-.1.8l.1.2c-.4.4-.9.7-1.4.9-.8.2-1.5.5-2.3.4l-1.5-.3c-.3-.1-.5-.2-.7-.5-.1-.3-.3-.5-.7-.5-.4 0-1.1-.7-1.3-1 0-.1-.1-.2 0-.2.2-.3 0-.5-.2-.7l-1.4-1.8c.2-.1.3-.1.4-.1l-.4-1.4c.1 0 .1 0 .3.1l-.4-.6-.1-.3c0-.1-.1-.3-.1-.3-.4-.1-.4-.4-.5-.7l-.6-2.1c-.1-.3-.1-.5-.1-.8l.3-2.6c.1-.8.4-1.5.7-2.2l.8-1.4c.3-.7.9-1.2 1.5-1.6.3-.3.7-.6 1.1-.4.2 0 .4.1.6.2.3.2.5.3.9.2.6-.2 1.3.2 1.6.6-.2-.1-.4-.2-.7-.3-.4-.2-.6-.2-1 0 .3.6.9.8 1.5 1-.1.1-.3.1-.5.2.1.1.2.2.5.3zm-3.6.3c.6-.2 1-.5 1.3-.9l-.4.1h-.5c-.1.2-.2.5-.4.8zM118.4 29.6c.2-.3.2-.7 0-.8-.4-.2-.4-.6-.5-1-.2-1.2-.3-2.4-.5-3.7-.1-.5-.1-1.1-.1-1.6h.2c.1.6.2 1.2.2 1.8l.2 1.9c.1.6.2 1.2.4 2 .2-.8 0-1.4-.1-2.1-.1-.9-.2-1.7-.4-2.6-.1-.6-.2-1.1-.2-1.7-.1-.4-.1-.8-.1-1.2-.1-.6-.1-1.3-.1-1.9l-.1-.6c0-.2 0-.4.1-.6.4.7.4 1.4.4 2.2.4-.9 0-1.6 0-2.4 0-.7-.3-1.5-.5-2.3l.4.4c.2-.3-.4-.7.2-1 .1.6.3 1.1.3 1.7 0 .5.2.9.5 1.2.3-.5 0-1 .1-1.5.3 1 .6 2 .9 2.9 0 .1.1.2.1.2-.2.6.2 1 .3 1.5l.2 1.2.1.6.4.5c-.1-.6-.1-1.1-.3-1.7-.3-.7-.3-1.4-.3-2.2 0-.1.1-.2.2-.4.2.8.6 1.4.7 2.1l.4 1.8c.1.3.1.6.1.9l.6 2.9.3 2.5.3 2.3c0 .3 0 .5-.3.7-.3.2-.1.4 0 .7-.1.1-.2.1-.2.2-.2 0-.5-.4-.5-.6 0-.3 0-.5-.1-.8 0-.1-.1-.3-.2-.4h-.1l-.1.9v.1l-.1.9c0 .4-.4.3-.5.6-.3-.4-.6-.7-.8-1h-.9c-.6-.7-.7-1.6-.6-2.6zM165.5 24.4c0 1.7 0 3.5-.1 5.2v5.6c0 .6-.1 1.2.2 1.7h-.4c-.2-.2-.1-.5-.1-.9.1-.5 0-1 0-1.6v-1.7c0-.8 0-1.6.1-2.5v-3.6c.1-.7.2-1.4.3-2.2zM38.5 30.1l-.3.2c-.2.4-.3.8-.4 1.2 0 .1-.1.2-.2.4h-.1l.1-.5c.2-.6.4-1.1.5-1.7.1-.6.1-1.2.2-1.7l.4-2.3c.4.1.2.4.3.6.1.2.1.4.2.7-.2.3-.3.7-.4 1.2 0 .5-.3 1.1-.4 1.6l.1.3zM69 12.7c-.1 0-.2 0-.4.1 0 .2-.1.3-.1.6 0-.3-.1-.4-.1-.6h-.5c.3-.6.2-.7-.2-1 0-.2.1-.4 0-.5-.1-.2-.1-.3.1-.3l.3.1v-.4c.1.1.2.1.2.1l.3 1.2c-.2.3.3.4.4.7zM214.7 7.9c0 .1-.1.2-.1.2 0 .1-.1.1-.2.2.1.1.2.1.3.1.2.1.2.3 0 .4-.7.4-1.1 1.1-1.2 1.9 0 .1-.1.2-.2.4l-.2-.2.3-1.1c.2-.4.3-.8.5-1.1l.6-.9c.1.1.2.1.2.1zM165.9 24.1l-.1-.3c0-.8.1-1.6.1-2.3 0-.1 0-.2-.1-.4-.2.1-.3.1-.4.2 0-.8-.1-1.7-.1-2.6.4.3.2.7.3 1.1v1c0-.2.1-.3.2-.6 0 .3 0 .4.1.5h.1l.1-.5c0 1.4.2 2.7-.2 3.9zM40 21.1c0 .2 0 .4-.1.5-.2.3-.1.5.2.7-.6.2-.5.7-.4 1 .1.5-.2.8-.2 1.3v.1c-.4 0-.4.4-.7.7.1-.9.1-.9.3-1.1 0 .1 0 .2.1.5.1-.1.1-.2.1-.2l.3-1.8c0-.1-.1-.2-.1-.2-.1-.1-.1-.2-.2-.4h.3c.1-.4.1-.7.2-1 .1-.1.1-.1.2-.1zM164.5 31.4c.3 1.1 0 2.2.1 3.3.1 0 .2 0 .3-.1v.2l-.5.5-.1-.8.2-3.1zM241.1 9.6c1.2-.2 2.3-.5 3.5 0-.2 0-.5.1-.7 0-.7-.2-1.4 0-2.1.1-.2 0-.5 0-.7.1v-.2zM165.9 24.1c.1.1.2.3.2.4 0 1-.1 2-.2 3 0 .1 0 .1-.1.2-.1-.4 0-2.7.1-3.6zM163.7 2.8l.8.5c.1-.2.2-.4.3-.7l.4 1.2-.5-.2-.5-.2c-.2 0-.4-.2-.5-.6zM242.9 8.2l.7-.1h2.1c.3 0 .6 0 .8.4-1.2-.3-2.4-.2-3.6-.3zM115.6 31.5c-.1-.1-.1-.2-.2-.2l-.3-.5c-.1-.1-.1-.3-.1-.4.1 0 .2 0 .2.1.4.6.9 1.1 1.1 1.8-.1-.1-.3-.2-.4-.2l-.3-.6zM164.6 28.2c.1.9.2 1.8 0 2.7-.1-1-.1-1.9 0-2.7zM188.3 42.8c-.3-.6-.3-1.2-.4-1.9l.5 1c0 .3 0 .6-.1.9zM180.1 0c.3.5.5.8.7 1.2-.6-.1-.8-.4-.7-1.2zM186.2 41.2c0 .7.1 1.2.1 1.8h-.1c-.2-.5-.1-1.1-.1-1.7l.1-.1zM190.2 46.4l.2-.3v.5h-.2l-.7-.6.3-.4h.1c0 .4 0 .7.3.8zM127.7 33.1c-.6-.5-1-.9-1.2-1.6l.6.8c.1.2.5.2.6.8zM197.6 17.9c-.2-.1-.5-.3-.8-.5.3-.1.4-.1.5-.2.2.2.3.5.3.7zM220.9 6.7c0-.5-.3-1.1.3-1.6l-.2.8c-.1.3-.1.5-.1.8zM188.3 42.8l.2 2.3c-.2-.3-.2-1.7-.2-2.3zM132.4 16.3c.4.2.8.7.9 1.2-.2-.4-.8-.6-.9-1.2zM264.1 5.9l.5-.1c.4.4.3.9.3 1.4l-.1-.8c-.1-.5-.2-.5-.7-.5zM202.2 25.2c.5-.2.8-.3 1.3 0-.5.1-.8.2-1.3 0zM228.6 9.4c-.1-.6 0-1.2.2-1.8l.1-.2-.3 2zM183.1 17.9l-.2-1.6c.3.5.3 1.1.3 1.6h-.1zM163.4 3.6c.4.1.7.4 1 .7-.3 0-.8-.3-1-.7zM129 26.6c.4.4.6.8.7 1.3-.4-.3-.5-.8-.7-1.3zM72.8 32.9c-.1-.4-.2-.8-.2-1.2.3.4.3.8.2 1.2zM41 14.6c0 .1.1.3.2.4-.1.1-.3.2-.4.4.1-.3.1-.6.1-.8h.1zM41.6 15.6c-.1.1-.2.3-.2.4h-.1c.1-.4.1-.7.2-1.2l.1.8zM73.6 15.9v-.7c.4.2.2.5.2.7h-.2zM241.2 25.8c-.3 0-.7 0-1 .1v-.1c.3 0 .7 0 1-.1v.1zM9.9 28.4c0-.2-.2-.5.1-.7.1.3.1.3-.1.7zM138.8 12.4c-.1-.4-.1-.6-.2-.9.4.3.4.3.2.9zM126 27.6v.7h-.1c-.1-.2-.2-.5-.2-.7 0 0 .1 0 .1-.1 0 0 .1.1.2.1zM266 5.9c-.3.1-.4-.1-.6-.3l.4-.3c0 .1.1.1.1.1 0 .2.1.4.1.5zM55.1 31.3c0-.2-.1-.4-.1-.7.3.2.3.2.1.7zM41.4 13.2c0 .2 0 .4-.1.6-.3-.4-.3-.4.1-.6zM52.6 13.9c0-.1-.1-.3-.1-.3.1-.2.2-.4.4-.6 0 .3-.2.6-.3.9zM187.3 30.9l.1 1h-.1l-.1-1h.1zM227.8 9.1l.1-1.2c.1.4 0 .8-.1 1.2zM184.7 26.6l-.1-.9h.1c0 .3.1.6 0 .9zM220.9 29.4c0 .3 0 .7.1 1h-.1l-.1-1h.1zM129.1 26.6l-.4-1c.3.3.3.6.4 1zM59.3 28.7c-.2-.2-.4-.3-.3-.6.4.1.3.4.3.6zM217.2 28.3v.7h-.1v-.3c0-.1 0-.3-.1-.4h.2zM166.1 19.3v.6h-.1c-.1-.2 0-.4 0-.7 0 0 .1 0 .1.1zM46.8.6l-.6.4-.1-.1.5-.5.2.2zM53.4 11.4c-.2.3-.3.6-.5.8 0-.7 0-.7.5-.8zM165.4 23.4v-.7h.1c0 .3 0 .5-.1.7zM164.8 25.5l-.1.9c-.1-.3 0-.6.1-.9zM37.5 29.6c.1-.3.2-.6.3-1h.1c-.1.3-.2.6-.2 1h-.2zM40.4 13l-.3.5-.1-.6c.1 0 .2.1.4.1zM187.9 37.4v-.6c.2.2.2.3 0 .6zM201.7 25.9l.9.2c-.3 0-.6-.1-1-.1l.1-.1zM203.9 29.6c.4.2.4.2.1.6l-.1-.6zM134.9 20.6l-.3-.7h.1c.1.2.2.4.2.7zM21.2 10.3c.4.2.3.4.1.7 0-.3 0-.5-.1-.7zM126.3 27.4l.1.3c0 .2 0 .3.1.5-.1-.1-.1-.2-.2-.2-.1-.1-.2-.2-.2-.3-.1-.2-.1-.4.2-.3zM125.8 30.5l-.3-.6s.1 0 .1-.1c.1.2.2.4.3.5 0 .1-.1.2-.1.2zM40.2 19.6l-.1.7c0-.2 0-.5.1-.7zM54.9 34v.5h-.1c.1-.2.1-.4.1-.5zM7.1 32.4c.1-.2.2-.4.4-.6.1.4-.1.5-.2.7-.1-.1-.2-.1-.2-.1zM185.5 30.9c.2.3.2.5.1.9-.1-.4-.1-.7-.1-.9zM185.5 30.9l-.1-.9h.1v.9zM128.6 24.4l.1.5c-.3-.2-.3-.2-.1-.5zM36.6 31.4c.1-.2.2-.4.4-.6 0 0 .1 0 .1.1-.1.2-.2.4-.3.7l-.2-.2zM244 26.9h.6v.1c-.2 0-.4 0-.6.1v-.2zM133.5 18l.5.5-.1.1c-.2-.2-.4-.4-.4-.6zM220 6.3l.1-.7c0 .3 0 .5-.1.7zM238.5 27.7l.9-.1v.1h-.9zM46.5 23.8l-.2-.3.1-.1.2.3c.1 0 0 .1-.1.1zM65.7 16.6c.1-.1.2-.3.2-.4h.1c0 .1 0 .2-.1.3 0 .1-.1.1-.2.1zM64.6 30.6c0-.2-.1-.3-.2-.6.3.2.5.3.2.6zM164.8 26.7l-.1.5h-.1v-.5h.2zM217.4 29.6c0 .2 0 .4.1.6h-.1l-.1-.6h.1zM214.9 7.7l.5-.3.1.1c-.2.1-.3.2-.5.4 0-.2-.1-.2-.1-.2zM188.2 36.6c-.1 0-.2 0-.3-.1.1-.1.1-.2.2-.4 0 .2 0 .4.1.5zM220.9 7.1v.5c-.1-.2-.1-.3 0-.5zM220.4 29.4l-.1-.5c.3.1.3.3.1.5zM75.6 15.1l.3.5c-.2-.2-.2-.2-.3-.5zM118.4 29.6c-.4-.1-.1-.4-.2-.6h.1c0 .2 0 .4.1.6zM124.6 25.7v-.4h.1c0 .1 0 .3.1.4h-.2zM55.4 29.3c-.1-.2-.2-.2-.3-.3.3-.1.3-.1.3.3zM55.1 18l.1-.5c.1 0 .1.1.1.1 0 .1.1.3-.2.4zM183.5 19.7c-.1 0-.2-.1-.2-.2l.1-.6.1.8zM165.9 28.6l-.2-.7c.2.2.2.4.2.7zM169.1 9.7c.3 0 .3.2.2.4 0-.1-.1-.2-.2-.4zM225.2 14c0-.2 0-.4.1-.6h.1v.6h-.2zM86.7 13.4h.4v.1l-.4.1v-.2zM83.7 15.4v-.5c.2.1.2.3 0 .5zM83.8 14l-.2.4h-.1l.1-.4h.2zM166.1 17.9c0 .2 0 .3-.1.5 0-.2 0-.3.1-.5zM166.5 8.3l-.2-.3h.1l.1.3zM239.9 17.7c-.3.1-.3.1-.5-.1.2.1.4.1.5.1zM45.9 2.1s-.1 0-.1.1c-.1-.1-.1-.2-.2-.2l.2-.1s0 .1.1.2zM14.2 5.8c0 .2-.1.4-.2.6-.2-.3.1-.5.2-.6zM214.5 9.8v.4h-.1v-.4h.1zM10.5 26c-.2 0-.5.1-.5-.3.2.1.4.2.5.3zM202.2 30.8v-.4h.1c0 .1 0 .3.1.4h-.2zM206.5 13.8c-.1-.1-.2-.2-.3-.4l.1-.1c.2.2.2.3.2.5zM37.2 30.4l.2-.4h.1l-.2.4h-.1zM122.6 22.4c0-.1 0-.3-.1-.4h.1v.4zM244.6 11c.1-.3.3-.2.5-.1-.2.1-.4.1-.5.1zM183.4 18.9c-.2-.1-.2-.3-.1-.5.1.1.1.3.1.5zM40.3 17.4l-.1-.4h.1c.1.1.1.2 0 .4zM39.6 26.1c.1-.1.1-.2.2-.4h.1l-.1.4c-.1.1-.2.1-.2 0zM132.3 17.6c.3-.1.5-.1.8.2-.3-.1-.6-.2-.8-.2zM87.2 29l-.5.1v-.1c.1 0 .3-.1.5 0zM187.7 34.9l.2.3s-.1 0-.1.1l-.2-.3s.1 0 .1-.1zM93.2 11h.4c-.1.3-.3.3-.4 0zM41.7 10.5c.1.2.1.4-.1.7-.1-.3.1-.5.1-.7zM51.1 17.5c-.1 0-.2-.1-.2-.1l.1-.1.1.2zM18.1 5.7l-.2.2c0-.1-.1-.1-.1-.1 0-.1.1-.1.2-.1-.1-.1 0-.1.1 0zM46.7 23l.2-.3s.1 0 .1.1c-.1 0-.2.1-.3.2zM221.4 28.7c0 .2 0 .3-.1.5 0-.2 0-.3.1-.5zM229.5 12.1v-.4h.1c0 .2-.1.3-.1.4zM266 5.9c0 .2-.2.4-.3.5-.2-.3.1-.3.3-.5zM23 7.6v.4c-.1-.1-.3-.2 0-.4zM267.1 6.5c-.1 0-.4.1-.4-.2.2.1.3.2.4.2zM19.4 6.6l-.1.3h-.1l.1-.3c0-.1.1-.1.1 0zM215.6 9.3l-.1.4h-.1v-.4h.2zM265.2 6l.3.2v.1l-.3-.2v-.1zM218.1 9.7l-.3.1v-.1s.1-.1.3 0zM165.2 4.5l.1.4h-.1l-.1-.4h.1zM241.9 27.4c.1 0 .2 0 .3-.1v.1c-.1.1-.2.1-.3 0zM140.1 13.1c-.2-.1-.3-.2-.2-.5.2.2.2.4.2.5zM132.4 29.1l.3-.1v.1l-.1.1c-.1-.1-.2-.1-.2-.1zM130.4 29.4c-.1-.1-.2-.2-.4-.3l.1-.1c.2.1.3.2.3.4zM185.9 35.3c0-.1 0-.2.1-.4h.1l-.2.4zM243.4 27.2c-.1 0-.2.1-.4.1v-.1c.2 0 .3-.1.4 0zM244.5 17.5l.6-.1v.2c-.2-.1-.4-.1-.6-.1zM246.7 11.3h.4v.1c-.2 0-.3 0-.4-.1zM196.1 15c-.1-.1-.1-.2-.1-.2l.1-.1c.1 0 .1.1.1.1s-.1.1-.1.2zM196.5 15.2l-.1-.2s.1-.1.1-.2l.1.3c0 .1-.1.1-.1.1zM55.2 32.7c-.1.1-.1.2-.2.2v-.2h.2zM69.7 13.2c0 .2-.1.4-.1.5-.2-.2 0-.3.1-.5zM199.3 21.1l-.2-.3h.1l.2.3c0-.1 0-.1-.1 0zM21.8 11.4h-.4c.1-.3.2-.1.4 0zM60.4 27.8v-.2h.1v.3c0-.1 0-.1-.1-.1zM131.6 29h.3c-.1.1-.2 0-.3 0zM244.6 11h-.5c.2-.2.2-.2.5 0zM14.4 32.7v.2l-.1.2c0-.2 0-.3.1-.4zM54.7 35.7l-.3-.2s0-.1.1-.1c.1.1.2.1.2.3zM241.7 16l.3-.1v.1c-.1-.1-.2 0-.3 0zM240 27.6h.4v.1c-.2-.1-.3-.1-.4-.1zM240.1 16.4l.5-.1c-.1.2-.3.2-.5.1zM208.2 15.5c.1.1.1.2.2.2l-.1.1s-.1-.1-.1-.3zM54.3 8.8c0-.1.1-.2.1-.2s.1 0 .1.1c-.1 0-.1 0-.2.1zM220.1 7.2v-.3.3zM86.4 13.5l-.2.2-.1-.1.3-.1zM89.4 28.1c0-.1 0-.2-.1-.2h.1v.2zM40.3 20.7v-.4h.1v.4h-.1zM186.9 35.2v-.3h.1c-.1.1-.1.2-.1.3zM116.8 17.2v-.2l.1.1s0 .1-.1.1zM119.1 14.8c0-.1 0-.2-.1-.2h.1c.1 0 .1.1 0 .2zM202.2 29.6v-.3s.1 0 .1-.1v.2c.1.1 0 .1-.1.2zM182.9 15.6v-.4h.1c0 .1 0 .2-.1.4zM20.5 19.3c.1-.2-.5-.3-.1-.7.1.3.1.5.1.7zM163.2 18.2c0 .1 0 .2-.1.3h-.1v-.3h.2z"/></g></svg>