<?xml version="1.0" encoding="utf-8"?>
<!-- Generator: Adobe Illustrator 18.1.1, SVG Export Plug-In . SVG Version: 6.00 Build 0)  -->
<!DOCTYPE svg PUBLIC "-//W3C//DTD SVG 1.1//EN" "http://www.w3.org/Graphics/SVG/1.1/DTD/svg11.dtd">
<svg version="1.1" id="Layer_1" xmlns="http://www.w3.org/2000/svg" xmlns:xlink="http://www.w3.org/1999/xlink" x="0px" y="0px"
	 width="320px" height="334px" viewBox="0 0 320 334" enable-background="new 0 0 320 334" xml:space="preserve">
<g>
	<path d="M61.4,41.9c3.2-3.9,6.2-8.1,9.8-11.8c2-2.1,5.2-3,7.5-4.9C86,19.2,93.1,13,100.4,7c2.7-2.2,5.6-4.3,8.8-5.7
		c5.6-2.4,8-0.7,8.3,5.4c0,0.6,0.2,1.2,0.4,2.4c5.4-1.7,10.6-3.2,15.6-5c14.2-5.2,28.2-3.3,42.2,0.7c7.5,2.1,14.9,4.5,22.4,6.5
		c0.9,0.2,2.2-1.2,3.4-1.7c1.3-0.5,3.5-1.5,3.9-1.1c6.4,7,16.1,6.3,23.7,10.2c8.2,4.2,15.6,9.9,23.3,15.1c2.1,1.4,4,3.2,5.6,5.1
		c4.1,4.8,4,4.9-1.7,8.3c1.6,1.1,2.8,2.7,4.4,3.1c5.6,1.3,8.7,5.5,11.9,9.5c5.4,6.7,10.6,13.6,15.9,20.4c0.5,0.6,1.3,1.1,1.4,1.8
		c1.5,6.7,6.6,8.6,12.5,8.9c5.8,0.2,7.6,4.5,8.5,8.7c2.8,12,5.5,24.1,7.2,36.3c1,7.1,0,14.4,0.2,21.7c0.3,10.7,0.9,21.3,1.5,32
		c0.2,3.1,0.1,5.3-3.9,5.7c-1.4,0.2-3.2,2.7-3.6,4.5c-1.2,5.2-1.7,10.5-2.7,15.7c-0.6,2.9-1,6-5.5,6c-1.4,0-3.2,2.3-4.2,4
		c-8.6,14.3-16.2,29.4-25.9,42.9c-8.6,12.1-19,23-32.4,30.5c-9.5,5.3-18.8,10.8-28.2,16.2c-1.4,0.8-3.4,2-4.6,1.6
		c-7.2-2.6-12.3,2.4-18,4.8c-4.9,2-9.4,2.8-14.5,1.4c-6.1-1.6-12.3-1.6-18.3,0.9c-2.9,1.2-6,2-8.1,2.7c-0.8,2.7-0.8,5.7-2.2,6.6
		c-2.5,1.6-4.7-0.4-7.1-2.1c-5.7-4.2-11.8-8.2-18.2-11.2c-11.9-5.6-23.3-12.1-34.5-19.1c-11.4-7.3-23.3-13.7-34.7-21
		c-6.4-4.1-11.9-9.4-18.2-13.8c-7.8-5.4-11.3-13.3-14.6-21.7c-2.2-5.7-6.2-10.7-9.3-16.1c-1.3-2.2-2.9-4.5-3.4-6.9
		C6,211.4,4.2,201.6,3,191.8c-1.3-10-2.2-20-2.7-30c-0.6-14.5-0.8-29,4.6-43c3.5-9.1,6-18.5,6.5-28.4c0.2-3.2,1.4-6.7,3.2-9.4
		C22,70.4,30.2,60.3,37.4,49.6c4.2-6.2,10.1-9.4,16.4-12.4c1.6-0.7,4-1.2,5.4-0.5C60.4,37.4,60.6,39.9,61.4,41.9z M100.5,36.4
		c-1.4,0.4-2.1,0.4-2.7,0.8c-6.7,3.4-13.4,6.5-19.9,10.2c-3.9,2.2-8.2,4.7-10.9,8.1c-7.4,9.3-14,19.1-20.9,28.8
		C40,92.8,35,101.8,32.2,112c-1.4,4.9-3.7,9.6-5.3,14.4c-1.4,4.4-3.5,9-3.2,13.4c0.5,8.3,2.6,16.5,3.8,24.8
		c0.5,3.4,0.9,6.9,0.9,10.3c0,2.2-1.2,4.6-0.8,6.7c2.2,10.9,4.7,21.8,7.2,32.7c1.4,5.8-0.2,12.4,4.2,17.5c0.9,1,0.8,2.9,1.5,4.2
		c1.5,3.2,3.2,6.4,4.8,9.5c0.5-0.2,1-0.5,1.5-0.7c-1.1-3.9-2.2-7.9-3.1-11.9c-0.7-3.2,0.3-6.1,3.7-6.7c3.3-0.6,3.6,2.2,4.2,4.7
		c2.6,9.7,5.1,19.5,8.3,29c1.2,3.7,3.7,7.4,6.5,10.1c2.9,2.9,6.9,4.6,10.4,6.9c8.2,5.3,16.1,10.9,24.5,15.7c2.9,1.7,7.1,4.1,11-1.4
		c6.7,5.3,13.4,10.1,19.7,15.4c5.8,4.8,10.2,5.1,15.4,0.5c8.2,3.3,16.4,5,24.9,2.3c4.7-1.4,9.3-3,13.7-5.1c8.5-4.1,17.4-7.8,25.2-13
		c12.4-8.4,24.3-17.6,35.9-27.1c5.5-4.5,9.2-11.4,14.9-15.2c5.6-3.8,8.5-9.2,12.5-13.9c1.1-1.2,2.5-2.9,3.8-3c3.5-0.2,3.6-2.7,4.2-5
		c0.3-1.2,0.2-2.5,0.6-3.6c7.6-20.9,15.3-41.7,22.8-62.6c0.4-1.2,0.1-2.9-0.3-4.2c-0.8-2.5-2.6-4.8-2.9-7.3
		c-2-15.2-4.2-30.3-10.3-44.4c-3.4-7.9-7-16-12-22.9c-5.7-7.8-13-14.4-19.6-21.5c-2.1-2.2-4.3-4.4-6.7-6.3c-1.2-1-3.3-2.2-4.3-1.7
		c-2.9,1.3-4.3-0.7-5.1-2.3c-3.9-8.5-11.8-12.3-19.3-16.1C217,29.9,207.6,27,199,22.4c-13.9-7.3-28.7-11-43.9-14
		c-1.9-0.4-4.1,0.4-6.7,0.6c3.6,1.5,6.3,2.7,8.9,3.8c0,0.5,0,1,0,1.5c-1.5,1.1-3,2.6-4.7,3.1c-9.3,2.4-18.8,4.1-27.9,7.1
		c-4.7,1.5-9.8,4.3-12.8,8.1c-4.5,5.4-7.5,12.1-10.7,18.5c-1.5,3.2-3.6,4.4-6.4,3.2c-3.2-1.4-2.1-4.3-0.9-6.6
		C96,44,98.1,40.6,100.5,36.4z M308.9,121.4c-0.4-10.3-3.9-20-7.7-21.4C302.9,107.5,303.1,115.4,308.9,121.4z M17.1,117.7
		c0.4,0.1,0.8,0.2,1.1,0.3c2.6-6.1,5.2-12.2,8.1-19C17.9,103.6,17.8,110.8,17.1,117.7z"/>
	<path d="M248.5,148.4c1.3,0.6,2.6,1.1,3.9,1.6c0.6,0.2,1.6,0.2,1.8,0.5c1.7,4.1,6.2,4.9,9,7.5c-1.9,3.8-2.4,4-6.8,2.2
		c-4-1.6-8-3.2-12.1-4.8c-0.7,1.1-1.1,1.9-1.6,2.7c0.2,0.2,0.4,0.5,0.6,0.7c0.9,0.9,2.3,1.7,2.6,2.8c0.3,1.1-0.2,2.7-0.8,3.8
		c-0.2,0.3-2.3,0.1-3-0.5c-7.6-6.8-7.5-4.2-14.7-0.1c-6.6,3.7-12.4,8.8-18.8,12.9c-9,5.8-18.3,11.3-27.4,17
		c-7.2,4.6-14.1,9.6-21.2,14.2c-10.7,6.9-21.6,13.6-32.4,20.4c-3.8,2.4-6.8,4.9-5.9,10.1c0.6,3.6,0.3,7.4,0.3,11.1
		c0,1-0.1,2.1-0.6,2.8c-0.5,0.8-1.6,1.2-2.5,1.7c-0.4-0.6-1-1.2-1.2-1.9c-0.7-2.4-1.3-4.9-1.8-7.1c-1.3,0.2-3.2,1-4.3,0.4
		c-1-0.6-1.1-2.8-1.6-4.2c-0.1-0.3,0-0.8-0.2-0.9c-3.8-2.4-2.3-4.7-0.3-7.4c0.8-1.1,0.4-2.9,0.6-4.8c-2.8,0.5-5.2,0.5-4-3.4
		c0.1-0.2-2-1.5-2.8-1.3c-2.5,0.7-4.8,2-7.3,2.8c-1.2,0.4-2.7,0.2-4.6,0.4c1.4-3.6,2.5-5.8,6.1-6.4c3.4-0.6,6.6-2.1,9.8-3.5
		c2.7-1.1,4.3-3,4.8-6.3c2-12.9,1.8-25.9,0.8-38.9c-0.8-10.7-1.5-21.3-2-32c-0.4-7.5-0.6-15-0.8-22.6c0-0.9,0.4-1.8,0.2-2.6
		c-0.3-1-0.8-2.3-1.5-2.6c-4.7-2-9.5-3.7-14.2-5.5c-0.4-0.2-0.9-0.3-1.1-0.6c-0.8-0.8-1.4-1.7-2.1-2.6c0.9-0.5,1.9-1.5,2.9-1.5
		c2.5,0,5.1,0.3,7.8-0.1c-1.7-0.6-3.4-1-5-1.8c-1-0.5-1.6-1.7-2.4-2.5c1-0.5,2.2-1.7,3.1-1.5c3.5,0.8,6.9,2,10.3,3
		c1.2,0.4,2.4,0.8,4.1,1.4c0.5-8.1-4.3-16,0.4-24c3,1.7,2.2,5.2,3.6,7.7c0.8-2.3,1.5-4.6,2.5-7.7c1.1,1.2,2.1,1.8,2.4,2.7
		c0.7,2.2,1.3,4.5,1.5,6.7c0.3,3.3,0,6.7,0.3,10c0.2,2.3,1.1,4.5,1.9,6.7c0.3,0.7,1.5,1.1,2.4,1.6c0.4,0.2,0.9,0.3,1.1,0.6
		c4.8,6.1,12.4,6.3,18.8,8.8c15,5.8,30.1,11.1,45.3,16.4c12.4,4.3,25,8.2,37.5,12.3c7.6,2.5,14.3,1.5,20.3-4.1
		c1.7-1.6,3.7-3,5.5-4.6c1.5-1.4,3.2-1.8,4.6-0.2c1.4,1.6,0.7,3.1-0.9,4.5c-3.5,3-7,6.1-10.5,9.2
		C248.8,147.4,248.8,147.8,248.5,148.4z M173.5,132.3c0.1-0.3,0.3-0.6,0.4-0.9c-15.2-5.6-30.4-11.3-45.6-16.9
		c-0.2,0.6-0.4,1.2-0.7,1.8C142.4,123.2,157.7,128.6,173.5,132.3z M140,216.4c-0.1-0.2-0.2-0.4-0.4-0.6c-5.1,2.3-10.3,4.5-15.3,6.9
		c-0.9,0.4-1.4,1.8-2,2.8c0.2,0.2,0.5,0.4,0.7,0.6C128.7,222.8,134.3,219.6,140,216.4z M124,185.7c0,7.8,0,15.5,0,23.3
		c0.3,0,0.6,0,0.9,0C126.2,201.2,124.9,193.5,124,185.7z"/>
	<path d="M222.6,65.8c-1.9-1.1-3.8-2-5.5-3.2c-1.6-1.2-3.1-2.6-4.4-4.1c-0.7-0.8-0.7-2.1-1-3.2c1.3-0.2,3.1-1,3.9-0.4
		c3.1,2.1,5.9,4.5,8.7,6.9c0.6,0.5,0.9,1.8,0.8,2.7C225,65.1,223.7,65.3,222.6,65.8z"/>
</g>
</svg>
