<svg xmlns="http://www.w3.org/2000/svg" width="25" height="25" viewBox="0 0 25 25"><g fill="#4D4D4D"><path d="M20.4 11.9h-15.8c-2.6 0-4.6 2.1-4.6 4.6v3.7c0 2.5 2 4.6 4.6 4.6h15.9c2.5 0 4.6-2 4.6-4.6v-3.7c-.1-2.5-2.1-4.6-4.7-4.6zm-12.5 2.9h-1.5v7.3h-1.4v-7.3h-1.5v-1.2h4.4v1.2zm4.2 7.3h-1.3v-.7c-.2.3-.5.5-.7.6-.3.1-.5.2-.7.2-.3 0-.5-.1-.7-.3-.1-.2-.2-.5-.2-.8v-5.3h1.3v4.9c0 .1 0 .3.1.3.1.1.1.1.3.1.1 0 .2 0 .4-.1l.4-.3v-4.8h1.3v6.2zm4.6-1.3c0 .4-.1.8-.3 1-.2.2-.5.4-.9.4-.2 0-.5 0-.7-.1-.2-.1-.4-.2-.5-.4v.5h-1.3v-8.6h1.3v2.8c.2-.2.4-.3.5-.4.2-.1.4-.2.6-.2.4 0 .7.1.9.4.2.3.3.7.3 1.2v3.4zm4.3-1.7h-2.4v1.2c0 .3 0 .6.1.7.1.1.2.2.4.2s.4-.1.4-.2c.1-.1.1-.3.1-.7v-.3h1.4v.3c0 .6-.2 1.1-.5 1.5-.3.3-.8.5-1.4.5-.6 0-1-.2-1.3-.5-.3-.3-.5-.8-.5-1.4v-2.8c0-.5.2-1 .5-1.3.4-.3.8-.5 1.4-.5.6 0 1 .2 1.3.5.3.3.5.8.5 1.4v1.4zM19.2 16.7c-.2 0-.3.1-.4.2-.1.1-.1.3-.1.6v.6h1.1v-.6c0-.3 0-.5-.1-.6-.2-.1-.3-.2-.5-.2zM14.8 16.7c-.1 0-.2 0-.3.1-.1 0-.2.1-.3.2v3.9c.1.1.2.2.3.2l.3.1c.2 0 .3 0 .3-.1.1-.1.1-.2.1-.4v-3.3c0-.2 0-.4-.1-.5 0-.1-.1-.2-.3-.2zM6.6 9.7h1.6v-3.9l1.9-5.5h-1.6l-1 3.8h-.1l-1.1-3.8h-1.6l1.9 5.7zM12.3 9.9c.6 0 1.2-.2 1.5-.5.4-.4.6-.8.6-1.4v-3.6c0-.5-.2-1-.6-1.3-.4-.3-.9-.5-1.4-.5-.6 0-1.2.2-1.5.5-.4.3-.6.7-.6 1.3v3.6c0 .6.2 1.1.6 1.4.3.3.8.5 1.4.5zm-.6-5.6c0-.2.1-.3.2-.4.1-.1.3-.1.4-.1.2 0 .3 0 .5.1.1.1.2.2.2.4v3.8c0 .2-.1.3-.2.4-.1.1-.3.2-.5.2s-.3-.1-.4-.2c-.1-.1-.2-.3-.2-.4v-3.8zM16.5 9.8c.3 0 .5-.1.8-.2.3-.1.6-.4.8-.7v.8h1.4v-7h-1.4v5.3c-.1.2-.3.3-.4.4-.2.1-.3.1-.4.1-.1 0-.2 0-.3-.1-.1-.1-.1-.2-.1-.4v-5.2h-1.4v5.8c0 .4.1.7.2.9.2.2.5.3.8.3z"/></g></svg>