<?xml version="1.0" encoding="utf-8"?>
<!-- Generator: Adobe Illustrator 18.1.1, SVG Export Plug-In . SVG Version: 6.00 Build 0)  -->
<!DOCTYPE svg PUBLIC "-//W3C//DTD SVG 1.1//EN" "http://www.w3.org/Graphics/SVG/1.1/DTD/svg11.dtd">
<svg version="1.1" id="Layer_1" xmlns="http://www.w3.org/2000/svg" xmlns:xlink="http://www.w3.org/1999/xlink" x="0px" y="0px"
	 width="44px" height="44.6px" viewBox="284.5 373.7 44 44.6" enable-background="new 284.5 373.7 44 44.6" xml:space="preserve">
<g>
	<path fill="#E9EFFD" d="M284.8,399c0,0,0.1-0.6,0.3-0.7c0.2-0.1,0.7-0.2,0.7-0.2s0.7,0,0.9,0.8s0.4,1.2,0.4,1.2s0.7,2.7,1,3.3
		c0.6,1,0.9,2.7,1.5,3.6c0.8,1.5,1.7,2.7,2.9,3.7c2.7,2.4,6.3,4.2,9.8,4.7c2.8,0.5,2,0.3,2,0.3l0.7,0.3l0.2,0.4c0,0-0.1,0.9,0,1.2
		c0.2,0.8-1.1,0.7-1.3,0.7c-0.3,0-3.8-0.2-9.3-3c-5.5-2.8-8.2-9.6-8.2-9.6s-1.7-4.2-1.8-5.5S284.8,399,284.8,399z"/>
	<path fill="#E9EFFD" d="M285.8,394.2l-0.5-0.2c0,0-0.5-0.7-0.6-0.8s-0.2-0.8-0.2-1c0,0,0.4-1.7,0.4-1.8s0.8-1.6,0.8-1.6
		s2.5-5.1,2.8-5.5c0.1-0.6,1.9-2.8,2.8-3.4c0.9-0.7,2-1,2-1s0.7-0.6,0.7-0.7s0.5-0.4,1.1-0.4c0.6-0.1,0.8,0.2,0.8,0.2s0.2,0.7,0.1,1
		c-0.2,0.2-1.6,1.6-2,2.2c-0.4,0.6-0.5,1.8-0.5,1.8l0.5,1.1c0,0,0.1,0.9,0.3,1.1c0.2,0.2,1.3,1.7,3.5,1.2c2.3-0.5,2.5-0.5,2.5-0.5
		l0.6,0.2c0,0,1.3,1.7,1.3,1.8s3.3,5.6,3.3,5.6l1.9,3.1l0.8,0.7l0.3-0.3l0.1-1.1l0.3-4l0.2-1.1v-0.4l1.6-0.9c0,0,2.1-1.6,2.3-2.4
		c0.2-0.8-0.3-2.5-0.3-2.5s-1.2-2-2-2.6c-0.8-0.6-0.1-1.7-0.1-1.7s2-0.4,2.8,0.1l4.6,2.5c0,0,1.2,1.5,1.6,2.8
		c0.4,1.4,0.4,3.7,0.3,3.8c-0.1,0.1-0.1,1.8-1.4,3.2c-1.3,1.5-2.1,2.2-2.1,2.2l0.1,3.5l0.2,2.9l-0.2,1.1v1.7c0,0-0.3,3.5-1.7,4.7
		s-3.5,3.2-5.3,3.7c-1.7,0.5-4.9,0.5-6.2,0c-1.3-0.5-3.9-2.4-3.9-2.4s-2.1-2.3-2.4-3.4c-0.3-1.3-0.8-2.9-0.8-3.2
		c0.1-0.4-0.2-2.4-0.2-2.4v-2.2c0,0,0-1.2-0.1-1.7s-0.2-2.2-0.1-2.3c0.1-0.2,0-0.9,0-1.1s-0.1-0.7,0-0.9c0.1-0.2,0.6-1.1,0.6-1.1
		s0.5-0.3,0.9-0.2c0.3,0.1,0.6,0,0.7,1.3s0.1,2.5,0.1,3.3s0.1,2.2,0.1,2.2l-0.1,0.5c0,0,0.2,1.9,0.2,3.2s0.4,1.8,0.4,2.1
		c0,0.2,0.3,1.2,0.4,1.4c0,0.1,0.5,2,0.9,2.3c0.4,0.4,2,1.5,2.5,1.6c0.5,0.1,2.9,1.1,5.5,0.9c2.6-0.2,3.7-1.6,3.7-1.6s1.9-2.6,2-3.9
		c0.1-1.4,0.4-2.6,0.4-2.6l0.4-4.1v-4.7c0,0,0.3-0.2,0.4-0.4c0.9-0.7,1.3-1.5,2-2.4c1.2-1.9,1-6-1.2-7.1c-1.5-0.7,0,0.7-0.5,2.8
		c0,0-0.3,1.9-1,2.7c-0.7,0.8-1.2,1.6-1.4,1.7c-0.1,0.1-0.8,0.5-1.1,0.9c-0.3,0.3-0.1,1.9-0.1,1.9s-0.2,2.3-0.2,2.6
		s-0.2,1.6-0.2,1.6v2.6v0.4l-0.1,0.7c0,0-0.2,2.6-0.2,2.8s0.2,1.1-0.1,1.1c-0.3,0-0.5,0.1-0.6,0.1c-0.1,0.1-0.8,0-0.9-0.2
		c-0.1-0.2-3.2-4.8-3.2-4.8s-2-3.6-2.1-3.9s-1.4-1.7-1.4-1.9c0-0.2-2.1-4.1-2.1-4.1l-0.3-0.8c0,0-0.4-0.5-0.7-0.5
		c-0.3,0-2,0.2-2.3,0.2c-0.3,0-2.8-0.5-3.5-1.1c-0.9-0.6-1.9-2-1.9-2.3c0-0.3-0.7-1.2-0.7-1.2l-0.1-0.4c0,0-0.2-0.2-0.6,0.2
		c-0.4,0.4-2,3.1-2.3,4l-0.8,2.5l-0.6,2.1C286.8,393.3,286.5,394.1,285.8,394.2z"/>
	<path fill="#E9EFFD" d="M299.9,377.4c0,0-0.5-0.8-0.7-0.8c-0.2,0-0.2-0.8,0.1-0.9c0.3-0.2,1.8-1.3,1.8-1.3c0.7-0.1,3.8-0.6,4.6-0.6
		s1,0.1,1,0.1l0.8-0.2c0,0,3.2,0.3,4,0.8c1.3,0.4,2.5,0.9,3.5,1.5c1.5,0.9,3,1.4,4.4,2.3c1.9,1.2,3.4,2.7,4.9,4.3
		c0.7,0.8,1.6,1.8,2,2.8c0.3,0.8,0.5,1.8,1.1,2.5c0.3,0.3,0.6,2.7,0.6,2.8s0,2-0.3,2.4c-0.3,0.5-0.9,1.1-1.2,1
		c-0.3-0.1-0.8-0.7-1-0.7c-0.2,0-0.7-0.6-0.7-0.8s-0.3-1.2-0.2-1.4c0-0.2-0.3-0.3-0.3-0.6c-0.1-1-0.3-1.8-0.6-2.8
		c-0.3-1.1-0.8-2.2-1.5-3.1c-1.3-1.9-3.3-3.8-5.3-4.9c-2.3-1.4-4.8-2.2-7.5-2.7c-2.1-0.4-4.4-0.5-6.6-0.2
		C302.6,376.8,299.9,377.4,299.9,377.4z"/>
	<path fill="#E9EFFD" d="M325.4,399.4c0,0,0-0.7,0.1-0.8s0.3-0.7,0.3-0.7l0.2-0.7c0,0,0.8-0.4,1.3-0.3c0.5,0,1.2,0.8,1.2,1.2
		c0,0,0.3,3.2-0.3,4.7c-0.7,1.5-2.1,5.1-3.2,6.4s-5,4.9-5.2,5.1c-0.2,0.2-2.7,1.8-4.7,2.6c-2.1,0.8-3.9,1.3-4.3,1.2
		c-0.4,0-0.8-0.2-0.9-0.6s0.1-0.6,0.1-0.6s0.1-1,0.5-1c0.4-0.1,1.3-0.7,1.5-0.7s2.4-0.7,2.7-0.9c1.9-1,4.3-2.8,5.3-3.9
		c0,0,1.8-1.9,1.9-2s0.5-0.6,0.5-0.6l0.6-1.7c0,0,0.7-1.1,0.8-1.4s1.4-3,1.5-3.4C325.1,400.9,325.4,399.4,325.4,399.4z"/>
</g>
</svg>
