<?xml version="1.0" encoding="utf-8"?>
<!-- Generator: Adobe Illustrator 18.1.1, SVG Export Plug-In . SVG Version: 6.00 Build 0)  -->
<!DOCTYPE svg PUBLIC "-//W3C//DTD SVG 1.1//EN" "http://www.w3.org/Graphics/SVG/1.1/DTD/svg11.dtd">
<svg version="1.1" id="Layer_2" xmlns="http://www.w3.org/2000/svg" xmlns:xlink="http://www.w3.org/1999/xlink" x="0px" y="0px"
	 width="50px" height="34px" viewBox="-280 380 50 34" enable-background="new -280 380 50 34" xml:space="preserve">
<g>
	<g>
		<path fill="#FFFFFF" d="M-232,380h-46c-1.1,0-2,0.9-2,2v2c0,1.1,0.9,2,2,2h46c1.1,0,2-0.9,2-2v-2C-230,380.9-230.9,380-232,380z
			 M-232,394h-46c-1.1,0-2,0.9-2,2v2c0,1.1,0.9,2,2,2h46c1.1,0,2-0.9,2-2v-2C-230,394.9-230.9,394-232,394z M-232,408h-46
			c-1.1,0-2,0.9-2,2v2c0,1.1,0.9,2,2,2h46c1.1,0,2-0.9,2-2v-2C-230,408.9-230.9,408-232,408z"/>
	</g>
</g>
</svg>
