<svg xmlns="http://www.w3.org/2000/svg" width="25" height="25" viewBox="0 0 25 25"><path fill="#4D4D4D" d="M20.2 0h-15.4c-2.6 0-4.8 2.2-4.8 4.8v15.299999999999999c0 2.7 2.2 4.9 4.8 4.9h15.3c2.7 0 4.8-2.2 4.8-4.8v-15.4c.1-2.6-2.1-4.8-4.7-4.8zm1.4 2.9h.6v4.3h-4.2v-4.2l3.6-.1zm-12.7 7c.8-1.1 2.1-1.8 3.6-1.8s2.8.7 3.6 1.8c.5.7.8 1.6.8 2.6 0 2.4-2 4.4-4.4 4.4-2.4 0-4.4-2-4.4-4.4 0-1 .3-1.8.8-2.6zm13.7 10.3c0 1.3-1.1 2.4-2.4 2.4h-15.4c-1.3 0-2.4-1.1-2.4-2.4v-10.3h3.7c-.3.8-.5 1.7-.5 2.6 0 3.8 3.1 6.8 6.8 6.8 3.8 0 6.8-3.1 6.8-6.8 0-.9-.2-1.8-.5-2.6h3.7v10.3z"/></svg>