<?xml version="1.0" encoding="utf-8"?>
<!-- Generator: Adobe Illustrator 18.1.1, SVG Export Plug-In . SVG Version: 6.00 Build 0)  -->
<!DOCTYPE svg PUBLIC "-//W3C//DTD SVG 1.1//EN" "http://www.w3.org/Graphics/SVG/1.1/DTD/svg11.dtd">
<svg version="1.1" id="Layer_1" xmlns="http://www.w3.org/2000/svg" xmlns:xlink="http://www.w3.org/1999/xlink" x="0px" y="0px"
	 width="320px" height="334px" viewBox="0 0 320 334" enable-background="new 0 0 320 334" xml:space="preserve">
<path d="M271.1,154c1.7,0.7,3.2,1.4,4.9,2c0.7,0.3,2,0.2,2.2,0.7c2.1,5,7.7,6,11.1,9.3c-2.4,4.7-3,4.9-8.4,2.7c-4.9-2-9.9-4-14.9-6
	c-0.8,1.3-1.4,2.3-2,3.4c0.2,0.3,0.5,0.6,0.8,0.9c1.1,1.1,2.8,2.1,3.2,3.4c0.4,1.4-0.2,3.3-1,4.7c-0.2,0.4-2.9,0.1-3.7-0.6
	c-9.4-8.4-9.3-5.2-18.2-0.2c-8.2,4.6-15.4,10.9-23.2,16c-11.2,7.2-22.6,13.9-33.8,21.1c-8.9,5.7-17.4,11.8-26.2,17.5
	c-13.3,8.5-26.7,16.9-40.1,25.2c-4.7,2.9-8.4,6-7.3,12.5c0.7,4.5,0.4,9.1,0.4,13.7c0,1.2-0.1,2.6-0.7,3.5c-0.6,1-2,1.4-3,2.1
	c-0.5-0.8-1.2-1.5-1.5-2.3c-0.9-3-1.6-6-2.3-8.8c-1.6,0.2-4,1.3-5.4,0.5c-1.3-0.7-1.4-3.4-2-5.2c-0.1-0.4,0-1-0.3-1.1
	c-4.7-2.9-2.9-5.8-0.4-9.2c1-1.3,0.5-3.6,0.8-5.9c-3.5,0.6-6.5,0.6-5-4.2c0.1-0.2-2.5-1.9-3.4-1.6c-3.1,0.9-6,2.5-9,3.5
	c-1.5,0.5-3.3,0.3-5.7,0.5c1.8-4.5,3.2-7.2,7.5-7.9c4.2-0.7,8.2-2.6,12.2-4.3c3.4-1.4,5.4-3.8,6-7.8c2.4-16,2.2-32,1-48.1
	c-1-13.2-1.8-26.4-2.5-39.6c-0.5-9.3-0.7-18.6-1-27.9c0-1.1,0.5-2.2,0.2-3.2c-0.3-1.2-0.9-2.9-1.9-3.3c-5.8-2.4-11.7-4.6-17.6-6.8
	c-0.5-0.2-1.1-0.4-1.4-0.8c-0.9-1-1.8-2.1-2.6-3.2c1.2-0.7,2.3-1.9,3.5-1.9c3.1-0.1,6.3,0.4,9.7-0.1c-2.1-0.7-4.2-1.3-6.2-2.3
	c-1.2-0.6-2-2-2.9-3.1c1.3-0.7,2.7-2.1,3.8-1.9c4.3,1,8.5,2.4,12.8,3.7c1.5,0.5,3,1,5,1.7c0.6-10-5.3-19.8,0.5-29.7
	c3.8,2.1,2.7,6.4,4.5,9.5c1-2.9,1.9-5.7,3.1-9.5c1.3,1.4,2.6,2.2,3,3.3c0.9,2.7,1.6,5.5,1.9,8.3c0.4,4.1-0.1,8.2,0.4,12.3
	c0.3,2.8,1.3,5.6,2.4,8.3c0.4,0.9,1.9,1.3,2.9,1.9c0.5,0.3,1.1,0.3,1.4,0.7c5.9,7.6,15.3,7.8,23.3,10.8c18.5,7.1,37.2,13.7,56,20.2
	c15.4,5.3,31,10.1,46.4,15.2c9.4,3.1,17.7,1.8,25-5.1c2.1-2,4.6-3.7,6.8-5.7c1.9-1.7,4-2.2,5.6-0.2c1.7,2,0.8,3.9-1.2,5.5
	c-4.4,3.7-8.6,7.5-12.9,11.3C271.4,152.8,271.3,153.3,271.1,154z M126.6,224.9c38.2-18.9,74.9-39.5,110.7-63.5
	c-1.9-1-2.6-1.4-3.3-1.7c-9-3.3-17.9-6.6-26.9-9.8c-12.8-4.6-25.5-9.9-38.6-13.3c-13.4-3.5-26.3-8-38.9-13.5c-2.3-1-4.8-1.7-8.6-3
	C122.9,155.5,124.7,189.8,126.6,224.9z M178.3,134.1c0.2-0.4,0.3-0.7,0.5-1.1c-18.8-7-37.6-13.9-56.3-20.9c-0.3,0.7-0.5,1.5-0.8,2.2
	C139.8,122.9,158.7,129.5,178.3,134.1z M136.9,238c-0.1-0.3-0.3-0.5-0.4-0.8c-6.3,2.8-12.7,5.5-18.9,8.5c-1.1,0.5-1.7,2.3-2.5,3.4
	c0.3,0.3,0.6,0.5,0.8,0.8C122.8,246,129.9,242,136.9,238z M117,200.1c0,9.6,0,19.2,0,28.8c0.4,0,0.8,0,1.2,0
	C119.8,219.3,118.3,209.7,117,200.1z"/>
</svg>
