<svg xmlns="http://www.w3.org/2000/svg" width="60" height="63" viewBox="0 0 60 63"><g fill="#fff"><path d="M40.8 59.2c-.3.1-.5.1-.8.1-.3.2-.5.4-.8.7-.3 0-.6.1-.8.1-.3 0-.5.2-.8.3-.6.2-1.1.4-1.6.6-.3.1-.6.2-.8.2-.4 0-.9 0-1.3.1h-.1c-.6-.2-1.2.1-1.8.1h-4.300000000000001c-.2 0-.3.1-.3.3l-.2.6c-.2.6-.8.8-1.4.5-.4-.2-.6-.5-.7-.9l-.1-.5-.3-.2-1.2-.3-.2-.1c-1-.1-1.9-.6-2.9-.8-.4-.1-.8-.2-1.1-.4-.5-.3-1.1-.6-1.7-.8-.5-.2-1-.3-1.4-.5-1.2-.4-2.2-.9-3.2-1.6l-1-.6c-.4-.2-.7-.5-.8-.9-.1-.4-.4-.6-.7-.8-.2-.1-.4-.3-.6-.5-.4-.4-.7-.7-1.2-1-.3-.2-.5-.4-.7-.7-.3-.5-.7-.8-1.1-1.2-.5-.4-.9-.8-1.2-1.3-.3-.5-.6-.9-1-1.3l-.2-.2-1.6-2.6c0-.2.1-.4.1-.7-.5-.8-.8-1.7-1.2-2.7l-.5-1.5-.3-1.2c-.2-.6-.4-1.2-.4-1.9 0-.2-.1-.4-.1-.5 0-.2-.1-.4-.1-.5 0-1.2-.3-2.5-.2-3.7 0-.7 0-1.5-.1-2.2v-.4c.1-.8.1-1.6.1-2.4.1-1.3.2-2.5.5-3.8l.4-1.6c.2-.7.4-1.5.7-2.2l2.1-4.7c.4-.8.9-1.6 1.5-2.3.6-.5 1.2-1.3 1.7-2.1.2-.3.4-.6.7-.8.5-.5 1-1.1 1.4-1.7.3-.5.6-.8 1-1.1.5-.4 1.1-.8 1.5-1.3.5-.5 1.1-.9 1.8-1.2.7-.3 1.3-.6 1.9-1 .6-.4 1.2-.7 1.9-.9.3-.1.6-.2.9-.4.6-.3 1.3-.6 2-.8 1-.3 1.9-.7 2.9-.9.6-.2.6-.2 1.1-.7l1.1-.3c.2-.1.4-.1.6-.1h2.7c.4 0 .7.1 1.1.2 1 .3 2 .5 3 .5h1c.9 0 1.8.2 2.7.4.9.3 1.8.5 2.8.7l.9.3c.7.3 1.4.5 2 .8.7.3 1.3.6 2 1l3.3 2 1.3.9c.8.5 1.5 1.1 2 1.8.2.3.5.5.9.7.4.2.7.4 1 .6.6.4 1.1.9 1.5 1.4.6.8 1.1 1.5 1.8 2.2.3.3.5.6.7 1l.2.4c.5.5.7 1.2.9 1.8.3.9.7 1.9 1.2 2.7.2.3.3.7.1 1.1-.2.6-.2 1.1 0 1.7.1.3.2.7.2 1.1l.1.6c.1.5.3 1.1.3 1.6 0 .2.1.4.1.5l.1.4c-.1.7.1 1.4-.1 2.1-.1.7-.1 1.4 0 2.1l.1.3c.1.5.2 1.1.2 1.7v1.9c0 .7 0 1.5-.3 2.1l-.1.2c0 .7-.3 1.3-.5 1.9l-.2.7v.1l-.4 1.2c-.1.4-.2.9-.4 1.3-.3.2-.6.5-.8.8l-.6.9c-.1.2-.3.4-.3.6-.3.6-.7 1-1.1 1.5-.4.5-.9 1-1.1 1.6-.6.7-1 1.5-1.5 2.3l-.3.4c-.3.6-.7 1-1 1.5-.5.6-.9 1.2-1.3 1.9-.4.3-.8.6-1.1 1-.4.5-.8.9-1.5 1.1l-3.5 2.1c-.5.3-1.1.6-1.7.7-.6.3-1.1.5-1.5.8zm-3.2-23.2zm-7.6-33.8zm-7.9 39.7zm21 3.5l.2-.2.1-.1v.1c-.1.1-.2.2-.3.2-.1.1-.1.2-.2.2-.6 0-.9.4-1.1.8v.1c0 .1.1.1.2 0 .4-.3.7-.6.9-1 .1.1.1 0 .2-.1zm-16.2-5.5c-.1-.1-.1-.1-.2 0l-.8.3-.3-.3h-.1l-.1.2c0 .2.1.3.3.4l.5.2c.2.1.3 0 .4-.2.1-.2.1-.3.1-.5 0-.1.1-.1.2-.1 0 .1 0 .2.1.2v-.1s-.1 0-.1-.1zm-12.5 11.2c0-.1 0-.2-.1-.2v.1s0 .1.1.1zm23.9-1.7h.2c.1 0 .1-.1 0-.1h-.1s-.1 0-.1.1c-.1.1-.1.2-.2.2s-.2 0-.3.1c-.1 0-.1.1 0 .2h.1l.2-.3c0-.1.1-.2.2-.2zm-18.4-2.4c-.2.1-.2.3-.2.4-.3.1-.4.3-.4.6l-.1.1v-.1c.3-.1.4-.4.4-.6.2-.1.2-.3.3-.4zm18.2 8.5l-.3.2c-.1.1 0 .1.1.1h.1c0-.1 0-.2.1-.3zm-22.6-39.2h-.2c-.3 0-.4.1-.4.4-.1 0-.1.1-.1.1v-.1c.3-.1.5-.2.7-.4.1 0 .2.3.4.2v-.2c0-.1-.1-.2-.2-.1-.1 0-.2 0-.2.1zm27 22.6c-.1-.1-.1-.2 0 0 .3.4.3.4.7.2 0 0 0-.1.1-.1 0-.1-.1-.2-.2-.2-.3 0-.5 0-.6.1zm-15.6-8.6l-.4-.2h-.2c-.1 0-.1.1-.1.2l.1.1c.2.1.4.1.6-.1h.5l.2.2c.3.1.6 0 .9-.3-.4-.2-.8-.1-1.1.1-.3-.2-.3-.2-.5 0zm7 7.7c-.1.4-.1.4.2.7h.1l.1-.1c-.1-.3-.2-.5-.4-.6zm18.9-22.8l-.2-.1h-.1l.3.1c.2.3.6.4.9.5.1 0 .1-.1.1-.2-.3-.3-.7-.3-1-.3zm-28.1 23c0 .2-.3.2-.2.4h.3c.1 0 .1-.1.1-.1 0-.1 0-.1-.1-.2l-.1-.1c.1-.2.3-.4.5-.6-.1-.2-.3-.3-.5-.1-.1.1-.1.2-.1.3-.1.2 0 .3.1.4zm33.3-1.3c-.4 0-.6.1-.7.5.2.1.3.1.5 0 .2-.2.2-.3.2-.5 0-.1.1-.2.2-.3v-.1s0-.1-.1-.1l-.1.1v.4zm-17.7 0l-.3-.3-.8.2-.1.1c0 .1 0 .1.1.2.3.1.6.1.8 0 .1-.1.2-.2.3-.2zm.6 10.3l-.9.6-.5.4v.1l.2.1c.1 0 .2 0 .3-.1.2-.2.4-.5.7-.7.2 0 .2-.3.2-.4l.3-.1c.1 0 .1-.1 0-.2h-.1c0 .1-.1.2-.2.3zm-19.7-30.9h-1.4c-.4 0-.7.1-1 .4v.1s0 .1.1.1.1.1.2 0l2-.5s0-.1.1-.1h.7c.2 0 .3-.1.5-.2.1 0 .1-.1.1-.1h-.1l-1 .3c-.1-.2-.2-.1-.2 0zm2 16c-.2-.1-.3-.3-.3-.3-.5-.3-.9-.2-1.3-.2-.1.2-.1.3 0 .4.2.2.5.2.8.2l.5.3c.1 0 .2 0 .3-.1-.1-.2-.1-.3 0-.3l.2-.2v-.2c-.1 0-.1 0-.2.1v.3zm13.3 4.8l.2.1c.4 0 .8.1 1.2-.1l.6-.2c.1 0 .1-.1.1-.1-.1-.3-.3-.4-.6-.3-.4 0-.9.1-1.3.2-.4-.3-.5-.3-.9 0-.2-.1-.4-.2-.6-.2-.6-.1-1.1-.2-1.6-.3l-.5.2-.4.2c-.1 0-.1.1-.1.2l.1.2c.6.1 1.2.1 1.8 0 .3 0 .6-.1.9 0 .1 0 .3-.1.3-.2.4 0 .6.1.8.3zm.7-3.5l.6-.4s.1 0 .1-.1.1-.1 0-.2c0-.1-.1-.1-.1-.1h-1.6l-.3.1s-.1.1-.1.2l.3.3-.1.1v-.1c.3 0 .5 0 .8-.1.3 0 .3 0 .4.3h-.2c-.1 0-.1.1 0 .1h.1s0-.1.1-.1zm-10.3 4.1c-.1-.2-.3-.2-.5-.1 0 0-.1.1-.1.2 0 0 .1.1.2.1l.4-.2c0 .4-.3.4-.5.6 0 .2 0 .4.3.6.4-.1.8-.2 1.2-.2.1 0 .3-.3.3-.4 0-.1-.1-.3-.2-.3-.4 0-.8 0-1.1-.3zm16.9 6.2c-.3-.1-.6-.2-.9-.2-.3 0-.6-.1-1-.2-.3-.1-.6.1-.8.4v.2c.1.1.3.2.5.1l.5-.3c.1-.1.3-.1.4 0 .1.2.2.3.4.5.4 0 .7-.2.9-.5zm-18-7.2c0-.1 0-.2-.1-.3-.1-.1-.2-.1-.3 0l-.1.3-.5-.3c-.1-.1-.1-.2 0-.3 0 0 .1 0 .1-.1.1 0 .1 0 .2-.1.3-.1.3-.2.1-.5 0-.1-.1-.1 0-.2 0 0 .1-.1.2-.1s.3 0 .4.1c.4-.3.8-.4 1.4-.4.1.2.3.3.6.3l.3-.4.5.3h.1l.2-.3h.3c.2.1.3.3.5.2l.4-.2c.2 0 .3.2.6.1l.3-.3c.2 0 .4-.1.7-.1l.7.6c.2-.1.4-.2.5-.3.6-.2 1.2.1 1.8.2.4 0 .7.2 1 .3l.2.1c-.1 0-.2 0-.2.1h.1l.2-.1c.3.1.5.2.7.3.4-.1.7-.2.8-.6h.6v.4c.7.1 1.3 0 1.9-.1l.4.2c.2.1.3 0 .4-.1l.4.3 1.2-.2c.3.1.7.3 1 .1.8.5.8.5 1.5.1l2.1.1c.2 0 .4 0 .6.1.3.1.6.1.9.1.3 0 .5 0 .8.1.8.2 1.6.1 2.4.2.4 0 .8-.1 1.2-.2.6-.2 1.2-.4 1.8-.3.2 0 .4-.1.6-.2.1-.1.1-.2 0-.3-.1-.1-.2-.2-.3-.2h-1.5c-.1 0-.1 0-.2.1-.2.2-.4.3-.5.5-.4.1-.7.1-1 .1-.4 0-.7 0-1.1.1l-.7-.4c-.2.1-.5.2-.7.2l-.3-.2c-.2-.1-.5-.1-.7-.1h-.4c-.4.1-.7-.1-.9-.4-.1-.1-.2-.2-.3-.2l-.6.3c-.4-.1-.8.1-1.2.1-.3-.1-.7-.2-1-.4-.3 0-.4-.3-.6-.4-.2.4-.4.5-.6.6-.2.1-.4 0-.6-.1-.1 0-.1-.1-.1-.2-.4-.5-1-.6-1.6-.4-.2.1-.3.2-.5.1-.1-.1-.2-.2-.3-.2-.3 0-.5-.1-.7-.3-.3-.2-.4-.1-.5.3l-.1.2c-.2-.1-.3-.1-.5 0-.1.1-.2.1-.3.1l-.6-.5c-.1 0-.2.1-.4.2l-.3-.2c-.1.1-.3.2-.5.3h-.8c-.4-.1-.7-.2-1.1 0h-.3c-.4-.2-.9-.2-1.3-.1-.4 0-.8-.1-1.2-.3-.1-.1-.2-.1-.3-.1h-.1l-.6.1c-1 .1-2 .2-2.9-.3-.5.1-1 .2-1.5.2-.2 0-.3-.1-.4-.1-.3-.1-.6-.3-1-.1-.3-.1-.6 0-1 .1-.1 0-.3 0-.4.1-.1-.1-.1-.1-.2 0-.2 0-.4.1-.5.1-.6-.3-.6-.3-1.2-.2 0 .3-.4.4-.5.7l.3.1c.4.1.8.2 1.2.4.1.1.2.1.2.3 0 .1-.1.1-.3.1l-.9-.3c-.3.1-.5.1-.7.1-.3-.1-.5-.2-.7-.3-.3.2-.5.3-.8.3h-.9l-.2.1c-.1.3.1.4.3.5.2.1.4.2.5.2l.1.1 1.3 2.5v.2c0 .1 0 .2-.1.2-.3.1-.5.1-.6.1-.2.1-.2.2-.1.4l.3.5c.3.3.7.7.9 1.1 0 .1.1.1.2.1.5-.1.5-.2.4-.6.5.2 1.1 0 1.6-.1l.7-.5c.1-.1.1-.2.1-.3 0-.2-.2-.4-.4-.4h-.6l-.9-.4v-1.3c0-.1-.1-.1-.2-.1h-.1c-.1.1-.2.2-.2.3-.2 0-.4-.1-.4-.3-.1-.1 0-.3.1-.4.2-.3.4-.5.8-.5.8 0 1.5-.1 2.3-.2h.2l.7.5h.7c.1 0 .2-.1.3-.2 0 0 .1 0 .3.1.1.1.2.2.4.2h1.6l1.5.1c.1 0 .2 0 .3-.1.1 0 .2-.2.1-.3 0-.1-.1-.2-.2-.3-.9.1-.9.1-1.5-.1-.1.1-.2.2-.2.4-.1 0-.3.1-.4 0-.2-.2-.4-.2-.6-.1-.3 0-.7.1-1 .2zm26.3-25.9l.1.3c0 .1 0 .3-.1.5.2.2.3.4.5.5.3.1.5.1.7.2l.4.8v.7c.3.2.5.5.7.7l.2.7.4.3.4.5.9.1v-.1c-.3-.6-.6-1.3-1-1.8l-1.4-1.7c-.3-.3-.6-.7-.9-1.1-.2-.3-.4-.5-.7-.7-.1-.1-.3-.2-.5-.1l-.1.1c.1-.1.3 0 .4.1zm-29.8 3.9c.7.1 1.4-.2 1.9-.6.5 0 .9-.2 1.4-.1h.2c.3-.3.8-.2 1.2-.5.3-.2.7-.2 1-.1.2-.1.4-.2.6-.2.2 0 .3.1.4.1.1-.2.3-.3.4-.4.1-.1 0-.4-.2-.4-.5-.1-.9-.1-1.2.3h-.6l-.5-.3c-.4.1-.7.2-1 .3-.2.2-.3.4-.6.5-.3-.3-.7-.3-1.1-.1l-.9.4c-.4.2-.7.5-.9.9-.1 0-.1.1-.1.2-.1 0-.2-.1-.4-.1l-.1.1.1.1c.2.1.3 0 .4-.1zm27-6.3c-.1-.3-.3-.5-.6-.6-.3-.1-.5-.3-.7-.5-.2-.2-.4-.4-.7-.5-.3-.2-.6-.5-.9-.6-.4-.2-.7-.4-1-.6-.4-.3-.6-.5-.9-.6-.2 0-.4-.1-.5-.2-.6-.4-1.2-.8-1.9-1.2l-.4-.2h-.2c-.1 0-.3 0-.3.1v.2c.5.5.9 1.1 1.3 1.8l.3.3c.2.2.3.4.3.6l.1.4c.2.1.4.1.5.2.8.3 1.5.5 2.3.6.8.2 1.6.3 2.3.7.4.1.7.1 1 .1zm-9.5 23.6c.3.1.6-.1.9-.1.5.1 1 0 1.4.2h.3c.3-.1.6 0 .9 0 .3 0 .6.1 1 0h.3c.3.1.5.2.8.2l.6.2c.2 0 .5 0 .7-.1.6.2 1.2.1 1.7.1l1.1.1c.1 0 .3-.1.5-.1h.2c.1 0 .2-.2.2-.2 0-.1 0-.1-.1-.2-.2-.1-.4-.3-.5-.4l-.5-.5c-.4 0-.7.1-1 .1-.3 0-.6 0-.9-.1-.3-.1-.5-.2-.8-.2-.3 0-.6-.1-.9 0-.2.1-.5.1-.8 0-.8-.1-1.6-.1-2.4-.3l-.4-.3c-.3 0-.6.1-.8.1-.3 0-.6-.1-.9-.2-.4.3-1 .4-1.5.3h-1.4c-.1 0-.2 0-.3.1l-.2.2c.3.2.7.1 1 .1.1 0 .1 0 .2.1.2.1.3.4.6.5l.5-.1.5.5c0 .1-.1.1-.1.1 0 .1 0 .1.1.1v-.2zm-26.5-11.8c-.1.4-.2.7-.2 1-.1.9-.1 1.7.1 2.6.1.3.1.6.2.8l.5 2.4.4 1.7c.1.3.2.6.2.8 0 .2.3.2.5.1 0 0 .1 0 .1-.1.2-.2.4-.3.7-.4l.8-.1c.3 0 .6 0 .9-.1.5.1 1 .1 1.5.1.3 0 .7 0 1-.1.4-.1.9-.1 1.3-.1h4.2c1.2 0 2.5-.1 3.7.2h.4c.3-.1.6-.1.9 0l.5.1 3.2.2c.5.1 1.1.1 1.6.1h3c.3 0 .7 0 1 .1.9.1 1.8.2 2.7.2h1.2l2.4.2c.5 0 1.1 0 1.6.2h.2c.7-.1 1.5.1 2.2.1.5 0 .9 0 1.4.2.4.1.8.2 1.2.2.4 0 .9.1 1.3.2l3.9 1c.3.1.6.1.9.1.1 0 .3-.2.3-.3l.1-1.1.1-.9c-.1-.5-.1-1 0-1.5v-.5c-.1-.4-.1-.9-.1-1.3 0-.6 0-1.2-.2-1.8l-.5-2.7-.3-.9c0-.1-.1-.3-.3-.3-.4-.3-.9-.6-1.4-.6-1.1-.1-2.1-.6-3.1-.9l-.2-.1c-.5-.4-1-.5-1.6-.7-.5-.1-.9-.3-1.3-.5-.7-.3-1.3-.6-2-.8-.5-.1-1-.3-1.5-.3l-.6-.1c-.8-.2-1.6-.3-2.4-.3-.4 0-.7 0-1.1-.1-.3-.1-.6-.1-.9-.1-.7 0-1.3 0-2-.2h-.2c-.6 0-1.2 0-1.8-.1h-.7c-.4 0-.9 0-1.3-.1h-.4c-.6 0-1.2 0-1.8.1-.9 0-1.9-.1-2.8.2-.7 0-1.3.1-2 .2-.6.1-1.2.2-1.8.4-.3.1-.6.2-1 .2-.6.1-1.2.2-1.7.3-.2.1-.5.1-.8.1-.4 0-.9.1-1.3.2s-.8.2-1.2.2c-.3 0-.6.1-.8.2-1.1.5-2.1.9-3.3 1.1-.3.1-.6.2-.9.2-.3 0-.6 0-.9.1-.5.2-1.1.6-1.8 1zm7.8 22.7v-.2c-.3-.4-.7-.8-1.1-1-.2-.1-.3-.2-.4-.3-.8-.7-1.4-1.6-1.9-2.5l-.5-.9-.6-.3v-.5c-.2-.4-.3-.8-.7-1.1-.3-.3-.5-.7-.6-1-.2-.5-.4-1-.5-1.6-.2-1-.6-2-1-2.9-.1-.2-.3-.4-.2-.8l.5-.5v-.6c-.2-.7-.4-1.5-.5-2.2 0-.1 0-.3-.1-.4-.1-.3-.2-.6-.2-.9 0-.3-.1-.5-.1-.7-.1-.6-.3-1.3-.3-1.9 0-.7 0-1.5.1-2.2v-.5c-.1-1-.1-1 .2-1.9.1-.3.2-.5.5-.7.1-.1.2-.2.2-.3 0-.4.4-.7.5-1.1.4-.6.7-1.2 1.2-1.7.2-.2.3-.4.4-.6l.4-.6c.5-.6.9-1.3 1.3-2 .2-.5.5-1 .9-1.4l.2-.3c.1-.1-.1-.4-.2-.4h-.3c-.4 0-.7-.1-1.2-.1-.2 0-.5.1-.8.1-.5 0-.9 0-1.4.1h-.4c-.4-.1-.8-.3-1.2-.2-.4.1-.8.3-1.1.4-.3.1-.5.3-.7.5-.2.4-.5.7-.8 1-.8.9-1.4 1.9-1.8 3-.3.8-.6 1.6-.9 2.5-.1.3-.2.6-.4.9-.5.8-.5 1.7-.9 2.6-.1.3-.2.6-.2 1v.4c0 .4-.1.9-.2 1.3s-.2.9-.2 1.3c0 .8-.1 1.6.2 2.4 0 .2 0 .4.1.5 0 .7.2 1.4.3 2.1.1.6.3 1.1.2 1.7v.3c0 .2.1.4.1.5l.2.6c0 .2-.1.4-.1.5.4.8.4.8.5 2.2 0 .1 0 .2.1.3.2 1 .5 2 .8 2.9.1.2.2.3.2.5l.5 1.1c.2.5.4 1.1.7 1.6.3.8.7 1.5 1.3 2.2l.6.9c.2.3.3.6.4.9 0 .3.2.6.4.9l1 1.7c.4.7.9 1.4 1.3 2.2.2.4.5.8.8 1.2.1.2.2.3.5.3.1-.1.3-.2.5-.3.2-.1.4-.1.6-.3l1-.6c.2-.2.4-.4.5-.7.1-.3.3-.7.5-1 .4-.9 1-1.7 1.5-2.5-.3-1.1.1-2 .3-2.9zm.9 1.3c-.3.5-.6 1.2-.8 1.8-.1.3-.2.6-.4.9-.5.8-.9 1.8-1.5 2.5l-1.1 1.5c-.6.6-1.1 1.2-1.6 2l-.1.2c-.7.6-1.2 1.5-2.1 1.9-.1 0-.2.2-.2.2-.2.2-.2.4 0 .6l.3.2c1.2.8 2.4 1.4 3.7 1.8.3.1.6.2.9.4l.5.6 2.1.7c.7.2 1.4.2 2.1-.1.7-.3 1.4-.6 1.9-1.2.4-.4.8-.8 1.3-1.2l.4-.4c.6-.7 1.2-1.3 1.9-1.8l.5-.4 1.2-1.4c.7-1.1 1.6-2.1 2-3.4.6-1.1 1.1-2.2 1.5-3.3.1-.2.1-.4.2-.5.2-.3.3-.7.4-1l.6-2.1.1-.2c.1-.2.5-.2.5-.5l-.2-.1h-2.6c-.2 0-.4.1-.5.1-.6.2-1.3.3-1.9.3h-2.7c-.7 0-1.3 0-2 .1h-2c-.6 0-1.2.1-1.7.1-.2 0-.4.2-.3.3l.4.8v.2c-.3.4-.6.3-.8.4zm22.2-1.3c.3 0 .5-.1.7-.1.3 0 .5.2.4.4-.2.5-.2 1 0 1.5l.2.9c0 .1.1.3 0 .4-.1.6-.1 1.2-.2 1.7-.2 1.1-.4 2.2-.8 3.3-.5 1.2-.7 1.9-1.4 3.1-.1.1-.1.2-.1.3-.1.5-.4.9-.6 1.3l-.6 1.4.1.1c.5-.1.9-.5 1.4-.5.2 0 .4.2.7.1.4-.2.9-.5 1.3-.8 1-.6 2.1-1.2 2.9-2.1.8-.8 1.6-1.6 2.3-2.5.5-.7 1.1-1.4 1.5-2.1.2-.4.5-.8.8-1.2.6-.8 1.1-1.6 1.1-2.6l.1-.3v-.3c-.4-.3-.9-.5-1.4-.6-.2 0-.4 0-.6-.1-.6-.1-1.1-.3-1.7-.5-.5-.2-1.1-.3-1.5-.3-.4-.1-.6-.4-1-.4l-1.7-.3c-.6-.1-1.2-.1-1.8-.3h-.3c-.1 0-.1.1-.1.1v.1c0 .1.2.2.3.3zm-32.1-34.9c.1.1.2.2.3.1.3-.1.6-.2 1-.2.5 0 1-.2 1.5-.3.5-.1 1-.1 1.5-.3.8-.2 1.7-.2 2.5-.1l.1.1c0 .1-.1.2-.2.2-.6 0-1.2.1-1.9.1-.2 0-.4 0-.5.1-.1 0-.3.1-.3.3l.2.1h2.1c.4 0 .7-.1 1.1-.2.5-.3 1.1-.4 1.7-.4.3 0 .6 0 .9-.1l1.3-.2c.4 0 .8-.1 1.2-.2.4-.2.9-.2 1.3-.2.2 0 .4 0 .6-.2 0-.1.1-.2.1-.4.1-.2.2-.3.4-.3h4.9c.2 0 .4 0 .5-.1 0 0 .1-.1 0-.2-.4-.4-.6-.9-1.2-1.1l-.3-.3c-.2-.2-.4-.5-.5-.7-.1-.2-.3-.4-.5-.5l-.5-.4c-.3-.2-.6-.4-1-.5-.5 0-1.1.2-1.6 0l-.5-.5c-.7-.1-1.4-.1-2 .2-.2.1-.5.2-.7.2l-.9.2-2.1.6c-.1 0-.3.1-.4.2-.5.2-1.1.4-1.6.7-.5.2-1 .4-1.5.7-.5.4-1 .6-1.5.9-.8.5-1.6 1.1-2.4 1.5-.2.1-.3.2-.4.3-.1 0-.1.1-.1.2-.2.1-.4.4-.6.7zm-9.3 17.6c.1.3.1.6 0 .9l-.1.3c-.1.4-.1.7-.1 1.1l.6 2.4c.1.5.3 1 .6 1.4h.1l.1-.1-.1-1.2c0-.2 0-.4-.1-.5-.1-.4-.1-.8 0-1.2.1-.2.1-.4.1-.5 0-.7.1-1.5-.2-2.2.3-.8.1-1.6-.1-2.3-.3.1-.3.3-.3.5l-.2.7c-.2.2-.2.4-.3.7zm24.6-16.2c-.2 0-.4 0-.6.1-.5 0-1.1 0-1.6.1h-.4c-.3-.1-.5-.1-.8 0-.2.1-.4.1-.6.1-.4.1-.9.1-1.3.3-.3.1-.5.2-.5.5v.2c0 .1.1.1.2.1.5 0 .9-.1 1.4-.3l.4.2c.2.4.7.6 1 1 0 .1.1.1.2.1s.1 0 .2-.1v-.1c0-.1-.1-.2-.2-.3v-.2s.1-.1.2-.1.2.1.3.2c.1.1.2.2.3.2.1-.1.1-.3.1-.4 0-.5.3-.8.8-.9.3-.1.5-.2.8-.1.1 0 .2-.1.2-.2s0-.2-.1-.4zm12.3 4.8c-1.1-.5-2.2-.6-3.3-.5-.2 0-.4.1-.6 0h-.3c-.6.2-1.2.1-1.7.1-.3 0-.6 0-.9.1l-1.1.2h-.1s-.1.1-.1.2.1.1.1.1c.3.1.6.1.9 0 .6-.2 1.1-.2 1.7-.2.7 0 1.5 0 2.2.1h.4c.5 0 1-.1 1.4 0 .5.1.9.1 1.4.1.8 0 1.5 0 2.3.2h.1l.2-.1c0-.1 0-.1-.1-.2-.5-.2-1.1-.1-1.6-.2-.2 0-.5.1-.9.1zm-35.3 30c-.7-.8-1.2-1.6-1.3-2.6 0-.2-.1-.3-.2-.5-.3-.5-.6-1.1-.8-1.7 0 0-.1-.1-.1 0-.1 0-.1.1-.1.1v.8c0 .2.1.5.1.8 0 .3.1.5.2.7.2.3.4.7.5 1.1l.7 1.8c.2.6.7 1.1 1.2 1.5h.2c.1 0 .1-.1.1-.2v-.2l-.3-.7c0-.2-.1-.6-.2-.9zm30.6 11.6c.2-.2.3-.3.4-.5l.1-.2-.1-.2h-.1c-.2.1-.4.3-.6.5-.4.4-.7.8-1.3 1-.1.1-.2.2-.2.4 0 .1 0 .3.1.4 0 .2 0 .3-.1.4-.2.4-.1.4.3.4.3 0 .6.1 1 .2h.2l.6-.6h.4c.1-.3.2-.6.2-.8 0 0 0-.1-.1-.1l-.3.1c-.3.1-.5 0-.5-.3v-.7zm17.1-14.7l.5.5.5-.3c.1-.1.3-.1.4-.1h.5c.3 0 .5 0 .7-.1l.2-.1s.1-.1.1-.2-.1-.3-.3-.3c-.6-.2-1.2-.5-1.8-.8-.1.1-.3.1-.5.2-.3.2-.7.3-1 .2h-.2l-.2.1-.1.5c0 .2.1.3.3.4.3-.1.6 0 .9 0zm-9.7 9.9c.1 0 .1.1 0 0 .4.3.4.4.3.7-.1.2-.2.4-.4.5-.6.3-.9.8-1.3 1.3 0 .1 0 .2.1.3.2.3.7.3.9 0l.6-1 .5-1.2.4-1v-.3c-.9.3-.9.3-1.1.7zm-41.1-22.7c-.3-.6-.3-.6 0-1.1.1-.1.2-.2.2-.3.1-.1.1-.3.1-.4-.2-.4-.2-.9-.2-1.3v-.3c0-.1-.1-.1-.1-.1-.1 0-.2.1-.2.1-.2.8-.4 1.6-.4 2.5 0 1 0 2-.1 2.9 0 .2.1.4.1.5 0 .1.1.1.2 0 .1-.3.2-.6.1-.9-.1-.3 0-.5 0-.7.2-.3.3-.6.3-.9zm41.2 5.5c.4-.1.8-.3 1.1-.1.5.2 1 .1 1.5.2 0 0 .1-.1.2-.1-.1-.1-.1-.2-.2-.2l-.7-.3c-.8.3-1.6 0-2.3-.4-.3.1-.7.1-1 .4.4.4 1 .3 1.4.5zm-24.8.4h.5c.5 0 .8-.3 1-.7.1-.1-.1-.3-.2-.3h-.2c-.2.1-.5.1-.7 0-.5-.1-.9-.1-1.4.2l-.1.1c0 .1 0 .2.1.2.4.1.7.3 1 .5zm9.7 7c0 .2.1.4.2.6.1.1.3.1.4.1l1.5-.2.2-.1c.1 0 .1-.2.1-.3 0-.1-.1-.1-.2-.1h-.2c-.5 0-.9 0-1.4-.1-.2-.2-.4-.1-.6.1zm-.5 17.7l-.6.6c-.1.1-.2.1-.3.1l-.5-.3c-.3.1-.5.2-.7.3 0 0-.1 0-.1.1-.1.1-.2.2-.1.4.3.1.6.2.9.2.2.1.4 0 .6 0 .4-.3.7-.6 1-.9.1-.1.1-.2 0-.3 0-.1-.1-.1-.2-.2zm13.6-52.8c.1-.1.2-.2.2-.4s-.1-.4-.3-.6c-.2-.2-.4-.3-.6-.4-.2-.1-.5-.2-.7.1v.3c.1.2.3.4.4.7.2.3.4.4.7.4.1-.1.2-.1.3-.1zm3.8 41.2c-.3-.2-.5-.1-.7 0-.4.2-.7.4-.8.8.2.3.4.4.7.6.2.1.6 0 .6-.2l.1-.3c0-.3 0-.6.1-.9zm2-5.3c.1.1.2.2.3.2.6.2 1.2.3 1.8.3h.1c.1 0 .2-.2.2-.4l-.9-.3c-.5-.2-1-.1-1.5.2zm-31.2 11.3l-.2-.3h-.2c-.3.2-.6.4-.9.7-.1.1-.1.2-.1.3 0 .1 0 .2.1.3.1.1.2.1.3.1.3-.2.6-.3.8-.6.1-.2.1-.4.2-.5zm16.6 6.5c.6.1 1.1.1 1.6 0 .1 0 .1 0 .2-.1.1 0 .2-.2.1-.4 0-.1-.1-.2-.2-.2h-.1c-.5.2-1 .6-1.6.7zm-11.1-48.9c-.2-.3-.3-.3-.5-.2l-.5.4c-.2.2-.2.4-.1.7 0 .1.2.2.3.1.3-.2.6-.6.8-1zm-15.5 4.4c-.4.3-.5.7-.7 1.1-.1.1-.1.3 0 .4l.3.2s.1-.1.2-.1.1-.1.1-.2c.2-.4.2-.8.1-1.4zm43.5-.4c.4-.2.4-.2.5-.7-.5-.3-1 0-1.5.2l.2.3c.3 0 .6.1.8.2zm1.5-2.9c.4.1.7.2 1 .2.3.1.6.1.9.1.1 0 .1-.1.1-.2-.1-.1-.3-.2-.5-.3-.3.1-.6-.1-.8-.2-.3 0-.5.2-.7.4zm-41.8-.6h-.1c-.4.3-.7.6-.9 1-.1.2-.1.4.1.6h.2c.3-.5.6-1 .8-1.5l-.1-.1zm31 45.9c0 .2.1.3.3.3.2 0 .3-.1.4-.2.2-.2.4-.5.4-.8v-.1l-.2-.1c-.2.1-.5.3-.7.5-.1.2-.2.3-.2.4zm17.3-18c-.1-.2-.3-.2-.5-.1l-.8.6s0 .1-.1.2c0 .1.1.2.2.2s.3 0 .5-.1l.7-.8zm-51.1 3.9l.1.5c.2.2.4.3.5.5h.1c.1 0 .3 0 .4-.1v-.3c-.2-.2-.3-.4-.5-.5-.1-.1-.2-.1-.4-.2 0 0-.1 0-.2.1zm14.5-34.1c-.3.1-.6.1-.8.2-.1 0-.2.2-.3.3-.1.1-.1.3.1.4.3 0 .6 0 .8-.2.1-.2.2-.3.2-.7zm12.6 21.3c0-.2-.2-.2-.3-.2-.5.1-1 .1-1.5 0h-.1s-.1 0-.1.1c-.1.1-.1.1 0 .2l.4.2c.5-.2 1.1 0 1.6-.3zm-27.8 11.6v-.6000000000000001l-.2-.4c0-.1-.2-.1-.3 0 0 0-.1.1-.1.2 0 .4.2.8.3 1.2 0 0 0 .1.1.1h.2c-.1-.3-.1-.4 0-.5zm35.2-.2c.1.2.3.2.4.3h1.4c.1 0 .1-.1.1-.1l-1.4-.3c-.1 0-.3 0-.5.1zm5-.4l-.1.3c0 .2.1.3.3.4.2.1.4.1.6-.1l.1-.3c-.3-.3-.6-.3-.9-.3zm0-32c.2-.1.4-.1.5-.3v-.1s0-.1-.1-.1c-.3-.1-.6-.1-.8 0-.1 0-.3.1-.2.3.1.1.4.1.6.2zm-12.2-.2c-.1-.2-.2-.2-.4-.1-.3.1-.6.1-.8.2l-.2.1c.1.1.1.2.2.2.4 0 .8-.1 1.1-.2.1-.1.1-.2.1-.2zm9.1 27.5h-.30000000000000004s-.1 0-.1.1v.2c.4.3.6.3.9 0v-.2c-.1-.1-.2-.1-.5-.1zm-36.1 9.3c.2.3.3.6.4.8h.2c0-.3-.1-.6-.2-.9-.2-.1-.3-.1-.4.1zm34.2-7.1c0 .1 0 .1.1.2 0 0 .1.1.2.1.2 0 .5-.1.7-.2 0-.2-.2-.3-.4-.3s-.4.1-.6.2zm-23.8-23.9h-.6c-.3 0-.4.4-.2.6h.2c.1-.3.3-.4.6-.6zm5.1-3.2c0 .1-.1.2 0 .2.2.1.5.1.7.1.1-.2.3-.3.1-.5-.2 0-.5 0-.8.2zm17.2 20.8c-.2.3-.1.5.1.5s.4.1.6-.1c-.1-.3-.3-.3-.7-.4zm18.9-13.8c.1-.2.1-.3.1-.3-.2-.2-.4-.2-.6-.2-.1 0-.1 0-.2.1-.1 0 0 .2.1.3l.6.1zm-38.9 13.1c-.2-.1-.5-.1-.7 0-.1 0-.2.1-.2.2s.1.2.3.2c.3 0 .5-.1.6-.4zm16.1 15.9c-.1.2-.3.4-.1.8.2-.1.4-.2.5-.4 0-.2-.1-.3-.4-.4zm4.4-4.9c-.1 0-.1-.1 0 0-.2-.1-.4-.1-.6-.1-.1 0-.2.2-.2.2 0 .1.1.1.2.1.2.1.4 0 .6-.2zm1.1 6.6c-.3-.1-.4-.1-.6.2v.2c0 .1.2.1.3 0 .1-.1.3-.2.3-.4zm-20.2-19.5c-.2-.1-.5-.1-.7 0 0 0-.1.1-.1.2 0 0 0 .1.1.1.3 0 .4 0 .7-.3zm11.7-17.8c0-.1-.1-.3-.2-.2l-.4.2v.2s0 .1.1.1c.2 0 .4-.1.5-.3zm-2.6 18.2c.3.2.4.3.7.3.1 0 .2-.1.2-.2l-.1-.2c-.3 0-.5 0-.8.1zm2.4 5.9l-.2.1v.2c.1.1.3.2.5.2.1 0 .2-.1.1-.2-.1-.2-.2-.3-.4-.3zm15.7-21.9l.1-.2c0-.2-.1-.3-.3-.2-.1 0-.2.1-.2.2s.2.2.4.2zm-9.8 41.8c-.3 0-.4 0-.5.1 0 0-.1.1 0 .2 0 0 .1.1.2.1.2 0 .3-.1.4-.3l-.1-.1zm7-19c-.1-.1-.2-.2-.3-.2h-.5c-.1 0-.1.1-.1.1s0 .1.1.1c.2.1.5.1.8 0zm-4.3-3.9c.1.1.2.1.4.1.1 0 .1-.1.1-.1 0-.1-.1-.2-.2-.2s-.2 0-.3.2zm3.7-23.8c.1-.2.1-.3 0-.5 0-.1-.1-.1-.2 0 0 0-.1.1 0 .1 0 .1 0 .3.2.4zm-13.5 0c-.1 0-.2.1-.2.1s0 .1.1.2.3 0 .3-.1v-.1s-.1 0-.2-.1zm20.6 28.8c.1.1.2.2.3.2.1 0 .2-.1.2-.2s-.1-.2-.2-.2l-.3.2zm-25.6 3.6l-.1-.2c-.1 0-.3.1-.3.2v.1c.3.1.4.1.4-.1zm-4.2-12c0-.1-.1-.1-.1-.1-.1 0-.2.1-.2.2 0 0 0 .1.1.1l.2-.2zm10.4 2.5l-.2-.1s0 .1-.1.2l.2.1c.1 0 .1-.1.1-.2zm13.7-17.6l-.3-.1-.2.1.2.1c.1 0 .2 0 .3-.1zm-1.5-.1h.1s.1 0 .1-.1c0 0 0-.1-.1-.1h-.1c-.1 0-.2 0-.3.1 0 .1.1.1.3.1zm-25.8 2.2h-.2s0 .1.1.1c.1.1.1 0 .1-.1zm5.7-1.3l-.1-.1-.1.1h.1c0 .1.1.1.1 0zm23-3.8c-.1-.1-.2-.1-.2 0s0 .1.1.1l.1-.1zm-30.8 18.7c0-.2-.1-.2-.1-.1v.2l.1-.1zm20.3 1s-.1-.1-.2-.1c0 0-.1.1 0 .1l.1.1c.1.1.1 0 .1-.1zm-7.2-21.7c0-.1 0-.1-.1-.2 0 0-.1 0-.1.1v.1c.1.1.1.1.2 0zm-13 41.7c.1 0 .1-.1.1-.2 0 0-.1-.1-.1 0l-.1.1c-.1.1 0 .1.1.1zm22.1 6.5l-.1-.1s-.1.1 0 .1h.1zm6.6-16.6h-.2c0 .1 0 .1.1.1 0 0 .1 0 .1-.1zm-4.5 1.5l-.1.1s0 .1.1.1c0 0 .2-.1 0-.2zm15.5.1h.1v-.1h-.2l.1.1zm-.7 2.2c-.1-.1-.2-.1-.2 0v.1c.1 0 .2-.1.2-.1zm-15.5-3.4h.1-.1zm-26.4 12.9c-.1.1 0 .1 0 0zm23 0zm-10.3-24.3zm11.1.8c0-.1-.1-.1 0 0zm-17.6.7zm5.1.2zm3.9.1c-.1.1 0 .1 0 .1v-.1zm-2.9.2c-.1-.1-.1 0-.1 0h.1zm17.9.4zm-12.6 3.9zm3-27.5c-.1-.1-.1 0 0 0zm17.2 1.9zm-6.9.8zm-24.7.1zm-2.8 4.2zM20.7 40.4c-.3-.2-.6-.4-.8-.8v-.1l.1-.1h.1l.6.6c.1.2.1.3 0 .4zM23 35.1c-.3.1-.5.1-.8.1 0 0-.1 0-.1-.1v-.2c.4-.1.7 0 .9.2zM25.1 34.8c-.1.2-.4.2-.4.4 0 0-.1.1-.1 0-.1 0-.1-.1-.1-.1-.1-.2 0-.4.2-.4s.3 0 .4.1zM23.8 35.3l.3.2c-.1.2-.2.1-.3 0-.1-.1-.1-.1 0-.2zM22.3 33.8h.2c-.1.1-.1.1-.2 0zM37.4 35.1zM36.5 37.1c0-.2.1-.3.2-.5 0 .2 0 .4-.2.5z"/></g></svg>