<svg id="close-icon" x="0px" y="0px" width="12px" height="12.7px" viewBox="303.7 387 12 12.7" enable-background="new 303.7 387 12 12.7" >
  <path d="M312.8,397.3c-0.8-0.8-1.6-1.6-2.5-2.4c-0.5-0.5-0.9-0.5-1.4-0.1c-0.9,0.8-1.7,1.6-2.6,2.6
  c-0.4,0.4-0.8,0.9-1.3,1.2c-0.2,0.1-0.5,0.2-0.7,0c-0.1-0.2-0.2-0.5-0.2-0.7s0.1-0.4,0.2-0.6c0.3-0.5,0.7-1,1.1-1.4
  c0.5-0.7,1.3-1.4,2-2.1s0.6-1-0.1-1.6c-1.2-1-2.5-1.9-3.6-3c-0.1-0.1-0.1-0.3-0.1-0.4s0.2-0.2,0.3-0.2c0.1,0,0.3,0,0.4,0.1
  c0.7,0.3,1.4,0.5,1.9,1c0.7,0.5,1.4,1,2.1,1.5c0.5,0.4,0.9,0.4,1.4,0c1.1-0.9,2.1-1.8,3.2-2.8c0.4-0.4,0.8-0.8,1.3-1.2
  c0.2-0.2,0.4-0.2,0.6-0.2c0.2,0,0.4,0.4,0.4,0.6c-0.1,0.3-0.1,0.7-0.3,0.9c-0.4,0.5-0.9,1-1.4,1.5c-0.7,0.8-1.4,1.5-2.1,2.4
  c-0.4,0.4-0.4,0.8,0,1.2c0.2,0.3,0.5,0.6,0.8,0.9c1.3,1.3,2.2,2.9,3.2,4.4c0,0.1,0,0.1,0.1,0.2c0.1,0.2,0,0.5-0.2,0.5
  c-0.1,0-0.3,0-0.4-0.1C314.2,399,313.5,398.2,312.8,397.3L312.8,397.3z" />
</svg>