<svg id="sport-flicker" x="0px" y="0px" viewBox="-477 478.4 44 44.6" enable-background="new -477 478.4 44 44.6">
<g id="cattlebrand">
	<path fill="#E9EFFD" d="M-476.7,503.7c0,0,0.1-0.6,0.3-0.7c0.2-0.1,0.7-0.2,0.7-0.2s0.7,0,0.9,0.8s0.4,1.2,0.4,1.2s0.7,2.7,1,3.3
		c0.6,1,0.9,2.7,1.5,3.6c0.8,1.5,1.7,2.7,2.9,3.7c2.7,2.4,6.3,4.2,9.8,4.7c2.8,0.5,2,0.3,2,0.3l0.7,0.3l0.2,0.4c0,0-0.1,0.9,0,1.2
		c0.2,0.8-1.1,0.7-1.3,0.7c-0.3,0-3.8-0.2-9.3-3s-8.2-9.6-8.2-9.6s-1.7-4.2-1.8-5.5S-476.7,503.7-476.7,503.7z"/>
	<path fill="#E9EFFD" d="M-475.7,498.9l-0.5-0.2c0,0-0.5-0.7-0.6-0.8s-0.2-0.8-0.2-1c0,0,0.4-1.7,0.4-1.8s0.8-1.6,0.8-1.6
		s2.5-5.1,2.8-5.5c0.1-0.6,1.9-2.8,2.8-3.4c0.9-0.7,2-1,2-1s0.7-0.6,0.7-0.7s0.5-0.4,1.1-0.4c0.6-0.1,0.8,0.2,0.8,0.2s0.2,0.7,0.1,1
		c-0.2,0.2-1.6,1.6-2,2.2s-0.5,1.8-0.5,1.8l0.5,1.1c0,0,0.1,0.9,0.3,1.1c0.2,0.2,1.3,1.7,3.5,1.2c2.3-0.5,2.5-0.5,2.5-0.5l0.6,0.2
		c0,0,1.3,1.7,1.3,1.8s3.3,5.6,3.3,5.6l1.9,3.1l0.8,0.7l0.3-0.3l0.1-1.1l0.3-4l0.2-1.1v-0.4l1.6-0.9c0,0,2.1-1.6,2.3-2.4
		c0.2-0.8-0.3-2.5-0.3-2.5s-1.2-2-2-2.6s-0.1-1.7-0.1-1.7s2-0.4,2.8,0.1l4.6,2.5c0,0,1.2,1.5,1.6,2.8c0.4,1.4,0.4,3.7,0.3,3.8
		c-0.1,0.1-0.1,1.8-1.4,3.2c-1.3,1.5-2.1,2.2-2.1,2.2l0.1,3.5l0.2,2.9l-0.2,1.1v1.7c0,0-0.3,3.5-1.7,4.7s-3.5,3.2-5.3,3.7
		c-1.7,0.5-4.9,0.5-6.2,0c-1.3-0.5-3.9-2.4-3.9-2.4s-2.1-2.3-2.4-3.4c-0.3-1.3-0.8-2.9-0.8-3.2c0.1-0.4-0.2-2.4-0.2-2.4v-2.2
		c0,0,0-1.2-0.1-1.7s-0.2-2.2-0.1-2.3c0.1-0.2,0-0.9,0-1.1s-0.1-0.7,0-0.9c0.1-0.2,0.6-1.1,0.6-1.1s0.5-0.3,0.9-0.2
		c0.3,0.1,0.6,0,0.7,1.3s0.1,2.5,0.1,3.3s0.1,2.2,0.1,2.2l-0.1,0.5c0,0,0.2,1.9,0.2,3.2s0.4,1.8,0.4,2.1c0,0.2,0.3,1.2,0.4,1.4
		c0,0.1,0.5,2,0.9,2.3c0.4,0.4,2,1.5,2.5,1.6c0.5,0.1,2.9,1.1,5.5,0.9s3.7-1.6,3.7-1.6s1.9-2.6,2-3.9c0.1-1.4,0.4-2.6,0.4-2.6
		l0.4-4.1v-4.7c0,0,0.3-0.2,0.4-0.4c0.9-0.7,1.3-1.5,2-2.4c1.2-1.9,1-6-1.2-7.1c-1.5-0.7,0,0.7-0.5,2.8c0,0-0.3,1.9-1,2.7
		c-0.7,0.8-1.2,1.6-1.4,1.7c-0.1,0.1-0.8,0.5-1.1,0.9c-0.3,0.3-0.1,1.9-0.1,1.9s-0.2,2.3-0.2,2.6s-0.2,1.6-0.2,1.6v2.6v0.4l-0.1,0.7
		c0,0-0.2,2.6-0.2,2.8s0.2,1.1-0.1,1.1c-0.3,0-0.5,0.1-0.6,0.1c-0.1,0.1-0.8,0-0.9-0.2s-3.2-4.8-3.2-4.8s-2-3.6-2.1-3.9
		s-1.4-1.7-1.4-1.9c0-0.2-2.1-4.1-2.1-4.1l-0.3-0.8c0,0-0.4-0.5-0.7-0.5c-0.3,0-2,0.2-2.3,0.2s-2.8-0.5-3.5-1.1
		c-0.9-0.6-1.9-2-1.9-2.3s-0.7-1.2-0.7-1.2l-0.1-0.4c0,0-0.2-0.2-0.6,0.2c-0.4,0.4-2,3.1-2.3,4l-0.8,2.5l-0.6,2.1
		C-474.7,498-475,498.8-475.7,498.9z"/>
	<path fill="#E9EFFD" d="M-461.6,482.1c0,0-0.5-0.8-0.7-0.8s-0.2-0.8,0.1-0.9c0.3-0.2,1.8-1.3,1.8-1.3c0.7-0.1,3.8-0.6,4.6-0.6
		s1,0.1,1,0.1l0.8-0.2c0,0,3.2,0.3,4,0.8c1.3,0.4,2.5,0.9,3.5,1.5c1.5,0.9,3,1.4,4.4,2.3c1.9,1.2,3.4,2.7,4.9,4.3
		c0.7,0.8,1.6,1.8,2,2.8c0.3,0.8,0.5,1.8,1.1,2.5c0.3,0.3,0.6,2.7,0.6,2.8s0,2-0.3,2.4c-0.3,0.5-0.9,1.1-1.2,1
		c-0.3-0.1-0.8-0.7-1-0.7s-0.7-0.6-0.7-0.8s-0.3-1.2-0.2-1.4c0-0.2-0.3-0.3-0.3-0.6c-0.1-1-0.3-1.8-0.6-2.8
		c-0.3-1.1-0.8-2.2-1.5-3.1c-1.3-1.9-3.3-3.8-5.3-4.9c-2.3-1.4-4.8-2.2-7.5-2.7c-2.1-0.4-4.4-0.5-6.6-0.2
		C-458.9,481.5-461.6,482.1-461.6,482.1z"/>
	<path fill="#E9EFFD" d="M-436.1,504.1c0,0,0-0.7,0.1-0.8s0.3-0.7,0.3-0.7l0.2-0.7c0,0,0.8-0.4,1.3-0.3c0.5,0,1.2,0.8,1.2,1.2
		c0,0,0.3,3.2-0.3,4.7c-0.7,1.5-2.1,5.1-3.2,6.4s-5,4.9-5.2,5.1c-0.2,0.2-2.7,1.8-4.7,2.6c-2.1,0.8-3.9,1.3-4.3,1.2
		c-0.4,0-0.8-0.2-0.9-0.6c-0.1-0.4,0.1-0.6,0.1-0.6s0.1-1,0.5-1c0.4-0.1,1.3-0.7,1.5-0.7s2.4-0.7,2.7-0.9c1.9-1,4.3-2.8,5.3-3.9
		c0,0,1.8-1.9,1.9-2s0.5-0.6,0.5-0.6l0.6-1.7c0,0,0.7-1.1,0.8-1.4s1.4-3,1.5-3.4C-436.4,505.6-436.1,504.1-436.1,504.1z"/>
</g>
<g id="sport_logo">
	<g >
		<path fill="#FFFFFF" d="M-433.6,486c-0.2-0.1-0.3-0.2-0.6-0.2c-0.7,0.1-0.8,0.3-0.9,0.4c0,0-0.2,0.2-0.4,0.7
			c-0.8,1-2.8,3.2-4.3,3.8c0,0-0.8,0.2-1.7,0.3c-0.9,0.1-2,0.2-3.2,0.2h-1.1c-0.8-0.7-1.9-1-3.2-1c-0.7,0-1.5,0.1-2.1,0.2
			c-0.2,0.1-0.7,0.1-1,0.1c-1.3,0-3-0.4-4.6-0.6h-0.9c-1.1,0-2.1,0.2-2.8,0.7c-0.7,0.1-1.2,0.1-1.9,0.1c-1.5,0-2.8-0.2-4-0.3
			c-0.6-0.1-1.1-0.2-1.5-0.2c-0.3,0-0.7-0.2-0.7-0.2c-1.3-0.7-2.7-1.9-3.7-2.9c-0.6-0.7-1-1.1-1.2-1.6c-0.3-0.3-0.4-0.7-0.4-0.7
			c-0.1-0.1-0.2-0.4-0.9-0.4c-0.2,0-0.3,0-0.6,0.1c-0.6,0.2-0.7,0.8-0.7,1s0.1,0.4,0.1,0.4s0.6,1.5,1.3,3.1c0.8,1.7,1.9,3.6,3.2,4.6
			c0.7,0.6,1.9,1.1,3.7,1.8c-0.3,0.2-0.8,0.2-1.1,0.3c-0.4,0.1-0.9,0.2-1.2,0.2c-0.3,0-0.6,0.1-0.6,0.1l-0.9,0.1l0.2,0.9
			c0,0.1,0.1,0.8,0.6,1.7c-3.4,1.8-5.7,3.4-5.7,3.4l-1.6,1.1l1.9,0.4c0,0,0.2,0.1,0.8,0.2c1.5,0.3,4.7,1.5,6.7,3.1
			c3.5,2.8,4.4,5,6,7.5c3,4.6,7.8,6,7.8,6l-0.1-1.6V518c0-2.7,0.8-4,1.6-4.8c0.3-0.3,0.7-0.7,1-0.7c0.1-0.1,0.2-0.1,0.2-0.1h0.7
			c0.2,0,0.6,0,0.9,0.1h0.4c1.3,0,2.5-0.8,2.8-1.9c1-1.2,1.3-2.4,1.3-3.2c0-0.7-0.2-1.2-0.4-1.6c0-0.2-0.1-0.3-0.1-0.6
			c0-0.2,0-0.4,0.1-0.7c0.1-0.3,0.7-1.1,1.3-2.4c0.4,0.1,0.9,0.2,1.5,0.2h0.2c1.9,0,3.4-1,4.1-1.9c0.9-1,1.2-1.9,1.3-1.9l0.6-1.1
			h-1.3c-1.5,0-2.6-0.6-3.5-1.1c0.7-0.2,1.5-0.4,2-0.7c1.1-0.4,1.8-0.8,2.4-1.1c1.2-1,2.2-2.8,3-4.3c0.8-1.6,1.2-2.8,1.3-2.8
			c0-0.1,0.1-0.2,0.1-0.4C-433.2,486.6-433.2,486.2-433.6,486z"/>
		<path fill="#231F20" d="M-434.1,486.6c-0.2-0.1-0.2,0.1-0.2,0.1s-2.7,3.7-5,4.7c-0.6,0.2-3.7,0.8-6.7,0.6
			c-0.8-0.9-2.5-1.2-4.8-0.7c-1.7,0.3-4-0.2-5.8-0.4c-1.6-0.1-2.6,0.1-3.4,0.7c-3.5,0.4-8.1-0.4-8.6-0.8c-2.7-1.2-5.5-5.3-5.5-5.3
			s-0.2-0.2-0.4-0.1c-0.2,0.1-0.1,0.4-0.1,0.4s2.1,5.6,4.4,7.4c0.7,0.6,2.8,1.6,5.1,2.2c-1.6,1.5-4.8,1.8-4.8,1.8s0.2,1.1,0.8,2.2
			c-3.7,1.9-6.3,3.7-6.3,3.7s8.5,1.5,13.2,10c-0.3-1.7-0.1-2.8-0.1-2.8c1.2,5,4,7.6,7.1,9.1c-0.4-6.7,3.5-7.6,3.5-7.6
			c0.4-0.1,1.1-0.1,1.7,0c1.2,0.2,2.2-0.6,2.4-1.6c2.2-2.8,0.9-4,0.9-4s-0.2-1,0-1.9c0.2-0.8,1.1-1.7,1.7-3.1
			c0.4,0.2,1.1,0.3,1.9,0.3c3.2,0.1,4.9-3.4,4.9-3.4c-2.4,0-4.1-1.2-5.3-2.5c2.6-0.7,4.9-1.6,5.6-2.1c2-1.6,4.1-6.7,4.1-6.7
			S-434,486.8-434.1,486.6z"/>
		<path fill="#CF0A2C" d="M-448.5,497.2c0.1-0.2,0.2-0.4,0.2-0.4c0.7-0.7,1.8,0,1.8,0c-0.3-1-1.2-1.2-1.9-1.2
			c0.3-0.3,0.8-0.9,0.6-1.8c-0.2-0.7-0.9-1.1-2-1.1c0,0-1.6,0.3-3.5,0.1c-1.5-0.2-3.7-1.2-5.8,0c0.6,0.7,0,1.7-0.1,1.8
			c-1.9,3.9-6.5,3.8-6.5,3.8c1.2-0.6,2.1-1.3,2.6-1.9c-1.1,0.7-2.7,1.5-4.9,1.6c0,0,0.3,2.8,4,2.9c1,0,1.7-0.2,2.2-0.3
			c0.2-1.1,0.7-1.7,0.7-1.7s-0.1,3.6,3.8,6.2c0.1-1.3,0.7-2,0.7-2s-0.1,1.6,0.3,2.9s0.4,2.4,0.6,2.9c0.2,1.2,1.3,1.5,1.8,0.9
			c0,0-0.8-2.4,0.1-3.2c1-0.8,2.4-0.1,2.4-0.1s1.1,0.6,1.9,0.2c1-0.3,1.6-0.2,1.6-0.2s-0.7-1.1-0.8-2.2c-0.1-1.3,0.2-1.8-0.1-3
			c-0.7,0.3-1.2,0.4-1.2,0.4C-449,500.6-449,498.5-448.5,497.2z M-456.1,500.1c-0.2,0.1-0.4-0.1-0.4-0.1c-0.1,0-0.4-0.4-0.2-0.9
			c0.2,0.1,0.3,0.2,0.3,0.2c0-0.1-0.2-0.7-0.3-0.8c-0.2,0-0.3,0-0.4,0.1c-0.2,0.2-0.2,0.8,0.2,1.1c-0.3-0.1-0.7-0.2-0.9-0.6
			c-0.7-0.7-0.7-1.5-0.2-1.9c0.2-0.2,0.4-0.2,0.7-0.2c-0.6-0.7-1.2-0.7-1.2-0.7s1.7-1.1,2.6,1c0.6,1.2,1.1,3.5,2.9,4.1
			C-453.2,501.6-455.1,502.1-456.1,500.1z M-462.3,503.7c0.1,5.3,2.2,9.6,4.5,11.3c0.7-5.6-2.5-6-3.7-12.9c-2,1.1-4.3,1.5-6.4,1.3
			c1.6,1,3.1,2.4,4.6,4.1C-463.1,505.2-462.3,503.7-462.3,503.7z"/>
		<g>
			<path fill="#FFFFFF" d="M-460.4,492.7c-2.8,0.1-7.6-0.1-9.4-1.3c0,0,1.9,2.4,9.5,2.8C-459.8,493.9-459.8,493-460.4,492.7z
				 M-452.7,507.3c-0.2,0.1-0.4,0.4-0.4,0.7c0.1,0.3,0.3,0.6,0.7,0.6h0.1c0.3-0.1,0.7,0,0.8,0.2L-452.7,507.3z M-448,507.6l-1.2,1.1
				c0.2-0.1,0.4-0.2,0.8-0.1c0,0,0.1,0,0.1,0.1c0.2,0.1,0.6-0.1,0.7-0.3C-447.7,507.9-447.8,507.7-448,507.6z M-456.6,500
				c-0.1,0-0.4-0.4-0.2-0.9c0.2,0.1,0.3,0.2,0.3,0.2c0-0.1-0.2-0.7-0.3-0.8c-0.2,0-0.3,0-0.4,0.1c-0.2,0.2-0.2,0.8,0.2,1.1
				c0.2,0.2,0.6,0.2,0.8,0.2C-456.6,500.1-456.6,500-456.6,500z"/>
		</g>
	</g>
</g>
</svg>
