<?xml version="1.0" encoding="utf-8"?>
<!-- Generator: Adobe Illustrator 18.1.1, SVG Export Plug-In . SVG Version: 6.00 Build 0)  -->
<!DOCTYPE svg PUBLIC "-//W3C//DTD SVG 1.1//EN" "http://www.w3.org/Graphics/SVG/1.1/DTD/svg11.dtd">
<svg version="1.1" id="Layer_1" xmlns="http://www.w3.org/2000/svg" xmlns:xlink="http://www.w3.org/1999/xlink" x="0px" y="0px"
	 width="32px" height="32px" viewBox="-289 381 32 32" enable-background="new -289 381 32 32" xml:space="preserve">
<g>
	<g>
		<path fill="#FFFFFF" d="M-269.4,397l11.9-11.9c0.7-0.7,0.7-1.7,0-2.4l-1.2-1.2c-0.7-0.7-1.7-0.7-2.4,0l-11.9,11.9l-11.9-11.9
			c-0.7-0.7-1.7-0.7-2.4,0l-1.2,1.2c-0.7,0.7-0.7,1.7,0,2.4l11.9,11.9l-11.9,11.9c-0.7,0.7-0.7,1.7,0,2.4l1.2,1.2
			c0.7,0.7,1.7,0.7,2.4,0l11.9-11.9l11.9,11.9c0.7,0.7,1.7,0.7,2.4,0l1.2-1.2c0.7-0.7,0.7-1.7,0-2.4L-269.4,397z"/>
	</g>
</g>
</svg>
