<?xml version="1.0" encoding="utf-8"?>
<!DOCTYPE svg PUBLIC "-//W3C//DTD SVG 1.1//EN" "http://www.w3.org/Graphics/SVG/1.1/DTD/svg11.dtd">
<svg version="1.1" id="Layer_1" xmlns="http://www.w3.org/2000/svg" xmlns:xlink="http://www.w3.org/1999/xlink" x="0px" y="0px"
	 width="612px" height="110.3px" viewBox="-0.1 340.6 612 110.3" enable-background="new -0.1 340.6 612 110.3"
	 xml:space="preserve">
<g>
	<path fill="#FFFFFF" d="M545.2,374.9c0,0.2,0.1,0.4,0.1,0.6c1.2-0.1,2.4-0.7,3.6-0.2c-0.7,0.2-1.5,0.4-2.1,0.6
		c-0.6,0.2-1.6,0.2-1.7,1.4c0.9-0.2,1.6-0.6,2.5-0.1c0.1,1.1-0.9,0.7-1.5,0.9c0.6,0.9,0.6,1.4-0.2,1.7c-2.5,1.2-5.1,2.5-7.7,3.5
		c-1.9,0.7-4,1.4-6,2.1c-0.2,3.5-0.4,6.9-0.6,10.4c0.2,0,0.6,0.2,0.9,0.1c2.2-0.2,4.6-0.5,6.7-1c0.7-0.1,1.2,0,2,0
		c0.6,0,1.2-0.1,2.2-0.2c-1.4,1-6.3,2-11.7,2.5c-0.1,0.9-0.1,0.9,0.9,0.9l0,0c-0.4,0.5-1.4,0.1-1.2,1.1c-0.4-0.4-0.6-0.6-0.7-0.7
		c0.1-0.2,0.4-0.5,0.7-1.1c-0.7,0-1.2,0-1.6,0.1c-0.1,0.6-0.1,1-0.2,1.5c0,0.4,0,0.9,0,1.5c1.6-0.1,3.1-0.2,4.6-0.5s3-0.7,4.5-0.9
		c1.4-0.2,2.9-0.2,4.2-0.5c0.2,0,0.4,0,0.7,0.1c-0.2,0.2-0.4,0.4-0.5,0.5c2,0,3.8,0,6.1,0c0.2-1.1,0.4-2.2,0.6-3.2
		c-0.9-0.6-1.6,0.1-2.6-0.1c0.7-0.2,1.4-0.4,1.9-0.5c0.6,0,1-0.2,1-0.9c0-0.7,0.1-1.5,0.1-2.4c-1.2,0.1-2.4,0.1-3.5,0.4
		c-0.9,0.1-1.6,0.2-2.5,0.4s-1.6,0.4-2.5,0.5c-0.7,0.1-1.6,0.2-2.4,0.4c-0.1,0-0.2-0.1-0.6-0.4c4-0.9,7.7-1.6,11.5-1.7
		c0-0.2,0.1-0.5,0.2-0.9c0.6-3.3,1.4-6.7,2-10c0.5-2.5,1.1-5,1.7-7.6c0-0.2,0-0.6,0.1-0.6c1-0.4,0.6-1,0.6-1.7s0.2-1.5,0.4-2.1
		c0.2,0,0.4,0,0.7-0.1c0-0.6,0.5-1,0.1-1.7c-0.1-0.1,0.1-0.6,0.2-0.9c0.4-0.6,0.6-1.2,0.4-2c-0.1-0.2,0-0.5,0-0.7
		c0.2-1.1,0.4-2.2,0-3.5c-0.2-0.9-0.1-1.7-0.1-2.7c0.2,0,0.5-0.1,0.9-0.1c-0.1-0.5-0.4-0.7-0.5-1.1l0.1-0.1c0.7,0-0.2-0.7,0.5-0.9
		c0.6-0.1,0.2-0.6,0.2-0.9c0-0.4,0-0.7,0.1-1c0.2-0.7,0.4-0.7,0.1-1.6c1,0,0.6,0.9,1.1,1.4c1.2-0.4,1.1-1.7,1.7-2.9
		c0.9,1.4-0.1,2.9,0.6,4.3c0.2-0.2,0.4-0.4,0.4-0.5c0-0.4-0.1-0.7,0.5-0.6c0-0.2,0-0.5,0.1-0.6c0-0.1,0.4,0.1,0.5,0
		c0.2-0.1,0.4-0.4,0.4-0.6c0.1-0.5,0-1.1,0-1.7c0-0.5,0-0.9-0.1-1.5c0.5,0.2,0.7,0.5,1.2,0.7c-0.4,2.1-0.5,4.3,0.4,6.4
		c0.1,0,0.2,0,0.2,0c0-0.6,0-1.2-0.1-2.1c0.6,1.5,0.5,2.9,0.7,4.2c0.9-0.1,0.7-0.9,1.1-1.2h0.1v0.1c0,0.1,0,0.1,0.1,0.2
		c0.1-0.6,0.2-1.2,0.5-1.9c0.4,0.4,0.5,0.7,0.5,1.2c0,1.2,0,2.6-0.1,3.8c0,0.7,0.1,1.2,0.6,1.7c1.6,1.7,3.2,3.3,4.6,5.2
		c1.1,1.5,2,3.1,3.3,4.5c0.5,0.5,1,1,1.4,1.5c0.5,0.5,1,1,1.7,1.6c0.4,0,0.9-0.1,1.1-0.9c0.1-0.2,0.4-0.4,0.6-0.6
		c0.7-0.7,1.6-1.5,2.2-2.4c0.4-0.5,0.6-0.4,1-0.5c0.4-0.7,0.6-1.5,1-2.2c0.1,0,0.1,0,0.2,0c0,0.2,0,0.4,0,0.6c0,0,0.1,0,0.1,0.1
		c0.1-0.2,0.1-0.6,0.4-0.9c0.2-0.2,0.6-0.4,1-0.5c-0.2-0.1-0.4-0.2-0.5-0.4c0.7-1.5,2.2-2.5,2.2-4.2c0.1,0.1,0.4,0.2,0.6,0.6
		c0-0.4,0.1-0.6,0-0.7c-0.4-2.9-0.7-5.7-1.2-8.6c-0.1-0.6,0-1.1,0.9-1.2c-0.2-0.6-0.6-1.1,0.4-1.4c0.1,0.4,0.4,0.6,0.5,1
		c0.1,0.4,0.2,0.7,0.4,1.2c0.1,0.2,0.1,0.6,0.2,0.6c0.4,0.2,0.5,0,0.6-0.4c0,0,0.4,0,0.4-0.1c-0.1-1.6-0.2-3.2-0.4-4.8l0,0
		c0.6,0.2,0.9,0.7,0.9,1.4c0.1,1.1,0.4,2.2,1.1,3.2c0.4-0.4,0.4-0.7,0.2-1.1c-0.2-0.9-0.2-0.9,0.5-1.9c0.1,0.2,0.2,0.4,0.5,0.6
		c0.6-0.7,0-1.5-0.1-2.2l0,0c0.1-0.1,0.4-0.2,0.4-0.2c-0.1-0.7-0.4-1.6-0.5-2.4c-0.1-0.5-0.4-1.1,0.6-1.1c0.1,0.9,0.2,1.6,0.4,2.5
		c0.1,0.7,0.2,1.6,0.5,2.4c0.2,1,0.5,1.9,0.7,2.9v0.1c1.4,1,1.2,2.7,2.1,4c0,0,0.1,0,0.2,0c0-1.9-0.2-3.7-1.1-5.5
		c0.1-0.1,0.4-0.1,0.5-0.4c0.1-0.1,0.1-0.2,0.2-0.5c0.1,0.1,0.2,0.2,0.2,0.2c0.2,1.1,0.4,2.1,0.6,3.2c0.5,2.6,0.9,5.2,1.4,7.8
		c0,0.2,0.1,0.4,0.2,0.6c0.2,0.7,0.6,1.4,0.9,2.1c0,0.1,0,0.2,0,0.2c-0.7,0.6-0.4,1.4-0.1,2.1c0.2,1.2,0.6,2.5,1,3.7
		c0.2,1,0.5,2.1,0.7,3.1c0.7,2.5,1.6,5,2.2,7.4c0.4,1.7,1.2,3.2,1.6,4.8c0.9,3.2,1.6,6.4,2.6,9.7c0.9,2.9,1.4,5.8,1.9,8.8
		c0,0.2,0,0.5-0.2,0.7c-0.2-1.1-0.5-2.1-0.7-3.2c-0.7-3.3-1.4-6.7-2.5-9.9c-0.7-2.2-1.4-4.6-2.1-6.9c-0.4-1.2-0.9-2.5-1.2-3.6
		c-0.5-1.4-1-2.7-1.4-4.1c-0.9-3-1.6-6.1-2.4-9.1c-0.2-0.7-0.2-1.6-0.5-2.4c-0.4,0.6-0.5,1.1-0.4,1.9c0.7,4.7,1.9,9.3,3.6,13.8
		c0.5,1.5,1,3,1.6,4.5c0,0.1,0.1,0.2,0.1,0.4c-0.4,2.2,1,4.2,1.4,6.3c0.2,1.9,1,3.6,1.7,5.2c0.5,1.2,0.7,2.6,0.9,4
		c0.2,1.7,0.4,3.6,0.6,5.5c0,0.6,0.2,1.2-0.6,2c-0.1-1-0.2-1.9-0.4-2.6c-0.1-0.7-0.4-1.6-0.6-2.4c-0.1,0-0.2,0-0.4,0
		c0.1,0.4,0.1,0.9,0.2,1.2c0.2,1.6,0.6,3.1,0.5,4.7c-0.1,0.7-0.4,1.2-1,1.5c-0.6,0.2-1-0.2-1.4-0.7c0,0-0.1-0.1-0.2-0.1
		c-0.1,0.4-0.2,0.7-0.4,1.2c-0.6-0.6-1.1-1.2-2.1-1.1c-0.1,0-0.4-0.4-0.5-0.6c-0.2-0.7-0.5-1.5-0.9-2.6c-0.1,0.5-0.2,0.9-0.4,1.1
		l-0.1-0.1c-0.2-0.7-0.5-1.5-0.7-2.2c-0.4-1.6-0.7-3.2-1.2-5c-0.2-0.9-0.6-1.6-0.9-2.5c-0.2-0.7-0.2-1.5-0.5-2.2
		c-0.4-1.6-0.9-3.2-1.6-4.7c-0.7-1.6-1.1-3.3-1.6-5.1c-0.7-2.6-1.6-5.1-2.4-7.7c0-0.1-0.1-0.1-0.2-0.2c-0.6,0.6-1.1,1.2-1.7,1.9
		c-2,2.5-4.5,4.5-6.8,6.4c-0.2,0.1-0.5,0.4-0.6,0.6c-0.1,0.2-0.4,0.2-0.5,0.2c-0.1,0-0.2,0.5-0.4,0.7c0,0.1,0.1,0.4,0.1,0.5
		c0,0.1,0,0.2-0.1,0.5c-0.2-0.1-0.5-0.4-0.9-0.5c-0.1,0.4-0.2,0.6-0.4,1c-0.9,0-1.7-0.1-2.4,0.7c-0.9-0.9-2-1.4-2.5-2.6
		c-0.1-0.2-0.4-0.4-0.6-0.6c-0.5-0.4-1.2-0.7-1-1.6c0-0.1-0.2-0.4-0.4-0.5c-1-1.1-2-2.1-2.9-3.2c-1.7-2.4-3.7-4.6-5.6-6.7
		c-0.5-0.5-1-1.1-1.5-1.6c-0.9,1.5-1,3.1-1.4,4.6c-0.1,0.7-0.5,1.5-0.7,2.4c-0.4,1.4-0.6,2.9-0.9,4.2c-0.1,0.6-0.2,1.2-0.4,1.7
		c-0.7,4.5-1.6,8.8-2.4,13.3c-0.2,1.9-0.6,3.7-0.4,5.7c0,0.4-0.2,0.9-0.4,1.5c-0.9-3.1,0-5.8,0-8.7c-0.2,1.7-0.5,3.3-0.7,5.1
		c0,0.4-0.2,0.7-0.2,1.1c-0.1,0.6-0.4,1.4-0.1,1.9c0.4,1.1-0.4,1.9-0.5,2.9c-0.7,0.2-0.9,1.4-1.9,1.4c-0.2,0-0.5,0.2-0.9,0.4
		c-0.5,0.2-0.9,0.5-1.5,0.2c-0.2-0.1-0.5,0.1-0.7,0.2c-0.4-0.6-0.7-1.2-1.4-1.7c-0.7-0.7-0.9-1.5-0.9-2.5c0-0.5,0.2-1-0.4-1.6
		c0,0.6-0.1,1.1-0.1,1.6c-0.7-1.6-1-3.2-0.7-5.1c-0.9,2-2.7,1.7-4.2,2.2c-2.5,0.7-5.2,1.1-7.8,1.6c-1,0.2-2.1,0.2-3.1,0.2
		c-2.4,0.1-4.6,0.2-6.9,0.1c-0.6,0-1.4,0.2-2,0.4c-0.7-1.1-1.6-2.1-2.4-3.1c-0.9-1-2.1-1.5-3.1-2.9c0.9,0.1,1.5,0.1,2,0.1
		c0-0.1,0-0.1,0.1-0.2c-0.4-0.1-0.7-0.2-1.1-0.5c-1.4-0.6-1.5-1.2-0.5-2.4c0.1-0.1,0.2-0.2,0.5-0.5c0.2,0.2,0.4,0.5,0.6,0.7
		c0.2-0.5,0.9-0.6,0.2-1.2c-0.1-0.1,0-0.5,0-0.7c-0.1-0.9-0.2-1.7-0.4-2.5c0-0.1-0.1-0.4,0-0.5c0.5-0.6,0.4-1.4,0.4-2
		c0.1-1.2,0.1-2.6,0.2-3.8c0-0.5,0-1-0.1-1.4c-1.7-0.7-3-1.9-3.8-3.7c0.4-0.4,0.7-0.6,1.2-1.1c-0.4-0.4-0.9-0.7-1.4-1.1
		c0.1-0.4,0.4-0.7,0.6-1.1c-0.2,0-0.6,0-1-0.1c0.2-0.4,0.6-0.7,1-1.2c0.4,0.7,1,0.7,1.6,0.4c0.7-0.4,1.4-0.1,2.1,0.6
		c0-1.2,0.1-2.1,0.1-3.1c-1.6,0.2-3-0.1-4.5-0.6c0.5-0.1,0.9-0.2,1.5-0.5c0.9,0.5,1.6,0.4,3.1-0.4c0-1.4,0-2.7,0.1-4.2
		c0-0.1,0-0.4-0.1-0.5c-0.9-0.5-0.4-1.1-0.4-1.9c-1.5,0-2.5-0.6-2.6-2.2c0-0.4,0-0.4,0.5-0.7c0.4,0.4,0.4,1.4,1.5,0.9
		c-0.6-0.6-1.1-1.2-1.7-1.9c0.6-0.1,1.2-0.2,1.9-0.4c-0.9-0.4-1.7-0.1-2.4-0.7c1,0,2.1-0.1,3.3-0.2c-0.1-0.7-0.2-1.2-0.4-1.7
		c-0.7-0.1-1.4-0.1-1.7-0.4c-0.2-0.1-0.2-0.7-0.5-1.2c1-0.2,1.7-0.7,2.4-1.4s1.4-1.1,2-1.7c0.1,0.2,0.4,0.5,0.6,0.9
		c0.6-0.6,0.1-1.2,0.1-1.7c0-0.6-0.2-1.1-0.4-1.9c0.1-0.2,0.4-0.5,0.6-1c0.2,1.4,0.5,2.7,0.7,4c1.1,0.4,1.9-0.5,2.9-0.4
		c0-1.7-0.9-3.5,0-5.2c0.1,1.6,0.4,3.2,0.5,5c0.5-0.1,0.9-0.1,1.2-0.4c1.7-1.1,3.7-1.1,5.6-1.4c1.7-0.2,3.3-0.4,5.1-0.5
		c-0.4,0.1-0.6,0.2-1,0.2c0.7,0.4,1.6,0.4,2.4,1.1c-3.5,0.4-6.8,0.6-10.3,1c0.1,0.5,0.2,1,0.5,1.7c1.2-0.2,2.6-0.5,4.1-0.7
		c-0.6,0.7-1.4,0.6-2,0.9c-0.6,0.2-1.2,0.4-2,0.5c0.1,0.7,0.2,1.4,0.2,2c3.1-0.2,6.1-0.4,9.2-0.6c-0.1,0.2-0.2,0.4-0.5,0.7
		c0.6,0,1.2-0.1,1.7,0c0.5,0.1,0.9,0.6,1.4,1c0.1-0.2,0.2-0.6,0.4-0.9c1.1-0.1,2.4-0.2,3.5-0.5c0,0.1,0,0.1,0,0.2
		c-0.4,0-0.6,0.1-1,0.1c0.1,0.4,0.4,0.7,0.5,1.1c-0.5,0.2-0.9,0.4-1.4,0.6c0.7,0.9,1.9,0.2,2.7,0.9c-0.7,0-1.5,0-2.2,0
		c0.6,1,2.2,0.1,2.4,1.5c-1.4,0.6-2.7,1.1-4.2,1.7c0.6,0.7,1.7,0.1,2,1.1c-0.9,0.1-1.6,0.2-2.4,0.4c-3,0.2-5.6,1.4-8.3,2.4
		c-0.9,0.2-1.7,0.5-2.5,0.7c-0.4,0.1-0.7,0.6-1,0.9c-0.1,0.1,0,0.5,0.1,0.6c0.1,0.1,0.4,0.1,0.6,0.1c0.7-0.1,1.4-0.4,2.1-0.6l0,0
		c-0.4,0.9-1.2,0.7-1.9,1c-0.5,0.2-1,0.5-1,1c0,0.6,0,1.2,0.7,1.6c-0.2,0.2-0.4,0.5-0.6,0.7c0,0.1,0.1,0.1,0.1,0.2
		c1.5-0.5,2.9-1,4.3-1.5c0-0.1,0-0.1,0-0.2c-0.7,0.1-1.4,0.1-2.1,0.2l0,0c1.1-0.6,2.1-1.4,3.2-2c0.2-0.1,0.5,0,0.7,0
		c0.1,0.2,0.2,0.5,0.2,0.7c-0.4,0.1-0.7,0.4-1.1,0.5c0,0.1,0,0.1,0,0.2c0.2,0,0.6,0.1,0.9,0.1c0,0.2,0.1,0.4,0.1,0.6
		c0.4-0.1,0.7-0.2,1.2-0.4c0.5,0.7,1.1,0.6,1.9,0.4C543.3,375.6,544.3,375.2,545.2,374.9L545.2,374.9z M526.8,358.7
		c0.2-0.1,0.5-0.2,1-0.5c-1.9-0.1-1.9-0.1-2.4,0.1C525.7,359.1,526.3,358.9,526.8,358.7c-0.4,0.1-0.7,0.4-1,0.5
		C526.2,359.4,526.8,359.6,526.8,358.7z M569.8,364.3c0.9,1.9,2.6,3.1,4,4.6c-0.4-0.7-0.7-1.4-1.4-2
		C571.7,366.1,570.7,365.2,569.8,364.3c0-0.7-0.5-1-1.1-1.2C569.1,363.6,569.5,363.9,569.8,364.3z M531.3,393.8
		c0-2.7,0.4-5.3-0.2-7.9c-1,0.2-1,0.2-1.1,1.1c0,1.2,0,2.6-0.1,3.8c0,1,0,1.9,0,2.9c0,0.1,0.1,0.2,0.2,0.4
		C530.4,394.1,530.8,394,531.3,393.8z M538.4,369.2c0-0.1,0-0.1-0.1-0.2c-1.4,0.2-2.9,0.4-4.2,0.6c-1.2,0.2-1.2,0.4-1,1.7
		C534.8,370.6,536.5,369.9,538.4,369.2z M531.4,358.7c-0.1-0.6-0.2-1.1-0.4-1.5c-0.7,0-1.4,0.1-1.9,0.1c-0.1,0.6-0.2,1.1-0.4,1.7
		C529.5,359,530.4,358.9,531.4,358.7z M529.7,361.6c0.7-0.1,1.5-0.2,2.2-0.4c-0.2-0.7-0.7-1.1-0.4-2c-0.9,0.2-1.5,0.4-2,0.5
		C529.7,360.5,529.7,361,529.7,361.6z M529.9,370.8c0.4,0.5,0.7,0.9,1,1.2c1.1-0.5,1.1-0.5,0.9-2.1
		C531,370.1,530.5,370.4,529.9,370.8z M531.5,374.7c-1.4,0.4-1.5,0.9-0.7,2.1C531.4,376.2,532.3,375.9,531.5,374.7z M530.7,374.2
		c0.4-0.2,0.7-0.4,1.1-0.6c0-0.5,0-0.9,0-1.2c-1-0.2-1.1,0.6-1.6,1C530.3,373.7,530.4,374,530.7,374.2z M529.8,396.1
		c0.5,0,0.9,0,1.2-0.1c0-0.5,0-0.9,0-1.4c-0.5,0.1-0.9,0.1-1.2,0.2C529.8,395.2,529.8,395.4,529.8,396.1z M522.4,363.3
		c0.4-0.7,0.4-1.4,0-1.9c-0.1-0.1-0.4,0-0.7,0C522,362.2,522.1,362.6,522.4,363.3z M528.7,359.9c-0.1,0.7-0.2,1.2,0.4,1.9
		C529.2,360.6,529.2,360.6,528.7,359.9z M570.3,366.1c-0.1,0.1-0.1,0.1-0.2,0.2c0.5,0.7,1,1.4,1.7,1.9c0.1-0.1,0.1-0.1,0.2-0.2
		C571.5,367.3,570.8,366.7,570.3,366.1z M572.7,368.8c-0.1,0.1-0.1,0.1-0.2,0.2c0.5,0.5,1,1,1.5,1.6c0.1-0.1,0.1-0.1,0.2-0.2
		C573.7,369.8,573.2,369.3,572.7,368.8z M568.4,363.3c0,1,0.5,1.5,1.1,2c0.1,0,0.1-0.1,0.2-0.1C569.2,364.4,568.7,363.9,568.4,363.3
		z M559.7,395.2C559.7,395.2,559.8,395.2,559.7,395.2c0.1-0.5,0.2-1.1,0.2-1.6h-0.1C559.8,394.1,559.7,394.7,559.7,395.2z
		 M576.2,371.9c0.1-0.7-0.2-1-0.9-1.1C575.5,371.1,575.8,371.5,576.2,371.9z M531.7,377.6c0-0.1,0-0.1,0-0.2c-0.2,0-0.5,0-0.7,0.1
		c0,0-0.1,0.2-0.1,0.5C531,377.8,531.3,377.7,531.7,377.6z M595.4,352.9c-0.1,0.4-0.4,0.7,0.4,1.2
		C595.6,353.5,595.5,353.3,595.4,352.9z M559.4,396.9C559.4,396.9,559.3,396.9,559.4,396.9c-0.1,0.4-0.1,0.7-0.1,1.1l0,0
		C559.3,397.7,559.4,397.3,559.4,396.9z M526.3,360.2c-0.1,0-0.2,0-0.4,0c0,0.2,0.1,0.5,0.1,0.7c0.1,0,0.1,0,0.2,0
		C526.3,360.7,526.3,360.5,526.3,360.2z M567.6,358.1h0.1c0-0.1,0-0.4,0-0.5l0,0C567.6,357.8,567.6,357.9,567.6,358.1z M562.9,354.3
		h0.1c0-0.2,0-0.6,0-0.9c-0.1,0-0.1,0-0.2,0C562.9,353.7,562.9,354,562.9,354.3z"/>
	<path fill="#FFFFFF" d="M24.3,410.6c0.7-0.4,0.4-1,0.4-1.5c-1.6-0.5-1.9-0.7-1.1-1.6c0,0.2,0,0.5,0.1,0.7c0.4-0.1,0.6-0.4,0.9-0.5
		c-0.1-0.6-0.5-0.9-1-1c-1.2-0.1-2.5-0.2-3.7-0.4c-1.1-0.1-2.2-0.5-3.1-1.4c0.7-0.5,1.6,0.4,2.2-0.5c-0.4-0.2-0.6-0.4-1.1-0.6
		c0.7-0.1,1.4-0.1,2-0.2c0.1-0.6-0.2-0.7-0.5-0.7c-1-0.2-2-0.4-2.9-0.6c-0.6-0.1-1.2-0.5-1.9-0.7c-1-0.2-2.1-0.4-3.2-0.7
		c0.4,0,0.7,0,1.1,0c0.2,0,0.7-0.1,0.7-0.4c0.2-1,1-1,1.7-1c1.1,0,2.1,0.1,3.2,0.1c0.6,0,1.2,0,1.2-0.9c1,0,2,0,3.1,0
		c0.1-0.5,0.2-1,0.2-1.6c0.2-0.1,0.6-0.2,1.1-0.4c0,0,0-0.1,0-0.2c0.1-0.5,0.2-0.9,0.5-1.4c0.4-1,0.1-1.5-1-1.5
		c-2.5,0-5,0.1-7.4,0.1c-2,0-4-0.2-6-0.5c-0.9-0.1-1.7-0.6-2.5-0.9c-0.6-0.2-1.2-0.5-1.9-0.9c-0.6-0.4-1-0.9-1.7-1
		c-0.5,0-0.9-0.6-1.2-1c0.1-0.9,1-0.4,1.4-0.6c0.1-0.1,0.1-0.2,0.1-0.2c0-0.1-1.4-1.5-1.5-1.7c-0.2-0.2-0.2-0.5-0.5-0.9
		c-0.6-0.1-1.4-0.4-2.4-0.7c0.7-0.4,1.1-0.7,1.7-0.7c1.5,0.2,1.7,0,2-1.2c0.6-0.2,1.1-0.5,1.7-0.6c0.4-0.1,0.6-0.1,1-0.1
		c3.2,0,6.4,0,9.8-0.1c2.9-0.1,5.6-0.4,8.4-0.5c0.6,0,1-0.7,1.6-0.5c0,0,0.2-0.4,0.2-0.5c0.1-0.9,0.4-1.7,0.5-2.5
		c0-0.2-0.2-0.5-0.4-0.7c1.2-1.1,1.4-2.6,1.7-4.2c0.4-1.7,0.9-3.5,1.4-5.2c0.1-0.5,0.6-0.4,0.9-0.6c0.2-0.5,0.5-1.1,0.7-1.7
		c0.4-0.9,0.7-1.6,1.2-2.4c-0.1,1.2-1.1,2.4,0.1,3.7c0.4-0.4,0.7-0.7,1.1-1.2c0,0,0.2,0.1,0.4,0c1.2-0.6,2.1-0.2,3.1,0.6
		c0.2,0.2,0.7,0.1,1.4,0.2c0,1,0.1,2.1,0.1,3.3c0.1-0.2,0.2-0.5,0.4-0.7c0.5-1.4,1.6-1.6,2.7-0.6c0.6,0.5,1.2,0.7,2,1.2
		c-0.2,0.6-0.5,1.4-0.9,2c-0.1,0.1-0.1,0.4-0.2,0.4c-1.1,0.7-1.5,2-1.7,3.2c-0.1,0.5-0.4,0.9-0.5,1.2c-0.5,1-0.9,2-1,3.2
		c1.1,0.1,2.2,0,3.1-0.5c1-0.5,2-0.5,3-0.7c1-0.2,1.9-0.5,2.9-0.7c0.5-0.1,0.5-0.5,0.5-0.7c0-0.4-0.2-0.5-0.6-0.2l0,0
		c0.7-1,1.1-2.1,1.2-3.3c0.1-0.7,0.5-1.5,0.7-2.2c0.2-0.7,0.5-1.6,0.7-2.4c0-0.1,0.1-0.4,0.1-0.5c-0.1-1.2,0.1-2.7,0.6-3.7
		c0,0,0.1-0.1,0.4-0.1c-0.4,1-0.6,1.9-0.4,2.9c0.1-0.2,0.2-0.4,0.2-0.5c0-0.9,0.7-1.5,0.9-2.2c0.2-1.4,1.2-2.5,0.7-4
		c0-0.1,0.1-0.4,0.2-0.6c0.2-0.5,0.4-0.9,0.6-1.4c0-0.1,0.1-0.2,0.2-0.2c1-0.1,1.4-1,1.9-1.6c0.5-0.6,1.1-0.9,1.9-1
		c0.4,0.6,0.7,1.1,0.9,1.7c0.1,0.5,0,1,0,1.6c0.6,0.6,0.9-0.4,1.5-0.5c0.9,1.2,1.1,2.6,0.9,4.1c-0.4,1.6-0.5,3.2-1.5,4.6
		c-0.2,0.4-0.4,0.9-0.5,1.4c0,0.1,0,0.2-0.1,0.4c-1.4,1-1.5,2.5-2,4c-0.4,0.9-0.6,1.9-0.7,2.7c0,0.2,0,0.4-0.1,0.9
		c1.5-0.4,2.7-0.9,4.1-1.2c1.7-0.5,3.5-1,5.2-1.6c0.4-0.1,0.6-0.1,0.9,0.4c-0.6,0.4-1.2,0.7-2,1.1c0.9,0,1.5-0.2,2.2,0.1
		c0.5,0.4,1.2,0.4,1.4,1.2c1.2,0.6,1,1.7,1,2.7c0,0.6,0.4,1.4,0.5,2c-0.4,0.2-0.7,0.4-1.2,0.6c0,1-0.7,1.5-1.5,2.1
		c-2.2,1.7-4.8,2.4-7.4,3.3c-1,0.4-2,0.6-3,1c-0.2,0.1-0.6,0.5-0.6,0.9c-0.1,1.4-0.1,2.9-0.1,4.2c1.4,0.4,2.6-0.1,3.7-0.5
		c2.5-0.5,5-1.1,7.4-1.7c0.9-0.2,1.7-0.4,2.6-0.5c1-0.1,1.1-0.1,1.4,1c0,0.1,0.2,0.2,0.5,0.4c-0.5,0.1-0.7,0.2-1.1,0.4
		c0.5,0.5,0.9,0.9,1.4,1.5c0,0,0.4,0.1,0.6,0.2c1.1,0.4,1.1,0.5,1.1,1.7c0,0.4,0,0.7,0,1c0.1,0.6,0.2,1.2,0.4,1.9
		c-0.9,0.2-1.4,0.5-1.7,1.2c-0.1,0.4-0.5,0.6-0.9,0.7c-2.4,1.1-4.8,2-7.3,2.4c-1.9,0.4-3.8,0.9-5.7,1.4c-0.7,0.1-1.4,0.4-2.1,0.5
		c0,0.7-0.1,1.5-0.1,2.1c0,1.1,0.2,2.2-0.5,3.3c-0.1,0.1-0.1,0.4-0.1,0.5c0.4,1.6-0.4,3.1-0.2,4.7c0,0.6-0.1,1.1-0.7,1.5
		c-0.1,0.1-0.4,0.2-0.4,0.5c0,0.7-0.6,1-1.2,1.5c-0.2-1.4,0.5-2.9-0.6-4.2c-0.1,0.9-0.2,1.5-0.4,2.2c-0.5-0.1-0.5-0.1-0.1-1
		c-0.9-0.1-1.4-0.7-1.5-1.9c-0.5,0.7-0.7,1.2-1,1.7c0-0.2-0.1-0.5-0.1-0.9c-0.2-0.1-0.6-0.2-1.1-0.5c0.2-0.5,0.5-0.9,0.7-1.4
		c-0.6-0.4-0.9,0-1.1,0.5c-0.5-0.6-0.5-1.2-0.4-1.9c0.1-0.7,0-1.6,0-2.5c0-0.9,0-1.9,0-2.9c-1.4,0.1-2.7,0.2-4.1,0.4
		c-1.4,0.1-2.9,0.1-4.2,0.1c-0.1,2.2-0.1,4.3-0.2,6.4c0,1-0.2,2-0.4,3c-0.2,1.6-0.7,3.1-1,4.7c-0.1,1.1-0.5,2-1.2,3.1
		c0-0.5,0-0.7,0-0.9c-0.2,0.1-0.6,0.1-1.1,0.2c0.2-0.6,0.4-1,0.5-1.5c0-0.2-0.1-0.5-0.1-0.6c0,0-0.4,0.1-0.5,0.1c-0.2,0-0.5,0-0.7,0
		c0,0.4,0,0.6-0.1,1.1c-0.9,0-1.2,0.6-1.4,1.5c-0.2-0.1-0.6-0.2-0.6-0.4c0.1-0.9-0.1-2,0.9-2.7c-0.1-0.2-0.2-0.4-0.2-0.6
		c-0.1-0.2-0.2-0.5-0.4-0.7c0.1,0,0.4,0,0.5-0.1c0-0.5,0.1-1,0.1-1.7c-0.4,0.2-0.6,0.5-0.6,0.6c-0.4,0.6-0.6,1.4-1.4,1.7
		c-0.2,0.1-0.2,0.6-0.4,0.9c-0.2,0.5-0.2,1.4-1.2,1.5c-0.1,0-0.4,0.4-0.5,0.7c-0.1,0.6-0.2,1.4-0.4,2.1c-0.1,0.5,0.1,1.1-0.5,1.5
		c-0.1,0.1-0.1,0.4,0,0.6c0,0.5,0.1,1,0,1.6c-0.1-0.4-0.2-0.7-0.4-1.1c-0.1-0.5-0.1-1-0.4-1.4c-0.1-0.4-0.5-0.7-0.7-1.1
		c-0.2,0.4-0.5,0.6-0.7,0.9c-0.1-0.1-0.2-0.1-0.2-0.1c0.2-1.1,0.6-2.4,0.9-3.5c0-0.2-0.1-0.6-0.2-0.9c-0.7-1.1-1.1-2.4-1.2-3.6
		c0-0.1-0.1-0.2-0.2-0.4c-0.6,0.2-0.4,0.9-0.7,1.5c0-1.1,0-2.1-0.1-3.2c0-1.4,0.1-2.9,0.4-4.2c0-0.2-0.1-0.6-0.4-0.7
		c-0.6-0.4-0.5-0.7-0.1-1.1c0,0.2,0.1,0.5,0.2,1.1c0.2-0.7,0.2-0.7-0.2-1C24.2,410.8,24.2,410.7,24.3,410.6L24.3,410.6z M47.1,395.7
		c0-1.1,0-2.4,0-3.6c-3.1,0.6-6,1.1-8.7,1.7c0,1-0.1,1.9,0,2.7c0,0.4,0.4,0.7,0.5,1C41.8,397.1,44.5,396.9,47.1,395.7z M32.4,367.8
		c-0.5,0.5-0.5,1-0.4,1.5C32.1,368.9,33.1,368.7,32.4,367.8z M24.1,397.7c-0.9,0.4-0.5,0.7-0.2,1.1c0,0,0.1,0,0.2,0
		C24.2,398.4,24.1,398.2,24.1,397.7z M29,374.7c-0.1,0-0.1,0-0.2-0.1c-0.1,0.4-0.2,0.7-0.4,1.2c0.1,0,0.1,0,0.2,0.1
		C28.8,375.6,28.9,375.1,29,374.7z"/>
	<path fill="#FFFFFF" d="M409.4,384.2c0.4,1.1,0.7,2.2,1,3.5c0.6,3,1.2,6.1,1.4,9.1c0.1,2.5,0.5,5,0.7,7.4c0.1,0.7,0.5,1.4,0,2.1
		c0.5,0.6,0.2,1.4,0,2c0,0.1,0.1,0.4,0.1,0.4c0.7,0,0.7,0.6,0.7,1.1c0.4,2.5,0.6,4.8,1,7.3c0.1,1.5,0.2,3.1,0.4,4.6
		c0,0.7-0.1,1.5-0.1,2.2c0.4,3.1,0.7,6.2,1.2,9.3c0.1,1.4,0.4,2.9,0.7,4.2c0.1-0.2,0.2-0.5,0.5-1c0.2,1.2,0.4,2.2,0.5,3.5
		c0.7-0.1,0.9-0.5,0.7-1s-0.2-1-0.2-1.5c0-0.7,0-1.5-0.1-2.1c-0.1-1-0.2-2-0.4-3c-0.1-0.6-0.1-1.2-0.1-1.9c1,2.7,0.5,5.7,1.9,8.3
		c0.1-0.7,0-1.6,0.4-2.2c0.5-0.9-0.4-1.6,0.2-2.4c0.1,1.4,0.2,2.6,0.4,3.8c0.1,1.2,1.1,2.2,1.1,3.6c0.2-0.1,0.5-0.2,0.6-0.4l0.1,0.1
		c0,0.7,0.2,1.5-0.4,2.1c-0.1,0.1-0.4,0.4-0.5,0.5c-0.5,0.4-1.1,0.9-1.6,1.2c0.2,0.5,0.4,1,0.6,1.5c-0.9,0.4-1.1-0.7-1.7-0.9
		c-1.2,1-1.4,1.2-0.6,2c-0.2,0.1-0.5,0.1-0.9,0.2c0.1,0.7,0.1,1.4,0.2,2.1c-0.7,0.2-1.5,0.7-2.4-0.4c0.1,0.5,0.2,0.7,0.4,1.2
		c-0.9-0.9-1.5-1.4-2-2c-1.2-1.4-1.6-3.1-1.9-4.8c-0.4-2.7-0.9-5.3-1.4-8.1c-0.2-1.4-0.2-2.7-0.5-4c-0.4-2.7-0.9-5.5-1.2-8.1
		c-0.7-5.6-1.4-11.2-2-16.7c-0.9-6.9-1.6-13.9-2.5-20.8c-0.7-5.7-1.7-11.3-2.5-17c-0.1-0.6-0.1-1.4-0.5-2c-0.2,0.9-0.6,1.6-0.9,2.5
		c-1,2.4-2,4.7-2.6,7.3c-0.1,0.7-0.5,1.5-0.7,2.4c-0.4,1.2-0.6,2.6-1.1,3.8c-0.5,1.5-1,3-1.4,4.5c-0.5,1.6-0.7,3.2-1.2,5
		c-0.1,0.6-0.4,1.2-0.5,1.9c-0.1,0.5-0.4,1-0.2,1.4c0.2,1.1-0.7,2-0.9,3c0,0.1-0.4,0.4-0.5,0.4c-0.1-0.1-0.2-0.4-0.4-0.6
		c-0.2,0.2-0.5,0.6-0.7,0.9c-0.1-0.1-0.2-0.1-0.4-0.2c0.5-0.6,0.2-1.4,0.1-2c-1.2-0.1-0.5,1.1-0.9,1.6c-0.9,0,0-0.6-0.5-0.9
		c-0.2,0-0.5,0-0.7,0c0-0.1,0-0.2,0.1-0.4c0.5-0.6,0.5-1.4,0-1.6c-0.4-0.2-1,0-1.4,0.5c-0.1,0.1-0.2,0.4-0.4,0.5
		c-0.6,0.2-1.1,0.7-1.5,1.2c-1.1-0.2-1.7-0.9-2.4-1.7c-1.5-2-2.4-4.2-3.1-6.6c-0.4-1.2-1.4-2.2-2-3.2c-1.6-2.5-3.5-4.7-4.8-7.3
		c-0.9-1.7-2.1-3.2-3.1-4.8c-0.1-0.2-0.2-0.6-0.7-0.9c-0.1,0.9-0.1,1.7-0.2,2.6c0,1.1,0,2.4-0.1,3.5c-0.1,1.1,0,2.2-0.4,3.3
		c-0.2,0.9,0,2,0.1,3.1c0,0.4,0.2,0.7-0.2,1.2c-0.2,0.1-0.1,0.6-0.1,1c0,1.4-0.1,2.7-0.1,4c-0.1,4-0.4,7.8-0.5,11.8
		c-0.1,1.9-0.1,3.6,0,5.5c0,0.9,0.4,1.6,0,2.5c0,0.1,0,0.2,0,0.2c0.9,0.9,0.4,2.1,0.5,3.1c0.1,1.1,0,2.1,0,3.2c0,0.9-0.1,1-1.2,0.9
		c0.1,1.1,0.4,2.4,0.5,3.6c-0.1,0.1-0.9,0-0.5,0.7c0.2,0.5-0.4,1.7-0.9,2c-0.4,0.2-1.2-0.1-1.7-0.5c-0.1-0.1-0.2-0.2-0.4-0.2
		c-0.5,0,0,0.9-0.7,0.6c-0.2-0.1-0.6,0-1.1,0.1c0,0.1,0,0.4,0,0.5c-0.2,0.1-1.6-0.4-1.7-0.6c-0.2-0.7-0.6-1.4-1.2-1.9
		c-0.2-0.1-0.2-0.5-0.4-0.9c-0.2-1.7-0.6-3.6-0.7-5.3c-0.1-1.9-0.2-3.7,0.1-5.6c0.2-1.1,0.1-2.2,0.1-3.3c0-1.5,0-3.1,0-4.6
		c0.1-2.1,0.2-4.2,0.4-6.3c0-0.5,0.2-0.9,0.2-1.4c0.1-1.9,0.1-3.6,0.2-5.5c0-1,0.1-2.1,0.2-3.1c0.4-3.1,0.1-6.3,1-9.4
		c0.4-1.6-0.1-3.2-0.1-4.7c0-0.2-0.1-0.6,0-0.9c0.6-3.6,1.2-7.2,1.7-10.8c0.1-0.6,0.2-1.2,0.2-1.7c0-0.7-0.2-1.5-0.5-2.1
		c-0.9-1.6-1.6-3.2-2-5.1c-0.1-0.6-0.4-1.2-0.6-1.9c0.4,0,0.6,0.6,1,0.1c0.1-0.2,0.6-0.1,1.1-0.2c-0.2-0.9-0.5-1.7-0.7-2.6
		c1.1,0.6,1.1,0.6,1.6,1.7c0.4,0.7,0.6,1.6,1.4,2.1c0.2,0.1,0.4,0.5,0.6,0.9c0.6,0.4,0.7-0.4,1.1-0.6c0.5,0.4,1,0.7,1.5,1.1
		c0.1,0.1,0.4,0.1,0.5,0.1c0.4-0.5,0.7-0.2,1.2-0.1c0.1,0,0.4-0.1,0.6-0.2c0.2,0.4,0.4,0.9,0.6,1.2c0.1,0.1,0.2,0.4,0.1,0.4
		c-0.4,0.7,0.1,1.2,0.6,1.7c-0.1,0.4-0.2,0.7-0.4,0.9c0.5,0.9,0.9,1.7,1.2,2.4c0.7,1.2,1.4,2.6,2.1,3.8c0.4,0.7,0.7,1.5,1.5,2.1
		c0.5,0.4,0.6,1.2,0.9,1.9c1.2,2.9,2.4,5.7,4.3,8.1c0.4,0.4,0.6,0.7,1.2,0.6c0.1,0,0.4,0.4,0.7,0.7c0.7,0,1.5,0.4,2.1,1.1
		c1-1,1.4-2.2,1.9-3.3c0.6-1.4,1.1-2.7,1.9-4c0.5-1,0.9-2.1,1.2-3.1c0.4-0.9,0.7-1.6,1.1-2.5c0-0.1,0.2-0.1,0.6-0.4
		c-0.2,0.7-0.4,1.2-0.5,1.7c-0.6,1.7-1.2,3.3-2,5.1c-0.1,0.2-0.2,0.5-0.2,0.6c0.2,1-0.1,1.7-0.5,2.6c0,0,0,0.1,0.1,0.2
		c0.9-0.7,3.8-7.9,3.5-9.7c0.2-0.2,0.7-0.5,0.9-0.9c0.6-1.6,1.1-3.2,1.5-4.8c0.1-0.6,0.1-1.5,0.2-2.2c0.1,0.1,0.4,0.2,0.7,0.4
		c0.2-0.9,0.4-1.6,0.6-2.5c0.2-1,0.4-2,0.6-3c0.4-1.4,1-2.6,1.4-4c0.2-0.7,0.5-1.5,0.7-2.2c0.1,0,0.5,0.1,0.7,0.2
		c0.5-1,0.5-2.1,1.4-3c-0.1-0.2-0.2-0.6-0.4-0.9c0.5,0,1-0.1,1.5-0.1c0.5,0.7,0,1.2-0.2,1.9c-0.2,0.6-0.4,1.2-0.5,2
		c0.2-0.2,0.5-0.5,0.7-0.9c0.2,0.2,0.5,0.5,0.6,0.6c0.6-1.1,1-2.1,1.7-3.1c0.2-0.4,0.7-0.6,1.2-0.9c0.1,0,0.1,0.1,0.2,0.1
		c-0.2,0.9-0.4,1.7-0.6,2.5c0.1,0.1,0.1,0.1,0.2,0.2c0.1-0.2,0.2-0.5,0.5-1c0.1,0.4,0.4,0.6,0.4,0.7c-0.4,0.9,0.1,1.5,0.2,2.2
		c0.1,0.4,0.1,0.9,0.1,1.2c-0.4,1.7,0.4,3.1,1.1,4.5c-0.4,0.6-0.5,1.2-0.4,2.1c0.1,1.1-0.1,2.2,0,3.2c0.2,2.9,0,5.7,0.6,8.6
		c0.5,2.5,0.6,5.1,1,7.6c0.4,2.9,1,5.7,1.5,8.6c0.2,1.9,0.7,3.7,0.9,5.6c0.1,0.9,0,2,0.6,2.9c0.2,0.4,0.5,1.1-0.1,1.7
		c-0.2,0.2,0,1,0,1.5c0.9-0.9,0.9-0.9,0.7-1.9c-0.2-2-0.5-4.1-0.9-6.1c-0.1-0.7-0.6-1.5-0.5-2.4
		C409.2,384.7,409.3,384.4,409.4,384.2L409.4,384.2z M385.7,377c0.1-0.4,0.4-0.6,0.5-1c-0.1,0-0.1-0.1-0.2-0.1
		C385.8,376.2,385.7,376.7,385.7,377c-0.1,0.2-0.4,0.5-0.6,0.7l0.1,0.1C385.5,377.6,385.6,377.3,385.7,377z M365.8,393.7
		c0.1,0,0.4,0,0.5,0c-0.9-3.6,0.2-7.2-0.4-10.8c-0.2,1.2-0.5,2.6-0.5,3.8s0.1,2.6,0.1,3.8c0,0.7,0,1.4-0.1,2.1
		C365.3,393.2,365.5,393.5,365.8,393.7c-0.2,0.1-0.5,0.1-0.7,0.2c0,0.4,0.1,0.6,0.1,0.9c-0.1,2-0.2,3.8-0.2,5.8
		c-0.1,2.9-0.2,5.6-0.2,8.4c0,1.9,0,3.8-0.1,5.7c0,1.4-0.2,2.7-0.2,4.1c0,0.9,0.1,1.9,1,2.7c0.2-1.2,0.4-2.1-0.5-2.7
		c0-1,0-1.7,0-2.6c0.2-2.4,0.1-4.8,0.5-7.2c0.2-2.4,0.1-4.7,0.1-7.1c0-1.1,0-2.4,0.4-3.3c0.4-0.9,0.4-1.6,0.5-2.6
		c-0.1,0.2-0.2,0.2-0.5,0.6C365.8,395.4,365.8,394.6,365.8,393.7z M361.7,404.5c-0.1,2.2-0.6,4.5-0.1,6.8c0.5-1.6,0.6-3.2,0.6-4.8
		C362.2,405.7,362.2,405,361.7,404.5c0.4,0,0.6-0.1,0.6-0.5c0.1-2.1,0.4-4.2,0.5-6.3c0-0.2,0-0.5-0.1-0.7c-0.1-0.9,0-1.6,0.4-2.4
		c0,1.5,0.1,3.1,0.1,4.6c0.2-0.6,0.5-1.4,0.5-2c0.2-3,0.5-6.1,0.7-9.1c0.2-2.6,0.4-5.1,0.5-7.7c0-0.6-0.2-1.4-0.2-2
		c-0.1-0.5-0.1-0.9-0.1-1.4c0-0.7,0.1-1.5,0.1-2.4c-0.2,0.1-0.4,0.2-0.5,0.4c-0.1,1.1-0.2,2.1-0.4,3.2c-0.1,1.4-0.4,2.9-0.2,4.2
		c0,0.7-0.6,0.9-0.6,1.5c-0.1,2.2-0.4,4.5-0.5,6.7c-0.2,3.8-0.4,7.7-0.6,11.5C361.5,403.1,361.5,403.7,361.7,404.5z M361.3,416.6
		c0.1-0.7,0.6-1.7,0.2-2.4c-0.4-0.9-0.1-1.5,0-2.2C360.8,413.7,360.9,415.2,361.3,416.6z M363.2,402.3c-0.1,0-0.2,0-0.2,0
		c-0.1,0.4-0.2,0.7-0.4,1.1c0.1,0,0.2,0,0.2,0.1C363,403.1,363,402.8,363.2,402.3z M363.3,400.2h-0.1c0,0.4,0,0.7-0.1,1
		c0,0,0,0,0.1,0C363.2,400.8,363.3,400.4,363.3,400.2z"/>
	<path fill="#FFFFFF" d="M90.4,401c0-0.7,0-1.5,0.1-2.2c0.1-0.7,0.2-1.4,0.4-2.1c0-0.1,0.2-0.4,0.4-0.4c0.7,0,0.7-0.6,0.6-1
		c-0.2-0.4,0-0.7,0-1.1c0.1-1.2,0.5-2.6-0.2-4c0.1-0.1,0.2-0.2,0.4-0.4c0.6-0.5-0.2-1.2,0.6-1.9c0.5-0.4,0.4-1.1,0.2-1.7
		c-0.1-0.4,0-0.9,0-1.2l0,0c0.2-2.2,0.7-4.5,0.5-6.8c0.5,0.4,0.5,0.9,0.6,1.4h0.1c0.2,1.2,0.6,2.5,0.1,3.7c-0.2,0.7-0.4,1.4,0,2.1
		c0.2-1,0.4-1.9,0.5-2.9c0-0.2,0-0.6,0.1-0.7c0.6-0.4,0.4-1,0.5-1.5c0.1-0.2,0-0.6,0.2-0.9c0.7-0.7,0.7-1.6,1-2.6
		c-1.6-0.2-0.2-1.6-1-2.4c-0.2,0.2-0.4,0.5-0.5,0.9c-0.1,0.5-0.2,1-0.4,1.5c-0.2,0.9-0.1,1.9-0.7,2.6c0.2-1.1,0.4-2.2,0.6-3.3
		c0-0.2,0.4-0.7-0.2-0.9c0-0.2,0-0.6,0.1-0.9c0.4-0.6,0.5-1.2,0.4-2.1c-0.1,0.2-0.2,0.5-0.4,0.6c-0.1-0.1-0.4-0.2-0.5-0.4
		c-0.4,0.2-0.1,1.4-1,1.1l0,0c0.2-0.9,0.5-1.9,0.7-2.9c0.2,0.1,0.4,0.2,0.7,0.5c0-0.5-0.1-1,0-1.2c0.1-0.4,0.6-0.5,0.9-0.9
		c0.4,0.6,0.7,1.4,1.1,2.1c0.1,0,0.1-0.1,0.2-0.1c-0.1-1-0.2-2-0.6-2.7c-0.4-1-0.1-2,0-3c0.9,0,0.5-0.9,0.5-1.5
		c0.4-0.1,0.9-0.2,1-0.5c0.1-0.2-0.1-0.7-0.1-1.1c0-0.5,0.1-1,0.2-1.5c0.2-0.7,0.4-1.4,0.7-2.1c0.1-0.2,0.4-0.5,0.6-0.7
		s0.6-0.4,1-0.6c0.6-0.5,1.1-1.1,1-2c0-0.4,0.1-0.6,0.1-1c0.1,0,0.1-0.1,0.2-0.1c0.7-0.2,1.1-1,2.1-1c0.2,0,0.5-0.4,0.6-0.7
		c0.4-0.7,0.6-1.5,1.1-2.4c0.5,0.9,1,1.5,1.5,2.4c-0.1,0.1-0.1,0.5-0.2,0.7c1.1,0.6,1.1,0.5,1.7-1.1c0.5,0,1.1-0.4,1.6,0.2
		s0.7,1.4,0.4,2.2c-1,1.7-1.5,3.7-2.1,5.7c-0.1,0.2-0.1,0.5-0.2,0.7c-0.4,0.5-0.4,1-0.1,1.6c0.1,0.6,0.2,1.1,0.4,1.7
		c0.4-0.2,0.6-0.5,0.7-0.6c0.6-0.1,0.2,1,1,0.6l0.2,0.1c0.4,0.7,0.1,2-0.4,2.6c-0.4,0.5-0.7,0.2-1.1,0.2c0,0.7,0.1,1.5,0.1,2.2
		c0,0.1,0.2,0.2,0.4,0.2c0,1.7,0,2.7-0.1,3.6c0.1-0.1,0.1-0.4,0.1-0.5c0-0.7,0-1.5,0-2.2c0-0.5,0-1,0-1.5c0.1,0,0.1,0,0.2,0
		c0,0.2,0.1,0.5,0.1,0.7c0.1,1.5,0.1,3,0.1,4.3c0,0.6,0.2,1.2-0.5,1.6c-0.1,0.1-0.1,0.5-0.1,0.6c0.2,2.6,0.6,5.3,0.9,7.9
		c0.2,1.7,0.5,3.6,0.7,5.3c0.1,0.6,0.1,1.1,1,1.2c-1,1.7-0.4,3.5,0,5.1c1-0.9,1.4-2,1.1-3.1c-0.1-0.5,0-1.1,0.1-1.7
		c0.2-1,0.7-1.7,1.5-2.5c0.6-0.6,0.9-1.7,1-2.6c0.1-1.2,0.6-2.2,1.2-3.2c0.6-1.1,0.6-1.2-0.4-2c0.2-0.1,0.5-0.2,0.7-0.4l0,0
		c0.2,0,0.6,0.2,0.7-0.2c0.2-0.9,0.6-1.6,0.9-2.5c0.1-0.2,0.2-0.5,0.4-0.9c0.1-0.4,0.2-0.6,0.2-1c-0.1,0-0.1-0.1-0.2-0.1
		c-0.2,0.4-0.5,0.9-0.9,1.4c-0.2-0.6,0-1,0.2-1.5c0.2-0.4,0.5-0.6,0.2-1l0,0c0.4-0.4,0.7-1,1.2-1.1c1.4-0.4,1.1-1.5,1.6-2.5
		c-0.6,0-1.1-0.1-1.1-0.6c0-0.4,0.4-0.6,0.9-0.7c0-0.4,0-0.6-0.1-1c0.5,0,1,0,1.6,0c0.1-0.4,0.2-0.7,0.5-1.2
		c-0.2-0.2-0.5-0.5-0.7-0.6c0.1-0.4,0.2-0.7,0.5-1c0.1-0.1,0.4-0.4,0.5-0.4c0.7-0.2,0.9-0.4,0.7-1.1c-0.1-0.4-0.2-0.6-0.2-1
		c-0.1-0.4-0.2-0.7-0.4-1.2c1.2-0.1,1.7-0.6,1.7-1.7c0-0.1,0-0.4,0-0.5c0-0.4,0-0.7,0.1-1.5c0.2,1,0.7,0.6,1.1,0.9
		c-0.4,0.5-0.7,1-0.4,1.6c1.1-0.6,1.2-0.9,0.4-1.6c0.1-0.2,0.2-0.4,0.4-0.7c0.1,0,0.5,0,0.9,0.1c0-0.5,0.1-1.1,0-1.4
		c-0.4-0.5-0.2-0.9-0.2-1.2c0.1-0.6,0.2-1.4,0.4-2.1c0.2-0.1,0.6-0.1,1-0.2c-0.1,0.7-0.2,1.4-0.5,2.1c0.4,0.4,0.7,0.2,0.9-0.2
		c0.2-0.9,0.6-1.7,0.7-2.6c0.1-0.9,0.4-1.4,1.2-1.2c0.6-0.9,0.5-2,1.6-2.6c-0.4,1.2-0.6,2.2-1,3.5c0.9,0.1,1.6,0.2,2.4,0.2
		c1.2,0,1.2,0,1.1,1.1c-0.1,1,0,1.9-0.6,2.7c-0.1,0.2-0.1,0.6,0,1c0.1,1.5,0,2.9-0.5,4.2c-0.4,0.9-0.4,1.7-0.2,2.7
		c0.1,0.5,0,1-0.2,1.5c-0.4,1-0.5,2,0.4,3c-0.9,0.7-0.9,1.6-1,2.5c-0.1,2.4-0.2,4.7-0.4,6.9c-0.1,3-0.4,6-0.4,8.9
		c0,0.5-0.1,1.1,0.6,1.5c0.4,0.2,0.7,0.6,1.1,1.1c-0.9,0.1-1-0.9-1.6-0.9c-0.1,1.2-0.2,2.5-0.2,3.8c-0.1,3.5-0.1,7.1-0.2,10.5
		c0,1.4,0,2.7,0,4c0,1.5,0,2.9-0.1,4.3c0,0.7-0.1,1.6,0.4,2c-0.1,1.1-0.4,2.1-0.4,3c0,3.2,0.1,6.6,0.2,9.9c-0.4,0.1-0.7,0.2-1.2,0.4
		c-0.1,1.2-0.2,2.6-0.2,3.8c0,0.5,0,0.7-0.4,1.1c-0.9,0.9-1,1.7-0.5,2.6c-0.5,0.9-1.9,0.9-2,2.1c-0.6-0.1-1.1-0.2-1.7-0.4
		c0.4-1.2,0-2.4-1-3.3c-0.7-0.9-1.6-2-1.1-3.5c0.2,0.2,0.5,0.5,0.9,0.9c0.1-0.5,0.1-0.9,0.1-1.2c0-3,0-5.8,0-8.8
		c0-1.2,0.2-2.6,0.2-3.8c0-1.1-0.1-2.1-0.1-3.2c0-0.7-0.1-1.5-0.4-2.2c0,0.6,0,1.1,0,1.9c-0.4-0.2-0.6-0.2-0.7-0.7
		c-0.4-1.5,0-3.1,0-4.6c-0.1-2.6,0-5.3,0-7.9c0-1.5,0-3,0.1-4.3c0-2.2,0.1-4.5,0.1-6.7c0-0.4-0.1-0.9-0.1-1.4
		c-0.1,0.1-0.2,0.2-0.4,0.4c-0.2-1-0.5-1.9-0.2-2.9c0.2-0.7,0.2-1.5,0.2-2.4c-1.5,1.6-1.9,3.5-1.6,5.6c-0.1-0.4-0.2-0.7-0.4-1.2
		c-0.2,1-0.5,1.9-0.6,2.7c-0.1,0-0.1,0-0.2,0c0-0.5,0.1-1,0.1-1.7c-0.2,0.5-0.5,0.6-0.5,0.9c-0.6,1.5-1,3-1.7,4.3
		c-0.9,1.5-1.4,3.1-2,4.6s-1.1,3-1.7,4.5c-0.2,0.7-0.6,1.6-1,2.4c-0.4,0.7-0.6,1.6-0.4,2.4c0.4,1.6,0.1,3-0.4,4.5
		c-0.1,0.2,0,0.5-0.1,0.7c-0.4-0.6-0.9,0.2-1.2-0.2c-0.2-0.2-0.9-0.4-1.4-0.5c-1.7,1.4-2.7,3.2-4.5,4.5c-1.2-0.4-0.7-1.2-0.7-1.9
		c0-1-0.2-2.1-0.9-2.7c-0.1,0-0.2-0.1-0.2-0.2c-0.4-0.2-0.7-0.5-0.4-1c0.4-0.5,0.6,0,1,0.1h0.1c0.4-1,0.2-2.2,1.4-3.1
		c0.2,0,0.5,0.1,0.9,0.1c0-0.1,0.1-0.2,0.1-0.4c-1-2.9-1.4-5.8-1.9-8.9c-0.2-1.9-0.7-3.7-1.1-5.6c-0.1-0.6-0.1-1.2-0.2-1.9
		c-0.1-0.7-0.4-1.4-0.6-2.1c-0.1,0-0.2,0-0.2,0c0,1,0.1,1.9,0.1,3c-0.2,0-0.4,0-0.5,0c0,0.5-0.1,1.1-0.1,1.6c-0.5,0-0.7,0.1-1.2,0.1
		c0.1,0.5,0.1,0.9,0.2,1.2c0.4,0.6,0.4,0.9,0.1,1.6c-0.2,0.7-0.4,1.6-0.6,2.5c-0.1,0.2,0,0.9,0.2,1c0.7,0.5,0.5,1.4,0.7,2
		c0.1,0.5-0.2,1-0.4,1.5c-0.1,0.4-0.1,0.7-0.1,1.1c0,0.5,0.7,1.1-0.2,1.4c0,0,0,0.2,0,0.4c0.2,0.4,0.2,0.6-0.1,1
		c-0.5,0.6-0.1,1.2,0,1.9c0.1,1,0.6,2,0.9,3c0.1,0.4,0.1,0.6,0.1,1c-0.4,0.1-0.6,0.1-0.9,0.2c-0.9,0.4-1.6,0.7-1.5,2
		c0.1,0.7,0.1,1.6-1,1.9c-0.2,0-0.5,0.7-0.5,1.1c0,0.4,0.1,0.7,0.1,1.2c-1.4,0.9-1.5,2.6-2.2,4c-0.2,0.5-0.4,1-0.9,1.4
		c-0.2,0.1-0.2,0.5-0.5,0.7c-0.2,0.2-0.5,0.6-1,1c-0.1-0.6-0.2-0.9-0.2-1.2c-0.1,0-0.4,0-0.4,0.1c-0.5,0.7-1,1.5-1.4,2.2
		c-0.2,0.4-0.5,0.7-1.1,0.5c-0.2-0.4-0.5-0.7-0.6-1c0.1-0.9,0.9-1.7-0.1-2.6c-0.5,0.9-0.9,1.6-1.2,2.5c-0.4-0.1-0.6-0.2-1.1-0.4
		c0.1-0.5,0.4-1,0.5-1.4c-1.1-1.1-1.2-1.1-2.5,0.6c0.4-1.2,0.9-2.4,0.9-3.5s0.9-1.9,1.1-3c-0.7-0.2-0.5-0.7-0.4-1.2l0,0
		c0.1-0.4,0.5-0.7,0.5-1.1c0.1-0.6,0.2-1,1-1c-0.2-0.7,0.2-1.5-0.1-2.2c1-0.2,0.4-1.1,0.6-1.7s0.5-1.1,0.7-1.7c0-0.1,0-0.1,0-0.2
		c0.1,0.2,0.4,0.5,0.7,1.1c0-0.7,0-1.2,0-2c-0.4,0.4-0.5,0.6-0.7,0.9c0.4-0.7,0.5-1.5,0-2.4c-0.2-0.5-0.1-1.2-0.1-1.9
		c0.5-0.1,0.9-0.2,1.2-0.5c-0.2-0.9-0.5-1.7-0.7-2.6C90,402,89.9,401.4,90.4,401c0.2,0,0.5,0.1,0.9,0.1c0-0.5-0.1-0.7-0.1-1.1
		C90.9,400.5,90.6,400.8,90.4,401z M92,399.8c0.1-0.1,0.2-0.2,0.4-0.5c0.2-1.1,0.4-2.4,0.7-3.5c0.1-0.6,0.2-1.1,0.1-1.7
		c-0.1-0.5-0.1-1.1-0.2-1.7c-0.1,0-0.2,0-0.2,0C92.1,394.7,91.9,397.2,92,399.8z M93.9,391.2c0-1.1,0.1-2.1,0.1-3.1
		c0-0.2-0.2-0.5-0.4-0.9c-0.9,1-0.7,2-0.7,3.1C92.9,391.1,93.2,391.2,93.9,391.2z M96.7,374.1c-0.7,0.6-0.5,1.4-0.4,2.4
		C97.2,375.7,96.8,375,96.7,374.1z M91.1,399c0.1,0,0.2,0,0.4,0c0-0.6,0-1.2,0-1.9C90.8,397.7,90.8,398.3,91.1,399z M90.9,412.1
		c-0.1,0-0.2,0-0.2-0.1c-0.6,1-0.6,1,0,1.7C90.8,413,90.8,412.6,90.9,412.1z M95.6,381.3c0.1,0,0.1,0,0.2,0c0-0.2,0-0.6,0.1-0.9
		c-0.1,0-0.2,0-0.4,0C95.6,380.8,95.6,381.1,95.6,381.3z M90.6,411.6c0.1,0,0.2,0,0.4,0c0-0.4,0-0.7,0.1-1.1c-0.1,0-0.1,0-0.2,0
		C90.8,410.8,90.6,411.2,90.6,411.6z"/>
	<path fill="#FFFFFF" d="M226.2,381.3c-0.1-0.1-0.2-0.4-0.4-0.4c-0.4,0-0.6,0.1-1,0c1.6-1.6,3.7-2.1,5.8-3.2c0-0.1,0-0.4,0-0.7
		c3.2-0.6,6.4-1.4,9.7-2c1-0.2,2.1-0.1,3.2-0.1c1,0,2,0.2,3,0.5c0.9,0.2,1.7,0.7,2.6,1c0.2,0.1,0.5,0.4,0.9,0.4
		c1.1,0,1.6,0.9,2.4,1.4c0.4,0.2,0.2,0.9-0.1,1c-0.5,0.2-0.4,0.5-0.4,0.9v0.1c0.2,0.9-0.4,1.6-0.4,2.2s0.7,1.4,0.6,2.1
		c-0.2,1.6-0.7,3.1-1.9,4.3c-0.4,0.5-0.7,1.1-1.2,1.5c-0.4,0.5-0.9,0.9-1.4,1.4c-0.2,0.2-0.5,0.5-0.7,0.7c-0.9,0.7-1.6,1.4-2.5,2
		c-0.2,0.2-0.4,0.4-0.7,0.7c0.5,0.4,0.9,0.7,1.4,1c2.2,1.1,4,2.9,5.7,4.5c0.2,0.2,0.4,0.5,0.5,0.7c1.5,2.4,3,4.8,4.3,7.3
		c0.7,1.4,1.2,2.9,1.9,4.2l0,0c-0.6-0.9-1.2-1.7-1.9-2.6c-0.6-1-1.1-2.1-1.9-3.1c-1.4-1.7-2.4-3.7-3.5-5.6c-0.2-0.5-0.6-0.9-1-1.4
		c-0.1,0.1-0.2,0.1-0.2,0.2c0.6,1.1,1.4,2.2,2,3.3c1.4,2.2,2.9,4.2,4.1,6.4c0.9,1.6,1.9,3.2,3.3,4.6c0.1,0.1,0.2,0.4,0.4,0.5
		c-0.1,0.6,0.4,0.9,0.7,1.2c0.4,0.1,0.6,0.4,1,0.5c0.5,0.4,1,0.7,1.4,1.2c0.2,0.5,0.6,0.7,1.1,0.7c0.9,0.1,1.7,0.1,2.6,0.4
		c0.2,0.1,0.6-0.2,1.1-0.5c0.1,0.2,0.2,0.6,0.4,0.9c0.4,0,0.6-0.1,1-0.1c0,0.2,0.1,0.4,0.1,0.5c-0.1,0.4-0.4,0.6-0.4,1
		c-0.1,0.4-0.1,0.9,0,1.1c0.4,0.5,0.4,1,0.1,1.6c-0.1,0.4-0.1,0.7-0.2,1.1c-0.1,0.4-0.1,0.7-0.2,1.2c0.5,0,0.9-0.1,1.2-0.1
		c-0.1,1.1-1.1,1.1-1.7,1.5c-0.5,0.2-1,0.5-1.5,0.7c-0.5,0.2-0.6,0.6-0.2,1.1c-0.6,0.5-1.2,1-1.9,1.4c-0.7,0.5-2.2,0.2-3-0.2
		c-1.2-1-2.5-1.9-4.1-2.2c-0.6-0.1-1.1-0.9-1.5-1.4c-0.5-0.6-1-1.2-1.5-1.9c-0.9-1.2-1.9-2.6-2.6-4c-0.9-1.7-2.1-3.2-3.1-4.8
		c-1.4-2-2.6-4.1-4-6.1c0,0,0-0.1-0.1-0.1c-0.9-1.7-2.1-2.2-4-1.9c-0.6,0.1-1.2-0.1-1.9-0.1c-0.4,0.4-0.7,0.7-1.2,1.1
		c0.1,3.3,1.6,6.4,1.9,9.9c-0.4,0-0.6,0-0.9-0.1c0.1,0.5,0.5,0.9-0.1,1.2c-0.1,0.1-0.1,0.5-0.1,0.7c0,0.7,0.1,1.5,0,2.2
		c0,0.6,0.1,1.4-0.7,1.6c-0.1,0-0.1,0.2-0.2,0.5c-0.2,0.7-0.7,1.1-1.5,1.2c-1-0.9-1.1-2.1-1.6-3.3c0,0.2-0.1,0.6-0.1,0.9
		c0,0.2,0.1,0.4,0.2,0.6c0.2,1,0.1,1.5-0.7,2c-0.2,0.1-0.4,0.2-0.6,0.4c-0.9-0.2-1.4-1.1-2.4-1.2c-0.1,0-0.2-0.4-0.4-0.5
		c-0.5-1.4-1.1-2.7-1.4-4.2c0-0.5-0.4-1-0.5-1.5c-0.2-0.7-0.4-1.5-0.5-2.2c0-0.6-0.1-1.1-0.4-1.7c-0.2-1.1-1-2.1-0.4-3.3
		c0.1-0.2,0.1-0.7,0-1c-0.2-1.7-0.5-3.5-0.6-5.3c0-0.6,0-1.2,0.1-1.9c0-0.1,0.1-0.2,0.1-0.4c-0.1-1.7-0.4-3.5-0.6-5.1
		c0-0.1-0.1-0.4,0-0.5c0.4-1,0.5-2.1,0.1-3.2c-0.1-0.5,0.2-1.1,0.2-1.7c0-1.6,0-3.1-0.1-4.7c0-0.4,0-0.9,0.1-1.2
		c-0.6-0.5-1.4,0.5-2-0.2c0.5-0.6,1.4-0.6,2.1-1.2c-1-0.1-1.9-0.1-2.7-0.2v-0.1c0.5-0.2,1-0.5,1.5-0.6c-0.9-0.1-1.5-0.7-2.4-1.1
		c0.7-0.6,1.2-1.2,2.2-1.4C225,382.2,225.8,382.2,226.2,381.3c0.4,0.4,0.9,0.2,1.2,0.1c0.1-0.1,0.2-0.2,0.4-0.4
		c-0.2-0.1-0.5-0.5-0.5-0.4C226.9,380.8,226.5,381.1,226.2,381.3z M246,385.3c-4.7-0.7-8.9,0.6-13.3,1.4c0.1,1,0.1,1.9,0.2,2.9
		c0.1,1.2,0.4,2.4,0.6,3.6c0.2,1,0.5,2.1,0.7,3.1c0,0.2,0.2,0.4,0.4,0.5c0.6,0.5,1.4,0.7,2.2,0.9c-0.7-0.6-1.5-1.1-2.1-1.6
		c0.6-0.9,1.2-1.6,1.7-2.4c0.1-0.1,0.5-0.2,0.6-0.2c1.1-0.2,2.2,0.1,3.2,0.6c0.5,0.2,1,0.5,1.5,0c0.7-0.7,1.5-1.4,2.1-2.1
		c1.2-1.5,2.4-3,3.5-4.3c0.2-0.2,0.4-0.5,0.5-0.9c-0.1,0-0.1-0.1-0.2-0.1c-0.7,0.7-1.5,1.4-2.2,2.1c-0.7,0.6-1.4,1.4-2.1,2
		c-0.7,0.6-1.2,1.6-2.4,1.9c0-0.2,0.1-0.4,0.2-0.6c0.9-1,1.6-2,2.6-2.7c1-0.7,0.9-1.4,0.7-2.4C245.1,386.4,245.5,385.9,246,385.3z
		 M236.1,405c-0.5,1.2-0.5,1.2-0.1,2.4c1.6,0,3.3,0,5.2,0.1c-0.2-0.9-0.9-1.2-1.6-1.2s-1.4-0.2-2-0.5
		C237.2,405.4,236.7,405.2,236.1,405z M249.5,379.7c0.1,0.6,0.1,1.1,0.2,1.6c0,0.1,0.2,0.4,0.4,0.5c0.4-0.4,0.9-0.6,1-1
		c0.2-0.5,0.2-1.1-0.2-1.4c-1-0.7-2-1.6-3.5-1.4C247.6,379.1,247.7,379.2,249.5,379.7z M240.8,379.4c0.1,0.1,0.1,0.2,0.2,0.2
		c1.1,0.1,2.1,0.2,3.2,0.4c0.2,0,0.6,0,0.7,0.1c0.7,0.6,1.6,0.5,2.5,0.5c-0.1-0.2-0.1-0.6-0.2-0.6c-1-0.5-1.9-1-3-1.2
		c-1-0.1-2,0.6-3.1,0.4C241,379.2,240.9,379.3,240.8,379.4z M234.5,380.3c-1.7-0.7-3.1-0.2-4.5,0c-0.1,0-0.2,0.5-0.4,0.7
		C231.4,380.8,232.7,380.6,234.5,380.3z"/>
	<path fill="#FFFFFF" d="M312.2,372.8c0.1,0,0.4,0.1,0.4,0.1c0.1,1.2,0.9,2.4,0.9,3.7c0,0.7,0.4,1.6,0.7,2.1c1.1,1.5,1.4,3.2,2,5
		s1.1,3.5,1.6,5.2c0.1,0.5,0.4,1.1,1.1,1c1-1.2,2.1-2.6,3.1-4c0-0.1,0.1-0.1,0.1-0.2c1.7-0.7,2.2-2.5,3.6-3.6
		c0.2-0.1,0.1-0.6,0.4-0.7c0.2-0.2,0.7-0.2,0.9-0.4c0.5-0.6,0.7-1.4,1.1-2c0.1-0.1,0.1-0.4,0.2-0.5c0.4-0.4,0.7-0.6,1-0.9
		c0.1-0.1,0.2-0.4,0.4-0.4c1.1,0.1,1.1-0.7,1.5-1.4c0.6-1,1.1-2,1.7-3c0.2,0.1,0.4,0.2,0.6,0.4c0.2-0.4,0.6-0.6,0.9-1.1
		c0.5,0.5,0.9,0.9,0.5,1.6c-0.2,0.5-0.4,1-0.5,1.5c-0.1,0.4,0,0.7,0,1.5c0.6-0.6,1-1,1.4-1.4c0.1,1-0.6,1.7-1,2.5
		c1.1,1,1.1,1,1.9-0.2c0.1-0.1,0.2-0.2,0.2-0.4c0.1-0.1,0.2-0.4,0.5-0.6c0.1,0.2,0.4,0.5,0.5,0.7c-0.1,1.4-1.9,2.2-1.1,4.1
		c0.5-0.6,1-1.1,1.4-1.6c0,0,0.1,0,0.1,0.1c-0.2,0.4-0.4,0.7-0.6,1.1c-0.6,1.2-1.5,2.4-2,3.6c-0.6,1.6-1.6,3-2.6,4.5
		c-0.2,0.5-0.7,0.9-1.1,1.2c-0.4,0.5-0.5,1-0.9,1.5c-1,1.5-2,3-3,4.5c0.7,1,1.9,1.5,2.9,2.2c2.6,1.6,5.3,3.1,7.6,5.2
		c0.6,0.6,1.5,1,2.2,1.6c1.1,1,2.1,2.1,3.1,3.2c0.9,1,1.6,2.5,3.5,2.1c-0.1,0.4-0.2,0.5-0.2,0.7c0.4,0.9,1.2,0.7,2,0.9
		c0.1,0.5,0.2,1,0.1,1.4c-0.1,0.6,0.1,1,0.7,1c0.1,0,0.2,0.1,0.4,0.1c0.6,0.7,1.1,1.6,1.7,2.5c-1.2,0.2-0.6,1.9-1.9,2.2
		c0.1,0.2,0.2,0.5,0.5,0.7c-0.7,0.1-1.5,0.2-2.1,0.4c-0.5,0.1-1,0.2-1.2,0.7c-0.1,0.2-0.7,0.6-1,0.6c-0.9-0.4-2-0.4-2.7-1
		c-1.9-1.6-3.8-3.1-5.7-4.7c-1.6-1.4-3.1-2.7-4.6-4.1c-1.6-1.5-3.5-2.5-5.3-3.6c-1.1-0.6-2.2-1.2-3.3-1.9c-0.5-0.2-1-0.4-1.5-0.6
		c-0.1,0.5-0.1,0.9-0.2,1.2c-0.1-0.4-0.2-0.9-0.4-1.2c0.1,0.6-0.4,1.4,0.4,2.1c0-0.5,0-0.7,0-1c0.4,1.6,0.7,3.2,1.1,4.8
		c0.5,1.9,0.6,4,1.4,5.8c0.1,0.2,0.1,0.6,0.1,1c0,0.4-0.1,0.6-0.2,1.2c-0.2-0.7-0.5-1.1-0.6-1.6c-0.4-1.9-0.7-3.7-1.1-5.7
		c-0.1-0.4,0-0.9-0.7-0.6c0,0-0.1-0.4-0.4-0.5c0.1,1.1,0.1,2.2,0.5,3.2c0.2,0.6,0.4,1.1,0.2,1.7c-0.2,1.5-0.2,2.9,0.4,4.3
		c0.2,0.7,0.4,1.4-0.4,2.1c-0.5,0.5-0.6,1.2-1.5,1.5c-0.1-0.2-0.2-0.5-0.2-0.7c-0.2-1.4-0.5-2.6-0.7-4c-0.1-0.4-0.4-0.7-0.6-1.1
		c0.1,0.9-0.1,1.7,0.4,2.5c0.1,0.1,0.1,0.5,0,0.7c-0.1,0.9-0.1,1.9-0.2,2.7c0,0.6-0.4,0.7-0.9,1c-0.6,0.2-1.1,0.1-1.5-0.5
		c-0.2-0.5-0.5-1-0.7-1.6c-0.2,0.2-0.5,0.5-0.7,0.7c-0.4-0.5-0.6-0.9-0.9-1.4c-0.2,0-0.5,0.1-0.9,0.2c-0.2-1.5-0.5-3-0.7-4.5
		c-0.5-3.1-1-6.2-1.4-9.2c-0.4-2.4-0.5-4.8-0.7-7.2c-0.2-2-0.5-4-1.2-5.8c-0.2-0.6-0.2-1.2-0.4-1.9c-0.1-2-0.4-4.1-1.4-5.8
		c-0.2,0-0.4,0.1-0.5,0.1c-0.1-0.1-0.1-0.2-0.1-0.2c0-0.6,0.1-1.2,0.1-1.7c0-0.2-0.1-0.6-0.1-0.6c-1-0.2-0.7-1-0.9-1.6
		s-0.4-1.2-0.7-1.9c-0.1-0.4-0.4-0.7-0.6-1.1c0.1-0.2,0.4-0.6,0.6-1c-0.4-0.5-0.7-1.1-1.1-1.7c1.4-0.7,0-2,0.5-3.1
		c0.4,0.4,0.6,0.6,1.1,0.9c0.2-0.9,0.2-1.6-0.2-2.2c-0.1-0.2-0.4-0.4-0.4-0.6c-0.1-0.5,0-0.9,0.7-0.7c-0.7-1,0.1-2.1-0.5-3.1
		c0.7,0.1,0.7,0.6,0.9,1c0.5,1.6,1,3.1,1.2,4.7c0.1,0.9,0.6,1.2,1.4,1.6c0-0.5,0.1-1,0.1-1.4c0.5-0.2,0.9-0.4,1.2-0.6
		c0.2,0.2,0.5,0.5,1,0.9C312.8,375.1,312.3,373.9,312.2,372.8L312.2,372.8z M322.7,411.3c0.1-0.4,0.2-0.5,0.2-0.6
		c-0.1-1.6-0.4-3.3-0.5-5c-0.1-0.6-0.4-0.7-1.2-0.4C321.5,407.3,321.9,409.3,322.7,411.3z M349.8,417.4c-0.1-0.7-0.4-1.1-1.1-1.1
		C348.5,417,348.7,417.5,349.8,417.4z"/>
	<path fill="#FFFFFF" d="M509.1,357.9c0,0.2-0.1,0.6-0.2,0.9c-0.5,1.2-0.4,2.5-0.2,3.7c0.4,0,0.7,0,1.2,0.1c0.1-1.1,0.1-2.2,0.2-3.2
		c0.1,0,0.1,0,0.2,0c0,0.5,0,1,0,1.4c0,0.6-0.2,1.4,0.5,1.9c0.1,0.1,0,0.4,0,0.6c0,2.6,0.1,5.2-0.4,7.8c-0.2,1.6-0.1,3.2-0.2,4.8
		c0,0,0.1,0.1,0.2,0.2c0.4-0.9,0.5-1.7,0.6-2.5c0.1-1,0.1-2,0.2-3c0.2-1.5,0.5-2.9,0.7-4.3c0.1-0.9,0.5-1.9,0.2-2.9
		c-0.1-0.2,0-0.6,0-0.7c0.6-1,0.5-2.1,0.7-3.1c0.1,0.2,0.2,0.4,0.2,0.6c0,0.4,0,0.9,0,1.2c-0.2,2.5-0.5,5-0.7,7.4
		c-0.1,0.7-0.2,1.5-0.4,2.2c-0.2,1.5-0.5,3.1-0.7,4.7c0.5-0.1,0.9-0.1,1.4-0.1c-0.4,0.4-0.7,0.7-1.1,1.1c0,1.1,0,2.4,0,3.6
		c1.9-0.7,2.9,0.2,3.7,1.5c-0.2,0.4-0.5,0.7-0.9,1.2c0.6,0,1,0,1.4-0.1c0.1,0.5,0.4,0.9,0.5,1.4c-0.2,0.1-0.5,0.4-0.7,0.5
		c-0.9,0.4-1.6,0.6-2.1,1.5c-0.2,0.4-0.7,0.6-1.2,1c0.1,1.5,0.4,3.1,0.5,4.6c0.1,1.5,0.4,3.1,0.6,4.6c0.1,1.5,0.7,3.1,0.4,4.6
		c-1.1-4.3-2.1-8.8-2.5-13.4c-1,0.5-0.7,1.4-0.6,2.1c0.1,1,0.4,1.9,0.5,2.9c0.5,3.2,0.9,6.4,1.4,9.7c0,0.5,0,1-0.1,1.5
		c-0.1-0.6-0.4-1.4-0.5-2h-0.1c0,1.1,0.1,2.2,0.1,3.3c-1.1-0.1-0.5,1-1.1,1.4c-1-0.2-1.6,0.5-1.7,1.5c-0.5,0.2-0.7,0.4-1.1,0.5
		c-0.6,0.2-1.1,0-1.4-0.5c-0.5-1-1-1.9-1.5-2.9c-0.2-0.4-0.2-0.9-0.4-1.2c-0.2-1.1-0.5-2.4-1-3.5c-0.5-1-0.6-2.2-0.9-3.3
		c-0.4-1.9-0.6-3.7-0.9-5.6c0-0.4-0.1-0.7-0.2-1.1c-2.5,0.4-5.1,0.4-7.6,1.5c0.4,3.3,0.7,6.7,1.1,10c-0.7-0.6-0.5-1.5-0.6-2.1
		c-0.1-0.7-0.1-1.5-0.2-2.4c-0.1,0-0.1,0-0.2,0c0,0.9,0.1,1.7,0.1,2.6c-0.1,0-0.1,0-0.2,0c-0.1-1.6-0.2-3.1-0.4-4.7
		c0.1,0.2,0.4,0.5,0.5,0.9h0.1c-0.2-1.4-0.4-2.9-0.6-4.2h-0.1c0,0.5-0.1,0.9-0.1,1.4c-0.1-0.2-0.1-0.6-0.2-0.9
		c-0.1-0.2-0.1-0.5-0.4-0.7c-0.2,1.7,0.1,3.3,0.1,5.1c0.1,1.6,0.1,3.3,0.2,5c-0.1,0-0.1,0-0.2,0c-0.1-0.6-0.2-1.4-0.2-2.1
		c-0.5,0.2-0.4,0.6-0.4,0.9c0.1,0.5,0,0.9-0.5,1l0,0c-0.6,0.4-0.5,1-0.6,1.7c0.4-0.2,0.6-0.4,0.7-0.5l0,0c0.1,0,0.2,0,0.2,0
		c0.1,0.5,0.2,1.1,0.4,1.7c-0.1,0-0.2,0.1-0.2,0.1c-0.1-0.2-0.4-0.5-0.6-1c-0.6,1.9-1.7,3.2-1.9,5.2c-1.1-0.1-1-1.2-1.6-1.6
		c-0.4,0-0.9,0-1.4,0c-0.1-0.5-0.4-1.1-0.5-1.7c-0.5-2.5-0.9-5-1.2-7.4c-0.1-1.1,0-2.2-0.9-3.2c-0.2-1.6-1-3.1-0.9-4.8
		c0.1-1.6-0.1-3.2-0.1-4.8c0-1.6,0-3.2,0-4.8c0.1-2.2,0.2-4.5,0.4-6.7c0-0.4,0.1-0.9,0.2-1.2c1-2.9,1.1-5.7,1.4-8.7
		c0-0.2,0-0.4,0-0.6c0-0.2,0-0.4,0.1-0.6c0,0.2,0.1,0.4,0.1,0.6c-0.1,4.3-0.7,8.7-1.2,13c-0.2,1.6-0.5,3.3,0.2,5
		c0.1-1.2,0.1-2.6,0.4-3.8c0.4-2.9,0.9-5.7,1.1-8.6c0.4-3.2,0.4-6.6,0.2-9.9c0-1,0.1-2,0.6-3c0.2-0.5,0.2-1.2,0.1-1.9
		c0-0.7-0.1-1.4-0.2-2.1c-0.1-0.9,0.4-1.4,0.7-2c0.1-0.1,0.5-0.1,0.7-0.2c0,2.7,0.1,5.3,0.1,7.9c0.5-0.2,0.7-0.4,0.9-0.9
		c0-0.4-0.4-0.9,0.2-1.1c0.2-0.1,0.6-0.2,0.9-0.4c0.1,0,0.2-0.1,0.4-0.1c0.1,0.6,0.1,1.1,0.2,1.6c0.1,0,0.1,0,0.2,0
		c0.1-0.5,0.1-1,0.2-1.5c0.4,0.9-0.5,1.7,0.2,2.5c0.5,0.1,0.6-0.4,0.6-0.7c0-0.6-0.1-1.2-0.1-1.9c0-0.5,0.1-1,0.1-1.5
		c0.1,0,0.1,0,0.2,0c0,1,0.1,2,0.1,3.1c1.2,0.4,1.2,1.5,1.2,2.5c0,1.7,0,3.5,0,5.2c0,0.7,0,1.5,0,2.2c1-1.5,1.1-6.4,0.2-12.4
		c0.2,0.4,0.5,0.5,0.7,0.9c0-0.4,0-0.6,0.1-0.9c0.1,0,0.2,0,0.2,0.1c0.2,0.7,0.5,1.4,0.5,2.1c0,3.3,0,6.7-0.5,9.9
		c-0.4,2.1-0.5,4.2-0.9,6.3c-0.1,0.6-0.2,1.2-0.2,1.7c-0.1,1.1-0.1,2.2-0.2,3.5c0.6,0.2,1.4,0.2,2,0.1c1.5-0.1,3-0.2,4.3-0.4
		c-0.4,0.1-0.6,0.2-1,0.4c-1.6,0.2-3.2,0.4-4.8,0.6c-0.2,0-0.5,0.1-0.7,0.2c1.6,0.6,3.2-0.1,5.1,0.2c-1,0.7-1.9,0.1-2.6,0.4
		c-0.7,0.2-1.6,0.2-2.4,0.4c0,0.5-0.1,1-0.1,1.4c1.4,0.5,2.6,0.1,3.8,0c0.9-0.1,1.9-0.1,3-0.2c0-0.4,0.1-1,0-1.5
		c-0.2-0.5,0-1-0.1-1.6c0-0.1-0.2-0.1-0.2-0.2c0.1-0.2,0.5-0.5,0.5-0.9c0.1-1.4,0.2-2.7,0.4-4c0-1.2,0-2.4,0.1-3.6c0,0.6,0,1.4,0,2
		h0.1c0.5-3.1,0.9-6.2,1.4-9.3c0,2.2,0,4.5-0.4,6.7c0.2-0.5,0.7-2.4,0.7-2.9c0.1-1.6,0-3.2,0.7-4.7c0.1-0.2,0.1-0.6,0.1-1
		c0-0.5,0.2-0.9,0.6-1.2c0,0.4,0,0.9,0.1,1.5c0.6-0.7,0-1-0.1-1.4c0-0.4,0-0.7,0-1c0.2-0.7,0.1-1.5-0.1-2.2c-0.1-0.4,0-0.9,0.1-1.4
		c0.1-0.2,0.5-0.4,0.9-0.6c0.1,0.6,0.4,1,0.4,1.4c0,1-0.2,2.1-0.4,3.1c-0.1,0.7-0.2,1.4,0.5,1.9c0.2,0.2,0.4,0.7,0.5,1.1
		c0.1,0.2,0.2,0.5,0.4,0.7c0.1,0,0.2,0,0.4,0c0.1-0.4,0.1-0.7,0.2-1.1c0-0.4,0-0.7,0.1-1c0.5-0.7,0.9-1.5,1-2.4
		C508.8,358,509,358,509.1,357.9L509.1,357.9z M510.2,379.2c0.1,0,0.2,0,0.5,0c0-0.4-0.1-0.7-0.1-1.1c-0.1,0-0.2,0-0.4,0
		C510.1,378.5,510.1,378.8,510.2,379.2z M511.6,399.3c-0.1,0-0.1,0-0.2,0c0,0.5,0.1,1,0.1,1.5c0.1,0,0.1,0,0.2,0
		C511.8,400.2,511.7,399.8,511.6,399.3z M493.3,375.4C493.3,375.4,493.2,375.4,493.3,375.4c-0.1,0.5-0.2,1-0.2,1.5
		c0.1,0,0.1,0,0.2,0C493.2,376.3,493.3,375.9,493.3,375.4z M493.8,371.5h0.1c0.1-0.2,0.1-0.6,0.2-0.9c-0.1,0-0.1,0-0.2,0
		C494,370.9,493.8,371.3,493.8,371.5z M492.6,381.9c0.1,0,0.1,0,0.2,0.1c0-0.4,0-0.7,0.1-1.1h-0.1
		C492.7,381.3,492.6,381.6,492.6,381.9z M493.1,378.6h0.1c0-0.2,0-0.5,0-0.7c0,0,0,0-0.1,0C493.1,378.1,493.1,378.3,493.1,378.6z"/>
	<path fill="#FFFFFF" d="M460.1,369.4c0.4,0.2,0.6,0.5,1,0.7c-0.6,0.6-0.1,1.1,0.2,1.4c2,1.9,4.1,3.6,6.1,5.3l0.1-0.1
		c-0.6-0.6-1.1-1.2-1.7-1.9c0.6,0.1,1.1,0.5,1.5,1c0.4,0.4,1.1,0.1,1.1,0.7c0.4-0.5,0.7-0.9,1-1.4c0.2-0.5,0.4-1,0.5-1.5
		c0.2-1.2,0.5-2.4,1.6-3.1c0.4-0.2,0.9-0.7,0.5-1.5c-0.1-0.2,0.1-0.6,0.2-0.9c1.1-1.5,1.6-3,1.6-4.8c0-0.1,0.2-0.2,0.4-0.4
		c0.4,1.1,0.4,1.1,1.6,0.7c-0.4,0.6-0.5,0.7-1.7,1.2c0.1,0.2,0.4,0.5,0.4,0.7c0.1,0.5,0.7,1-0.1,1.5c-0.1,0.1,0,0.5,0,0.9
		c0.1,0,0.2,0.1,0.4,0.1c0.2-0.4,0.6-0.7,0.9-1.1c0.2-0.4,0.5-0.9,0.7-1.2c0.1-0.2,0.2-0.5,0.1-0.7c-0.1-1.6,0-1.6,0.9-2.9
		c0.5-0.6,1.5-1.1,1.4-2.1c0.7-0.4,0.9,0.5,1.4,0.7c0.7-0.4,1.6-0.9,2.5-1.4c0.1,0.4,0.1,0.7,0.2,1.2c-0.6,0.2-1.4,0.4-1.1,1.4
		c-0.5,0.4-0.4,1.1-1,1.4c-0.5,0.2-0.6,1-0.9,1.5c-0.6,1.5-1.4,2.9-1.2,4.6c0.6-0.2,1.2-0.4,1.6-1c0.1-0.2,0.7-0.2,1.1-0.4
		c0.2,0.4,0.4,0.7,0.6,1v0.1c-0.9,0.7-0.1,2.1-1,3c0.4-0.1,0.7-0.4,1.1-0.6c0.1,0.5,0.2,1.1-0.2,1.1c-0.6,0.1-0.9,0.6-1.4,1
		c-1.6,1.5-1.9,3.5-2.5,5.3c-0.6,2-0.2,4-0.5,6c-0.4,2.7-0.6,5.5-1,8.3c-0.1,0.9-0.4,1.6-0.2,2.5c0.1,0.5-0.4,1-0.6,1.6
		c-0.4-1.6-0.1-3,0.1-4.3c0.4-2.5,0.7-4.8,1-7.3c0.1-1.2,0.1-2.5,0.2-3.6c0.1-0.5-0.1-0.6-0.5-1c-0.1,0.2-0.2,0.5-0.2,0.7
		c-0.1,1.4-0.4,2.9-0.5,4.2c0,0.4,0.2,0.7,0.4,1.1c-0.1,0.1-0.5,0.2-0.5,0.5c-0.2,2-0.4,4-0.6,5.8c-0.4,2.1-0.4,4.3-1.6,6.2
		c-1,1.7-1.1,3.6-1.6,5.5c-0.2,0.9-0.1,1.7-0.2,2.6c-0.2,1.4-0.6,2.6-1,4c-0.4,1.1-0.6,2.2-1,3.3s-1.1,1.9-2.4,1.9
		c-0.4,0-0.7,0.4-1.4,0.6c0.1-0.2,0.4-0.5,0.4-0.6c0-0.2-0.1-0.6-0.4-0.7c-0.7-0.1-1.5-0.6-2.1,0.4c-0.6-0.5-0.9-1.4-1.9-1.1
		c0.2-0.2,0.5-0.4,0.7-0.7c-0.7-0.6-1.1-1.4-1-2.4c0.1-0.7-0.1-1.5,0.7-2.1c0.1,0,0.2,0.1,0.4,0.1c1.1,0.4,1.4,0.2,1.5-1
		c0.1-0.7,0.2-1.6,0.4-2.6c-0.4,0.2-0.5,0.4-0.7,0.5c-0.2-1-0.2-1.9-0.5-2.9c-0.2-0.6,0-1.5,0.2-2.1c0.4-0.7,0.1-1.4,0.1-2
		c0.2-0.4,0.6-0.7,0.6-1.1c0.4-2.2,0.7-4.5,1-6.7c0.1-1.2-0.5-2.2-1.4-2.9c-3.5-2.7-6.7-5.7-9.7-8.9c-2.1-2.2-4-4.8-5.8-7.3
		c-1.1-1.5-2.2-3.2-3.2-4.8c-0.4-0.6-0.6-1.2-0.7-1.9c-0.1-0.9-0.6-1.5-1-2.2c-0.2-0.5-0.5-1.1-0.9-1.9c0.7,0,1.2,0.1,1.9,0.1
		c0.1,1.5,1.9,0.9,2.6,1.9c0.4-1,0.4-1.9-0.1-2.6c-0.4-0.5-0.7-1-1.2-1.4c-0.6-0.6-1.1-1.1-0.9-2.1c1-0.2,2-0.1,2.9,0.7
		c0.5,0.5,1,1.1,1.6,1.2c1,0.2,1.6,0.9,2.1,1.7c1.5,0.4,2,2,3,2.9c0.2,0.2,0.5,0.5,0.9,0.7c0.1,0,0.1-0.1,0.2-0.1
		c0-0.2-0.1-0.6-0.2-1c0.2,0,0.5-0.1,1-0.2c-0.6,0.9-0.2,1.4,0.5,1.9c-0.4,0.1-0.5,0.2-0.7,0.4c0.1,0.1,0.4,0.4,0.5,0.4
		c0.6-0.2,1,0.1,1.4,0.6c0.6,0.6,1.4,1.2,2.2,1.7C460.2,369.8,460.2,369.5,460.1,369.4L460.1,369.4z M471.5,373.7
		c-0.1,0-0.2,0-0.4,0c0.6,0.9-0.5,1.5-0.2,2.4c0.5-0.4,0.2-1.5,1.2-0.9c0.1-0.4,0.2-0.6,0.2-0.9C472.1,374.2,471.8,374,471.5,373.7z
		 M459.6,370.5c0.1-0.1,0.1-0.1,0.2-0.2c-0.4-0.2-0.6-0.4-1-0.6c0,0.1-0.1,0.1-0.1,0.2C459,370.1,459.2,370.4,459.6,370.5z
		 M450.9,364.1c0.1-0.1,0.1-0.1,0.2-0.2c-0.2-0.1-0.5-0.4-0.7-0.5l-0.1,0.1C450.4,363.7,450.7,363.9,450.9,364.1z M462.1,373.4
		c0.1-0.1,0.2-0.2,0.2-0.2c0-0.1-0.1-0.2-0.2-0.2s-0.2,0.1-0.4,0.2C461.9,373.1,462,373.2,462.1,373.4z M473.4,371.6L473.4,371.6
		c0.1-0.2,0.1-0.5,0.1-0.9c0,0,0,0-0.1,0C473.4,371.1,473.4,371.4,473.4,371.6z"/>
	<path fill="#FFFFFF" d="M203.8,412.3c0.7-0.9,1.6-0.7,2.6-0.7c0.2,0,0.5,0,0.6,0c0-0.1,0-0.2,0-0.2c-0.5-0.1-1.1-0.1-1.6-0.2
		c-0.4-0.1-0.6-0.4-1-0.5c-0.5-0.2-1-0.5-1,0.6c-0.4-0.5-0.6-0.9-1.1-1.4c0.7,0,1.2,0,1.9,0s1.2,0.1,1.9,0.1c0.7,0,1.5,0.1,2.1,0.6
		c0.9,0.7,2,0.5,3,0.4c0.5,0,1,0,1.5,0c0.2,0,0.6,0,0.7-0.1c0.6-0.4,1.2-0.2,1.9-0.4c1-0.2,2-0.1,2.9,0.4c0.2,0.1,0.7,0.1,1.1,0.1
		c0.5,0,0.9-0.2,1.5-0.4c-0.1,0.4-0.2,0.5-0.4,0.7c0.6,0.6,1.1,0,1.6-0.1c-0.9,2-2.5,2.5-4.2,2.9c-0.2,1.1-0.1,1.2,1.5,1v0.1
		c-0.1,2,0.1,1.6,1.9,1.1c0,0.4,0.1,0.9,0,1c-0.6,0.5-0.5,1.5-1.4,1.7c-0.1,0-0.1,0.1-0.2,0.1c-0.4,1.1-1.4,1.1-2.2,1.4
		c-2.2,0.7-4.6,0.7-6.8,1.1c-0.2,0-0.5,0-0.6,0c-3-0.4-6-0.7-8.9-1.2c-0.7-0.1-1.5-0.5-2.2-0.7c-0.2,0-0.4,0-0.7,0
		c-0.1,0.2-0.2,0.5-0.4,0.9c-0.2-0.5-0.5-0.9-0.7-1.4c-1,0.1-1.5-0.6-2-1.5c0.6-1,0.1-1.9-0.2-2.9c0.4-0.1,0.7-0.2,1-0.5
		s0.1-0.7,0.2-1.1c0-0.4,0.1-0.9,0.1-1.2c0-0.9,0.1-1.7,0.1-2.7c0-1.6-0.1-3.2-0.2-5c0-0.4,0-0.9-0.4-1.1c-0.2-0.2-0.1-0.6-0.2-1.1
		c-0.7,0-1.4-0.1-2.4-0.1c0.6-0.2,1-0.4,1.5-0.5c-0.7-0.7-0.9-1.5,0-2.2c-0.5,0-1.1,0-1.7,0c0.9-0.6,2.1,0.2,2.9-1.2
		c-0.2-0.1-0.6-0.2-0.7-0.4c0-0.4,0-0.5,0-0.5c0.7-0.2,0.6-1,0.6-1.5c-0.1-2.1,0-4.1,0.2-6.2c0.1-1,0-2.1-0.1-3.1
		c-0.9,1.5-1.1,3.1-1.6,4.7c0.2-1.1,0.4-2.4,0.6-3.5c0.2-1,0.6-1.9-0.5-2.5c-0.1-0.7-0.4-1.2-1.2-1.1c0,0.1,0,0.4,0,0.6
		c-0.2-0.2-0.6-0.4-1.1-0.7c0.4-0.2,0.6-0.4,1-0.6c-0.1-0.1-0.4-0.4-0.2-0.5c0.1-0.4,0.5-0.7-0.1-1.1c-0.2-0.1-0.6-0.2-1-0.4
		c0.9-0.4,1.6-0.9,2.5-1.1s1.9-0.2,2.7-0.6c-0.6-0.1-1.1-0.1-2-0.2c0.5-1,1-2,1.5-3c-0.9,0-1.6,0.1-2.4,0.1c0-0.1,0-0.2,0-0.2
		c0.9-0.1,1.7-0.2,2.7-0.4c0.1-0.1,0.2-0.2,0.2-0.5c0.4-0.7,1-1.1,1.7-1.1c1.5,0,3-0.4,4.5,0c0.1,0,0.2,0,0.2,0
		c1-0.7,2.2-0.4,3.3-0.6c1.1-0.2,2.1-0.4,3.2-0.6c0.7-0.1,1.7,0.1,2.5,0.2c1.1,0.1,2.2,0.2,3.2,0.4c0.2,0,0.4,0.1,0.7,0.4
		c-0.7,0.1-1.1,0.2-1.5,0.4c0.2,1,1.9,1.5,3.5,1.4c-0.7,0.2-1.5,0.5-2.2,0.9c-0.6,0.2-1.2,0.6-1.6,1.2c-0.2,0.4-0.2,1-0.4,1.5
		c1,0.6,1.9,0.7,2.9,0.5c0.5-0.1,1,0.2,1.7,0.5c-0.6,0.6-1.4,0.9-1.5,1.4c-0.2,0.9-1.1,0.5-1.4,1c0.1,0.9-0.1,1.2-1,1.4
		c-1.1,0-2.2,0.5-3.2,1c-1.2,0.6-2.6,1-4,1.2c-2.1,0.5-4.3,0.9-6.6,1.4c-0.2,0.7-0.9,1.5-0.1,2.4c0.1,0.1,0,0.5,0,0.7
		c0,0.6-0.1,1.4-0.1,2.2c1.6-0.2,2.9-0.5,4.2-0.7c0.9-0.1,1.6-0.2,2.5-0.1c2.4,0.2,4.6,0,6.7-1.1c0.4,0.2,0.7,0.4,1.2,0.6
		c-1.1,0.7-2.2,1.4-3.3,2.1c-0.1,0.4-0.1,0.9-0.1,1.2s0.1,0.7,0.2,1.2c0.9-0.1,1.6-0.1,2.4-0.2c0.1,0.2,0.4,0.6,0.7,1
		c-0.2,0.2-0.5,0.5-0.7,0.7c-0.7,0.6-1.7,0.9-2,2c0,0.1-0.1,0.1-0.1,0.2c-1.6,0.6-2.7,2-4.3,2.4c-2.2,0.6-4.5,1.6-6.8,1.7
		c-0.4,0-0.6,0.1-1.1,0.4c0,1.2,0.1,2.4,0.6,3.6c0.5,1,0.4,2,0.2,3c-0.4-1.1-0.7-2.4-2-3c0,0.7-0.1,1.5-0.1,2.2
		c-0.7-1.9,0.4-3.7-0.1-5.6c-0.2,0-0.5-0.1-0.7-0.1c0,2.2-0.1,4.5-0.1,6.6c0.9,0.7,1.7,0.1,2.6,0.6c0.7,0.4,1.7,0.2,2.7,0.2
		C203.7,411.9,203.7,412.1,203.8,412.3c-0.2-0.1-0.4-0.4-0.6-0.4c-0.7,0-1.5,0-2.2,0.1c0,0,0,0,0,0.1
		C202,412.2,202.8,412.3,203.8,412.3z M199.4,388c-0.1,0-0.1,0-0.2,0c-0.2,0.5-0.5,1-0.6,1.6c-0.5-0.5,0.2-1.1-0.6-1.5
		c-0.4,2,0.2,3.7,0.2,5.6c1-0.2,1-1,1.1-1.5C199.5,390.7,199.4,389.4,199.4,388z M200,391.5c-0.1,0.1-0.1,0.1-0.2,0.2
		c0.1,0.1,0.2,0.4,0.4,0.5c0,0,0.1-0.1,0.2-0.1C200.4,391.8,200.1,391.7,200,391.5z M207.3,411.1c0-0.1,0-0.1,0.1-0.2
		c-0.1-0.1-0.4-0.2-0.5-0.2c0,0.1-0.1,0.2-0.1,0.4C206.9,410.9,207.1,410.9,207.3,411.1z"/>
	<path fill="#FFFFFF" d="M420.8,395.2c1.7-0.5,1.2-2.5,2.2-3.3c0.7-0.2,0.5,1.2,1.5,0.6c1.1-2.7,1.4-5.8,1.7-8.8
		c0.2-2,0.6-4,0.9-6.1c0.1-0.6,0-1.4-0.1-2c-0.1-0.5,0.1-0.9,0.4-1.4c-0.5-0.2-0.9-0.5-1.4-0.7c0.1-0.6,0.1-1.2,0.2-2
		c1.4,0.5,2.6,1,4.1,1.5c1.1-0.2,1.1-1.2,1.4-2.4c0.2,0.2,0.4,0.4,0.5,0.5c0.1,0.1,0.2,0.2,0.5,0.5c0.4-0.6,0.7-1.1,1.1-1.7
		c0.2,0.1,0.4,0.2,0.6,0.4s0.5,0.5,0.7,0.5c0.6,0.1,1.1,0.4,1.2,1.1c-0.4,0.4-0.9,0.7-1.2,1.1c0.4,0.6,0.4,0.6,1.1,0.6
		c0,0.2-0.1,0.6-0.1,0.9c0.2,0.1,0.6,0.4,1.2,0.7c-0.5,0-0.7,0.1-1,0.1c0.1,0.5,0.1,0.9,0.2,1.4c0.1,0.4,0.4,0.6,0.9,0.6
		c1.2,0,1.4,0.1,1.1,1.2c0.7,0.9,1.4,1.6,2,2.5c0.2,0.4,0.4,1,0.6,1.4c0.1,0.2,0.4,0.6,0.5,0.9c-0.2,0-0.6,0.1-1.2,0.2
		c0.9,0.7,1,1.9,2.1,2.2c0.2,0.1,0.4,0.7,0.5,1.1c0.2,0.9,0.4,0.9,1.4,0.5c0.1,0.2,0.2,0.6,0.5,1.1c0.2-0.6,0.5-1,0.7-1.6
		c0.7,1.4,1.9,1.1,3.1,1c1.2-0.2,2.6-0.1,3.8,0.4c-1,0.4-1,0.4-2,0.1c-0.9-0.1-2.6,0.1-3.7,0.6c0.2,0.2,0.5,0.5,0.6,0.5
		c0.6,0,1,0.2,1.1,1c-0.7,0-1.6-0.2-1.7,0.6c-0.1,0.9-0.6,0.9-1.2,0.7c-0.2,1,0,1.9,0.2,2.7c0.1,0.6,0.6,1,1.1,0.9
		c1.1-0.1,1.7,0.4,2.4,1.1c0.6,0.7,1.6,0.9,2.6,1.4c-0.9,0-1.5,0-2.1,0c0,0.1,0,0.1,0,0.2c0.4,0.1,0.9,0.2,1.4,0.4
		c0,0.4,0,0.6-0.1,1c-0.6,0-1.1,0-1.6,0c-0.2,0.4-0.4,0.9-0.6,1.1c-0.7,0.5-0.6,1-0.4,1.6c0.5,1,1,2,1.4,3c0.1,0.4,0.1,0.7,0.2,1.1
		c0.2,1.4,0.7,1.9,2,2.1c-0.4,1,0.7,1.6,0.9,2.7c-0.6-0.2-1-0.4-1.4-0.5c-0.4,1-0.7,1.9-1.2,2.9c-1,0.1-1.6-0.9-2.1-1.7
		c-0.7-1.2-1.4-2.5-1.9-3.8c-0.7-2-1.5-4-2.2-6.1c-0.4,0-1,0.1-1.5,0.1c-2.7,0.5-5.5,0.9-8.2,1.4c-0.7,0.1-1.1,0.4-1.4,1.1
		c-0.6,2-1.2,3.8-2,6.1c-0.1-0.6-0.1-0.9-0.1-1.2c-0.7,1.4-1.4,2.7-2,4.1c-0.7-0.2-1.1,0-1.2,0.6c-0.2,1-0.9,1.4-1.7,1.4
		c-0.1,0-0.4,0-0.5,0.1c-0.6,0.7-1.2,0.2-1.7-0.1c-0.1,0.1-0.2,0.2-0.7,0.6c0.1-0.7,0.2-1.2,0.4-1.7c-0.4,0-0.7,0-1.1-0.1
		c-0.4-1.9,1.1-3.5,0.4-5.5c-0.6,0.9-1,1.6-1.5,2.4c-0.5-1-0.7-2.1-0.2-3.2c0.6-1.4,0.7-2.9,1.2-4.3c0.6-1.7,0.5-1.7-0.6-3.2
		c0-0.7,0.1-1.5,0.2-2.5c0.5,0.2,1,0.4,1.5,0.6c0.1-0.2,0.2-0.9-0.2-0.9c-1,0-1.4-0.6-1.7-1.4C421.1,395.6,420.9,395.4,420.8,395.2z
		 M437.8,383.4c-0.1,0-0.2,0.1-0.4,0.1c-0.2,2.2-0.6,4.5-0.9,6.8c1.2-0.4,2.1-0.6,3.2-1c-0.5-0.2-0.9-0.5-1.2-0.7
		c0.5-0.4,0.9-0.6,1.1-1C439,386.3,438.4,384.8,437.8,383.4z M433.2,372.1c0.1,0,0.1,0.1,0.2,0.1c0.2-0.2,0.6-0.4,0.7-0.6
		c0.1-0.1-0.1-0.5-0.2-0.7c-0.2,0.1-0.5,0.1-0.6,0.2C433.3,371.4,433.3,371.8,433.2,372.1z M438.9,392.8c-1,0.2-1.9,0.5-2.6,0.6
		C437.4,393.7,437.7,393.7,438.9,392.8z M445.9,388.5c0,0.5-0.1,1-0.1,1.5c0.2-0.1,0.4-0.2,0.6-0.2
		C446,389.5,446.8,388.9,445.9,388.5z M433.3,374.7c0.1,0,0.2,0,0.4,0.1c0-0.4,0-0.7,0.1-1.1c-0.1,0-0.1,0-0.2,0
		C433.6,374,433.5,374.4,433.3,374.7z"/>
	<path fill="#FFFFFF" d="M161.6,410.2c0.6,0.9,0.7,2,1,3c0.2,1.1,0.5,2.4,0.6,3.5c0.1,0.5,0.1,1.1,0.1,1.6c-0.1,0-0.2,0-0.4,0
		c-0.2-1.1-0.4-2.2-0.6-3.5c-1,0.2-1.1,0.4-1,1.1c0.1,0.9,0.4,1.6,0.5,2.4c0.1,1.2,0.4,2.6,0.4,4c-0.6-2-0.9-4-1.4-6.1
		c-0.2,0.1-0.2,0.2-0.2,0.2c0.1,1.2,0.1,2.5,0.2,3.6c0.1,1.1,0.5,2.1,0.6,3.2c0.1,0.6,0.1,1.4-0.6,1.9c-0.2,0.1-0.4,0.5-0.5,0.7
		c-0.4,0-0.7,0.1-1.2,0.1c-0.4-0.6-1.2-0.9-1.5-1.7c-0.4-1.6-0.7-3.2-1.1-4.8c-0.1-0.4-0.2-0.6-0.4-1.1c-0.2,0.2-0.4,0.4-0.5,0.5
		c-0.6-1.4-1.4-2.9-2-4.2c0.4,1.2,0.1,2.6,1.2,3.5c-1,1.6,0.5,2.9,0.4,4.3c-0.2,0-0.5-0.1-0.6-0.5c-0.6-2.4-1-4.8-2.1-7.2
		c-0.2-0.5-0.2-1-0.4-1.5c-0.1-0.4-0.4-0.6-0.7-0.5c-1.4,0.4-2.9,0-4.2,0.1c-1,0.1-2,0-2.9,0c-0.4,2-0.7,4.1-1.4,6.1s-0.5,4.1-1.5,6
		c-0.2-0.6-0.4-1-0.6-1.6c-0.4,0.4-0.5,0.6-0.7,0.9c-0.6,0.5-1.1,0.4-1.6-0.2c-0.7-1.1-0.5-2.4-0.6-3.5c0-0.9,0-1.6,0-2.5
		c0.1-0.9,0.2-1.6,0.4-2.5c0.1-0.6,0.2-1.2,0.5-1.9c0.5-1.6-0.4-2.7-1.5-3.7c-0.2-0.2-0.5-0.2-0.7-0.5c-0.6-0.6-0.5-1.7,0.2-2.2
		c0.4-0.2,0.7-0.5,1.1-0.7c-0.1-0.4-0.2-0.7-0.4-1.1c0-0.2-0.1-0.5-0.1-0.7c0.1-0.1,0.2-0.1,0.4-0.1c0.5,0,1.4,0.1,1.6-0.1
		c0.5-0.6,1.1-1.4,1.1-2.2c0-0.2,0-0.4,0.1-0.6c-0.2-0.1-0.4-0.2-0.6-0.2l0.1-0.1c0.7,0.1,0.9-0.5,1.1-0.9c0.9-2.2,1.6-4.3,2.4-6.6
		c0.4-1,0.5-2.1,0.9-3.1c0.4-0.9,0.5-2,1.6-2.5c0.2-0.1,0.5-0.6,0.6-1c0.2-0.6,0.2-1.1,1-1.5c0.4-0.2,0.6-1.1,0.5-1.9
		c-0.1-2.2-0.1-4.6-0.2-6.9c0.9,0.5,0.4,1.6,1.1,2.2c0.1-1.2,1.1-1.5,2-1.7c0.5,0.6,1,1.4,1.5,2c0.2-0.2,0.4-0.4,0.6-0.6
		c0.4,0.6,0.6,1.1,0.9,1.7c-0.1-0.1-0.4-0.2-0.5-0.2c0,0.2,0,0.4,0.1,0.6c0,0.1,0.2,0.1,0.4,0.1c0.4,0.6,0.6,1.2,0.4,2
		c-0.2,0.6,0,1.2,0.2,1.9c0.4,1.1,0.6,2.2,0.9,3.3c0.6,2.9,1.4,5.7,2,8.6c0.2,1.1,0.4,2.2,0.6,3.3c0.4,0,0.6,0,0.9,0.1
		c0-0.1,0.1-0.1,0.1-0.1c-0.6-3.7-1.4-7.4-2-11.2c0.1,0,0.1,0,0.2,0c0.2,1.2,0.5,2.4,0.7,3.6c0.6,2.9,1.2,5.6,1.9,8.4
		c0.1,0.7,0.6,0.5,1.4,0.1c-0.4,0.4-0.5,0.5-0.7,0.7c0.4,0.1,0.7,0.1,1.5,0.2c-0.6,0.4-1.1,0.6-1.6,0.9c0.1,0.6,0.2,1.2,0.4,2
		c0.7-0.1,1.5-0.1,2.2-0.2c0.2,0.9-0.9,0.1-0.9,0.7c0.4,0.2,0.9,0.5,1.2,0.7C162.5,407.5,161.2,408.3,161.6,410.2
		c-0.2-0.4-0.4-0.7-0.7-1.2c-0.1,0.4-0.4,0.7-0.2,1c0.4,1.1,0.7,2.2,1.1,3.5c0.6-0.5,0.1-1.1,0.1-1.7
		C161.7,411.1,161.6,410.7,161.6,410.2z M149.9,396.9c-1.4,1-0.4,2.2-0.7,3.5c-0.2-0.6-0.4-1-0.5-1.2c-0.2,1.2-0.6,2.4-0.9,3.6
		c0.7-0.2,1.4-0.5,2-0.6c0.6-0.2,1-0.6,0.9-1.2C150.4,399.5,150.1,398.3,149.9,396.9z M160.1,403.3c-0.5,0.1-1,0-0.9,0.7
		c0.1,0.7,0.2,1,1.2,1.1C160.2,404.6,160.2,404,160.1,403.3z"/>
	<path fill="#FFFFFF" d="M165.5,387c-0.2,0.4-0.2,0.5-0.4,0.7c-0.2-1.1,0.4-2.2-0.7-2.9c1.1-0.7,0.7-1.9,1-3.2
		c0.6,1,0.7,2.1,1.7,2.6c-0.5-0.7-0.7-1.4-0.1-2.2c0.2-0.4-0.1-1-0.2-1.5c-0.1-0.5-0.2-0.9-0.4-1.2c0.5-0.2,0.9-0.2,1,0.2
		c0.2,0.6,0.5,1.2,0.6,2c0.1,0.7,0.2,1.5,0.5,2.2c0.5,0.2,0.9,0.4,1.2,0.6c0.4-0.9,0.4-0.9,0.5-2.4c0,0.2,0.1,0.5,0.1,0.9
		c0,1.5,0.4,2.9,1,4.1c0.4,0.7,0.6,1.5,0.9,2.4c0.2,0.5,0.2,1,1,1.2c0.5,0.1,0.6,0.6,0.7,1.1c0.7,1.4,0.6,2.9,1.6,4.1
		c0.5,0.6,0.6,1.5,0.7,2.2c0.1,1,0.5,1.9,1.2,2.5c-0.2,0.1-0.5,0.2-0.7,0.4c0.5,0.9,1,1.6,1.4,2.5c0.2,0.9,0.2,1.9,0.2,2.7
		c0.1,0,0.2,0,0.4,0c0.2-0.5,0.5-1,0.6-1.6c0.2-1.2,1.1-2.5,1-3.8c0-0.1,0.2-0.4,0.4-0.5c0.7-1.2,1.4-2.5,1.7-3.8
		c0.2-0.7,0.4-1.6,1.1-2.1c0.2-0.1,0.4-0.5,0.5-0.7c0.4-0.9,0.6-1.7,1.1-2.5c0.9-1.6,0.9-3.3,0.9-5c0-1,0.2-1.5,1.1-2
		c0.2,0.5,0.6,0.9,1,1.6c0.9-2.1,1.7-3.8,2.5-5.7c0.5,1.2,0.5,2.4-0.2,3.6c-0.4,0.6-0.4,1.6-0.5,2.5c0,0.1,0.5,0.5,0.5,0.4
		c1-0.6,1.6,0.2,2.4,0.5c0.1,0,0.2,0.1,0.4,0.1c0.2-0.2,0.5-0.6,0.7-0.9c0.1,0,0.1,0.1,0.2,0.1c0,0.2,0.1,0.5,0,0.6
		c-0.6,2.4-1.1,4.6-1.9,6.9c-0.4,1.1-1,2.1-1.5,3.1c-0.1,0.4-0.2,0.7-0.4,1.1c-0.6,1.2-1.2,2.5-1.9,3.8c-0.6,1.1-1.1,2.4-1.6,3.5
		c-0.6,1.2-1.2,2.5-1.7,3.8c-0.9,2.1-1.7,4.2-2.5,6.2c-0.1,0.2-0.1,0.5,0,0.7c0.6,1,0.2,2.2,0.5,3.2c0,0.2-0.1,0.5-0.1,0.7
		c-0.5,0.1-1,0.2-1.2,0.2c-0.6,0.7-1.1,1.2-1.5,1.7c-0.2,0.4-0.5,0.9-0.6,1.4c-0.2,0.7-0.4,1.5-0.5,2.2c-0.1,0-0.1,0-0.2,0
		c0-0.4,0.1-0.9,0.1-1.2c-0.7,0-0.7,0.4-0.7,0.7c-0.2,0.9-0.4,1.9-0.6,2.7c-0.1,0.2-0.4,0.6-0.6,0.7c-1.1,0.4-2.4,0.7-3.6,1.1
		c-1.2-0.6-0.5-1.6-0.1-2.6c-1,0-0.7-1.1-1.4-1.5c-0.1,0,0-0.4,0-0.5c0.7-0.7,0.9-1.9,1.5-2.9c0.4-0.6,0.6-1.4,0.5-2.2
		c0-0.2-0.1-0.5-0.1-0.7c-0.1-0.4-0.2-0.7-0.5-1.1c-0.2,0.2-0.5,0.5-0.9,0.9c-0.1-1,1-1.7,0.4-2.7c-0.4,0.1-0.6,0.4-0.9,0.5
		c0-0.1-0.1-0.1,0-0.2c0.7-1.2,0.2-2.4-0.1-3.5c-0.7-2.6-1.7-5.1-2.5-7.7c-0.7-2.5-1.4-5.1-2-7.6c-0.1-0.5-0.4-1-0.5-1.6
		c-0.4-1.4-0.7-2.7-1.1-4.1c0.9-1-0.5-2.1,0.1-3.2C165.9,388.4,165.6,387.8,165.5,387z M171,388.5c0,0.5,0,0.9,0.1,1.2
		c0.5,2.1,1.9,3.8,2.7,5.7c-0.4-1.5-0.6-3.1-1-4.6C171.5,390.7,172,389.2,171,388.5z M170.7,387.6c0-0.2,0.1-0.4,0-0.4
		c-0.1-0.1-0.2-0.1-0.2-0.2C170.5,387.3,170.6,387.4,170.7,387.6z M176.6,405.2l0.1-0.1c-0.1-0.2-0.2-0.4-0.4-0.6c0,0-0.1,0-0.1,0.1
		C176.4,404.9,176.4,405.1,176.6,405.2z"/>
	<path fill="#FFFFFF" d="M295.1,383c0.4,0.4,0.6,0.9,1,1.2c1.5,1.4,2.4,3.2,3.2,5c0.1,0.1,0,0.4,0,0.5c-0.9,0-0.9,0-2.5-1.1
		c0.2,0.7,0.6,1.4,0.5,2.1c0,0.6-0.4,1.4-0.7,2.2c-0.9-1.1-1.6-1.9-2.4-2.7c-0.1-0.1-0.1-0.2-0.2-0.2c-1.2-0.6-2-1.7-2.9-3
		c-1.2,0.9-2.4,1.7-3.2,2.7c-0.4,2.5-0.7,4.8-1.1,7.2c-0.2,0-0.5,0.1-1,0.2c0.1,0.6,0.4,1.2,0.5,2.1c-0.4,0.9-0.4,1.2,0.7,2.7
		c-0.1,0.2-0.4,0.5-0.5,0.7l0.1,0.1c0.1-0.1,0.2-0.1,0.5-0.2c0,0.6,1.2,0.6,0.6,1.6c0.1,0.1,0.2,0.1,0.4,0.2
		c0.2,0.2,0.5,0.6,0.5,1.1c-0.4-0.1-0.6-0.4-1-0.5l-0.1,0.1c0.2,0.5,0.5,0.9,0.9,1.4c0.4,0.6,0.6,1.2,0.9,1.9c0.5,1,1.2,1.4,2.1,1.7
		c0,0,0.2-0.2,0.4-0.4l0,0c0.6,0.7,1.2,1,2.2,0.7c0.9-0.2,1.7-0.4,2.6-0.5c0.2,0,0.5,0,0.7,0c0.5,0,1,0.1,1.6,0.2
		c0.2-0.6,0.5-1.1,0.9-1.6c0.9,0.5,1,0.5,1.5-0.4c0.1-0.2,0.2-0.5,0.5-0.7c0,0,0.1,0,0.2,0c0,0.1,0,0.4,0,0.6c0.1,0,0.2,0,0.4-0.1
		c0.2-0.5,0.6-1.1,1-1.9c0,0.6-0.1,1.1-0.1,1.6c0,0.5-0.1,1-0.1,1.6c0.4,0.1,0.7,0.2,1.2,0.4c-0.2,0.7-0.5,1.5-0.7,2.5
		c0.5-0.4,0.7-0.6,1.1-0.7c0.4,0.1,0.7,0.2,1.1,0.4c0,0.4,0,1,0,1.5c0.1-0.1,0.4-0.1,0.5-0.2c0.1,0.9,0.1,0.9-0.4,1.5
		c-0.5,0.5-1,1-1.5,1.5c-0.7,0.7-0.7,0.7-0.1,1.7c0.1,0.1,0.1,0.2,0.2,0.5c-0.9,0.9-1.9,1.7-3.1,2.1c-1.6,0.6-3.3,1.4-5.2,1
		c-1.1-0.1-2.2-0.4-3.3-0.6c-0.6-0.1-1.1-0.5-1.5-1.1c-0.4-0.5-0.7-1.1-1.6-1c-0.7,0-2.6-1.5-3.1-2.2c-0.1-0.1-0.1-0.4-0.1-0.5
		c0.4-0.7,0-1.1-0.5-1.6c-1.1-1.2-2.1-2.6-3.3-4c0.5-0.1,0.7-0.2,1-0.2c-0.4-1-0.6-2-1-3.1l0,0c0.1,0,0.2,0.1,0.7,0.2
		c-0.4-0.5-0.6-0.9-0.9-1.2c-0.1-0.1-0.1-0.4-0.2-0.5c-0.1-0.2-0.2-0.6-0.4-0.6c-0.9-0.1-0.9-0.9-1.1-1.4c-0.5-1.6-1-3.1-1.4-4.7
		c-0.1-0.6-0.2-1.2-0.2-1.7c0.1-2,0.2-3.8,0.5-5.8c0.1-1.7,0.6-3.3,1.4-4.8c0.5-1.1,1.1-2.1,1.6-3.2c0.7-1.6,2-2.6,3.2-3.7
		c0.7-0.6,1.5-1.2,2.5-1.1c0.5,0.1,0.9,0.2,1.2,0.5c0.6,0.4,1.1,0.6,2,0.2c1.2-0.5,2.9,0.2,3.6,1.4l0,0c-0.5-0.2-1-0.5-1.5-0.7
		c-0.9-0.4-1.2-0.4-2.2,0c0.7,1.4,2,1.7,3.3,2.1c-0.4,0.1-0.6,0.2-1.1,0.4C294.1,382.7,294.5,383,295.1,383L295.1,383z M287,384
		c1.2-0.5,2.1-1.2,3-2.1c-0.4,0-0.6,0.2-0.9,0.2c-0.4,0.1-0.6,0.1-1.1,0.1C287.8,382.8,287.4,383.3,287,384z"/>
	<path fill="#FFFFFF" d="M265,410.9c0.4-0.6,0.4-1.6-0.1-1.9c-1-0.5-1-1.4-1.1-2.1c-0.5-2.7-0.9-5.3-1.4-8.1
		c-0.1-1.2-0.2-2.4-0.4-3.6c0.1,0,0.2,0,0.4,0c0.2,1.4,0.5,2.7,0.6,4.1c0.2,1.4,0.4,2.9,0.6,4.2c0.2,1.4,0.6,2.7,1,4.3
		c0.4-1.7-0.1-3.2-0.4-4.6c-0.4-1.9-0.6-3.8-1-5.7c-0.2-1.2-0.5-2.5-0.6-3.7c-0.1-0.9-0.2-1.7-0.4-2.6c-0.1-1.4-0.2-2.9-0.5-4.2
		c0-0.4-0.2-0.9-0.2-1.2c0-0.4,0-0.9,0.2-1.2c0.9,1.5,0.9,3.1,1.1,5c0.7-2-0.1-3.6-0.1-5.3c0-1.6-0.7-3.2-1.2-5.1
		c0.4,0.4,0.6,0.6,0.9,0.9c0.4-0.7-1-1.6,0.4-2.4c0.4,1.2,0.7,2.5,0.9,3.7c0.1,1.1,0.5,1.9,1.2,2.6c0.7-1.1-0.1-2.2,0.1-3.3
		c0.7,2.1,1.5,4.3,2.4,6.4c0,0.1,0.2,0.4,0.2,0.5c-0.4,1.2,0.5,2.2,0.9,3.3c0.2,0.9,0.4,1.7,0.5,2.6c0.1,0.5,0.1,1,0.4,1.4
		c0.2,0.4,0.6,0.7,1,1c-0.2-1.2-0.4-2.5-0.9-3.7c-0.6-1.5-0.6-3.2-0.9-4.8c0-0.2,0.2-0.5,0.4-0.9c0.5,1.6,1.4,3,1.9,4.6
		c0.4,1.4,0.6,2.6,1,4c0.1,0.6,0.2,1.4,0.4,2c0.5,2.1,1,4.2,1.5,6.3c0.4,1.9,0.5,3.7,0.9,5.6c0.2,1.6,0.5,3.3,0.7,5
		c0.1,0.6,0.1,1.1-0.6,1.5c-0.7,0.4-0.1,1,0,1.5c-0.1,0.1-0.4,0.2-0.5,0.4c-0.4,0-1-0.7-1.1-1.4c-0.1-0.6-0.1-1.2-0.2-1.9
		c0-0.2-0.2-0.6-0.4-0.9c-0.1,0-0.2,0-0.4,0c-0.1,0.7-0.1,1.4-0.2,2.1v0.1c0,0.6-0.1,1.2-0.1,2c0.1,0.9-1,0.7-1.1,1.4
		c-0.7-0.7-1.4-1.5-1.9-2.1c-0.7,0-1.4,0.1-2,0.1C265.1,415.2,264.8,413,265,410.9L265,410.9z"/>
	<path fill="#FFFFFF" d="M369.6,395.9c0.1,3.8,0.1,7.7,0.2,11.5c0.1,4.2,0.2,8.3,0.4,12.5c0,1.2-0.1,2.6,0.6,3.7c-0.4,0-0.6,0-1,0.1
		c-0.5-0.5-0.2-1.2-0.2-2c0.1-1.1-0.1-2.4-0.2-3.5c0-1.2,0-2.6,0-3.8c0-1.9,0-3.6,0-5.5c0-2.7-0.1-5.3-0.1-8.1
		c0-1.7,0.1-3.5,0.1-5.2C369.5,395.9,369.6,395.9,369.6,395.9z"/>
	<path fill="#FFFFFF" d="M87,417.8c-0.2,0.1-0.5,0.2-0.5,0.5c-0.4,0.9-0.6,1.9-0.9,2.7c-0.1,0.2-0.2,0.6-0.4,0.9
		c-0.1,0-0.1,0-0.2-0.1c0.1-0.4,0.1-0.7,0.2-1.1c0.4-1.2,0.7-2.5,1-3.7c0.2-1.2,0.2-2.6,0.4-3.8c0.2-1.7,0.5-3.3,0.7-5.1
		c0.9,0.1,0.5,0.9,0.6,1.2c0.1,0.5,0.2,0.9,0.5,1.5c-0.4,0.7-0.6,1.6-0.7,2.7c0,1.2-0.5,2.4-0.9,3.6C86.8,417.3,86.9,417.5,87,417.8
		L87,417.8z"/>
	<path fill="#FFFFFF" d="M153.7,376.8c-0.4,0-0.5,0.1-0.9,0.1c-0.1,0.4-0.1,0.6-0.2,1.2c-0.1-0.6-0.1-1-0.2-1.4c-0.4,0-0.7,0-1.1,0
		c0.6-1.2,0.4-1.5-0.4-2.2c0-0.4,0.2-0.9,0-1.1c-0.2-0.4-0.2-0.6,0.1-0.7c0.2-0.1,0.5,0.1,0.7,0.2c0-0.2,0-0.5,0-0.7
		c0.2,0.1,0.4,0.1,0.4,0.2c0.2,0.9,0.5,1.7,0.9,2.6C152.4,376,153.5,376.1,153.7,376.8z"/>
	<path fill="#FFFFFF" d="M478.2,355.8c-0.1,0.1-0.1,0.4-0.2,0.5c-0.1,0.1-0.2,0.2-0.4,0.5c0.2,0.1,0.4,0.1,0.6,0.2
		c0.5,0.2,0.5,0.6,0.1,0.9c-1.5,1-2.4,2.5-2.5,4.2c0,0.2-0.2,0.5-0.5,0.9c-0.1-0.2-0.4-0.4-0.4-0.5c0.1-0.9,0.4-1.6,0.6-2.5
		c0.4-0.9,0.7-1.7,1.1-2.6c0.4-0.7,0.7-1.4,1.1-2C478,355.6,478.1,355.8,478.2,355.8z"/>
	<path fill="#FFFFFF" d="M370.6,395.3c-0.1-0.2-0.1-0.5-0.1-0.7c0-1.7,0-3.5,0-5.2c0-0.2-0.1-0.5-0.1-0.9c-0.4,0.2-0.6,0.4-0.9,0.5
		c-0.1-1.9-0.2-3.7-0.5-5.7c1,0.7,0.6,1.6,0.6,2.4c0.1,0.7,0,1.5,0.1,2.4c0.1-0.4,0.1-0.7,0.2-1.4c0.1,0.6,0.1,0.9,0.1,1.1h0.1
		c0-0.4,0.1-0.7,0.1-1C370.8,389.5,371.2,392.5,370.6,395.3L370.6,395.3z"/>
	<path fill="#FFFFFF" d="M89.6,397.7c0,0.4,0,0.9-0.1,1.1c-0.4,0.6-0.2,1.1,0.5,1.6c-1.4,0.5-1.1,1.6-0.9,2.4c0.2,1-0.4,1.9-0.4,2.9
		c0,0.1,0,0.2-0.1,0.2c-0.9,0.1-0.9,1-1.5,1.5c0.1-2,0.1-2,0.6-2.5c0,0.2,0.1,0.5,0.2,1c0.1-0.2,0.2-0.4,0.2-0.5
		c0.2-1.4,0.4-2.7,0.6-4.1c0-0.1-0.1-0.4-0.2-0.5c-0.1-0.2-0.2-0.5-0.5-0.9c0.4,0,0.6,0,0.7,0c0.1-0.7,0.2-1.6,0.4-2.4
		C89.4,397.7,89.5,397.7,89.6,397.7z"/>
	<path fill="#FFFFFF" d="M367.9,411.6c0.6,2.4,0.2,4.8,0.5,7.3c0.2,0,0.5-0.1,0.7-0.1c0,0.1,0,0.2,0,0.4c-0.2,0.4-0.6,0.6-1,1.1
		c-0.1-0.6-0.2-1.2-0.2-1.7C367.9,416.1,367.9,413.8,367.9,411.6z"/>
	<path fill="#FFFFFF" d="M537.1,357.6c2.6-0.6,5.2-1.2,7.8-0.2c-0.5,0-1,0.2-1.5,0.1c-1.6-0.2-3.1,0-4.6,0.2
		c-0.5,0.1-1.1,0.1-1.6,0.2C537.1,357.9,537.1,357.8,537.1,357.6z"/>
	<path fill="#FFFFFF" d="M370.6,395.3c0.1,0.2,0.4,0.6,0.4,0.9c0,2.2-0.1,4.3-0.2,6.6c0,0.1-0.1,0.2-0.1,0.4
		C370.2,402.3,370.2,397.2,370.6,395.3L370.6,395.3z"/>
	<path fill="#FFFFFF" d="M364.1,348.1c0.6,0.4,1.1,0.7,1.7,1.1c0.2-0.5,0.4-1,0.6-1.6c1,0.6,0.1,1.9,0.9,2.6c-0.4-0.1-0.6-0.2-1-0.4
		s-0.7-0.2-1-0.4C364.6,349.4,364.3,348.9,364.1,348.1z"/>
	<path fill="#FFFFFF" d="M541.1,354.3c0.5-0.1,1.1-0.1,1.6-0.2c1.5,0,3.1-0.1,4.6,0c0.6,0,1.2,0.1,1.9,0.7
		C546.4,354.2,543.7,354.4,541.1,354.3z"/>
	<path fill="#FFFFFF" d="M258.9,415.4c-0.1-0.1-0.2-0.4-0.4-0.5c-0.2-0.4-0.4-0.7-0.6-1.1c-0.1-0.2-0.2-0.6-0.4-0.9l0,0
		c0.1,0.1,0.4,0.1,0.4,0.2c1,1.2,2,2.5,2.6,4c-0.4-0.1-0.6-0.4-1-0.5C259.4,416.1,259.1,415.8,258.9,415.4z"/>
	<path fill="#FFFFFF" d="M367.9,404.2c0.2,2,0.5,4,0.1,6C367.7,408.3,367.7,406.2,367.9,404.2z"/>
	<path fill="#FFFFFF" d="M421.9,435.1c-0.7-1.2-0.7-2.7-1-4.3c1.1,0.6,0.1,2,1.2,2.2C422.1,433.8,421.9,434.5,421.9,435.1
		L421.9,435.1z"/>
	<path fill="#FFFFFF" d="M400.5,340.6c0.7,1,1.2,1.9,1.7,2.7C400.6,343,400.2,342.4,400.5,340.6z"/>
	<path fill="#FFFFFF" d="M416.8,431.8c0.1,1.5,0.2,2.7,0.4,4.1c-0.1,0-0.2,0-0.4,0c-0.5-1.1-0.4-2.5-0.4-3.7
		C416.5,432.1,416.7,432,416.8,431.8z"/>
	<path fill="#FFFFFF" d="M426.4,443.1c0.1-0.2,0.2-0.4,0.4-0.6c0,0.5,0,0.7,0,1.1c-0.2,0-0.4,0-0.4,0c-0.6-0.4-1.1-0.9-1.6-1.4
		c0.2-0.4,0.4-0.6,0.6-0.9l0.1,0.1C425.5,442.2,425.6,442.7,426.4,443.1z"/>
	<path fill="#FFFFFF" d="M285.9,417.9c-1.4-1-2.4-2-2.9-3.5c0.5,0.5,0.9,1.1,1.4,1.6C284.8,416.6,285.8,416.8,285.9,417.9z"/>
	<path fill="#FFFFFF" d="M440.6,379.1c-0.5-0.2-1-0.6-1.7-1.1c0.5-0.2,0.9-0.4,1.2-0.5C440.4,378.1,440.8,378.7,440.6,379.1z"/>
	<path fill="#FFFFFF" d="M491.7,352.5c0-1.2-0.7-2.5,0.5-3.6c-0.1,0.6-0.2,1.1-0.2,1.7C491.9,351.4,491.9,351.9,491.7,352.5z"/>
	<path fill="#FFFFFF" d="M421.8,435.1c0.2,1.7,0.5,3.3,0.6,5.1C422.1,439.6,421.7,436.4,421.8,435.1
		C421.9,435.1,421.8,435.1,421.8,435.1z"/>
	<path fill="#FFFFFF" d="M295.3,380.3c1,0.5,1.9,1.4,2.2,2.6C296.8,381.9,295.6,381.6,295.3,380.3L295.3,380.3z"/>
	<path fill="#FFFFFF" d="M588.2,347.6c0.4-0.1,0.7-0.2,1.1-0.4c0.9,0.9,0.7,1.9,0.7,3.1c-0.1-0.6-0.1-1.1-0.4-1.6
		C589.3,347.7,589.2,347.7,588.2,347.6z"/>
	<path fill="#FFFFFF" d="M451.6,395.1c1-0.5,1.9-0.6,2.9-0.1C453.4,395.1,452.6,395.4,451.6,395.1z"/>
	<path fill="#FFFFFF" d="M509.1,357.9c-0.2-1.4,0-2.6,0.4-3.8c0-0.1,0.2-0.2,0.4-0.4C509.6,355.1,509.3,356.5,509.1,357.9
		L509.1,357.9z"/>
	<path fill="#FFFFFF" d="M408.4,380.2c-0.1-1.2-0.4-2.4-0.5-3.6c0.6,1.1,0.6,2.4,0.9,3.6C408.7,380.2,408.5,380.2,408.4,380.2z"/>
	<path fill="#FFFFFF" d="M363.5,349.8c0.9,0.2,1.6,0.7,2.4,1.4C365,351.3,364,350.7,363.5,349.8z"/>
	<path fill="#FFFFFF" d="M288.5,403.4c0.9,0.9,1.4,1.9,1.6,3C289.3,405.5,288.9,404.4,288.5,403.4L288.5,403.4z"/>
	<path fill="#FFFFFF" d="M163.7,421.5c-0.2-0.9-0.4-1.9-0.6-2.7C163.8,419.6,163.8,420.6,163.7,421.5z"/>
	<path fill="#FFFFFF" d="M91.4,383c0.1,0.2,0.2,0.6,0.4,1c-0.2,0.2-0.5,0.5-1,0.9c0.1-0.7,0.1-1.2,0.2-1.9
		C91.3,383,91.4,383,91.4,383z"/>
	<path fill="#FFFFFF" d="M92.9,385.2c-0.1,0.4-0.4,0.6-0.5,1c-0.1,0-0.1,0-0.2-0.1c0.1-0.9,0.2-1.6,0.4-2.7
		C92.6,384.2,92.7,384.7,92.9,385.2L92.9,385.2z"/>
	<path fill="#FFFFFF" d="M164.3,383.5c0-0.5,0-1,0-1.6c1,0.5,0.5,1,0.4,1.6C164.5,383.5,164.4,383.5,164.3,383.5z"/>
	<path fill="#FFFFFF" d="M538.5,393.5c-0.7,0.1-1.5,0.1-2.4,0.2c0-0.1,0-0.2,0-0.4c0.7-0.1,1.5-0.1,2.4-0.2
		C538.5,393.2,538.5,393.3,538.5,393.5z"/>
	<path fill="#FFFFFF" d="M23.1,416c0-0.5-0.6-1.1,0.2-1.6C23.6,415.2,23.6,415.2,23.1,416z"/>
	<path fill="#FFFFFF" d="M309.3,371.1c-0.2-0.9-0.4-1.4-0.6-2.1C309.6,369.8,309.6,369.8,309.3,371.1z"/>
	<path fill="#FFFFFF" d="M281.8,405.9c0,0.5,0,1,0.1,1.5c-0.1,0-0.1,0-0.2,0c-0.2-0.5-0.4-1.1-0.6-1.6c0.1,0,0.1-0.1,0.2-0.1
		C281.5,405.7,281.7,405.9,281.8,405.9L281.8,405.9z"/>
	<path fill="#FFFFFF" d="M592.4,347.7c-0.6,0.4-0.9-0.1-1.4-0.6c0.4-0.2,0.6-0.5,0.9-0.7c0.1,0.1,0.1,0.2,0.2,0.2
		C592.2,347,592.3,347.3,592.4,347.7L592.4,347.7z"/>
	<path fill="#FFFFFF" d="M124.1,419.2c-0.1-0.5-0.2-1-0.4-1.5C124.5,418,124.5,418,124.1,419.2z"/>
	<path fill="#FFFFFF" d="M92.2,379.9c0,0.4-0.1,0.9-0.1,1.4C91.4,380.4,91.4,380.4,92.2,379.9z"/>
	<path fill="#FFFFFF" d="M117.2,380.8c-0.1-0.2-0.4-0.6-0.2-0.7c0.1-0.5,0.5-1,0.7-1.4C117.8,379.3,117.5,380.1,117.2,380.8
		L117.2,380.8z"/>
	<path fill="#FFFFFF" d="M418.7,408.8c0.1,0.7,0.2,1.5,0.4,2.2c-0.1,0-0.2,0-0.4,0c-0.1-0.7-0.2-1.5-0.4-2.1
		C418.5,408.8,418.6,408.8,418.7,408.8z"/>
	<path fill="#FFFFFF" d="M507.5,357.4c0.1-0.9,0.1-1.7,0.2-2.6c0,0,0,0,0.1,0C507.7,355.6,507.6,356.5,507.5,357.4L507.5,357.4z"/>
	<path fill="#FFFFFF" d="M412.6,399.4c-0.1-0.6-0.2-1.4-0.4-2c0.1,0,0.2,0,0.2,0c0.1,0.6,0.1,1.4,0.2,2
		C412.8,399.4,412.6,399.4,412.6,399.4z"/>
	<path fill="#FFFFFF" d="M493.6,403c0.1,0.7,0.1,1.5,0.2,2.4c-0.1,0-0.1,0-0.2,0c-0.1-0.7-0.1-1.5-0.2-2.4
		C493.3,403,493.5,403,493.6,403z"/>
	<path fill="#FFFFFF" d="M288.5,403.4c-0.4-0.7-0.6-1.5-1-2.1C288.4,401.8,288.4,402.5,288.5,403.4L288.5,403.4z"/>
	<path fill="#FFFFFF" d="M133.3,413.2c-0.4-0.4-0.9-0.6-0.6-1.4C133.3,412.1,133.3,412.6,133.3,413.2z"/>
	<path fill="#FFFFFF" d="M485,400.8c0,0.5,0.1,1.1,0.1,1.6c-0.1,0-0.2,0-0.2,0c0-0.2,0-0.5,0-0.6c0-0.2-0.1-0.6-0.2-0.9
		C484.8,400.8,484.9,400.8,485,400.8z"/>
	<path fill="#FFFFFF" d="M370.7,384.4c0,0.5,0,1,0,1.5c-0.1,0-0.2,0-0.2,0c-0.2-0.5-0.1-1,0-1.5
		C370.5,384.4,370.6,384.4,370.7,384.4z"/>
	<path fill="#FFFFFF" d="M103.4,351.7c-0.4,0.4-0.7,0.7-1.2,1c-0.1-0.1-0.1-0.1-0.2-0.2c0.4-0.4,0.7-0.7,1.1-1.1
		C103.2,351.4,103.3,351.6,103.4,351.7z"/>
	<path fill="#FFFFFF" d="M118.8,375.1c-0.4,0.6-0.7,1.2-1.1,1.9C117.8,375.4,117.8,375.4,118.8,375.1L118.8,375.1z"/>
	<path fill="#FFFFFF" d="M369.5,393.7c0-0.5-0.1-1-0.1-1.5h0.1c0,0.5,0.1,1,0.1,1.6C369.5,393.7,369.5,393.7,369.5,393.7z"/>
	<path fill="#FFFFFF" d="M368.2,398.3c0,0.7-0.1,1.4-0.1,2.1C367.7,399.7,367.9,398.9,368.2,398.3z"/>
	<path fill="#FFFFFF" d="M84.8,416.6c0.1-0.7,0.4-1.4,0.5-2.1c0.1,0,0.1,0,0.2,0c-0.1,0.7-0.4,1.5-0.5,2.1
		C84.9,416.6,84.9,416.6,84.8,416.6z"/>
	<path fill="#FFFFFF" d="M89.9,379.6c-0.2,0.5-0.4,0.7-0.5,1.1c-0.1-0.4-0.2-0.7-0.4-1.2C89.4,379.4,89.6,379.6,89.9,379.6z"/>
	<path fill="#FFFFFF" d="M420.4,423.2c0-0.6-0.1-0.9-0.1-1.4C421.1,422.1,421.1,422.5,420.4,423.2z"/>
	<path fill="#FFFFFF" d="M450.4,396.6c0.7,0.1,1.4,0.2,2.1,0.4v0.1c-0.7,0-1.5-0.1-2.1-0.1C450.3,396.7,450.3,396.6,450.4,396.6z"/>
	<path fill="#FFFFFF" d="M455.5,404.6c1,0.4,1,0.4,0.2,1.2C455.8,405.5,455.7,405.1,455.5,404.6z"/>
	<path fill="#FFFFFF" d="M301.3,389.6c-0.2-0.5-0.4-1-0.6-1.6c0.1,0,0.1,0,0.2-0.1c0.2,0.5,0.4,1,0.6,1.6
		C301.3,389.6,301.3,389.6,301.3,389.6z"/>
	<path fill="#FFFFFF" d="M47,374.9c1,0.5,0.6,0.9,0.4,1.6C47.2,375.9,47.1,375.5,47,374.9z"/>
	<path fill="#FFFFFF" d="M282.4,405.4c0.1,0.1,0.1,0.4,0.2,0.5c0,0.4,0.1,0.7,0.1,1.1l0,0c-0.1-0.1-0.4-0.4-0.5-0.5
		c-0.1-0.2-0.4-0.5-0.5-0.6l0,0C281.8,405.5,281.8,405.1,282.4,405.4z"/>
	<path fill="#FFFFFF" d="M281.6,412.3c-0.2-0.4-0.4-0.9-0.6-1.2c0.1,0,0.1-0.1,0.2-0.1c0.2,0.4,0.5,0.7,0.6,1.2
		C281.8,412.2,281.7,412.2,281.6,412.3z"/>
	<path fill="#FFFFFF" d="M89.9,394.3c0,0.5-0.1,1-0.1,1.5h-0.1c0-0.5,0-1,0-1.5C89.8,394.2,89.9,394.3,89.9,394.3z"/>
	<path fill="#FFFFFF" d="M123.9,425.2c0,0.4,0,0.7,0.1,1.2h-0.1C123.7,425.9,123.9,425.4,123.9,425.2z"/>
	<path fill="#FFFFFF" d="M17.1,425.1c0.2-0.4,0.4-0.9,0.7-1.5c0.4,1-0.2,1.1-0.5,1.6C17.2,425.2,17.2,425.1,17.1,425.1z"/>
	<path fill="#FFFFFF" d="M414.6,408.8c0.5,0.6,0.5,1.2,0.2,1.9C414.7,410.1,414.7,409.5,414.6,408.8L414.6,408.8z"/>
	<path fill="#FFFFFF" d="M414.6,408.8c-0.1-0.6-0.2-1.4-0.2-2c0.1,0,0.1,0,0.2,0C414.6,407.5,414.6,408.1,414.6,408.8L414.6,408.8z"
		/>
	<path fill="#FFFFFF" d="M287.3,398.7c0.1,0.4,0.1,0.7,0.2,1.1C287,399.2,287,399.2,287.3,398.7z"/>
	<path fill="#FFFFFF" d="M82.8,420.7c0.2-0.5,0.5-1,0.7-1.5c0.1,0,0.1,0.1,0.2,0.1c-0.2,0.5-0.5,1-0.7,1.5
		C83.1,420.9,82.9,420.9,82.8,420.7z"/>
	<path fill="#FFFFFF" d="M544.9,395.8c0.4,0,0.9,0,1.2,0v0.1c-0.4,0-0.9,0.1-1.2,0.1C544.9,395.9,544.9,395.9,544.9,395.8z"/>
	<path fill="#FFFFFF" d="M297.8,383.9c0.4,0.4,0.7,0.6,1.1,1c0,0.1-0.1,0.1-0.1,0.2c-0.4-0.4-0.7-0.7-1-1
		C297.7,384,297.7,384,297.8,383.9z"/>
	<path fill="#FFFFFF" d="M489.9,351.8c0-0.5,0.1-1,0.1-1.5h0.1C490,350.8,490,351.3,489.9,351.8L489.9,351.8z"/>
	<path fill="#FFFFFF" d="M532.6,397.9c0.6-0.1,1.4-0.2,2-0.2c0,0.1,0,0.2,0,0.2C534,397.9,533.3,397.9,532.6,397.9L532.6,397.9z"/>
	<path fill="#FFFFFF" d="M104.4,403.1c-0.1-0.2-0.2-0.4-0.4-0.6l0.2-0.2c0.1,0.1,0.4,0.4,0.5,0.5C104.6,403,104.5,403.1,104.4,403.1
		z"/>
	<path fill="#FFFFFF" d="M146.6,385.9c0.1-0.4,0.4-0.6,0.5-1c0.1,0,0.1,0,0.2,0.1c0,0.2-0.1,0.4-0.1,0.6c-0.1,0.1-0.2,0.2-0.4,0.5
		C146.7,385.9,146.6,385.9,146.6,385.9z"/>
	<path fill="#FFFFFF" d="M145.1,416.9c-0.1-0.4-0.2-0.7-0.4-1.4C145.3,416,145.7,416.3,145.1,416.9z"/>
	<path fill="#FFFFFF" d="M368.1,401c0,0.4-0.1,0.7-0.1,1.1c-0.1,0-0.1,0-0.2,0c0-0.4,0-0.7,0-1.1C367.9,401,368,401,368.1,401z"/>
	<path fill="#FFFFFF" d="M485.7,403.7c0.1,0.4,0.1,0.9,0.2,1.2c-0.1,0-0.1,0-0.2,0c-0.1-0.4-0.1-0.9-0.2-1.2
		C485.5,403.7,485.5,403.7,485.7,403.7z"/>
	<path fill="#FFFFFF" d="M478.6,355.1c0.4-0.2,0.7-0.5,1.1-0.7c0,0.1,0.1,0.1,0.1,0.2c-0.4,0.2-0.7,0.5-1,0.9
		C478.7,355.4,478.6,355.3,478.6,355.1z"/>
	<path fill="#FFFFFF" d="M421.1,421.4c-0.2,0-0.5-0.1-0.6-0.1c0.1-0.2,0.2-0.5,0.4-1C420.9,420.7,420.9,421,421.1,421.4z"/>
	<path fill="#FFFFFF" d="M491.9,353.4c0,0.4,0,0.7,0,1.1h-0.1c0-0.4-0.1-0.7-0.1-1.1C491.7,353.4,491.9,353.4,491.9,353.4z"/>
	<path fill="#FFFFFF" d="M492.4,403.1L492.4,403.1c-0.1-0.4-0.1-0.7-0.2-1.1l0,0C492.7,402.1,492.7,402.6,492.4,403.1z"/>
	<path fill="#FFFFFF" d="M168.6,381.7c0.2,0.5,0.4,0.7,0.6,1.1C168.7,382.4,168.7,382.4,168.6,381.7z"/>
	<path fill="#FFFFFF" d="M265,410.9c-0.9-0.2-0.4-0.9-0.5-1.2c0.1,0,0.2,0,0.2-0.1C264.8,409.9,264.8,410.4,265,410.9L265,410.9z"/>
	<path fill="#FFFFFF" d="M278.5,401.6c0-0.2,0-0.6,0-0.9c0.1,0,0.1,0,0.2,0c0,0.2,0.1,0.6,0.1,0.9
		C278.7,401.6,278.6,401.6,278.5,401.6z"/>
	<path fill="#FFFFFF" d="M124.5,414.7c-0.4-0.4-0.5-0.5-0.7-0.7C124.5,413.8,124.5,413.8,124.5,414.7z"/>
	<path fill="#FFFFFF" d="M123.1,389.6c0.1-0.4,0.1-0.6,0.1-1c0.1,0.1,0.2,0.1,0.2,0.1C123.6,389,123.7,389.4,123.1,389.6z"/>
	<path fill="#FFFFFF" d="M409.4,384.2c-0.2,0-0.5-0.1-0.4-0.5c0.1-0.5,0.1-0.9,0.2-1.4l0,0C409.3,383,409.3,383.5,409.4,384.2
		L409.4,384.2z"/>
	<path fill="#FFFFFF" d="M370.7,405.2c-0.2-0.6-0.4-0.9-0.5-1.5C370.8,404.1,370.8,404.5,370.7,405.2z"/>
	<path fill="#FFFFFF" d="M376.7,363.1c0.6,0,0.6,0.5,0.6,0.9C377,363.7,376.9,363.3,376.7,363.1z"/>
	<path fill="#FFFFFF" d="M501.9,368.5c0-0.5,0.1-0.9,0.1-1.4h0.1c0,0.5,0,0.9,0,1.4C502,368.5,502,368.5,501.9,368.5z"/>
	<path fill="#FFFFFF" d="M193.3,377.1c0.2,0,0.6,0,0.9,0v0.1c-0.2,0.1-0.6,0.1-0.9,0.2C193.3,377.3,193.3,377.2,193.3,377.1z"/>
	<path fill="#FFFFFF" d="M186.6,381.8c0-0.5,0-0.7-0.1-1.1C187.1,380.9,187.1,381.3,186.6,381.8z"/>
	<path fill="#FFFFFF" d="M186.8,378.7c-0.1,0.4-0.2,0.6-0.2,1c-0.1,0-0.1,0-0.2-0.1c0.1-0.4,0.1-0.6,0.2-1
		C186.7,378.7,186.7,378.7,186.8,378.7z"/>
	<path fill="#FFFFFF" d="M370.5,381.4c0,0.4,0,0.7-0.1,1.1h-0.1C370.3,382.2,370.3,381.8,370.5,381.4L370.5,381.4z"/>
	<path fill="#FFFFFF" d="M370.7,360.1c-0.1-0.2-0.2-0.5-0.5-0.6l0.1-0.1c0.1,0.2,0.2,0.5,0.5,0.6C370.8,360,370.7,360.1,370.7,360.1
		z"/>
	<path fill="#FFFFFF" d="M535,375.7c-0.7,0.4-0.7,0.4-1.1-0.1C534.4,375.7,534.8,375.7,535,375.7L535,375.7z"/>
	<path fill="#FFFFFF" d="M101.4,354.9c-0.1,0-0.1,0.1-0.2,0.1c-0.1-0.1-0.2-0.2-0.4-0.4c0.1-0.1,0.2-0.2,0.4-0.2
		C101.2,354.7,101.3,354.8,101.4,354.9z"/>
	<path fill="#FFFFFF" d="M31,365.4c-0.1,0.4-0.2,0.9-0.4,1.5C30.3,366.2,30.7,365.8,31,365.4z"/>
	<path fill="#FFFFFF" d="M477.7,360c0,0.2,0,0.5,0,0.7c-0.1,0-0.2,0-0.2,0c0-0.2,0-0.5,0-0.7C477.5,360,477.6,360,477.7,360z"/>
	<path fill="#FFFFFF" d="M24.3,410.6c-0.5,0.1-1,0.2-1.1-0.7C23.6,410.1,23.9,410.3,24.3,410.6L24.3,410.6z"/>
	<path fill="#FFFFFF" d="M451.8,407.5c0-0.2,0-0.6-0.1-0.9c0.1,0,0.1,0,0.2,0c0,0.4,0.1,0.6,0.1,1
		C452.1,407.5,451.9,407.5,451.8,407.5z"/>
	<path fill="#FFFFFF" d="M460.2,369.4c-0.2-0.2-0.4-0.5-0.6-0.7c0.1,0,0.2-0.1,0.2-0.1C460.2,368.7,460.4,369,460.2,369.4
		C460.1,369.4,460.2,369.4,460.2,369.4z"/>
	<path fill="#FFFFFF" d="M84.2,418.4c0.1-0.4,0.2-0.6,0.4-1c0.1,0,0.1,0,0.2,0.1c-0.1,0.4-0.2,0.6-0.4,1
		C84.3,418.4,84.3,418.4,84.2,418.4z"/>
	<path fill="#FFFFFF" d="M273.8,394.6c0-0.2-0.1-0.6-0.1-0.9h0.1c0.1,0.2,0.1,0.5,0.2,0.9C274,394.6,273.9,394.6,273.8,394.6z"/>
	<path fill="#FFFFFF" d="M544.9,360.5c0.2-0.6,0.7-0.5,1.2-0.2C545.7,360.4,545.3,360.4,544.9,360.5L544.9,360.5z"/>
	<path fill="#FFFFFF" d="M409.3,382.4c-0.5-0.2-0.5-0.7-0.2-1.2C409,381.6,409.2,381.9,409.3,382.4L409.3,382.4z"/>
	<path fill="#FFFFFF" d="M90.1,389.4c-0.1-0.2-0.1-0.6-0.2-0.9c0.1,0,0.1,0,0.2,0c0.1,0.2,0.1,0.6,0.2,0.9
		C90.3,389.2,90.1,389.2,90.1,389.4z"/>
	<path fill="#FFFFFF" d="M89.1,408.8c0.1-0.2,0.2-0.5,0.4-0.9c0.1,0,0.1,0,0.2,0.1c-0.1,0.2-0.2,0.6-0.2,0.9
		C89.3,409,89.3,408.8,89.1,408.8z"/>
	<path fill="#FFFFFF" d="M295.1,383.2c0.6-0.2,1.1-0.2,1.7,0.4C296.2,383.3,295.6,383.2,295.1,383.2
		C295.1,383,295.1,383.2,295.1,383.2z"/>
	<path fill="#FFFFFF" d="M195.4,411.7c-0.4,0.1-0.7,0.1-1.1,0.2v-0.1c0.4-0.1,0.7-0.2,1.1-0.2V411.7z"/>
	<path fill="#FFFFFF" d="M419.9,417.8c0.1,0.2,0.2,0.5,0.4,0.7c-0.1,0-0.1,0.1-0.2,0.1c-0.1-0.2-0.2-0.5-0.4-0.7
		C419.7,417.9,419.8,417.8,419.9,417.8z"/>
	<path fill="#FFFFFF" d="M207.4,371.4c0.2,0,0.6,0,1,0C208.1,372,207.8,371.9,207.4,371.4z"/>
	<path fill="#FFFFFF" d="M92.7,374c0.2,0.5,0.2,1-0.1,1.5C92.1,374.9,92.6,374.5,92.7,374L92.7,374z"/>
	<path fill="#FFFFFF" d="M114.1,388.9c-0.1-0.1-0.4-0.1-0.5-0.2c0-0.1,0.1-0.2,0.1-0.2c0.1,0.1,0.4,0.2,0.5,0.2
		C114.2,388.7,114.2,388.9,114.1,388.9z"/>
	<path fill="#FFFFFF" d="M39.7,364.9c-0.1,0.1-0.2,0.2-0.4,0.4c-0.1-0.1-0.2-0.2-0.2-0.4s0.2-0.2,0.4-0.2
		C39.4,364.7,39.6,364.8,39.7,364.9z"/>
	<path fill="#FFFFFF" d="M104.6,401.3c0.1-0.2,0.2-0.5,0.5-0.6c0.1,0,0.1,0.1,0.2,0.1c-0.1,0.2-0.2,0.5-0.4,0.7
		C104.8,401.4,104.8,401.3,104.6,401.3z"/>
	<path fill="#FFFFFF" d="M494.5,401.5c0,0.4,0,0.7-0.1,1c0,0,0,0-0.1,0c0-0.4,0-0.7,0-1C494.3,401.5,494.5,401.5,494.5,401.5z"/>
	<path fill="#FFFFFF" d="M511.3,364.1c0-0.4,0-0.6,0.1-1h0.1C511.6,363.5,511.4,363.7,511.3,364.1
		C511.4,364.1,511.4,364.1,511.3,364.1z"/>
	<path fill="#FFFFFF" d="M592.4,347.6c0,0.5-0.4,0.7-0.6,1.1l0,0C591.3,348.1,591.9,348,592.4,347.6
		C592.4,347.7,592.4,347.6,592.4,347.6z"/>
	<path fill="#FFFFFF" d="M50.8,368.8c0,0.4,0,0.7,0,1C50.6,369.5,50.1,369.3,50.8,368.8z"/>
	<path fill="#FFFFFF" d="M594.8,348.9c-0.4-0.1-0.9,0.4-0.9-0.5C594.3,348.6,594.5,348.7,594.8,348.9
		C594.8,348.8,594.8,348.9,594.8,348.9z"/>
	<path fill="#FFFFFF" d="M42.8,366.8c-0.1,0.2-0.1,0.5-0.2,0.7c-0.1,0-0.2,0-0.2-0.1c0-0.2,0.1-0.5,0.1-0.7
		C42.5,366.7,42.7,366.8,42.8,366.8z"/>
	<path fill="#FFFFFF" d="M480.2,358.7c0,0.4-0.1,0.6-0.1,1H480c0-0.4,0-0.6,0.1-1C480,358.7,480.1,358.7,480.2,358.7z"/>
	<path fill="#FFFFFF" d="M590.7,347.8c0.2,0.1,0.4,0.2,0.6,0.4c0,0.1-0.1,0.1-0.1,0.2c-0.2-0.1-0.5-0.2-0.7-0.4
		C590.6,348,590.6,347.8,590.7,347.8z"/>
	<path fill="#FFFFFF" d="M485.8,359.4c-0.2,0.1-0.5,0.2-0.6,0.2c0,0,0-0.1-0.1-0.1c0.2-0.1,0.5-0.2,0.6-0.4
		C485.7,359.2,485.7,359.4,485.8,359.4z"/>
	<path fill="#FFFFFF" d="M367.5,351.7c0.1,0.2,0.1,0.6,0.2,0.9c-0.1,0-0.2,0-0.2,0.1c-0.1-0.2-0.1-0.6-0.2-0.9
		C367.2,351.8,367.4,351.8,367.5,351.7z"/>
	<path fill="#FFFFFF" d="M540.2,397.1c0.2,0,0.5-0.1,0.6-0.1v0.1c-0.2,0-0.5,0.1-0.6,0.1C540.2,397.2,540.2,397.2,540.2,397.1z"/>
	<path fill="#FFFFFF" d="M312.2,372.8c-0.5-0.1-0.6-0.5-0.6-1C312.2,371.9,312.1,372.4,312.2,372.8L312.2,372.8z"/>
	<path fill="#FFFFFF" d="M296.1,408.6c0.2-0.1,0.4-0.1,0.6-0.2c0,0,0,0.1,0.1,0.1c-0.1,0-0.1,0.1-0.2,0.1c-0.1,0-0.2,0-0.4,0.1
		C296.1,408.7,296.1,408.7,296.1,408.6z"/>
	<path fill="#FFFFFF" d="M291.7,409.6c-0.2-0.2-0.6-0.5-0.9-0.7c0.1-0.1,0.1-0.1,0.2-0.2C291.5,408.8,291.7,409.1,291.7,409.6
		L291.7,409.6z"/>
	<path fill="#FFFFFF" d="M415.9,418.6c0-0.2,0.1-0.5,0.1-0.9h0.1c0,0.2,0,0.5-0.1,0.9H415.9z"/>
	<path fill="#FFFFFF" d="M543.6,396.4c-0.2,0.1-0.5,0.1-0.9,0.2v-0.1c0.2-0.1,0.5-0.2,0.7-0.2L543.6,396.4z"/>
	<path fill="#FFFFFF" d="M545.2,374.9c0.5-0.1,0.9-0.2,1.4-0.4c0,0.1,0,0.2,0,0.4C546.2,374.9,545.7,374.9,545.2,374.9L545.2,374.9z
		"/>
	<path fill="#FFFFFF" d="M549.6,361c0.4,0,0.6,0,1,0v0.1C550.3,361.1,549.9,361.1,549.6,361C549.6,361.1,549.6,361,549.6,361z"/>
	<path fill="#FFFFFF" d="M437.1,372.8c-0.1-0.2-0.2-0.4-0.2-0.5s0.1-0.2,0.2-0.2c0.1,0.1,0.2,0.1,0.4,0.2
		C437.3,372.4,437.2,372.5,437.1,372.8z"/>
	<path fill="#FFFFFF" d="M438,373.2c-0.1-0.1-0.2-0.2-0.2-0.4s0.1-0.2,0.2-0.4c0.1,0.2,0.1,0.5,0.1,0.6
		C438.2,373.1,438.2,373.1,438,373.2z"/>
	<path fill="#FFFFFF" d="M124.2,422.2c-0.2,0.2-0.2,0.4-0.4,0.5c0-0.1,0-0.2,0-0.4C123.9,422.3,124,422.3,124.2,422.2z"/>
	<path fill="#FFFFFF" d="M155.4,378c-0.1,0.4-0.1,0.7-0.2,1.2C154.7,378.6,155.1,378.3,155.4,378z"/>
	<path fill="#FFFFFF" d="M444.9,386c-0.1-0.2-0.2-0.5-0.5-0.7l0.1-0.1c0.1,0.2,0.4,0.5,0.5,0.6C445,385.9,444.9,385.9,444.9,386z"/>
	<path fill="#FFFFFF" d="M48.4,377.3c-0.2,0-0.5,0-1,0.1C47.7,376.8,48,377.2,48.4,377.3C48.4,377.5,48.4,377.3,48.4,377.3z"/>
	<path fill="#FFFFFF" d="M135.6,410.9c0-0.1,0-0.4,0-0.5c0,0,0.1,0,0.2,0c0,0.2,0,0.4,0,0.6C135.9,410.9,135.8,410.9,135.6,410.9z"
		/>
	<path fill="#FFFFFF" d="M294.3,408.5c0.2,0,0.5,0,0.7,0.1v0.1c-0.2,0-0.5,0-0.7,0C294.3,408.6,294.3,408.6,294.3,408.5z"/>
	<path fill="#FFFFFF" d="M544.9,360.4c-0.4,0-0.6,0-1.1,0.1C544.4,360.1,544.4,360.1,544.9,360.4
		C544.9,360.5,544.9,360.4,544.9,360.4z"/>
	<path fill="#FFFFFF" d="M33.4,425.2c0,0.1,0,0.2,0,0.4s-0.1,0.2-0.1,0.5v-0.1c0-0.2,0-0.4,0-0.6C33.2,425.2,33.2,425.2,33.4,425.2z
		"/>
	<path fill="#FFFFFF" d="M123.5,428.9c-0.2-0.1-0.4-0.2-0.6-0.4c0-0.1,0.1-0.1,0.1-0.2c0.2,0.1,0.4,0.2,0.6,0.4
		C123.6,428.8,123.5,428.9,123.5,428.9z"/>
	<path fill="#FFFFFF" d="M538.8,371.6c0.2-0.1,0.4-0.1,0.6-0.2v0.1C539.2,371.6,539.1,371.6,538.8,371.6
		C538.8,371.8,538.8,371.6,538.8,371.6z"/>
	<path fill="#FFFFFF" d="M535.9,397.5c0.2,0,0.5,0,0.9,0.1v0.1c-0.2,0-0.5,0-0.9-0.1V397.5z"/>
	<path fill="#FFFFFF" d="M535.4,372.8c0.4-0.1,0.7-0.2,1-0.4C536.2,372.9,535.9,373,535.4,372.8L535.4,372.8z"/>
	<path fill="#FFFFFF" d="M464.2,373.1c0.1,0.1,0.4,0.4,0.5,0.5l-0.1,0.1c-0.1-0.1-0.4-0.2-0.5-0.5
		C464.1,373.2,464.2,373.1,464.2,373.1z"/>
	<path fill="#FFFFFF" d="M120.5,369.2c0.1-0.1,0.1-0.4,0.2-0.5l0.1,0.1c-0.1,0.1-0.1,0.4-0.2,0.5
		C120.8,369.3,120.6,369.3,120.5,369.2z"/>
	<path fill="#FFFFFF" d="M490,353.7c0-0.2,0-0.5,0-0.7l0,0C490.1,353.2,490.1,353.4,490,353.7L490,353.7z"/>
	<path fill="#FFFFFF" d="M192.7,377.5c-0.1,0.1-0.4,0.4-0.5,0.5c0-0.1-0.1-0.1-0.1-0.2c0.2-0.1,0.4-0.4,0.6-0.5
		C192.6,377.3,192.6,377.3,192.7,377.5z"/>
	<path fill="#FFFFFF" d="M200.2,409.7c0-0.1-0.1-0.4-0.1-0.5c0.1,0,0.1,0,0.2,0c0,0.1,0.1,0.4,0.1,0.5
		C200.4,409.6,200.2,409.7,200.2,409.7z"/>
	<path fill="#FFFFFF" d="M90.3,396.7c0-0.2,0-0.6-0.1-0.9c0.1,0,0.1,0,0.2,0c0,0.2,0.1,0.6,0.1,0.9
		C90.5,396.6,90.4,396.6,90.3,396.7z"/>
	<path fill="#FFFFFF" d="M418,418.3c0-0.2,0-0.5,0-0.7h0.1c0,0.2,0,0.5,0,0.7C418.1,418.3,418.1,418.3,418,418.3z"/>
	<path fill="#FFFFFF" d="M260.5,383.5c0-0.1-0.1-0.4-0.1-0.5c0.1,0.1,0.2,0.1,0.4,0.2c0,0,0,0.1,0,0.2
		C260.6,383.4,260.6,383.4,260.5,383.5z"/>
	<path fill="#FFFFFF" d="M265.6,377.8c0-0.1-0.1-0.4-0.1-0.5h0.1C265.6,377.5,265.7,377.6,265.6,377.8
		C265.7,377.8,265.7,377.8,265.6,377.8z"/>
	<path fill="#FFFFFF" d="M451.9,404.7c0-0.2-0.1-0.5,0-0.6c0-0.1,0.1-0.1,0.2-0.1c0,0.1,0.1,0.2,0.1,0.4
		C452.2,404.5,452.1,404.5,451.9,404.7z"/>
	<path fill="#FFFFFF" d="M407.7,375.1c0-0.2,0-0.6,0-0.9c0.1,0,0.1,0,0.2,0c0,0.2,0,0.6,0,0.9C407.9,375,407.8,375.1,407.7,375.1z"
		/>
	<path fill="#FFFFFF" d="M46.1,395.1c0.1-0.5-1.2-0.7-0.4-1.5C45.9,394.2,46,394.7,46.1,395.1z"/>
	<path fill="#FFFFFF" d="M364.1,382.4c0,0.2-0.1,0.4-0.1,0.6c-0.1,0-0.1,0-0.2,0c0-0.2,0-0.4,0-0.6
		C363.9,382.3,364,382.4,364.1,382.4z"/>
</g>
</svg>
