<svg  x="0px" y="0px" width="42.9px" height="35.4px" viewBox="-282.3 1138.7 42.9 35.4" enable-background="new -282.3 1138.7 42.9 35.4">
  <g>
  <path fill="#FFFFFF" d="M-270.5,1174.1c-0.4-0.2-0.7-0.2-1.1-0.2c-0.7,0-1.4-0.1-2.1-0.2c-0.4-0.1-0.7-0.1-1.1-0.2
    c-0.2-0.1-0.5-0.2-0.9-0.4c-0.4-0.2-0.7-0.4-1.1-0.6c-0.1,0-0.2-0.1-0.4-0.1c-0.2-0.1-0.4-0.2-0.5-0.4c-0.2,0.1-0.4,0-0.6-0.1
    c-0.4-0.1-0.7-0.2-1.1-0.4l0,0c-0.1-0.1-0.4-0.2-0.5-0.4c-0.1,0-0.1-0.1-0.2-0.1s-0.4,0-0.5-0.1c-0.1,0-0.2-0.1-0.4-0.2
    c-0.2-0.1-0.4-0.2-0.6-0.4c-0.2-0.1-0.4-0.2-0.6-0.4c-0.1,0-0.1-0.1-0.1-0.1c0-0.1-0.1-0.1,0-0.2c-0.1,0,0-0.1,0.1-0.1s0.2,0,0.4,0
    c0.2,0.1,0.5,0.2,0.7,0.2c0.1,0.1,0.2,0.2,0.5,0.2l0,0c0,0,0.1,0,0.1,0.1l0,0c0.6,0.1,1.1,0.4,1.6,0.7c0.1,0.1,0.5,0.2,0.7,0.2
    c0.9,0,1.7-0.2,2.6-0.7c-0.2-0.2-0.4-0.1-0.6,0c-0.4,0.1-0.7,0.2-1.2,0.4c-0.1,0-0.4,0-0.5,0l0,0l-0.1-0.1l0,0c-0.1,0-0.2,0-0.4,0
    l0,0c0.2-0.4,0.5-0.5,0.9-0.6c0.5-0.1,0.9-0.2,1.4-0.4c0-0.1,0-0.4,0-0.5c0.1,0.1,0.2,0.2,0.5,0.2c0.4-0.1,0.6-0.2,1-0.4h0.1v-0.1
    c-0.2-0.1-0.5,0-0.7,0.1c-0.1,0.1-0.2,0.2-0.4,0.1c-0.1,0-0.2,0-0.5,0c0-0.2,0.2-0.2,0.4-0.2c0.9-0.4,1.7-0.6,2.6-1
    c0.6-0.2,1.2-0.7,2-1.1c0.1,0,0.1-0.1,0.1-0.2c0-0.2-0.2-0.2-0.4-0.4c-0.2-0.2-0.4-0.1-0.5-0.1c-0.5-0.1-1-0.2-1.4-0.7l0,0
    c-0.4,0-0.6-0.2-0.9-0.5l0,0c-0.5-0.4-1-0.7-1.4-1.4c-0.2-0.5-0.7-0.9-1.1-1.4c-0.1-0.2-0.2-0.4-0.5-0.6c0-0.1-0.1-0.2-0.1-0.2
    c-0.2-0.1-0.2-0.5-0.4-0.9c0-0.2,0.1-0.4,0.4-0.4c0.2,0,0.4,0.1,0.5,0.1c0.7,0.1,1.6,0.1,2.4,0c0.1,0,0.1-0.1,0.2-0.1
    c-0.5-0.4-0.9-0.6-1.4-0.9c-0.6-0.4-1.4-0.7-2-1.4c-0.5-0.5-1-1-1.4-1.5c-0.1-0.1-0.2-0.2-0.4-0.4c-0.5-0.4-0.7-0.9-1-1.5
    c-0.2-0.6-0.5-1.2-0.6-1.9c-0.2-0.6-0.4-1.2-0.5-1.7c-0.1-0.2,0-0.5,0.1-0.7l0.1-0.1c0.2,0,0.6,0,0.7,0.2c0.4,0.5,0.9,0.6,1.4,0.7
    c0.4,0.1,0.6,0.2,0.9,0.5c0.1,0.1,0.2,0.2,0.5,0c0-0.1-0.1-0.1-0.1-0.2c-0.7-0.9-1.5-1.9-2-3c-0.4-0.7-0.6-1.6-0.7-2.5
    c-0.1-0.5-0.1-1-0.1-1.6c0-0.4,0.1-0.7,0.1-1.1c0-0.2,0.1-0.5,0.1-0.7c0.1-0.5,0.4-0.7,0.5-1.1c0.2-0.4,0.4-0.6,0.5-1
    c0.2-0.2,0.4-0.4,0.6-0.5c0.2-0.1,0.4-0.1,0.6,0.1l0,0c0.2,0.4,0.5,0.9,0.9,1.2c0.1,0.1,0.1,0.2,0.2,0.4l0,0l0,0
    c0.1,0.1,0.2,0.2,0.4,0.4c0.1,0.1,0.2,0.2,0.5,0.5l0,0c0.2,0,0.5,0.2,0.5,0.5c0,0.1,0.1,0.2,0.1,0.4h0.1v-0.1l0,0
    c0.1,0.1,0.2,0.1,0.4,0.2c0.6,0.6,1.2,1.2,2,1.6c0.1,0.1,0.2,0.2,0.4,0.2c0.1,0.1,0.4,0.2,0.6,0.4c0.2,0.1,0.5,0.4,0.7,0.5l0,0l0,0
    c0,0.1,0.1,0.2,0.2,0.5h-0.1c0,0,0,0,0-0.1l0,0l0,0c0,0,0,0,0.1,0h0.1l0.1-0.1c0,0.1,0.1,0.2,0.1,0.4c0.1-0.1,0.1-0.1,0.2-0.2
    c0,0.1,0.2,0.4,0.4,0.4c0.2,0.1,0.4,0.5,0.6,0.4c0.2,0,0.5,0.1,0.7,0.2s0.4,0.2,0.6,0.4c0.2,0.1,0.6,0.2,0.9,0.4
    c0.2,0,0.5,0,0.6,0.1c0.1,0,0.2,0,0.4,0.1c0.2,0.1,0.4,0.4,0.6,0.5l0,0c0.4-0.2,0.6,0.4,1,0.2c0.1,0,0.1,0,0.2,0
    c0.4,0.1,0.7,0.1,1.2,0c0.4-0.1,0.4,0,0.7,0.2c0,0,0.1,0,0.2,0.1l0,0h0.1l0,0c0.1,0,0.2,0,0.5,0.1c0.4,0.1,0.6,0,0.6-0.5
    c0-0.4,0-0.7,0-1.1c-0.1-0.7,0.1-1.5,0.1-2.1c0,0,0,0,0-0.1c0.5-1,1-2.2,1.7-3.1c0.5-0.5,0.9-1.1,1.4-1.6c0.1-0.1,0.4-0.2,0.5-0.2
    v0.1l0,0c0,0,0,0,0-0.1c0.2-0.1,0.4-0.4,0.6-0.5c0.6-0.4,1.2-0.7,1.9-0.9c0.4-0.1,0.9-0.2,1.2-0.4c1-0.2,1.9-0.2,2.9,0
    c0.7,0.1,1.5,0.5,2.2,0.7c0.4,0.1,0.7,0.2,1.1,0.5c0.5,0.4,0.9,0.7,1.4,1.1c0.2,0.2,0.6,0.5,0.7,0.9c0.1,0.1,0.2,0.2,0.4,0.4
    c0.2-0.4,0.5-0.4,0.9-0.5c0.5-0.1,1.1-0.4,1.6-0.5c0.6-0.1,1.1-0.5,1.7-0.9c0.2-0.1,0.5-0.4,0.9-0.4l0,0v0.1
    c-0.1,1-0.6,1.9-1.4,2.6c-0.1,0.1-0.4,0.4-0.5,0.5l0,0l0,0c-0.1,0.4-0.2,0.6-0.5,0.7c-0.2,0.1-0.4,0.4-0.7,0.7c0.5,0,1,0,1.4-0.1
    c0.7-0.2,1.5-0.5,2.2-0.7v0.1c-0.1,0-0.1,0.1-0.2,0.1l0,0c0,0,0,0,0-0.1c0.1,0,0.1-0.1,0.2-0.1v-0.1c0,0,0.1,0,0.1-0.1l0,0
    c0-0.4,0.1-0.5,0.2-0.5c0,0,0.1,0,0.1,0.1c0,0,0,0.1,0,0.2s-0.1,0.1-0.2,0.2c-0.1,0.1-0.2,0.2-0.4,0.4c-0.1,0.2-0.2,0.5-0.5,0.7
    c-0.4,0.5-0.9,1-1.4,1.4c-0.2,0.2-0.4,0.4-0.6,0.6c0,0-0.1,0.1-0.2,0.1c0-0.1,0-0.1,0-0.2l0,0c-0.2,0-0.4,0.1-0.4,0.4l0,0
    c-0.2,0.2-0.5,0.6-0.4,1c0,0.1,0,0.2,0,0.4c-0.1,0.6-0.1,1.1,0,1.7c0,0.1,0,0.2,0,0.4c-0.1,0.7-0.2,1.5-0.4,2.2
    c0,0.1-0.1,0.1-0.1,0.2l0,0l0,0c0.1,0.2,0,0.5,0,0.7c-0.1,0.2-0.1,0.4-0.1,0.6l0,0l0,0c-0.1,0.2,0,0.5,0,0.7
    c-0.1,0.4-0.1,0.7-0.4,1c-0.4,0.7-0.6,1.5-0.9,2.4c-0.2,0.7-0.5,1.4-0.7,2c-0.1,0.2-0.2,0.5-0.5,0.7c-0.1,0.4-0.2,0.6-0.5,1
    c0,0.1-0.1,0.2-0.1,0.2c-0.7,1.1-1.4,2.2-2.4,3.2c-0.1,0.1-0.2,0.2-0.4,0.2l0,0c0,0.1-0.1,0.1-0.2,0.2c-0.5,0.5-1.1,1-1.6,1.5
    c0,0-0.1,0.1-0.2,0.1c-0.2,0.1-0.5,0.2-0.7,0.5l0,0c-0.4,0.2-0.7,0.4-0.9,0.7l0,0c-0.1,0.1-0.1,0.1-0.2,0.2l0,0
    c-0.2,0-0.4,0-0.5,0.1l0,0c-0.1,0.1-0.2,0.2-0.4,0.4c-0.1,0.2-0.4,0.4-0.6,0.6c-0.9,0.6-1.7,1-2.6,1.4c-0.6,0.2-1.2,0.5-2,0.7
    c-0.2,0.1-0.4,0.1-0.6,0.4c-0.2,0.1-0.4,0.4-0.7,0.2c0,0-0.1,0-0.2,0c-0.7,0.4-1.5,0.4-2.4,0.6c-0.2,0-0.4,0.1-0.6,0.1
    c-0.9,0.2-1.9,0.1-2.7,0.1c-0.4,0-0.9,0-1.2,0c-0.6,0-1.2,0-1.9,0l0,0C-269.7,1174.1-270.1,1174.1-270.5,1174.1L-270.5,1174.1z
     M-279.6,1144.2L-279.6,1144.2L-279.6,1144.2z M-279.6,1151.9L-279.6,1151.9L-279.6,1151.9z M-279,1152L-279,1152L-279,1152z
     M-280.2,1144.7C-280.1,1144.7-280.1,1144.7-280.2,1144.7c0.1-0.1,0.2-0.2,0.2-0.2c0.1,0,0.2-0.1,0.1-0.2c0-0.1,0.1-0.2,0.1-0.2
    c0.1,0,0.1,0,0.2,0s0.1,0,0.2,0c0-0.1,0.2-0.2,0.4-0.2c0.1,0,0.1-0.1,0.2-0.2c-0.4,0-0.5,0.2-0.7,0.5c-0.1,0-0.1,0-0.2,0
    c0-0.2,0-0.2-0.2-0.1c0,0,0-0.1-0.1-0.1c0-0.1,0-0.2-0.1-0.4c-0.1,0.1-0.2,0.4-0.1,0.7c0.1-0.1,0.1-0.1,0.4-0.4c0,0,0.1,0,0.1,0.1
    c0,0,0,0,0,0.1s-0.1,0.1-0.1,0.2l0,0h0.1c0,0.1,0,0.1-0.1,0.2C-280,1144.5-280.1,1144.6-280.2,1144.7
    C-280.1,1144.7-280.1,1144.7-280.2,1144.7L-280.2,1144.7z M-259,1143.5L-259,1143.5L-259,1143.5z M-259.4,1144.1L-259.4,1144.1
    L-259.4,1144.1z M-259.5,1171.6L-259.5,1171.6C-259.5,1171.6-259.5,1171.5-259.5,1171.6c0.2-0.1,0.5-0.2,0.5-0.5l0.1-0.1l0,0
    l-0.1,0.1c-0.1,0-0.2-0.1-0.4,0c-0.4,0.1-0.7,0.4-1.1,0.6c-0.1-0.1-0.1-0.2-0.4-0.2c0,0.1,0.1,0.2,0.4,0.2h0.1l0.1,0.1v0.1
    c0.1-0.1,0.2-0.2,0.4-0.2l0,0C-259.7,1171.5-259.6,1171.5-259.5,1171.6C-259.5,1171.5-259.5,1171.6-259.5,1171.6z M-259.6,1149.7
    L-259.6,1149.7L-259.6,1149.7z M-256.5,1160.5L-256.5,1160.5L-256.5,1160.5z M-256.1,1143.9L-256.1,1143.9L-256.1,1143.9
    c-0.1,0.1-0.1,0.1-0.1,0.1s-0.1,0-0.1,0.1l-0.1,0.1l0,0l0,0l0.1-0.1c0,0,0.1,0,0.1-0.1C-256.2,1144-256.2,1144-256.1,1143.9
    L-256.1,1143.9z M-257.5,1161.4L-257.5,1161.4L-257.5,1161.4z M-257.6,1162.7L-257.6,1162.7L-257.6,1162.7z M-257.1,1159
    L-257.1,1159c0.1-0.1,0.2-0.1,0.2-0.1l0,0l-0.1-0.2c0,0,0,0,0-0.1c0,0,0,0,0,0.1c-0.2,0-0.4,0.1-0.5,0.4l0,0
    C-257.5,1159-257.4,1159-257.1,1159C-257.2,1159-257.2,1159-257.1,1159z M-262.2,1172.3L-262.2,1172.3
    C-262.1,1172.3-262.1,1172.3-262.2,1172.3L-262.2,1172.3C-262.1,1172.3-262.1,1172.3-262.2,1172.3
    C-262.1,1172.3-262.1,1172.3-262.2,1172.3C-262.1,1172.3-262.1,1172.3-262.2,1172.3C-262.1,1172.3-262.1,1172.3-262.2,1172.3z
     M-262.2,1155C-262.2,1155-262.2,1154.9-262.2,1155L-262.2,1155C-262.2,1154.9-262.2,1154.9-262.2,1155
    C-262.2,1154.9-262.2,1155-262.2,1155L-262.2,1155z M-263.7,1168L-263.7,1168L-263.7,1168z M-260.9,1161.5L-260.9,1161.5
    L-260.9,1161.5z M-247.8,1152L-247.8,1152L-247.8,1152z M-251.5,1140.5L-251.5,1140.5L-251.5,1140.5z M-251.4,1143.6L-251.4,1143.6
    L-251.4,1143.6z M-251.9,1140.8L-251.9,1140.8L-251.9,1140.8z M-250.8,1143L-250.8,1143L-250.8,1143z M-248,1149L-248,1149
    L-248,1149c0.1-0.1,0.1-0.2,0.1-0.2l0,0C-247.9,1148.9-247.9,1148.9-248,1149L-248,1149z M-251,1162.2L-251,1162.2L-251,1162.2z
     M-250.9,1164.1L-250.9,1164.1L-250.9,1164.1z M-248.1,1141.6L-248.1,1141.6c0-0.2,0-0.4-0.2-0.4h-0.1v-0.1l-0.1,0.1v0.1
    c-0.1,0.2-0.2,0.4-0.4,0.2c0-0.1,0-0.1,0-0.2c-0.6,0.1-1,0.4-1.4,0.7c-0.7,0.6-1.5,1.2-2.1,1.9c0,0,0,0,0,0.1
    c0.1,0,0.2-0.1,0.2-0.1c0.7-0.5,1.5-1.1,2.2-1.6c0.5-0.2,0.9-0.4,1.4-0.5l0,0l0,0C-248.5,1141.8-248.4,1141.6-248.1,1141.6
    L-248.1,1141.6L-248.1,1141.6z M-248.1,1141.1L-248.1,1141.1L-248.1,1141.1z M-248.1,1159.6L-248.1,1159.6L-248.1,1159.6
    L-248.1,1159.6L-248.1,1159.6z M-243.4,1147.2L-243.4,1147.2L-243.4,1147.2z M-254.7,1139.3L-254.7,1139.3L-254.7,1139.3z
     M-254.1,1167L-254.1,1167L-254.1,1167z M-254.4,1164C-254.4,1164-254.2,1164-254.4,1164c0.5-0.1,0.9-0.5,1.1-0.7c0,0,0-0.1,0-0.2
    c-0.2,0.1-0.4,0.2-0.5,0.5C-254,1163.6-254.1,1163.7-254.4,1164C-254.2,1164-254.4,1164-254.4,1164S-254.4,1164.1-254.4,1164
    L-254.4,1164C-254.4,1164.1-254.4,1164-254.4,1164z M-254.5,1167.5L-254.5,1167.5L-254.5,1167.5z M-255.5,1142.5L-255.5,1142.5
    L-255.5,1142.5z M-242,1145.7L-242,1145.7L-242,1145.7z M-255.1,1140.9L-255.1,1140.9L-255.1,1140.9L-255.1,1140.9L-255.1,1140.9z
     M-242.1,1143.2L-242.1,1143.2L-242.1,1143.2z M-253.1,1141.9L-253.1,1141.9L-253.1,1141.9c-0.1,0.1-0.1,0.1-0.1,0.1
    S-253.1,1142-253.1,1141.9L-253.1,1141.9z M-245.5,1156L-245.5,1156L-245.5,1156z M-245.6,1156.5L-245.6,1156.5L-245.6,1156.5z
     M-253,1167L-253,1167L-253,1167z M-244.5,1145.6L-244.5,1145.6L-244.5,1145.6z M-253.5,1139.9L-253.5,1139.9L-253.5,1139.9z
     M-253.5,1145.1L-253.5,1145.1C-253.6,1145.1-253.6,1145.1-253.5,1145.1c-0.1,0.1-0.1,0.1-0.1,0.1l0,0l0,0
    C-253.7,1145.2-253.6,1145.2-253.5,1145.1C-253.6,1145.1-253.6,1145.1-253.5,1145.1z M-244.9,1147.2L-244.9,1147.2L-244.9,1147.2z
     M-274,1172.5L-274,1172.5L-274,1172.5z M-273.7,1146.1L-273.7,1146.1L-273.7,1146.1z M-272.2,1171.5L-272.2,1171.5L-272.2,1171.5z
     M-272.4,1151.9L-272.4,1151.9L-272.4,1151.9z M-272.1,1165.2L-272.1,1165.2L-272.1,1165.2z M-273.2,1169.2L-273.2,1169.2
    L-273.2,1169.2z M-277.1,1147.2L-277.1,1147.2L-277.1,1147.2z M-277.5,1148L-277.5,1148C-277.3,1148-277.3,1148-277.5,1148
    c0.1-0.1,0.1-0.1,0.1-0.1S-277.3,1147.9-277.5,1148C-277.3,1148-277.3,1148-277.5,1148z M-278.8,1154.1L-278.8,1154.1
    L-278.8,1154.1z M-278,1146.6L-278,1146.6L-278,1146.6z M-278.1,1156L-278.1,1156L-278.1,1156z M-276.5,1153L-276.5,1153
    L-276.5,1153z M-276.7,1141.5L-276.7,1141.5L-276.7,1141.5z M-276.5,1149.6L-276.5,1149.6L-276.5,1149.6z M-267.7,1172.7
    L-267.7,1172.7C-267.7,1172.7-267.9,1172.7-267.7,1172.7c-0.2,0.1-0.5,0.2-0.6,0.4c-0.1,0-0.2,0.1-0.4,0.2l0,0l0,0
    c0.1,0,0.2,0,0.5,0l0,0c0.1,0,0.2,0.1,0.2,0c0.5-0.1,1-0.2,1.5-0.4c0.1,0,0.2-0.2,0.5-0.4c-0.2,0-0.2-0.1-0.4-0.1
    c-0.4,0-0.7,0-1,0.2C-267.6,1172.8-267.7,1173-267.7,1172.7C-267.9,1172.7-267.7,1172.7-267.7,1172.7z M-264.5,1162.8
    L-264.5,1162.8L-264.5,1162.8z M-264.1,1172L-264.1,1172L-264.1,1172L-264.1,1172c0,0.1-0.1,0.1-0.1,0.1l0,0
    c-0.1,0-0.2,0.1-0.4,0.1l0,0c-0.1,0.1-0.2,0.1-0.4,0.1c-0.2,0-0.2,0.1-0.2,0.4c0.2-0.1,0.4-0.1,0.5-0.1c0.4-0.1,0.7-0.2,1.1-0.2
    c0.1,0,0.1,0.1,0.2,0.1c0,0,0,0,0-0.1c-0.1,0-0.1,0-0.2-0.1c0.1-0.2,0.5-0.2,0.5-0.5c-0.1-0.1-0.2-0.1-0.4,0
    C-263.6,1172-263.9,1172-264.1,1172C-264.1,1172.1-264.1,1172.1-264.1,1172z M-264.2,1155L-264.2,1155L-264.2,1155L-264.2,1155
    L-264.2,1155z M-269.4,1156.1L-269.4,1156.1c0.1-0.1,0.1-0.1,0.2-0.2l0,0C-269.2,1156-269.4,1156-269.4,1156.1L-269.4,1156.1z
     M-246.5,1146.1L-246.5,1146.1L-246.5,1146.1L-246.5,1146.1z M-248,1163.3C-248.1,1163.3-248.1,1163.3-248,1163.3
    C-248.1,1163.3-248.1,1163.3-248,1163.3c-0.1,0-0.2,0-0.4,0.1s-0.2,0.4-0.2,0.5c-0.1,0-0.1,0-0.2,0.1c-0.1,0.2-0.4,0.4-0.6,0.5l0,0
    l0,0c-0.1,0.1-0.4,0.4-0.5,0.5c-0.1,0.1-0.4,0.4-0.5,0.5c0,0,0,0,0,0.1l0,0l0,0c0,0,0,0,0-0.1c0.6-0.1,1-0.5,1.5-0.7
    c0.2-0.1,0.4-0.4,0.2-0.6c0.1,0,0.1,0,0.2-0.1C-248.4,1163.8-248.3,1163.6-248,1163.3C-248.1,1163.3-248.1,1163.3-248,1163.3
    L-248,1163.3z M-245.5,1155L-245.5,1155L-245.5,1155L-245.5,1155z M-243.5,1147L-243.5,1147L-243.5,1147L-243.5,1147z
     M-269.7,1156.2L-269.7,1156.2L-269.7,1156.2L-269.7,1156.2L-269.7,1156.2z M-272.9,1161.5L-272.9,1161.5c0-0.2,0-0.4-0.1-0.2
    c-0.4,0.1-0.7,0.4-1.1,0.5c0,0,0,0.1,0,0.4c0.1-0.1,0.2-0.1,0.2-0.1C-273.6,1161.7-273.2,1161.5-272.9,1161.5L-272.9,1161.5
    L-272.9,1161.5L-272.9,1161.5z M-273,1162.5c-0.1,0-0.1,0-0.2,0.1l0,0l0,0C-273.1,1162.5-273,1162.5-273,1162.5l0.1-0.1
    c0,0,0.1,0,0.1-0.1c0.4-0.1,0.6-0.4,1-0.5c0.4-0.1,0.6-0.2,1-0.4l0,0c0.1-0.1,0.2-0.2,0.5-0.4c-0.4-0.1-0.6,0.1-0.9,0.1l0,0l0,0
    c-0.1,0-0.1,0.1-0.2,0.1c-0.5,0.2-1,0.4-1.4,0.6c-0.2,0.1-0.5,0.2-0.7,0.2c-0.1,0-0.1,0.1-0.2,0.2
    C-273.3,1162.3-273.1,1162.3-273,1162.5C-273,1162.3-273,1162.3-273,1162.5z M-273.1,1172.1L-273.1,1172.1
    C-273.1,1172.1-273.1,1172.2-273.1,1172.1c0,0.1,0,0.2,0,0.2c0.1-0.1,0.2-0.1,0.2-0.1l0,0C-273,1172.2-273.1,1172.2-273.1,1172.1
    C-273.1,1172.2-273.1,1172.1-273.1,1172.1z M-265.4,1162.2L-265.4,1162.2L-265.4,1162.2L-265.4,1162.2z M-265.7,1172.7
    c0,0,0.1,0,0.1,0.1l0,0C-265.6,1172.8-265.7,1172.8-265.7,1172.7L-265.7,1172.7z M-264,1172.7L-264,1172.7L-264,1172.7
    C-263.9,1172.6-264,1172.7-264,1172.7z M-263.7,1150.6L-263.7,1150.6L-263.7,1150.6L-263.7,1150.6L-263.7,1150.6z M-264.6,1167.2
    L-264.6,1167.2L-264.6,1167.2L-264.6,1167.2z M-268.4,1170L-268.4,1170L-268.4,1170C-268.5,1170-268.4,1170-268.4,1170z
     M-267.2,1170.2L-267.2,1170.2L-267.2,1170.2L-267.2,1170.2z M-278.8,1145L-278.8,1145L-278.8,1145L-278.8,1145z M-278.6,1142.1
    L-278.6,1142.1L-278.6,1142.1L-278.6,1142.1z M-275.7,1152.9L-275.7,1152.9C-275.6,1152.9-275.6,1152.9-275.7,1152.9
    C-275.6,1152.9-275.6,1152.7-275.7,1152.9C-275.6,1152.7-275.6,1152.7-275.7,1152.9L-275.7,1152.9z M-274.8,1146.7L-274.8,1146.7
    L-274.8,1146.7L-274.8,1146.7z M-277.3,1155.4L-277.3,1155.4L-277.3,1155.4L-277.3,1155.4z M-254.9,1145.7L-254.9,1145.7
    L-254.9,1145.7L-254.9,1145.7z M-254.5,1162.5C-254.6,1162.5-254.6,1162.5-254.5,1162.5c-0.2,0.1-0.2,0.2-0.1,0.4
    c-0.2,0.1-0.5,0.2-0.5,0.6c0.2-0.2,0.4-0.5,0.7-0.5c0.1,0,0.2-0.2,0.4-0.4c0.1-0.1,0.1-0.2,0.1-0.4h0.1c0.1,0,0.1,0,0.2-0.1l0,0
    c0.1-0.2,0.2-0.4,0.5-0.6c0.4-0.4,0.6-0.7,1-1c0.1-0.1,0.2-0.2,0.2-0.4c-0.2,0.1-0.2,0.1-0.5,0.4c0,0-0.1,0-0.1,0.1
    c-0.6,0.2-1,0.9-1.5,1.2c-0.1,0.4-0.5,0.5-0.7,0.7C-254.6,1162.6-254.6,1162.6-254.5,1162.5
    C-254.6,1162.5-254.6,1162.5-254.5,1162.5L-254.5,1162.5L-254.5,1162.5z M-253.4,1146.1L-253.4,1146.1L-253.4,1146.1L-253.4,1146.1
    z M-253.5,1168.1C-253.5,1168.1-253.6,1168.2-253.5,1168.1c-0.1,0.1-0.2,0.1-0.2,0.1l0,0l0,0
    C-253.7,1168.2-253.7,1168.2-253.5,1168.1C-253.6,1168.1-253.6,1168.1-253.5,1168.1L-253.5,1168.1L-253.5,1168.1z M-254,1166.5
    L-254,1166.5L-254,1166.5L-254,1166.5z M-259.5,1158.5L-259.5,1158.5L-259.5,1158.5L-259.5,1158.5z M-256.1,1160.2L-256.1,1160.2
    L-256.1,1160.2L-256.1,1160.2z M-256.2,1166.8L-256.2,1166.8l-0.1,0.1c0,0-0.1,0-0.1,0.1l0,0l0.1-0.1
    C-256.4,1166.8-256.4,1166.8-256.2,1166.8z M-257.4,1170L-257.4,1170L-257.4,1170L-257.4,1170z M-257.5,1157L-257.5,1157
    L-257.5,1157C-257.6,1157-257.5,1157-257.5,1157z M-250.3,1154.7L-250.3,1154.7L-250.3,1154.7
    C-250.3,1154.6-250.3,1154.7-250.3,1154.7z M-250.4,1158.6L-250.4,1158.6c0.1-0.1,0.1-0.1,0.1-0.1
    C-250.4,1158.5-250.4,1158.5-250.4,1158.6L-250.4,1158.6C-250.4,1158.7-250.4,1158.7-250.4,1158.6L-250.4,1158.6
    C-250.5,1158.7-250.5,1158.7-250.4,1158.6z M-252.5,1147.5L-252.5,1147.5L-252.5,1147.5L-252.5,1147.5z M-252.9,1147.2
    L-252.9,1147.2L-252.9,1147.2L-252.9,1147.2z M-252.9,1144.2L-252.9,1144.2L-252.9,1144.2L-252.9,1144.2z M-251.4,1160.5
    L-251.4,1160.5L-251.4,1160.5C-251.5,1160.5-251.4,1160.5-251.4,1160.5z M-260,1160.7c0-0.1,0-0.1,0.1-0.2h0.1l0,0l-0.1,0.1
    C-260,1160.6-260,1160.6-260,1160.7L-260,1160.7L-260,1160.7z M-263.5,1160.6L-263.5,1160.6l0.1-0.1c0,0,0,0,0.1,0l0,0l0,0
    c0,0,0,0-0.1,0C-263.4,1160.6-263.4,1160.6-263.5,1160.6z M-261.6,1172.2C-261.5,1172.2-261.5,1172.2-261.6,1172.2
    C-261.5,1172.2-261.5,1172.2-261.6,1172.2L-261.6,1172.2z M-253,1164.6L-253,1164.6L-253,1164.6c0,0.1-0.1,0.1-0.1,0.2
    c-0.4,0.1-0.4,0.1-0.4,0.5c0.1-0.2,0.2-0.4,0.4-0.5C-253.1,1164.7-253,1164.7-253,1164.6z M-278.8,1152.4L-278.8,1152.4
    c0,0.1,0,0.2,0,0.4c0.4-0.1,0.6-0.2,0.7-0.5c-0.1-0.2-0.2-0.1-0.4,0C-278.7,1152.2-278.7,1152.4-278.8,1152.4L-278.8,1152.4
    C-278.8,1152.2-278.8,1152.2-278.8,1152.4C-278.8,1152.2-278.8,1152.2-278.8,1152.4z M-253.5,1167.6
    C-253.5,1167.7-253.5,1167.7-253.5,1167.6C-253.5,1167.7-253.5,1167.6-253.5,1167.6C-253.4,1167.6-253.4,1167.6-253.5,1167.6
    C-253.4,1167.6-253.4,1167.6-253.5,1167.6z M-246.9,1151.6L-246.9,1151.6c0,0.2,0,0.4-0.1,0.5c-0.4,0.1-0.4,0.4-0.5,0.6
    c0,0.1,0.1,0.1,0.1,0.2l0,0c0,0.1,0,0.1,0,0.2c-0.1,0-0.2-0.1-0.4-0.1c-0.4,0.5-0.9,1-1,1.6c0.4-0.4,0.7-0.9,1-1.4l0,0l0.1,0.1l0,0
    v0.1l0,0c0.1-0.2,0.2-0.4,0.5-0.6c0.2-0.2,0.4-0.6,0.6-0.9c0.2-0.4,0.6-0.7,0.9-1.2c0.1-0.1,0.2-0.2,0-0.4c0-0.2,0-0.5,0.2-0.5
    c0,0.1-0.1,0.2-0.1,0.4c0.1-0.1,0.1-0.2,0.1-0.4c0.2-0.4,0.4-0.7,0.5-1.1c0.1-0.2,0.2-0.5,0.2-0.7c-0.1,0-0.1,0.1-0.2,0.1
    c-0.2,0.4-0.6,0.6-1,0.6c-0.1,0-0.1,0.1-0.1,0.2c-0.2,0-0.5,0.1-0.6,0.4c-0.1,0.2-0.2,0.4-0.4,0.6c0-0.2,0.1-0.4,0.1-0.6
    c-0.1,0-0.1,0-0.2,0.1c0,0,0,0-0.1,0.1c-0.1,0-0.2,0-0.2,0c-0.5,0.2-1,0.5-1.4,0.7c0,0.1,0.1,0.2,0.1,0.5c-0.1,0-0.2,0-0.4,0
    c-0.2,0.1-0.4,0.4-0.5,0.6c0,0,0,0.1,0,0.2c0,0.1-0.1,0.2-0.1,0.5c0,0,0,0.1-0.1,0.1c0,0,0,0,0,0.1c-0.2,0.2-0.5,0.5-0.7,0.7
    c0,0-0.1,0.1-0.1,0.2c0,0.2-0.1,0.4-0.2,0.6c-0.1,0.1-0.1,0.2,0,0.2l0,0c0.1,0,0.1,0,0.2,0.1c0-0.2,0.4-0.4,0.5-0.5
    c0.2-0.4,0.5-0.7,0.7-1c0.1-0.2,0.4-0.5,0.6-0.7c-0.2,0-0.4,0.1-0.5,0.1c0.1-0.4,0.2-0.6,0.5-0.9c0.1-0.1,0.1-0.2,0.2-0.4
    c0.1,0,0.1-0.1,0.2-0.1c0.1,0,0.2,0,0.2-0.1c0.1-0.2,0.4-0.2,0.6-0.4c0.2-0.2,0.5-0.2,0.5-0.5c0,0,0,0,0.1-0.1
    c0,0.1,0.1,0.2,0.1,0.4c0,0.1,0,0.1,0.1,0.2c-0.1,0.2-0.1,0.4-0.4,0.5l0,0c-0.1,0.1-0.1,0.4-0.2,0.5c-0.2,0.4-0.5,0.7-0.7,1.1l0,0
    c-0.1,0.1-0.1,0.2-0.2,0.5v0.1c0,0.1,0,0.2-0.1,0.4c0,0,0,0,0.1,0c0-0.1,0.1-0.2,0.1-0.4c0.4-0.5,0.5-1,1.1-1.2l0.1-0.1
    c0.5-0.6,1-1.4,1.4-2.1h0.1l0,0c0.1,0.1,0,0.4-0.1,0.5c-0.1,0.1-0.1,0.1-0.1,0.2l0,0c-0.1,0.4,0.1,0.5,0.4,0.6
    c0,0.1-0.1,0.1-0.1,0.2l0,0c0,0-0.1-0.1-0.2-0.1c-0.1,0.1-0.1,0.2-0.2,0.4h-0.1l0,0l0,0c0,0.2-0.1,0.4-0.1,0.6
    c0,0.1-0.1,0.4-0.2,0.5s-0.1,0.1-0.2,0C-246.9,1152-246.8,1151.9-246.9,1151.6L-246.9,1151.6L-246.9,1151.6L-246.9,1151.6z
     M-251.8,1161.5L-251.8,1161.5C-251.9,1161.6-251.9,1161.6-251.8,1161.5C-251.9,1161.6-251.9,1161.6-251.8,1161.5z M-247.4,1141.6
    L-247.4,1141.6L-247.4,1141.6L-247.4,1141.6L-247.4,1141.6z M-279.2,1144.6L-279.2,1144.6L-279.2,1144.6L-279.2,1144.6z
     M-262.4,1171.7L-262.4,1171.7L-262.4,1171.7L-262.4,1171.7L-262.4,1171.7z M-258.2,1156.6L-258.2,1156.6L-258.2,1156.6
    C-258.2,1156.6-258.4,1156.6-258.2,1156.6C-258.4,1156.6-258.4,1156.6-258.2,1156.6L-258.2,1156.6z M-274.5,1171.6
    C-274.3,1171.6-274.3,1171.6-274.5,1171.6C-274.3,1171.6-274.3,1171.6-274.5,1171.6L-274.5,1171.6z M-254.9,1138.9L-254.9,1138.9
    L-254.9,1138.9L-254.9,1138.9L-254.9,1138.9z M-256.6,1163.2L-256.6,1163.2C-256.6,1163.2-256.6,1163.3-256.6,1163.2
    C-256.6,1163.3-256.6,1163.2-256.6,1163.2z M-256.9,1157.9L-256.9,1157.9L-256.9,1157.9C-256.7,1157.9-256.7,1157.9-256.9,1157.9
    C-256.7,1157.9-256.7,1157.9-256.9,1157.9z M-260.1,1154.1C-260.1,1154.1-260,1154.1-260.1,1154.1
    C-260,1154.1-260.1,1154.1-260.1,1154.1L-260.1,1154.1z M-277.6,1148.5L-277.6,1148.5L-277.6,1148.5
    C-277.6,1148.5-277.6,1148.4-277.6,1148.5C-277.6,1148.4-277.6,1148.4-277.6,1148.5c0-0.1,0-0.1-0.1-0.1c0,0,0,0,0,0.1
    C-277.7,1148.4-277.6,1148.4-277.6,1148.5C-277.6,1148.4-277.6,1148.5-277.6,1148.5z M-249.1,1159.9
    C-249.1,1159.9-249.3,1159.9-249.1,1159.9c-0.1,0.2-0.2,0.2-0.1,0.5C-249.3,1160.1-249.3,1160-249.1,1159.9
    C-249.3,1159.9-249.1,1159.9-249.1,1159.9C-249.1,1159.7-249.1,1159.7-249.1,1159.9C-249.1,1159.7-249.1,1159.7-249.1,1159.9z
     M-248.6,1142.9L-248.6,1142.9L-248.6,1142.9L-248.6,1142.9L-248.6,1142.9z M-248.6,1142.3c-0.1,0-0.1,0-0.2,0
    c-0.1-0.1-0.1-0.1-0.2-0.1l-0.1,0.1l0,0l0.1-0.1c0.1,0,0.1,0.1,0.2,0.1S-248.6,1142.3-248.6,1142.3S-248.5,1142.3-248.6,1142.3
    C-248.5,1142.3-248.6,1142.3-248.6,1142.3z M-249.5,1154.9L-249.5,1154.9L-249.5,1154.9c0,0.1-0.1,0.1-0.1,0.1s0,0-0.1,0.1
    c-0.1,0.1-0.2,0.2-0.4,0.4c0,0.1-0.1,0.1-0.1,0.2c-0.4,0.2-0.6,0.5-0.9,1c-0.2,0.4-0.6,0.6-0.7,1.1c0.2,0,0.4-0.2,0.5-0.4
    c0.4-0.4,0.7-0.7,1.1-1.2c0.1-0.1,0.2-0.2,0.2-0.2c0.4-0.4,0.4-0.4,0.2-0.9c0,0,0,0,0.1-0.1C-249.6,1155-249.6,1155-249.5,1154.9z
     M-269,1172.8C-269,1172.8-268.9,1172.8-269,1172.8C-268.9,1172.8-269,1172.8-269,1172.8c0,0.1-0.1,0.1-0.1,0.2
    c-0.2,0-0.5,0.1-0.9,0.1l0,0c0.5,0.2,0.6,0.2,0.9-0.1L-269,1172.8z M-266.4,1161.7L-266.4,1161.7L-266.4,1161.7L-266.4,1161.7z
     M-247.9,1163.2L-247.9,1163.2L-247.9,1163.2L-247.9,1163.2L-247.9,1163.2z M-249.3,1154.1L-249.3,1154.1L-249.3,1154.1h-0.1
    c0.1-0.1,0.1-0.2,0.2-0.5c0.1-0.1,0.2-0.2,0-0.4c0,0.2,0,0.4,0,0.4c-0.4,0-0.5,0.2-0.6,0.6
    C-249.6,1154.1-249.6,1154.1-249.3,1154.1L-249.3,1154.1z M-257.1,1166.5L-257.1,1166.5C-257.1,1166.6-257.1,1166.6-257.1,1166.5
    L-257.1,1166.5L-257.1,1166.5z M-275.6,1148.7C-275.6,1148.7-275.7,1148.9-275.6,1148.7c-0.2,0.1-0.4,0.1-0.4,0.4
    C-275.8,1149-275.7,1148.9-275.6,1148.7C-275.7,1148.9-275.6,1148.7-275.6,1148.7S-275.5,1148.7-275.6,1148.7L-275.6,1148.7z
     M-271.7,1157.6L-271.7,1157.6L-271.7,1157.6C-271.7,1157.6-271.6,1157.6-271.7,1157.6C-271.6,1157.5-271.6,1157.5-271.7,1157.6
    C-271.6,1157.5-271.6,1157.5-271.7,1157.6L-271.7,1157.6z M-271.9,1156.1C-271.9,1156-271.9,1156-271.9,1156.1
    C-271.9,1156-272,1156-271.9,1156.1C-272,1156-272,1156-271.9,1156.1C-271.9,1156-271.9,1156-271.9,1156.1L-271.9,1156.1z
     M-271.7,1171.3L-271.7,1171.3C-271.9,1171.3-271.9,1171.3-271.7,1171.3C-271.9,1171.5-271.9,1171.5-271.7,1171.3
    C-271.9,1171.5-271.9,1171.5-271.7,1171.3C-271.9,1171.5-271.9,1171.3-271.7,1171.3z M-271.7,1155.6L-271.7,1155.6L-271.7,1155.6
    C-271.7,1155.5-271.7,1155.5-271.7,1155.6C-271.7,1155.5-271.7,1155.5-271.7,1155.6L-271.7,1155.6z M-270.4,1150.1L-270.4,1150.1
    L-270.4,1150.1L-270.4,1150.1C-270.4,1150.2-270.4,1150.2-270.4,1150.1L-270.4,1150.1z M-265,1158L-265,1158h0.1l0,0
    C-264.9,1158-264.9,1158-265,1158z M-264.4,1166.2L-264.4,1166.2C-264.4,1166.3-264.4,1166.3-264.4,1166.2
    C-264.4,1166.3-264.4,1166.3-264.4,1166.2L-264.4,1166.2C-264.4,1166.2-264.5,1166.2-264.4,1166.2L-264.4,1166.2z M-264.4,1165.8
    L-264.4,1165.8L-264.4,1165.8L-264.4,1165.8z M-272.4,1159.4L-272.4,1159.4h-0.1c0,0,0,0,0,0.1
    C-272.4,1159.4-272.4,1159.4-272.4,1159.4z M-253.7,1142.3L-253.7,1142.3c0,0.1-0.1,0.1-0.1,0.2c-0.4,0.1-0.6,0.2-0.9,0.5
    c0.4,0,0.6-0.2,0.9-0.5C-253.9,1142.4-253.7,1142.3-253.7,1142.3z M-250.5,1139.5L-250.5,1139.5c0-0.1,0-0.1,0-0.2c0,0,0,0,0-0.1
    v0.1C-250.6,1139.4-250.5,1139.4-250.5,1139.5L-250.5,1139.5C-250.5,1139.6-250.6,1139.6-250.5,1139.5
    C-250.6,1139.6-250.6,1139.6-250.5,1139.5C-250.6,1139.6-250.6,1139.6-250.5,1139.5C-250.5,1139.6-250.5,1139.6-250.5,1139.5z
     M-279.3,1147C-279.3,1146.9-279.2,1146.9-279.3,1147C-279.2,1146.9-279.3,1147-279.3,1147L-279.3,1147z M-246.9,1161.5
    C-246.9,1161.4-246.9,1161.4-246.9,1161.5C-246.9,1161.4-246.9,1161.4-246.9,1161.5C-246.9,1161.4-246.9,1161.5-246.9,1161.5
    L-246.9,1161.5z M-246.6,1147.4C-246.7,1147.3-246.7,1147.4-246.6,1147.4l-0.2,0.2c0,0,0,0,0.1,0L-246.6,1147.4
    C-246.8,1147.5-246.6,1147.4-246.6,1147.4L-246.6,1147.4z M-245.4,1155.4C-245.4,1155.2-245.5,1155.2-245.4,1155.4
    C-245.5,1155.2-245.4,1155.2-245.4,1155.4L-245.4,1155.4L-245.4,1155.4z M-255.5,1157.7C-255.5,1157.7-255.6,1157.7-255.5,1157.7
    C-255.6,1157.7-255.5,1157.7-255.5,1157.7L-255.5,1157.7C-255.5,1157.6-255.5,1157.6-255.5,1157.7
    C-255.5,1157.6-255.5,1157.6-255.5,1157.7C-255.5,1157.6-255.5,1157.7-255.5,1157.7z M-255.9,1139.5L-255.9,1139.5
    c0.1-0.1,0.1-0.1,0.2-0.1l0,0C-255.7,1139.4-255.9,1139.4-255.9,1139.5z M-249.5,1146.4L-249.5,1146.4
    C-249.5,1146.4-249.6,1146.4-249.5,1146.4C-249.6,1146.4-249.6,1146.5-249.5,1146.4C-249.6,1146.5-249.6,1146.5-249.5,1146.4
    C-249.5,1146.5-249.5,1146.4-249.5,1146.4z M-248.6,1151.4C-248.6,1151.4-248.6,1151.5-248.6,1151.4
    C-248.6,1151.5-248.6,1151.4-248.6,1151.4L-248.6,1151.4c-0.1,0-0.2,0.1-0.4,0.1c0,0,0,0,0,0.1
    C-248.9,1151.5-248.8,1151.5-248.6,1151.4L-248.6,1151.4z M-254.4,1143.9C-254.4,1143.9-254.2,1143.9-254.4,1143.9
    C-254.2,1143.7-254.2,1143.7-254.4,1143.9C-254.2,1143.7-254.2,1143.7-254.4,1143.9C-254.4,1143.7-254.4,1143.9-254.4,1143.9
    c-0.1,0.1-0.1,0.1-0.2,0.2c-0.1,0-0.1,0.1-0.2,0.1c-0.1,0-0.2,0.1-0.4,0.2c-0.1,0-0.1,0.1-0.2,0.1c-0.4,0.1-0.6,0.4-0.9,0.6
    c-0.1,0-0.2,0.1-0.4,0.2c0.2,0,0.2-0.1,0.4-0.2c0.4-0.1,0.6-0.4,0.7-0.6c0.1,0,0.1-0.1,0.2-0.1c0.2-0.1,0.4-0.2,0.5-0.2
    c0.1,0,0.2,0,0.2,0v0.1c0,0-0.1,0-0.1,0.1c0,0,0,0,0.1-0.1v-0.1v-0.1C-254.5,1144-254.5,1143.9-254.4,1143.9z M-249.9,1156.9
    L-249.9,1156.9L-249.9,1156.9L-249.9,1156.9C-249.9,1157-249.9,1157-249.9,1156.9z M-265.1,1161.6L-265.1,1161.6
    C-265,1161.6-265,1161.6-265.1,1161.6C-265,1161.6-265.1,1161.6-265.1,1161.6L-265.1,1161.6h-0.1
    C-265.2,1161.7-265.2,1161.7-265.1,1161.6C-265.2,1161.7-265.1,1161.6-265.1,1161.6z M-248.9,1158.5L-248.9,1158.5
    c0.4-0.6,0.7-1.1,1.1-1.6c0.7-1.1,1.4-2.2,1.9-3.4c0.1-0.1,0-0.2,0-0.4l0.1-0.1l0,0c0,0,0,0.1-0.1,0.1c-0.1,0.1-0.2,0.4-0.4,0.5
    l-0.1-0.1c0.4-0.5,0.6-0.9,1-1.4c0.1-0.1,0.1-0.2,0-0.5c-0.6,0.6-0.7,1.2-1.2,1.9c0,0,0,0.1,0,0.4c0.1-0.1,0.2-0.1,0.2-0.2
    c0.1,0,0.1,0,0.2,0.1c0,0.1,0,0.2-0.1,0.4c-0.5,0.7-1,1.5-1.5,2.2C-248.3,1156.9-248.6,1157.6-248.9,1158.5L-248.9,1158.5
    L-248.9,1158.5L-248.9,1158.5C-248.9,1158.6-248.9,1158.6-248.9,1158.5z M-270.7,1171L-270.7,1171L-270.7,1171L-270.7,1171z
     M-245.1,1154.2c0,0.1,0,0.1-0.1,0.2l-0.1,0.1l0,0C-245.3,1154.4-245.2,1154.4-245.1,1154.2
    C-245.3,1154.4-245.1,1154.4-245.1,1154.2c0-0.1,0.2-0.1,0-0.2c0.1-0.2,0.2-0.4,0.4-0.6c0.1-0.2,0.2-0.5,0.4-0.7
    c0.1-0.1,0.2-0.2,0.1-0.4l0,0c0,0.1-0.1,0.2-0.1,0.4c-0.1,0.1-0.2,0-0.4,0c-0.1,0.2-0.2,0.5-0.4,0.9c-0.1,0.2-0.4,0.5-0.4,1
    C-245.4,1154.4-245.3,1154.2-245.1,1154.2C-245.1,1154.1-245.1,1154.1-245.1,1154.2z M-255.7,1155.5L-255.7,1155.5
    C-255.7,1155.5-255.8,1155.5-255.7,1155.5L-255.7,1155.5C-255.9,1155.6-255.7,1155.6-255.7,1155.5z M-240.3,1143.9L-240.3,1143.9
    L-240.3,1143.9c0.1-0.1,0.2-0.1,0.4-0.2l0,0C-240,1143.7-240.1,1143.7-240.3,1143.9z M-275.1,1157.6L-275.1,1157.6l-0.1,0.1l0,0
    C-275.2,1157.7-275.2,1157.6-275.1,1157.6z M-257.9,1157.5C-258,1157.6-258,1157.6-257.9,1157.5c-0.2,0.1-0.4,0.1-0.4,0.2
    C-258.2,1157.7-258.1,1157.7-257.9,1157.5C-258,1157.6-258,1157.6-257.9,1157.5L-257.9,1157.5L-257.9,1157.5L-257.9,1157.5
    C-257.9,1157.4-258,1157.4-257.9,1157.5C-258,1157.4-258,1157.4-257.9,1157.5L-257.9,1157.5z M-276.8,1154.4
    C-276.8,1154.5-276.8,1154.5-276.8,1154.4C-276.8,1154.5-276.8,1154.5-276.8,1154.4c0,0.1,0,0.1,0,0.2V1154.4
    C-276.7,1154.6-276.7,1154.5-276.8,1154.4C-276.8,1154.5-276.8,1154.5-276.8,1154.4h0.1C-276.7,1154.4-276.7,1154.4-276.8,1154.4
    C-276.7,1154.4-276.7,1154.4-276.8,1154.4z M-262.2,1161.6L-262.2,1161.6h-0.1c0.1-0.1,0.2-0.2,0.4-0.4c0.4,0.2,0.4,0.2,0.6-0.1
    c0.1-0.2,0.2-0.4,0.4-0.6c0-0.1,0-0.1,0-0.2c-0.2,0-0.4,0.2-0.5,0.4c-0.1,0.2-0.2,0.2-0.5,0.2c0.1-0.2,0.1-0.4,0.2-0.5l0,0l0,0
    c-0.1,0-0.4,0-0.5,0.1s-0.1,0.1-0.2,0.1c-0.7,0.4-1.4,0.7-1.9,1.4l0,0l0,0c0.2,0,0.4,0,0.6,0l0,0c0.1,0.2,0,0.4-0.1,0.6
    c0.4-0.1,0.6-0.2,0.7-0.5c0.1-0.4,0.2-0.4,0.6-0.2c0.1-0.1,0.2-0.2,0.5-0.4l-0.1,0.1l0,0C-262.4,1161.7-262.2,1161.7-262.2,1161.6z
     M-266.2,1169.6C-266.2,1169.7-266.2,1169.7-266.2,1169.6C-266.2,1169.7-266.2,1169.7-266.2,1169.6c0.1-0.1,0.2-0.1,0.4-0.2
    c0.1,0,0.1,0,0.2,0c0,0,0,0,0-0.1c-0.1,0-0.1,0.1-0.2,0.1C-266,1169.5-266.1,1169.5-266.2,1169.6z M-251.9,1166.6
    c0,0.1,0.1,0.1,0.1,0.2c-0.2,0.1-0.2,0.1-0.1,0.2c0-0.1,0.1-0.2,0.1-0.2l0.1-0.1C-251.8,1166.7-251.9,1166.7-251.9,1166.6
    L-251.9,1166.6z M-253.4,1144.6L-253.4,1144.6L-253.4,1144.6c0.1,0,0.1,0,0.2-0.1c0,0,0,0,0-0.1
    C-253.2,1144.5-253.2,1144.5-253.4,1144.6z M-261.7,1158.9L-261.7,1158.9c0.1,0,0.1-0.1,0.2-0.1c0,0,0,0,0-0.1
    C-261.6,1158.7-261.7,1158.9-261.7,1158.9z M-278.2,1142.5C-278.2,1142.5-278.3,1142.5-278.2,1142.5
    C-278.3,1142.5-278.2,1142.5-278.2,1142.5s0.1,0,0.1-0.1l0,0C-278.1,1142.4-278.2,1142.4-278.2,1142.5z M-271,1155.6
    c-0.1,0-0.2,0.1-0.5,0.1c0,0.1,0,0.2,0,0.2c0,0.1,0,0.2,0,0.4l0,0c0.1,0,0.2-0.1,0.4-0.1c0.1-0.1,0.2-0.1,0.4-0.1l0,0
    c0.1,0.1,0.2,0.1,0.5,0l0,0c0.1-0.1,0.2-0.1,0.2-0.2c0.2-0.1,0.5-0.4,0.7-0.5c0.1-0.1,0.1,0,0.2,0.1l-0.1,0.1l0,0
    c0-0.1,0-0.1,0-0.2c0.2-0.4,0.5-0.6,0.5-1.1l0,0l0,0c-0.1,0.2-0.5,0.5-0.7,0.6c-0.5,0.1-1,0.4-1.5,0.7
    C-270.9,1155.5-270.9,1155.6-271,1155.6z M-275.1,1148.6L-275.1,1148.6C-275.2,1148.5-275.2,1148.6-275.1,1148.6
    C-275.2,1148.6-275.2,1148.6-275.1,1148.6L-275.1,1148.6C-275.1,1148.7-275.1,1148.6-275.1,1148.6z M-272.4,1172L-272.4,1172
    L-272.4,1172c0.1,0,0.1,0,0.2-0.1l0,0C-272.2,1171.8-272.2,1171.8-272.4,1172z M-268.1,1165.7L-268.1,1165.7c-0.1,0-0.2,0-0.2,0
    l0,0C-268.4,1165.7-268.2,1165.7-268.1,1165.7z M-279.7,1146.5L-279.7,1146.5C-279.7,1146.6-279.7,1146.6-279.7,1146.5
    C-279.7,1146.6-279.6,1146.6-279.7,1146.5L-279.7,1146.5L-279.7,1146.5z M-256.5,1146.1L-256.5,1146.1L-256.5,1146.1
    c0.1,0,0.1-0.1,0.2-0.1c0,0,0,0,0-0.1C-256.2,1146-256.4,1146-256.5,1146.1z M-256,1156.1L-256,1156.1L-256,1156.1l-0.1,0.1
    c0,0,0,0,0,0.1C-256.1,1156.2-256,1156.2-256,1156.1z M-276.2,1152.4C-276.2,1152.5-276.2,1152.5-276.2,1152.4
    C-276.2,1152.5-276.2,1152.5-276.2,1152.4c0.1,0,0.1-0.1,0.2-0.1l0,0C-276.1,1152.2-276.2,1152.4-276.2,1152.4z M-248.8,1161.5
    L-248.8,1161.5c0-0.1,0.1-0.1,0.1-0.2h-0.1C-248.8,1161.4-248.8,1161.5-248.8,1161.5z M-248,1154.7
    C-248,1154.7-248,1154.6-248,1154.7C-248,1154.6-248,1154.7-248,1154.7c-0.1,0.1-0.2,0.2-0.1,0.4c-0.2,0.4-0.6,0.6-1,1
    c0.5,0,1-0.5,1-0.9v-0.1C-248.1,1155-248.1,1154.9-248,1154.7z M-248.6,1145.1L-248.6,1145.1c-0.5,0.2-0.9,0.4-1.2,0.6l0,0l0,0
    l-0.1,0.1c-0.6,0.5-1.4,0.9-2.1,1.4c-0.1,0.1-0.2,0.1-0.1,0.4c0.5-0.4,0.9-0.6,1.4-0.9c0.5-0.4,1-0.6,1.6-1
    C-249.1,1145.6-248.9,1145.5-248.6,1145.1L-248.6,1145.1c0.1,0,0.2,0,0.4-0.2C-248.4,1145-248.5,1145.1-248.6,1145.1z
     M-273.1,1158.6C-273,1158.6-273,1158.6-273.1,1158.6C-273,1158.6-273,1158.6-273.1,1158.6c-0.1,0.1-0.2,0.1-0.4,0.2
    c-0.2-0.1-0.5-0.2-0.7-0.5c0,0,0-0.1-0.1-0.1l0,0c0,0,0.1,0,0.1,0.1s-0.1,0.1-0.1,0.4c0.2,0.1,0.4,0.1,0.6,0.2
    c0.1,0,0.1-0.1,0.2-0.1C-273.2,1158.9-273.1,1158.7-273.1,1158.6z M-264.2,1160.2L-264.2,1160.2c-0.1,0-0.1,0-0.2,0
    c0-0.1,0.1-0.1,0.1-0.2c-0.2,0-0.2,0.1-0.1,0.2l-0.1,0.1c0,0,0,0,0.1,0.1C-264.5,1160.4-264.4,1160.4-264.2,1160.2z M-254,1146.4
    c0.1,0.1,0.1,0.1,0.2,0C-253.9,1146.4-253.9,1146.4-254,1146.4L-254,1146.4L-254,1146.4z M-276.3,1154.4L-276.3,1154.4
    c0.1,0,0.2-0.1,0.1-0.2l0,0l0,0C-276.3,1154.1-276.3,1154.2-276.3,1154.4z M-252.1,1162.2L-252.1,1162.2L-252.1,1162.2
    c0.1,0,0.2-0.1,0.2-0.2C-252,1162-252,1162.1-252.1,1162.2z M-275.1,1169.8L-275.1,1169.8c-0.1,0-0.2,0.1-0.2,0.2
    C-275.3,1170-275.2,1170-275.1,1169.8z M-252.6,1166L-252.6,1166L-252.6,1166c0.1-0.1,0.1-0.2,0.2-0.2h0.1l0,0c0,0-0.1,0-0.1,0.1
    c-0.1,0-0.2,0.1-0.4,0.1s-0.1,0-0.2-0.1c0,0,0,0,0,0.1c0.1,0,0.1,0,0.2,0C-252.6,1165.8-252.6,1166-252.6,1166z M-247.8,1153.9
    c0,0.1-0.1,0.1-0.1,0.2c0,0,0,0,0.1,0C-247.8,1154-247.8,1154-247.8,1153.9L-247.8,1153.9z M-260.2,1157.7
    C-260.1,1157.7-260.1,1157.6-260.2,1157.7C-260.1,1157.6-260.1,1157.7-260.2,1157.7s-0.1,0-0.2-0.1v0.1
    C-260.4,1157.7-260.2,1157.7-260.2,1157.7z M-248.8,1146L-248.8,1146c-0.1,0-0.2,0-0.4,0.1C-249,1146.2-248.9,1146.1-248.8,1146z
     M-251.9,1159.5L-251.9,1159.5c0.1,0,0.2-0.1,0.4-0.1c-0.2,0.1-0.4,0.4-0.6,0.5l0,0c0,0,0,0.1,0,0.2c0.4-0.1,0.6-0.4,0.9-0.6
    c0.2-0.1,0.4-0.4,0.5-0.6c0.1-0.5,0.4-0.9,0.6-1.2c0.1-0.1,0.2-0.2,0.4-0.1c0,0.1-0.1,0.2-0.1,0.4c0,0,0,0,0.1,0
    c0.2-0.5,0.7-0.7,0.6-1.4l0,0l0,0c-0.1,0.1-0.2,0.2-0.2,0.4c-0.1,0.1-0.2,0.4-0.4,0.4c-0.5,0.1-0.7,0.5-1,1l0,0
    c-0.1,0.4-0.2,0.9-0.6,1.2c0-0.1-0.1-0.1-0.2-0.1C-251.8,1159.4-251.9,1159.5-251.9,1159.5z M-251.9,1165.2c0,0.1,0,0.1,0,0.2
    c0.1,0,0.1,0,0.2,0c0,0,0,0,0.1,0c0.2-0.1,0.4-0.2,0.6-0.4c0.1-0.1,0.1-0.2,0-0.4l0,0h0.1c-0.1,0.2-0.4,0.2-0.5,0.4v-0.1l0,0l0,0
    C-251.6,1165.1-251.8,1165.1-251.9,1165.2L-251.9,1165.2z M-274.1,1168.3L-274.1,1168.3L-274.1,1168.3c-0.1,0.1-0.1,0.1-0.1,0.4
    C-274.2,1168.6-274.2,1168.5-274.1,1168.3z M-280,1153.1L-280,1153.1l0.1,0.2v-0.1C-279.8,1153.2-280,1153.2-280,1153.1
    L-280,1153.1L-280,1153.1z M-273.5,1157.9L-273.5,1157.9c-0.1,0-0.2,0-0.4,0.2C-273.7,1158.1-273.6,1158-273.5,1157.9z
     M-261.9,1167.6L-261.9,1167.6c-0.2,0.1-0.2,0.4-0.2,0.5c-0.2,0.2-0.6,0.2-0.6,0.6c0.5,0,0.6-0.1,0.6-0.6
    C-262,1168-261.9,1167.7-261.9,1167.6z M-247,1143.4L-247,1143.4c-0.1,0.1-0.4,0.2-0.5,0.4l0,0l0,0
    C-247.4,1143.7-247.1,1143.6-247,1143.4z M-253.5,1166.2c0,0.1-0.1,0.1-0.1,0.2C-253.5,1166.5-253.5,1166.5-253.5,1166.2
    L-253.5,1166.2L-253.5,1166.2C-253.5,1166.2-253.5,1166.2-253.5,1166.2z M-265.4,1171.2L-265.4,1171.2L-265.4,1171.2
    c0.2,0,0.4,0,0.5-0.2C-265,1171-265.2,1171.1-265.4,1171.2z M-258.7,1158.7L-258.7,1158.7c0.1,0,0.4,0,0.4-0.2
    C-258.6,1158.5-258.7,1158.6-258.7,1158.7z M-254.6,1146.7L-254.6,1146.7L-254.6,1146.7c0.1,0,0.2,0,0.4-0.1
    C-254.5,1146.5-254.6,1146.5-254.6,1146.7z M-275.3,1171.7c0-0.2,0-0.2-0.1-0.4c0.4-0.1,0.7-0.4,1.1-0.5c-0.1-0.2-0.2-0.1-0.5-0.1
    c-0.4,0-0.6,0.1-1,0.2c-0.2,0-0.4,0.1-0.6,0.1l0,0c-0.1,0.1-0.2,0.1-0.2,0.2c0.1,0.2,0.2,0.2,0.5,0.2c0.1,0,0.2,0,0.5,0
    C-275.6,1171.6-275.5,1171.6-275.3,1171.7L-275.3,1171.7L-275.3,1171.7z M-279.2,1146L-279.2,1146c0.4,0,0.4,0,0.6-0.2
    C-278.8,1145.7-279.1,1145.9-279.2,1146z M-251.4,1155L-251.4,1155L-251.4,1155c0.1,0,0.4-0.1,0.4-0.4
    C-251.3,1154.7-251.3,1154.7-251.4,1155z M-251,1165.8L-251,1165.8c-0.2,0-0.4,0.1-0.5,0.4C-251.3,1166.2-251.1,1166.1-251,1165.8z
     M-252.9,1160.9C-252.9,1160.8-252.9,1160.7-252.9,1160.9c-0.2-0.1-0.2,0-0.3,0.1c-0.1,0.1-0.2,0.1-0.4,0.2c0.2,0,0.4,0,0.4-0.2
    C-253.1,1161-253,1160.9-252.9,1160.9L-252.9,1160.9z M-245.6,1148L-245.6,1148c0.4,0,0.4,0,0.4-0.2
    C-245.4,1147.7-245.5,1147.9-245.6,1148z M-265.6,1160L-265.6,1160c-0.2,0.1-0.5,0.1-0.5,0.5
    C-265.9,1160.4-265.7,1160.1-265.6,1160z M-252.9,1162.8c0.1-0.1,0.2-0.4,0.4-0.5c-0.2,0.1-0.4,0.2-0.5,0.2
    C-253.1,1162.7-253,1162.8-252.9,1162.8c0.1,0.1,0.1,0,0.2-0.1C-252.8,1162.8-252.9,1162.8-252.9,1162.8z M-262,1158.6L-262,1158.6
    L-262,1158.6h-0.1c0-0.1,0.2-0.2,0.1-0.4c-0.4,0-0.9,0.4-1,0.7c0,0,0,0-0.1,0l0,0l0,0c0,0,0,0,0-0.1c0.1,0,0.2,0,0.4,0l0.1,0.1
    c-0.1,0-0.2,0.1-0.4,0.1l-0.1-0.1c0,0,0,0,0,0.1h0.1c-0.2,0.1-0.4,0.2-0.6,0.5l0,0l0,0c0.2,0,0.4-0.1,0.6-0.1l0,0
    c0.2-0.1,0.4-0.2,0.6-0.5h0.1l0,0c0,0-0.1,0-0.1,0.1c-0.1,0-0.1,0-0.2,0C-262.2,1159-262.1,1158.7-262,1158.6z M-244.6,1149.4
    c0-0.1,0-0.1,0.1-0.2c0.4-0.2,0.6-0.7,0.4-1c-0.1,0.4-0.2,0.7-0.4,1C-244.6,1149.2-244.6,1149.4-244.6,1149.4
    c-0.2,0-0.4,0.2-0.4,0.5c0.1-0.1,0.2-0.2,0.4-0.2C-244.6,1149.6-244.6,1149.5-244.6,1149.4z M-266.5,1151.1c-0.2-0.2-0.2-0.2-0.6,0
    C-266.9,1151.2-266.6,1151.1-266.5,1151.1L-266.5,1151.1z M-272,1147.9l-0.1-0.1c-0.1,0-0.2,0-0.4,0.2
    C-272.2,1148-272.1,1147.9-272,1147.9L-272,1147.9L-272,1147.9z M-260.4,1169c0.1,0,0.1-0.1,0.2-0.1c0,0,0,0,0-0.1
    C-260.2,1168.8-260.4,1168.8-260.4,1169c-0.4,0.1-0.6,0.1-0.9,0.5h-0.1l0,0c0,0,0-0.1,0.1-0.1
    C-260.9,1169.3-260.6,1169.2-260.4,1169z M-259.4,1160.1L-259.4,1160.1c0.4,0,0.6-0.2,0.7-0.5
    C-258.9,1159.7-259.1,1160-259.4,1160.1z M-275.2,1162.1L-275.2,1162.1L-275.2,1162.1c-0.1,0-0.1,0.1-0.1,0.2c0,0.1,0,0.4,0.4,0.4
    C-275.1,1162.5-275.2,1162.2-275.2,1162.1z M-241.1,1141.3L-241.1,1141.3c0-0.1,0.1-0.2,0.1-0.4l0,0l0,0c-0.2,0-0.5,0.1-0.6,0.4
    l0,0c0,0.1,0,0.1,0,0.2C-241.4,1141.4-241.3,1141.3-241.1,1141.3z M-262.6,1155.1c0-0.1-0.1-0.1-0.2-0.1c-0.1,0.1-0.2,0.2-0.2,0.5
    C-263,1155.4-262.7,1155.4-262.6,1155.1L-262.6,1155.1z M-253.5,1154.1L-253.5,1154.1c-0.4-0.2-0.6-0.1-0.6,0.4
    C-253.9,1154.4-253.7,1154.2-253.5,1154.1z M-263.4,1158.4c0.1,0,0.2-0.1,0.4-0.1c0,0,0-0.1,0-0.2c0,0,0,0-0.1,0
    S-263.2,1158.2-263.4,1158.4c-0.1,0-0.2-0.1-0.2-0.1c-0.1,0-0.2,0.1-0.1,0.1l0,0c-0.1,0.1-0.2,0.1-0.2,0.4
    C-263.7,1158.6-263.6,1158.5-263.4,1158.4z M-247.3,1161.9L-247.3,1161.9c-0.2,0.1-0.2,0.2,0,0.4c0.2-0.1,0.4-0.2,0.4-0.6
    C-247,1161.7-247.1,1161.7-247.3,1161.9z M-273.6,1155c-0.1,0-0.2,0-0.2,0.2C-273.7,1155.1-273.7,1155-273.6,1155
    c0.2,0,0.6,0.1,0.9-0.1c-0.1-0.2-0.2-0.2-0.5-0.1C-273.3,1154.7-273.5,1154.9-273.6,1155z M-279.8,1145.6L-279.8,1145.6h0.1
    C-279.7,1145.7-279.7,1145.7-279.8,1145.6c0,0.1,0,0.1,0,0.2c0.5-0.2,0.2-0.6,0.2-1c0,0.2,0,0.4-0.1,0.4s-0.2-0.1-0.4-0.2
    c-0.1,0.2-0.2,0.4-0.1,0.5c0.2,0,0.4-0.1,0.5-0.2C-279.7,1145.4-279.7,1145.5-279.8,1145.6z M-279.3,1141.8c0-0.2-0.1-0.2-0.4-0.2
    c-0.1,0.1-0.1,0.2,0,0.5C-279.6,1141.9-279.5,1141.9-279.3,1141.8L-279.3,1141.8z M-251.6,1142.1h0.1
    C-251.5,1142-251.5,1142-251.6,1142.1C-251.5,1142-251.6,1142.1-251.6,1142.1c-0.6,0.2-0.9,0.4-1,0.7
    C-252.3,1142.7-251.8,1142.5-251.6,1142.1z M-259.2,1162.8C-259.2,1162.8-259.4,1162.8-259.2,1162.8
    C-259.4,1163-259.4,1163-259.2,1162.8C-259.4,1163-259.4,1163-259.2,1162.8C-259.4,1163-259.2,1163-259.2,1162.8
    c0.5-0.2,0.6-0.4,0.6-0.7C-259,1162.2-259.1,1162.6-259.2,1162.8z M-266.4,1159.1C-266.4,1159.1-266.3,1159.1-266.4,1159.1
    C-266.2,1159.1-266.2,1159.1-266.4,1159.1L-266.4,1159.1c-0.5,0-0.9,0-1.1,0.5l0,0c0.2-0.1,0.6-0.2,0.9-0.2
    C-266.4,1159.4-266.4,1159.4-266.4,1159.1z M-249.8,1139.5c0,0.2,0,0.5,0,0.7c0.2-0.1,0.4-0.1,0.5-0.4c-0.1-0.1-0.1-0.2-0.2-0.4
    c0,0,0-0.1,0,0l0,0C-249.6,1139.5-249.8,1139.5-249.8,1139.5L-249.8,1139.5z M-251.1,1151.1c-0.1,0.1-0.2,0.2-0.4,0.5
    c0,0.1,0,0.1-0.1,0.4c0.4-0.2,0.6-0.4,0.7-0.7C-250.9,1151.1-251,1151.1-251.1,1151.1L-251.1,1151.1z M-268,1148.4l-0.1,0.1
    c0,0,0,0.1,0,0.2c0,0,0.1,0.1,0.2,0.1c0.2,0,0.5-0.1,0.7-0.4C-267.5,1148.5-267.7,1148.4-268,1148.4L-268,1148.4z M-270.7,1163.3
    c-0.1,0.1-0.2,0.1-0.4,0.4c0.1,0,0.2,0,0.2,0c0.2,0,0.5-0.2,0.7-0.4l0,0c0-0.1,0-0.2-0.1-0.2
    C-270.5,1163.2-270.6,1163.3-270.7,1163.3L-270.7,1163.3L-270.7,1163.3z M-277.1,1144.6L-277.1,1144.6L-277.1,1144.6
    c-0.1,0.1-0.4,0.2-0.5,0.2c-0.2,0.1-0.5,0.2-0.6,0.4c0,0-0.1,0.1-0.1,0.2C-278,1145.5-277.3,1145-277.1,1144.6z M-252.5,1159.5
    c0.1-0.1,0.1-0.1,0.1-0.4C-252.4,1159.2-252.4,1159.4-252.5,1159.5c-0.1-0.1-0.1-0.1-0.2,0c-0.2,0.2-0.5,0.5-0.6,0.9l0,0l0,0
    C-253,1160.1-252.6,1159.7-252.5,1159.5z M-267.2,1168.2L-267.2,1168.2c0.5-0.1,1-0.4,1.1-0.6
    C-266.5,1167.5-267,1167.8-267.2,1168.2z M-269.2,1165.2c-0.1,0.2-0.4,0.1-0.5,0.5c0.6,0.1,1,0,0.9-0.5
    C-269,1165.1-269.1,1165.2-269.2,1165.2L-269.2,1165.2z M-260.9,1158.1C-260.9,1158-260.9,1158-260.9,1158.1c0-0.2,0-0.4-0.1-0.4
    c-0.4,0-0.5,0.4-0.4,0.7c0.1,0,0.1,0,0.2-0.1S-261,1158.2-260.9,1158.1z M-254.9,1150.6h0.1
    C-254.7,1150.6-254.7,1150.6-254.9,1150.6L-254.9,1150.6c-0.5,0.1-0.9,0.4-1.1,1C-255.5,1151.4-255.1,1151.2-254.9,1150.6z
     M-250.3,1148.1L-250.3,1148.1L-250.3,1148.1c0.1,0,0.2,0,0.4-0.1c0.4-0.2,0.7-0.4,1-0.6c0.2-0.1,0.4-0.4,0.6-0.5l0,0l0,0
    c-0.6,0.2-1.1,0.6-1.6,1C-250,1147.9-250.1,1148-250.3,1148.1z M-274.5,1157.5c-0.1,0.1-0.1,0.1-0.2,0.2c0.4,0,0.5,0,0.7-0.1l0,0
    l0,0c0.2-0.1,0.4-0.2,0.6-0.4c0.1,0,0.2,0,0.4,0l0,0c0.1-0.1,0-0.1,0-0.2c-0.1,0-0.1-0.1-0.2-0.1c0.2-0.5,0.6-0.6,1.1-0.7l0,0l0,0
    c0-0.1,0-0.2-0.1-0.1c-0.2,0.1-0.6,0.1-0.9,0.2c-0.6,0.2-1.4,0.5-2,0.7c-0.1,0-0.2,0.1-0.4,0.2v0.1c0,0-0.1,0-0.1,0.1h-0.1
    c-0.1,0-0.2,0-0.4,0.1c0-0.1,0-0.2,0-0.5c-0.2,0-0.4,0.1-0.6,0.1l0,0c-0.1,0-0.1,0.1,0,0.1c0.1,0.1,0.2,0.2,0.5,0.4
    c0.4,0.2,0.6,0.2,1,0c0.1-0.1,0.1-0.2,0.2-0.2l0,0l0,0c-0.1,0-0.2,0-0.4-0.1v-0.1c0.5,0,0.9,0,1.4-0.2c-0.1-0.1,0.1-0.1,0.2-0.2
    l0,0c0.1,0,0.1-0.1,0.2-0.1l0,0l0.1,0.1c-0.1,0.1-0.2,0.2-0.4,0.4C-274,1157.2-274.2,1157.4-274.5,1157.5L-274.5,1157.5z
     M-245.5,1142.3L-245.5,1142.3c0.1-0.2,0-0.4-0.1-0.4c-0.1-0.1-0.2,0-0.4,0.1c-0.1,0.1-0.1,0.2,0,0.6
    C-245.9,1142.5-245.6,1142.4-245.5,1142.3z M-247.6,1149c-0.1,0.1-0.2,0.2-0.4,0.2c-0.1,0.1-0.1,0.2,0,0.4l0,0l0.1-0.1
    c0.1-0.1,0.2-0.4,0.5-0.2c0.1-0.1,0.4-0.2,0.4-0.5C-247.3,1148.7-247.5,1148.9-247.6,1149L-247.6,1149z M-260.4,1150
    C-260.4,1150-260.5,1150-260.4,1150c-0.4,0.1-0.7,0.1-1,0.2c0.1,0.2,0.4,0.2,0.6,0.1c0.4-0.1,0.6-0.2,0.6-0.5
    C-260.2,1149.9-260.2,1150-260.4,1150z M-259.9,1168L-259.9,1168c-0.1,0-0.2,0-0.2,0c-0.4,0.1-0.7,0.4-1.1,0.7
    C-260.9,1168.7-260.1,1168.3-259.9,1168C-259.9,1168.1-259.9,1168-259.9,1168z M-252.5,1153.6c0.1,0.1,0.2,0.1,0.4,0
    c0.2-0.2,0.5-0.5,0.7-0.7c-0.1-0.1-0.1-0.1-0.1-0.2c-0.1-0.1-0.2-0.1-0.4,0C-252.1,1153-252.4,1153.4-252.5,1153.6
    C-252.5,1153.6-252.6,1153.6-252.5,1153.6C-252.6,1153.6-252.5,1153.6-252.5,1153.6z M-262,1157.1c0.4-0.1,0.5-0.4,0.6-0.7
    c0.1,0,0.2,0,0.2,0.1c0.1,0.1,0.2,0.1,0.5,0c0.1,0,0.1-0.1,0.2-0.1c0.2-0.1,0.4-0.4,0.4-0.7c-0.2,0.1-0.4,0.1-0.5,0.2
    c-0.2,0.2-0.5,0.4-0.7,0.6c-0.4-0.1-0.5,0.1-0.6,0.4c-0.2,0.4-0.4,0.7-0.6,1c0,0-0.1,0.1-0.1,0.4c0.2-0.1,0.4-0.4,0.5-0.5
    C-262.1,1157.4-262,1157.2-262,1157.1L-262,1157.1L-262,1157.1z M-262.9,1167.1L-262.9,1167.1c0-0.1,0.1-0.2,0.1-0.2
    c-0.4-0.1-0.6,0-1,0.2c-0.2,0.1-0.4,0.4-0.2,0.6c0.2,0.1,0.5,0,0.6-0.1C-263.2,1167.3-263,1167.2-262.9,1167.1z M-260.9,1170.5
    c0.4-0.2,0.7-0.4,1-0.6c0.2-0.2,0.6-0.5,1-0.6c0.1-0.1,0.4-0.1,0.4-0.4c-0.5,0.2-1,0.5-1.5,0.7c-0.5,0.2-1,0.5-1.4,1
    C-261.2,1170.5-261.1,1170.5-260.9,1170.5L-260.9,1170.5z M-272.1,1152.7c0.1-0.1,0.4-0.1,0.5-0.5c-1.1,0.4-2.2,0.7-3.4,1.1
    c0.1,0.1,0.2,0.1,0.4,0.2l0,0c0.5-0.1,0.9-0.2,1.4-0.5l0,0C-272.9,1153-272.5,1152.9-272.1,1152.7L-272.1,1152.7z M-270.2,1157.9
    l0.1-0.1C-270.1,1157.8-270.1,1157.8-270.2,1157.9C-270.2,1157.7-270.2,1157.9-270.2,1157.9c-0.1,0.1-0.4,0.1-0.5,0.2
    c-0.2,0.1-0.6,0.1-0.9,0.2c-0.5,0.2-1,0.5-1.5,0.7c0.1,0,0.1,0.1,0.1,0.1c0.5,0,0.9,0,1.4-0.2c0.4-0.2,0.7-0.5,1.1-0.7
    C-270.2,1158.1-270.2,1158-270.2,1157.9z M-250.9,1160.6L-250.9,1160.6c-0.1,0-0.2,0.1-0.1,0.2c0.1,0.1,0.1,0,0.2,0l0,0
    c0.2-0.2,0.6-0.6,0.9-0.9s0.4-0.7,0.2-1.1c-0.1,0.1-0.2,0.2-0.4,0.4c-0.1,0.2-0.2,0.4-0.5,0.6
    C-250.6,1160-250.8,1160.2-250.9,1160.6z M-244.6,1146c-0.2,0.1-0.4,0.4-0.6,0.5c-0.2,0.1-0.4,0.4-0.5,0.6l0,0l0,0
    c0.1,0,0.4-0.1,0.5-0.1c0.1,0,0.2-0.1,0.4-0.1c0.4,0,0.6-0.1,0.9-0.4c0-0.2,0-0.5-0.1-0.7C-244.3,1145.7-244.4,1145.9-244.6,1146
    L-244.6,1146z M-266.2,1156.5L-266.2,1156.5c0.1,0,0.2-0.1,0.4-0.2c0.4-0.2,0.7-0.6,1.1-0.9v-0.1c-0.1,0-0.2-0.1-0.4-0.1
    s-0.2,0-0.4,0c-0.4,0.4-0.9,0.6-1.2,1.1c-0.1,0.2-0.4,0.4-0.6,0.5c-0.2,0.1-0.4,0.2-0.4,0.5c0.1-0.1,0.2-0.1,0.4-0.1
    c0.1-0.1,0.2-0.2,0.2-0.2C-266.6,1157-266.5,1156.7-266.2,1156.5z M-258.2,1144.9c-0.1,0.1-0.2,0.1-0.5,0.2l0,0l0,0
    c-0.2,0.2-0.5,0.5-0.7,0.7c0.4-0.1,0.7-0.2,1-0.5c1-0.7,1.9-1.4,2.9-2.1c0.2-0.1,0.4-0.2,0.5-0.4l0,0l0,0c0-0.1,0-0.1,0-0.2
    c-0.4,0.1-1.1,0.5-1.4,0.6C-257,1143.9-257.6,1144.4-258.2,1144.9L-258.2,1144.9z M-262.7,1156.4c0.1,0.1,0.1,0.2,0.2,0.1
    c0.1-0.1,0.1-0.2,0.2-0.2c0.2,0.1,0.5-0.1,0.6-0.4c0.1-0.2,0.2-0.4,0.5-0.5c0.2-0.2,0.4-0.5,0.2-0.7c-0.4-0.1-0.5,0.1-0.7,0.2
    c-0.1,0.1-0.2,0.2-0.4,0.4c-0.2,0.1-0.4,0.2-0.5,0.5c-0.1,0.1-0.1,0.4-0.4,0.4c-0.1,0-0.1-0.1-0.2-0.2c-0.2,0.4-0.5,0.6-0.7,1
    c0,0-0.1,0.1,0,0.2c0,0.1,0,0.2,0.1,0.2c0.1,0,0.2,0,0.2-0.1c0.1-0.2,0.4-0.4,0.5-0.6C-262.9,1156.5-262.9,1156.5-262.7,1156.4
    L-262.7,1156.4z M-263.5,1164.6c0-0.1,0-0.1,0-0.2c-0.2,0.4-0.6,0.6-1,0.9c0-0.2-0.1-0.4-0.1-0.6c0-0.1,0-0.4,0.1-0.5
    c-0.4,0-0.6,0.2-0.9,0.4c-0.1,0.1-0.2,0.2-0.2,0.2c0,0.1,0,0.2,0.1,0.2c-0.1,0.1-0.4,0.2-0.5,0.4c-0.1,0.1-0.1,0.2-0.1,0.4
    c0.1,0.1,0.1,0.1,0.4,0.1c0.3,0,0.5-0.1,0.7-0.4c0.2-0.2,0.6-0.2,0.9-0.2c0.1,0,0.2,0,0.4,0c0.1-0.5,0.6-0.6,0.7-1.2
    C-263.2,1164.3-263.4,1164.5-263.5,1164.6L-263.5,1164.6z M-277.8,1149.9L-277.8,1149.9C-277.9,1149.9-278,1149.9-277.8,1149.9
    c-0.1-0.2,0-0.5,0-0.6l0,0c0,0,0.1,0,0.1-0.1c0.1-0.4-0.1-0.6-0.5-0.5l0,0c-0.2,0-0.4,0-0.6,0c0.2-0.4,0.2-0.6,0-0.9
    c0,0,0-0.1,0.1-0.1c0,0,0,0-0.1,0v0.1c-0.1,0-0.2-0.1-0.2-0.2c-0.4,0.4-0.4,0.4-0.2,0.6c0,0.1,0.1,0.1,0.1,0.2v0.1
    c0.1,0.2,0.2,0.4,0.4,0.6c0.4,0.4,0.6,0.9,1,1.4c0.2,0.2,0.5,0.4,0.7,0.5c0.2,0.1,0.4,0,0.5-0.2c-0.1,0-0.2,0-0.5,0l0,0
    c-0.1-0.2-0.2-0.5-0.4-0.7l0,0c0-0.1,0-0.2,0-0.4C-277.6,1149.6-277.7,1149.7-277.8,1149.9z M-266,1170c-0.6,0.2-1.4,0.5-2,0.7
    c-0.6,0.2-1.2,0.5-1.9,0.7c-0.5,0.1-1,0.4-1.4,0.5c-0.1,0-0.2,0-0.2,0.1c-0.2,0.2-0.5,0.2-0.7,0.1c-0.2,0.2-0.4,0.4-0.4,0.5
    c0.2,0,0.5,0,0.6-0.1c0.2-0.1,0.6-0.1,0.9-0.1c0,0,0,0.1,0,0l0,0l0.1-0.1c0.4-0.1,0.6-0.2,1-0.2l0,0v0.1l0,0c0.1,0,0.4,0,0.4-0.1
    c0.2-0.2,0.5-0.4,0.9-0.5c0.2-0.1,0.4-0.1,0.6-0.2c0.6-0.2,1.1-0.5,1.7-0.7c0.2-0.1,0.4-0.1,0.6-0.2c0.1,0,0.2-0.1,0.1-0.4
    C-265.7,1170-265.9,1170-266,1170L-266,1170z M-277.5,1155l-0.1-0.1c0.1-0.1,0.1-0.2,0.2-0.4c-0.1-0.1-0.2-0.1-0.4-0.1
    c-0.2,0-0.4,0.1-0.6,0.1c-0.2,0.1-0.4,0.1-0.6,0c-0.1,0.4,0.1,1,0.5,1.1c0,0,0.1,0,0.2-0.1c0,0,0-0.1,0-0.2c0.1,0,0.1,0,0.2,0
    C-278,1155-277.7,1155.1-277.5,1155z M-265.2,1153.5c-0.5,0-0.7,0.2-1,0.5c-0.1,0.1-0.4,0.6-0.5,1
    C-265.7,1154.5-265.2,1154-265.2,1153.5z M-276.5,1142.9c-0.2,0-0.5,0.1-0.6,0.2c-0.4,0.2-0.7,0.5-1.1,0.7
    c-0.2,0.1-0.6,0.2-0.6,0.6c0.1,0,0.4-0.1,0.5-0.1C-277.6,1143.7-276.7,1143.1-276.5,1142.9z M-267.1,1158.4
    c0.7-0.1,1.4-0.6,1.5-1.1c-0.5,0.1-1,0.4-1.4,0.7C-267.1,1158-267.2,1158.1-267.1,1158.4z M-244.4,1154c-0.2,0.4-1,2-1,2.4
    c0.4-0.1,0.5-0.4,0.6-0.6C-244.6,1155.2-244.5,1154.6-244.4,1154z M-252.6,1157.1c0.6-0.4,0.9-0.9,1.2-1.4c0-0.1,0-0.1,0-0.2
    C-252.1,1155.7-252.5,1156.4-252.6,1157.1z M-269.5,1148.5c0.7-0.1,0.7-0.1,1-0.4c-0.2-0.1-0.2-0.1-0.4-0.1c-0.4,0-0.7-0.1-1.1,0.1
    C-269.7,1148.1-269.6,1148.2-269.5,1148.5z M-259.6,1166L-259.6,1166c0.1,0,0.2,0,0.2,0c0.5-0.4,0.6-0.9,0.9-1.4c0,0,0-0.1-0.1-0.1
    c0,0-0.1,0-0.2,0c-0.2,0.5-0.6,0.9-0.9,1.4C-259.7,1165.8-259.6,1165.8-259.6,1166z M-246.9,1156.9c-0.4,0.5-0.7,1.2-0.7,1.6
    C-247,1158.1-246.8,1157.6-246.9,1156.9z M-245.8,1145.4c-0.5,0-1.6,0.7-1.9,1.2C-247,1146.2-246.4,1145.9-245.8,1145.4z
     M-262.7,1163.1c-0.4-0.1-0.5-0.1-0.7,0.5c0.1,0,0.2,0.1,0.2,0c0.2-0.1,0.5-0.2,0.7-0.5c0.1-0.1,0.2-0.1,0.1-0.4h-0.1
    C-262.5,1162.8-262.6,1163-262.7,1163.1z M-263.6,1155.2c-0.4,0.1-0.6,0.4-0.7,0.7c0.4,0.1,0.5-0.1,0.7-0.2
    C-263.5,1155.6-263.5,1155.5-263.6,1155.2z M-248,1139.8C-247.9,1139.8-247.9,1139.6-248,1139.8c-0.2-0.2-0.5-0.4-0.7-0.4
    c-0.1-0.1-0.4-0.4-0.7-0.2C-249.1,1139.6-248.5,1139.6-248,1139.8z M-268,1168.5C-268,1168.5-268.1,1168.3-268,1168.5
    c-0.4,0-0.6,0.1-0.9,0.2c-0.2,0.1-0.6,0.1-0.7,0.5c0.1,0,0.2,0,0.2,0c0.4-0.1,0.7-0.2,1.1-0.5
    C-268.1,1168.6-268.1,1168.6-268,1168.5z M-261.2,1164.2c0.6,0,1-0.6,0.9-1.1C-260.6,1163.3-260.9,1163.7-261.2,1164.2z
     M-271.1,1167.3c0.4,0.1,0.5-0.1,0.7-0.2c0.2-0.1,0.6-0.1,0.7-0.4c-0.2-0.1-0.4-0.1-0.6,0C-270.4,1166.8-270.7,1167.1-271.1,1167.3
    z M-274.6,1144.6c0-0.2-0.2-0.5-0.5-0.5c-0.2,0-0.4,0.1-0.4,0.4C-275.2,1144.6-275,1144.7-274.6,1144.6z M-257.7,1160.6
    c-0.4,0.1-0.6,0.4-1,1C-258.2,1161.4-257.9,1161.2-257.7,1160.6z M-260.5,1154.9c0.4-0.1,0.7-0.4,0.9-0.7c-0.2,0.1-0.5,0.1-0.6,0.2
    C-260.5,1154.5-260.5,1154.6-260.5,1154.9z M-246.5,1157.1c0.2-0.4,0.6-0.6,0.6-1C-246.4,1156.4-246.6,1156.6-246.5,1157.1z
     M-260.1,1165.3c-0.5,0.1-0.9,0.5-1,0.7c0.1-0.1,0.2-0.1,0.4-0.2C-260.4,1165.8-260.2,1165.7-260.1,1165.3z M-257.5,1154
    c0.2-0.1,0.5-0.2,0.6-0.5c0-0.1,0-0.2-0.1-0.2c0,0-0.1,0-0.2,0C-257.4,1153.5-257.5,1153.6-257.5,1154z M-259.5,1168
    c0.4,0,0.6-0.2,0.7-0.5C-259.2,1167.3-259.4,1167.5-259.5,1168z M-259.7,1147.7c-0.1,0-0.4,0-0.4,0.1c-0.1,0.1,0,0.4,0.1,0.5
    C-259.6,1148.1-259.6,1148.1-259.7,1147.7z M-256.2,1162.2c0.4,0,0.6-0.2,0.7-0.6C-255.9,1161.6-256.2,1161.9-256.2,1162.2z
     M-242.3,1142.5c-0.2,0.1-0.5,0.2-0.7,0.2c0,0,0,0.1,0.1,0.2c-0.1,0.1-0.2,0.2-0.4,0.5C-242.9,1143.4-242.5,1143-242.3,1142.5z
     M-266.9,1165c0.5-0.2,0.5-0.2,0.6-0.5C-266.6,1164.3-266.9,1164.6-266.9,1165z M-261.7,1166.2c-0.5,0.2-0.6,0.4-0.5,0.7
    C-262,1166.7-261.9,1166.6-261.7,1166.2z M-252.3,1139.5c0.2-0.1,0.5-0.2,0.7-0.5c-0.4,0-0.6,0.2-1,0.2c0,0,0,0,0,0.1
    C-252.5,1139.4-252.4,1139.5-252.3,1139.5z M-268.2,1160c-0.4-0.1-0.4,0.2-0.6,0.4C-268.5,1160.6-268.2,1160.5-268.2,1160z
     M-270.7,1148.5c-0.4,0-0.6,0-1,0.1c0,0-0.1,0.1-0.1,0.2C-271.4,1148.7-271,1148.7-270.7,1148.5z M-269.7,1159.9
    c-0.4-0.2-0.5-0.2-0.7,0.2C-270.2,1160.2-270,1160-269.7,1159.9z M-247.4,1140.8c0.1,0.2,0.4,0.2,0.5,0.2c0,0,0.1,0,0.2-0.1
    c0,0,0-0.1-0.1-0.2C-247,1140.6-247.1,1140.8-247.4,1140.8z M-242.4,1141.5c-0.4-0.1-0.7,0.1-0.7,0.5
    C-242.9,1141.9-242.6,1141.8-242.4,1141.5z M-265.9,1168.3c0.2,0,0.6,0,0.7-0.5C-265.4,1167.8-265.6,1168.1-265.9,1168.3z
     M-268.4,1153.1L-268.4,1153.1c-0.1-0.1-0.4,0-0.5,0c-0.1,0.1-0.4,0.1-0.5,0.4C-269,1153.4-268.7,1153.2-268.4,1153.1z
     M-270.9,1153.7c0.4,0.2,0.7,0.1,1.1-0.2C-270.1,1153.6-270.5,1153.7-270.9,1153.7z M-277.1,1156.4c-0.1,0-0.2,0-0.4,0
    c-0.1,0-0.2,0-0.4,0C-277.6,1156.6-277.5,1156.6-277.1,1156.4z M-262.6,1150.4c-0.5,0-0.5,0-0.7,0.1
    C-263.1,1150.6-262.9,1150.6-262.6,1150.4z M-272.5,1146.4c0.4,0,0.4,0,0.4-0.4C-272.4,1146.1-272.5,1146.1-272.5,1146.4z
     M-268.9,1156.7c0.2,0,0.5-0.1,0.5-0.4C-268.7,1156.2-268.9,1156.4-268.9,1156.7z M-267.2,1160c0.2,0,0.5-0.1,0.6-0.4
    C-267,1159.6-267.1,1159.7-267.2,1160z M-271.4,1146.6c-0.4-0.1-0.5,0-0.5,0.4C-271.6,1146.9-271.5,1146.7-271.4,1146.6z
     M-258.7,1152.1c-0.4-0.1-0.4,0-0.4,0.4C-259,1152.5-258.9,1152.4-258.7,1152.1z M-260,1150.7L-260,1150.7
    c-0.4-0.1-0.5-0.1-0.7,0.2C-260.4,1151-260.2,1150.9-260,1150.7z M-256.7,1154.2c-0.2,0.1-0.2,0.4-0.4,0.7
    C-256.7,1154.7-256.7,1154.5-256.7,1154.2z M-257.2,1162c-0.2,0.1-0.5,0.1-0.5,0.5C-257.5,1162.3-257.5,1162.3-257.2,1162z
     M-272.7,1158c0,0.1,0,0.1-0.1,0.2c0.4,0,0.4,0,0.5-0.2C-272.4,1158-272.6,1158-272.7,1158z M-263.7,1153.9
    c-0.2,0.1-0.5,0.2-0.6,0.5C-264.1,1154.4-263.9,1154.2-263.7,1153.9z M-256.2,1170.7c-0.2-0.1-0.5,0.1-0.7,0.2
    C-256.6,1171-256.4,1171-256.2,1170.7z M-262,1164.6c-0.2,0-0.5,0.1-0.6,0.5C-262.4,1165-262.1,1164.8-262,1164.6z M-250.6,1162
    c0.2-0.1,0.2-0.2,0.2-0.4C-250.5,1161.6-250.6,1161.7-250.6,1162z M-254,1152.2c-0.2,0.1-0.4,0.2-0.4,0.6
    C-254.2,1152.6-254.1,1152.5-254,1152.2z M-266.9,1160.6c-0.1,0-0.2,0.1-0.4,0.2C-266.9,1160.9-266.9,1160.9-266.9,1160.6z
     M-276.6,1147.9L-276.6,1147.9c0.2,0,0.4,0,0.5-0.1C-276.5,1147.6-276.5,1147.6-276.6,1147.9z M-264.4,1157.5c-0.4,0-0.4,0-0.4,0.2
    C-264.6,1157.6-264.5,1157.6-264.4,1157.5z M-261.4,1162.3c0.4-0.1,0.4-0.1,0.4-0.5C-261.1,1162-261.2,1162.1-261.4,1162.3z
     M-245.5,1158.9C-245.5,1158.7-245.5,1158.7-245.5,1158.9c-0.2,0-0.4,0.1-0.2,0.4C-245.6,1159-245.5,1159-245.5,1158.9z
     M-275.1,1153.7c-0.2-0.1-0.4-0.1-0.5,0.2C-275.3,1153.9-275.2,1153.7-275.1,1153.7z M-277.8,1147.5c0.1,0.2,0.1,0.2,0.4,0
    C-277.6,1147.5-277.7,1147.5-277.8,1147.5z M-243.8,1149.5c0.1-0.2,0.1-0.4,0.1-0.5C-243.9,1149.1-243.9,1149.2-243.8,1149.5z
     M-262,1154.2c0.1,0,0.1,0.1,0.1,0.1c0.1,0,0.1-0.1,0.2-0.1l-0.1-0.1C-261.9,1154.1-261.9,1154.1-262,1154.2z M-268.9,1166.2
    c0.2,0.1,0.4,0.1,0.5-0.1C-268.6,1166-268.7,1166-268.9,1166.2z M-266,1151.5c0.2,0,0.4-0.1,0.5-0.2
    C-265.7,1151.2-265.9,1151.2-266,1151.5z M-265.9,1163.1C-266,1163.1-266,1163.1-265.9,1163.1c-0.1,0.1-0.1,0.2-0.2,0.2h0.1
    C-266,1163.3-265.9,1163.2-265.9,1163.1C-265.9,1163.2-265.9,1163.1-265.9,1163.1z M-270.2,1151.1c-0.2,0-0.2,0-0.5,0.2
    C-270.5,1151.4-270.4,1151.4-270.2,1151.1z M-256.2,1154.1c0.1-0.1,0.2-0.1,0.2-0.4C-256.2,1153.9-256.2,1154-256.2,1154.1z
     M-260.1,1162.2c0.4-0.2,0.4-0.2,0.4-0.5C-259.9,1162-260,1162.1-260.1,1162.2z M-246,1159.6L-246,1159.6v-0.2
    C-246,1159.5-246,1159.5-246,1159.6L-246,1159.6z M-261.5,1151.2c0.4,0,0.4,0,0.4-0.2C-261.1,1151.1-261.2,1151.1-261.5,1151.2z
     M-268.1,1165.3c0.1-0.1,0.1-0.2,0-0.5C-268.1,1165.1-268.2,1165.2-268.1,1165.3z M-260,1160C-260,1159.9-260.1,1159.9-260,1160
    c-0.2,0-0.4,0-0.2,0.4C-260.1,1160.1-260.1,1160-260,1160z M-252.9,1155.2L-252.9,1155.2c-0.1,0.1-0.1,0.1-0.2,0.2h0.1
    C-252.9,1155.4-252.9,1155.2-252.9,1155.2z M-275.7,1143.7c0-0.2-0.1-0.2-0.2-0.1c0,0-0.1,0.1-0.1,0.2
    C-276,1143.7-275.8,1143.7-275.7,1143.7z M-273.6,1145.4L-273.6,1145.4c0.1,0.1,0.2,0,0.2,0s0,0,0-0.1
    C-273.5,1145.2-273.6,1145.2-273.6,1145.4z M-261.1,1166.7L-261.1,1166.7c0.1,0,0.4,0,0.2-0.4
    C-261,1166.5-261.1,1166.6-261.1,1166.7z M-275.6,1162c-0.1-0.2-0.1-0.2-0.2-0.5C-275.8,1161.7-275.8,1161.9-275.6,1162z
     M-263.2,1172.7c0.1,0.1,0.2,0.1,0.4-0.1C-263,1172.6-263.1,1172.6-263.2,1172.7z M-270.4,1165
    C-270.4,1165-270.2,1164.8-270.4,1165C-270.3,1164.9-270.4,1164.9-270.4,1165C-270.4,1164.7-270.5,1164.8-270.4,1165
    C-270.5,1164.8-270.4,1164.8-270.4,1165z M-274.1,1172.2c-0.2-0.1-0.2-0.1-0.4,0C-274.3,1172.1-274.2,1172.2-274.1,1172.2z
     M-259.6,1153.9c-0.1-0.1-0.1-0.1-0.2-0.2c0,0,0,0,0,0.1C-260,1153.9-259.9,1153.9-259.6,1153.9z M-263.2,1153.4
    C-263.2,1153.4-263.1,1153.5-263.2,1153.4c0.1,0,0.2-0.1,0.4-0.1c0,0,0,0,0-0.1C-263,1153.2-263.1,1153.4-263.2,1153.4z
     M-256.2,1159.7L-256.2,1159.7c-0.2,0-0.2,0.1-0.2,0.2S-256.2,1159.9-256.2,1159.7z M-250,1139.3
    C-250.1,1139.1-250.1,1139.1-250,1139.3c-0.1-0.1-0.2,0-0.2,0v0.1C-250.1,1139.3-250.1,1139.3-250,1139.3z M-255.1,1156.9
    c0,0.1-0.1,0.2-0.1,0.2C-255,1157.1-255,1157.1-255.1,1156.9z M-252.1,1158.9l0.1,0.1c0-0.1,0.1-0.1,0.1-0.2l-0.1-0.1
    C-252,1158.7-252.1,1158.7-252.1,1158.9z M-269.2,1149.9c-0.2,0-0.2,0-0.2,0.2C-269.5,1150-269.4,1150-269.2,1149.9z
     M-248.3,1150.7L-248.3,1150.7c0.1,0,0.1-0.1,0.2-0.1l0,0C-248.1,1150.6-248.1,1150.6-248.3,1150.7z M-264.6,1156.1
    C-264.6,1156-264.6,1156-264.6,1156.1c-0.1,0-0.1,0.1-0.2,0.1c0,0,0,0,0.1,0L-264.6,1156.1z M-272.5,1164.6L-272.5,1164.6
    c0.1,0.1,0.1,0.1,0.2,0.1v-0.1C-272.4,1164.7-272.4,1164.7-272.5,1164.6z M-261.9,1167.2C-261.7,1167.2-261.7,1167.2-261.9,1167.2
    c0.1,0,0.2-0.1,0.2-0.2c0,0,0,0-0.1-0.1C-261.6,1167-261.7,1167.1-261.9,1167.2z M-274.7,1163.2c0-0.1,0.1-0.1,0.1-0.1l-0.1-0.1
    l-0.1,0.1C-274.8,1163.1-274.8,1163.1-274.7,1163.2z M-266.4,1148.2C-266.2,1148.2-266.2,1148.4-266.4,1148.2c0.1,0,0.1,0,0.2-0.1
    l0,0C-266.1,1148.1-266.2,1148.2-266.4,1148.2z M-279.5,1146.4C-279.3,1146.4-279.3,1146.4-279.5,1146.4c0.1,0,0.1,0,0.2-0.1l0,0
    C-279.3,1146.2-279.3,1146.4-279.5,1146.4z M-267.9,1164.8c0,0.1,0,0.2,0,0.2s0.1,0,0.1,0.1v-0.1
    C-267.6,1165.1-267.7,1165-267.9,1164.8z M-272.5,1165.3L-272.5,1165.3C-272.5,1165.2-272.5,1165.2-272.5,1165.3
    C-272.6,1165.2-272.6,1165.2-272.5,1165.3C-272.6,1165.3-272.6,1165.3-272.5,1165.3z M-253.5,1152.7L-253.5,1152.7
    c0.1,0,0.2,0,0.2-0.1l0,0C-253.4,1152.6-253.4,1152.6-253.5,1152.7z M-257.2,1155.9c-0.1,0-0.1-0.1-0.1,0c0,0-0.1,0-0.1,0.1v0.1
    C-257.4,1156-257.2,1155.9-257.2,1155.9z M-267.9,1156.1C-267.9,1156-267.8,1156-267.9,1156.1
    C-267.8,1156-267.8,1155.9-267.9,1156.1C-267.7,1156-267.9,1156-267.9,1156.1C-267.9,1156-267.9,1156-267.9,1156.1z M-257,1160.4
    C-256.9,1160.4-256.9,1160.2-257,1160.4C-257,1160.3-257,1160.3-257,1160.4C-257,1160.3-257,1160.2-257,1160.4
    C-257,1160.2-257,1160.4-257,1160.4z M-266.5,1172.3C-266.5,1172.3-266.6,1172.3-266.5,1172.3
    C-266.6,1172.3-266.6,1172.3-266.5,1172.3C-266.6,1172.5-266.6,1172.5-266.5,1172.3C-266.6,1172.5-266.5,1172.3-266.5,1172.3z
     M-258.4,1161.7L-258.4,1161.7c-0.1,0-0.1,0-0.2,0.1l0,0C-258.4,1161.9-258.4,1161.7-258.4,1161.7z M-259.4,1153.4L-259.4,1153.4
    c-0.1,0-0.1,0-0.2,0l0,0C-259.5,1153.5-259.5,1153.4-259.4,1153.4z M-267,1162.7C-267,1162.7-267,1162.8-267,1162.7
    c0.1,0,0.1,0,0.2,0v-0.1C-266.9,1162.7-266.9,1162.7-267,1162.7z M-276.2,1153.9c-0.1,0-0.1,0-0.1,0s0,0,0,0.1
    C-276.3,1154-276.3,1154-276.2,1153.9C-276.3,1154-276.2,1154-276.2,1153.9z M-272.4,1151.1C-272.4,1151-272.5,1151-272.4,1151.1
    c-0.1,0-0.1,0-0.2,0l0,0C-272.5,1151.1-272.5,1151.1-272.4,1151.1z M-266.4,1162.5L-266.4,1162.5
    C-266.5,1162.5-266.5,1162.5-266.4,1162.5C-266.5,1162.6-266.5,1162.6-266.4,1162.5C-266.4,1162.6-266.4,1162.5-266.4,1162.5z
     M-280.6,1170.1L-280.6,1170.1L-280.6,1170.1C-280.6,1170.2-280.6,1170.2-280.6,1170.1C-280.6,1170.2-280.6,1170.1-280.6,1170.1z
     M-269.9,1168.2L-269.9,1168.2L-269.9,1168.2L-269.9,1168.2z M-265.6,1151.9C-265.6,1152-265.6,1152-265.6,1151.9
    c0.1,0,0.1,0,0.1,0l0,0H-265.6z M-250.1,1160.6C-250.1,1160.6-250.1,1160.7-250.1,1160.6l0.1-0.1l0,0
    C-250.1,1160.6-250.1,1160.6-250.1,1160.6z M-248.9,1140.5C-248.9,1140.5-248.8,1140.5-248.9,1140.5
    C-248.8,1140.5-248.8,1140.4-248.9,1140.5C-248.9,1140.4-248.9,1140.4-248.9,1140.5L-248.9,1140.5z M-254.4,1168.6L-254.4,1168.6
    C-254.5,1168.6-254.5,1168.6-254.4,1168.6L-254.4,1168.6C-254.5,1168.7-254.4,1168.7-254.4,1168.6z M-245.4,1157.5
    C-245.3,1157.5-245.3,1157.5-245.4,1157.5C-245.3,1157.5-245.3,1157.5-245.4,1157.5C-245.3,1157.5-245.3,1157.4-245.4,1157.5
    C-245.3,1157.5-245.3,1157.5-245.4,1157.5z M-274.8,1172C-274.8,1172.1-275,1172.1-274.8,1172
    C-274.8,1172.1-274.8,1172.1-274.8,1172C-274.8,1172.1-274.8,1172.1-274.8,1172C-274.8,1172.1-274.8,1172.1-274.8,1172z
     M-276.3,1160.9L-276.3,1160.9C-276.3,1160.7-276.3,1160.7-276.3,1160.9C-276.3,1160.7-276.3,1160.7-276.3,1160.9L-276.3,1160.9z
     M-246.5,1148.5C-246.5,1148.5-246.4,1148.5-246.5,1148.5C-246.5,1148.4-246.5,1148.4-246.5,1148.5L-246.5,1148.5L-246.5,1148.5z
     M-252.4,1167.2L-252.4,1167.2C-252.4,1167.1-252.4,1167.1-252.4,1167.2C-252.4,1167.1-252.5,1167.1-252.4,1167.2
    C-252.5,1167.2-252.4,1167.2-252.4,1167.2z M-271.2,1158.1L-271.2,1158.1C-271.1,1158.1-271.1,1158.1-271.2,1158.1
    C-271.1,1158.1-271.1,1158.1-271.2,1158.1C-271.1,1158.1-271.2,1158.1-271.2,1158.1z M-246.9,1141.8L-246.9,1141.8L-246.9,1141.8
    C-247,1141.8-247,1141.9-246.9,1141.8C-246.9,1141.9-246.9,1141.8-246.9,1141.8z M-271.4,1152.9L-271.4,1152.9L-271.4,1152.9
    L-271.4,1152.9z M-270.6,1165.2L-270.6,1165.2C-270.6,1165.1-270.6,1165.1-270.6,1165.2C-270.6,1165.1-270.7,1165.1-270.6,1165.2
    C-270.6,1165.1-270.6,1165.2-270.6,1165.2z M-274.6,1148.1C-274.6,1148.1-274.7,1148.1-274.6,1148.1
    C-274.7,1148.1-274.7,1148.1-274.6,1148.1C-274.7,1148.1-274.7,1148.2-274.6,1148.1C-274.7,1148.2-274.6,1148.2-274.6,1148.1z
     M-274.6,1146.6L-274.6,1146.6L-274.6,1146.6C-274.6,1146.6-274.6,1146.5-274.6,1146.6C-274.6,1146.5-274.6,1146.5-274.6,1146.6z
     M-271.1,1151.5L-271.1,1151.5L-271.1,1151.5L-271.1,1151.5z M-274.1,1170.8L-274.1,1170.8L-274.1,1170.8L-274.1,1170.8
    L-274.1,1170.8z M-274.1,1148L-274.1,1148L-274.1,1148L-274.1,1148L-274.1,1148z M-274.1,1162.7L-274.1,1162.7
    C-274,1162.6-274.1,1162.6-274.1,1162.7C-274.1,1162.6-274.1,1162.6-274.1,1162.7L-274.1,1162.7z M-273.2,1161.9
    C-273.2,1161.9-273.2,1161.7-273.2,1161.9C-273.2,1161.7-273.2,1161.7-273.2,1161.9C-273.3,1161.7-273.3,1161.7-273.2,1161.9
    C-273.3,1161.9-273.3,1161.9-273.2,1161.9z M-276.6,1152.6L-276.6,1152.6C-276.6,1152.6-276.6,1152.5-276.6,1152.6
    C-276.6,1152.5-276.7,1152.5-276.6,1152.6C-276.7,1152.6-276.7,1152.6-276.6,1152.6z M-244,1150.1L-244,1150.1L-244,1150.1
    L-244,1150.1L-244,1150.1z M-254.1,1145.2L-254.1,1145.2C-254.1,1145.2-254.2,1145.2-254.1,1145.2
    C-254.2,1145.2-254.2,1145.2-254.1,1145.2C-254.2,1145.4-254.1,1145.4-254.1,1145.2z M-259.2,1144.9L-259.2,1144.9L-259.2,1144.9
    L-259.2,1144.9L-259.2,1144.9z M-244.8,1144.7C-244.6,1144.6-244.6,1144.6-244.8,1144.7C-244.6,1144.6-244.6,1144.6-244.8,1144.7
    C-244.8,1144.6-244.8,1144.6-244.8,1144.7C-244.8,1144.6-244.8,1144.6-244.8,1144.7z M-263.4,1154L-263.4,1154L-263.4,1154
    C-263.5,1154-263.5,1154-263.4,1154C-263.5,1154-263.5,1154-263.4,1154z M-253.9,1165.3L-253.9,1165.3
    C-253.9,1165.3-253.7,1165.3-253.9,1165.3C-253.7,1165.3-253.7,1165.2-253.9,1165.3C-253.9,1165.2-253.9,1165.3-253.9,1165.3z
     M-257.6,1154.9L-257.6,1154.9L-257.6,1154.9C-257.6,1155-257.6,1155-257.6,1154.9C-257.6,1155-257.6,1154.9-257.6,1154.9z
     M-247,1143.1C-247,1143-247,1143-247,1143.1C-247,1143-247,1143-247,1143.1C-247,1143-247,1143-247,1143.1
    C-247,1143-247,1143.1-247,1143.1z M-257.1,1171.2L-257.1,1171.2C-257.1,1171.2-257.2,1171.2-257.1,1171.2L-257.1,1171.2
    L-257.1,1171.2z M-255.2,1160.4L-255.2,1160.4C-255.2,1160.4-255.4,1160.4-255.2,1160.4C-255.4,1160.4-255.4,1160.5-255.2,1160.4
    C-255.2,1160.5-255.2,1160.5-255.2,1160.4z M-247.1,1148.1L-247.1,1148.1C-247.1,1148.1-247.1,1148-247.1,1148.1
    C-247.3,1148.1-247.3,1148.1-247.1,1148.1C-247.3,1148.1-247.3,1148.1-247.1,1148.1z M-279.2,1141.4L-279.2,1141.4L-279.2,1141.4
    L-279.2,1141.4L-279.2,1141.4z M-279.6,1152.5L-279.6,1152.5C-279.6,1152.5-279.6,1152.6-279.6,1152.5
    C-279.6,1152.6-279.6,1152.6-279.6,1152.5C-279.6,1152.6-279.6,1152.6-279.6,1152.5z M-278.3,1141.9L-278.3,1141.9L-278.3,1141.9
    L-278.3,1141.9z M-245.6,1155.7L-245.6,1155.7C-245.6,1155.7-245.6,1155.6-245.6,1155.7C-245.6,1155.6-245.6,1155.7-245.6,1155.7
    L-245.6,1155.7z M-278.5,1148L-278.5,1148C-278.5,1148.1-278.5,1148.1-278.5,1148C-278.3,1148.1-278.3,1148.1-278.5,1148
    C-278.3,1148-278.3,1148-278.5,1148z M-261.7,1164.5L-261.7,1164.5L-261.7,1164.5L-261.7,1164.5z M-277,1148
    C-277,1148.1-277,1148.1-277,1148C-277,1148.1-277,1148.1-277,1148C-277,1148.1-277,1148.1-277,1148z M-276.3,1149.1L-276.3,1149.1
    L-276.3,1149.1L-276.3,1149.1z M-273.5,1172L-273.5,1172L-273.5,1172L-273.5,1172L-273.5,1172z M-259.6,1145.1L-259.6,1145.1
    L-259.6,1145.1L-259.6,1145.1L-259.6,1145.1z M-273.8,1150.5C-274,1150.5-274,1150.5-273.8,1150.5
    C-274,1150.5-274,1150.5-273.8,1150.5C-274,1150.5-274,1150.5-273.8,1150.5z M-273.6,1171.2
    C-273.6,1171.3-273.6,1171.3-273.6,1171.2C-273.6,1171.3-273.6,1171.3-273.6,1171.2C-273.5,1171.3-273.5,1171.3-273.6,1171.2
    C-273.5,1171.2-273.6,1171.2-273.6,1171.2z M-250.3,1155C-250.3,1155-250.1,1155.1-250.3,1155C-250.1,1155-250.1,1155-250.3,1155
    C-250.1,1155-250.1,1155-250.3,1155L-250.3,1155z M-265.6,1162.5L-265.6,1162.5C-265.6,1162.3-265.6,1162.3-265.6,1162.5
    C-265.6,1162.3-265.6,1162.3-265.6,1162.5C-265.6,1162.3-265.6,1162.5-265.6,1162.5z M-251,1141.9L-251,1141.9
    C-251,1141.9-251.1,1141.9-251,1141.9C-251.1,1141.9-251.1,1141.9-251,1141.9C-251.1,1141.9-251,1141.9-251,1141.9z M-264.2,1149.4
    C-264.1,1149.4-264.1,1149.4-264.2,1149.4C-264.1,1149.4-264.1,1149.4-264.2,1149.4C-264.1,1149.4-264.1,1149.4-264.2,1149.4z
     M-265.5,1167.7L-265.5,1167.7L-265.5,1167.7C-265.5,1167.6-265.5,1167.7-265.5,1167.7L-265.5,1167.7z M-280.1,1151.5
    L-280.1,1151.5L-280.1,1151.5C-280.1,1151.5-280.1,1151.4-280.1,1151.5C-280.1,1151.4-280.1,1151.5-280.1,1151.5z M-271.1,1168.3
    L-271.1,1168.3L-271.1,1168.3L-271.1,1168.3z M-264.7,1149.6L-264.7,1149.6L-264.7,1149.6L-264.7,1149.6z M-267,1168.8L-267,1168.8
    L-267,1168.8L-267,1168.8L-267,1168.8z M-248.8,1153.6L-248.8,1153.6L-248.8,1153.6L-248.8,1153.6z M-243.8,1150.7L-243.8,1150.7
    L-243.8,1150.7C-243.9,1150.7-243.9,1150.7-243.8,1150.7C-243.9,1150.7-243.9,1150.7-243.8,1150.7z M-243,1152.2
    C-243,1152.4-243,1152.4-243,1152.2C-243,1152.4-243,1152.4-243,1152.2C-243,1152.4-243,1152.2-243,1152.2L-243,1152.2z
     M-276,1152.6L-276,1152.6L-276,1152.6L-276,1152.6z M-256.7,1146.5C-256.7,1146.5-256.7,1146.4-256.7,1146.5
    C-256.7,1146.4-256.7,1146.4-256.7,1146.5C-256.7,1146.4-256.9,1146.4-256.7,1146.5C-256.9,1146.4-256.9,1146.4-256.7,1146.5z
     M-256.7,1152.2L-256.7,1152.2L-256.7,1152.2L-256.7,1152.2L-256.7,1152.2z M-255.2,1169.8L-255.2,1169.8L-255.2,1169.8
    L-255.2,1169.8z M-240.8,1144L-240.8,1144L-240.8,1144L-240.8,1144z M-251.8,1161.1L-251.8,1161.1L-251.8,1161.1L-251.8,1161.1z
     M-247.3,1159.9L-247.3,1159.9L-247.3,1159.9L-247.3,1159.9z M-252.6,1167.6L-252.6,1167.6L-252.6,1167.6L-252.6,1167.6z
     M-252.1,1146.6L-252.1,1146.6L-252.1,1146.6L-252.1,1146.6z M-250.6,1164.6L-250.6,1164.6L-250.6,1164.6L-250.6,1164.6z
     M-278,1155.6L-278,1155.6L-278,1155.6L-278,1155.6z M-277.7,1155.9L-277.7,1155.9L-277.7,1155.9L-277.7,1155.9z M-248,1144.5
    L-248,1144.5L-248,1144.5L-248,1144.5z M-278.2,1148.4L-278.2,1148.4L-278.2,1148.4L-278.2,1148.4z M-264.5,1155.6L-264.5,1155.6
    L-264.5,1155.6L-264.5,1155.6z M-269,1170L-269,1170L-269,1170L-269,1170z M-269.6,1163.1C-269.5,1163.1-269.5,1163-269.6,1163.1
    C-269.5,1163-269.6,1163-269.6,1163.1C-269.6,1163-269.6,1163-269.6,1163.1L-269.6,1163.1z M-272.4,1172.8L-272.4,1172.8
    L-272.4,1172.8L-272.4,1172.8z M-272.7,1145.9L-272.7,1145.9L-272.7,1145.9L-272.7,1145.9z M-260.4,1160.9
    C-260.5,1160.9-260.5,1160.9-260.4,1160.9C-260.5,1160.9-260.4,1160.9-260.4,1160.9L-260.4,1160.9L-260.4,1160.9z M-273,1171.7
    L-273,1171.7L-273,1171.7L-273,1171.7z M-271.2,1152.1L-271.2,1152.1L-271.2,1152.1L-271.2,1152.1z M-271,1168.6L-271,1168.6
    L-271,1168.6L-271,1168.6z M-269.9,1163.1L-269.9,1163.1L-269.9,1163.1L-269.9,1163.1z M-271.6,1156.2L-271.6,1156.2L-271.6,1156.2
    L-271.6,1156.2L-271.6,1156.2z M-268.4,1154.6L-268.4,1154.6L-268.4,1154.6L-268.4,1154.6z M-266.4,1149.1L-266.4,1149.1
    L-266.4,1149.1L-266.4,1149.1z M-259.7,1159.2L-259.7,1159.2L-259.7,1159.2L-259.7,1159.2L-259.7,1159.2z M-259.9,1164.6
    L-259.9,1164.6L-259.9,1164.6L-259.9,1164.6z M-260,1150.2L-260,1150.2L-260,1150.2L-260,1150.2z M-270.4,1173L-270.4,1173
    L-270.4,1173L-270.4,1173z M-263.1,1149.4L-263.1,1149.4L-263.1,1149.4L-263.1,1149.4z M-274.8,1169.7L-274.8,1169.7L-274.8,1169.7
    L-274.8,1169.7z M-255.9,1169.2L-255.9,1169.2L-255.9,1169.2L-255.9,1169.2z M-274.7,1171.6L-274.7,1171.6L-274.7,1171.6
    L-274.7,1171.6z M-271.7,1150.7L-271.7,1150.7L-271.7,1150.7L-271.7,1150.7z M-247.4,1143.2L-247.4,1143.2L-247.4,1143.2
    L-247.4,1143.2z M-271,1165.2L-271,1165.2L-271,1165.2L-271,1165.2L-271,1165.2z M-261.4,1165.1L-261.4,1165.1L-261.4,1165.1
    L-261.4,1165.1z"/>
</g>
</svg>