<?xml version="1.0" encoding="utf-8"?>
<!-- Generator: Adobe Illustrator 18.1.1, SVG Export Plug-In . SVG Version: 6.00 Build 0)  -->
<!DOCTYPE svg PUBLIC "-//W3C//DTD SVG 1.1//EN" "http://www.w3.org/Graphics/SVG/1.1/DTD/svg11.dtd">
<svg version="1.1" id="Layer_1" xmlns="http://www.w3.org/2000/svg" xmlns:xlink="http://www.w3.org/1999/xlink" x="0px" y="0px"
	 width="60px" height="63px" viewBox="0 0 60 63" enable-background="new 0 0 60 63" xml:space="preserve">
<g>
	<g>
		<path fill="#FFFFFF" d="M60,28.3c0-0.6,0-1.1,0-1.7c0,0,0,0,0,0c0-2.3-0.2-4.5-0.7-6.8c-0.3-0.6-0.5-1.1-0.9-1.7
			c-0.9-1.7-2-3.3-3.3-4.9c-0.1-0.1-0.2-0.2-0.3-0.4c-0.1-0.1-0.2-0.2-0.3-0.4c-0.1-0.1-0.2-0.3-0.4-0.4c-1.1-1.2-2.3-2.4-3.6-3.5
			C47.5,6.1,44,4,40.4,2.5c-0.6,0-1.2,0-1.8,0c-0.1,0-0.1-0.1-0.2-0.1c-0.1-0.1-0.2-0.1-0.3-0.2c-0.1,0-0.1-0.1-0.2-0.1
			c0,0-0.1-0.1-0.1-0.1c-0.2-0.1-0.4-0.3-0.6-0.4c-0.3-0.2-0.5-0.3-0.8-0.5c-0.1,0-0.1,0-0.2-0.1c-0.4-0.1-0.9-0.2-1.3-0.3
			c-1.3-0.3-2.6-0.5-3.9-0.5c0.1,0,0.2,0.1,0.3,0.1c0.1,0.1,0.2,0.1,0.3,0.2c0.2,0.1,0.4,0.2,0.6,0.3C32.5,0.9,32.7,1,33,1
			c0.9,0.1,1.8,0.5,2.5,1.1c0.2,0.2,0.5,0.3,0.7,0.5c0.1,0.1,0.2,0.1,0.3,0.2c-0.1,0-0.2,0-0.3,0.1c-0.1,0-0.2,0.1-0.4,0.1
			c-0.3-0.2-0.5-0.3-0.8-0.5c-0.2-0.1-0.3-0.1-0.5-0.1c0,0,0,0.1,0,0.1C34.8,2.7,35,2.8,35.3,3c-0.2,0-0.3,0.1-0.5,0.1
			c0,0,0,0-0.1,0c-0.1,0-0.1,0-0.2,0c-0.1,0-0.1,0-0.2,0.1C34.2,3.2,34.1,3.1,34,3c-0.1-0.1-0.2-0.1-0.3-0.2c-0.5-0.4-1.1-0.7-1.6-1
			c-0.2-0.1-0.5-0.2-0.7-0.3c-0.4,0-0.8,0.2-1.1,0c0-0.3,0.3-0.4,0.2-0.6c-0.2-0.2-0.4-0.3-0.7-0.3c-0.1,0-0.3,0-0.4,0
			c-0.1,0-0.2,0-0.3,0c-0.3,0-0.6,0-0.9,0.1c-0.9,0.2-1.8,0.3-2.6,0.7c-0.2,0.1-0.4,0.1-0.7,0c-0.2-0.1-0.5-0.2-0.8-0.3
			c0.4-0.2,0.8-0.4,1.1-0.6c-0.7,0.1-1.5,0.2-2.2,0.4c-2,0.4-3.9,1-5.8,1.8c-0.2,0.1-0.4,0.2-0.6,0.3c0,0,0,0-0.1,0
			c-0.2,0.1-0.4,0.2-0.5,0.2c-0.4,0.2-0.8,0.4-1.1,0.6c-0.3,0.1-0.5,0.3-0.8,0.4C12.6,5.1,11,6.1,9.6,7.3c0.1,0.1,0.1,0.2,0.1,0.4
			c0,0.1-0.2,0.3-0.3,0.2c-0.1,0-0.2-0.1-0.3-0.2c-0.6,0.5-1.2,1-1.7,1.5C7.2,9.4,6.9,9.6,6.7,9.8c-0.2,0.2-0.5,0.5-0.7,0.7
			c-0.7,0.7-1.3,1.4-1.9,2.2C4.1,12.8,4,12.9,3.9,13c-0.1,0.1-0.2,0.3-0.3,0.4c-0.1,0.1-0.2,0.3-0.3,0.4c-0.9,1.3-1.7,2.7-2.4,4.1
			c-0.4,0.7-0.7,1.5-0.9,2.3c0.9-0.7,1.7-1.6,2.5-2.5c0.2-0.2,0.4-0.4,0.6-0.7c0-0.1,0.1-0.1,0.1-0.2c0.1-0.2,0.3-0.3,0.4-0.5
			c0.1-0.1,0.2-0.2,0.2-0.3c0.3-0.3,0.6-0.6,0.8-0.9c0,0,0,0,0,0c0.3-0.3,0.6-0.6,0.9-0.9c0.7-0.8,1.4-1.6,2.2-2.3
			c0.3-0.9,0.3-0.9,1.1-1.2c0,0,0.1,0,0.2-0.1c0.7-0.6,1.4-1.2,2-1.8c0.2-0.3,0.1-0.6,0.3-0.7c0.2,0,0.4-0.1,0.7-0.1
			c0.3-0.3,0.7-0.5,1.1-0.8c1.1-0.8,2.1-1.7,3.1-2.6c0.3-0.3,0.6-0.5,1-0.8c0.1-0.1,0.2-0.1,0.3-0.2c0.1-0.1,0.2-0.1,0.2-0.2
			c0.1,0,0.1-0.1,0.2-0.1c0.1,0,0.1,0,0.2-0.1c0.4-0.2,0.8-0.5,1.3-0.7c0.1-0.1,0.3-0.1,0.4-0.1c-0.1,0.1-0.1,0.3-0.2,0.4
			c-0.2,0.2-0.5,0.4-0.7,0.6c-0.1,0.1-0.2,0.1-0.2,0.2c0,0-0.1,0.1-0.1,0.1c0,0-0.1,0.1-0.1,0.1c-0.5,0.4-1,0.9-1.4,1.4
			c-0.1,0.2-0.3,0.3-0.5,0.5c-0.5,0.5-1.1,0.9-1.6,1.4c0,0,0,0,0,0c-0.1,0-0.1,0.1-0.2,0.1c0,0,0.1,0.1,0.1,0.1
			c0.1,0.1,0.3,0.2,0.4,0.3L15.2,8l0,0l0.1,0.1l0,0l0,0l0.2,0.2l0.1,0c0.6,0.6,1.1,1.2,1.7,1.9c0,0,0,0.1,0.1,0.1
			c0,0-0.1-0.1-0.1-0.1c-0.3-0.4-0.2,0-0.7-0.6c0.1,0.1-0.1,0,0,0.1l-0.1-0.1c-0.2-0.2-0.5-0.5-0.8-0.8l-0.2-0.2l-0.1-0.1l-0.3-0.3
			c0,0,0,0,0,0c0-0.1-0.1-0.1-0.2-0.2c0,0,0,0,0,0c-0.1-0.1-0.2-0.1-0.2-0.2c-0.1,0-0.1-0.1-0.2-0.1c-0.1,0.1-0.2,0.1-0.3,0.2
			c-0.3,0.2-0.6,0.4-0.9,0.6c-3.4,2.4-6.1,5.1-8.2,8.2c-1.3,1.9-2.4,4-3.2,6.2c-0.2,0.5-0.3,1-0.5,1.4C1.2,25,1,25.7,0.8,26.5
			c0,0.1,0,0.1,0,0.2c0,0,0,0,0,0.1c0,0,0,0.1,0,0.1c-0.3,1.6-0.5,3.2-0.6,4.9c0,1.2,0,2.4,0,3.6c0,0.2,0,0.5,0,0.7
			c0,0.2,0,0.4,0.1,0.7c0,0.2,0,0.4,0.1,0.6c0,0.2,0,0.4,0.1,0.6c0,0.1,0,0.3,0,0.4c0,0.1,0,0.2,0,0.3c0.2,1.8,0.6,3.5,1.1,5.3
			c0.3,0.5,0.5,1.1,0.8,1.6c0.4,0.8,0.9,1.7,1.4,2.5C4,48,4.1,48.2,4.2,48.3c0.2,0.3,0.4,0.6,0.6,0.9c0.1,0.1,0.2,0.3,0.3,0.3
			c0,0,0,0,0,0c0,0,0.1,0.1,0.1,0.1c0,0,0.1,0.1,0.1,0.1c0,0,0.1,0.1,0.1,0.1c0.1,0.2,0.3,0.4,0.3,0.5c0.5,0.7,1.1,1.3,1.6,2
			c0.1,0.1,0.2,0.2,0.3,0.3c0.1,0.1,0.2,0.2,0.3,0.3C7.9,53,8,53.1,8.1,53.2c2.9,3,6.1,5.3,9.7,7c1,0.4,2,0.8,3,1.2
			c1,0.3,1.9,0.6,2.9,0.8c0.2,0,0.3,0.1,0.5,0.1c1.4,0.3,2.7,0.4,4.1,0.5c0.1,0,0.2,0,0.3,0c0.1,0,0.2,0,0.3,0c0.1,0,0.3,0,0.4,0
			c0.1,0,0.3,0,0.4,0c2.5,0,5.2-0.5,7.9-1.3c0.2-0.1,0.5-0.2,0.7-0.2c0.2-0.1,0.3-0.1,0.5-0.2c0.7-0.3,1.5-0.6,2.2-0.9
			c3.7-1.7,7.2-4.2,10.2-7.2C52.3,52,53.1,51,54,50c0.1-0.1,0.2-0.2,0.3-0.3c0.1-0.1,0.2-0.2,0.3-0.3c0.7-0.9,1.4-1.9,2-2.8
			c0,0-0.1,0,0-0.1l-0.4,0.4c0.1-0.1,0.1-0.2,0.2-0.3c-0.1,0.1-0.2,0.1-0.3,0.3c0.2-0.3,0.3-0.7,0-0.4l0.2-0.3
			c0-0.1,0.1-0.1,0.1-0.2l0.2-0.3l0-0.1c0,0,0-0.1,0-0.1c0-0.1,0-0.1,0-0.1c0,0,0,0.1-0.1,0.1c0,0,0-0.1,0.1-0.1
			c0.1-0.1,0.1-0.2,0.1-0.3c0.1-0.1,0.1-0.1,0.2-0.4c0.2-0.5,0.3-0.9,0.5-1.5c0-0.4,0-0.7,0-0.8c0-0.3,0.1-0.4,0.1-0.5
			c0.1-0.1,0.2-0.1,0.1-0.6c0.2,0.3,0.2-0.1,0.4,0.3c0,0,0,0,0,0c0.1,0.8,0.2,1.3,0.1,2c-0.1,0.3-0.2,0.7-0.3,1.1
			c0.4-0.7,0.3-1.3,0.6-2c0.4-0.8,0.7-1.6,1-2.4c-0.1-1.3,0.1-2.7-0.3-3.9c0-0.1,0-0.1-0.1-0.2c0.4-1.6,0.6-3.2,0.8-4.7
			C59.8,30.4,59.9,29.3,60,28.3z M34.9,35.3c0.2,0.2,0.4,0.5,0.6,0.6l-0.2-0.3c0.2,0.2,0.6,0.7,0.3,0.5c0.3,0.4,0.3,0.2,0.3,0.2
			c0.2,0.2,0.3,0.3,0.4,0.5c0.1,0.1,0.1,0.2,0.2,0.3c0.1,0.2,0.1,0.4-0.3,0c0,0-0.1-0.1-0.1-0.1C35.7,36.4,35.3,35.9,34.9,35.3
			l0.2,0.3L34.9,35.3z M36.3,35.7c0,0.1,0.1,0.1,0.1,0.2c0.1,0.2,0,0.1-0.1,0c-0.1,0-0.2-0.1-0.1,0l-0.5-0.4l-0.1-0.2
			c-0.6-0.5-0.4-0.7-0.3-0.7c0.3,0.1,0.6,0.5,0.9,0.8C36.2,35.5,36.2,35.6,36.3,35.7z M38.4,18.6c-0.3,0.4-0.3,0.2-0.5,0.3
			c0,0.1-0.2,0.2-0.2,0.3l0,0c0,0,0,0,0,0l0.1-0.1c0.1-0.2,0-0.2-0.2,0c-0.3,0.3-0.3,0-0.7,0.4l0.4-0.6c0-0.1-0.2,0.1-0.3,0.2
			c-0.1,0,0.3-0.3,0.4-0.5c-0.1,0-0.3,0.1-0.4,0.2l0.5-0.5c0.5-0.7-0.1-0.2-0.1-0.2c0.2-0.2,0.2-0.1,0.5-0.4c0.2-0.4-0.3,0.2-0.2,0
			l0.2-0.2c0.5-0.4,0.3-0.7,0.6-0.9c0.5-0.2,0.8-0.9,1-1.1c0.2-0.2,0.5-0.3,0.8-0.7l0,0c0.1,0,0.3-0.2,0.4-0.3c0,0.3,0.8-0.6,0.5,0
			c0.2-0.1,0.3-0.4,0.4-0.5c0,0.1-0.3,0.4-0.1,0.3c0.5-0.5-0.3,0.5,0.2,0.1c-0.2,0.2,0,0.2,0,0.2c-0.1,0.2-0.1,0.2-0.2,0.5
			c-0.2,0.3-0.2,0.5-0.4,0.9c-0.1,0.1-0.1,0.1-0.2,0.2c0.1,0.1-0.3,0.4-0.3,0.5c-0.4,0.3-0.7,1.1-1.2,1.3c-0.4,0.4-0.3,0.4-0.6,0.8
			C38.4,18.8,38.7,18.4,38.4,18.6z M18.2,10.8l0.1,0.2L18.2,10.8l-0.3-0.3L18.2,10.8L18.2,10.8z M34.3,18.1l0.1-0.2
			c-0.1,0.1-0.2,0.1-0.2,0.2c-0.1,0.1-0.2,0.2-0.3,0.3c0.1-0.1,0-0.1,0-0.1c-0.1,0.1-0.2,0.1-0.3,0.2c-0.1,0.1-0.2,0.2-0.5,0.5
			l0.4-0.5l0,0c0,0,0,0-0.1,0c0,0,0,0,0,0c0,0-0.1,0-0.1,0.1c0,0-0.1,0.1-0.1,0.2c-0.2,0.2-0.4,0.5-0.5,0.5l0.7-0.8l0,0
			c-0.1,0.1-0.2,0.2-0.4,0.4c0.1-0.1,0.3-0.3,0.4-0.4c0,0,0-0.1,0-0.1c0.2-0.4,0.3-0.7,0.2-0.6c0.1-0.1,0.4-0.3,0.4-0.4
			c-0.1,0-0.2,0.2-0.2,0.1l0.6-0.5c0.2-0.2,0-0.2,0.2-0.3l0.2-0.4l0,0c0.3-0.2,0.7-0.6,1.1-0.7l0-0.1l0.4,0.1
			c-0.2,0.7-1.2,1.7-1.9,2.5C34.4,18,34.3,18,34.3,18.1z M51,18.9l-0.2,0.2l-0.1,0.2c-0.2,0.2-0.3,0-0.6,0.5c0-0.2-0.4,0.3-0.6,0.5
			c-0.2,0-0.3,0-0.6,0.2l0-0.2c-0.4,0.2,0.1-0.4,0.1-0.6l-0.2,0.1c0.3-0.3,0.2-0.4,0.3-0.5c0-0.1,0.1-0.1,0.1-0.2
			c0.3-0.6,0.9-1.1,1.4-1.8c0,0,0,0,0.1,0c0.2-0.4,0.2-0.1,0.4-0.4c0,0,0,0,0-0.1c0,0,0,0,0,0c0.4-0.4,0.5-0.2,0.9-0.7
			c0,0.2,0.5-0.2,0.6-0.1C52.6,16,52.6,16,52.6,16c0.4-0.3,0.1,0.2,0.6-0.3c0,0,0,0,0,0c0,0,0,0,0,0c-0.1,0.2-0.4,0.3-0.6,0.6
			l0.3-0.1c-0.1,0.1-0.2,0.2-0.2,0.2l-0.2,0.4c-0.1,0.2,0.1,0,0.2,0c-0.2,0.2-0.5,0.4-0.6,0.6l0.1,0L52,17.7l0,0
			c-0.2,0.2-0.4,0.3-0.5,0.5c0.1-0.1,0.1,0,0.1,0c-0.2,0.2-0.4,0.3-0.7,0.6c0,0,0,0,0,0C50.9,18.9,51,18.8,51,18.9z M41.1,22.7
			L41.1,22.7C41.1,22.6,41.1,22.6,41.1,22.7C41.2,22.6,41.1,22.6,41.1,22.7L41.1,22.7C41.1,22.7,41.1,22.7,41.1,22.7z M26,1.6
			c0.1-0.1,0.3-0.2,0.4-0.1c0,0,0.1,0,0.1,0c0.1,0,0.1,0.1,0,0.2c-0.3,0.2-0.6,0.4-0.9,0.6c0,0-0.1,0-0.3,0C25.5,2,25.7,1.8,26,1.6z
			 M20.2,2.3C20.2,2.3,20.2,2.3,20.2,2.3C20.2,2.3,20.3,2.3,20.2,2.3c0.1-0.1,0.1-0.1,0.2-0.1c0,0,0.1,0,0.1,0
			C20.4,2.3,20.3,2.3,20.2,2.3C20.3,2.3,20.3,2.3,20.2,2.3C20.2,2.3,20.2,2.3,20.2,2.3C20.2,2.3,20.2,2.4,20.2,2.3
			c-0.1,0.1-0.1,0.2-0.2,0.2c0,0,0,0,0,0c0,0,0,0-0.1,0c-0.1,0.1-0.1,0.1-0.2,0.2c0,0,0,0,0,0l0,0c0,0,0,0,0,0
			c0-0.1,0.1-0.1,0.2-0.2c0,0,0,0,0,0c0,0,0,0,0,0C20,2.5,20.1,2.4,20.2,2.3C20.2,2.4,20.2,2.3,20.2,2.3z M19.7,22.6
			c0.4,0.4,0.8,1,1.1,1.4c0.2,0.3-0.1,0.1-0.3,0c-0.3-0.2-0.6-0.6-0.9-1c-0.2-0.2-0.3-0.4-0.4-0.6c0.1,0.1,0.1,0,0-0.1
			c-0.1-0.1-0.4-0.4-0.4-0.5c0.1,0.1,0.2,0.2,0.3,0.3c0,0,0.1,0.1,0.1,0.1C19.5,22.5,19.6,22.6,19.7,22.6z M12.2,15.8l0.3,0.3
			l0.2,0.1l0.1,0.1c0,0,0.1,0.1,0.2,0.2c0.1,0.1,0.2,0.2,0.3,0.3c0.4,0.4,0.7,0.8,0.5,0.8c-0.2-0.2-0.5-0.4-0.7-0.6
			c-0.1-0.1-0.2-0.2-0.3-0.3c-0.1-0.1-0.2-0.2-0.3-0.3c-0.1-0.1-0.1-0.2-0.2-0.3C12.3,16,12.2,15.9,12.2,15.8
			C12.2,15.8,12.2,15.8,12.2,15.8C12.2,15.8,12.1,15.8,12.2,15.8L12.2,15.8L12.2,15.8z M16.8,20C16.8,20,16.7,20,16.8,20l-0.1-0.1
			C16.7,19.9,16.7,20,16.8,20c0.1,0,0.1,0.1,0.2,0.1c0.3,0.3,0.7,0.7,1.1,1.1c0.1,0.2,0.3,0.4,0.2,0.4c-0.1-0.1-0.3-0.2-0.4-0.3
			c-0.1-0.1-0.2-0.2-0.3-0.3c-0.4-0.4-0.8-0.9-1.1-1.3c0.1,0.1,0.3,0.4,0.4,0.3C16.8,20.1,16.8,20.1,16.8,20z M11,17
			c0-0.1,0.1,0,0.2,0.1c0,0,0.1,0,0.1,0.1c0,0,0-0.1,0-0.1c-0.1-0.1-0.2-0.3-0.4-0.5l-0.2-0.2c0.2,0.1,0.4,0.3,0.7,0.6
			c0.2,0.1,0.3,0.3,0.4,0.4c-0.1-0.1-0.1-0.2-0.1-0.2c0.1,0.1,0.2,0.2,0.3,0.3c0,0,0.1,0.1,0.1,0.1c0.1,0.1,0.2,0.3,0.4,0.4
			c0.2,0.3,0.4,0.5,0.6,0.6c0.1,0.2,0.4,0.6,0.6,0.8c0.1,0.2,0.2,0.4,0.1,0.4c-0.5-0.2-1-0.8-1.6-1.4c-0.1-0.1-0.3-0.3-0.4-0.4
			c0,0,0,0,0,0c-0.2-0.2-0.3-0.4-0.5-0.5C11.1,17.1,11,17.1,11,17z M15.4,18.9l0.2,0.2l-0.1,0L15.4,18.9z M19.6,34.3
			c-0.1-0.2-0.2-0.3-0.3-0.4c0-0.1-0.1-0.1-0.1-0.2c0,0,0-0.1,0-0.1c0-0.1,0-0.1,0-0.1c0,0,0.1,0.1,0.2,0.2c0.1,0.1,0.1,0.1,0.2,0.2
			c0.2,0.2,0.5,0.5,0.7,0.7c0.4,0.4,0.5,0.7,0.6,0.8c0.1,0.2,0,0.2-0.3,0c-0.1-0.1-0.1-0.1-0.2-0.2C20.1,34.9,19.8,34.6,19.6,34.3z
			 M30.3,36.7c0,0,0-0.1,0.1-0.2c0.1-0.1,0.2-0.1,0.2-0.1l-0.1,0c0,0,0.2,0,0.4,0.1c0.2,0.1,0.3,0.3,0.3,0.3
			c0.2,0.3,0.5,0.7,0.4,0.8c-0.1,0-0.3-0.2-0.5-0.4c-0.2-0.2-0.4-0.5-0.7-0.4c0.2-0.1-0.1-0.1-0.3,0.1C30.2,37,30.3,36.7,30.3,36.7
			L30.3,36.7z M40.1,46.5c0.1,0.2-0.3,0-0.6-0.3c-0.6-0.7-1-1.3-1.4-2l0.3,0.2l-0.1-0.3c0.5,0.4,1.5,1.2,2.4,2.4
			c0.1,0.4-0.3,0-0.6-0.3C40,46.3,40.2,46.5,40.1,46.5z M44.7,53.1c-0.1,0-0.2,0-0.3-0.1c-0.2-0.1-0.4-0.3-0.4-0.3
			c-0.2-0.1-0.4-0.1-0.5-0.2c-0.1,0-0.1,0,0,0.1c0,0,0.1,0.1,0.1,0.1c0,0-0.1,0-0.1-0.1c-0.3-0.2-0.7-0.5-1-0.5l0.3,0.2
			c-0.3-0.2-0.5-0.4-0.8-0.5c-0.2,0,0.2,0.4,0.3,0.5c0,0-0.2-0.1-0.3-0.3c-0.2-0.2-0.3-0.4-0.3-0.4l-0.2,0c0.1,0.1,0.2,0.2,0.3,0.3
			l-0.3-0.3l0,0c-0.7-0.8-1.5-1.5-2.2-2.1c-0.1-0.1-0.3-0.3-0.5-0.5c0,0,0.1,0-0.1-0.1c-0.3-0.2-0.7-0.6-0.6-0.7
			c0-0.1-0.1-0.2-0.3-0.4c-0.3-0.3-0.6-0.7-0.9-1.1c0.5,0.5,0-0.2-0.1-0.3l-0.2-0.2c-0.1-0.3-0.8-1.2-0.2-0.7
			c0.1-0.3,2.1,1.9,2.4,1.9c0.2,0.3,0.7,0.6,1,0.7c-0.2,0.1,1.2,1.1,0.8,0.9c0.5,0.5,1.2,1.1,1.7,1.5c0,0-0.2-0.1-0.2-0.1
			c0.5,0.4,0.7,0.7,1.3,1.1c0.2,0.2,0,0.1-0.2,0c0,0.1,0.1,0.1,0.1,0.2c0.1,0.1,0.3,0.3,0.5,0.4c0.3,0.2,0.6,0.4,0.9,0.5l-0.1,0
			c-0.4-0.1-0.7-0.4-0.8-0.4c0.2,0.2,0.5,0.3,0.7,0.4c-0.2,0-0.9-0.5-0.7-0.3c0,0.1,0.2,0.2,0.3,0.3C44.4,52.9,44.6,53,44.7,53.1
			c0.1,0,0.3,0,0.3,0C44.9,53.1,44.8,53.1,44.7,53.1z M46.3,51.3c-0.3,0.2-0.7-0.1-0.9-0.4c-0.5-0.5-0.9-1-1.3-1.5
			c-0.5-0.6-0.9-1.1-1.4-1.7c-1.4-1.6-2.9-3.3-4.3-4.9c-0.1-0.1-0.1-0.1-0.2-0.2c-0.1-0.1-0.1-0.1-0.2-0.2c-0.5-0.5-0.9-1.1-1.4-1.6
			c-1.8-2-3.6-4.1-5.4-6.1c-0.2-0.3-0.7-0.5-0.9-0.3c-0.5,0.6-1,1.2-1.5,1.7c0.1,0.1,0.2,0.2,0.3,0.4c0.1,0.2-0.1,0.1,0.2,0.4
			l-0.1,0c-0.1-0.1,0,0.1,0.2,0.3c-0.4-0.3-0.5-0.4-0.8-0.8l0,0.1c0,0-0.1-0.1-0.1-0.2c-0.4,0.4-0.8,0.9-1.1,1.3
			c-1.6,1.9-3.3,3.7-4.9,5.6c-0.1,0.1-0.1,0.1-0.2,0.2c-0.1,0.1-0.1,0.1-0.2,0.2c-0.3,0.3-0.6,0.7-0.9,1c-0.2,0.2-0.4,0.5-0.6,0.7
			c-1.5,1.7-2.9,3.3-4.3,5c-0.1,0.1-0.2,0.2-0.3,0.3c-0.5,0.6-1,0.9-1.5,0.4c-1.4-1.2-2.8-2.2-4.1-3.6c-0.2-0.2-0.4-0.5-0.7-0.7
			c-0.6-0.7-1.2-1.5-1.8-2.4c-0.1-0.1-0.1-0.2-0.2-0.2c-0.1-0.1-0.1-0.2-0.2-0.2c0,0,0,0,0,0c-0.1-0.1-0.1-0.2-0.2-0.3
			c0-0.1-0.1-0.2-0.1-0.3c0-0.1-0.1-0.2-0.1-0.3c-0.2-0.9,0-2.1,0.5-3.3c0.5-1.1,0.7-1.2,1.3-0.5c0.1,0.1,0.2,0.3,0.4,0.4
			c0.1,0.1,0.1,0.2,0.2,0.2c0.2,0.2,0.3,0.4,0.5,0.6c0,0.1,0,0.1,0.1,0.2c0.4,0.5,0.7,0.8,1.1,1.3c0.1,0.1,0.1,0.2,0.2,0.2
			c0.1,0.1,0.1,0.2,0.2,0.2c0.1,0.1,0.1,0.1,0.2,0.2c0.1,0.1,0.1,0.1,0.2,0.2c0.1,0.1,0.1,0.1,0.2,0.2c0.6,0.7,1.2,1.5,1.8,2.2
			c0.3-0.3,0.8-0.7,0.8-0.5c0,0.2-0.2,0.5-0.5,0.8c0.3,0.4,0.6,0.7,0.9,1.1c0.1,0.1,0.2,0.2,0.3,0.3c0.5,0.4,1,0.2,1.5-0.4
			c1.1-1.3,2.2-2.6,3.3-4c0.1-0.1,0.1-0.1,0.2-0.2c0,0,0.1-0.1,0.1-0.1c0,0,0.1-0.1,0.1-0.1c1.5-1.7,2.9-3.4,4.4-5.1
			c0.3-0.4,0.6-0.7,1-1.1c0.2-0.2,0.3-0.4,0.5-0.6c0,0,0,0,0,0c0.9-1,1.7-2,2.7-3.1c-1.8-2-3.5-4-5.2-5.9c-0.1-0.1-0.2-0.2-0.3-0.3
			c-0.1-0.1-0.2-0.2-0.3-0.3c-0.4-0.4-0.8-0.9-1.2-1.3c-0.6-0.7-1.3-1.4-1.9-2.2c-1-1.1-2-2.2-3-3.4c-0.2-0.3-0.5-0.5-0.7-0.8
			c-0.2-0.2-0.4-0.4-0.6-0.6c-0.5-0.6-1.1-1.2-1.6-1.9c-0.1-0.1-0.2-0.2-0.3-0.3c-0.1-0.1-0.2-0.2-0.3-0.3c-0.2-0.2-0.3-0.3-0.5-0.5
			c-0.4-0.4-0.7-0.8-1.1-1.2c-0.5-0.5-1-1.1-0.7-2.5c0.3-1,0.9-1.1,1.6-0.3c0.6,0.7,1.3,1.4,1.9,2.1c0.1,0.1,0.3,0.3,0.4,0.5
			c0,0,0,0.1,0.1,0.1c0.1,0.1,0.1,0.1,0.2,0.2c0,0,0.1,0.1,0.1,0.1c0,0,0.1,0.1,0.1,0.1c2,2.4,4.1,4.8,6.1,7.1
			c1.5,1.7,2.9,3.4,4.4,5.1c0.1,0.1,0.2,0.2,0.3,0.3c0.1,0.1,0.1,0.2,0.2,0.3c1.2,1.4,2.4,2.8,3.6,4.2c0.3-0.3,0.5-0.5,0.8-0.8
			c1-1.2,2.1-2.5,3.1-3.7c0.1-0.1,0.2-0.2,0.2-0.3c0.1-0.1,0.2-0.2,0.2-0.3c0,0,0,0,0,0c-0.2-0.2-0.4-0.4-0.6-0.6
			c-0.3-0.3-0.6-0.7-0.5-0.8c0.4,0.2,0.8,0.8,1.3,1.3c1.1-1.3,2.2-2.5,3.2-3.8c0.1-0.1,0.2-0.2,0.3-0.3c0.2-0.2,0.4-0.4,0.5-0.6
			c0.4-0.4,0.7-0.9,1.1-1.3c0.4-0.4,0.7-0.8,1.1-1.2c0.3-0.4,0.6-0.7,0.9-1.1c0.3-0.3,0.6-0.7,0.9-1c0.4-0.5,0.8-0.9,1.2-1.4
			c0.1-0.1,0.1-0.2,0.2-0.2c0.1-0.1,0.1-0.2,0.2-0.3c0,0,0,0,0.1-0.1c1.2-1.4,2.3-2.7,3.5-3.9c0.5-0.6,1-0.1,1.2,0.8
			c0.1,0.5-0.1,1.3-0.3,1.9c0,0.1,0,0.1-0.1,0.2C49,13,48.9,13,48.8,13.1c-0.1,0.1-0.3,0.3-0.4,0.4c-0.2,0.3-0.5,0.6-0.7,0.8
			c-0.1,0.1-0.1,0.2-0.2,0.2c-0.1,0.1-0.1,0.2-0.2,0.2c-1.9,2.2-3.9,4.4-5.8,6.6c-0.2,0.2-0.4,0.5-0.7,0.7c-0.1,0.1-0.2,0.2-0.3,0.3
			c-0.6,0.7-1.3,1.5-1.9,2.2c-0.1,0.1-0.2,0.3-0.4,0.4c-0.1,0.1-0.2,0.3-0.4,0.4c-1.1,1.2-2.2,2.5-3.3,3.7c0,0.1-0.1,0.1-0.1,0.2
			l0,0l-0.1,0c-0.8,0.9-1.6,1.8-2.4,2.8c1.4,1.6,2.8,3.2,4.1,4.8c0.4,0.5,0.8,1,1.3,1.5c0.1,0.1,0.2,0.2,0.3,0.3
			c0.5,0.6,1.1,1.2,1.6,1.9c0.1,0.1,0.1,0.1,0.2,0.2c0.1,0.1,0.1,0.1,0.2,0.2c1.7,2,3.4,4,5.1,6c0.2,0.2,0.6,0.2,0.9-0.1
			c0.2-0.2,0.3-0.4,0.5-0.6c-0.1-0.1-0.3-0.3-0.4-0.4c-0.2-0.2-0.4-0.4-0.6-0.7c-0.3-0.2-0.5-0.5-0.7-0.7c0.5,0.2-0.9-1-0.8-1
			l0.4,0.2c-0.2-0.3-0.7-0.9-0.9-1.1l0.6,0.4l-0.3-0.4l0.5,0.5c-0.1-0.2,0.3,0.1,0.1-0.2l-0.2-0.2c0.1,0.1,0.1,0.1,0.2,0.2l0.5,0.6
			c0.3,0.3,0.7,0.7,1.1,1.1l0.3,0.3c0.1,0.1,0.1,0.2,0.2,0.3c0.1,0.2,0.3,0.4,0.4,0.5c0,0.1,0.1,0.3,0.1,0.4
			c0.8-0.9,1.6-1.8,2.4-2.7c0,0-0.1,0-0.2,0l0.5-0.9l-0.2,0.1l0.1-0.1c0.1-0.2,0.3-0.4,0.5-0.6l0.1-0.1l0.1-0.1l0.1-0.1
			c0,0,0-0.1,0.1-0.1c0,0,0,0,0,0l0.1-0.1c0.1,0,0.3,0.1,0.4,0.1c0-0.1,0.1-0.1,0.1-0.2c0.1-0.1,0.2-0.2,0.3-0.3
			c0.1-0.1,0.1-0.2,0.2-0.3c0.1-0.1,0.1-0.2,0.2-0.3c0.2-0.3,0.4-0.5,0.7-0.8c1.1-1.3,1.4-1.3,2,0.4c0,0.1,0.1,0.2,0.1,0.3
			c0,0.1,0,0.1,0.1,0.2c0,0,0,0.1,0,0.1c0.2,0.6,0.3,1.2,0.2,1.6c0,0.1,0,0.1,0,0.2c0,0.2-0.1,0.3-0.1,0.5c0,0.1-0.1,0.3-0.2,0.4
			c-0.1,0.1-0.1,0.2-0.2,0.4c0,0.1-0.1,0.1-0.1,0.2c-0.2,0.3-0.3,0.5-0.5,0.7C51,47.9,48.7,49.7,46.3,51.3z"/>
	</g>
</g>
</svg>
