<svg xmlns="http://www.w3.org/2000/svg" width="51" height="41" viewBox="0 0 51 41"><path fill="#fff" d="M50 1.7c-.2-.1-.4-.2-.6-.2-.8.1-.9.4-1 .5 0 0-.2.3-.5.7-.9 1.1-3.1 3.6-4.8 4.3 0 0-.9.2-1.9.4-1 .1-2.3.3-3.6.3h-1.2c-.9-.8-2.1-1.1-3.6-1.1-.8 0-1.6.1-2.4.3-.3.1-.7.1-1.1.1-1.5 0-3.4-.5-5.1-.6h-1c-1.3 0-2.4.3-3.2.7-.7.1-1.4.1-2.1.1-1.6 0-3.2-.2-4.5-.4-.6-.1-1.2-.2-1.6-.3-.4-.1-.7-.2-.8-.2C9.5 5.6 8 4.2 6.9 3c-.6-.7-1.1-1.3-1.4-1.7C5.1.9 5 .6 5 .6 4.9.5 4.8.1 4 .1c-.2 0-.4 0-.6.1-.6.3-.7.9-.7 1.1 0 .3.1.5.1.5s.6 1.6 1.5 3.5 2.1 4 3.6 5.2c.7.6 2.2 1.3 4.1 2-.4.2-.9.3-1.3.4-.5.1-1 .2-1.4.3-.4.1-.6.1-.6.1l-1 .1.2 1c0 .1.1.9.6 1.9-3.8 2-6.4 3.8-6.4 3.8L.3 21.4l2.2.5s.3.1.9.2c1.6.4 5.3 1.6 7.6 3.5 3.9 3.2 4.9 5.6 6.8 8.4 3.4 5.1 8.8 6.8 8.8 6.8l-.1-1.7v-1.2c0-3 .9-4.5 1.7-5.4.4-.4.8-.7 1.1-.8.1-.1.3-.1.3-.1h.7c.3 0 .6 0 1 .1h.5c1.5 0 2.8-.9 3.2-2.2 1.1-1.4 1.5-2.6 1.5-3.6 0-.8-.3-1.4-.5-1.7 0-.2-.1-.4-.1-.6 0-.3 0-.5.1-.7.1-.4.8-1.3 1.5-2.6.5.1 1 .2 1.6.2h.2c2.2 0 3.8-1.1 4.7-2.2 1-1.1 1.4-2.1 1.5-2.2l.6-1.3h-1.5c-1.6 0-2.9-.6-3.9-1.3.8-.3 1.6-.5 2.3-.8 1.2-.5 2-.9 2.6-1.3 1.4-1.1 2.5-3.1 3.4-4.8.9-1.7 1.4-3.2 1.5-3.2 0-.1.1-.2.1-.5 0-.4-.1-.9-.6-1.2z"/><path fill="#231F20" d="M49.5 2.5c-.2-.1-.3.1-.3.1s-3 4.1-5.7 5.3c-.6.3-4.2.9-7.5.6-.9-1-2.8-1.4-5.4-.8-1.9.4-4.5-.3-6.6-.5-1.7-.1-2.9.1-3.8.7-3.9.5-9-.5-9.7-.9-3-1.4-6.2-5.9-6.2-5.9S4 .9 3.8 1s-.1.5-.1.5 2.4 6.3 4.9 8.3c.8.6 3.1 1.7 5.8 2.5-1.7 1.6-5.4 2-5.4 2s.2 1.2.9 2.5C5.7 18.9 2.8 21 2.8 21s9.6 1.6 14.9 11.2c-.4-1.9-.1-3.1-.1-3.1 1.4 5.7 4.5 8.6 7.9 10.2-.5-7.6 3.9-8.5 3.9-8.5.5-.1 1.2-.1 1.9 0 1.4.2 2.5-.6 2.7-1.7 2.5-3.1 1-4.5 1-4.5s-.3-1.1 0-2.1c.3-.9 1.2-1.9 1.9-3.5.5.2 1.2.4 2.1.4 3.7.1 5.5-3.8 5.5-3.8-2.7 0-4.6-1.4-5.9-2.8 2.9-.7 5.5-1.8 6.3-2.4 2.3-1.8 4.6-7.6 4.6-7.6s.2-.2 0-.3z"/><path fill="#CF0A2C" d="M33.3 14.3c.1-.3.3-.5.3-.5.7-.8 2 0 2 0-.4-1.1-1.4-1.4-2.2-1.4.4-.4.9-1 .6-2-.2-.8-1-1.3-2.3-1.2 0 0-1.8.4-3.9.1-1.6-.2-4.2-1.4-6.5 0 .6.7 0 1.9-.1 2-2.1 4.4-7.3 4.3-7.3 4.3 1.4-.6 2.4-1.5 2.9-2.2-1.2.8-3 1.6-5.5 1.8 0 0 .4 3.2 4.5 3.3 1.1 0 1.9-.2 2.5-.4.2-1.2.7-1.9.7-1.9s-.1 4 4.3 6.9c.1-1.5.7-2.3.7-2.3s-.1 1.8.4 3.3c.5 1.5.5 2.6.6 3.3.2 1.4 1.5 1.6 2 1 0 0-.9-2.7.1-3.7 1.1-.9 2.6-.1 2.6-.1s1.2.6 2.1.2c1.1-.4 1.7-.2 1.7-.2s-.8-1.3-.9-2.5c-.1-1.5.2-2-.1-3.4-.7.4-1.4.5-1.4.5 1.7-1 1.7-3.4 2.2-4.9zm-8.6 3.2c-.3.1-.5-.1-.5-.1-.1 0-.5-.5-.2-1 .2.1.4.3.4.3 0-.1-.3-.8-.4-.9-.2 0-.4 0-.5.1-.3.3-.2.9.2 1.3-.4-.1-.7-.3-1-.6-.7-.7-.7-1.6-.2-2.1.2-.2.5-.3.8-.3-.6-.8-1.4-.8-1.4-.8s1.9-1.2 2.9 1.1c.6 1.4 1.3 3.9 3.3 4.7-.1.1-2.2.6-3.4-1.7zM17.8 21.6c.1 5.9 2.5 10.8 5 12.7.8-6.3-2.8-6.8-4.2-14.5-2.3 1.2-4.8 1.6-7.2 1.5 1.7 1.1 3.5 2.6 5.1 4.7.4-2.7 1.3-4.4 1.3-4.4z"/><g fill="#fff"><path d="M20 9.3c-3.2.1-8.5-.1-10.6-1.5 0 0 2.1 2.7 10.7 3.2.5-.4.5-1.4-.1-1.7zM28.7 25.7c-.3.1-.5.5-.5.8.1.4.4.6.8.6h.1c.4-.1.7 0 .9.2l-1.3-1.6zM33.9 26l-1.4 1.2c.2-.1.5-.3.9-.1 0 0 .1 0 .1.1.3.1.6-.1.7-.4 0-.4-.1-.7-.3-.8zM24.2 17.4c-.1 0-.5-.5-.2-1 .2.1.4.3.4.3 0-.1-.3-.8-.4-.9-.2 0-.4 0-.5.1-.3.3-.2.9.2 1.3.3.2.6.3.9.3-.3 0-.4-.1-.4-.1z"/></g></svg>