<svg xmlns="http://www.w3.org/2000/svg" width="25" height="21" viewBox="0 0 25 21"><path fill="#4D4D4D" d="M25 2.7c-.9.4-1.9.7-2.9.8 1.1-.6 1.9-1.6 2.3-2.8-1 .6-2.1 1-3.3 1.2-.9-1-2.3-1.6-3.7-1.6-2.8 0-5.1 2.3-5.1 5.1 0 .4 0 .8.1 1.2-4.4-.2-8.1-2.2-10.7-5.3-.4.7-.7 1.6-.7 2.6 0 1.7 1 3.3 2.3 4.2-.8 0-1.6-.2-2.3-.6v.1c0 2.5 1.8 4.6 4.1 5-.4.1-.9.2-1.4.2-.3 0-.7 0-1-.1.7 2 2.5 3.5 4.8 3.6-1.8 1.4-4 2.2-6.4 2.2-.4 0-.8 0-1.2-.1 2.3 1.5 5 2.3 7.9 2.3 9.4 0 14.6-7.8 14.6-14.6v-.7c1-.7 1.9-1.6 2.6-2.7z"/></svg>