<svg xmlns="http://www.w3.org/2000/svg" width="60" height="59" viewBox="0 0 60 59"><g fill="#fff"><path d="M51.4 13.1l.5.4-.7-.9c-.1-.1-.1-.1-.2-.1.1.1.2.2.2.4l.2.2zM36.9 4.8c.2 0 .4.1.6.2.1.1.3.1.4.1.2 0 .3 0 .5.1.3.1.6.2.7.5l.1.2.4.2s.1 0 .1.1c0 0 .1 0 .1.1l1.4.5.6.2c.2 0 .2 0 .3.1l.1.1 1 .5h.1c.1 0 .3-.1.5-.1l.4-.1c-.4-.3-.8-.5-1.2-.6-1.2-.5-2.4-1.1-3.5-1.6-1.1-.3-2.2-.5-3.3-.7l.2.2c.2-.1.3-.1.5 0zM48.8 10.7l.3.2.2.2.9.6c0-.2-.2-.4-.3-.6-.1-.1-.2-.2-.4-.3l-.2-.1-.7-.1s.1.1.2.1zM3.2 38.8c0 .1-.1.2-.2.2h-.2l-.2-.1s0 .1.1.1l.8 1.2.1-.1c-.1-.4-.3-.8-.4-1.3zM23.9 5.5l.7-.1c.7-.1 1.4-.3 2-.7-.9.2-1.9.5-2.8.8 0 .1.1.1.1 0zM42.8 3.7c.9.2 1.8.4 2.6.7.2.1.4.1.6.3.2.2.5.4.8.5l1.2.5c-.1-.1-.2-.2-.3-.4-.5-.6-1.1-1.1-1.8-1.5-.2-.1-.5-.2-.7-.2-.7-.1-1.5-.2-2.2-.2-.3 0-.6 0-.9-.1-.5-.2-.9-.3-1.4-.4-.6-.2-1.2-.3-1.8-.2h-.1v.1c.8.2 1.6.4 2.4.7.6 0 1.1.1 1.6.2zM31.2 2l.9-.1h1c.1 0 .2.1.4.1.7 0 1.4.1 2 .1v-.1c.1-.2.3-.2.3-.4l-.2-.1-.8-.1c-1.1-.2-2.2-.2-3.4 0l-3.3.5c-1 .1-2 .5-3 .8.5-.1 1-.2 1.6-.3 1.6-.1 3-.2 4.5-.4zM42.5 56.2c.1-.1.3-.1.4-.1.1-.1.2-.1.3-.1v-.1c.1-.1.2-.2.4-.2l.3-.1c.1-.1.2-.1.3-.1 0-.1.2-.1.3-.1 0 0 0-.1.1-.1-.1 0-.1 0-.2.1-.3.2-.6.2-.9.2-.4.3-.8.5-1.2.7.3-.3.3-.2.2-.1zM2.5 38.5c0-.1.1-.2.2-.3 0 0 .1 0 .2-.1h.30000000000000004c-.3-1.2-.4-2.4-.5-3.6l-.2-1.9v-.4l.1-1.7v-.5l-.5.3h-.1v-.1c.1-.3.2-.5.5-.7l.2-.2c0-1.2.1-2.5.8-3.6-.1-.2-.2-.5-.1-.7l.1-.5c-.3.4-.4.5-.5.7-.4.8-.9 1.7-1.2 2.6-.5 1.2-.9 2.4-1.2 3.6l-.1.5c0 .7-.1 1.5 0 2.2 0 0 0 .1.1.2.3.5.4.9.5 1.5l.1.6.2-.1c.2 0 .3.2.3.4 0 .1-.1.2-.2.2l.1.2.5.9.4.7v-.2zM19.7 7.4l.7.3.1-.1h.2c.2-.1.4-.1.5-.3.2-.2.4-.3.6-.4.2 0 .4 0 .6-.2l.3-.4c.2 0 .5 0 .7-.1 0 0 .1 0 .2-.1h-.1c-1 .1-2 .3-2.9.5-.4.2-.8.4-1.1.6.2.1.2.2.2.2zM45 55.2l.1-.2h-.1l-.1.1c-.1.1-.2.1-.3.1h-.1c-.1.1-.2.1-.3.1-.1.1-.2.1-.3.1 0 .1 0 .1-.1.2l-.3.2c-.3.2-.4.2-.5.2-.1.1-.2.1-.3.1 0 .1-.1.2-.2.4 0 0 .1 0 .1-.1l1.8-.8.5-.3.1-.1zM2.2 23.9l-.5.9c0 .1 0 .2-.1.2v.1h.1l.3-.3.4-.8c0-.1.1-.2.1-.4-.2.1-.3.2-.3.3zM8.5 43.5l-.1-.3-.1.1.1.2h.1zM43.2 3.1l1 .2h.5c.1 0 .2-.1.2-.1.1 0 .1-.2.1-.2l-.1-.1c-.9-.2-1.7-.3-2.8-.2.5.1.7.2.9.3l.2.1zM27.4.9c.2 0 .4-.1.6-.2.1 0 .3-.1.4-.2l-.2-.1c-.5 0-1 .1-1.4.3-.2.1-.5.1-.6.3h.1c.3 0 .7 0 1.1-.1zM45.8 3.2c.5.3 1 .6 1.4.9.1.1.1.1.2.1h.1c0-.1-.1-.2-.2-.3-.4-.4-.8-.6-1.3-.9-.2-.1-.4-.1-.6 0 .2.1.3.2.4.2zM47.8 4.4l-.1-.1c0 .1 0 .1.1.1zM3.2 40.6c-.3-.4-.5-.8-.8-1.1l-.3-.4c-.2.1-.1.2-.1.2l.2.4c.1.1.2.2.2.3v.1c.1.1.1.2.2.4l.3.5c.1-.1.2-.2.3-.4zM31.9.1c-.2 0-.4.1-.6.2.2.1.4.1.6 0 .7-.2 1.3-.1 2-.1v-.1h-2zM.5 36s0 .1-.1.2c0 .2 0 .2.2.2.1-.2 0-.3-.1-.4zM2.8 22.7c-.1.1-.1.3-.2.5.2-.2.4-.3.4-.6-.1 0-.2.1-.2.1zM2.6 23.3c-.1.1-.1.2-.1.3l.1-.3zM17.9 55.3c-.5-.3-1-.6-1.6-.9l1.8 1.2-.2-.3c.1.1 0 .1 0 0zM24.5 56.8l.6.1-.9-.3c.1 0 .2.1.3.2zM14.7 52.9c.9.7 1.8 1.3 2.8 1.8l-.3-.4c-.4-.2-.8-.5-1.2-.8-.6-.5-1.3-.9-1.9-1.3-.1-.1-.2-.2-.3-.4l.1.3v-.1c-.3-.2-.5-.4-.5-.8-.1-.2-.3-.3-.5-.4l-1.1-1c.1.3.3.6.5.9.5.6 1.1 1.1 1.7 1.6h.1c.2.3.4.5.6.6zM4.8 43.9c0 .2.1.2.2.3l.3.4-.7-1.5c.1.3.2.5.2.8zM12.5 49.1c0 .1-.1.1 0 0-.1.2 0 .3 0 .4l.4.3.4.4.2.2c.3.2.5.4.8.5-.6-.6-1.2-1.1-1.8-1.8zM.2 34c-.1-.1-.1 0-.2 0v.6l-.1.6.3.5c.2-.4.2-.7.1-1.1.1-.2 0-.4-.1-.6zM27.1 58.8c-.1-.1-.3-.2-.4-.2-.3-.1-.6-.2-.8-.3l.6.4.2.1.1.1s.1 0 .3-.1zM59.6 32.7c0 .6 0 1.2-.1 1.9v.8l.3.1h.1c.1-1 .2-2 .2-3 0-.3 0-.5-.1-.8 0 .2-.1.3-.1.4-.2.2-.2.4-.3.6zM52.2 26.2c.1.3.6.6.9.8.6.3 1.3.5 1.7 1 .3.1.5.3.7.5v-.3c-.2-.1-.4-.3-.7-.4-.8-.6-1.7-1.1-2.6-1.6zM42.9 28l.2.6 1.3 3.6 1 1.6-2.2-5.5c-.1-.2-.2-.3-.3-.3zM40 6.3l.2.1.6.4c.2.2.4.3.6.4l1.2.8c.1-.1.2-.1.2-.2.1 0 .3-.1.5-.2l-1-.5c-.3-.1-.6-.3-1-.4-.5-.2-.9-.4-1.4-.5l.1.1zM12.5 34.5l-1.3 1.7c.4-1.4 1.4-2.8 2.1-4 .1-.3.1-.7.2-.9l-1.1 1.6-.2.4c-.1.1-.2.3-.2.5-.2.3-.3.6-.4.9l-.7 2c-.1.3-.2.5-.2.7v.2l.1.6c0-.1.1-.2.1-.2v-.2c.1-.5.3-.9.4-1.2v.6l.4-.7c.1-.4.3-.8.5-1.2l.3-.8zM13.5 31.1l.7-1.3.6-.9-.6.6-.3.3c-.5.8-1 1.6-1.5 2.5-.2.3-.4.6-.7.9-.3.3-.5.7-.8.9l.6-1c.2-.3.3-.6.5-1 .6-.8 1.2-1.6 1.9-2.3.1-.2.2-.4.4-.5.3-.4.5-.8.8-1.1.1-.2.3-.4.5-.6.1-.2.2-.3.4-.5.1-.3.3-.7.5-.8.7-1.1 1.4-2.2 2-3.2l.5-.8c.2-.3.4-.6.5-.9.3-.5.6-1 .8-1.5l-.6.1c-.2.1-.4.2-.7.4-.1.1-.2.1-.3.1h-.6l-.7.1c-.9.2-1.8.5-2.6.9s-1.6.8-2.4 1.3c-.5 1-.9 2.1-1.3 3.2-.5 1.8-.9 3.7-.9 5.8-.1 1.4 0 2.9.2 4.4.6-1.2 1.3-2.4 1.9-3.5.2-.5 1-1 1.2-1.6zM55.5 29.6l-1-.6-.8-.5c-.3-.1-.5-.3-.7-.5-.5-.3-1-.6-1.4-1-1-.7-2-1.3-3.1-1.9-.6-.3-1.1-.6-1.7-.8l-.8-.4c-.2-.1-.4-.1-.5-.2l-.3-.1-.6-.3-.4-.2c-.2-.1-.4-.1-.5-.2-.7-.3-1.5-.7-2.3-.9-.1 0-.2-.1-.2-.1l.1.3.3 1.3.1.4c0 .1 0 .2.1.3 0 .2.1.4.1.5l.1.3c.4.8.7 1.7 1 2.5.1.2.2.4.2.6.2.3.4.7.5.9.9 2 1.9 4 2.7 6.1l2.3 3.6c.1.2.2.4.3.5 0 .1.1.2.1.2.5.8 1 1.6 1.4 2.4.5 1 1 1.9 1.4 2.9l.4 1c0 .1.1.2.1.2 1-1.2 1.8-2.6 2.4-4.2.4-1.1.6-2.3.6-3.3 0-1.2-.3-2.4-.7-3.5l.3-1.4c.2-1.1.4-2.5.5-3.9zM53.8 25.1c.4.5.7.9.9 1.4l.3.3h.1c.1.1.2.1.4.2l-.1-.2.1.1v-.8l-.2-.1c-.2-.1-.4-.3-.5-.4-.4-.3-.8-.6-1.3-.8l.3.3zM53.2 25.2c-.5-.5-1-.9-1.5-1.3-.1-.1-.2-.2-.3-.2l-1.8-.9c1.8 1.2 3.5 2.4 5.2 3.7-.6-.5-1.1-.9-1.6-1.3zM14.2 32l.4-.7.2-.3.2-.3.9-1.5-.4.2-.6.6c-.3.4-.6.9-.8 1.3-.4.7-.7 1.3-1.2 2-.2.2-.2.8-.4 1.2.2-.2.4-.4.6-.7.4-.6.8-1.2 1.1-1.8zM15.1 51.4l-.6-.9-.3-.4c-.1-.2-.2-.4-.4-.6-.4-.6-.7-1.2-1.1-1.9-.1-.2-.2-.4-.4-.5l-.2.3-.2.2-.2.7.1.1v.1l.5.6.1.1 1.8 1.8 1.2 1-.2-.3c0-.2-.1-.3-.1-.3zm-3-3c0 .1-.1.1-.2.1v-.1c0-.1.1-.1.2-.1v.1zm1.5 1.4s0-.1-.1-.1l-.2-.2v-.1l.2.2s.1.1.1.2zM41.5 24l-.2-.4-.2-.4-.2-.5c-.1-.2-.2-.5-.2-.7v-.2h-.1v.1l.2 1.2c0 .2.1.4.2.5 0 0 0 .1.1.1.1.1.2.3.2.5l.1.2.5 1c.1.3.2.6.4.9-.1-.3-.2-.7-.2-1 0-.1-.1-.2-.1-.4l-.2-.5c-.2-.3-.2-.3-.3-.4zM41.4 26.4c-.2-1-.6-1.8-1-2.6-.1-.3-.3-.6-.4-1l-.4-1.2c0-.1 0-.1-.1-.2-.1 0-.1 0-.2-.1 0 .3 0 .6.1.9.1.4.2.7.4 1.1l.2.5.2.4 1.1 2.4.1.2c-.1-.1 0-.3 0-.4zM25.3 15.5v.1c.7 0 1.6.2 2.2.1l.9-.1c.1-.1.1-.1.2-.3l-3.3.2zM42.1 28.4l.9 1.4.3.4-.5-1.3c-.4-1-.7-2-1.1-3.1-.2-.5-.4-1-.5-1.5v-.1l-.2-.5-.1-.3v.3c.1.9.3 1.7.6 2.6.1.7.3 1.4.6 2.1zM15 29.5l-.8 1.1-.6.9.6-.6.8-.9c1-1.1 1.9-2.1 2.8-3.2.7-1.1 1.4-2.1 1.9-3.3.1-.2.2-.4.3-.7l-.2.3c-.1.1-.2.2-.3.4-1.4 1.9-3 3.9-4.5 6zM15.9 27.4c.1-.1.2-.3.4-.4 1-1.2 1.9-2.5 2.8-3.8.2-.2.3-.5.5-.8l1.2-2v-.6000000000000001h-.2l-.7 1.2c-.2.4-.5.8-.8 1.2-.2.3-.3.5-.5.7-.9 1.3-1.8 2.6-2.8 3.9 0 .4 0 .5.1.6zM27.3 15.8c-.7 0-1.3 0-2 .1.6-.1 1.3-.1 2-.1zM34.9 16.2c-.3-.1-.6-.2-.9-.2-.1 0-.2 0-.3.1.4 0 .8 0 1.2.1zM49.3 47.5c0 .1 0 .3.1.4l.2.4c0-.1 0-.2.1-.2v.4c0 .1 0 .1.1.2l.1-.1c-.1-.5-.3-1-.4-1.4-.2.1-.2.2-.2.3zM28.2 55.6l-.1-.5-.1-1-.1-.7-.2-1.7-.1-.6c-.1.1-.1.3-.1.5v.7c.1.4.2.8.2 1.1 0 .3.1.6.1.8l.1.9v1.7c.2 0 .3 0 .5.1l-.2-1.3zM47.6 44.2l.8 1.7c-.2-.7-.4-1.3-.5-2l-.3-.6c-.3-.5-.6-1-.8-1.4.2.5.4 1 .6 1.6 0 .2.1.4.2.7zM47.8 46.9c.3.5.5 1.1.6 1.6l.3.9c.1 0 .2-.1.2-.1-.3-1.1-.8-2.3-1.2-3.4-.2.3.1.8.1 1zM49.2 46.7l.1.7v-.5c-.1 0-.1-.1-.1-.2zM10.7 18.9l1.2-.6.5-.2c1.2-.5 2.4-.9 3.7-1.2.2-.6.2-.7.8-.8 0 0 .1 0 .1-.1.5-.5 1.1-.9 1.5-1.4.1-.2.1-.4.3-.6l.5-.1.8-.6c.2-.1.3-.2.5-.4.1-.1.2-.1.2-.2s-.1-.2-.1-.2c-.2-.4-.5-.7-.8-1-.3-.3-.6-.5-.8-.7-.3-.2-.7-.4-1-.5-.1.3-.4.4-.6.5-.3.2-.6.2-1 .1l-1 .9c-.6.6-1.2 1.2-1.7 1.8-1.6 1.8-3 3.8-4.1 6l1.1-.7c-.2.1-.2.1-.1 0zm6.5-5.2c-.2 0-.2-.1-.3-.3-.1-.1-.1-.3 0-.4.1 0 .2 0 .3.1.1.1.2.2.2.4 0 .1-.1.2-.2.2zm-.7-2.2c.1 0 .2.1.2.2s-.1.2-.2.2-.2-.1-.2-.3c0 0 .1 0 .2-.1zm-.4 1.9v.3c-.3.3-.8.1-.8-.2 0-.1.1-.3.2-.3.2-.1.4 0 .6.2zM47.4 49l-.1-.4c-.5-1.5-.8-3-1.4-4.6l-.3-.8c-.4-1.1-.9-2-1.4-3-.2-.6-.4-1.2-.7-1.8l-.5-1.1c-.6-1.3-1.2-2.5-1.9-3.8 0-.1 0-.1-.1-.2l-.4-.6c-.1-.1-.2-.1-.3 0l-.1-.2-.4-1.1-.3-.4v-.1l-.3-.5-1.2-2.1c-.3-.6-.6-1.1-.8-1.7-.6-1.5-1.1-3-1.4-4.6l-.1-.9v-.4c-.4-.1-.8-.2-1.1-.3-.8-.2-1.7-.4-2.5-.5-.1 1.3-.3 2.6-.2 3.9l-.3 2.4v.4c0 .9 0 1.8-.1 2.8l.3-1.5c0-.4 0-.8.1-1.2 0-.7.1-1.5.1-2.3.1-.8.2-1.8.5-2.6-.1.8-.1 1.7-.1 2.6-.1.8-.2 1.5-.4 2.3l-.3 1.2-.3 3.4-.1.7c.1.4 0 .9 0 1.1l-.3 3.2-.1 1.2c0 1.9 0 3.8.1 5.8l.1 2.4c.1 2.6.3 5.2.5 7.9v1.7000000000000002l.1 1.1c0 .3 0 .5.1.8 1.7 0 3.4-.1 5-.4l.2.2v.3s0 .1.1.1c.9-.2 1.7-.4 2.6-.7 1.3-.4 2.6-1 3.9-1.6l.3-.3c.1-.2.2-.3.3-.4l.2-.2.1-.1c.1-.1.1-.1.1-.2-.1 0-.3 0-.4.1-.3.2-.6.3-1 .1-.2.1-.3.1-.4.2l.2-.1c1.6-1.2 3.2-2.6 4.6-4 0 0 .1 0 .1-.1l-.3-1.1zM33.9 4.9zM47.3 22.2c-.4-.2-.8-.5-1.3-.7-.1 0-.2-.1-.4-.1l-1.1-.3c.8.5 1.5.9 2.2 1.4l.9.6c.2.1.3.2.5.4l2.7 1.5 1 .5c.3.2.6.3 1 .5l-4.5-3c-.3-.4-.7-.6-1-.8zM32.4 15.7h.2l.6.1.8.2c.4 0 1 .1 1.3.2.3 0 .5.1.8.2.2 0 .3-.1.4-.4.6-1.7 1.4-3.3 2.5-4.7l.1-.2.9-1.1.2-.2.1-.1.1-.1h-1.2l-.5-.3-.4-.3-.8-.5-.3-.2c-.2-.1-.4-.2-.5-.3-.5-.3-1-.6-1.6-.7-.2-.1-.5-.1-.7 0l-.5.2-.6-.1-.1.4c.4.1.6.2.8.3.3.2.7.3 1.1.4.1 0 .3 0 .4.1.5.1.9.3 1.3.6l.2.1.7.5-.5.1-.6-.4c-.1-.1-.3-.1-.4 0v.1l.5.5-.5.1h-.1l-.2-.1c-.5-.3-1-.7-1.6-1 0-.1-.1-.1-.1-.1-.1 0-.2-.1-.2-.1-.1 0-.1 0-.1-.1h-.2l-.5.1v.1l-.1.5v.3c0 .1 0 .3-.1.4l-.5 3.8c0-.1 0-.1.1-.2l-.2 1.1v.8zM31.5 26.1l-.2.7-.1.5-.1 2.1.3-2.5c.1-.3.1-.6.1-.8zM31.8 23.8v-2.5c-.2 1.3-.3 2.7-.4 4.1.1.3.2.6.2.7.1-.7.2-1.5.2-2.3zM17 16.7l3.4-.7c.5-.1.7-.4.8-.9 0-.5 0-1-.2-1.5l-.9.6c-1.1.7-2.2 1.6-3.1 2.5zM9.8 39.9c0-.2 0-.3-.1-.5l-.3.5v.2s-.1 0-.1.1l-.1.4.2.3c.1-.2.2-.3.2-.5 0 0 0-.1.1-.1-.1-.1 0-.2.1-.4zM9.8 40v.1-.1zM50.6 13.7c.1.1.2.2.4.2 0-.1-.1-.3-.2-.4l-1.5-1.2c-.1-.1-.2-.1-.2-.1-.1 0-.1.1-.1.1.5.5 1 .9 1.6 1.4zM20.9 7.9l1 .5c.2.1.4.2.6.4h.2c0 .1.1.2.2.2l.5.4c.2.2.5.5.7.8.2-.1.4-.2.6-.4h.3c-.1.1-.1.2-.2.2-.2.2-.4.3-.5.5.3.5.5 1 .7 1.5l.2.6c.1.3.1.6.2 1v1.5c1.1 0 2.2 0 3.3.2 0-.1.1-.3.1-.5s0-.4.1-.6l.2-1.4c0-.2 0-.4.1-.5 0-.1 0-.3.1-.4v-1.4000000000000001c0-.5 0-.9.1-1.3v-.3h-.2l-.6-.2.3-.1.5-.3v-.4c0-.3.2-1 .5-1.8l.3-.9c-2.1.2-4 .7-5.9 1.4-1.4.3-2.4.7-3.4 1.3zm4.7 1.5c0 .1-.1.1-.2.1 0 .1-.1.1-.1.1l-.1.1c0-.1.1-.1.1-.1 0-.1.1-.1.1-.1 0-.1.1-.1.2-.1zm-3.9-1.4c0-.1 0-.1.1-.2-.1.1-.1.1-.1.2zM40.6 22.4c-.1-.2-.1-.3-.1-.5 0-.1-.1-.2-.1-.4l-.5-.1c.1.3.2.6.3 1 0 .1.1.2.1.2l.4.6.2.2c0-.1-.1-.2-.1-.4l-.2-.6zM41.2 13.5c-.6.7-1.1 1.4-1.3 2.3v-.1l.2-.3c.1-.1.2-.1.2-.2v-.2s.1 0 .1-.1c.1-.1.1-.3.3-.4l.4-.3-.3.3c-.1.1-.2.3-.2.3-.2.6-.3 1.2-.4 1.7l1.4.4c.4.1.8.2 1.2.2l1.9.4c1.5.4 3 .8 4.5 1.3l.3.1 1.6.6 1.6.7c.1.1.2.1.4.2l1.5.9s.1 0 .1.1l-.3-1.1c-.5-1.4-1.1-2.8-1.9-4-.1-.2-.3-.4-.5-.7-1.6-2.2-3.8-4-6.3-5-1.5.4-2.9 1.2-4.2 2.4-.1.3-.2.4-.3.5zM9.3 39.3l-.2-.5c-.2-.4-.2-.7-.2-1.1v-.4c0-.1 0-.1.1-.1 0 .2 0 .5.3.7v-.3l-.2-.8v-.2c0-.1 0-.3-.1-.4 0-.4 0-.8-.1-1.2l-.3-1.1v-.2l-.3-1.2c-.1-.4-.2-.8-.3-1.3l-.3-1.2c0-.1 0-.2-.1-.2-.1-.4-.2-.8-.3-1.1l-.3-1.3v-.1c0-.1-.1-.1-.2-.1-.3 1.4-.5 2.8-.6 4.3-.1 1.8 0 3.6.2 5.4.3-.1.7 0 .8.3.1.1.1.3.1.3 0 .4-.1.6-.3.8l-.3.2c.1.4.2.8.3 1.1.1-.2.3-.3.5-.3l.4.2.3.1.1.1c.1.2.2.4.4.6.1.1.1.3 0 .4-.1.1-.3.2-.4.1-.1-.1-.3-.3-.4-.5l-.3-.1c-.1 0-.2-.1-.3-.2.3.9.6 1.8 1 2.6.1.2.2.4.3.5l.1.3.1-.4v-.2c.1-.4.2-.8.4-1.2v-1c-.2.4-.3.6-.4.7l.3-.7.1-.1c0-.2 0-.4.1-.7v-.5zm-1.6-4.9v.2c-.1-.1-.1-.1 0-.2zm-.6-1.6zm.4 1zm-.4-4l.1.1c0 .1 0 .1-.1.1v-.2zm1.2 12.2c0-.1.1-.1.1-.1.1 0 .1.1.1.1 0 .1-.1.1-.1.1-.1 0-.1 0-.1-.1zm.8-1.5c-.1-.1-.1-.2-.1-.2-.1-.4-.1-.7-.3-1.1-.1-.3-.1-.5-.1-.8v-.2c-.2-.1-.1-.3-.2-.5-.1-.1-.1-.2-.1-.3v-.6c-.1-.1-.1-.2-.2-.4v-.3l-.1-.1s0-.1-.1-.2v-.4c-.1-.1-.2-.2-.1-.4.1.1.1.3.1.4.1.1.1.2.1.4v.3c.2.2.2.4.2.7.1.1.1.2.1.3v.6c.2.1.1.3.2.5l.1.1.2.7c.1.3.2.7.2 1 .1.2.1.3.1.5zM59.5 30.6c-.1-.2-.2-.3-.2-.5-.1-.3-.3-.5-.5-.7l-1-1.3c-.3-.3-.5-.6-.8-.8l.1.8.5.4.4.4c.1.2-.1 0-.4-.2-.1-.1-.2-.1-.4-.2v.1l.2.2s-.1 0-.1.1v.1l.2.3s-.1 0-.1-.1l.1.4.1.4c.3.3.6.5.8.8l.4.3c.1.1.2.3.4.4.1.1.2.2.2.3.1.2-.1.2-.3.1-.2-.1-.5-.2-.7-.4l-.1-.1-.4-.3.1.6.1.6.1.3.1.2.3-.1.2.7.3 1.3c0 .2.1.3.2.5 0 .1.1.1.1.1v-.7999999999999999c.1-.6.1-1.2.1-1.9.1-.7.1-1.3 0-2zm-1.6-.5zM26.9 34.8c.3-2.7.8-5.2.7-7.8v-.1c0-.4.1-.8.2-1.3l.3-4.4v-.6c0-.3 0-.6.1-.9l-1.4-.1c-.6-.1-1.2-.1-1.7-.1-.1 0-.3 0-.4.1v.2c-.2 1.2-.6 2.3-1 3.4l-.3.7c0 .1 0 .1-.1.2l-1 2.1c-1 1.8-2.1 3.5-3.2 5.2l-3.3 5-.2.3c-.8 1.3-1.6 2.7-2.3 4.1v.1l-.3.7-.7 1.7c.5 1.2 1.1 2.3 1.8 3.3.3.4.6.9 1 1.3 1.4 1.8 3.1 3.6 5 5.1.1.1.1.2.2.2l.6.9s0 .1.1.1c.2.4.5.7.9 1 .1.1.2.2.3.2 0 0 .1 0 .1.1.2.1.4.3.7.5l1.4.5.9.3h.1l-.1-.1-.2-.2-.1-.1c-.1-.1-.2-.3-.4-.4-.1-.1-.2-.2-.3-.4 0 0 0-.1-.1-.1 1 .5 2 .8 3.1 1-.3-.2-.3-.5-.4-.8l-.1-.8c0-.1 0-.2-.1-.3v-.2c-.1-.4-.1-.9-.1-1.3 0-.5 0-1-.1-1.6v-.5l.1-3.6v-3.6c.1-.9.2-1.8.2-2.8.1-1.3.2-2.7.2-4.1v-1c.1-.3.3-1.2-.1-1.1zM9.8 23.2c.1 0 .2-.1.2-.1.2-.1.4-.3.5-.5l-.2.1-1.5.9c.4-.1.7-.2 1-.4zM10.3 24.4l-.1-.1-.3.2-.3.3-.3.3s0 .1-.1.1v1c0 .2.1.4.2.6l.2-.2.2-.7.4-1.3c.1 0 .1-.1.1-.2zM12.1 46.6c.1-.1.1-.2.1-.2l-.2-.5c0 .1 0 .3-.1.4.2 0 .2.2.2.3zM31.3 31.6l-.1.7-.1.7v2.2-.2-.2c.1-.9.2-1.8.4-2.8l-.2-.4z"/></g></svg>