<?xml version="1.0" encoding="utf-8"?>
<!-- Generator: Adobe Illustrator 18.1.1, SVG Export Plug-In . SVG Version: 6.00 Build 0)  -->
<svg version="1.1" id="Layer_1" xmlns="http://www.w3.org/2000/svg" xmlns:xlink="http://www.w3.org/1999/xlink" x="0px" y="0px"
	 viewBox="0 0 39.7 39.1" enable-background="new 0 0 39.7 39.1" xml:space="preserve">
<path d="M15.6,38.5c-0.1-0.2-0.2-0.3-0.4-0.3c-0.4,0-0.9,0-1.3,0.1c-0.3,0-0.6,0-0.8-0.1c-0.2-0.1-0.3-0.1-0.5-0.1
	c-0.4,0-0.8,0-1.2-0.1c-0.1,0-0.2,0-0.3,0c-0.2,0-0.5,0-0.7-0.1c-0.1,0-0.1,0-0.2,0c-0.3,0.1-0.5,0-0.8-0.1c-0.3-0.1-0.5-0.1-0.8,0
	c-0.2,0.1-0.5,0.1-0.7,0c-0.1,0-0.1,0-0.2,0c-0.2,0.1-0.5,0.1-0.7,0c-0.5-0.1-0.9-0.2-1.4-0.5c-0.1,0-0.2-0.1-0.2,0
	c-0.2,0-0.4,0-0.6-0.2c-0.1-0.1-0.2-0.1-0.3-0.1c-0.3-0.1-0.6-0.2-0.8-0.4c-0.1,0-0.1-0.1-0.2-0.1c-0.4-0.1-0.7-0.5-1.1-0.7
	c-0.3-0.2-0.5-0.5-0.7-0.8c-0.2-0.4-0.4-0.7-0.6-1.1C1,33.8,1,33.5,0.9,33.2c0-0.3-0.1-0.7-0.2-1c-0.1-0.2,0-0.4-0.1-0.6
	c-0.1-0.5,0-1,0-1.5c0-0.4,0-0.8-0.1-1.2c0-0.1,0-0.2-0.1-0.2c-0.1-0.1-0.1-0.2,0-0.3c0.1-0.2,0.1-0.3,0-0.5c0-0.1,0-0.1,0-0.2
	c0-0.1,0.1-0.2,0.1-0.3c0-0.4-0.1-0.8-0.1-1.2c0-0.1,0-0.2,0-0.3c0.1-0.1,0.1-0.3,0.1-0.4c0-0.4,0-0.9,0.1-1.3c0-0.1,0-0.3,0-0.4
	c-0.1-0.6,0-1.2,0-1.8c0-0.2,0-0.4,0-0.5c0-0.6,0-1.2,0-1.8c0-0.8,0-1.6,0-2.4c0-0.1,0-0.2,0-0.4c0-0.5-0.1-1,0-1.4
	c0-0.2-0.1-0.4-0.2-0.6c0.2-0.6,0.2-1.2,0.1-1.9c0-0.2,0-0.4,0-0.6c0.1-0.2,0.1-0.3,0.1-0.5c0-0.3,0.1-0.6,0.1-0.8
	c0.1-0.3,0-0.7-0.1-1c0-0.1-0.1-0.1-0.2-0.1C0.4,9.8,0.3,9.9,0.2,9.9c0,0-0.1,0-0.2,0C0,9.9,0,9.7,0,9.7c0,0,0.1-0.1,0.1-0.1
	c0.1-0.1,0.3-0.2,0.4-0.3C0.7,9.2,0.7,9.1,0.7,9c0-0.2,0.1-0.4,0.1-0.6c0-0.2,0.1-0.4,0.1-0.5C1,7.7,1,7.4,0.9,7.2
	C1,7,1.1,6.8,1.2,6.5c0.1-0.2,0.1-0.5,0.2-0.7c0-0.1,0-0.2,0.1-0.3c0-0.1,0-0.2,0.1-0.3C1.8,5,1.9,4.7,2,4.3c0.2-0.5,0.5-1,0.9-1.3
	c0.3-0.3,0.6-0.7,0.9-1c0.4-0.5,0.9-0.9,1.5-1.1c0.6-0.2,1.2-0.3,1.7-0.4c0.4-0.1,0.8-0.1,1.2-0.2C9,0.3,9.8,0.2,10.6,0.2
	c0.4,0,0.8,0,1.2-0.1c0,0,0.1,0,0.1,0c0.4-0.1,0.4-0.1,0.9,0c0.2,0,0.5,0,0.7,0c0.7,0,1.4,0,2.1,0c0.1,0,0.2,0,0.3,0
	c0.2,0,0.5,0,0.7,0c0.2,0,0.5,0,0.7,0c0.3,0,0.6,0,0.9-0.2c0.3,0.2,0.6,0.2,0.9,0.2c0.7,0,1.3,0,2,0.1c0.1,0,0.2,0,0.4,0
	c0.3,0,0.6-0.1,0.9,0.1c0.4,0,0.8,0,1.2,0c0.1,0,0.2,0,0.2-0.1C24,0.1,24.3,0,24.6,0.1c0.7,0.1,1.5,0.1,2.2,0.2c0.2,0,0.4,0,0.7,0
	c0.1,0,0.3,0,0.4,0c0.3,0.1,0.6,0,0.9,0c0.2,0,0.4-0.1,0.7-0.1c0.3,0,0.7,0,1-0.1c0.4,0,0.8,0,1.2,0.1c0.2,0.1,0.4,0.1,0.6,0.1
	c0.1,0,0.3,0.1,0.4,0.1c0.2,0.1,0.4,0.1,0.6,0.1c0.5,0,0.9,0.2,1.3,0.4c0.6,0.3,1.1,0.6,1.6,1c0.3,0.2,0.5,0.5,0.8,0.7
	c0.2,0.2,0.4,0.4,0.5,0.6c0.3,0.3,0.5,0.7,0.7,1c0.2,0.5,0.5,1.1,0.7,1.6C39,6.1,39,6.2,39,6.3c0,0.2,0,0.4,0.1,0.6
	c0.1,0.2,0.2,0.3,0.2,0.5c0,0.2,0.1,0.3,0,0.5c0,0.2,0,0.4,0,0.5c0.1,0.1,0.2,0.1,0.3,0.2c-0.2,0.5-0.2,0.6-0.2,1.2
	c0,0.8,0,1.7,0,2.5c0,0.1,0,0.1,0,0.2c0.1,0.5,0,1.1,0,1.6c0,0.1,0,0.3,0,0.4c-0.1,0.6-0.2,1.1-0.2,1.7c0,0.2,0,0.4,0,0.7
	c0,0.5,0,1-0.2,1.4c-0.1,0.4-0.2,0.8-0.1,1.2c0.1,0.4,0,0.8,0,1.2c0,0.2,0,0.4,0.1,0.6c0.1,0.4,0.1,0.9,0.1,1.3
	c0,0.4-0.1,0.7-0.1,1.1c0,0.1,0,0.3,0,0.4c0,0.1,0,0.2,0,0.2c-0.2,0.7-0.2,1.4-0.3,2.1c-0.1,0.3,0,0.6-0.1,1c0,0.7,0,1.4-0.1,2
	c0,0.4-0.1,0.8-0.2,1.1c0,0.1-0.1,0.2-0.1,0.3c0,0.5-0.1,0.9-0.1,1.4c0,0,0,0.1,0,0.1c-0.2,0.3-0.1,0.7-0.2,1c0,0.1,0,0.2,0,0.4
	c0,0.1,0,0.2,0.1,0.4c-0.2,0.2-0.4,0.4-0.3,0.7c-0.1,0.1-0.1,0.1-0.2,0.2c-0.3,0.2-0.5,0.5-0.7,0.8c-0.1,0.1-0.1,0.2-0.2,0.3
	c-0.2,0.3-0.4,0.5-0.7,0.7c-0.1,0.1-0.3,0.2-0.3,0.3c-0.1,0.1-0.2,0.2-0.3,0.3c-0.1,0-0.2,0.1-0.3,0.1c-0.2,0.2-0.5,0.3-0.8,0.4
	c-0.3,0.1-0.4,0.3-0.6,0.5c-0.2,0-0.3,0.1-0.5,0.1c-0.1,0-0.2,0-0.2,0.1c-0.2,0.2-0.4,0.2-0.7,0.2c-0.2,0-0.3,0.1-0.5,0.1
	c-0.5,0-0.9,0.1-1.4,0.1c-0.1,0-0.3,0-0.4,0c-0.3,0-0.6-0.1-0.9-0.1c-0.2,0-0.4,0-0.7,0c-0.1,0-0.3,0-0.4,0c-0.2,0-0.4-0.1-0.6-0.1
	c-0.2-0.1-0.5-0.1-0.7,0c-0.3,0.1-0.7,0.1-1,0c-0.3-0.1-0.6-0.2-0.9-0.2c-0.1,0-0.2,0-0.2,0c-0.3,0.1-0.6,0-0.8-0.1
	c-0.4,0.1-0.7,0.1-1.1,0.1c-0.3,0-0.6,0-1,0c-0.3,0-0.6,0-0.9,0c-0.2,0-0.5,0-0.7,0.1c-0.2,0-0.4,0-0.6,0c-0.1,0-0.2,0-0.4,0
	c-0.7,0.1-1.4,0-2.1,0c-0.4,0-0.8,0.1-1.2,0.1C15.7,38.5,15.7,38.5,15.6,38.5L15.6,38.5z M14.4,28.4L14.4,28.4L14.4,28.4L14.4,28.4z
	 M14,25.7L14,25.7c0,0.1-0.1,0.1-0.1,0.2c-0.1,0-0.2,0-0.2,0c-0.2,0.2-0.5,0.4-0.7,0.7c0,0,0,0.1,0.1,0.1c0.3-0.2,0.5-0.5,0.8-0.7
	c0,0,0-0.1,0.1-0.2C13.9,25.8,13.9,25.7,14,25.7z M25.3,3.5c0,0,0.1-0.1,0.1-0.1c0,0,0,0,0,0c0,0,0,0,0,0c0,0,0,0-0.1,0
	C25.4,3.4,25.3,3.5,25.3,3.5c0,0.1,0,0.1-0.1,0.1l0,0C25.2,3.6,25.2,3.6,25.3,3.5z M36.4,35.4L36.4,35.4L36.4,35.4L36.4,35.4z
	 M9.7,10.2L9.7,10.2L9.7,10.2L9.7,10.2z M27.8,23.6c0,0.1-0.1,0.1-0.1,0.2c-0.3,0.1-0.3,0.1-0.4,0.4c0.2-0.1,0.3-0.3,0.4-0.4
	C27.7,23.7,27.7,23.7,27.8,23.6L27.8,23.6z M34.4,35.7L34.4,35.7L34.4,35.7L34.4,35.7L34.4,35.7z M21.6,3.3L21.6,3.3
	c0-0.1,0.1-0.1,0.1-0.1c0.1,0,0.2,0,0.3-0.1c0.3-0.2,0.6-0.4,0.8-0.6C23.4,2,24,1.6,24.7,1.2c0.1,0,0.2-0.1,0.2-0.2
	C25,1,25,0.9,24.9,0.8c-0.2-0.1-0.4,0-0.5,0.1c-0.6,0.5-1.2,0.9-1.8,1.4c-0.2,0.1-0.4,0.3-0.5,0.5C22,2.9,22,3,22,3.1
	c-0.1,0-0.2,0-0.3,0.1C21.6,3.2,21.6,3.3,21.6,3.3z M35.7,36c0,0-0.1,0.1-0.1,0.1c-0.1,0-0.1,0.1-0.2,0.1c0,0.1-0.1,0.1-0.1,0.2
	c-0.1,0-0.3,0.1-0.4,0.2c0,0,0,0,0,0c0,0,0,0,0,0c0.1,0,0.2-0.1,0.4-0.2c0-0.1,0.1-0.1,0.1-0.2c0.1,0,0.1-0.1,0.2-0.1
	C35.6,36.1,35.6,36.1,35.7,36c0.1,0,0.1-0.1,0.1-0.1c0.1,0,0.1,0,0.2,0c0,0,0,0,0,0c0,0,0-0.1-0.1,0c0,0-0.1,0.1-0.1,0.1
	C35.8,35.9,35.7,36,35.7,36z M16.5,8.2L16.5,8.2L16.5,8.2L16.5,8.2L16.5,8.2z M23.6,11.2L23.6,11.2L23.6,11.2c0.1,0,0.1,0,0.2,0
	c0,0,0.1,0.1,0.1,0.1c0,0,0.1,0,0.1,0c0,0,0-0.1,0-0.1c0,0-0.1-0.1-0.1-0.1c-0.1,0-0.1,0-0.2,0C23.7,11.2,23.6,11.2,23.6,11.2z
	 M24.4,36.4L24.4,36.4L24.4,36.4L24.4,36.4z M30.2,15.2L30.2,15.2L30.2,15.2L30.2,15.2z M30.7,14.9L30.7,14.9L30.7,14.9L30.7,14.9
	L30.7,14.9z M1.9,31.4L1.9,31.4L1.9,31.4L1.9,31.4z M1.6,30.4L1.6,30.4L1.6,30.4c0,0.1,0,0.1-0.1,0.2l0,0
	C1.6,30.5,1.6,30.5,1.6,30.4z M1.4,31.8L1.4,31.8L1.4,31.8L1.4,31.8z M5.9,5L5.9,5C5.9,5,6,4.9,6,4.9c0.1,0,0.1,0,0.2-0.1
	c0,0,0-0.1,0-0.1c0,0,0,0-0.1,0C6.1,4.8,6.1,4.8,6,4.9C6,4.9,5.9,5,5.9,5z M7.5,3.9L7.5,3.9L7.5,3.9L7.5,3.9L7.5,3.9z M37.6,21.3
	L37.6,21.3L37.6,21.3c0,0.1,0,0.1-0.1,0.2l0,0C37.6,21.4,37.6,21.4,37.6,21.3z M7,9.2c0-0.1,0.1-0.1,0.1-0.2c0,0,0.1,0,0.1,0
	C7.6,9,7.9,8.8,8.2,8.5c0,0,0-0.1,0-0.1c0,0-0.1,0-0.1,0c-0.4,0.1-0.7,0.4-1,0.7C7.1,9.1,7,9.2,7,9.2c0,0.1-0.1,0.1-0.1,0.1
	c0,0-0.1,0-0.1,0c-0.2,0-0.3,0.1-0.3,0.4c0,0-0.1,0-0.1,0c0,0,0,0,0.1,0c0.2,0,0.3-0.2,0.4-0.4C6.9,9.3,6.9,9.3,7,9.2z M29.2,35.5
	L29.2,35.5L29.2,35.5L29.2,35.5z M37.9,17.7c0-0.1,0.1-0.1,0.1-0.2c0,0,0,0,0,0c0,0,0,0,0,0C38,17.7,37.9,17.7,37.9,17.7L37.9,17.7z
	 M8.1,3.4L8.1,3.4L8.1,3.4L8.1,3.4z M33.1,35.6c0,0-0.1,0.1-0.1,0.1c-0.1,0-0.2,0-0.3,0.1c-0.1,0.1-0.2,0.2-0.3,0.3
	c-0.3,0.2-0.5,0.4-0.8,0.6c-0.1,0.1-0.3,0.2-0.4,0.3c-0.4,0.3-0.8,0.5-1.2,0.9C29.8,38,29.7,38,29.7,38c-0.1,0.1-0.2,0.1-0.3,0.2
	c0,0,0,0.1,0,0.1c0,0,0.1,0.1,0.1,0.1c0.2-0.1,0.5-0.2,0.7-0.4c0.1-0.1,0.3-0.2,0.4-0.3c0.3-0.3,0.6-0.5,0.9-0.7
	c0.1-0.1,0.2-0.2,0.3-0.3c0.2-0.2,0.4-0.4,0.7-0.6c0.2-0.1,0.4-0.2,0.4-0.5C33,35.7,33,35.6,33.1,35.6c0.1,0,0.2,0,0.3-0.1
	c0.1-0.1,0.2-0.3,0.3-0.4c0.2,0,0.3-0.1,0.4-0.2c0,0,0-0.1,0-0.1c0,0-0.1,0-0.1,0c-0.1,0.1-0.2,0.2-0.2,0.4c-0.2,0-0.3,0.2-0.3,0.4
	C33.3,35.5,33.1,35.5,33.1,35.6z M17.7,3.7c0-0.1,0.1-0.1,0.1-0.2c0.1,0,0.2-0.1,0.3-0.1c0.1,0,0.3-0.1,0.3-0.2c0,0,0,0,0-0.1
	c0,0-0.1,0-0.1,0c-0.1,0.1-0.2,0.1-0.2,0.3c-0.1,0-0.2,0.1-0.3,0.1C17.8,3.6,17.8,3.6,17.7,3.7c-0.1,0-0.2,0.1-0.2,0.1
	c-0.2,0-0.3,0.1-0.4,0.2c-0.1,0.1-0.2,0.2-0.4,0.2c-0.3,0.1-0.6,0.3-0.8,0.6c-0.2,0.2-0.4,0.3-0.6,0.4c-0.3,0.2-0.7,0.4-1,0.7
	c-0.2,0.1-0.4,0.3-0.7,0.3c-0.2,0.1-0.4,0.2-0.6,0.4c-0.2,0.1-0.3,0.3-0.5,0.4c-0.2,0.1-0.3,0.2-0.5,0.3c-0.1,0-0.1,0.1-0.1,0.1
	C11.2,7.6,10.6,8,9.9,8.3c-0.1,0-0.2,0.1-0.3,0.2C9.1,8.8,8.7,9.1,8.1,9.2C8.1,9.3,8,9.3,7.9,9.4C7.8,9.4,7.7,9.5,7.6,9.6
	C7.4,9.6,7.2,9.8,7,9.9C6.9,10,6.7,10,6.6,10.1c-0.4,0.1-0.6,0.4-1,0.5c-0.1,0-0.1,0.1-0.1,0.1c-0.2,0.2-0.4,0.3-0.6,0.5
	c0,0,0,0.1,0,0.1c0,0,0.1,0.1,0.1,0.1c0.2-0.1,0.4-0.2,0.6-0.2l0,0c-0.1,0.1-0.1,0.2-0.2,0.3c0,0,0,0.1,0,0.1
	c0.2-0.1,0.5-0.1,0.6-0.3c0.2-0.2,0.4-0.4,0.6-0.5c0.5-0.3,1-0.6,1.5-1c0.2-0.1,0.3-0.2,0.5-0.3C8.9,9.4,9,9.3,9.1,9.2
	C9.4,9,9.6,8.8,9.9,8.7c0.3-0.1,0.5-0.2,0.7-0.5c0.1-0.1,0.2-0.1,0.3-0.2c0.3-0.2,0.6-0.3,0.8-0.5C12,7.4,12.3,7.2,12.6,7
	c0.2-0.1,0.3-0.2,0.5-0.2c0.2,0,0.3-0.1,0.4-0.3c0.1-0.1,0.2-0.1,0.3-0.1C14,6.3,14.1,6.2,14.2,6c0-0.1,0.1-0.1,0.1-0.2
	c0.1,0,0.1,0,0.2,0c0.5-0.2,1-0.4,1.4-0.8c0.2-0.2,0.4-0.3,0.7-0.4c0.4-0.2,0.8-0.4,1-0.9C17.5,3.8,17.6,3.7,17.7,3.7z M34.2,12
	L34.2,12L34.2,12L34.2,12L34.2,12z M1.6,20.3c0,0,0.1-0.1,0.1-0.1c0,0,0.1,0,0.1,0c0.2-0.1,0.4-0.2,0.5-0.4c0,0,0-0.1,0-0.1
	c0,0-0.1,0-0.1,0c-0.2,0.1-0.5,0.3-0.5,0.6C1.7,20.2,1.7,20.2,1.6,20.3C1.6,20.3,1.6,20.3,1.6,20.3C1.6,20.3,1.5,20.3,1.6,20.3
	C1.6,20.3,1.6,20.3,1.6,20.3z M28.1,18.8L28.1,18.8L28.1,18.8C28.2,18.8,28.2,18.7,28.1,18.8C28.2,18.7,28.2,18.8,28.1,18.8z
	 M5.6,7.2L5.6,7.2L5.6,7.2C5.7,7.2,5.6,7.1,5.6,7.2z M30.6,36.2L30.6,36.2C30.6,36.2,30.6,36.2,30.6,36.2
	C30.6,36.2,30.6,36.3,30.6,36.2C30.6,36.2,30.6,36.2,30.6,36.2z M12.5,10.8L12.5,10.8C12.5,10.8,12.5,10.8,12.5,10.8
	C12.4,10.8,12.4,10.8,12.5,10.8C12.4,10.8,12.5,10.8,12.5,10.8z M24.9,11.3L24.9,11.3L24.9,11.3C24.9,11.3,25,11.3,24.9,11.3
	C25,11.3,25,11.3,24.9,11.3C25,11.3,25,11.3,24.9,11.3z M12.4,0.9L12.4,0.9C12.4,1,12.3,1,12.2,1c-0.6,0.2-1,0.6-1.5,1
	c0,0,0,0,0,0.1c0,0,0.1,0.1,0.1,0c0.4-0.3,0.8-0.5,1.2-0.8c0.1-0.1,0.1-0.2,0.2-0.2C12.3,1,12.4,1,12.4,0.9z M3.9,7.2L3.9,7.2
	L3.9,7.2c-0.1,0-0.2,0-0.3,0.1c0,0.1-0.1,0.1-0.1,0.2c-0.1,0-0.1,0-0.2,0.1C3,7.7,2.7,7.9,2.5,8.2C2.4,8.2,2.4,8.3,2.3,8.4
	c0,0-0.1,0-0.1,0c0,0,0,0,0,0c0,0,0,0,0,0c0,0,0.1,0,0.1-0.1c0.5-0.2,0.8-0.5,1.1-0.9c0,0,0,0,0-0.1c0-0.1,0.1-0.1,0.1-0.2
	C3.7,7.3,3.8,7.2,3.9,7.2z M12.6,7.5L12.6,7.5L12.6,7.5C12.6,7.5,12.6,7.5,12.6,7.5C12.7,7.5,12.7,7.5,12.6,7.5
	C12.7,7.5,12.6,7.5,12.6,7.5z M25.6,35.7C25.6,35.7,25.6,35.7,25.6,35.7C25.6,35.7,25.6,35.6,25.6,35.7
	C25.6,35.7,25.6,35.7,25.6,35.7L25.6,35.7L25.6,35.7z M29.2,15.1c0,0,0.1-0.1,0.1-0.1c0.1,0,0.1,0,0.2,0c0.2-0.2,0.5-0.4,0.7-0.6
	c0.1-0.1,0.3-0.3,0.4-0.4c0.1-0.1,0.3-0.2,0.4-0.4c0.5-0.5,0.9-0.9,1.5-1.3c0,0,0.1-0.1,0.1-0.1c0,0,0-0.1,0-0.1
	c0,0-0.1-0.1-0.1-0.1c-0.1,0-0.2,0-0.2,0.1c-0.4,0.4-0.8,0.7-1.2,1.1c-0.3,0.3-0.6,0.6-0.9,0.9c-0.2,0.2-0.5,0.4-0.7,0.7
	c0,0.1-0.1,0.1-0.1,0.2C29.4,15,29.3,15.1,29.2,15.1c-0.1,0.1-0.2,0.1-0.2,0.3c-0.1,0-0.2,0-0.3,0.1c-0.1,0.1-0.2,0.3-0.4,0.4
	c-0.2,0.2-0.5,0.3-0.7,0.4c0,0.1-0.1,0.1-0.1,0.1c-0.1,0.2-0.2,0.4-0.5,0.4c-0.1,0-0.1,0-0.2,0c-0.1,0-0.1-0.1-0.2-0.1
	c0.1-0.2,0.3-0.3,0.5-0.5c0.1-0.1,0.2-0.1,0.3-0.2c0.2-0.3,0.5-0.5,0.7-0.7c0.1-0.1,0.1-0.1,0.2-0.2c0.2-0.2,0.3-0.4,0.5-0.6
	c0.2-0.2,0.4-0.5,0.7-0.6c0.2-0.1,0.4-0.3,0.6-0.5c0.2-0.2,0.4-0.4,0.6-0.6c0.2-0.1,0.4-0.3,0.5-0.5c0.1-0.1,0.1-0.1,0.1-0.2
	c0,0,0-0.1-0.1-0.1c-0.1-0.1-0.2,0-0.3,0c-0.2,0.2-0.4,0.4-0.5,0.6c-0.6,0.6-1.1,1.2-1.7,1.7c-0.4,0.4-0.9,0.7-1.3,1.2
	c0,0-0.1,0.1-0.1,0.1c-0.5,0.4-0.8,0.8-1.3,1.2C26.1,16.9,26,17,26,17.2c0,0,0,0.1,0.1,0.1c0.1,0,0.1,0,0.2-0.1
	c0.2-0.2,0.4-0.4,0.6-0.5c0.1,0,0.1,0.1,0.2,0.1c-0.1,0.4-0.4,0.6-0.6,0.9c0,0-0.1,0.1-0.1,0.1c-0.1,0.1-0.1,0.1-0.2,0.2
	c-0.1,0.5,0,1,0,1.5c0,0,0,0.1,0.1,0.1c0.1-0.1,0.2-0.1,0.4-0.2c0-0.1,0-0.3,0.1-0.4c0-0.1,0.1-0.2,0.3-0.2c0.1,0,0.2,0,0.2,0
	c0.1-0.1,0.2-0.2,0.3-0.2c0,0,0,0,0,0c0,0,0,0,0,0c0,0-0.1,0-0.1,0c-0.1-0.1-0.2-0.1-0.3-0.1c-0.1,0-0.2,0-0.3,0
	c-0.1-0.1-0.2-0.2-0.4-0.3c0.1-0.1,0.3-0.3,0.4-0.4c0.3-0.3,0.5-0.6,0.8-0.9c0.3-0.3,0.6-0.6,1-0.9c0.2-0.2,0.4-0.4,0.5-0.6
	C29.1,15.3,29.2,15.2,29.2,15.1z M27.6,18.2L27.6,18.2L27.6,18.2c0.1,0,0.2-0.1,0.2-0.2c0,0,0.1,0,0.1,0c0.2,0,0.2,0,0.2-0.2
	c0-0.1,0-0.2,0.1-0.3c0-0.1,0.1-0.1,0.1-0.2c0,0,0,0,0,0c0,0-0.1,0-0.1,0c-0.1,0.2-0.3,0.4-0.4,0.6c0,0,0,0.1,0,0.1
	C27.8,18.1,27.7,18.1,27.6,18.2z M32.6,3.7c0,0-0.1,0.1-0.1,0.1c-0.3,0.1-0.5,0.2-0.8,0.4c0,0-0.1,0.1-0.1,0.1c-0.1,0-0.1,0-0.2-0.1
	c0,0-0.1-0.1-0.1-0.1c-0.1,0-0.2,0-0.4,0c-0.1,0.1-0.2,0.3-0.4,0.3c-0.1,0-0.2-0.1-0.4-0.1l0,0c0.1-0.1,0.2-0.1,0.4-0.2
	c0,0,0-0.1,0-0.2c0,0-0.1,0-0.1,0c-0.3,0.2-0.5,0.2-0.8,0.5c0,0-0.1,0.1-0.2,0.1c-0.1,0-0.2,0-0.3-0.1c-0.1-0.1,0-0.3-0.2-0.3
	c-0.2,0.2-0.4,0.4-0.6,0.6c0,0,0,0,0,0.1c0,0,0,0.1,0,0.1c0,0,0,0,0,0c0.1,0,0.3-0.1,0.4-0.1l0,0c0.1,0.2,0.2,0.2,0.4,0.2
	c0.5-0.1,1-0.2,1.5-0.2c0.2,0,0.3-0.1,0.4-0.3c0-0.1,0.2-0.1,0.2,0c0.1,0,0.1,0.1,0.2,0.2c0.1,0.1,0.3,0.1,0.4,0
	C32,4.7,32,4.5,32.1,4.4c0,0.2,0.1,0.4,0.4,0.4c0.2,0,0.3-0.1,0.5-0.1c0.2,0.1,0.4,0.1,0.5,0.2c0.2-0.1,0.3-0.1,0.4-0.2
	c0.1,0,0.1,0,0.2,0c0,0.1,0.1,0.1,0.1,0.2c0.1,0,0.3,0,0.4,0c0.2-0.1,0.3-0.2,0.4-0.3c0.1-0.2,0.2-0.4,0.4-0.6
	c0.1-0.2,0.3-0.3,0.4-0.4c0,0,0-0.1,0-0.2c-0.1,0-0.1,0-0.2,0c-0.2,0.1-0.3,0.2-0.4,0.3C35,3.9,34.9,4,34.8,4.1
	c-0.1,0.2-0.3,0.2-0.5,0.1l0,0c0.1-0.1,0.2-0.2,0.3-0.3c0,0,0-0.1,0-0.1c0,0-0.1,0-0.1,0C34.3,3.8,34.1,4,34,4.1
	c-0.1,0.1-0.2,0.3-0.1,0.4c0,0.1,0,0.2,0.1,0.2c-0.1-0.1-0.1-0.1-0.2-0.2c-0.2-0.2-0.2-0.2,0-0.5c0.1-0.2,0.3-0.4,0.4-0.6
	c0,0,0-0.1,0-0.2c-0.3,0.1-0.5,0.3-0.7,0.5c-0.1,0.1-0.2,0.2-0.3,0.2c-0.2,0.1-0.5,0.3-0.6,0.5c-0.2,0-0.2-0.1-0.3-0.2
	c0-0.2,0.1-0.3,0.2-0.5C32.5,3.8,32.5,3.8,32.6,3.7C32.6,3.7,32.6,3.7,32.6,3.7c0.1-0.1,0.1-0.1,0-0.1c0,0,0,0,0,0
	C32.6,3.7,32.6,3.7,32.6,3.7z M26.8,2.2c0,0-0.1,0.1,0,0.1C26.9,2.3,26.8,2.2,26.8,2.2L26.8,2.2z M12.3,25.1
	c-0.1,0.1-0.1,0.2-0.1,0.3c-0.1,0-0.2,0-0.2,0c0,0-0.1,0-0.1,0.1c0,0,0,0.1,0,0.2c0,0,0.1,0,0.1,0c0.1-0.1,0.1-0.1,0.2-0.2
	C12.2,25.3,12.3,25.2,12.3,25.1C12.3,25.1,12.3,25.1,12.3,25.1c0.1-0.1,0.1-0.1,0.1-0.1C12.4,25,12.3,25,12.3,25.1
	C12.3,25,12.3,25.1,12.3,25.1z M18.2,36.4C18.2,36.4,18.2,36.4,18.2,36.4C18.3,36.4,18.3,36.3,18.2,36.4c0.1-0.1,0.1-0.1,0.1-0.1
	c0,0,0,0,0,0C18.3,36.3,18.3,36.3,18.2,36.4z M17.7,35.9c0-0.1,0-0.1,0-0.2c0.1-0.1,0.3-0.2,0.4-0.2c0.1,0,0-0.2,0-0.2
	c-0.1-0.1-0.3-0.1-0.3,0c-0.1,0.2-0.2,0.2-0.4,0.3c-0.3,0.1-0.5,0.3-0.8,0.5c-0.2,0.2-0.4,0.3-0.6,0.5c-0.4,0.2-0.7,0.5-1.1,0.7
	c-0.1,0.1-0.3,0.2-0.4,0.3c0,0,0,0.1,0,0.2c0.2,0,0.3,0,0.5,0l0,0c0.1,0.1,0.1,0.1,0.2,0.2c0.4,0.2,0.8,0.2,1.2,0
	c0.1,0,0.1-0.1,0.2-0.1c0.1-0.1,0.2-0.3,0.4-0.4c0,0,0,0,0-0.1c0,0-0.1-0.1-0.1-0.1c-0.1,0-0.3,0-0.4,0.1c-0.1,0.1-0.3,0.1-0.4,0.2
	c-0.1,0-0.2,0-0.2,0c-0.1,0-0.1-0.1,0-0.2c0,0,0-0.1,0-0.1c0.1-0.2,0.1-0.3,0.3-0.2c0.1,0,0.2,0,0.4,0.1c0.1,0,0.2-0.1,0.2-0.2
	c0-0.1,0-0.2-0.1-0.3c0.4-0.3,0.7-0.5,1.1-0.8C17.6,35.8,17.6,35.9,17.7,35.9C17.6,36,17.6,36,17.7,35.9C17.6,36,17.6,36,17.6,36
	C17.6,36,17.6,36,17.7,35.9z M17.5,29.7L17.5,29.7L17.5,29.7C17.4,29.7,17.4,29.7,17.5,29.7C17.4,29.7,17.4,29.7,17.5,29.7z
	 M4.5,6.7L4.5,6.7C4.5,6.7,4.6,6.7,4.5,6.7C4.5,6.7,4.5,6.7,4.5,6.7z M11,23L11,23c0.1-0.1,0.2-0.1,0.2-0.2l0,0l0,0
	C11.1,22.8,11,22.8,11,23z M35.9,8.5L35.9,8.5C35.9,8.5,35.9,8.5,35.9,8.5c-0.1,0.1-0.1,0.1-0.1,0.1C35.9,8.6,35.9,8.5,35.9,8.5z
	 M34.5,37.4c0-0.1,0.1-0.1,0.1-0.2c0,0,0.1,0,0.1,0c0.2-0.1,0.5-0.2,0.6-0.4c0,0,0-0.1,0-0.1c0,0-0.1,0-0.1,0
	c-0.2,0.1-0.5,0.2-0.7,0.5C34.6,37.3,34.5,37.3,34.5,37.4c0,0-0.1,0-0.2,0.1c0,0,0,0,0,0c0,0,0,0.1,0.1,0
	C34.4,37.5,34.4,37.4,34.5,37.4z M11.6,8.8L11.6,8.8c0,0-0.1,0-0.1,0.1c0,0,0,0,0,0c0,0,0,0,0,0c0,0,0.1,0,0.1,0
	C11.6,8.9,11.6,8.9,11.6,8.8z M3.3,14.3c0.1-0.1,0.2-0.1,0.2-0.3c0.1,0,0.1,0,0.2,0c0,0,0,0,0,0c0,0,0,0,0-0.1c0,0-0.1,0-0.1,0
	c0,0-0.1,0.1-0.1,0.1C3.4,14.1,3.3,14.1,3.3,14.3c-0.2,0-0.3,0.1-0.4,0.2c-0.4,0.1-0.8,0.4-1.1,0.7c0,0,0,0,0,0.1c0,0,0,0,0,0.1
	c0,0,0.1,0,0.1,0c0,0,0.1,0,0.1,0c0.3-0.2,0.5-0.4,0.8-0.6c0.1,0,0.1-0.1,0.1-0.2C3.1,14.5,3.2,14.4,3.3,14.3z M3.6,6.7
	C3.6,6.7,3.6,6.7,3.6,6.7c-0.1,0-0.2,0.1-0.1,0.1C3.5,6.8,3.5,6.8,3.6,6.7C3.6,6.8,3.6,6.7,3.6,6.7c0.1,0,0.2-0.1,0.3-0.2
	c0,0,0.1-0.1,0.1-0.1c0.1,0,0.1,0,0.2,0C4.7,6,5.1,5.7,5.5,5.4c0,0,0,0,0-0.1c0,0,0,0,0-0.1c0,0-0.1-0.1-0.1-0.1
	c-0.1,0-0.1,0.1-0.2,0.1C5,5.6,4.7,5.8,4.4,6C4.3,6.1,4.2,6.2,4.1,6.3c0,0-0.1,0.1-0.1,0.1C3.8,6.5,3.7,6.6,3.6,6.7z M29.2,3.8
	L29.2,3.8L29.2,3.8C29.2,3.8,29.3,3.8,29.2,3.8c0.1,0,0.1,0,0.1,0c0,0,0,0,0,0C29.3,3.8,29.3,3.7,29.2,3.8
	C29.2,3.8,29.2,3.8,29.2,3.8z M29.1,19.7L29.1,19.7L29.1,19.7C28.9,19.8,29,20,29,20.1c-0.2,0.2-0.3,0.5-0.6,0.6
	c-0.2,0.1-0.3,0.3-0.4,0.5c0,0,0,0,0.1,0.1c0.2-0.2,0.5-0.4,0.7-0.6c0.1-0.1,0.2-0.3,0.3-0.4c0-0.1,0-0.1-0.1-0.2
	C29.1,20,29.1,19.8,29.1,19.7z M5.7,2.8c0,0,0.1-0.1,0.1-0.1c0.2,0,0.4-0.2,0.6-0.3C6.6,2.2,6.8,2.1,7,1.9l0,0l0,0
	c-0.1,0-0.2,0-0.2,0C6.4,2.1,6.1,2.2,5.9,2.5c0,0,0,0.1,0,0.1C5.8,2.7,5.8,2.7,5.7,2.8C5.6,2.8,5.5,2.9,5.4,3C5.3,3,5.1,3,5.1,3.1
	C5,3.3,4.9,3.4,4.7,3.4C4.6,3.5,4.5,3.6,4.4,3.7C3.9,4,3.3,4.4,2.9,4.8c0,0,0,0.1-0.1,0.1c0,0,0,0,0,0.1c0.5-0.3,0.9-0.6,1.4-1
	c0.1-0.1,0.2-0.2,0.2-0.3c0.1,0,0.2,0,0.3-0.1c0.2-0.2,0.4-0.3,0.6-0.5c0,0,0.1-0.1,0.1-0.2C5.5,3,5.6,2.9,5.7,2.8z M9.1,10.5
	C9.2,10.5,9.2,10.5,9.1,10.5c0.1-0.1,0.1-0.1,0.1-0.1C9.2,10.4,9.2,10.4,9.1,10.5C9.2,10.5,9.2,10.5,9.1,10.5c-0.1,0-0.3,0-0.4,0.1
	c-0.1,0-0.1,0.1-0.2,0.1c-0.4,0.1-0.7,0.4-1.1,0.5c-0.3,0.3-0.7,0.6-1.1,0.7c0,0-0.1,0.1-0.1,0.1c0,0,0,0,0,0.1c0,0,0,0,0,0
	c0.1,0,0.3-0.1,0.4-0.1c0.1,0,0.3-0.1,0.4-0.1c0,0,0.1-0.1,0.1-0.1c0.2-0.3,0.5-0.5,0.9-0.6c0.2-0.1,0.3-0.1,0.5-0.2
	c0.2-0.1,0.2-0.2,0.2-0.4C9,10.7,9,10.7,9.1,10.5z M9.3,3.1c-0.1,0-0.2,0-0.2,0.1c0,0,0,0.1,0,0.1c0,0,0,0,0.1,0
	C9.1,3.2,9.2,3.2,9.3,3.1C9.3,3.1,9.3,3.1,9.3,3.1C9.4,3.1,9.4,3,9.4,3c0,0,0,0,0,0C9.4,3,9.4,3,9.3,3.1C9.3,3,9.3,3.1,9.3,3.1z
	 M19.6,37.2L19.6,37.2L19.6,37.2c0,0,0.1,0,0.1-0.1c0,0,0,0,0,0c0,0,0,0,0-0.1c0,0-0.1,0-0.1,0C19.6,37.1,19.6,37.1,19.6,37.2z
	 M15.9,36c0,0-0.1,0.1-0.1,0.1c-0.1,0-0.2,0-0.3,0c0,0,0,0,0,0c0.1,0.1,0.1,0.1,0.2,0C15.8,36.1,15.9,36,15.9,36c0,0,0.1,0,0.2,0
	c0,0,0,0,0,0c0,0,0,0,0-0.1c0,0-0.1,0-0.1,0C16,35.9,16,35.9,15.9,36z M14.3,14.5c-0.1,0-0.2,0-0.3,0.1
	C14.2,14.5,14.2,14.5,14.3,14.5c0-0.1,0.1-0.1,0.1-0.1C14.4,14.3,14.4,14.4,14.3,14.5z M11,22c-0.1,0-0.1,0.1-0.2,0.1
	c0,0-0.1,0.1,0,0.1c0,0,0.1,0,0.1,0C10.9,22.1,10.9,22,11,22c0,0,0.1,0.1,0.2,0.1c0,0,0.1,0,0.1,0c0,0,0-0.1-0.1-0.1
	C11.1,21.9,11,22,11,22z M27.1,19.8c0,0-0.1,0.1-0.1,0.1c0,0,0,0,0,0.1c0,0,0,0,0,0c0,0,0.1-0.1,0.1-0.1
	C27.1,19.9,27.1,19.8,27.1,19.8c0.1,0,0.2-0.1,0.2-0.2c0,0,0,0,0,0c0,0,0,0-0.1,0C27.1,19.6,27.1,19.7,27.1,19.8z M35,35.2
	c0,0,0.1-0.1,0.1-0.1c0.2,0,0.3-0.1,0.4-0.2c0.1-0.1,0.1-0.2,0.2-0.2c0-0.1,0.1-0.1,0.1-0.2c0.4-0.2,0.6-0.4,0.8-0.7
	c0.2-0.1,0.2-0.1,0.3-0.3c-0.1,0.1-0.2,0.2-0.3,0.3c-0.4,0.1-0.6,0.4-0.8,0.7c0,0.1-0.1,0.1-0.1,0.2c-0.3,0.1-0.5,0.2-0.6,0.5
	C35.1,35.1,35,35.2,35,35.2c-0.1,0-0.2,0-0.2,0.1c0,0,0,0.1,0,0.1c0,0,0.1,0,0.1,0C34.9,35.4,34.9,35.3,35,35.2z M37.8,13.9
	c0,0-0.1,0.1-0.1,0.1c-0.1,0-0.1-0.1-0.2-0.1c0,0-0.1,0-0.1,0.1c0,0.1,0,0.1,0,0.2c0,0,0.1,0,0.1,0c0,0,0.1-0.1,0.1-0.1
	C37.7,14,37.7,13.9,37.8,13.9c0.1-0.1,0.1-0.1,0.3-0.2C37.9,13.7,37.9,13.7,37.8,13.9z M13.2,15.2L13.2,15.2L13.2,15.2
	c-0.2,0.1-0.3,0.2-0.4,0.3l0,0l0,0C13,15.5,13.1,15.3,13.2,15.2z M15.3,36.5L15.3,36.5c-0.1,0-0.2,0.1-0.3,0.1c0,0,0,0.1,0,0.1
	c0,0,0.1,0,0.1,0C15.2,36.6,15.3,36.5,15.3,36.5z M14.9,14.1L14.9,14.1c0.3-0.1,0.3-0.1,0.3-0.3c-0.1,0-0.1,0.1-0.1,0.1
	C15,14,15,14,14.9,14.1z M35,10.6C35,10.6,35,10.5,35,10.6C35,10.5,35,10.5,35,10.6C35,10.5,35,10.6,35,10.6
	c-0.1,0.1-0.2,0.1-0.3,0.1c0,0,0,0.1-0.1,0.1c0,0,0,0,0,0.1c0,0,0,0,0,0C34.9,10.8,35,10.7,35,10.6z M4.4,8c0.1,0,0.1,0,0.2,0
	c0,0,0,0,0,0c0,0,0,0,0-0.1c0,0-0.1,0-0.1,0C4.5,7.9,4.5,8,4.4,8C4.4,8.1,4.3,8.1,4.2,8.2c0,0,0,0.1,0,0.1c0,0,0.1,0.1,0.1,0
	C4.4,8.2,4.5,8.1,4.4,8z M19.3,4c-0.1,0-0.1,0.1-0.1,0.1c-0.1,0-0.2,0-0.2,0c-0.2,0.1-0.4,0.3-0.6,0.5l0,0c0.2,0,0.3-0.1,0.4-0.2
	c0.1-0.1,0.3-0.3,0.4-0.4C19.2,4.1,19.2,4.1,19.3,4c0.2,0,0.4-0.1,0.4-0.4c0.1,0,0.2-0.1,0.3-0.1c0.1,0,0.2-0.1,0.2-0.3
	c0.1-0.1,0.3-0.1,0.4-0.2c0.4-0.3,1-0.5,1.4-0.9c0.1-0.1,0.2-0.1,0.3-0.2c0.4-0.2,0.8-0.4,1.2-0.7c0.2-0.1,0.3-0.2,0.4-0.4
	c0.1-0.1,0-0.2-0.1-0.2c-0.3-0.1-0.6,0-0.8,0.2c-0.3,0.3-0.6,0.5-1,0.8c-0.4,0.4-0.9,0.8-1.4,1.1c-0.2,0.1-0.4,0.3-0.5,0.5
	c-0.3,0-0.4,0.2-0.5,0.4C19.5,3.7,19.4,3.8,19.3,4z M3.1,11.3L3.1,11.3L3.1,11.3c0.1-0.1,0.2-0.1,0.2-0.2c0,0,0-0.1,0-0.1
	c0,0,0,0,0-0.1c0,0-0.1,0-0.1,0C3.1,11,3.1,11.1,3.1,11.3z M18.9,27.6c0.1-0.1,0.1-0.1,0.2-0.2c0.2,0,0.3-0.2,0.5-0.3
	c0,0,0-0.1,0-0.1c-0.2,0.1-0.4,0.1-0.5,0.4C19,27.5,18.9,27.6,18.9,27.6c-0.2,0-0.3,0.2-0.5,0.3c0,0,0,0.1-0.1,0.1c0,0,0,0,0,0
	c0,0,0,0,0,0c0,0,0,0,0.1-0.1c0,0,0-0.1,0-0.1C18.8,27.9,18.8,27.9,18.9,27.6z M25.9,10.6c0.1-0.1,0.3-0.1,0.4-0.2
	c0.1-0.2,0.3-0.3,0.5-0.4c0.3-0.1,0.5-0.3,0.7-0.5c0.2-0.2,0.3-0.5,0.2-0.8c0,0,0-0.1-0.1-0.1c-0.1,0-0.1,0-0.2,0
	c0,0-0.1,0.1-0.1,0.1c-0.1,0.2-0.2,0.3-0.2,0.5c-0.2,0.3-0.5,0.5-0.7,0.8c-0.1,0.1-0.1,0.2-0.1,0.3C26,10.4,26,10.4,25.9,10.6
	c-0.1,0-0.2,0.1-0.4,0.1l0,0c0,0.2,0,0.2,0.2,0.2c0.1,0,0.1-0.1,0.1-0.1l0,0l0,0C25.9,10.7,25.9,10.7,25.9,10.6z M24.1,13.4
	c-0.1,0-0.1,0-0.2,0c0,0,0,0,0,0c0,0,0,0,0,0.1c0,0,0.1,0,0.1,0C24,13.4,24.1,13.4,24.1,13.4c0.1-0.1,0.3-0.1,0.4-0.1
	c0,0,0.1,0,0.1-0.1c0,0,0,0,0-0.1c0,0,0,0,0,0C24.4,13.1,24.2,13.2,24.1,13.4z M5.4,1.4L5.4,1.4L5.4,1.4c-0.1,0-0.3,0-0.3,0.2
	c0,0,0,0.1,0,0.1c0,0,0,0,0.1,0C5.2,1.7,5.3,1.6,5.4,1.4z M7.7,13.2L7.7,13.2L7.7,13.2c-0.2,0-0.3,0-0.5,0.2
	c-0.1,0.1-0.1,0.1-0.2,0.2c-0.3,0.1-0.5,0.2-0.8,0.4c0,0,0,0.1,0,0.1c0,0,0.1,0.1,0.1,0.1c0.3-0.1,0.6-0.2,0.7-0.5
	c0.2,0,0.3,0,0.4-0.1C7.6,13.3,7.7,13.3,7.7,13.2z M11.2,11.4C11.3,11.4,11.3,11.4,11.2,11.4C11.3,11.4,11.3,11.5,11.2,11.4
	C11.3,11.4,11.3,11.4,11.2,11.4c-0.1,0-0.3,0.1-0.4,0.2c0,0,0,0.1,0,0.1C11.1,11.7,11.2,11.6,11.2,11.4z M28.7,37.6L28.7,37.6
	c-0.2,0-0.4,0-0.5,0.2c-0.1,0.1-0.1,0.1-0.2,0.2c-0.1,0-0.1,0-0.2,0c0,0,0,0,0,0c0,0,0,0,0,0.1c0,0,0.1,0,0.1,0c0,0,0.1-0.1,0.1-0.1
	C28.3,38,28.5,37.8,28.7,37.6z M11.8,16.1L11.8,16.1L11.8,16.1c0.2,0,0.3-0.1,0.5-0.2c0,0,0.1-0.1,0.2-0.2
	C12.1,15.8,12,16,11.8,16.1z M23.7,5.1L23.7,5.1L23.7,5.1c-0.1,0-0.1,0-0.2,0.1c-0.2,0-0.3,0.2-0.3,0.4c0,0-0.1,0-0.1,0
	c0,0-0.1,0,0,0.1c0,0,0,0,0.1,0c0,0,0-0.1,0.1-0.1c0.2,0,0.3-0.1,0.4-0.3C23.7,5.2,23.7,5.2,23.7,5.1z M30.1,3.2
	c-0.2,0-0.3,0-0.3,0.2c0,0,0,0.1,0,0.1c0,0,0.1,0,0.1,0C30,3.4,30,3.3,30.1,3.2c0.1,0,0.2-0.1,0.3-0.1c0,0,0.1-0.1,0.1-0.1
	c0,0,0-0.1,0-0.1c0,0-0.1,0-0.1,0C30.2,2.8,30.1,3,30.1,3.2z M2.9,18.9C2.9,18.9,2.9,19,2.9,18.9c-0.1,0.2-0.1,0.2,0,0.1
	C2.9,19,2.9,19,2.9,18.9C2.9,18.9,2.9,18.9,2.9,18.9c0.1,0,0.2,0,0.3-0.1c0.1-0.1,0.2-0.2,0.3-0.3c0,0,0-0.1,0-0.1c0,0,0,0-0.1,0
	C3.3,18.6,3.1,18.7,2.9,18.9z M11.6,6.3L11.6,6.3c0.2,0,0.3-0.1,0.5-0.2c0,0,0.1-0.1,0-0.2c0,0-0.1-0.1-0.1,0
	C11.9,6,11.7,6.1,11.6,6.3z M33,14.3c0,0-0.1-0.1-0.1,0C32.9,14.3,33,14.3,33,14.3c0.1-0.1,0.2-0.2,0.4-0.3c0.1,0,0.1-0.1,0.1-0.2
	c-0.2,0-0.2,0-0.3,0.1C33.1,14,33,14.1,33,14.3z M17.3,9.4c-0.3,0.1-0.6,0.2-0.7,0.5c-0.3,0-0.6,0.2-0.8,0.4c-0.1,0-0.1,0.1-0.1,0.2
	c-0.5,0.1-1,0.4-1.4,0.7c-0.2,0.1-0.3,0.3-0.5,0.4c-0.6,0.3-1.1,0.8-1.6,1.1c0,0,0,0,0,0c0,0,0,0,0,0.1c0,0,0,0,0,0
	c0.2,0,0.4-0.1,0.5-0.2c0.2-0.2,0.5-0.3,0.8-0.3c-0.1,0.3-0.5,0.4-0.7,0.6c-0.2,0-0.3,0.2-0.5,0.3c-0.3,0.2-0.5,0.5-0.8,0.7
	c-0.1,0.1-0.2,0.2-0.2,0.3c-0.1,0-0.1,0-0.2,0c0,0,0,0,0,0c0,0,0,0,0,0c0,0,0.1,0,0.1,0c0,0,0.1-0.1,0.1-0.1
	c0.2-0.1,0.4-0.1,0.5-0.3c0.4-0.3,0.8-0.6,1.3-0.8c0.1,0,0.1-0.1,0.2-0.1c0.2-0.1,0.4-0.3,0.6-0.4c0,0,0.1-0.1,0.1-0.1
	c0.1-0.1,0.1-0.3,0-0.4c-0.1-0.1-0.2-0.1-0.3,0c-0.1,0.1-0.2,0.2-0.4,0.2c0-0.2,0.2-0.3,0.3-0.4c0.1-0.1,0.2-0.1,0.3-0.2
	c0.2-0.2,0.4-0.3,0.7-0.5c0.3-0.2,0.6-0.4,0.8-0.7c0.2,0,0.3-0.1,0.5-0.1c0.1,0,0.2-0.1,0.2-0.2c0.1-0.1,0.2-0.2,0.2-0.4
	C16.9,9.9,17.1,9.7,17.3,9.4c0.1,0,0.2-0.1,0.3-0.1c0.2-0.1,0.3-0.2,0.4-0.4c0.1,0,0.1,0,0.2,0c0.3-0.2,0.6-0.3,0.9-0.5
	c0,0,0-0.1,0-0.1c0-0.1-0.1-0.1-0.1-0.1c-0.2,0.1-0.4,0.2-0.6,0.3C18.2,8.6,18,8.7,18,8.9C17.7,9,17.4,9.1,17.3,9.4z M8.7,9.9
	c0.3,0,0.5-0.1,0.7-0.3c0.1-0.1,0.2-0.1,0.2-0.2c0.2-0.1,0.4-0.1,0.6-0.2c0.2-0.1,0.4-0.3,0.6-0.5c0,0,0.1-0.1,0.1-0.1
	c0,0-0.1-0.1-0.2,0c-0.3,0.1-0.6,0.3-0.9,0.5C9.8,9.2,9.7,9.3,9.7,9.5C9.3,9.5,9,9.6,8.7,9.9c-0.2,0-0.4,0.1-0.6,0.3
	c-0.1,0.1-0.1,0.1-0.1,0.3l0,0c0.1,0,0.1,0,0.2,0C8.4,10.2,8.7,10.2,8.7,9.9z M4,9.7L4,9.7L4,9.7c-0.1,0-0.1,0-0.2,0.1
	C3.6,9.9,3.4,10,3.3,10.1c0,0,0,0.1,0,0.1c0,0,0,0,0.1,0C3.6,10.1,3.8,10,4,9.7z M25,10.2c0,0.1,0,0.2,0,0.2c0,0,0,0,0,0
	c0,0,0.1,0,0.1,0c0,0,0-0.1,0-0.1C25.1,10.3,25,10.2,25,10.2c0.2,0,0.3,0,0.5,0.1c0,0,0.1,0,0.1-0.1c0,0,0-0.1,0-0.1
	c0-0.1-0.1-0.2-0.3-0.2C25.2,10,25.1,10.1,25,10.2z M35.8,4.9L35.8,4.9L35.8,4.9c0.3,0,0.5-0.2,0.6-0.5c0,0,0-0.1-0.1-0.1
	c0,0-0.1,0-0.1,0c0,0.1-0.1,0.1-0.1,0.2C36,4.7,35.9,4.8,35.8,4.9z M2,27.1c0,0,0.1-0.1,0.1-0.1c0.2,0,0.3,0,0.4-0.1
	c0.3-0.2,0.6-0.5,0.8-0.7c0-0.4,0-0.4,0-0.6c-0.2,0.1-0.2,0.1-0.1,0.2c0.1,0.3,0,0.5-0.3,0.6c-0.3,0.1-0.4,0.3-0.7,0.5
	c-0.1,0-0.1,0.1-0.1,0.2C2.1,27,2.1,27,2,27.1c-0.1,0-0.2,0-0.3,0.1c-0.2,0.1-0.4,0.3-0.5,0.5c0,0,0,0,0,0.1c0,0,0,0,0,0
	C1.6,27.6,1.8,27.4,2,27.1z M15.3,6.3L15.3,6.3L15.3,6.3c-0.5,0.2-0.9,0.6-1.3,1c0,0.1-0.1,0.1-0.1,0.2c-0.6,0.1-1.1,0.6-1.6,0.9
	c0,0-0.1,0.1-0.1,0.1c0,0,0,0.1,0,0.1c0.1,0,0.2-0.1,0.3-0.1c0.5-0.3,1-0.6,1.4-1c0-0.1,0.1-0.1,0.1-0.2c0,0,0.1,0,0.1,0
	c0.4-0.2,0.7-0.4,1-0.7C15.2,6.5,15.3,6.4,15.3,6.3z M3,31.1c0.3,0.2,0.3,0.2,0.4,0.6c0.1-0.5,0.1-0.5,0-0.8
	C3.2,30.9,3.2,30.9,3,31.1c0,0-0.1,0-0.1,0.1c-0.2,0.1-0.4,0.3-0.6,0.4c0,0-0.1,0.1-0.1,0.1c0,0,0,0,0,0c0,0,0,0.1,0,0.1
	c0,0,0,0,0.1,0c0.2-0.1,0.4-0.3,0.6-0.4c0,0,0.1-0.1,0.1-0.1C2.9,31.3,2.9,31.2,3,31.1z M14.2,13.5C14.2,13.4,14.2,13.4,14.2,13.5
	c-0.1-0.1-0.2-0.1-0.2-0.1c0,0,0,0,0,0c0,0,0,0,0.1,0C14.1,13.4,14.2,13.4,14.2,13.5c0.2-0.1,0.3-0.2,0.5-0.3
	c0.2-0.2,0.5-0.3,0.7-0.6c0.3,0,0.5-0.2,0.7-0.4c0.7-0.5,1.4-0.9,2.1-1.5c0,0,0.1,0.1,0.1,0.1c0.1,0.1,0.2,0,0.2-0.1
	c0.1-0.1,0-0.1-0.1-0.2c0.1-0.1,0.2-0.2,0.4-0.2c0.2-0.1,0.4-0.1,0.6-0.3l0,0c0.1-0.1,0.3-0.1,0.3-0.2c0,0,0.1-0.1,0.1-0.1
	c0.3-0.1,0.5-0.2,0.7-0.4C20.9,9.2,21,9.1,21.3,9c0.1,0,0.2-0.1,0.3-0.2c0.2-0.2,0.4-0.4,0.7-0.5c0.2-0.3,0.4-0.3,0.6-0.5
	c0.7-0.6,1.5-1,2.1-1.7c0,0,0.1,0,0.1-0.1c0.2-0.1,0.3-0.2,0.5-0.3c0.2-0.1,0.4-0.2,0.5-0.4c0.1-0.2,0.3-0.2,0.5-0.3
	c0.1,0,0.1-0.1,0.1-0.1c0.3-0.3,0.6-0.5,1-0.7c0.3-0.2,0.6-0.4,0.8-0.7c0.1-0.2,0.3-0.2,0.4-0.3c0.1,0,0.2,0,0.3,0
	c0.2-0.1,0.3-0.2,0.5-0.3c0.1-0.1,0.2-0.2,0.2-0.3c0,0,0.1-0.1,0.1-0.1c0.2,0,0.4,0,0.5-0.2C30.8,2,31,1.9,31.3,1.8
	c0.1-0.1,0.2-0.1,0.2-0.2c0.2-0.2,0.4-0.2,0.6-0.2l0,0c-0.2,0.2-0.4,0.3-0.6,0.5C31.2,2,31,2.3,30.8,2.5l0,0l0,0
	c0.1,0,0.2,0,0.3-0.1c0.3-0.1,0.5-0.2,0.8-0.4C31.9,2.1,32,2,32.1,2c0.2-0.2,0.4-0.3,0.7-0.5c0.1-0.1,0.1-0.1,0.2-0.2
	C33,1.2,33,1,32.9,1c-0.3-0.1-0.5-0.2-0.8-0.2c-0.1,0-0.3,0-0.4-0.1c-0.3-0.1-0.6-0.1-0.9,0C30.5,0.9,30.2,1,30,1.2
	c-0.3,0.4-0.7,0.7-1.2,1c-0.2,0.1-0.3,0.2-0.4,0.3C28.2,2.8,28,2.9,27.8,3c-0.2,0.1-0.3,0.2-0.5,0.4c-0.3,0.2-0.5,0.5-0.8,0.7
	c-0.2,0.2-0.4,0.3-0.5,0.5c-0.1,0.1-0.2,0.1-0.2,0.2c-0.5,0.2-0.9,0.5-1.3,0.8c-0.2,0.2-0.5,0.3-0.8,0.6c0,0-0.1,0-0.1,0.1
	c-0.3,0.1-0.5,0.4-0.8,0.6c-0.2,0.2-0.5,0.4-0.7,0.7c-0.1,0.1-0.3,0.3-0.4,0.4c-0.1,0.2-0.3,0.4-0.5,0.5c-0.1,0.1-0.2,0.2-0.3,0.3
	c-0.1,0.2-0.3,0.2-0.4,0.3c0,0.1-0.1,0.1-0.2,0.1c-0.2,0-0.5,0.1-0.6,0.3c-0.5,0.2-0.8,0.5-1.2,0.8c-0.4,0.3-0.7,0.5-1.1,0.8
	c-0.3,0.2-0.6,0.3-0.8,0.6c0,0-0.1,0.1-0.1,0.1c-0.3,0.2-0.6,0.6-1,0.8c-0.1,0-0.1,0.1-0.1,0.2c-0.2,0-0.4,0-0.5,0.2
	c-0.1,0.1-0.2,0.2-0.4,0.3C14.3,13.1,14.3,13.3,14.2,13.5z M16.9,27.5L16.9,27.5L16.9,27.5c-0.2,0-0.3,0.1-0.4,0.2
	c-0.3,0.3-0.5,0.6-0.8,0.9c0,0,0,0,0,0.1c0,0,0,0,0,0c0,0,0,0,0.1,0C16.1,28.3,16.5,28,16.9,27.5z M4.8,10C4.8,10.1,4.8,10,4.8,10
	c-0.7,0.2-0.9,0.4-1.2,0.8c0,0,0.1,0,0.1,0c0.1-0.1,0.2-0.1,0.4-0.2C4.4,10.6,4.6,10.3,4.8,10z M2.7,28.6c0,0,0.1,0,0.1,0
	c0,0,0.1-0.1,0-0.1C2.8,28.5,2.8,28.5,2.7,28.6C2.8,28.6,2.7,28.6,2.7,28.6c-0.1,0-0.2,0-0.3,0.1C2.2,28.8,2,29,1.8,29.2
	c-0.1,0.1-0.3,0.3-0.4,0.4c0,0,0,0,0,0.1c0,0,0.1,0,0.1,0c0.2-0.1,0.3-0.2,0.5-0.3c0.2-0.2,0.5-0.4,0.7-0.6
	C2.7,28.7,2.7,28.7,2.7,28.6z M15.1,1.2c0,0,0.1-0.1,0.1-0.1c0.1-0.1,0-0.2-0.1-0.2c0,0-0.1,0-0.1,0.1C14.8,1,14.7,1,14.5,1.1
	c-0.2,0.1-0.3,0.3-0.3,0.5c-0.1,0.1-0.1,0.1-0.2,0.2c0,0,0,0,0,0.1c0,0,0.1,0,0.1,0c0-0.1,0-0.1,0.1-0.2c0.3,0,0.6-0.1,0.8-0.3
	C15.1,1.2,15.1,1.2,15.1,1.2z M2.5,23.7c-0.2,0-0.3,0-0.4,0.1c-0.2,0.2-0.4,0.3-0.6,0.5c0,0-0.1,0.1-0.2,0.3
	C1.8,24.3,2.2,24,2.5,23.7c0.2-0.1,0.4-0.3,0.6-0.4c0.2-0.1,0.3-0.2,0.5-0.4c0,0,0.1-0.1,0.1-0.1c0,0,0-0.1,0-0.2c0,0-0.1,0-0.1,0
	c-0.4,0.1-0.7,0.4-0.9,0.7C2.5,23.5,2.5,23.6,2.5,23.7z M9.9,0.9c0.1,0,0.2,0,0.3-0.1C10.1,0.8,10,0.9,9.9,0.9
	C9.5,1,9.2,1.3,8.9,1.5C8.5,1.8,8.1,2,7.8,2.3c-0.1,0-0.1,0.1-0.1,0.2C7.4,2.5,7.2,2.7,7,2.8C6.9,3,6.7,3.1,6.5,3.2
	C6.3,3.4,6,3.6,5.8,3.8C5.4,4.1,5,4.5,4.6,4.8c0,0-0.1,0.1-0.1,0.1c0,0,0,0.1,0,0.1c0,0,0.1,0,0.1,0c0.6-0.4,1.1-0.8,1.6-1.2
	c0.1-0.1,0.1-0.1,0.2-0.2C6.6,3.4,6.9,3.2,7.1,3c0.2-0.1,0.3-0.2,0.5-0.4c0,0,0-0.1,0.1-0.2c0.1,0,0.1,0,0.2,0
	C8.5,2,9.1,1.6,9.7,1.2C9.8,1.1,9.9,1,9.9,0.9z M12.9,2.5c0.1,0,0.1,0,0.2-0.1c0,0,0,0,0-0.1c0,0-0.1,0-0.1,0
	C13,2.3,12.9,2.4,12.9,2.5c-0.3,0-0.5,0.2-0.7,0.4c-0.3,0.2-0.6,0.4-0.9,0.3c-0.1,0-0.2,0.1-0.1,0.2c0.1,0,0.2,0,0.3,0
	c0.2,0.1,0.4,0,0.5-0.1c0.2-0.2,0.5-0.3,0.7-0.4C12.8,2.8,12.8,2.6,12.9,2.5z M3,27.1c0.2,0,0.3-0.1,0.4-0.3c0,0,0,0,0-0.1
	c0,0,0,0,0,0C3.1,26.8,3,26.9,3,27.1c-0.3,0.1-0.5,0.3-0.8,0.4c-0.2,0.2-0.5,0.4-0.7,0.6c0,0-0.1,0.1-0.1,0.1c0,0,0,0,0,0.1
	c0,0,0,0,0,0c0.1,0,0.2-0.1,0.3-0.1c0.1-0.1,0.3-0.2,0.4-0.3C2.4,27.7,2.7,27.4,3,27.1z M32.9,3.1c0.1,0.1,0.1,0.2,0.2,0.1
	c0.2-0.1,0.3-0.2,0.4-0.3c0.1-0.1,0.3-0.3,0.4-0.4c0.1-0.1,0.1-0.2,0-0.3c-0.1-0.1-0.2-0.1-0.3,0.1c-0.1,0.2-0.2,0.3-0.4,0.5
	C33.2,2.8,33.1,3.1,32.9,3.1c0-0.2,0-0.4,0-0.6c0,0,0-0.1-0.1-0.1c-0.1,0-0.3,0.1-0.4,0.1c-0.1,0.1,0,0.2,0,0.3
	C32.5,3,32.6,3,32.6,3C32.7,3,32.8,3.1,32.9,3.1z M1.9,18.8c-0.2,0.1-0.4,0.1-0.6,0.2c0,0,0,0,0,0c-0.1,0.1-0.1,0.2-0.1,0.3
	c0,0.1,0.1,0.1,0.2,0.1C1.6,19.3,1.8,19.1,1.9,18.8c0.1-0.1,0.3-0.2,0.4-0.3c0.3-0.3,0.7-0.5,1-0.7c0.1-0.2,0.1-0.3,0.1-0.5
	c0.1,0,0.1,0.1,0.2,0c0.1-0.1,0.2-0.1,0.3-0.2c0.1-0.1,0.2-0.2,0.3-0.4c0,0,0-0.1-0.1-0.2c0,0-0.1,0-0.1,0c-0.3,0.2-0.5,0.4-0.6,0.8
	c-0.1,0-0.3,0.1-0.4,0.2c-0.2,0.3-0.5,0.5-0.8,0.8C2.1,18.4,2,18.6,1.9,18.8z M37.7,7c-0.1,0-0.2,0-0.3,0c-0.2,0.1-0.3,0.2-0.5,0.3
	c0,0,0,0,0,0.1c0,0,0.1,0.1,0.1,0.1c0.1,0,0.1,0,0.2,0C37.4,7.3,37.5,7.1,37.7,7c0.2-0.2,0.5-0.3,0.7-0.5c0-0.1,0-0.1,0-0.2
	c0,0,0-0.1,0-0.1c0-0.1-0.1-0.1-0.2-0.1c0,0-0.1,0-0.1,0c-0.2,0.1-0.3,0.3-0.5,0.4c-0.1,0.1-0.1,0.2,0,0.3C37.6,6.9,37.6,6.9,37.7,7
	z M29.7,37.5L29.7,37.5c0.1,0,0.2,0,0.2,0c0.3-0.1,0.5-0.2,0.8-0.5c0.2-0.2,0.5-0.5,0.8-0.6c0.1,0,0.1-0.1,0.2-0.2c0,0,0,0,0-0.1
	c0,0-0.1-0.1-0.1,0c-0.1,0-0.2,0.1-0.3,0.1c-0.3,0.3-0.6,0.5-0.9,0.7C30.1,37.1,29.9,37.3,29.7,37.5z M14.8,4.4L14.8,4.4L14.8,4.4
	c-0.3,0.1-0.5,0.2-0.8,0.4c-0.2,0.2-0.4,0.3-0.6,0.4c-0.4,0.1-0.7,0.3-1,0.5l0,0c0.1,0,0.1,0.1,0.2,0c0.2,0,0.4-0.1,0.6-0.2
	c0.1,0,0.3-0.1,0.4-0.2c0.1-0.1,0.3-0.2,0.5-0.4c0.2-0.1,0.4-0.3,0.6-0.4C14.8,4.6,14.8,4.5,14.8,4.4z M1.8,22.8c-0.1,0-0.2,0-0.2,0
	c0,0-0.1,0-0.1,0.1c0,0,0,0.1,0,0.1c0,0,0.1,0,0.1,0C1.6,23,1.7,22.9,1.8,22.8c0.3-0.2,0.5-0.4,0.8-0.5C2.7,22.1,2.9,22,3,21.9
	c0.2-0.2,0.5-0.4,0.7-0.7c0,0,0.1-0.1,0.1-0.1c0,0,0-0.1,0-0.1c0,0-0.1,0-0.1,0c-0.1,0.1-0.1,0.1-0.2,0.2c-0.2,0.2-0.4,0.4-0.6,0.5
	c-0.4,0.2-0.6,0.5-0.9,0.7C1.8,22.5,1.8,22.6,1.8,22.8z M8.1,36.3c-0.1,0-0.2,0-0.3,0.1c0,0,0,0.1,0,0.1c0,0,0,0,0.1,0
	C7.9,36.4,8,36.4,8.1,36.3c0.2-0.1,0.4-0.2,0.6-0.3c0.5-0.2,1-0.5,1.5-0.8c0,0,0,0,0,0c0.1-0.1,0.1-0.2,0.1-0.2c0,0-0.1-0.1-0.2-0.1
	c-0.2,0-0.4,0.1-0.6,0.1c-0.1,0.1-0.1,0.2-0.2,0.2C9,35.6,8.7,35.8,8.4,36C8.3,36.1,8.1,36.1,8.1,36.3z M36.1,22.2
	c0-0.2,0.1-0.3,0.3-0.4c0.2-0.2,0.3-0.3,0.5-0.5c0,0,0-0.1,0-0.1c0,0-0.1,0-0.1,0c-0.3,0.1-0.6,0.3-0.8,0.5
	c-0.1,0.1-0.2,0.2-0.4,0.2c-0.1,0-0.1,0.1-0.2,0.1c0,0.2,0,0.4-0.1,0.6l0,0c0.1,0,0.2-0.1,0.3-0.1c0.1,0,0.2-0.1,0.3-0.1
	c0,0.2-0.1,0.4-0.3,0.6c-0.1,0.1-0.3,0.3-0.4,0.4c-0.1,0.1-0.1,0.2-0.1,0.3c0,0.1,0.1,0.2,0.1,0.1c0.2-0.2,0.5-0.2,0.8-0.1
	c0,0.1,0,0.2,0.1,0.3c-0.2,0-0.4,0-0.6,0c-0.1,0.1-0.2,0.3-0.3,0.4c0,0.1,0,0.1,0,0.2c0,0,0.1,0,0.2,0c0.1,0,0.1-0.1,0.2-0.1
	c0.1-0.1,0.3-0.3,0.4-0.4c0.3,0,0.5,0,0.6-0.3c0-0.1,0.1-0.1,0.1-0.2c0.2-0.3,0.4-0.4,0.7-0.4c-0.1,0.2-0.1,0.4-0.2,0.6
	c-0.1,0.1-0.2,0.1-0.4,0.2c-0.1,0-0.1,0.1,0,0.1c0,0,0.1,0,0.1,0c0.2-0.1,0.4-0.2,0.6-0.4c0.2-0.2,0.2-0.4,0.1-0.6
	c0.1-0.3,0.3-0.6,0.5-0.9c0,0,0,0,0-0.1c0-0.1,0-0.1,0-0.2c0-0.1-0.1-0.1-0.2-0.1c-0.1,0.1-0.3,0.1-0.4,0.2
	c-0.2,0.1-0.3,0.2-0.4,0.4c0,0.1-0.1,0.2-0.2,0.3c-0.2,0.2-0.4,0.3-0.6,0.5c-0.1,0.1-0.2,0.1-0.3,0c0,0,0-0.1-0.1-0.1
	c0-0.1,0.1-0.2,0.1-0.3l0,0c0-0.1-0.1-0.2-0.1-0.2c0.1,0,0.3-0.1,0.4,0c0.1,0,0.2,0,0.2-0.1c0.1-0.1,0.1-0.2,0-0.3
	c-0.1,0-0.2,0.1-0.3,0.1C36.3,22.2,36.2,22.2,36.1,22.2z M28.3,19.4c-0.1,0-0.1,0.1-0.2,0.1C28,19.6,28,19.7,28,19.8
	c0,0,0,0.1,0.1,0.1c0,0,0.1,0,0.1,0C28.3,19.7,28.3,19.6,28.3,19.4c0.2,0,0.3-0.2,0.5-0.3c0.1,0,0.1,0,0.1,0c0.2,0.1,0.3,0.1,0.5,0
	c0.1-0.1,0.2-0.2,0.2-0.4c0-0.1,0-0.3-0.2-0.4c-0.1-0.1-0.2,0-0.3,0.1c-0.2,0.1-0.3,0.2-0.4,0.4C28.6,19,28.4,19.2,28.3,19.4z
	 M23.9,12.6c0.1,0,0.2,0,0.2-0.1c0.1,0,0.1-0.1,0.1-0.1c0,0,0,0,0,0c-0.1,0-0.1,0-0.2,0.1C23.9,12.5,23.9,12.6,23.9,12.6
	c-0.1,0-0.2,0-0.3,0c-0.3,0.1-0.5,0.2-0.7,0.3c-0.3,0.1-0.3,0.3-0.4,0.5c0.2,0.1,0.3,0.2,0.4,0.3c0.3-0.1,0.5-0.2,0.5-0.5
	C23.5,12.9,23.7,12.8,23.9,12.6z M13.5,37.3c-0.1-0.1-0.1-0.2-0.2-0.1c-0.1,0.1-0.3,0.1-0.4,0.2c-0.1,0-0.1,0.1-0.1,0.2
	c0.4,0.2,0.7,0.1,1.1,0c0.2-0.1,0.4-0.2,0.6-0.3c0.1-0.1,0.2-0.2,0.2-0.3c0,0,0-0.1,0-0.1c-0.1-0.1-0.2-0.1-0.2,0
	c-0.1,0.1-0.2,0.1-0.3,0.2C14,37.2,13.8,37.3,13.5,37.3L13.5,37.3z M35.6,25.8c0.1,0,0.2,0,0.3-0.1c0,0,0-0.1,0-0.2c0,0-0.1,0-0.1,0
	C35.7,25.5,35.7,25.7,35.6,25.8c-0.2-0.1-0.3-0.3-0.1-0.6c0.1-0.1,0.1-0.2,0.2-0.3c0.1,0,0.3,0,0.4-0.1c0.2-0.1,0.3-0.3,0.4-0.4
	c0,0,0-0.1,0-0.1c0,0,0,0-0.1,0c-0.1,0-0.2,0-0.3,0.1c-0.1,0.1-0.2,0.2-0.3,0.3c-0.1,0.1-0.2,0.1-0.3,0.2c-0.1,0.1-0.3,0-0.4,0.2
	c0,0.2,0,0.5,0,0.7c0,0.1,0,0.2,0.1,0.3c0,0.1,0.1,0.1,0.2,0C35.5,26.1,35.6,25.9,35.6,25.8z M3.3,30.4L3.3,30.4
	c0-0.1,0.1-0.1,0.1-0.1c0.1-0.5,0.1-1.1,0-1.6c0,0-0.1,0-0.1,0c0,0,0,0,0,0c0,0.1-0.1,0.1-0.1,0.2c0,0-0.1,0-0.1,0c0,0,0.1,0,0.1,0
	c0,0,0.1,0.1,0.1,0.1c0,0.2,0,0.4-0.1,0.6c0,0.1-0.1,0.1-0.1,0.1c-0.1,0.1-0.2,0.1-0.2,0.2c-0.1,0.1-0.2,0.1-0.3,0.2
	c-0.2,0.2-0.4,0.3-0.6,0.5c-0.2,0.1-0.3,0.2-0.5,0.4c0,0,0,0.1,0.1,0.1C1.8,31,2,30.9,2.1,30.8c0.3-0.3,0.7-0.4,1.1-0.5
	C3.2,30.3,3.3,30.4,3.3,30.4z M12.1,37.5L12.1,37.5L12.1,37.5c0.2,0,0.4-0.1,0.5-0.2c0.5-0.3,1-0.6,1.5-0.9c0.3-0.2,0.6-0.4,0.9-0.6
	c0.2-0.1,0.4-0.3,0.6-0.3c0.1,0,0.2-0.1,0.2-0.2c0,0,0,0,0-0.1c0,0,0-0.1-0.1-0.1c-0.2,0-0.3-0.1-0.5-0.1c0,0.1-0.1,0.3-0.1,0.4
	c-0.4,0.2-0.8,0.4-1.2,0.7c-0.1,0-0.1,0.1-0.2,0.1c-0.5,0.3-1,0.6-1.5,0.9C12.2,37.3,12.1,37.3,12.1,37.5z M22.3,8.7
	c-0.1,0-0.1,0-0.2,0C21.7,9,21.3,9.3,21,9.7c-0.3,0.1-0.5,0.3-0.8,0.4c-0.3,0.2-0.6,0.4-0.9,0.6c-0.2,0.1-0.4,0.3-0.6,0.4
	c-0.4,0.4-0.8,0.6-1.3,0.9c-0.3,0.2-0.7,0.4-0.9,0.7c0,0-0.1,0.1,0,0.1c0.2-0.1,0.3-0.2,0.5-0.3c0.2-0.1,0.4-0.2,0.5-0.3
	c0.1-0.1,0.3-0.2,0.4-0.3c-0.1,0.3-0.2,0.5-0.4,0.7c-0.2,0.2-0.4,0.4-0.6,0.6l0,0l0,0c0.2,0.1,0.4,0,0.5-0.1
	c0.2-0.2,0.5-0.4,0.8-0.5c0.1-0.1,0.2-0.1,0.3-0.2c0.4-0.3,0.8-0.6,1.2-0.8c0.5-0.3,0.9-0.7,1.4-1c0,0,0.1-0.1,0.1-0.1
	c0.1-0.1,0.1-0.1,0.2-0.2c0.3-0.2,0.5-0.4,0.8-0.6c0.2-0.2,0.5-0.4,0.7-0.6c0,0,0.1-0.1,0.1-0.1c0,0,0-0.1-0.1-0.1
	c-0.1,0-0.1,0-0.2,0c-0.2,0.1-0.3,0.2-0.4,0.3c-0.1,0.1-0.3,0.2-0.5,0.2c-0.1,0-0.2-0.1-0.3-0.1c0-0.1,0.1-0.2,0.2-0.2
	C22.1,9,22.2,8.9,22.3,8.7c0.1-0.1,0.2-0.1,0.3-0.1c0.2-0.1,0.4-0.3,0.6-0.3c0.1,0,0.2-0.1,0.2-0.2c0.2-0.3,0.6-0.5,0.9-0.7
	c0.4-0.2,0.7-0.5,1-0.8c0.1-0.1,0.2-0.2,0.2-0.3c0,0,0-0.1,0-0.2c0,0-0.1,0-0.2,0c-0.2,0.1-0.4,0.3-0.6,0.5
	c-0.1,0.1-0.1,0.1-0.2,0.2c-0.5,0.4-1,0.8-1.5,1.1C23,8,22.9,8.1,22.8,8.1C22.5,8.2,22.4,8.4,22.3,8.7z M25.2,2.9C25.1,3,25,3,25,3
	c0,0,0,0.1,0,0.1c0,0,0.1,0,0.1,0C25.1,3,25.1,3,25.2,2.9c0.2,0,0.4-0.1,0.6-0.3c0.5-0.3,1-0.8,1.5-1.1c0.1-0.1,0.2-0.3,0.2-0.4
	c0,0,0-0.1-0.1-0.1c-0.1,0-0.2,0-0.3,0.1c-0.2,0.3-0.4,0.5-0.7,0.6C26.2,1.7,26,1.9,25.9,2c-0.1,0-0.1,0.1-0.2,0.2
	c-0.1,0.2-0.3,0.4-0.5,0.6C25.2,2.8,25.2,2.9,25.2,2.9z M10.4,12L10.4,12L10.4,12c-0.2,0-0.3,0.1-0.5,0.1c-0.4,0.2-0.8,0.5-1.2,0.7
	c-0.1,0-0.1,0.1-0.1,0.1c-0.5,0.4-1,0.8-1.5,1.1c0,0-0.1,0.1-0.1,0.1c0,0,0,0.1,0,0.1c0,0,0.1,0.1,0.1,0.1c0.1,0,0.1,0,0.2,0
	c0.4-0.3,0.9-0.5,1.3-0.8c0.5-0.4,1-0.8,1.6-1.1C10.3,12.2,10.4,12.1,10.4,12z M28.8,36.2c-0.2,0.3-0.5,0.4-0.7,0.7
	C28,37,27.8,37,27.6,37.1c-0.2,0.1-0.3,0.3-0.5,0.4c0,0,0,0-0.1,0c-0.2,0.1-0.3,0.3-0.5,0.4c0,0,0,0,0,0c0,0,0,0.1,0,0.1
	c0,0,0.1,0.1,0.1,0.1c0.3-0.1,0.7-0.2,1-0.4c0.2-0.2,0.5-0.3,0.7-0.5c0.2-0.2,0.5-0.4,0.8-0.6c0.3-0.2,0.6-0.5,0.7-0.9
	c-0.2,0.1-0.3,0.1-0.3,0.2C29.2,36.2,29,36.2,28.8,36.2c0,0,0-0.1,0-0.1c0-0.1,0-0.1-0.1,0c0,0,0,0,0,0
	C28.8,36.1,28.8,36.2,28.8,36.2z M37.7,26.6c0.2,0,0.4,0,0.4,0.3c0-0.2,0.1-0.4,0.1-0.6c0,0,0-0.1,0-0.1c0-0.1-0.1-0.2-0.2-0.1
	c-0.1,0-0.2,0.1-0.2,0.2C37.7,26.3,37.7,26.4,37.7,26.6c-0.4,0.1-0.8,0.1-1,0.5c0,0,0,0-0.1,0c-0.2,0.1-0.3,0.2-0.4,0.4
	c-0.1,0.2-0.2,0.4-0.4,0.5c-0.1,0-0.1,0-0.1,0c-0.2-0.1-0.3,0-0.5,0.1c-0.1,0.1-0.1,0.2-0.1,0.3c-0.1,0.1,0,0.3,0.1,0.4
	c0.1,0,0.2,0,0.3,0c0.1,0,0.1-0.1,0.2-0.1c0.4-0.3,0.7-0.6,0.9-0.9c0.1-0.1,0.2-0.2,0.3-0.3C37.1,27.1,37.4,26.9,37.7,26.6z
	 M13.4,13.9c0.1,0,0.1,0,0.2-0.1c0,0,0-0.1,0-0.1c0,0,0,0-0.1,0C13.5,13.8,13.5,13.8,13.4,13.9c-0.2-0.1-0.4,0-0.5,0.1
	c-0.3,0.3-0.6,0.5-1,0.6c-0.1,0-0.1,0.1-0.2,0.1c-0.4,0.4-0.8,0.7-1.2,1c-0.2,0.1-0.4,0.3-0.5,0.5c-0.1,0.1-0.1,0.2-0.1,0.3
	c0,0,0,0.1,0.1,0.1c0,0,0.1,0,0.1,0c0.1-0.1,0.3-0.2,0.4-0.3c0.2-0.3,0.5-0.5,0.8-0.8c0.2-0.2,0.5-0.4,0.7-0.6
	c0.3-0.2,0.6-0.4,0.9-0.6C13.1,14.2,13.3,14.1,13.4,13.9z M27.8,22.7c0.2-0.2,0.5-0.3,0.8-0.5c0.1-0.2,0.2-0.3,0.3-0.4
	c0.2-0.1,0.3-0.3,0.4-0.5c0,0,0-0.1,0-0.2c0,0-0.1,0-0.2,0c-0.3,0.2-0.6,0.4-0.8,0.7c-0.2,0.2-0.4,0.3-0.5,0.5
	c-0.2,0.4-0.6,0.6-0.9,0.9c-0.2,0.1-0.4,0.3-0.6,0.4c0,0,0,0.1,0,0.2c0,0,0.1,0.1,0.2,0c0.1,0,0.2-0.1,0.2-0.2
	c0.2-0.2,0.5-0.4,0.7-0.4c0.1-0.1,0.1-0.2,0.2-0.3C27.6,22.9,27.7,22.8,27.8,22.7L27.8,22.7L27.8,22.7z M23.3,12
	c0-0.2,0.1-0.3,0.1-0.5c-0.1,0-0.1,0-0.2,0c-0.3,0.2-0.6,0.4-0.9,0.5c-0.3,0.1-0.5,0.3-0.7,0.5c-0.1,0.1-0.2,0.2-0.3,0.3
	c-0.1,0.1,0,0.2,0,0.2c0.2,0.1,0.3,0.2,0.5,0.2c0.1,0,0.2,0,0.2-0.1c0.1-0.1,0.2-0.2,0.3-0.3c0.1-0.1,0.2-0.2,0.3-0.3
	c0.1-0.1,0.2-0.1,0.3-0.1c0.1-0.1,0.1-0.2,0.2-0.3C23.2,12.1,23.3,12.1,23.3,12L23.3,12L23.3,12z M37.1,29.2L37.1,29.2L37.1,29.2
	c-0.2,0.1-0.4,0.1-0.5,0.3c0.1,0.1,0.1,0.1,0.2,0.1c0.1,0.1,0.1,0.2,0,0.3c-0.3,0.1-0.4,0.4-0.6,0.6c-0.1,0.1-0.1,0.2-0.2,0.2
	c-0.3,0.2-0.5,0.4-0.8,0.5c-0.2,0.1-0.2,0.2-0.2,0.3c0,0.1,0,0.1,0.1,0.2c0,0,0.1,0.1,0.2,0c0.2-0.1,0.4-0.2,0.6-0.3
	c0.1,0.1,0.1,0.3,0.2,0.4c-0.1,0-0.1,0.1-0.1,0.1c-0.2,0.1-0.4,0.2-0.6,0.3c-0.1,0.1-0.2,0.2-0.3,0.3c-0.1,0.3-0.2,0.6-0.3,0.9
	c0,0,0,0.1,0,0.1c0,0,0,0,0.1,0c0.1-0.1,0.3-0.2,0.4-0.3c0.1-0.1,0.2-0.2,0.3-0.2c0.4-0.1,0.7-0.5,1.1-0.7c0.1,0,0.1-0.1,0.1-0.1
	c0.2-0.3,0.5-0.5,0.8-0.8c0,0.1,0.1,0.1,0.1,0.2c0,0,0.1,0,0.1,0c0,0,0,0,0,0c0-0.1,0-0.2-0.1-0.3C37,31,37,31,36.9,30.8
	c-0.1,0.1-0.1,0.1-0.2,0.2c-0.1,0.1-0.2,0.1-0.2,0.2c-0.2,0.1-0.3,0.2-0.5,0.2c-0.1,0-0.2,0-0.3,0c0.2-0.2,0.3-0.3,0.6-0.4
	c0.3-0.2,0.6-0.3,0.8-0.6c0.2-0.2,0.4-0.4,0.7-0.7c0,0,0.1-0.1,0.1-0.1c0,0,0,0,0-0.1c0,0,0,0,0,0c-0.2,0.1-0.3,0.2-0.5,0.3l0,0
	C37.2,29.6,37.1,29.5,37.1,29.2z M12.5,26.3L12.5,26.3L12.5,26.3c0.2,0,0.3,0,0.4-0.1c0.2-0.1,0.3-0.3,0.5-0.4
	c0.4-0.3,0.7-0.6,1.1-0.9c0.1-0.1,0.1-0.1,0.2-0.2c0,0,0-0.2,0-0.2c-0.2-0.2-0.4-0.3-0.7-0.3c-0.3,0.2-0.6,0.4-0.9,0.7
	c-0.1,0.1-0.2,0.3-0.2,0.5l0,0c0.1,0,0.2-0.1,0.3-0.1c0.1,0,0.1-0.2,0.2-0.1c0,0.2-0.2,0.5-0.3,0.6C12.8,25.8,12.7,26.1,12.5,26.3z
	 M11.6,24.1c0.1-0.1,0.1-0.1,0.2-0.2c0,0,0.1-0.1,0.1-0.1c0,0,0-0.1,0-0.1c0,0-0.1,0-0.1,0C11.6,23.8,11.6,24,11.6,24.1
	c-0.6,0.2-0.7,0.4-0.4,0.9c0,0.1,0.1,0.1,0.1,0.2c0.1,0.1,0.3,0.1,0.3,0c0.1-0.1,0.2-0.2,0.2-0.3c0.2-0.2,0.3-0.5,0.5-0.7
	c0.1-0.2,0.3-0.4,0.5-0.5c0.1,0,0.1-0.1,0.1-0.1c0.1-0.1,0.1-0.2,0.2-0.2c0.1-0.1,0.2-0.1,0.3-0.2c0-0.1,0-0.2-0.1-0.3
	c0,0-0.1,0-0.1,0c-0.1,0-0.1,0.1-0.2,0.2c0,0.1-0.1,0.1-0.2,0.2c-0.1,0-0.1-0.1-0.1-0.2c0-0.1,0-0.3,0.1-0.4c0,0,0.1-0.1,0.1-0.2
	c0,0,0-0.1-0.1-0.1c0,0-0.1,0-0.2,0c-0.2,0.2-0.2,0.4-0.3,0.6c0,0.1,0,0.1,0.1,0.1c0,0,0,0,0,0.1c0,0.1,0,0.1-0.1,0.1
	c0,0-0.1,0-0.1,0c-0.1-0.1-0.1-0.2-0.2-0.2c-0.1-0.1,0-0.2-0.2-0.2c0,0,0,0,0,0c0,0.2,0,0.4,0,0.6c0,0,0.1,0,0.1,0.1
	c0.3,0.2,0.3,0.4,0.1,0.6c-0.1,0.1-0.2,0.2-0.4,0.2c-0.2,0-0.3,0.1-0.4,0.3c-0.1-0.1-0.1-0.2-0.1-0.3C11.5,24.2,11.5,24.1,11.6,24.1
	z M21,5c-0.1,0-0.2,0-0.3,0c-0.2,0.1-0.4,0.2-0.6,0.4c-0.1,0.1,0,0.1,0.1,0.2c-0.2,0.2-0.4,0.4-0.6,0.5c-0.5,0.4-1.1,0.7-1.6,1.1
	c-0.1,0.1-0.2,0.2-0.2,0.3l0,0c0.2,0,0.4-0.2,0.6-0.2c0.1-0.1,0.3-0.2,0.4-0.2c0.3-0.1,0.6-0.2,0.8-0.4c0.2-0.1,0.3-0.2,0.5-0.3
	c0,0.1-0.1,0.1-0.1,0.2c-0.4,0.4-0.9,0.7-1.3,1c-0.1,0-0.1,0.1-0.2,0.1c-0.2,0.2-0.4,0.3-0.6,0.5c-0.3,0.2-0.5,0.3-0.8,0.5
	c-0.1,0.1-0.2,0.1-0.3,0.2c-0.2,0.2-0.4,0.3-0.6,0.4c-0.2,0.1-0.4,0.3-0.6,0.5c-0.2,0.1-0.4,0.3-0.7,0.4c-0.1,0.1-0.3,0.1-0.3,0.2
	c-0.2,0.2-0.5,0.4-0.8,0.5c-0.2,0.1-0.4,0.3-0.6,0.4c-0.2,0.1-0.3,0.3-0.6,0.3c-0.1,0-0.2,0.1-0.2,0.2c-0.2,0.1-0.3,0.3-0.6,0.4
	c-0.4,0.2-0.8,0.5-1.2,0.7c-0.1,0.2-0.3,0.3-0.5,0.4c-0.1,0.1-0.2,0.2-0.3,0.3c0,0,0,0.1,0,0.1c0.1,0,0.2-0.1,0.3-0.1
	c0.3-0.2,0.7-0.4,1.1-0.5c0.3-0.2,0.6-0.3,0.9-0.5c0.6-0.4,1.1-0.8,1.6-1.2c0.3-0.3,0.6-0.5,1-0.7c0.7-0.4,1.3-0.8,1.9-1.3
	c0.1-0.1,0.2-0.1,0.3-0.2c0.2,0,0.3-0.1,0.5-0.3c0.1-0.1,0.3-0.2,0.4-0.3c0.3-0.2,0.6-0.5,1-0.7c0.1,0,0.1-0.1,0.1-0.1
	c0.2-0.3,0.5-0.4,0.7-0.6C20,7,20.4,6.7,20.7,6.3c0.1-0.1,0.2-0.1,0.2-0.2c0,0,0-0.1,0-0.1c-0.2,0-0.3,0.1-0.5,0.1
	c0-0.1,0.1-0.1,0.1-0.2c0.4-0.3,0.8-0.5,1.2-0.9C21.9,5,22,5,22.2,5l0,0c-0.1,0.1-0.1,0.2-0.2,0.2c0,0,0,0.1,0,0.1c0,0,0,0,0.1,0
	c0.1-0.1,0.3-0.2,0.4-0.4C23,4.7,23.5,4.4,24,4c0,0,0.1-0.1,0.1-0.1c0.1-0.1,0.3-0.3,0.4-0.4c0,0,0-0.1,0-0.1c0,0-0.1,0-0.1,0
	c-0.3,0.1-0.6,0.3-0.8,0.5c-0.1,0.1-0.2,0.2-0.3,0.3C23,4.4,22.7,4.6,22.5,5c-0.1-0.1-0.1-0.3,0-0.4c0.1-0.1,0.2-0.2,0.2-0.3l0,0
	c-0.3,0.1-0.5,0.3-0.8,0.4c-0.4,0.2-0.8,0.5-1.2,0.7c-0.2,0.1-0.4,0.1-0.6,0.2c0.1-0.1,0.1-0.2,0.2-0.2C20.6,5.3,20.8,5.1,21,5
	c0.1,0,0.1-0.1,0.2-0.1c1-0.6,2-1.3,2.9-2c0.3-0.2,0.7-0.5,1-0.7c0.2-0.1,0.3-0.3,0.4-0.4c0.3-0.2,0.6-0.4,0.9-0.6
	c0,0,0.1-0.1,0.1-0.1c0,0,0-0.1,0-0.1c0,0,0,0,0,0c-0.1,0-0.2,0-0.3,0.1c-0.2,0.1-0.3,0.2-0.5,0.2c0.1-0.1,0.1-0.1,0.2-0.2
	c0,0,0-0.1,0-0.1c-0.2-0.1-0.5-0.1-0.6,0.2c-0.1,0.1-0.2,0.2-0.3,0.2c-0.2,0.1-0.4,0.3-0.7,0.4C24,2,23.5,2.2,23.2,2.6
	C23,2.7,22.8,2.9,22.6,3c-0.7,0.5-1.4,1-2.1,1.6c-0.6,0.5-1.3,0.9-1.9,1.4c-0.6,0.4-1.1,0.8-1.7,1.2c-0.3,0.2-0.7,0.4-1,0.7
	c-0.3,0.3-0.6,0.5-1,0.7c0,0-0.1,0-0.1,0.1c-0.5,0.4-1,0.7-1.6,1C13,9.7,12.8,9.8,12.6,10c-0.2,0.1-0.5,0.3-0.7,0.4
	c-0.6,0.4-1.2,0.8-1.8,1.3l0,0l0,0c0.1,0,0.2,0,0.3,0c0.4-0.2,0.8-0.4,1.1-0.6c0.6-0.4,1.2-0.8,1.9-1.2c0.1,0,0.1-0.1,0.1-0.1
	c0.3-0.2,0.5-0.4,0.8-0.5c0.9-0.4,1.7-1,2.4-1.6c0.5-0.5,1.1-0.9,1.7-1.3c0.4-0.3,0.8-0.6,1.2-0.8c0.3-0.2,0.6-0.4,0.8-0.6
	c0.2-0.2,0.5-0.4,0.7-0.5c0.3-0.2,0.5-0.3,0.8-0.6c0.1-0.1,0.3-0.2,0.4-0.3c0.1-0.1,0.2-0.1,0.4-0.2c0.8-0.5,1.6-1.1,2.3-1.7
	c0.1-0.1,0.2-0.1,0.3-0.2c-0.1,0.2-0.3,0.3-0.4,0.5c-0.1,0.1-0.3,0.2-0.4,0.3c-0.5,0.3-0.9,0.7-1.4,1c-0.2,0.1-0.4,0.2-0.5,0.4
	c-0.5,0.3-1,0.7-1.5,1.1C21,4.8,21,4.9,21,5z M8.7,35.2c0.1,0,0.1,0,0.2,0c0,0,0,0,0,0c0,0,0,0,0,0c0,0-0.1,0-0.1,0
	C8.8,35.1,8.8,35.2,8.7,35.2c-0.2,0-0.4,0-0.6,0.1c-0.1,0.1-0.2,0.1-0.3,0.1c-0.2,0-0.4,0.2-0.6,0.3C7,35.9,6.7,36,6.5,36.2
	c0,0.1-0.1,0.1-0.2,0.1c-0.2,0.2-0.4,0.1-0.6,0l0,0c0.2-0.1,0.3-0.2,0.5-0.3c0.2-0.1,0.3-0.2,0.4-0.3c0.3-0.3,0.6-0.4,1-0.6
	c0.1,0,0.1-0.1,0.2-0.1c0,0,0-0.1,0-0.1c0,0,0,0,0,0c-0.4,0.1-0.8,0.3-1.1,0.5c-0.4,0.3-0.8,0.6-1.3,0.8c-0.2,0.1-0.3,0.2-0.5,0.3
	c0,0,0,0.1,0,0.2c0.2,0.1,0.5,0.2,0.7,0.2c0.1,0,0.2,0,0.2,0c0.4-0.1,0.7-0.3,1-0.5c0.4-0.3,0.9-0.6,1.4-0.8
	C8.5,35.5,8.6,35.4,8.7,35.2z M23.9,37.2c0,0.1-0.1,0.2-0.2,0.3c-0.3,0.1-0.6,0.3-0.9,0.4c-0.1,0-0.2-0.1-0.2-0.1
	c-0.1,0-0.2,0-0.3,0.1c0,0-0.1,0.1-0.1,0.1c0,0,0.1,0.1,0.1,0.1c0.4,0.1,0.7,0.1,1.1,0c0.1-0.1,0.3-0.1,0.4-0.1
	C24,38,24,38.1,24.2,38c0.1,0,0.3,0,0.4-0.2c0.1-0.1,0.1-0.2,0.2-0.2c0.4-0.3,0.8-0.6,1.2-0.9c0.4-0.3,0.7-0.6,1-0.9
	c0,0,0-0.1,0-0.1c-0.1,0-0.2,0.1-0.3,0.1c-0.1,0-0.3,0.1-0.4,0.1c-0.1,0.1-0.2,0.3-0.3,0.4c-0.1,0.1-0.2,0.2-0.3,0.3
	c-0.4,0.2-0.8,0.5-1.2,0.8c-0.1,0.1-0.2,0.1-0.3,0.2c0,0-0.1,0-0.1,0c0,0,0-0.1,0-0.1c0,0,0-0.1,0.1-0.1c0.3-0.2,0.6-0.5,0.9-0.7
	c0,0,0.1-0.1,0.1-0.1c0,0,0-0.1,0-0.1c0,0,0,0-0.1,0C24.7,36.7,24.2,36.9,23.9,37.2c0-0.1,0-0.2-0.1-0.3c0-0.1-0.2-0.1-0.2-0.1
	c-0.1,0.1-0.1,0.2-0.1,0.3c0,0,0,0.1,0.1,0.1C23.6,37.2,23.7,37.2,23.9,37.2z M28.5,1.5c-0.1,0.2-0.3,0.4-0.5,0.4
	c-0.3,0.1-0.6,0.4-0.9,0.6c-0.2,0.1-0.4,0.3-0.7,0.4c0,0,0.1-0.1,0-0.1c0,0,0,0.1,0,0.1c-0.3,0.2-0.3,0.2-0.6,0.3c0,0,0,0,0,0.1
	c0,0.2-0.1,0.3-0.3,0.4c-0.1,0.1-0.2,0.1-0.3,0.2c-0.2,0.2-0.4,0.4-0.6,0.6c0,0,0,0.1,0,0.2c0,0,0.1,0,0.1,0c0.2,0,0.3-0.1,0.4-0.2
	l0,0c0.2-0.1,0.4-0.2,0.6-0.4C25.7,4,25.8,4,25.9,3.9c0.2-0.2,0.5-0.3,0.7-0.5c0.3-0.3,0.7-0.6,1-0.8c0.1,0,0.2-0.1,0.2-0.2
	c0.4-0.3,0.8-0.6,1.3-0.9c0.1,0,0.1-0.1,0.2-0.1c0.1,0,0.1-0.2,0-0.2c0-0.1-0.1-0.1-0.2-0.1c-0.1,0.1-0.2,0.1-0.4,0.2
	c0-0.1-0.1-0.2-0.1-0.3c-0.2,0-0.3,0-0.3,0c-0.2,0.2-0.3,0.3-0.5,0.5c0,0,0,0.1,0,0.2c0,0,0.1,0,0.1,0C28.1,1.6,28.3,1.5,28.5,1.5z
	 M31.7,38.3L31.7,38.3L31.7,38.3c0.1,0,0.3-0.1,0.4-0.1c0.2-0.2,0.5-0.3,0.7-0.4c0.2-0.1,0.4-0.2,0.6-0.3c0.3-0.2,0.6-0.5,0.9-0.7
	c0.3-0.3,0.7-0.6,1.1-0.9c0.4-0.3,0.7-0.5,1-0.8c0.2-0.2,0.4-0.4,0.5-0.6c0-0.1,0-0.1,0-0.2c0,0-0.1-0.1-0.1-0.1
	c-0.1,0-0.2,0.1-0.3,0.1c-0.6,0.5-1.2,0.9-1.8,1.4c-0.5,0.4-0.9,0.8-1.4,1.2c-0.2,0.1-0.3,0.3-0.5,0.4C32.5,37.7,32.1,38,31.7,38.3z
	 M36.1,25.9L36.1,25.9c0.1,0,0.3,0,0.4,0.1c-0.2,0.4-0.6,0.6-0.9,0.8c-0.1,0.2,0,0.3-0.2,0.4c-0.1,0-0.2,0.1-0.3,0.1
	c-0.1,0-0.2,0.1-0.2,0.2c0,0.1,0,0.2,0.1,0.2c0.1,0,0.1,0,0.2,0c0.2-0.1,0.5-0.2,0.6-0.4c0.3-0.2,0.6-0.5,0.9-0.8
	c0.4-0.3,0.7-0.6,1.2-0.9c0,0,0,0,0,0c0.2-0.1,0.2-0.3,0.2-0.5c0-0.2-0.1-0.3,0-0.5c0-0.1,0.1-0.2,0-0.3c-0.1-0.1-0.3,0-0.4,0.1
	c-0.2,0.1-0.4,0.2-0.6,0.3c-0.1,0.2-0.3,0.4-0.4,0.6c-0.1,0.1,0,0.2,0,0.3c0.1,0.1,0.1,0,0.2-0.1c0,0,0.1-0.1,0.1-0.1
	c0,0,0.1,0,0.1,0c-0.1,0.3-0.2,0.5-0.5,0.5c0,0-0.1,0-0.1-0.1c0,0,0-0.1-0.1-0.1c-0.1-0.2-0.3-0.2-0.5,0
	C36.2,25.7,36.2,25.8,36.1,25.9z M4.2,34.3c0-0.1,0.1-0.2,0.1-0.2c0-0.1,0.1-0.1,0.2-0.2c0.1-0.1,0.1-0.2,0.1-0.3
	c-0.1-0.1-0.1-0.2-0.2-0.3c0-0.1-0.1-0.1-0.2-0.1c-0.1,0-0.2,0.1-0.3,0.1c-0.1,0-0.2,0-0.2-0.1c0-0.1,0.1-0.1,0.1-0.2
	c0,0,0-0.1,0-0.1c0,0-0.1,0-0.1,0c-0.1,0.1-0.2,0.1-0.2,0.2c-0.1,0.2-0.2,0.3-0.3,0.5c-0.1,0.1-0.2,0.1-0.4,0.2c-0.1,0-0.1,0-0.2,0
	c0,0-0.1-0.1,0-0.2c0.1-0.1,0-0.3,0-0.4c0.1-0.1,0.2-0.1,0.3-0.2C2.8,33.1,2.9,33,3,33c0,0,0,0,0,0.1c0,0,0,0,0,0c0,0,0-0.1,0-0.1
	c0.1,0,0.2-0.1,0.3-0.1c0.1,0,0.1-0.1,0.1-0.1c0.1-0.2,0.1-0.3,0.2-0.5c0,0,0-0.1,0-0.1c0,0-0.1,0-0.2,0c-0.1,0-0.1,0.1-0.1,0.1
	c-0.2,0.1-0.3,0.2-0.5,0.3c-0.3,0.2-0.6,0.4-0.9,0.6c-0.1,0.1-0.2,0.2-0.3,0.3c0,0.1,0.1,0.2,0.1,0.3c0,0.2,0.2,0.2,0.3,0.4
	c0,0.1,0,0.1-0.1,0.2c0,0.1,0,0.2,0.1,0.3c0.2,0.1,0.2,0.2,0.2,0.4c0,0.1,0.2,0.2,0.3,0.1C2.7,35,2.8,35,2.9,34.9
	C3.3,34.6,3.7,34.4,4.2,34.3c0,0.1-0.1,0.3-0.2,0.4c-0.2,0-0.4,0.2-0.6,0.3c-0.2,0.1-0.3,0.2-0.5,0.5c0.2,0.2,0.3,0.3,0.5,0.2
	c0.3-0.1,0.6-0.3,1-0.5c0,0,0.1,0,0.1,0.1c0,0,0,0,0,0.1c-0.1,0.1-0.1,0.1-0.2,0.2c-0.1,0.1-0.3,0.2-0.4,0.3c0,0,0,0.1,0,0.1
	c0,0,0,0,0,0c0.1,0,0.2,0,0.2,0c0.5-0.3,1-0.6,1.5-1c0,0,0.1-0.1,0.1-0.1c0-0.1-0.1-0.1-0.2-0.1c-0.1,0-0.1,0-0.2,0
	c-0.1,0-0.1-0.1-0.1-0.1c0-0.1,0.1-0.2,0.2-0.2C5.1,34,5,34,4.8,34.1c-0.1,0-0.2,0.1-0.3,0.1C4.4,34.2,4.3,34.2,4.2,34.3z
	 M36.9,14.1c0.2-0.2,0.4-0.5,0.6-0.7c0.2-0.2,0.5-0.4,0.8-0.6c0-0.3,0.1-0.6,0.2-0.9c0-0.1,0-0.1,0-0.2c0.1-0.3,0-0.5-0.2-0.6
	c0.1-0.1,0.2-0.2,0.2-0.3c0,0,0-0.1,0-0.2c0,0,0-0.1,0-0.1c0,0-0.1-0.1-0.2,0c-0.1,0.1-0.2,0.1-0.2,0.2c-0.2,0.2-0.3,0.3-0.5,0.5
	c-0.2,0.1-0.3,0.3-0.4,0.4c-0.1,0.1-0.3,0.2-0.5,0.4c-0.1,0.1-0.1,0.2-0.2,0.3c-0.1,0.1-0.2,0.2-0.3,0.3c-0.2,0.1-0.4,0.3-0.6,0.5
	c0,0,0,0.1,0,0.1c0,0,0,0,0,0c0,0,0,0,0.1,0c0.1-0.1,0.2-0.1,0.2-0.2c0.3-0.3,0.5-0.5,0.9-0.7c0.1,0,0.2-0.1,0.2-0.2
	c0.4-0.4,0.8-0.8,1.2-1.1c0,0.2,0,0.4-0.2,0.5c-0.2,0.1-0.3,0.2-0.4,0.4c0,0.1,0,0.2,0,0.2c0.1,0.3-0.2,0.5-0.4,0.5
	c-0.1,0-0.2,0-0.3,0c-0.1,0-0.2,0-0.2,0c-0.1,0.1-0.2,0.1-0.2,0.3c0,0.1,0.1,0.1,0.2,0.1l0,0c0,0.1,0,0.2-0.1,0.2
	c-0.1,0.1-0.2,0.2-0.3,0.3c-0.1,0.1-0.3,0.1-0.4,0c-0.1-0.1-0.2,0.1-0.2,0.2c0,0,0,0,0,0.1c0,0.2,0,0.4,0,0.6
	c-0.1,0.2-0.3,0.2-0.5,0.3c-0.1,0.1-0.2,0.1-0.4,0.2c-0.1,0-0.2,0.1-0.2,0.2c-0.1,0.1-0.1,0.2,0,0.3c0.1,0.1,0.1,0.1,0.2,0.1
	c0.2,0,0.3-0.1,0.5-0.2c0.3-0.3,0.6-0.6,1-0.7c0.2-0.1,0.4-0.3,0.5-0.5C36.9,14.2,36.9,14.2,36.9,14.1
	C36.9,14.2,36.9,14.2,36.9,14.1c0.1,0.1,0.1,0.1,0.1,0.1c0,0,0,0,0,0C37,14.2,36.9,14.2,36.9,14.1z M19.2,37.6
	c0.1,0.2,0.1,0.3,0.2,0.3c0.1,0,0.3,0,0.4-0.1c0.2-0.1,0.5-0.3,0.7-0.4c0.1-0.1,0.3-0.2,0.4-0.3c0.2-0.1,0.4-0.2,0.6-0.4
	c0.2-0.1,0.5-0.2,0.7-0.2c0.1,0,0.2,0.1,0.2,0.1c0,0.1,0,0.3-0.1,0.3c0,0,0,0-0.1,0c-0.4,0.1-0.7,0.5-1,0.7c0,0,0,0.1,0,0.1
	c0,0,0.1,0,0.1,0.1c0.1,0,0.1,0,0.2,0c0.3-0.1,0.5-0.2,0.7-0.4c0.1-0.1,0.2-0.2,0.3-0.3c0.1-0.1,0.2,0,0.2,0.1c0,0,0,0.1,0,0.1
	c0,0-0.1,0-0.1,0c0,0,0,0,0,0c0,0,0.1-0.1,0.1-0.1c0.2,0,0.2,0,0.2-0.1c0-0.1,0-0.2,0-0.2c0.2-0.2,0.4-0.4,0.7-0.6
	c0.2-0.1,0.3-0.2,0.4-0.3c0.1-0.1,0.2-0.2,0.3-0.2c0.2-0.1,0.4-0.3,0.4-0.5c0,0,0,0,0-0.1c0,0-0.1,0-0.1-0.1c0,0,0,0-0.1,0
	c-0.4,0.2-0.8,0.3-1.1,0.6c-0.2,0.2-0.4,0.3-0.6,0.4c-0.1,0-0.2,0-0.2,0c-0.1-0.1,0-0.1,0-0.2c0,0,0-0.1,0.1-0.1c0,0-0.1-0.1-0.1,0
	c-0.1,0-0.2,0.1-0.3,0.1c-0.1,0-0.2,0-0.2,0c0-0.1,0-0.1,0.1-0.2c0.1-0.1,0.2-0.1,0.2-0.2c0.2-0.1,0.4-0.3,0.6-0.5c0,0,0-0.1,0-0.1
	c0,0,0,0-0.1,0c-0.2,0.1-0.4,0.3-0.6,0.4c-0.3,0.2-0.7,0.4-1.1,0.5c0,0.2-0.1,0.3-0.2,0.4c-0.3,0.1-0.5,0.2-0.7,0.4
	c-0.3,0.2-0.7,0.5-1.1,0.7C19.4,37.6,19.3,37.6,19.2,37.6c-0.1,0-0.1-0.1-0.1-0.2c-0.1,0-0.2,0.1-0.4,0.1c-0.1,0-0.2,0.2-0.4,0.1
	c0,0,0-0.1,0-0.1c0.2-0.3,0.5-0.3,0.7-0.6c0,0,0,0,0,0c-0.5,0.1-1,0.4-1.4,0.8c0,0,0,0.1,0,0.1c0,0,0.1,0.1,0.1,0.1
	c0.2,0,0.5,0,0.7,0c0.2,0,0.3,0,0.4-0.1C18.9,37.7,19.1,37.7,19.2,37.6z M33.8,13.5L33.8,13.5L33.8,13.5c0.1,0,0.1,0,0.2,0
	c0.2-0.1,0.4-0.2,0.5-0.4c0.2-0.2,0.4-0.3,0.6-0.5c0.1-0.1,0.2-0.1,0.2-0.2c0.6-0.5,1.2-1.1,1.9-1.6c0.4-0.3,0.8-0.8,1.2-1.2
	c0.1-0.1,0.2-0.2,0.3-0.3c0-0.3,0-0.5-0.1-0.7c0-0.2,0-0.3,0-0.5c0-0.2,0-0.5,0-0.7c0-0.2,0-0.3-0.2-0.4c-0.5,0.2-0.6,0.4-0.9,0.7
	C37.1,8.4,36.6,9,36,9.4c-0.1,0.1-0.1,0.2-0.1,0.3l0,0c0.3-0.1,0.6-0.2,0.8-0.5c0-0.1,0.1-0.1,0.2-0.2c0.2-0.2,0.4-0.3,0.6-0.6
	c0.1-0.1,0.1-0.1,0.2-0.2c0.2-0.1,0.3-0.2,0.3-0.4c0,0,0-0.1,0.1-0.2c0,0,0.1,0,0.1,0c0,0,0.1,0,0.1,0.1c0,0.3,0,0.6,0,0.9
	c0,0.2-0.1,0.3-0.2,0.5l0,0c0,0,0-0.1,0-0.1c0-0.1-0.1-0.1-0.2-0.1c-0.2,0.1-0.2,0.3-0.2,0.6c-0.2,0.2-0.3,0.3-0.5,0.5
	c0-0.1-0.1-0.1-0.2-0.1c0,0-0.1,0-0.1,0.1c0,0,0,0.1,0,0.1c0.1,0,0.1,0,0.2,0c-0.1,0.1-0.1,0.2-0.2,0.3c-0.1,0.1-0.3,0.3-0.4,0.4
	c-0.2,0.3-0.5,0.5-0.7,0.7c-0.1,0.1-0.2,0.2-0.3,0.3c-0.4,0.5-0.9,1-1.4,1.3C33.9,13.2,33.8,13.3,33.8,13.5z M8.7,6.9
	C8.5,7.1,8.3,7.1,8.2,7.2l0,0l0,0C8.1,7.2,8,7.3,7.9,7.3l0,0l0,0c0,0.1,0,0.2,0,0.2c0,0-0.1,0.1-0.1,0.1C7.5,7.7,7.3,7.8,7.1,8
	C7,8.1,6.9,8.2,6.8,8.3C6.7,8.3,6.5,8.4,6.3,8.5C6.2,8.6,6,8.7,5.9,8.8C5.8,8.9,5.7,8.9,5.6,9c0,0-0.1,0.1-0.1,0.1c0,0,0,0.1,0,0.1
	c0,0,0.1,0.1,0.1,0.1c0.1,0,0.1,0,0.2,0C6.1,9,6.5,8.8,6.8,8.6c0.5-0.3,1-0.6,1.5-0.9c0.3-0.2,0.6-0.5,0.9-0.6
	c0.3-0.3,0.7-0.4,1-0.7c0.6-0.5,1.3-0.9,1.9-1.3c0.2-0.1,0.4-0.3,0.7-0.4c0.5-0.2,0.9-0.4,1.3-0.8c0.4-0.2,0.8-0.6,1.3-0.8
	c0.1,0,0.1-0.1,0.1-0.1c0.5-0.3,1-0.7,1.5-1c0.1,0,0.1-0.1,0.2-0.1c0.1-0.1,0.3-0.1,0.4-0.2c0.2-0.2,0.5-0.3,0.8-0.5
	c0.2-0.1,0.3-0.2,0.4-0.3c0,0,0-0.1,0-0.2c0,0-0.1-0.1-0.1-0.1c-0.2-0.1-0.3-0.1-0.5,0c-0.1,0-0.1,0.1-0.1,0.2
	c0.1,0.2,0,0.3-0.2,0.4c-0.2,0.1-0.4,0.2-0.7,0.3c-0.3,0.1-0.6,0.3-0.9,0.5c-0.3,0.3-0.7,0.5-1,0.7C15.1,2.8,15,2.9,14.8,3
	c-0.2,0.1-0.4,0.2-0.5,0.4c-0.2,0.2-0.4,0.3-0.6,0.4c-0.1,0-0.2,0.1-0.3,0.2c-0.2,0.1-0.4,0.3-0.6,0.4c-0.2,0.1-0.4,0.4-0.6,0.5
	C12.1,4.9,12,5,11.9,5c-0.1,0.1-0.2,0.1-0.3,0.2c-0.2,0.2-0.4,0.3-0.6,0.5c-0.1,0.1-0.3,0.2-0.4,0.3c-0.2,0.1-0.3,0.2-0.5,0.3
	C10,6.3,9.8,6.4,9.6,6.4C9.5,6.5,9.3,6.6,9.2,6.7C9,6.9,8.8,6.8,8.7,6.9L8.7,6.9z M24.4,10.1c0.2-0.4,0.5-0.7,0.9-0.8
	c0.3-0.1,0.6-0.3,0.8-0.6c0.1-0.2,0.2-0.3,0.4-0.3c0.4-0.2,0.8-0.4,1.1-0.6c0-0.1,0.1-0.2,0.1-0.2c0-0.1,0-0.1,0-0.2
	c0-0.1-0.1-0.1-0.1-0.1c0,0-0.1,0-0.1,0c-0.1,0.1-0.2,0.1-0.3,0.2c-0.2,0.2-0.4,0.4-0.7,0.6c-0.1,0-0.1,0.1-0.2,0.1
	c-0.5,0.4-1,0.7-1.6,1.1c0-0.1-0.1-0.1-0.1-0.2c0-0.1,0.1-0.2,0.2-0.3c0.2-0.1,0.3-0.2,0.5-0.3c0.1-0.1,0.3-0.2,0.5-0.3
	c0.2-0.1,0.3-0.3,0.5-0.4c0.1-0.1,0.2-0.1,0.3-0.2c0.3-0.2,0.6-0.4,0.8-0.6c0.1-0.1,0.2-0.2,0.3-0.4c0-0.1-0.1-0.1-0.1-0.1
	c-0.1,0-0.2,0-0.2,0.1c-0.3,0.2-0.6,0.4-0.9,0.6c-0.4,0.3-0.8,0.6-1.2,0.8c-0.1,0-0.1,0.1-0.2,0.1c-0.4,0.4-0.9,0.6-1.3,1
	c-0.1,0.1-0.2,0.1-0.3,0.2c-0.3,0.1-0.5,0.4-0.8,0.6c-0.1,0.1-0.2,0.2-0.3,0.2c-0.4,0.3-0.7,0.5-1.1,0.9c-0.1,0.1-0.3,0.2-0.4,0.3
	c-0.3,0.2-0.6,0.5-0.8,0.7c0,0,0,0,0,0.1c0,0,0,0,0,0c0.1,0,0.2-0.1,0.2-0.1c0.2-0.2,0.4-0.3,0.7-0.5c0.2-0.2,0.5-0.2,0.7-0.4l0,0
	c0.2-0.2,0.5-0.3,0.6-0.5c0.3-0.4,0.7-0.6,1.1-0.9c0.2-0.2,0.5-0.3,0.7-0.5c0,0,0.1,0,0.1,0c0,0,0,0.1,0,0.2c0,0.1-0.1,0.1-0.1,0.2
	c-0.3,0.3-0.6,0.6-1,0.8c-0.2,0.1-0.4,0.2-0.5,0.4c-0.4,0.4-0.8,0.6-1.2,0.9c-0.3,0.1-0.4,0.3-0.6,0.5c-0.1,0.2-0.2,0.3-0.4,0.4
	c-0.1,0-0.2,0.2-0.2,0.3c0,0,0,0.1,0,0.1c0,0,0.1,0.1,0.2,0c0.1,0,0.1-0.1,0.2-0.1c0.1-0.1,0.3-0.2,0.4-0.3c0.2-0.1,0.4-0.3,0.6-0.4
	c0.2-0.1,0.4-0.3,0.6-0.5c0.2-0.2,0.4-0.4,0.6-0.5c0.1-0.1,0.2-0.2,0.3-0.3c0.3-0.3,0.5-0.5,0.9-0.6C24.2,10.1,24.3,10.1,24.4,10.1
	L24.4,10.1L24.4,10.1z M20.6,28.7c-0.2,0-0.4,0.1-0.5,0.2c-0.2,0.3-0.4,0.4-0.7,0.5c-0.3,0.2-0.6,0.4-1,0.4c0,0,0,0-0.1,0
	c0,0-0.1,0.1-0.1,0.1c0,0,0.1,0.1,0.1,0.1c0.4,0.1,0.9,0.1,1.2-0.3c0-0.1,0.1-0.1,0.1-0.2c0.1-0.1,0.1-0.2,0.3-0.2
	C20.3,29.2,20.5,29,20.6,28.7c0,0,0.1,0,0.2,0c0.3-0.1,0.6-0.3,0.8-0.5c0.4-0.4,0.9-0.8,1.3-1.2c0.1-0.1,0.3-0.2,0.4-0.3
	c0,0,0.1,0,0.1,0c0,0,0,0,0,0.1c0,0.1-0.1,0.2-0.1,0.2c-0.2,0.2-0.3,0.3-0.4,0.5c-0.1,0.2-0.2,0.3-0.4,0.4c-0.3,0.1-0.5,0.4-0.6,0.7
	c-0.2,0.3-0.4,0.5-0.7,0.7c-0.2,0.2-0.5,0.4-0.7,0.5c-0.1,0.1-0.1,0.2-0.2,0.2c0,0,0,0.1,0.1,0.1c0.1,0,0.3,0,0.4-0.1
	c0.2-0.2,0.4-0.3,0.6-0.5c0.1-0.1,0.2-0.1,0.3-0.1l0,0c0,0.1,0,0.3,0,0.4c0,0.1,0,0.1,0.1,0.2c0.1,0,0.2-0.1,0.3-0.1
	c0.2-0.1,0.4-0.2,0.6-0.4c0,0,0,0,0,0c0.4-0.4,0.8-0.6,1.2-1c0,0,0.1-0.1,0.1-0.1c0.2-0.1,0.5-0.2,0.6-0.5c0,0,0.1-0.1,0.1-0.1
	c0.2-0.1,0.4-0.2,0.5-0.4c0.1,0.1,0.1,0.2,0.2,0.2c0,0,0.1,0,0.2,0c0,0,0.1,0,0.1-0.1c0-0.1,0-0.1,0-0.2c-0.1-0.1-0.2-0.1-0.4-0.1
	c0.2-0.1,0.3-0.3,0.5-0.4c0,0.1,0,0.2,0,0.2c0,0.1,0.1,0.2,0.2,0.1c0.1-0.1,0.2-0.2,0.4-0.3c0,0,0-0.1,0-0.2c0,0-0.1,0-0.1,0
	c-0.1,0-0.2,0-0.3,0.1c-0.1,0.1-0.2,0.1-0.2,0c0.1-0.2,0.1-0.4,0.3-0.5c0.1-0.1,0.1-0.1,0.1-0.2c0,0,0-0.1,0-0.1
	c0,0-0.1-0.1-0.1-0.1c-0.1,0-0.2,0-0.3,0.1c-0.1,0.1-0.3,0.1-0.5,0.1c0,0,0,0,0,0c0,0,0-0.1,0-0.1c0.2-0.1,0.3-0.2,0.5-0.2
	c0.1,0,0.2-0.1,0.2-0.2c0.1-0.2,0.2-0.4,0.4-0.6c0.1-0.1,0.1-0.2,0-0.3c-0.4,0.2-0.8,0.5-1.2,0.7c-0.3,0.2-0.5,0.3-0.6,0.6
	c0,0.1-0.1,0.1-0.1,0.1c-0.1,0.1-0.2,0.1-0.3,0c-0.1,0-0.1-0.1-0.2-0.1l0,0c0.1-0.2,0.3-0.3,0.5-0.5c0.3-0.3,0.6-0.6,1-0.7
	c0,0,0-0.1,0.1-0.1c0-0.1,0-0.2-0.2-0.2c-0.5,0.4-1,0.9-1.6,1.3c-0.1,0-0.1,0.2-0.2,0.2c-0.3,0.3-0.6,0.6-1,0.9
	c-0.1,0.1-0.2,0.1-0.3,0.2c-0.3,0.2-0.5,0.5-0.8,0.7c0,0-0.1,0.1-0.1,0.1C20.9,28.4,20.7,28.5,20.6,28.7z M34.5,16.7
	c-0.3-0.2-0.6-0.3-0.9-0.2c-0.2,0-0.4,0-0.6,0c-0.5-0.1-1.1-0.1-1.6,0c-0.4,0.1-0.8,0.2-1.2,0.3c-0.1,0-0.2,0.2-0.2,0.3
	c0.3,0.8,0.3,1.6,0.4,2.4c0.1,0.5,0,0.9-0.1,1.4c-0.2,0.5-0.3,1.1-0.4,1.7c0,0.1,0,0.2-0.1,0.3c-0.2,0.7-0.4,1.5-0.8,2.1
	c-0.1,0.1-0.1,0.3-0.2,0.4c0,0.1-0.1,0.2-0.1,0.3c-0.3,0.4-0.6,0.7-0.8,1.1c-0.1,0.1-0.2,0.3-0.3,0.4c-0.3,0.5-0.7,0.9-1.2,1.2
	c-0.2,0.1-0.4,0.3-0.6,0.5c-0.1,0.1-0.2,0.2-0.3,0.2c-0.3,0.2-0.5,0.3-0.8,0.5c-0.4,0.3-0.8,0.5-1.3,0.5c-0.2,0-0.3,0.1-0.5,0.1
	c-0.2,0.1-0.4,0.2-0.6,0.4c-0.2,0.2-0.5,0.3-0.7,0.1c-0.1-0.1-0.2-0.1-0.3-0.1c-0.4,0.1-0.8,0.1-1.1,0.1c-0.2,0-0.3,0-0.5,0.1
	c-0.2,0.1-0.4,0.1-0.6,0c-0.3-0.2-0.5-0.2-0.9-0.2c-0.2,0-0.4,0-0.5-0.1c-0.4-0.1-0.7-0.2-1.1-0.3c-0.1,0-0.3-0.1-0.4-0.1
	c-0.1,0-0.3,0-0.4,0c0,0-0.1,0-0.1,0c-0.2-0.3-0.4-0.5-0.7-0.4c-0.1,0-0.2,0-0.2-0.1c-0.3-0.3-0.7-0.5-1-0.7
	c-0.1-0.1-0.1-0.3-0.2-0.4c-0.1-0.1-0.3-0.2-0.4-0.3c-0.1-0.4-0.4-0.8-0.7-1.1c0,0-0.1-0.1-0.1-0.1c-0.2-0.3-0.4-0.6-0.7-0.8
	c-0.1-0.1-0.3-0.2-0.4-0.4c-0.1-0.2-0.2-0.4-0.4-0.5c-0.2-0.2-0.3-0.4-0.4-0.6c-0.2-0.4-0.2-0.4-0.5-0.7c-0.2-0.5-0.4-1.1-0.5-1.6
	C9.1,22,9.1,21.7,9,21.5c0-0.1,0-0.2,0-0.3c0.1-0.5,0.1-1,0-1.5c0-0.1,0-0.1,0-0.2c0-0.2,0-0.3,0-0.5c0-0.7,0.1-1.4,0.3-2.1
	c0-0.1,0-0.1,0-0.2c0-0.1-0.2-0.1-0.2-0.3c0.1-0.1,0.2-0.2,0.3-0.3c0.1-0.1,0.2-0.2,0.3-0.4c0.1-0.2,0-0.3-0.2-0.3
	c-0.2,0-0.4,0-0.6,0.1c-0.2,0.1-0.4,0.1-0.6,0.2c-0.2,0.1-0.2,0-0.3-0.2c0-0.1,0-0.1,0-0.2c-0.1-0.1-0.3-0.1-0.4-0.1
	c-0.2,0-0.4,0-0.6-0.1c-0.2-0.1-0.4-0.1-0.6-0.1c-0.5,0-1,0-1.4,0C5,15.3,5,15.4,5,15.5c-0.2,0.2-0.3,0.5-0.3,0.8c0,0.1,0,0.2,0,0.3
	c0,0.3-0.1,0.7-0.2,1c-0.1,0.2-0.1,0.4-0.1,0.6c0.1,0.7,0,1.4,0,2.1c0,0.2,0,0.5,0,0.7c0,0.2,0,0.3,0,0.5c-0.1,0.3-0.1,0.6-0.2,0.9
	c-0.1,0.2-0.1,0.5-0.1,0.7c0,0.6-0.1,1.1-0.2,1.7c-0.1,0.7-0.2,1.4,0,2.1c0,0.1,0,0.2,0,0.2c0,0.5,0,1,0,1.4c0,0.3,0,0.6,0,0.9
	c-0.1,0.8-0.1,1.6,0.1,2.4c0,0.2,0.1,0.3,0.2,0.4c0.2,0.2,0.3,0.5,0.4,0.7c0.1,0.2,0.2,0.4,0.5,0.4c0.1,0,0.2,0.1,0.3,0.2
	c0.1,0.1,0.2,0.2,0.3,0.3c0.2,0.1,0.5,0.2,0.7,0.3c0.1,0,0.2,0.1,0.3,0.1c0.2,0.1,0.3,0.1,0.5,0.1c0.3,0,0.6,0,0.9,0.1
	c0.4,0.1,0.8,0.1,1.2,0.2c0.1,0,0.2,0,0.2,0c0.5-0.1,1.1,0,1.6,0c0.1,0,0.2,0,0.4,0c0.3,0.1,0.5,0.1,0.8,0c0.6-0.1,1.1-0.1,1.7-0.1
	c0.8,0,1.6,0.1,2.4,0.2c0.6,0,1.1,0.1,1.7,0c0.2,0,0.4,0,0.5,0c0.4,0,0.8,0,1.3-0.1c0.2,0,0.4-0.1,0.7,0c1.3,0,2.7-0.1,4,0.1
	c0.3,0,0.6,0,0.8,0.2c0,0,0.1,0,0.2,0c0.3,0,0.6,0.1,0.8,0c0.8-0.1,1.6-0.1,2.4-0.2c0.2,0,0.4,0,0.5,0c0.4,0,0.8,0,1.1-0.1
	c0.4-0.1,0.9-0.1,1.3-0.1c0.6,0,0.6,0,1-0.2c0.1,0,0.2,0.2,0.4,0.2c0.2-0.1,0.3-0.2,0.5-0.4c0.1-0.1,0.2-0.2,0.2-0.4
	c0.1-0.6,0.3-1.2,0.4-1.7c0.1-0.4,0.2-0.8,0.2-1.2c0-0.3,0.1-0.6,0.1-0.9c0,0,0-0.1,0-0.1c0.2-0.7,0-1.4,0.1-2.1c0-0.1,0-0.1,0-0.2
	c0-0.1,0-0.2,0-0.3c0-0.5,0-1,0-1.4c0-0.2,0-0.4,0-0.5c0-1,0.1-2,0-3c0-0.1,0-0.2,0-0.3c0-0.4,0.1-0.7,0.1-1.1c0-0.2,0-0.3-0.1-0.4
	c-0.2-0.2-0.2-0.3-0.2-0.6c0-0.8,0.2-1.6,0.3-2.4C34.5,17.2,34.5,17,34.5,16.7z M13.2,20.2c-0.2,0.6-0.1,0.8,0.1,1.4
	c0,0.1,0.1,0.1,0.1,0.2c0.2,0.3,0.4,0.7,0.6,1c0.2,0.3,0.4,0.6,0.6,0.8c0.3,0.4,0.7,0.6,1.1,0.8c0.1,0.1,0.3,0.2,0.4,0.3
	c0.3,0.3,0.7,0.5,1,0.8c0.2,0.1,0.3,0.2,0.6,0.1c0.1,0,0.2,0,0.2,0.1c0.1,0.1,0.2,0.2,0.3,0.2c0.2,0,0.4,0,0.6,0.1
	c0.5,0.1,1,0.2,1.5,0c0.1,0,0.3,0,0.4,0c0.5-0.1,1-0.1,1.4-0.4c0.3-0.2,0.6-0.3,0.8-0.5c0.2-0.2,0.4-0.4,0.6-0.5
	c0.3-0.3,0.6-0.6,0.7-0.9c0-0.1,0.1-0.2,0.2-0.3c0.3-0.3,0.5-0.7,0.7-1.1c0.2-0.5,0.5-1.1,0.3-1.7c0-0.1,0-0.2,0-0.4
	c0.1-0.5,0.1-0.9,0.2-1.4c0.1-0.4,0-0.8-0.1-1.2c-0.1-0.5-0.3-0.9-0.6-1.3c-0.1-0.2-0.3-0.3-0.5-0.3c-0.1,0-0.2-0.1-0.2-0.1
	c0,0,0-0.1-0.1-0.2c-0.1-0.4-0.3-0.7-0.7-0.9c-0.3-0.2-0.6-0.4-0.8-0.6c-0.5-0.4-1.1-0.6-1.7-0.7c-0.1,0-0.2,0-0.3,0
	c-0.2,0.1-0.5,0-0.7,0c-0.1,0-0.2,0-0.4,0c-0.2,0-0.4,0-0.6,0c-0.2,0-0.4,0-0.6,0.1c-0.1,0.1-0.3,0.1-0.4,0.1c-0.4,0-0.7,0.1-1,0.3
	c-0.1,0-0.1,0.1-0.2,0.1c-0.4,0-0.7,0.1-1,0.3c-0.1,0.1-0.2,0.1-0.3,0.2c-0.2,0.4-0.6,0.7-0.9,1c-0.4,0.4-0.6,0.8-0.8,1.3
	c-0.1,0.2-0.2,0.5-0.3,0.7c-0.1,0.1-0.1,0.2-0.1,0.3c0,0.1,0.1,0.2,0.1,0.3c0,0.1-0.1,0.1-0.1,0.2c-0.2,0.2-0.2,0.4-0.2,0.6
	c0,0.2,0,0.4,0,0.5C13,19.9,13.1,20.1,13.2,20.2z M33.5,11.4c0.1-0.1,0.3-0.3,0.4-0.4c0.2-0.2,0.3-0.5,0.4-0.8c0-0.1,0-0.2,0-0.4
	c0-0.1,0-0.3,0-0.4c0-0.1,0-0.3,0.1-0.4c0-0.5,0.1-0.9,0.1-1.4c0-0.3,0-0.6,0.1-1c0-0.2,0-0.3,0-0.5c-0.1-0.4-0.4-0.6-0.7-0.6
	c-1,0-1.9-0.1-2.9-0.1c-0.2,0-0.3,0-0.5,0c-0.4,0.1-0.8,0.1-1.2,0.2c-0.2,0-0.3,0-0.5,0.1c-0.3,0.1-0.4,0.2-0.4,0.5
	c0,0.3-0.1,0.6,0,0.8c0,0.3,0,0.7,0.1,1c0,0.1,0,0.2,0,0.3c-0.1,0.5-0.1,0.5,0.2,0.9c0,0.1-0.1,0.2-0.1,0.3
	c-0.1,0.1-0.1,0.2-0.1,0.3c0,0.4,0,0.8,0.1,1.1c0,0.1,0.1,0.2,0.2,0.2c0.1,0,0.1,0,0.2,0c0.8,0.1,1.6,0.2,2.4,0.3
	C31.8,11.6,32.7,11.6,33.5,11.4z M35.1,8.6c0.2-0.1,0.3-0.2,0.4-0.3C35.8,8,36,7.6,36.3,7.4c0.1-0.3,0.4-0.5,0.7-0.7
	c0.1-0.2,0.1-0.4,0.2-0.6c0-0.1,0-0.1,0-0.2c0-0.1-0.1-0.3-0.3-0.2c-0.2,0.1-0.5,0.1-0.7,0.4c-0.1,0.1-0.2,0-0.3-0.1
	c0-0.1,0-0.2,0.1-0.3c0.1,0,0.1,0,0.2-0.1c0.2,0,0.3-0.1,0.4-0.3c0-0.1,0-0.2,0-0.3c0,0-0.1-0.1-0.1,0c-0.1,0-0.1,0.1-0.2,0.1
	c-0.2,0.2-0.5,0.5-0.7,0.7C35.4,6,35.2,6,35,6c0,0.1,0,0.1-0.1,0.2c-0.2,0.5-0.2,0.5,0.1,0.9c-0.1,0.2-0.1,0.4-0.2,0.6
	c-0.1,0.4-0.1,0.7,0.1,1c0,0,0.1,0,0.1,0c0,0,0,0,0,0C35.1,8.7,35.1,8.7,35.1,8.6z M29,11.8c0.1,0.1,0.1,0.3,0.2,0.4
	c0,0.1,0.2,0.1,0.2,0.1c0.1-0.1,0.2-0.1,0.3-0.2c0.1,0,0.1,0,0.1,0.1c0,0.1,0,0.1,0,0.2c0,0.1-0.1,0.1-0.2,0.2
	c-0.3,0.2-0.6,0.5-0.9,0.7c-0.2,0.2-0.4,0.3-0.6,0.4c-0.1,0.1-0.2,0.2-0.3,0.3c-0.2,0.4-0.5,0.6-0.8,0.8c-0.3,0.1-0.5,0.3-0.7,0.5
	c-0.2,0.2-0.4,0.3-0.6,0.5c-0.1,0.1-0.1,0.2-0.2,0.3c0,0.1,0,0.2,0,0.2c0,0.1,0.1,0.1,0.2,0c0.2-0.1,0.3-0.2,0.5-0.4
	c0.5-0.5,1-1,1.5-1.4c0.3-0.2,0.6-0.4,0.8-0.8c0.5-0.5,1-0.9,1.5-1.4c0.2-0.1,0.3-0.3,0.5-0.5c0.1-0.1,0-0.2-0.1-0.3
	c-0.1,0-0.2,0-0.2,0c-0.2,0-0.4,0-0.6,0c-0.2,0-0.4,0-0.5,0C29.1,11.8,29.1,11.8,29,11.8z M10.7,37.6c0.1,0,0.2,0,0.3,0
	c0.2,0,0.5-0.1,0.7-0.2c0.4-0.3,0.8-0.5,1.1-0.8c0.3-0.3,0.7-0.5,1.1-0.7c0.3-0.2,0.6-0.4,0.9-0.5c0,0,0.1-0.1,0.1-0.1
	c0-0.1,0-0.1-0.1-0.1c0,0,0,0-0.1,0c-0.2-0.1-0.4-0.1-0.5,0.1c-0.2,0.2-0.4,0.3-0.6,0.4c-0.2,0.1-0.4,0.2-0.5,0.3
	c-0.5,0.3-1,0.6-1.5,0.9c-0.1,0.1-0.2,0.1-0.3,0.2c-0.2,0.2-0.5,0.4-0.8,0.5c0,0,0,0,0,0c0,0,0,0.1,0.1,0.1
	C10.5,37.6,10.6,37.6,10.7,37.6z M26.6,12.3c0,0,0.1,0,0.1,0c0.1,0,0.2-0.1,0.3-0.2c0.2-0.1,0.4-0.2,0.7-0.3c0,0,0.1,0,0.2,0
	c0,0,0,0.1,0,0.2c-0.2,0.2-0.4,0.4-0.6,0.6c-0.2,0.1-0.4,0.3-0.6,0.4c-0.5,0.5-1,1-1.4,1.4c-0.2,0.2-0.3,0.3-0.4,0.5c0,0,0,0,0,0.1
	c0,0,0,0,0,0c0.1,0,0.2-0.1,0.3-0.1c0.4-0.3,0.8-0.6,1.2-0.9c0.2-0.2,0.4-0.5,0.7-0.6c0.1-0.1,0.2-0.2,0.3-0.2
	c0.2-0.3,0.5-0.6,0.8-0.9c0.1-0.1,0.2-0.2,0.3-0.3c0.1-0.1,0-0.2-0.1-0.3c-0.2-0.1-0.4-0.1-0.6-0.2c-0.1,0-0.3,0-0.4,0.1
	c-0.2,0.2-0.5,0.3-0.7,0.5c0,0,0,0,0,0C26.6,12.2,26.6,12.2,26.6,12.3C26.6,12.3,26.6,12.3,26.6,12.3z M8,37.5
	c0.2-0.1,0.3-0.3,0.5-0.3c0.1,0,0.2-0.1,0.2-0.1c0.3-0.3,0.6-0.4,0.9-0.6c0.3-0.2,0.6-0.4,0.9-0.4c0.2,0,0.3-0.2,0.3-0.4
	c0,0,0-0.1,0-0.1c0,0-0.1-0.1-0.1-0.1c-0.2,0-0.4,0.1-0.6,0.3c-0.1,0.1-0.2,0.1-0.3,0.1c-0.2,0-0.3,0.1-0.4,0.2
	c-0.3,0.2-0.5,0.3-0.9,0.4c-0.2,0.1-0.4,0.1-0.5,0.3c-0.1,0.1-0.3,0.2-0.5,0.3c-0.1,0-0.2,0-0.3,0.1c0,0,0,0.1,0,0.2
	c0,0,0,0.1,0,0.1c0,0,0.1,0.1,0.2,0.1C7.7,37.5,7.8,37.5,8,37.5z M37.7,18.2c-0.1,0.1-0.2,0.3-0.2,0.4c-0.1,0.1-0.2,0.2-0.3,0.2
	c-0.1,0-0.2,0.1-0.2,0.2c-0.1,0.1-0.1,0.2-0.2,0.2c-0.3,0.2-0.4,0.5-0.7,0.6c-0.1,0-0.1,0.2-0.2,0.2c-0.2,0.3-0.4,0.6-0.7,0.8
	c0,0-0.1,0.1-0.1,0.1c0,0,0,0.1,0,0.1c0,0.1,0,0.2,0,0.2c0,0,0.1,0,0.1,0c0.2-0.2,0.4-0.4,0.6-0.6c0.1-0.1,0.3-0.3,0.4-0.3
	c0.2-0.1,0.3-0.2,0.5-0.3c0.1-0.3,0.3-0.5,0.5-0.6c0.1-0.1,0.2-0.1,0.3-0.2c0.1-0.2,0.2-0.3,0.4-0.4c0.1-0.1,0.2-0.2,0.2-0.3
	c0-0.1,0-0.2-0.2-0.2C37.9,18.1,37.8,18.2,37.7,18.2z M15.8,25.2c0-0.1-0.1-0.2-0.1-0.2c-0.1-0.1-0.1-0.1-0.2,0
	c-0.2,0.1-0.4,0.2-0.6,0.4c-0.1,0.1-0.3,0.3-0.4,0.4c-0.1,0.1-0.2,0.2-0.3,0.3c-0.1,0.2-0.3,0.3-0.5,0.4c-0.2,0.1-0.3,0.2-0.4,0.3
	c-0.1,0-0.1,0.1-0.1,0.2c0,0,0.1,0.1,0.1,0.1c0,0,0.1,0,0.1,0c0.4,0,0.6-0.2,0.9-0.4C14.8,26.3,15.3,25.8,15.8,25.2z M2.1,17.4
	c0.2-0.1,0.3-0.2,0.4-0.4c0.2-0.3,0.4-0.5,0.7-0.7c0,0,0.1-0.1,0-0.1c-0.3,0.2-0.6,0.3-0.9,0.6c-0.3,0.2-0.6,0.4-0.9,0.6
	c-0.2,0.1-0.3,0.3-0.3,0.6c0,0.1,0,0.2,0,0.2c0,0.3,0.1,0.3,0.4,0.2c0.4-0.2,0.6-0.4,0.8-0.7c0,0,0-0.1,0-0.1
	C2.3,17.4,2.2,17.4,2.1,17.4z M4.4,36.4c0.1,0,0.2,0,0.3-0.1C5,36.2,5.4,36,5.8,35.8c0.3-0.2,0.7-0.4,1-0.7c0,0,0.1-0.1,0.1-0.1
	c0,0,0-0.1,0-0.2c-0.1-0.1-0.2-0.1-0.3-0.1c-0.2,0-0.3,0.1-0.5,0.1c-0.2,0-0.4,0.1-0.5,0.3c-0.1,0.2-0.3,0.3-0.5,0.5
	c-0.3,0.2-0.5,0.4-0.8,0.5c0,0,0,0.1,0,0.1C4.2,36.3,4.3,36.3,4.4,36.4z M13.2,16.9c-0.3,0.2-0.5,0.4-0.7,0.5
	c-0.5,0.4-1,0.7-1.5,1.1c-0.4,0.3-0.8,0.6-1.2,0.9c-0.1,0.1-0.2,0.2-0.3,0.4c0,0,0,0.1,0,0.1c0,0,0.1,0.1,0.1,0.1
	c0.1,0,0.2,0,0.2-0.1c0.2-0.2,0.4-0.3,0.5-0.5c0.8-0.6,1.5-1.2,2.3-1.8C12.9,17.4,13.1,17.2,13.2,16.9z M11.6,21.1
	c0.1-0.3,0.3-0.5,0.5-0.6c0.1-0.1,0.2-0.2,0.3-0.3c0.1-0.1,0.1-0.3,0-0.4c-0.1,0-0.1,0-0.2,0c-0.2,0.2-0.3,0.3-0.5,0.5
	c-0.3,0.3-0.5,0.6-0.7,0.9c-0.1,0.1-0.1,0.2-0.2,0.2c-0.4,0.3-0.6,0.6-0.9,0.9c0,0,0,0.1,0,0.1c0,0,0,0.1,0,0.1c0,0,0.1,0,0.1,0
	c0.3-0.2,0.5-0.5,0.8-0.7C11,21.5,11.3,21.3,11.6,21.1z M35.7,18.8C35.7,18.8,35.7,18.8,35.7,18.8c0.3-0.1,0.5-0.2,0.6-0.4
	c0.2-0.2,0.4-0.4,0.7-0.6c0.3-0.3,0.7-0.7,1-1c0,0,0-0.1,0-0.2c0-0.1-0.1-0.1-0.1-0.1c-0.4,0.2-0.7,0.4-1,0.7
	c-0.2,0.3-0.6,0.6-0.9,0.8c-0.2,0.1-0.3,0.3-0.4,0.6C35.6,18.7,35.6,18.8,35.7,18.8C35.6,18.8,35.6,18.8,35.7,18.8z M25.2,13.2
	c-0.3,0.3-0.6,0.5-0.9,0.7C24.2,14,24.1,14,23.9,14c-0.1,0-0.2,0-0.3,0c-0.1,0-0.2,0.2-0.1,0.3c0.2,0.3,0.4,0.4,0.7,0.2
	c0.7-0.5,1.2-1.1,1.9-1.6c0.2-0.1,0.2-0.3,0.2-0.5c0,0,0-0.1-0.1-0.1c0,0-0.1,0-0.1,0c-0.1,0.1-0.1,0.2-0.1,0.3
	c-0.2,0.1-0.4,0.4-0.7,0.4C25.1,13,25.2,13.1,25.2,13.2C25.2,13.2,25.2,13.2,25.2,13.2z M4,18.9c-0.1,0.1-0.2,0.2-0.3,0.3
	C3,19.8,2.4,20.4,1.8,21c-0.1,0.1-0.3,0.2-0.4,0.3c-0.1,0-0.1,0.1-0.1,0.2c0,0.1,0.1,0.1,0.1,0.1c0.1,0,0.1-0.1,0.2-0.1
	c0.3-0.2,0.6-0.5,0.9-0.8c0.5-0.4,0.9-0.9,1.5-1.2C4.1,19.4,4.1,19.2,4,18.9z M25.3,7.4c0.1,0,0.3,0,0.3-0.1
	c0.2-0.3,0.5-0.5,0.8-0.7c0.3-0.2,0.6-0.5,1-0.7c0,0,0.1-0.1,0.1-0.1c0,0,0.1-0.1,0.1-0.1c0.1-0.1,0.1-0.2,0-0.2c-0.1,0-0.1,0-0.2,0
	c-0.2,0.1-0.3,0.3-0.5,0.3c-0.3,0.1-0.5,0.3-0.7,0.5c-0.2,0.2-0.4,0.4-0.7,0.5c-0.2,0.1-0.4,0.2-0.5,0.4C25.1,7.3,25.2,7.3,25.3,7.4
	C25.2,7.4,25.2,7.4,25.3,7.4z M20.3,27.2c0.1,0,0.2,0,0.3-0.1c0.3-0.2,0.5-0.4,0.7-0.7c0,0,0-0.1,0-0.1c0,0,0,0,0,0
	c-0.2,0-0.4,0-0.5,0c-0.3,0-0.6,0.1-0.9,0.2C19.8,26.8,20.1,27,20.3,27.2z M12.3,16.8C12.3,16.8,12.3,16.7,12.3,16.8
	c-0.3,0.1-0.7,0.3-0.9,0.5c-0.4,0.3-0.8,0.6-1.1,0.9c-0.2,0.2-0.4,0.3-0.6,0.5c-0.1,0.1-0.1,0.1-0.1,0.2c0,0,0,0,0,0.1
	c0,0,0.1,0,0.1,0c0.1,0,0.1,0,0.2-0.1c0.6-0.5,1.1-0.9,1.7-1.4c0.2-0.2,0.5-0.4,0.7-0.6C12.3,16.9,12.3,16.8,12.3,16.8
	C12.3,16.8,12.3,16.8,12.3,16.8z M1.3,22.5C1.3,22.5,1.4,22.5,1.3,22.5c0.4-0.2,0.8-0.4,1-0.8c0.1-0.1,0.2-0.2,0.4-0.3
	c0.5-0.3,0.8-0.7,1.2-1.1c0,0,0.1-0.1,0.1-0.2c0,0,0-0.1-0.1-0.1c-0.1,0-0.1,0-0.2,0c-0.3,0.2-0.6,0.4-0.8,0.7
	c-0.3,0.4-0.6,0.7-1,0.9C1.7,22,1.5,22.2,1.3,22.5z M1.1,26.4c0.1,0,0.2-0.1,0.3-0.2c0.6-0.5,1.2-1,1.8-1.5c0,0,0.1-0.1,0.1-0.1
	c0,0,0-0.1,0-0.1c0,0-0.1,0-0.1,0c-0.1,0.1-0.2,0.1-0.3,0.2c-0.3,0.2-0.7,0.5-1,0.6c-0.3,0.1-0.5,0.3-0.7,0.5C1,26,1,26.2,1.1,26.4z
	 M13.2,35.1C13.2,35.1,13.1,35.1,13.2,35.1c-0.1-0.1-0.2-0.1-0.3,0c-0.1,0.1-0.3,0.2-0.4,0.3c-0.4,0.2-0.7,0.4-1,0.6
	c-0.3,0.2-0.7,0.4-1,0.6c-0.1,0-0.1,0-0.2,0.1c0,0-0.1,0-0.1,0.1c0,0-0.1,0.1,0,0.2c0,0,0.1,0,0.1,0c0.8-0.5,1.7-0.9,2.6-1.4
	c0.1-0.1,0.2-0.2,0.3-0.2C13.2,35.2,13.2,35.2,13.2,35.1z M32.1,37.1c0,0,0.1,0,0.1,0c0.3-0.2,0.6-0.5,0.8-0.7
	c0.4-0.3,0.8-0.6,1.2-0.9c0.1-0.1,0.3-0.2,0.4-0.4c0,0,0-0.1,0-0.1c0,0-0.1-0.1-0.1-0.1c-0.1,0-0.1,0-0.2,0.1
	c-0.1,0.1-0.3,0.2-0.4,0.3c-0.2,0.3-0.5,0.5-0.8,0.7c-0.3,0.3-0.6,0.5-0.9,0.7c-0.1,0.1-0.1,0.1-0.2,0.2
	C32.1,36.9,32.1,37,32.1,37.1C32.1,37,32.1,37,32.1,37.1z M13.9,28c0.1,0,0.1-0.1,0.2-0.1c0.5-0.3,1-0.8,1.4-1.2
	c0.1,0,0.1-0.1,0.1-0.2c0-0.1,0-0.2-0.1-0.2c-0.1,0-0.1,0-0.1,0.1c0,0.1-0.1,0.2-0.2,0.3c-0.1,0.1-0.2,0.1-0.4,0.2
	c-0.4,0.2-0.8,0.6-1.1,1C13.7,27.9,13.8,28,13.9,28C13.8,28,13.8,28,13.9,28z M3.5,27.7c0-0.2,0-0.3,0-0.3c-0.1-0.1-0.2,0-0.3,0
	c-0.1,0.1-0.2,0.1-0.3,0.2C2.4,28,2,28.4,1.5,28.7c-0.1,0.1-0.2,0.2-0.2,0.3c0,0,0,0,0,0.1c0,0,0.1,0.1,0.1,0.1
	c0.1-0.1,0.2-0.1,0.3-0.2c0.3-0.2,0.6-0.5,0.9-0.7C2.9,27.9,3.1,27.8,3.5,27.7z M37.4,28.7c0-0.1,0-0.2,0.1-0.3
	c0.2-0.1,0.2-0.4,0.4-0.5c0.1,0,0.1-0.2,0.2-0.2c0,0,0-0.1,0-0.1c0,0-0.1,0-0.1,0c-0.1,0-0.1,0-0.2,0.1c-0.1,0.1-0.2,0.2-0.3,0.4
	c-0.1,0.1-0.2,0.2-0.3,0.2c-0.1,0-0.3,0.1-0.3,0.2c-0.2,0.2-0.4,0.4-0.6,0.6c0,0,0.1,0.1,0.1,0.1c0.1,0,0.2-0.1,0.3-0.2
	C36.8,28.9,37.1,28.7,37.4,28.7z M6.5,13c0,0-0.1-0.1-0.1-0.1c-0.1,0-0.1,0-0.2,0c-0.5,0.3-1,0.7-1.5,1c-0.1,0.1-0.2,0.2-0.2,0.3
	c0,0.1,0.2,0.1,0.3,0C5,14.2,5.1,14.1,5.2,14c0.2-0.1,0.3-0.3,0.5-0.4c0.2-0.1,0.4-0.3,0.6-0.4C6.4,13.2,6.4,13.1,6.5,13z M2.9,12.1
	c-0.1,0-0.1,0-0.2,0c-0.1,0-0.2,0.1-0.3,0.1c-0.3,0.2-0.7,0.4-1,0.7c-0.1,0-0.1,0.1-0.2,0.2c-0.1,0.1-0.1,0.2-0.1,0.3
	c0,0.1,0.1,0.1,0.1,0.1c0.5-0.4,0.9-0.7,1.4-1.1C2.8,12.4,2.9,12.3,2.9,12.1z M3.7,12.9C3.5,12.9,3.5,13,3.4,13
	c-0.3,0.1-0.5,0.3-0.8,0.5c-0.1,0-0.1,0.1-0.1,0.1c-0.3,0.3-0.7,0.7-1,1c0,0,0,0.1,0,0.1c0,0,0,0,0.1,0c0.5-0.4,1.1-0.8,1.6-1.2
	C3.4,13.3,3.5,13.2,3.7,12.9z M9.6,18.3c0.2-0.1,0.3-0.2,0.4-0.3c0.1-0.3,0.3-0.5,0.4-0.8c0-0.1,0-0.1,0-0.2c0,0-0.1-0.1-0.1-0.1
	c-0.2,0-0.3,0.3-0.4,0.4c-0.2,0.2-0.3,0.4-0.3,0.7C9.6,18,9.6,18.1,9.6,18.3z M14.1,1c0.2-0.1,0.4-0.2,0.5-0.2c0,0,0,0,0,0
	c0,0,0-0.1-0.1-0.1c-0.3,0-0.6,0-0.8,0c-0.1,0-0.2,0.1-0.3,0.2c0.1,0.1,0.2,0.3,0.4,0.4C14,1.2,14,1.1,14.1,1z M18.2,26.7
	c0.2,0.2,0.3,0.2,0.4,0.2c0.2-0.1,0.5-0.1,0.7-0.2c0,0,0.1-0.1,0.1-0.1c0,0,0-0.1,0-0.1c-0.3-0.1-0.5-0.2-0.8-0.1
	C18.3,26.3,18.2,26.5,18.2,26.7z M37.2,20C37.2,20,37.2,20,37.2,20c0.4-0.2,0.7-0.4,1-0.7c0,0,0-0.1,0-0.1c0,0,0-0.1,0-0.1
	c0,0-0.1,0-0.1,0c-0.1,0-0.1,0-0.2,0.1c-0.2,0.2-0.4,0.4-0.6,0.6C37.2,19.7,37.2,19.9,37.2,20C37.2,20,37.2,20,37.2,20z M20.3,0.6
	c-0.1,0-0.2,0-0.3,0.1c-0.3,0.1-0.6,0.3-0.8,0.4c0,0,0,0.1,0,0.1c0,0,0.1,0,0.1,0c0.2-0.1,0.5-0.2,0.8-0.2c0.1,0,0.2-0.1,0.3-0.1
	c0.1,0,0.1-0.1,0.1-0.1c0,0,0-0.1,0-0.2C20.4,0.7,20.4,0.7,20.3,0.6z M36,17.7C36,17.6,36,17.6,36,17.7c-0.1-0.1-0.1-0.1-0.1-0.1
	c-0.2,0.1-0.4,0.2-0.6,0.4c-0.1,0.1-0.2,0.2-0.2,0.4c0,0,0,0.1,0,0.1c0,0,0.1,0,0.1,0c0.1-0.1,0.6-0.5,0.6-0.6
	C36,17.8,36,17.7,36,17.7z M10.4,14.6c-0.3,0.1-0.4,0.1-0.7,0.5c0.1,0.1,0.3,0,0.5,0c0.4,0,0.4-0.1,0.3-0.4
	C10.4,14.7,10.4,14.7,10.4,14.6z M23.7,25.1c0,0,0.1,0,0.1,0c0.3-0.2,0.5-0.4,0.8-0.6c0,0,0-0.1,0-0.2c0,0-0.1,0-0.1,0
	c-0.1,0-0.2,0-0.2,0.1c-0.2,0.2-0.4,0.4-0.6,0.6C23.7,25,23.7,25,23.7,25.1C23.7,25.1,23.7,25.1,23.7,25.1
	C23.7,25.1,23.7,25.1,23.7,25.1z M37,15.9C37.1,15.9,37.1,15.9,37,15.9c0.4-0.2,0.7-0.5,1-0.7c0,0,0-0.1,0.1-0.2c0,0-0.1-0.1-0.2,0
	C37.6,15.2,37.3,15.5,37,15.9C37,15.8,37,15.9,37,15.9C37,15.9,37,15.9,37,15.9z M37.3,20.8c0.3-0.1,0.4-0.2,0.5-0.3
	c0.1-0.1,0.3-0.3,0.4-0.4c0,0,0,0,0-0.1c0,0,0-0.1,0-0.1c0,0-0.1,0-0.1,0c-0.2,0.2-0.5,0.4-0.7,0.7C37.4,20.6,37.3,20.7,37.3,20.8z
	 M35,5.4c0,0.1,0.1,0.2,0.2,0.2c0.1,0,0.2,0,0.3,0c0.2-0.2,0.1-0.4,0-0.6c0,0-0.1,0-0.1,0C35.1,5,35,5.1,35,5.4
	C34.9,5.3,35,5.3,35,5.4z M13.3,24.2C13.3,24.2,13.3,24.2,13.3,24.2c0.3-0.1,0.5-0.3,0.6-0.5c0,0,0,0,0-0.1c0,0-0.1,0-0.1,0
	c-0.2,0.1-0.4,0.3-0.6,0.5C13.2,24.1,13.2,24.1,13.3,24.2C13.3,24.2,13.3,24.2,13.3,24.2z M1.6,15.9c-0.2,0.1-0.3,0.2-0.4,0.4
	c0,0.1,0,0.2,0,0.2c0,0,0.1,0.1,0.1,0.1c0.2-0.1,0.4-0.3,0.4-0.5C1.6,16,1.6,16,1.6,15.9z M36.1,21c-0.3,0-0.3,0-0.4,0.1
	c-0.1,0.1-0.2,0.2-0.2,0.3c0,0,0,0.1,0,0.1c0,0.1,0.1,0,0.2,0C35.8,21.4,35.9,21.2,36.1,21z M26.6,20.2c-0.2,0.2-0.4,0.3-0.6,0.5
	c0,0,0,0.1,0,0.1c0,0.1,0.1,0.1,0.2,0C26.4,20.7,26.5,20.5,26.6,20.2z M36.2,19.2c-0.3,0.2-0.6,0.4-0.8,0.7c0,0,0,0.1,0,0.1
	c0,0,0.1,0,0.1,0c0.2-0.2,0.5-0.4,0.7-0.6C36.1,19.4,36.1,19.4,36.2,19.2z M11.7,22.1c0.1,0,0.2,0,0.2,0c0.2-0.1,0.3-0.3,0.3-0.5
	c0,0,0,0,0,0c0,0-0.1,0-0.1,0c0,0-0.1,0-0.1,0.1C11.9,21.7,11.9,21.9,11.7,22.1z M6,9.8c-0.1,0-0.1,0-0.2,0
	c-0.2,0.1-0.3,0.2-0.5,0.4c0,0,0,0.1,0,0.1c0,0,0.1,0,0.1,0c0.2-0.1,0.4-0.2,0.5-0.3C6,9.9,5.9,9.9,6,9.8z M17.9,26.7
	c0-0.1,0-0.2,0-0.3c0-0.1-0.2-0.1-0.2-0.1c-0.1,0.1-0.2,0.2-0.3,0.4C17.5,26.7,17.7,26.7,17.9,26.7z M16.9,0.7c0,0-0.1-0.1-0.1-0.1
	c-0.2,0-0.3,0.1-0.4,0.2c0,0,0,0.1,0.1,0.1c0,0,0.1,0,0.1,0C16.7,1,16.8,0.9,16.9,0.7C16.9,0.7,16.9,0.7,16.9,0.7z M24.7,10.6
	c0,0-0.1-0.1-0.1-0.1c-0.2,0.1-0.3,0.2-0.5,0.3c0,0,0,0.1,0,0.1c0,0,0,0,0,0c0.2,0,0.3-0.1,0.5-0.2C24.7,10.7,24.7,10.7,24.7,10.6z
	 M36.7,24.7c-0.1,0-0.2,0-0.3,0.1c-0.1,0.1-0.1,0.2-0.1,0.3c0,0,0,0.1,0.1,0.1c0,0,0.1,0,0.1,0c0-0.1,0-0.2,0.1-0.3
	C36.6,24.9,36.7,24.8,36.7,24.7z M37.7,5.4c0.1,0,0.2-0.1,0.2-0.1c0-0.2-0.1-0.3-0.3-0.3c0,0-0.1,0.1-0.1,0.1c0,0.1,0,0.2,0.1,0.3
	C37.6,5.3,37.6,5.4,37.7,5.4z M9.3,37.4c0.1,0.1,0.2,0.1,0.3,0.1c0.1,0,0.2-0.1,0.2-0.1c0-0.1,0-0.2-0.1-0.2c0,0-0.1,0-0.2,0
	C9.4,37.2,9.3,37.3,9.3,37.4z M15.9,7.1C16,7,16.2,6.9,16.3,6.8c0,0,0,0,0-0.1c0,0,0,0,0,0c-0.2,0-0.3,0.1-0.4,0.2
	c0,0,0,0.1-0.1,0.1C15.8,7,15.8,7,15.9,7.1C15.8,7,15.8,7,15.9,7.1z M11,4c0,0,0.1,0,0.2-0.1c0.1,0,0-0.2,0-0.2c-0.1,0-0.1,0-0.2,0
	c-0.1,0-0.1,0.1-0.1,0.1C10.8,3.9,10.8,4,11,4z M20.3,7.4c-0.4,0-0.4,0-0.5,0.2c0,0,0,0.1,0.1,0.1c0,0,0,0,0.1,0
	C20.1,7.7,20.2,7.6,20.3,7.4z M22.2,1.2c0.2,0,0.3-0.1,0.4-0.2c0,0,0-0.1,0-0.1c-0.2,0-0.3,0.1-0.4,0.2C22.2,1.1,22.1,1.1,22.2,1.2
	C22.2,1.1,22.2,1.2,22.2,1.2z M36.4,20.8c0.1-0.1,0.2-0.1,0.3-0.2c0,0,0-0.1,0-0.1c0,0-0.1-0.1-0.1,0C36.5,20.5,36.3,20.6,36.4,20.8
	C36.3,20.7,36.4,20.8,36.4,20.8z M29.6,37c0.3,0,0.3,0,0.4-0.1c0,0,0,0,0,0c0,0,0,0,0-0.1c0,0,0,0,0,0C29.8,36.8,29.8,36.8,29.6,37z
	 M3.3,28.3c0.1,0,0.1,0,0.2,0c0.1,0,0.1-0.1,0.1-0.2C3.5,28,3.4,28,3.3,28c-0.1,0-0.1,0.1-0.2,0.1C3.1,28.2,3.1,28.2,3.3,28.3
	C3.2,28.3,3.2,28.3,3.3,28.3z M16.6,26.2c0,0,0.1,0,0.1-0.1c0.1-0.1,0.1-0.2,0-0.2c-0.1-0.1-0.1,0-0.2,0c0,0-0.1,0.1-0.1,0.1
	C16.4,26.1,16.5,26.2,16.6,26.2z M31.1,35.4c0,0,0.1,0,0.1-0.1c0,0,0-0.1,0-0.1c0,0-0.1,0-0.1-0.1c0,0-0.1,0-0.1,0
	c0,0-0.1,0.1-0.1,0.1C30.9,35.3,31,35.4,31.1,35.4z M26.6,5.4C26.6,5.3,26.6,5.3,26.6,5.4c-0.2-0.1-0.3,0-0.3,0.2
	c0,0,0.1,0.1,0.1,0.1C26.5,5.6,26.6,5.5,26.6,5.4z M28.8,3.7C28.8,3.7,28.8,3.7,28.8,3.7c0.1-0.1,0.2-0.1,0.3-0.2c0,0,0-0.1,0-0.1
	c0,0-0.1,0-0.1,0C28.8,3.4,28.7,3.5,28.8,3.7C28.7,3.6,28.7,3.6,28.8,3.7z M15.8,26c0.2-0.1,0.3-0.2,0.4-0.3c0,0,0-0.1,0-0.1
	c0,0-0.1,0-0.1,0C16,25.7,15.9,25.7,15.8,26z M9.7,7.5c-0.2,0-0.3,0.1-0.4,0.2c0,0,0,0.1,0,0.1c0,0,0.1,0,0.1,0
	C9.6,7.8,9.7,7.7,9.7,7.5z M24,29c0.1,0,0.3-0.1,0.3-0.2c0,0,0,0,0,0c-0.1,0-0.2,0-0.3,0.2C23.9,28.9,23.9,28.9,24,29z M15.5,4
	C15.5,4,15.5,3.9,15.5,4c-0.2-0.1-0.2-0.1-0.3,0c0,0,0,0.1,0,0.1c0,0,0,0,0,0C15.4,4.1,15.4,4.1,15.5,4C15.5,4,15.5,4,15.5,4z
	 M26.4,24.7c0.1,0,0.1,0,0.1,0c0.1-0.1,0.1-0.1,0.2-0.2c0,0,0,0,0-0.1c0,0,0,0,0,0c-0.1,0-0.2,0-0.3,0.2
	C26.4,24.6,26.4,24.7,26.4,24.7z M8.5,3.5c-0.1,0-0.2,0.1-0.2,0.1c0,0,0,0.1,0,0.1c0,0,0.1,0,0.1,0C8.5,3.8,8.6,3.7,8.5,3.5
	C8.6,3.6,8.6,3.6,8.5,3.5C8.6,3.5,8.6,3.5,8.5,3.5z M35.9,15.6c0.1,0,0.2,0,0.2-0.1c0,0,0-0.1,0-0.1c0,0,0,0-0.1,0
	c-0.1,0-0.1,0-0.2,0.1C35.9,15.4,35.9,15.5,35.9,15.6C35.9,15.6,35.9,15.6,35.9,15.6z M15,24.8C15,24.8,15,24.8,15,24.8
	C15,24.7,15,24.7,15,24.8c-0.1,0-0.2,0-0.2,0.1c0,0,0,0.1,0,0.1c0,0,0.1,0,0.1,0C15,24.9,15,24.9,15,24.8z M26.1,11.9
	C26,11.9,26,11.8,26.1,11.9C26,11.8,26,11.8,26.1,11.9c-0.2,0-0.2,0-0.2,0.1c0,0,0,0,0,0c0,0,0,0,0,0C25.9,12,26,12,26.1,11.9z
	 M34.8,14C34.8,13.9,34.8,13.9,34.8,14c-0.2,0-0.3,0.1-0.3,0.2c0,0,0,0,0,0c0,0,0,0,0,0C34.7,14.2,34.7,14.1,34.8,14
	C34.8,14,34.8,14,34.8,14z M9.5,20.7c0.1,0,0.1-0.1,0.2-0.2c0-0.1-0.1-0.1-0.1-0.1c0,0-0.1,0.1-0.1,0.1C9.5,20.6,9.5,20.7,9.5,20.7z
	 M35.2,10.9C35.2,10.9,35.2,10.9,35.2,10.9c-0.2,0-0.2,0-0.3,0.1c0,0,0,0.1,0,0.1c0,0,0,0,0.1,0C35.2,11.1,35.2,11.1,35.2,10.9z
	 M9,5.1c0.1,0,0.1,0.1,0.1,0.1c0,0,0.1-0.1,0.1-0.1C9.3,5,9.2,4.9,9.2,5C9.1,5,9.1,5,9,5.1z M10.2,9.9c0,0,0.1,0,0.1-0.1
	c0,0,0-0.1,0-0.2c0,0,0,0,0,0c-0.1,0-0.1,0-0.1,0.1C10.1,9.8,10.1,9.8,10.2,9.9C10.1,9.9,10.1,9.9,10.2,9.9z M26.8,22.3
	c0.1,0,0.1-0.1,0.2-0.1c0,0,0-0.1,0-0.1c0,0,0,0,0,0C26.8,22.1,26.8,22.1,26.8,22.3C26.7,22.2,26.7,22.2,26.8,22.3
	C26.7,22.2,26.8,22.3,26.8,22.3z M35.6,29.8C35.6,29.8,35.6,29.8,35.6,29.8C35.6,29.7,35.6,29.7,35.6,29.8c-0.1,0-0.2,0-0.2,0.1
	c0,0,0,0,0,0.1c0,0,0.1,0,0.1,0C35.6,29.9,35.6,29.9,35.6,29.8z M29.7,1c0.1,0,0.1-0.1,0.1-0.1c0,0,0-0.1,0-0.1c0,0-0.1,0-0.1,0
	c-0.1,0-0.1,0-0.2,0c0,0,0,0.1,0,0.1C29.6,0.9,29.7,1,29.7,1z M5.1,11.8C5.1,11.7,5.1,11.7,5.1,11.8C5,11.7,5,11.7,5.1,11.8
	c-0.1,0-0.2,0-0.2,0c0,0,0,0.1,0,0.1c0,0,0,0,0,0C5,11.9,5,11.8,5.1,11.8z M5.2,14.9c0,0,0.1-0.1,0.1-0.1c0,0,0-0.1,0-0.1
	c-0.1,0-0.1,0-0.1,0.1C5.2,14.8,5.2,14.8,5.2,14.9z M24.3,8.2C24.3,8.1,24.3,8.1,24.3,8.2c-0.1-0.1-0.1-0.1-0.1-0.1
	C24.1,8.1,24.1,8.2,24.3,8.2C24.2,8.2,24.2,8.2,24.3,8.2z M25.8,36.1C25.7,36.1,25.7,36,25.8,36.1c-0.2,0-0.2,0.1-0.2,0.1
	c0,0,0,0,0,0C25.7,36.2,25.8,36.2,25.8,36.1z M19,28.1C19,28.1,19,28.2,19,28.1C18.9,28.2,18.9,28.2,19,28.1c0,0.1,0,0.2,0.1,0.1
	c0,0,0,0,0.1-0.1C19.1,28.2,19.1,28.2,19,28.1C19,28.1,19,28.1,19,28.1z M35.5,9.2c0,0,0.1-0.1,0.1-0.1c0,0,0-0.1,0-0.1
	C35.5,8.9,35.4,9,35.5,9.2C35.4,9.1,35.4,9.1,35.5,9.2z M15.9,3.8c0,0,0.1-0.1,0.1-0.1c0,0-0.1,0-0.1,0C15.8,3.7,15.8,3.7,15.9,3.8
	C15.8,3.8,15.8,3.8,15.9,3.8z M37.3,30.9c0,0,0.1-0.1,0.1-0.1c0-0.1,0-0.1-0.1-0.1C37.3,30.7,37.3,30.8,37.3,30.9
	C37.3,30.8,37.3,30.9,37.3,30.9z M21.1,35.6c0,0,0.1-0.1,0.1-0.1c0,0,0,0,0-0.1c0,0-0.1,0-0.1,0C21,35.5,21.1,35.6,21.1,35.6z
	 M14.8,2.1C14.8,2,14.8,2,14.8,2.1c0-0.1,0-0.1,0-0.1C14.8,2,14.7,2,14.8,2.1C14.7,2,14.8,2,14.8,2.1z M12.1,21.1
	C12.1,21.1,12.1,21.1,12.1,21.1c-0.1,0-0.1,0-0.1,0c-0.1,0-0.1,0.1,0,0.1C12,21.2,12,21.2,12.1,21.1C12,21.1,12.1,21.1,12.1,21.1z
	 M24.6,7.9C24.6,7.8,24.6,7.8,24.6,7.9C24.6,7.8,24.6,7.8,24.6,7.9C24.6,7.8,24.6,7.8,24.6,7.9C24.6,7.8,24.6,7.9,24.6,7.9z
	 M28.8,16.9C28.8,16.9,28.8,16.9,28.8,16.9c0.1-0.1,0.1-0.1,0.1-0.1c0,0,0,0-0.1,0C28.8,16.8,28.8,16.8,28.8,16.9
	C28.8,16.9,28.8,16.9,28.8,16.9z M24,35.4C24,35.3,24.1,35.3,24,35.4c0.1-0.1,0.1-0.1,0-0.1C24,35.2,23.9,35.2,24,35.4
	C23.9,35.3,24,35.3,24,35.4z M25.3,12.2C25.4,12.3,25.4,12.3,25.3,12.2C25.4,12.3,25.4,12.3,25.3,12.2
	C25.4,12.2,25.4,12.2,25.3,12.2C25.4,12.2,25.4,12.1,25.3,12.2C25.4,12.2,25.4,12.2,25.3,12.2z M34,1.6C34,1.6,34,1.6,34,1.6
	c-0.1-0.1-0.1-0.1-0.1-0.1C33.9,1.6,33.9,1.7,34,1.6C33.9,1.7,34,1.6,34,1.6z M36.1,2.8C36.1,2.7,36.1,2.7,36.1,2.8
	C36.1,2.7,36.1,2.7,36.1,2.8C36,2.7,36,2.7,36.1,2.8C36,2.7,36,2.7,36.1,2.8z M35.1,33.6C35.1,33.6,35.1,33.5,35.1,33.6
	C35.1,33.5,35.1,33.5,35.1,33.6C35.1,33.5,35,33.5,35.1,33.6C35,33.6,35.1,33.6,35.1,33.6z M23.8,8.4C23.8,8.4,23.8,8.3,23.8,8.4
	C23.8,8.3,23.8,8.3,23.8,8.4C23.8,8.3,23.8,8.4,23.8,8.4C23.8,8.4,23.8,8.4,23.8,8.4z M15.7,10.9C15.7,10.9,15.7,10.9,15.7,10.9
	C15.8,10.9,15.7,10.8,15.7,10.9C15.7,10.8,15.7,10.8,15.7,10.9C15.7,10.8,15.7,10.9,15.7,10.9z M16.3,3.5
	C16.3,3.5,16.3,3.5,16.3,3.5C16.4,3.4,16.4,3.4,16.3,3.5C16.4,3.4,16.3,3.4,16.3,3.5C16.3,3.4,16.3,3.4,16.3,3.5z M35.1,30.3
	C35.1,30.3,35.1,30.3,35.1,30.3C35.1,30.2,35.1,30.2,35.1,30.3C35.1,30.2,35,30.2,35.1,30.3C35,30.3,35,30.3,35.1,30.3z M35.2,34.5
	C35.2,34.5,35.2,34.5,35.2,34.5C35.3,34.5,35.2,34.4,35.2,34.5C35.2,34.4,35.2,34.5,35.2,34.5C35.1,34.5,35.2,34.5,35.2,34.5z
	 M19.5,27.7C19.5,27.7,19.5,27.7,19.5,27.7C19.5,27.7,19.5,27.7,19.5,27.7C19.5,27.7,19.5,27.7,19.5,27.7
	C19.5,27.7,19.5,27.7,19.5,27.7z M27.2,2C27.2,2,27.3,2,27.2,2c0.1-0.1,0.1-0.1,0.1-0.1C27.2,1.9,27.2,1.9,27.2,2
	C27.2,2,27.2,2,27.2,2z M7.7,1.2C7.7,1.3,7.7,1.3,7.7,1.2c0,0.1,0,0.1,0,0.1C7.8,1.3,7.8,1.3,7.7,1.2C7.8,1.2,7.7,1.2,7.7,1.2z
	 M5.1,7.7C5.1,7.7,5.1,7.7,5.1,7.7C5.1,7.7,5.2,7.6,5.1,7.7c0.1-0.1,0-0.1,0-0.1C5,7.6,5.1,7.6,5.1,7.7z M37.9,16.1
	C37.9,16.1,37.9,16.1,37.9,16.1c0.1,0,0.1,0,0.1,0C38,16.1,37.9,16,37.9,16.1C37.9,16,37.9,16.1,37.9,16.1z M33.5,3.4L33.5,3.4
	L33.5,3.4L33.5,3.4z M2.9,23.8C2.8,23.8,2.8,23.9,2.9,23.8C2.9,23.9,2.9,23.8,2.9,23.8C2.9,23.8,2.9,23.8,2.9,23.8z M32.9,36.9
	C33,36.9,33,36.9,32.9,36.9C33,36.9,33,36.8,32.9,36.9C32.9,36.9,32.9,36.9,32.9,36.9C32.9,36.9,32.9,36.9,32.9,36.9z M25.3,35.9
	c0,0,0-0.1,0-0.1c0,0,0,0,0,0C25.3,35.7,25.3,35.8,25.3,35.9C25.3,35.8,25.3,35.8,25.3,35.9z M36.3,8.2C36.3,8.1,36.3,8.1,36.3,8.2
	C36.2,8.1,36.2,8.1,36.3,8.2C36.2,8.2,36.2,8.2,36.3,8.2C36.3,8.2,36.3,8.2,36.3,8.2z M13,1.1C13,1.1,13,1.1,13,1.1
	C13,1.1,13,1.1,13,1.1C12.9,1.2,13,1.2,13,1.1C13,1.2,13,1.2,13,1.1z M12.8,16.3C12.8,16.3,12.8,16.3,12.8,16.3
	C12.8,16.4,12.8,16.4,12.8,16.3C12.8,16.4,12.8,16.4,12.8,16.3C12.8,16.4,12.8,16.4,12.8,16.3z M12.3,26
	C12.3,25.9,12.3,25.9,12.3,26c0.1-0.1,0-0.1,0-0.1C12.3,25.9,12.3,25.9,12.3,26C12.3,25.9,12.3,25.9,12.3,26z M11.5,23.3
	C11.5,23.3,11.5,23.3,11.5,23.3C11.6,23.2,11.5,23.2,11.5,23.3C11.5,23.2,11.5,23.2,11.5,23.3C11.5,23.3,11.5,23.3,11.5,23.3z
	 M37.1,4.4c0,0,0-0.1,0-0.1c0,0,0,0,0,0C37,4.3,37,4.4,37.1,4.4C37,4.4,37.1,4.4,37.1,4.4z M35.3,10.1
	C35.3,10.1,35.4,10.1,35.3,10.1C35.4,10,35.3,10,35.3,10.1C35.3,10,35.3,10.1,35.3,10.1C35.3,10.1,35.3,10.1,35.3,10.1z M3.2,9.6
	L3.2,9.6L3.2,9.6L3.2,9.6z M19.4,2.6L19.4,2.6L19.4,2.6L19.4,2.6z M1.4,17L1.4,17L1.4,17L1.4,17z M37.3,32.4
	C37.3,32.4,37.3,32.4,37.3,32.4C37.3,32.4,37.3,32.4,37.3,32.4C37.3,32.4,37.3,32.4,37.3,32.4C37.3,32.4,37.3,32.4,37.3,32.4z
	 M10.1,7.3L10.1,7.3L10.1,7.3L10.1,7.3z M19.6,5.8C19.6,5.8,19.7,5.8,19.6,5.8C19.7,5.8,19.6,5.8,19.6,5.8
	C19.6,5.8,19.6,5.8,19.6,5.8z M10.8,9.4C10.8,9.4,10.8,9.4,10.8,9.4C10.8,9.4,10.8,9.4,10.8,9.4C10.7,9.4,10.7,9.4,10.8,9.4
	C10.8,9.4,10.8,9.4,10.8,9.4z M37.5,16.3C37.5,16.3,37.5,16.3,37.5,16.3C37.5,16.3,37.5,16.3,37.5,16.3
	C37.5,16.3,37.5,16.3,37.5,16.3C37.5,16.3,37.5,16.3,37.5,16.3z M16,1.2C16,1.2,16,1.2,16,1.2C16,1.2,16.1,1.1,16,1.2
	C16,1.1,16,1.1,16,1.2C16,1.1,16,1.2,16,1.2z M37.4,26.3L37.4,26.3L37.4,26.3L37.4,26.3z M5.3,7.5C5.4,7.5,5.4,7.5,5.3,7.5
	C5.4,7.5,5.4,7.4,5.3,7.5C5.4,7.4,5.4,7.4,5.3,7.5C5.4,7.4,5.4,7.4,5.3,7.5z M37.1,21.8L37.1,21.8L37.1,21.8L37.1,21.8z M17,36.5
	C17.1,36.5,17.1,36.5,17,36.5C17.1,36.5,17,36.5,17,36.5C17,36.5,17,36.5,17,36.5C17,36.5,17,36.5,17,36.5z M17.9,27
	C17.9,27,17.9,27,17.9,27C17.9,27,17.9,27,17.9,27C17.9,27,17.9,27,17.9,27C17.9,27,17.9,27,17.9,27z M8.6,2.9
	C8.6,2.8,8.6,2.8,8.6,2.9C8.6,2.8,8.6,2.8,8.6,2.9C8.6,2.8,8.6,2.9,8.6,2.9C8.6,2.9,8.6,2.9,8.6,2.9z M37.9,23.9L37.9,23.9
	L37.9,23.9L37.9,23.9z M23.6,29.3L23.6,29.3L23.6,29.3L23.6,29.3z M31.4,3.5L31.4,3.5L31.4,3.5L31.4,3.5z M21.4,35.7
	C21.4,35.7,21.4,35.8,21.4,35.7C21.4,35.8,21.4,35.7,21.4,35.7C21.4,35.7,21.4,35.7,21.4,35.7C21.4,35.7,21.4,35.7,21.4,35.7z
	 M20.6,36.1C20.6,36.1,20.6,36,20.6,36.1C20.6,36,20.6,36.1,20.6,36.1C20.6,36.1,20.6,36.1,20.6,36.1C20.6,36.1,20.6,36.1,20.6,36.1
	z M20.5,4.1L20.5,4.1L20.5,4.1L20.5,4.1z M34.8,9.4L34.8,9.4L34.8,9.4L34.8,9.4z M3.6,23.3L3.6,23.3L3.6,23.3L3.6,23.3z"/>
</svg>
