<?xml version="1.0" encoding="utf-8"?>
<!-- Generator: Adobe Illustrator 18.1.1, SVG Export Plug-In . SVG Version: 6.00 Build 0)  -->
<svg version="1.1" id="Layer_1" xmlns="http://www.w3.org/2000/svg" xmlns:xlink="http://www.w3.org/1999/xlink" x="0px" y="0px"
	 viewBox="0 0 50.2 40.8" enable-background="new 0 0 50.2 40.8" xml:space="preserve">
<g>
	<path fill="#FFFFFF" d="M49.6,1.6L49.6,1.6c-0.2-0.1-0.4-0.2-0.6-0.2c-0.8,0.1-0.9,0.4-1,0.5c0,0-0.2,0.3-0.5,0.7
		c-0.9,1.2-3.2,3.7-4.9,4.4c0,0-0.9,0.2-1.9,0.4c-1,0.1-2.3,0.3-3.6,0.3c-0.4,0-0.8,0-1.2,0c-0.9-0.8-2.1-1.1-3.6-1.1
		c-0.8,0-1.6,0.1-2.4,0.3c-0.3,0.1-0.7,0.1-1.1,0.1c-1.5,0-3.4-0.5-5.1-0.6c-0.3,0-0.7,0-1,0c-1.3,0-2.4,0.3-3.2,0.7
		C18.7,7,18,7,17.3,7c-1.6,0-3.2-0.2-4.5-0.4c-0.6-0.1-1.2-0.2-1.6-0.3c-0.4-0.1-0.7-0.2-0.8-0.2c-1.3-0.6-2.8-2-3.9-3.2
		C5.9,2.2,5.4,1.7,5.1,1.2C4.7,0.8,4.5,0.5,4.5,0.5C4.5,0.5,4.3,0.1,3.5,0C3.4,0,3.1,0,2.9,0.1C2.4,0.4,2.3,1,2.3,1.2
		c0,0.3,0.1,0.5,0.1,0.5c0,0,0.6,1.6,1.5,3.5c0.9,1.9,2.1,4,3.6,5.2c0.7,0.6,2.2,1.3,4.1,2c-0.4,0.2-0.9,0.3-1.3,0.4
		c-0.5,0.1-1,0.2-1.4,0.3c-0.4,0.1-0.6,0.1-0.6,0.1l-1,0.1l0.2,1c0,0.1,0.1,0.9,0.6,1.9c-3.8,2-6.4,3.8-6.4,3.8L0,21.4l2.2,0.5
		c0,0,0.3,0.1,0.9,0.2c1.6,0.4,5.3,1.6,7.6,3.5c3.9,3.2,4.9,5.6,6.8,8.4c3.4,5.1,8.8,6.8,8.8,6.8l-0.1-1.7c0-0.4,0-0.8,0-1.2
		c0-3,0.9-4.5,1.7-5.4c0.4-0.4,0.8-0.7,1.1-0.8c0.1-0.1,0.3-0.1,0.3-0.1c0,0,0,0,0,0c0.2,0,0.4,0,0.7,0c0.3,0,0.6,0,1,0.1
		c0.2,0,0.3,0,0.5,0c1.5,0,2.8-0.9,3.2-2.2c1.1-1.4,1.5-2.6,1.5-3.6c0-0.8-0.3-1.4-0.5-1.7c0-0.2-0.1-0.4-0.1-0.6
		c0-0.3,0-0.5,0.1-0.7c0.1-0.4,0.8-1.3,1.5-2.6c0.5,0.1,1,0.2,1.6,0.2c0.1,0,0.1,0,0.2,0c2.2,0,3.8-1.1,4.7-2.2
		c1-1.1,1.4-2.1,1.5-2.2l0.6-1.3l-1.5,0c-1.6,0-2.9-0.6-3.9-1.3c0.8-0.3,1.6-0.5,2.3-0.8c1.2-0.5,2-0.9,2.6-1.3
		c1.4-1.1,2.5-3.1,3.4-4.8c0.9-1.7,1.4-3.2,1.5-3.2c0-0.1,0.1-0.2,0.1-0.5C50.2,2.4,50.1,1.9,49.6,1.6z"/>
	<g>
		<path fill="#231F20" d="M49.1,2.4c-0.2-0.1-0.3,0.1-0.3,0.1s-3,4.1-5.7,5.3c-0.6,0.3-4.2,0.9-7.5,0.6c-0.9-1-2.8-1.4-5.4-0.8
			c-1.9,0.4-4.5-0.3-6.6-0.5c-1.7-0.1-2.9,0.1-3.8,0.7c-3.9,0.5-9-0.5-9.7-0.9C7,5.6,3.7,1,3.7,1S3.6,0.8,3.4,0.9
			C3.2,1.1,3.3,1.4,3.3,1.4s2.4,6.3,4.9,8.3c0.8,0.6,3.1,1.7,5.8,2.5c-1.7,1.6-5.4,2-5.4,2s0.2,1.2,0.9,2.5
			c-4.2,2.1-7.1,4.2-7.1,4.2s9.6,1.6,14.9,11.2c-0.4-1.9-0.1-3.1-0.1-3.1c1.4,5.7,4.5,8.6,7.9,10.2c-0.5-7.6,3.9-8.5,3.9-8.5
			c0.5-0.1,1.2-0.1,1.9,0c1.4,0.2,2.5-0.6,2.7-1.7c2.5-3.1,1-4.5,1-4.5s-0.3-1.1,0-2.1c0.3-0.9,1.2-1.9,1.9-3.5
			c0.5,0.2,1.2,0.4,2.1,0.4c3.7,0.1,5.5-3.8,5.5-3.8c-2.7,0-4.6-1.5-5.9-2.8c2.9-0.7,5.5-1.8,6.3-2.4c2.3-1.8,4.6-7.6,4.6-7.6
			S49.3,2.5,49.1,2.4z"/>
		<path fill="#CF0A2C" d="M32.8,14.2c0.1-0.3,0.3-0.5,0.3-0.5c0.7-0.8,2,0,2,0c-0.4-1.1-1.4-1.4-2.2-1.4c0.4-0.4,0.9-1,0.6-2
			c-0.2-0.8-1-1.3-2.3-1.2c0,0-1.8,0.4-3.9,0.1c-1.6-0.2-4.2-1.4-6.5,0c0.6,0.7,0,1.9-0.1,2c-2.1,4.4-7.3,4.3-7.3,4.3
			c1.4-0.6,2.4-1.5,2.9-2.2c-1.2,0.8-3,1.6-5.5,1.8c0,0,0.4,3.2,4.5,3.3c1.1,0,1.9-0.2,2.5-0.4c0.2-1.2,0.7-1.9,0.7-1.9
			s-0.1,4,4.3,6.9c0.1-1.5,0.7-2.3,0.7-2.3S23.5,22.4,24,24c0.5,1.5,0.5,2.6,0.6,3.3c0.2,1.4,1.5,1.6,2,1c0,0-0.9-2.7,0.1-3.7
			c1.1-0.9,2.6-0.1,2.6-0.1s1.2,0.6,2.1,0.2c1.1-0.4,1.7-0.2,1.7-0.2s-0.8-1.3-0.9-2.5c-0.1-1.5,0.2-2-0.1-3.4
			c-0.7,0.4-1.4,0.5-1.4,0.5C32.4,18.1,32.4,15.7,32.8,14.2z M24.3,17.4c-0.3,0.1-0.5-0.1-0.5-0.1c-0.1,0-0.5-0.5-0.2-1
			c0.2,0.1,0.4,0.3,0.4,0.3c0-0.1-0.3-0.8-0.4-0.9c-0.2,0-0.4,0-0.5,0.1c-0.3,0.3-0.2,0.9,0.2,1.3c-0.4-0.1-0.7-0.3-1-0.6
			c-0.6-0.7-0.7-1.6-0.2-2.1c0.2-0.2,0.5-0.3,0.8-0.3c-0.6-0.8-1.4-0.8-1.4-0.8s1.9-1.2,2.9,1.1c0.6,1.4,1.3,3.9,3.3,4.7
			C27.6,19.2,25.5,19.7,24.3,17.4z"/>
		<path fill="#CF0A2C" d="M17.4,21.5c0.1,5.9,2.5,10.8,5,12.7c0.8-6.3-2.8-6.8-4.2-14.5c-2.3,1.2-4.8,1.6-7.2,1.5
			c1.7,1.1,3.5,2.6,5.1,4.7C16.5,23.2,17.4,21.5,17.4,21.5z"/>
		<g>
			<path fill="#FFFFFF" d="M19.6,9.2c-3.2,0.1-8.5-0.1-10.6-1.5c0,0,2.1,2.7,10.7,3.2C20.2,10.6,20.2,9.5,19.6,9.2z"/>
			<g>
				<path fill="#FFFFFF" d="M28.3,25.6c-0.3,0.1-0.5,0.5-0.5,0.8c0.1,0.4,0.4,0.6,0.8,0.6c0,0,0.1,0,0.1,0c0.4-0.1,0.7,0,0.9,0.2
					L28.3,25.6z"/>
				<path fill="#FFFFFF" d="M33.5,25.9L32,27.1c0.2-0.1,0.5-0.3,0.9-0.1c0,0,0.1,0,0.1,0.1c0.3,0.1,0.6-0.1,0.7-0.4
					C33.8,26.3,33.7,26,33.5,25.9z"/>
			</g>
			<path fill="#FFFFFF" d="M23.8,17.3c-0.1,0-0.5-0.5-0.2-1c0.2,0.1,0.4,0.3,0.4,0.3c0-0.1-0.3-0.8-0.4-0.9c-0.2,0-0.4,0-0.5,0.1
				c-0.3,0.3-0.2,0.9,0.2,1.3l0,0c0.3,0.2,0.6,0.3,0.9,0.3C23.9,17.4,23.8,17.3,23.8,17.3z"/>
		</g>
	</g>
</g>
</svg>
