<?xml version="1.0" encoding="utf-8"?>
<!-- Generator: Adobe Illustrator 18.1.1, SVG Export Plug-In . SVG Version: 6.00 Build 0)  -->
<svg version="1.1" id="Layer_1" xmlns="http://www.w3.org/2000/svg" xmlns:xlink="http://www.w3.org/1999/xlink" x="0px" y="0px"
	 viewBox="0 0 354 170.2" enable-background="new 0 0 354 170.2" xml:space="preserve">
<rect x="-186.5" y="-115.1" display="none" fill="#0D0C0C" width="752.4" height="390.5"/>
<g>
	<g>
		<path fill="#FFFFFF" d="M323.7,74.5c0.1,1.2-0.1,2.5,0.2,3.7c0,0.1,0,0.1,0,0.2c-0.3,1.1,0.1,2.2,0.1,3.3c0,0.8,0.1,1.6,0.1,2.3
			c0,0.8,0,1.6,0,2.4c0,1.1,0.1,2.1,0.2,3.2c0,0.3-0.1,0.6,0.2,0.8c0,0-0.1,0.1-0.1,0.2c-0.2,0.7-0.2,1.5-0.1,2.2
			c0.1,0.6,0,1.1-0.1,1.7c0,0.3-0.1,0.7-0.1,1c0,0.8,0,1.6,0,2.4c0,0.4,0,0.9,0.4,1.3c0,0,0,0.1,0,0.2c0,0-0.2,0.1-0.2,0
			c-0.4-0.1-0.8-0.2-1.1-0.4c-0.5-0.4-1.2-0.7-1.8-1c-0.3-0.1-0.5-0.3-0.5-0.6c-0.1-0.6-0.3-1.1-0.3-1.7c0-0.4-0.1-0.9-0.2-1.3
			c-0.1-0.6,0-1.3,0-1.9c0-0.6,0.2-1.2,0.2-1.8c0-0.4,0.1-0.8,0-1.1c-0.1-0.5-0.1-1,0-1.5c0.1-0.7,0.1-1.5,0-2.3
			c-0.1-1.4-0.1-2.7,0-4.1c0-0.8,0-1.6,0.1-2.3c0-0.7,0.1-1.4,0.1-2.1c0-0.4,0-0.9,0-1.3c-0.1-0.9-0.1-1.8,0-2.7
			c0.1-0.7,0.1-1.4-0.1-2c0-0.1-0.1-0.2,0-0.3c0.2-0.7,0-1.3,0-1.9c-0.1-0.6-0.1-1.2,0-1.8c0.1-0.7,0.3-1.5,0.2-2.2
			c0-0.6-0.2-1.1-0.2-1.7c0-0.4,0.1-0.7,0.1-1.1c0-0.4,0-0.8-0.1-1.2c0-0.3,0-0.5,0-0.8c0.1-0.6,0-1.1,0-1.7c-0.2-1.4-0.3-2.8,0-4.2
			c0-0.1,0.1-0.2,0-0.3c-0.5-0.8-0.1-1.6-0.4-2.4c0.1-0.5-0.3-1.1-0.1-1.6c0.1-0.5,0.1-1,0.2-1.5c0-0.1,0-0.2,0-0.3
			c-0.3-0.6-0.2-1.2-0.2-1.8c0-0.6-0.2-1.2-0.1-1.7c0.2-1.2,0-2.3,0-3.5c0-0.6-0.2-1.1-0.2-1.7c-0.1-0.5,0.2-1.1,0-1.6
			c-0.1-0.4-0.2-0.8-0.3-1.2c0-0.1-0.1-0.3,0-0.4c0.5-0.4,0-0.8,0.1-1.2c0.1-0.4,0.2-0.8,0.2-1.2c0-0.4,0-0.8,0-1.2
			c0-0.3,0-0.6,0.1-0.9c0-0.4,0.1-0.8,0.1-1.2c0-1.4,0-2.9,0-4.3c0-0.7-0.1-1.4-0.2-2.1c0-1.3,0-2.6-0.1-3.9c0-1-0.1-1.9-0.1-2.9
			c0-0.6-0.4-0.9-1.1-1.1c-0.9-0.1-1.7-0.3-2.6-0.4c-0.5-0.1-0.8-0.3-1-0.8c-0.5-1-0.5-1.9-0.2-2.9c0.1-0.4,0.3-0.6,0.6-0.9
			c0,0,0.2-0.1,0.2,0c0.1,0,0.2,0.1,0.2,0.1c0,0.2,0.1,0.4,0.1,0.6c0,0.4,0.2,0.7,0.4,1.1c0.1,0.2,0.3,0.3,0.6,0.2
			c0.1,0,0.2,0.3,0.4,0.3c0.3,0.1,0.7,0.2,1.1,0.1c1.1-0.2,2.3-0.1,3.5-0.2c0.4,0,0.7,0,1.1,0.3c0.3,0.2,0.7,0.4,0.6,0.8
			c0.6,1.2,0.7,2.4,1.4,3.6c0.2,0.4,0.4,0.8,0.4,1.3c0,0.6,0.5,1.2,0.3,1.9c0,0.1,0,0.1,0,0.2c0.5,1.1,0.7,2.2,0.9,3.4
			c0,0.1,0.1,0.2,0.1,0.3c0.5,0.4,0.5,1,0.7,1.5c0.1,0.2,0.1,0.5,0.4,0.6c0.1,0,0.1,0.2,0.1,0.3c-0.1,0.4,0,0.7,0.2,1.1
			c0.3,0.8,0.5,1.6,0.6,2.5c0,0.2,0,0.3,0.1,0.5c0.6,1.3,0.9,2.6,1.4,3.9c0.2,0.5,0.4,0.9,0.5,1.4c0.3,0.9,0.5,1.7,0.8,2.6
			c0.1,0.3,0.2,0.5,0.3,0.8c0,0,0.1,0,0.2,0c0,0,0.1,0,0.1-0.1c0,0,0.1-0.1,0.1-0.1c0.2-1.1,0.7-2,1-3.1c0.2-0.7,0.3-1.4,0.5-2.1
			c0.5-1.6,1-3.2,1.4-4.8c0.2-0.7,0.4-1.5,0.6-2.2c0.1-0.5,0.3-0.9,0.4-1.4c0.2-0.6,0.4-1.3,0.5-1.9c0.2-1.2,0.6-2.3,1.1-3.5
			c0.3-0.7,0.5-1.5,0.7-2.3c0.4-1.3,0.7-2.7,1.1-4c0-0.1,0.1-0.3,0.1-0.4c0.2-0.6,0.6-0.9,1.3-1.1c0.7-0.1,1.4-0.2,2-0.3
			c0,0,0.1,0,0.1,0c1.6-0.2,2.8-0.8,3.1-2.2c0-0.1,0.1-0.1,0.2-0.2c0,0,0.1,0.1,0.2,0.1c0,0,0,0.1,0.1,0.1c0.3,0.6,0.8,2.6,0.3,3.4
			c-0.1,0.2-0.3,0.4-0.5,0.5c-0.8,0.3-1.5,0.8-2.5,0.8c-0.2,0-0.3,0.1-0.2,0.3c0,0.2,0.1,0.3,0.1,0.5c-0.3,1.2-0.1,2.4-0.1,3.6
			c0,0.2,0,0.4,0,0.6c-0.6,1.6-0.6,1.8-0.7,3.5c0,0.5-0.2,1-0.2,1.5c0,0.5,0,1.1,0,1.6c0,0.5,0,1,0,1.5c0,0.5,0.1,1.1-0.1,1.6
			c-0.1,0.4,0,0.7,0,1.1c0,0.8,0,1.6-0.1,2.4c-0.1,0.9-0.1,1.8,0,2.7c0.1,0.9,0.1,1.8,0,2.7c0,0.9,0,1.8,0,2.8c0,0.2-0.1,0.4,0,0.6
			c0.3,0.9,0.1,1.8,0.1,2.8c0,0.2,0,0.3-0.1,0.5c-0.1,0.4-0.1,0.9,0,1.3c0.1,0.4,0.1,0.9,0.1,1.3c0.1,1.3,0.1,2.5,0.1,3.8
			c0,1.6,0.1,3.2,0,4.8c0,0.8-0.1,1.6-0.2,2.4c0,0.1,0,0.2,0,0.3c0,0.6,0.2,1.2,0.2,1.8c0,0.6,0.1,1.1,0.1,1.7
			c0,0.8,0.1,1.6,0.1,2.4c0,0.3,0,0.6,0,0.9c0,0.7,0,1.4,0,2c0,0.4,0,0.8,0,1.2c0,0.1,0,0.2,0,0.3c-0.3,0.8-0.1,1.7-0.1,2.6
			c0,0.7,0.1,1.4,0,2.2c-0.1,0.4,0.1,0.8,0.1,1.2c0,1.2,0,2.3,0.1,3.5c0.1,0.9,0.2,1.8,0.2,2.6c0,0.3,0,0.6,0,0.8
			c-0.2,1-0.3,2.1-0.3,3.1c0,0.2,0,0.4,0,0.6c0,0.5,0.1,0.9-0.1,1.4c-0.1,0.4-0.1,0.8,0,1.2c0.2,0.7,0.2,1.4,0.2,2
			c0,0.8,0,1.6,0.1,2.4c0,0.5-0.3,1-0.1,1.5c-0.2,0.9,0,1.8,0.1,2.6c0.1,1.3,0.2,2.6,0.2,3.9c0,1,0.1,1.9,0.3,2.9
			c0.2,0.8,0.2,1.6,0,2.3c-0.1,0.3,0,0.7,0,1c0,0.2,0.1,0.3,0.1,0.5c0,0.2,0,0.3-0.2,0.4c-0.2,0.1-0.4,0-0.5-0.1
			c-0.3-0.5-0.8-0.9-1.4-1.2c-0.2-0.1-0.4-0.3-0.5-0.4c-0.3-0.7-0.7-1.5-0.5-2.3c0.1-0.3,0-0.7,0-1c-0.1-0.4-0.1-0.9-0.1-1.3
			c0-0.2,0-0.3,0-0.5c-0.2-0.9-0.2-1.9-0.2-2.8c-0.1-1.4-0.1-2.8-0.2-4.2c0-0.5,0-1,0.1-1.4c0.1-0.3,0.1-0.6,0-0.9
			c-0.1-0.1-0.1-0.3,0-0.4c0.2-0.5,0.1-1.1,0.1-1.6c0-1,0-2,0.1-3c0.1-1,0-2-0.1-3c-0.1-1-0.2-2-0.2-3c0-1.1-0.1-2.1,0.1-3.2
			c0.1-0.7,0-1.5-0.1-2.3c0-1.6,0-3.1-0.1-4.7c0-0.1,0-0.3,0-0.4c0.3-0.8,0.2-1.6,0.1-2.4c-0.1-0.8-0.3-1.7,0-2.5
			c0.1-0.2,0-0.5,0-0.7c0-0.4,0-0.8,0-1.1c0-0.7,0.1-1.4-0.1-2.1c-0.1-0.5,0-1,0-1.4c0-1.1,0-2.3-0.1-3.4c0-0.5,0.1-1.1,0-1.6
			c-0.1-0.5,0-1.1-0.1-1.6c-0.1-0.7,0.1-1.4-0.3-2.1c-0.1-0.1,0.1-0.3,0-0.5c0-0.2,0.3-0.5-0.1-0.7c-0.1,0,0-0.3,0-0.4
			c0.1-0.2,0.1-0.4,0.2-0.7c0-1.2,0.1-2.3,0-3.5c-0.1-0.9-0.1-1.8,0.1-2.8c0.1-0.5,0-0.9,0-1.4c0.1-1.1,0.2-2.2,0.4-3.4
			c-0.2-0.6,0-1.2,0-1.8c0-0.2,0-0.5-0.2-0.7c-0.2-0.2-0.2-0.4-0.1-0.7c0.3-0.9,0.1-1.8,0.1-2.7c0-0.8-0.1-1.5-0.2-2.2
			c0-0.5,0-1-0.1-1.5c-0.1-0.4-0.2-0.8-0.1-1.1c-0.2-0.2-0.2-0.2,0.1-0.4c0.1,0,0.1-0.2,0.2-0.2c-0.1-0.1-0.3-0.1-0.4-0.2
			c-0.1,0-0.2,0.1-0.3,0.2c-0.1,0.3-0.2,0.5-0.3,0.8c-0.1,0.7-0.3,1.3-0.6,2c-0.2,0.6-0.4,1.2-0.6,1.9c-0.4,1.5-1,3-1.5,4.5
			c-0.2,0.6-0.3,1.3-0.6,1.9c-0.2,0.5-0.4,1-0.4,1.6c-0.1,0.8-0.5,1.5-0.8,2.2c-0.3,0.6-0.4,1.1-0.5,1.8c-0.1,0.7-0.4,1.3-0.7,2
			c-0.2,0.5-0.5,1.1-0.6,1.7c-0.1,0.5-0.4,1-0.6,1.6c-0.1,0.2-0.2,0.3-0.2,0.5c-0.1,0.2,0.1,0.6-0.4,0.5c-0.3,0-0.4-0.3-0.5-0.5
			c-0.6-1.5-1.2-3.1-1.5-4.6c-0.2-0.8-0.5-1.5-0.7-2.3c-0.4-1.3-0.8-2.5-1.2-3.8c-0.1-0.4-0.3-0.7-0.5-1c-0.4-0.9-0.5-1.8-0.7-2.7
			c-0.2-0.8-0.4-1.5-0.6-2.3c-0.1-0.3-0.2-0.5-0.4-0.7c-0.2-0.2-0.6-0.4-0.4-0.8c-0.3-0.2-0.4-0.5-0.3-0.8c-0.6-1.1-0.6-2.3-0.9-3.5
			c0-0.1-0.1-0.3-0.1-0.4c-0.1-0.1-0.3-0.2-0.4-0.2c-0.1,0-0.3,0.1-0.3,0.2c-0.1,0.2-0.1,0.4-0.1,0.6c0,1.2,0,2.3-0.1,3.5
			c-0.1,0.8,0.1,1.6,0.1,2.5c0.1,1,0.1,1.9,0.2,2.9c0,0.5,0,1.1,0,1.6c0,1.5,0.1,3,0.3,4.5c0,0.4,0,0.9-0.1,1.3
			c-0.1,0.7-0.1,1.4-0.1,2.1c-0.1,1-0.2,1.9-0.2,2.9c0,0.3,0,0.6,0,0.8c0.7,3.8,0.8,4.6,0.8,8.6c0,0.3,0,0.6-0.1,0.9
			c-0.2,1.3-0.1,2.7,0.1,4c0,0.2,0.1,0.4,0,0.6c-0.2,1.3-0.1,2.6,0,3.9c0.1,0.9,0.3,1.8,0.2,2.7c-0.1,0.6,0,1.1-0.1,1.7
			c-0.1,0.6,0,1.2,0,1.7C323.7,73.6,323.7,74,323.7,74.5z M323,97.5c-0.1,0-0.3,0.1-0.3,0.1c0,0.1,0,0.2,0.1,0.3
			c0.1,0.1,0.2,0.2,0.3,0.2c0.1,0,0.3,0,0.3,0c0.1-0.1,0.1-0.2,0-0.3C323.3,97.7,323.1,97.6,323,97.5z"/>
		<path fill="#FFFFFF" d="M18.5,79.3c0,0.7-0.2,1.4-0.1,2c0.1,0.5,0.1,1.1,0.1,1.6c0,0.1-0.1,0.1-0.1,0.2c0,0-0.1,0-0.2-0.1
			c-0.1,0-0.1-0.1-0.1-0.2c0,0,0-0.1-0.1-0.1c0-0.1-0.1-0.1-0.1-0.2c0,0.1-0.1,0.1,0,0.2c0.3,0.4,0.2,0.8,0.3,1.2
			c0,0.1,0,0.2,0.1,0.1c0,0,0-0.1,0-0.1c0,0,0.1-0.1,0.1-0.1c0.1,0,0.1,0.1,0.1,0.1c0,0.3,0,0.7,0,1c0,0.2-0.1,0.4-0.2,0.6
			c-0.2,0.2-0.2,0.3,0.1,0.4c0,0,0.1,0,0.1,0.1c-0.1,0.6,0.2,1.3,0.1,1.9c-0.1,1-0.2,2,0.1,3.1c0.2,0.7,0.1,1.3,0,2
			c-0.3,1.2-0.4,2.4-0.2,3.7c0.1,0.6,0.1,1.3,0,1.9c0,0.5,0,1,0,1.4c0.1,1.3,0.1,2.6-0.1,3.9c0,0.3-0.1,0.6,0,0.8
			c0.4,0.8,0.2,1.6,0,2.4c-0.1,0.2-0.2,0.4,0.1,0.6c0.1,0.1,0.1,0.3,0,0.4c-0.5,0.4-1,0.8-1.6,1.1c-0.1,0.1-0.4,0-0.4-0.1
			c0-0.1,0-0.1-0.1-0.2c0-1.2-0.2-2.4,0.1-3.6c0.1-0.5,0-1-0.1-1.5c-0.1-0.3-0.2-0.6-0.2-0.9c0-1.3-0.1-2.5-0.1-3.8
			c0-1.1-0.2-2.2-0.4-3.4c-0.2-1-0.1-2-0.2-3c0-0.1,0-0.3,0.1-0.3c0.4-0.2,0.4-0.5,0.3-0.8c0-0.3,0-0.6,0-0.9c0-0.6-0.1-1.2-0.1-1.7
			c0-0.2,0-0.3,0-0.5c0-0.2,0-0.4,0-0.6c0-1.2,0.1-2.5-0.1-3.7c-0.2-1.5-0.2-3-0.2-4.5c0-0.4,0-0.9,0.2-1.3c0.2-0.3,0.1-0.7,0.1-1.1
			c0-0.5,0-1,0-1.5c0-0.2,0-0.4-0.1-0.5c-0.5-0.3-0.3-0.7-0.1-1.1c0.2-0.5,0.2-1,0.1-1.4c-0.1-0.6-0.2-1.2,0-1.8
			c0-0.2,0.1-0.4,0-0.5c-0.4-0.9-0.3-1.8-0.3-2.6c0-0.8-0.2-1.6,0.2-2.4c-0.1-0.7,0.2-1.5-0.4-2.2c-0.1-0.1-0.1-0.4-0.1-0.6
			c0.1-0.7,0.3-1.4,0.3-2.1c0-0.4,0-0.9,0-1.3c0-0.5,0-1.1-0.1-1.6c0-0.4-0.1-0.7-0.1-1.1c0-0.3-0.1-0.7,0-1
			c0.2-0.5,0.1-1.1,0.2-1.6c0-0.8-0.2-1.6,0.1-2.5c0-0.1,0-0.2,0-0.3c-0.3-1-0.3-2-0.1-3.1c0.1-0.6,0.1-1.2,0-1.7
			c0-0.4,0.1-0.9,0-1.3c-0.1-0.4-0.1-0.8,0-1.2c0.1-0.9-0.2-1.8,0.1-2.6c0,0,0-0.1,0-0.1c-0.5-1.3,0.1-2.6-0.1-3.9
			c-0.1-0.7-0.2-1.5-0.3-2.2c-0.1-1.1-0.1-2.3,0.1-3.4c0-0.2,0-0.5-0.1-0.7c0-0.4-0.1-0.9-0.1-1.3c0.1-0.4,0.1-0.9,0.1-1.3
			c0-1.3,0-2.6,0-3.9c0-0.9-0.1-1.7-0.3-2.6c-0.1-0.7-0.1-1.4-0.1-2.1c0-0.3,0-0.6-0.1-0.8c-0.2-0.3-0.2-0.6,0-1
			c0.1-0.1,0-0.3-0.1-0.4c-0.1-0.1-0.3-0.1-0.4-0.1c-1.2,0.4-2.4,0.2-3.6-0.2C10.3,17.1,10.1,17,10,17c-0.6,0-1-0.3-1.3-0.6
			c-0.6-0.6-1.1-1.2-1.3-1.9c-0.1-0.2-0.1-0.4-0.1-0.6C7.4,13.5,6.9,13,7.5,13c0.5-0.1,0.4,0.4,0.6,0.7c0.2,0.5,0.6,0.8,1.2,0.9
			c0.2,0,0.3,0.1,0.5,0.1c0.4,0.2,0.8,0.2,1.3,0.1c0.2-0.1,0.5-0.1,0.7-0.1c0.6,0,1.2,0,1.8-0.2c0.4-0.1,0.9-0.1,1.3,0
			c0.3,0.1,0.7,0,1,0.1c0.4,0,0.7,0,1.1,0.2c0.1,0.1,0.2,0.1,0.3,0.1c0.9,0.1,1,0.1,1.1,0.8c0.2,1.3,0.6,2.6,0.9,3.9
			c0.1,0.4,0.3,0.7,0.4,1.1c0.3,0.8,0.5,1.6,0.7,2.4c0.4,1.3,0.9,2.6,1.4,3.9c0.3,0.7,0.5,1.4,0.9,2.1c0.2,0.4,0.3,0.8,0.4,1.3
			c0.3,1,0.5,2.1,0.9,3.1c0.5,1.1,0.8,2.2,1.3,3.3c0.3,0.6,0.5,1.2,0.5,1.8c0,0.4,0.2,0.9,0.4,1.3c0.2,0.3,0.1,0.8,0.5,1
			c0.1-0.3,0.3-0.6,0.4-1c0.1-0.3,0.1-0.6,0.2-0.9c0-0.3,0.1-0.5,0.1-0.8c0.5-1.5,0.9-3,1.4-4.6c0-0.1,0-0.2,0.1-0.3
			c0.6-1,0.7-2.2,1-3.3c0-0.1,0.1-0.2,0-0.3c-0.1-1.1,0.4-2,0.7-3c0.3-0.8,0.6-1.6,0.9-2.5c0.4-1.1,0.8-2.2,1.2-3.3
			c0.2-0.7,0.4-1.5,0.7-2.2c0.3-1,0.7-2,1.1-2.9c0.1-0.2,0.1-0.4,0.2-0.6c0.1-0.6,0.2-0.7,0.9-0.7c0.6,0,1.2,0,1.7,0
			c0.7,0,1.4,0,2.1-0.2c1-0.2,1.8-0.7,2.3-1.4c0.2-0.3,0.3-0.6,0.8-0.6c0.1,0.3,0.2,0.5,0.2,0.8c0,0.2,0,0.5,0,0.7
			c0,1.1-0.7,2-1.5,2.7c-0.1,0.1-0.3,0.2-0.5,0.2c-0.7,0.2-1.4,0.3-2.2,0.3c-0.4-0.1-0.5,0-0.6,0.5c0,0.2-0.1,0.5-0.1,0.7
			c0.1,1-0.1,2-0.1,2.9c0,0.8-0.1,1.6,0,2.4c0.2,0.8,0.2,1.6,0.2,2.5c0,0.6,0,1.3-0.1,1.9c-0.1,0.9,0,1.8,0,2.7c0,0.9,0,1.8-0.1,2.7
			c-0.1,0.6,0,1.2-0.2,1.8c0.2,0.5,0.2,1.1,0.2,1.6c0,1,0.1,2,0,3.1c0,0.4-0.1,0.9-0.2,1.3c-0.2,0.5-0.1,0.9-0.1,1.4
			c0,1.3,0.1,2.5,0.1,3.8c0,0.3,0,0.6,0.1,0.9c0.1,0.4,0.1,0.8,0.1,1.2c0,1.3,0.1,2.7-0.1,4c-0.1,1.1,0,2.2,0.2,3.3
			c0.1,0.6,0,1.1,0,1.7c0,0.5-0.1,1,0.1,1.5c0,0.1,0.1,0.1,0,0.2c-0.2,0.8,0.1,1.5,0,2.3c-0.2,1.4-0.1,2.9,0.1,4.3
			c0,0.1,0.1,0.3,0,0.4c-0.1,1.1,0,2.2,0,3.2c0,0.1,0,0.1,0,0.2c-0.1,0.4-0.5,0.7-0.3,1.1c0.2,0.4,0,0.7,0,1.1c0,0.3-0.1,0.7-0.2,1
			c-0.1,0.5-0.1,1.1,0,1.6c0,0.3,0.1,0.6,0,0.9c-0.1,0.3-0.1,0.6,0,0.8c0.1,0.3,0.1,0.6,0,0.9c0,0.1-0.1,0.3,0,0.4
			c0.2,0.6,0.1,1.1,0.1,1.7c0,0.4,0,0.8,0.1,1.2c0.1,0.5,0,1.1,0,1.6c-0.2,1.3,0,2.7,0,4c0,1.5,0.1,2.9,0,4.4
			c-0.1,1.1-0.2,2.2-0.1,3.3c-0.3,0.7,0,1.5,0,2.2c0,0.2,0.1,0.4,0.1,0.6c0,0.2,0.1,0.3,0.1,0.5c-0.2,0.7-0.2,1.5-0.1,2.2
			c0,0.4-0.2,0.7-0.6,0.8c-0.5,0.1-1,0.2-1.6,0.3c-0.1,0-0.3,0-0.3-0.1c-0.1-0.1,0-0.2,0.1-0.3c0.2-0.2,0.3-0.4,0.3-0.6
			c0-0.9,0-1.7,0-2.6c0-0.6-0.1-1.2,0.1-1.8c0.1-0.3,0.1-0.6-0.1-0.8c-0.2-0.4-0.2-0.9-0.1-1.3c0.2-0.7,0.2-1.4,0.1-2
			c0-0.6,0-1.3,0-1.9c0-1-0.2-3.8-0.4-4.9c-0.1-0.3-0.1-0.6,0.1-0.9c0.1-0.2,0.1-0.4,0.1-0.6c-0.1-0.9-0.1-1.8-0.2-2.7
			c0-0.2,0-0.3,0-0.5c0.1-2.1,0.4-4.2,0.2-6.3c-0.1-0.8-0.2-1.6,0.1-2.3c0-0.1,0-0.3,0-0.4c-0.3-1.3-0.2-2.7-0.3-4
			c0-0.3,0-0.7-0.2-1c-0.1-0.1-0.1-0.3-0.1-0.5c0-1,0-2,0.1-3.1c0.1-1.2,0-2.4-0.1-3.6c0-0.4,0-0.9-0.2-1.3c-0.1-0.3-0.1-0.7,0-1
			c0.4-0.8,0.2-1.6,0.1-2.3c-0.1-0.4-0.1-0.8-0.1-1.2c0.1-0.4,0-0.9,0-1.3c0-1.2,0-2.3-0.2-3.5c-0.2-1.1-0.2-2.2,0.2-3.3
			c0.1-0.3,0.1-0.5,0.1-0.8c0-0.6-0.1-1.2,0.2-1.7c0-0.8,0.2-1.7-0.2-2.5c-0.1-0.3-0.1-0.5-0.2-0.8c0-1.6,0-3.2-0.1-4.8
			c-0.1-1.1,0.1-2.2,0.2-3.4c0-1-0.1-2-0.3-3.1c0-0.2-0.1-0.4-0.2-0.6c0-0.1-0.1-0.1-0.1-0.1c0,0-0.1,0-0.1,0.1c0,0,0,0.1-0.1,0.1
			c-0.3,0.5-0.7,1.1-0.8,1.6c-0.2,0.9-0.6,1.8-0.9,2.7c-0.3,1.2-0.5,2.4-1.2,3.5c-0.1,1-0.8,1.8-1.2,2.8c-0.1,0.2-0.1,0.4-0.1,0.6
			c-0.2,1.7-0.7,3.4-1.2,5.1c-0.3,1.3-0.7,2.7-1.1,4c-0.3,0.9-0.6,1.8-0.7,2.7c0,0.4-0.1,0.8-0.2,1.2c0,0.2,0,0.4-0.1,0.6
			c0,0.1-0.2,0.2-0.3,0.3c-0.1,0.1-0.4-0.2-0.4-0.3c-0.1-0.6-0.3-1.3-0.7-1.8c-0.2-0.3-0.2-0.7-0.1-1c0-0.4-0.1-0.7-0.3-1
			c-0.7-1.1-1-2.2-1.3-3.4c-0.2-0.7-0.4-1.5-0.7-2.2c-0.3-0.7-0.6-1.5-0.9-2.2c-0.2-0.5-0.4-0.9-0.5-1.4c-0.2-0.6-0.6-1.1-0.4-1.8
			c-0.4-0.9-0.5-1.9-0.9-2.8c-0.3-0.6-0.4-1.2-0.6-1.9c-0.1-0.4-0.2-0.8-0.3-1.2c-0.1-0.2-0.1-0.4-0.3-0.5c-0.7-0.5-1-1.2-1.3-2
			c0,0-0.1-0.1-0.1-0.1c-0.1,0-0.1,0.1-0.2,0.1c0,0.1-0.1,0.3-0.1,0.4c0.2,0.8,0.3,1.6,0.1,2.4c0.4,0.6,0,1.3-0.1,1.9
			c-0.1,0.5-0.1,1.1-0.1,1.6c0,1.4,0,2.7,0.1,4.1c0.1,1.1,0.1,2.2,0.2,3.3c0.1,1.3,0.4,2.5,0.3,3.8c0,0.7-0.1,1.3-0.1,2
			c0,0.2,0.1,0.5,0.1,0.7c0,1,0.1,1.9,0.1,2.9c0,0.7-0.2,1.4-0.3,2c0,0.1-0.1,0.2-0.1,0.3c0.3,0.6,0,1.3,0,1.9
			c0,0.4,0.1,0.8,0.1,1.2c0.1,1.1,0.3,2.2,0.2,3.3c0,0.3-0.1,0.5,0,0.8c0.1,1.2-0.1,2.4-0.3,3.6c0,0,0,0.1,0,0.1
			c0.1,1.1-0.1,2.2,0,3.3c0.1,0.5,0.2,1.1,0.3,1.6c0.1,0.5,0,1,0,1.4c0,0.8-0.1,1.6-0.2,2.3c0,0.1-0.1,0.1-0.1,0.2
			c0-0.1-0.1-0.1-0.1-0.2c-0.1-0.5-0.1-1.1,0-1.6c0.1-0.2,0-0.3,0-0.5c-0.1-0.3,0-0.5,0-0.8c0-0.2,0-0.4,0-0.6
			c0-0.3-0.2-0.6-0.3-0.5c-0.1,0.1-0.1,0.3-0.1,0.5c0.1,0.9,0.1,1.8-0.2,2.8c-0.1,0.4,0,0.7,0,1.1c0,0.7,0,1.4,0,2.1
			c0,0.6-0.2,1.2,0,1.8c0.1,0.1-0.1,0.3-0.1,0.5c0,0.2,0.1,0.5,0.1,0.7c0,0.1,0.1,0.1,0.2,0.1c0,0,0.1-0.1,0.1-0.1
			c0.1-0.3,0.2-0.6,0.3-0.9c0-0.1,0.1-0.1,0.1-0.2c0,0.1,0.1,0.1,0.1,0.2c0,0.2,0,0.4,0,0.6C18.4,78.7,18.4,79,18.5,79.3
			C18.4,79.3,18.4,79.3,18.5,79.3z M18.1,80c0-0.1-0.1-0.2-0.1-0.3c0,0-0.1-0.1-0.1-0.1c-0.1,0-0.2,0-0.2,0.1c0,0.1,0,0.2,0,0.3
			c0,0.4,0,0.9,0.1,1.3C17.9,80.8,18,80.4,18.1,80z M17.6,58.7c0,0.1,0,0.2,0.1,0.3c0,0,0.1,0.1,0.2,0.1c0,0,0.1-0.1,0.1-0.1
			c0-0.3-0.1-0.5-0.1-0.8c0-0.1,0-0.1-0.1-0.2c0,0.1-0.1,0.1-0.1,0.2C17.7,58.4,17.7,58.5,17.6,58.7z M17.1,107.2
			C17.1,107.2,17,107.1,17.1,107.2c-0.1-0.1-0.2-0.1-0.2-0.1c-0.1,0.2-0.2,0.4-0.3,0.7c0,0,0.1,0.1,0.1,0.1c0,0,0.1,0,0.1-0.1
			C16.9,107.6,17,107.4,17.1,107.2z M15.9,15.4c-0.1,0-0.2,0-0.2,0c0,0-0.1,0-0.1,0c0,0.1,0.5,0.2,0.6,0.2c0,0,0.1-0.1,0.1-0.1
			c0-0.1-0.1-0.1-0.1-0.2C16.1,15.4,16,15.5,15.9,15.4z M16.5,40.4c0-0.3,0-0.3,0-0.4c0-0.1-0.1-0.1-0.1-0.2c0,0.1-0.1,0.1-0.1,0.2
			c0,0.2,0,0.3,0,0.5c0,0.1,0.1,0.1,0.1,0.2C16.4,40.6,16.4,40.6,16.5,40.4C16.5,40.4,16.5,40.3,16.5,40.4z"/>
		<path fill="#FFFFFF" d="M207.3,23.5c0,0.3,0.1,0.6,0.1,0.9c0,0.4,0.1,0.9,0,1.3c-0.1,0.7,0,1.3,0,2c0.1,0.6-0.2,1.3,0,1.9
			c0.2,0.6,0.1,1.3,0.1,1.9c0,0.6,0,1.3,0,1.9c0,0.5,0.1,1,0.1,1.5c0,0.3-0.1,0.5-0.1,0.8c-0.1,0.8-0.1,1.5-0.1,2.3
			c-0.1,1.3-0.1,2.6-0.2,3.9c0,0.5,0,1,0,1.5c0,0.2,0,0.5,0,0.7c0,0.6-0.2,1.2,0,1.8c0.1,0.5,0,1.1,0,1.7c0,1.2,0.2,2.4,0.3,3.6
			c0.1,0.7,0.2,1.3,0.2,2c0,1.3,0.1,2.5,0.3,3.8c0,0.2,0.1,0.5,0,0.7c-0.5,0.9-0.3,1.8-0.2,2.7c0.1,1,0,2-0.1,3c0,0.1,0,0.3,0.1,0.4
			c0.2,0.3,0.2,0.6-0.1,0.9c-0.3,0.3,0.3,0.5,0.2,0.7c-0.1,0.2-0.4,0.5-0.1,0.7c0.3,0.3,0.1,0.5,0.1,0.8c0.1,1.5-0.2,2.9-0.2,4.3
			c0,0.2-0.1,0.4-0.1,0.6c0.4,0.2,0.2,0.4,0,0.7c-0.2,0.3-0.3,0.5-0.7,0.3c-0.4,0.2-0.8,0.1-1.2,0.1c-0.3,0.1-0.4-0.1-0.5-0.3
			c-0.1-0.3-0.2-0.7-0.2-1c-0.1-0.5,0-0.9-0.1-1.4c0-0.2-0.1-0.4-0.2-0.5c-0.4-0.3-0.4-0.7-0.4-1.1c0-0.6,0.1-1.3,0.2-1.9
			c0.1-0.8,0.2-1.6,0.2-2.4c0-1.3,0.1-2.7,0-4c0-0.5,0-1-0.2-1.5c-0.1-0.3-0.1-0.6,0-0.8c0.3-1.8,0.3-3.6,0-5.4
			c-0.1-0.6-0.1-1.2,0-1.8c0.1-0.6,0.1-1.2,0.1-1.8c0-0.1,0-0.3,0-0.4c-0.4-1.3-0.2-2.6-0.5-3.9c-0.2-1.1-0.1-2.3-0.1-3.4
			c0-1-0.1-1.9,0.1-2.9c0.1-0.4,0.1-0.8-0.3-1.1c-0.1-0.1-0.1-0.4-0.1-0.6c0-1,0-1.9,0.1-2.9c0.1-0.9,0-1.9,0-2.8
			c0-1.6-0.1-3.1,0.1-4.7c0.1-0.9,0.1-1.9-0.1-2.8c-0.1-0.5,0.2-1,0.2-1.5c0-0.5-0.2-1-0.3-1.5c0.3-0.9,0-1.9,0-2.8
			c0-1.2,0-2.3,0-3.5c0-0.1,0-0.3,0-0.4c0-0.6-0.1-0.7-0.7-1c-0.8-0.5-1.7-0.8-2.7-0.7c-0.8,0-1.3-0.3-1.7-0.9
			c-0.1-0.1-0.2-0.3-0.2-0.4c-0.1-0.4-0.1-0.8-0.1-1.2c0-0.5,0.1-0.9,0.1-1.4c0,0,0-0.1,0-0.1c0.1-0.1,0.2-0.1,0.3-0.2
			c0.1,0,0.2,0,0.2,0.1c0.1,0.1,0.2,0.3,0.3,0.4c0.2,0.2,0.4,0.4,0.7,0.4c0.3,0.1,0.7,0.2,1,0.4c0.6,0.5,1.3,0.4,2.1,0.3
			c1.1-0.2,2.2-0.1,3.4-0.1c0.1,0,0.2,0,0.3,0.1c0.5,0.4,1,0.7,1,1.4c0,0.2,0.2,0.5,0.3,0.7c0.4,0.6,0.7,1.2,1,1.8
			c0.2,0.6,0.7,1.1,0.9,1.7c0.2,0.7,0.6,1.4,0.9,2.1c0.3,0.9,0.8,1.8,1.2,2.6c0.9,1.6,1.6,3.3,2.3,5c0.2,0.5,0.5,1,0.8,1.5
			c0.3,0.4,0.7,0.4,1.1,0.1c0.1-0.1,0.3-0.3,0.3-0.4c0.2-0.4,0.2-0.7,0.4-1.1c0.2-0.3,0.4-0.7,0.6-1c0.4-0.6,0.5-1.2,0.7-1.9
			c0.2-0.7,0.6-1.4,0.9-2.1c0.4-0.9,1-1.8,1.2-2.8c0.1-0.3,0.3-0.5,0.4-0.8c0.1-0.4,0.2-0.7,0.4-1.1c0.1-0.2,0.1-0.5,0.2-0.7
			c0.7-1.1,0.9-2.3,1.5-3.5c0.1-0.2,0.2-0.3,0.2-0.5c0.3-0.7,0.9-0.9,1.7-1c0.7,0,1.5-0.1,2.2-0.1c0.6,0,1.1-0.1,1.6-0.3
			c0.4-0.1,0.6-0.2,0.6-0.5c0.1-0.4,0.2-0.9,0.4-1.3c0-0.1,0.2-0.2,0.2-0.2c0.1,0,0.3,0,0.4,0.1c0.6,0.8,0.7,1.7,0.6,2.6
			c0,0.5-0.4,1-0.9,1.3c-0.3,0.2-0.7,0.4-1.1,0.5c-0.4,0.1-0.9,0.2-1.2,0.5c0,0-0.1,0-0.2,0c-0.1-0.2-0.3-0.2-0.4,0
			c-0.2,0.3-0.3,0.6-0.3,0.9c0,0.4,0,0.7,0,1.1c0,0.4,0,0.7-0.1,1c-0.1,0.6-0.1,1.2,0,1.8c0.1,0.7,0.2,1.4,0.1,2.1
			c-0.1,1-0.2,2,0.2,2.9c0.1,0.1,0.1,0.3,0.1,0.4c0,2.1,0.1,4.1,0.1,6.2c0,0.8-0.2,1.5-0.1,2.3c0,0.1,0,0.2,0,0.3
			c0.2,1.5,0,3.1,0,4.6c0,0.6,0.1,1.1,0.2,1.7c0.1,0.4,0.1,0.8,0,1.3c-0.3,0.9-0.3,1.9,0,2.8c0.1,0.5,0.2,1,0.3,1.5
			c0,0.1,0,0.2,0,0.3c-0.2,0.4-0.1,0.8-0.1,1.3c0.1,0.6,0,1.3,0,1.9c0,0.1-0.1,0.3,0,0.4c0.2,1,0,1.9-0.1,2.8
			c-0.1,0.8-0.1,1.6,0.1,2.3c0.2,0.9,0.2,1.8,0.2,2.6c-0.2,2.4,0,4.7-0.1,7.1c0,1.4-0.2,2.8-0.1,4.1c0,0.5-0.1,1-0.1,1.5
			c0,0.2,0,0.4,0.1,0.6c0,0.3,0.1,0.7,0.1,1c0,0.6-0.1,1.1,0.3,1.6c0,0.1,0,0.1,0,0.2c-0.1,0.9,0.2,1.8,0.3,2.7c0,0.1,0,0.3,0,0.4
			c0,0.2-0.2,0.4-0.5,0.4c-0.6,0.1-1.2,0.1-1.8,0c-0.6-0.1-0.8-0.4-0.9-0.8c-0.1-0.7-0.2-1.3-0.1-2c0.1-0.8-0.1-1.6-0.1-2.4
			c0-0.1,0-0.3,0-0.4c0.3-0.9,0.4-1.9,0.2-2.8c-0.1-0.6-0.1-1.1,0-1.7c0.1-0.5,0-1.1-0.1-1.7c-0.2-0.7-0.5-1.4-0.2-2.2
			c0-1.3,0.2-2.5,0-3.8c-0.1-1-0.1-2,0.1-3c0.1-0.4,0.1-0.9,0-1.4c-0.1-0.5-0.2-0.9-0.2-1.4c0-0.2-0.2-0.5-0.2-0.7
			c0-0.8-0.1-1.6-0.1-2.3c0-0.2,0.1-0.3,0.2-0.5c0.2-0.5,0.1-1,0.1-1.6c-0.4-1-0.2-2-0.1-2.9c0.1-1.3,0.1-2.5,0.1-3.8
			c0-0.2-0.1-0.4-0.1-0.6c-0.1-0.3-0.1-0.7-0.1-1c0-0.5,0-1,0.1-1.5c0.1-0.3-0.5-0.5-0.1-0.8c0-0.3,0-0.6,0-0.9c0-0.4,0-0.8,0-1.3
			c0-0.3,0-0.5,0.1-0.7c0.2-0.5,0.1-1-0.1-1.4c-0.4-0.6-0.4-1.2-0.3-1.8c0.1-0.4,0.1-0.8,0-1.1c-0.1-0.4,0-0.9,0-1.3
			c0.1-0.5,0.1-0.9,0.1-1.4c-0.1-1.3-0.2-2.6-0.3-3.9c-0.2-0.2-0.1-0.3,0.1-0.4c0,0,0-0.1-0.1-0.2c0,0-0.1,0-0.1,0
			c-0.2,0.2-0.6,0.1-0.7,0.5c0,0.3-0.2,0.5-0.5,0.7c-0.2,0.1,0.5,0.3-0.1,0.4c-0.3,0-0.3,0.3-0.3,0.5c-0.1,0.2-0.1,0.4-0.2,0.6
			c-0.1,0.2-0.2,0.4-0.3,0.6c-0.1,0.2-0.1,0.4-0.2,0.6c-0.3,0.8-0.5,1.6-0.9,2.3c-0.3,0.6-0.5,1.2-0.7,1.8c-0.7,1.7-1.6,3.4-2.4,5.1
			c-0.4,0.9-0.9,1.8-1.3,2.7c0,0.1-0.1,0.2-0.2,0.2c0,0-0.2-0.1-0.2-0.2c-0.2-0.5-0.4-0.9-0.6-1.4c-0.4-0.9-0.8-1.8-1.3-2.8
			c-0.4-1-0.9-2-1.3-3c-0.2-0.4-0.4-0.7-0.7-1c-0.4-0.4-0.7-0.9-0.9-1.5c-0.5-1.8-1.3-3.5-2.3-5.1c-0.1-0.2-0.1-0.2-0.4-0.1
			c-0.4,0.2-0.5,0.4-0.5,0.8C207.3,22.8,207.3,23.2,207.3,23.5C207.3,23.5,207.3,23.5,207.3,23.5z M225.4,62.8
			c-0.1-0.4-0.1-0.8-0.2-1.2c0,0-0.1,0-0.1,0c0,0-0.1,0-0.1,0.1c0,0.4,0.1,0.8,0.1,1.2c0,0.3,0.1,0.6,0.1,0.9
			C225.5,63.5,225.3,63.2,225.4,62.8z"/>
		<path fill="#FFFFFF" d="M273.8,71.4c-0.1-2.6-0.1-5.2-0.2-7.9c0-0.8,0.1-1.7,0.1-2.5c0-0.9,0.2-1.8,0-2.7
			c-0.2-0.9-0.2-1.8-0.2-2.6c-0.1-3.2-0.2-6.4-0.3-9.7c0-1.2-0.1-2.5,0.1-3.7c0-0.2,0-0.4,0-0.5c-0.1-0.6-0.1-1.1,0-1.7
			c0-0.5,0.1-1-0.1-1.6c-0.1-0.3,0-0.7,0.1-1c0-0.2,0.1-0.4,0-0.6c-0.3-0.6-0.2-1.3-0.2-2c-0.1-0.7-0.1-1.4-0.1-2.1
			c0-0.7,0.1-1.3,0-2c-0.1-0.5,0-1,0-1.5c0-0.5-0.1-1-0.1-1.5c0-0.6,0-1.3,0.1-1.9c0.3-0.4,0-0.8,0-1.2c0-0.6-0.1-1.1-0.2-1.7
			c0-0.6,0-1.3-0.1-1.9c0-0.6-0.1-1.2-0.1-1.8c0-0.1,0-0.3,0-0.4c0.2-0.8,0.1-1.7-0.1-2.5c-0.1-0.4-0.1-0.8-0.1-1.2
			c0-0.6,0.1-1.1,0.2-1.7c0.2-0.7,0.1-1.4,0.1-2.1c0-0.4,0-0.8,0.1-1.2c0-0.3,0.3-0.5,0.6-0.6c0.5-0.1,1-0.1,1.4,0
			c0.4,0,0.6,0.3,0.6,0.7c0,1.2,0,2.5,0,3.7c0,0.2-0.1,0.3-0.1,0.5c0,0.2-0.1,0.4,0,0.5c0.3,0.8,0.2,1.6,0.3,2.4
			c0.1,0.6,0.1,1.1,0.3,1.7c0.2,0.6,0.1,1.2,0.1,1.8c-0.1,0.6,0.2,1.1,0.1,1.7c0,0.1,0.2,0.3,0.4,0.3c0.5,0.1,1,0.1,1.4,0.1
			c0.6,0,1.1,0,1.7,0.1c1,0.1,2.1,0.2,3.1,0.3c0.9,0.1,1.8,0.1,2.6,0.1c0.4,0,0.7,0,1.1,0c1.7-0.1,1.4,0.1,1.6-1.4
			c0-0.1,0-0.2-0.1-0.3c-0.4-0.5-0.3-1-0.4-1.5c-0.1-1.6,0-3.2,0.1-4.8c0.1-1.5,0.1-3,0.2-4.4c0.1-1.2,0.7-1.6,2.1-1.3
			c0.5,0.1,0.8,0.4,0.8,0.9c0,0.4,0.1,0.9,0.1,1.3c0,0.4,0.1,0.8,0.1,1.3c0,0.5,0.1,1-0.1,1.4c-0.3,0.6-0.2,1.2-0.2,1.8
			c0,0.7,0.1,1.5-0.1,2.2c-0.1,0.2,0,0.5,0.1,0.7c0.2,0.7,0.4,1.4,0.4,2.2c0,0.1,0,0.3,0,0.4c0.3,0.6,0.4,1.1,0.3,1.7
			c-0.1,0.6,0.1,1.2,0.1,1.8c0,0.3,0.2,0.7-0.1,1c-0.1,0.1,0,0.4,0.1,0.6c0.3,0.4,0.2,0.8,0.3,1.2c0.1,0.9-0.1,1.9,0.3,2.8
			c0.1,0.4,0,0.7-0.2,1c-0.1,0.2-0.2,0.4-0.1,0.7c0.5,0.8,0.3,1.7,0.4,2.6c0,0.8,0.1,1.6-0.2,2.3c-0.1,0.1,0,0.4,0.1,0.5
			c0.4,0.8,0.3,1.6,0.2,2.4c0,0.2-0.1,0.5,0,0.7c0.1,0.3,0.1,0.5-0.1,0.7c-0.3,0.4-0.3,0.9,0,1.2c0.3,0.4,0.2,0.6,0.1,0.9
			c0,0.1-0.2,0.3-0.1,0.4c0.1,0.3,0.4,0.6,0.2,0.9c-0.3,0.3,0.2,0.6-0.1,0.9c0,0,0,0.1,0,0.2c0.6,0.7,0.4,1.6,0.4,2.4
			c0,0.2,0,0.5-0.2,0.6c-0.3,0.3-0.3,0.5-0.1,0.8c0.1,0.1,0.1,0.4,0,0.5c-0.2,0.2,0,0.4,0.1,0.6c0,0.1-0.2,0.3-0.2,0.4
			c0,0.1,0,0.1,0,0.2c0.1,0.3,0.3,0.6,0.1,0.9c-0.1,0.1,0.1,0.3,0.2,0.5c0.1,0.3,0.2,0.5,0.1,0.8c-0.1,0.3,0,0.6,0,0.8
			c0.1,0.4,0,0.8,0,1.2c0,0.9-0.1,1.8,0.1,2.6c0.2,1.1,0.2,2.2,0.2,3.3c0,0.9,0,1.9-0.2,2.8c-0.2,1-0.2,2-0.2,3.1c0,1,0,2,0.1,2.9
			c0,0.1,0,0.1,0,0.2c-0.3,0.9,0,1.8,0.1,2.7c0,0.7,0.2,1.4,0.3,2.1c0.1,1.3,0.1,2.7-0.1,4c-0.1,0.7,0,1.4,0.1,2.1
			c0.2,0.8,0.2,1.5,0.2,2.3c0,0.2,0,0.5,0.1,0.7c0.1,0.4,0.1,0.7-0.2,1c-0.1,0.1-0.1,0.4-0.2,0.6c0,0.3,0,0.6,0,0.8
			c0,0.1-0.1,0.3-0.2,0.3c-0.2,0.1-0.4,0-0.5-0.1c-0.2-0.2-0.3-0.3-0.5-0.5c-0.1,0-0.2,0-0.3,0c-0.1,0-0.3,0.1-0.3,0.1
			c-0.3-0.1-0.6-0.3-0.8-0.4c-0.3-0.2-0.1-0.5-0.1-0.8c0-1.1-0.2-2.2-0.3-3.3c0-0.3-0.1-0.6,0-0.9c0-0.2,0.1-0.4,0-0.6
			c-0.3-0.8-0.2-1.5-0.2-2.3c0-1-0.1-2-0.3-3c-0.1-0.7-0.1-1.4-0.1-2.1c0-1.9,0-3.8,0-5.7c0-0.5-0.1-1-0.1-1.4
			c0-1.4-0.4-2.7,0.1-4.1c-0.1-0.8,0.1-1.5,0.2-2.3c0.1-0.7,0-1.5,0-2.2c0-0.5-0.2-1-0.1-1.5c0.1-0.5-0.1-0.9-0.2-1.3
			c-0.1-0.7-0.2-1.3-0.1-2c0.1-0.3,0-0.7,0-1.1c0-0.9,0-1.8,0-2.7c0-0.2,0-0.3-0.1-0.5c0-0.2-0.1-0.5-0.1-0.7
			c0.1-0.8,0.1-1.7,0.1-2.5c0-0.2,0-0.5-0.1-0.7c-0.1-0.4-0.1-0.8-0.2-1.2c0-0.1,0-0.3,0.1-0.4c0.6-0.4,0.3-0.9,0.2-1.4
			c0-0.2,0-0.4,0-0.6c-0.1-0.6-0.1-1.1-0.3-1.7c-0.2-0.6-0.3-1.2-0.3-1.8c0-0.7,0.1-1.3,0-2c0-0.1,0-0.2,0-0.3
			c0.3-0.9,0.1-1.8,0.1-2.7c0-0.1,0-0.1,0-0.2c-0.3-1.1-0.1-2.2-0.3-3.3c-0.1-0.5-0.4-0.8-1-0.8c-1,0-2-0.1-3-0.1
			c-0.6,0-1.2-0.3-1.9-0.1c-0.8-0.5-1.7-0.2-2.6-0.2c-0.7,0-1.5,0-2.2,0c-1,0.1-1.6,0.7-1.3,1.5c0.3,0.9,0.2,1.8,0.1,2.7
			c-0.1,1.3-0.3,2.7-0.3,4c0,0.6-0.1,1.2-0.1,1.8c0,0.8-0.1,1.7,0.5,2.5c0.1,0.1,0,0.3,0,0.4c0,0.3-0.1,0.6-0.1,0.9
			c0.1,0.4,0.3,0.9,0.1,1.3c0,0.1,0,0.1,0,0.2c0.4,0.7,0.2,1.5,0.3,2.3c0.1,0.6,0.2,1.2,0.2,1.8c0.1,1.2,0.1,2.4-0.1,3.6
			c-0.1,0.7-0.2,1.4-0.2,2.1c0,0.7,0,1.3,0,2c0,0.7,0,1.3,0,2c0,0.7,0.2,1.4,0.2,2.1c0,0.6,0.1,1.2,0.2,1.9c0,0.4,0,0.8-0.1,1.2
			c0,0.4-0.1,0.8,0.1,1.2c0,0.1,0.1,0.1,0,0.2c-0.3,0.8-0.2,1.7-0.2,2.5c0,0.5-0.2,1-0.1,1.6c0.1,0.5,0.1,1,0.1,1.5
			c0,0.1,0,0.1,0,0.2c0.4,1,0.1,2.1,0.2,3.1c0,0.6,0,1.3,0.1,1.9c0.1,0.6,0.1,1.3,0.2,1.9c0.1,1.2,0.3,2.5,0.1,3.7
			c-0.1,0.6,0,1.2-0.3,1.8c-0.2,0.3,0.2,0.5,0.1,0.7c0,0.1-0.2,0.3-0.3,0.3c-0.7-0.2-1.3-0.3-2-0.5c-0.6-0.2-1-0.7-1-1.3
			c0-2.1-0.1-4.2-0.2-6.3C273.8,73.8,273.8,72.6,273.8,71.4z"/>
		<path fill="#FFFFFF" d="M301.4,78.4c0.3,0,0.5,0.2,0.5,0.4c-0.1,0.6,0.1,1.3,0,1.9c-0.1,0.3,0,0.6,0,0.9c0,0.2,0.2,0.4,0.1,0.6
			c0,0.3-0.1,0.6,0.2,1c0.1,0.2,0.1,0.5,0.1,0.7c0,0.3,0,0.5,0.1,0.8c0.1,0.4,0.3,0.7,0.8,0.9c0.7,0.4,1.6,0.6,2.2,1.1
			c0.1,0.1,0.3,0.1,0.5,0.1c1.7,0.3,3.3,0.9,4.9,1.4c0.6,0.2,1.3,0.4,1.9,0.6c0.5,0.1,1,0.4,1.6,0.6c0.6,0.2,0.9,0.8,1.2,1.2
			c0,0,0,0.1,0,0.2c-0.3,0.4-0.1,0.7,0,1.1c0.2,0.7,0.3,1.5,0.5,2.2c0,0.2,0,0.3-0.1,0.5c-0.1,0.5-0.3,0.9-0.4,1.4
			c0,0.1-0.2,0.2-0.3,0.3c-0.1-0.1-0.2-0.2-0.1-0.3c0.1-0.5-0.3-0.6-0.7-0.7c-0.3-0.1-0.6-0.2-0.9-0.2c-1.4-0.2-2.7-0.7-4-1.1
			c-1.1-0.4-2.2-0.7-3.2-1.1c-0.4-0.1-0.7-0.3-1.1-0.4c-0.6-0.4-1.4-0.5-2.2-0.6c-0.6-0.1-1-0.3-1.4-0.6c-0.5-0.4-1-0.7-1.7-0.8
			c-0.4,0-0.6-0.4-0.5-0.7c0.1-0.4,0-0.7-0.1-1c-0.3-0.8-0.5-1.5-0.5-2.3c0-1.2-0.3-2.3-0.3-3.5c0-0.6,0-1.2,0-1.7
			c0-0.2,0-0.4-0.1-0.6c-0.2-0.5-0.1-1.1-0.1-1.6c0-0.1,0-0.2,0-0.3c-0.2-0.7,0-1.4,0-2.1c0-0.7,0.1-1.4,0.1-2.1c0-0.2,0-0.4,0-0.6
			c-0.2-1-0.2-2-0.1-3c0.1-0.7,0.1-1.4,0.1-2.1c0-0.9-0.1-1.9-0.3-2.8c0-0.1-0.1-0.3,0-0.4c0.2-0.8,0.1-1.6,0.1-2.5
			c0-0.5,0-1.1,0-1.6c0-0.3-0.1-0.6-0.1-0.9c0-0.1-0.1-0.3-0.1-0.4c0.4-0.8,0-1.6,0.3-2.3c0.1-0.2,0-0.3,0-0.5
			c-0.2-1.5-0.3-3.1-0.1-4.7c0-0.2,0.1-0.4,0-0.5c-0.3-0.8-0.2-1.6-0.3-2.4c-0.1-1.2,0-2.3-0.1-3.5c0-0.8-0.2-1.6-0.2-2.3
			c0-1.2,0-2.3,0.2-3.5c0.1-0.9,0.1-1.7,0.1-2.5c0-0.4-0.1-0.9,0.1-1.3c0-0.1,0-0.2,0-0.3c-0.1-0.7-0.1-1.4-0.1-2.1
			c0-0.6,0.1-1.3-0.2-1.9c-0.2-0.5-0.1-1-0.1-1.5c0-0.3,0-0.7,0-1c0-0.1,0-0.3-0.1-0.4c-0.3-0.2-0.4-0.5-0.3-0.8
			c0-0.4-0.1-0.9,0-1.3c0.1-1,0.1-1.9,0-2.9c-0.1-0.5,0.1-1.1,0.1-1.6c0.1-1,0.1-2,0.2-3c0-0.2,0-0.5-0.1-0.7
			c-0.1-0.3-0.1-0.5,0-0.8c0-0.1,0-0.2,0-0.3c-0.3-1.3-0.1-2.7-0.2-4.1c0,0,0-0.1,0-0.1c0-0.1,0-0.2,0.3-0.2c0.8,0,1.6,0,2.4,0
			c1.7,0,3.3,0,5,0c1,0,1.9,0,2.9,0.1c0.9,0.1,1.9,0,2.8,0c0.4,0,0.8,0,1.1,0.3c0.1,0.2,0.4,0.1,0.5,0c0.2-0.2,0.3-0.1,0.3,0.1
			c0,0.2,0,0.5,0,0.7c0,0.9,0,1.8,0.1,2.7c0,0.3,0.1,0.7,0.2,1c0.1,0.4,0,0.6-0.5,0.7c-0.2,0.1-0.5,0.3-0.7,0c-0.1-0.1-0.3,0-0.5,0
			c-1,0.1-2.1,0-3.1,0.2c-0.3,0.1-0.6-0.1-0.8-0.2c-0.3-0.3-0.6-0.3-1-0.3c-0.2,0-0.5,0-0.7,0c-1-0.2-1.9-0.2-2.9-0.2
			c-0.4,0-0.8-0.1-1.2-0.2c-0.4,0-0.6,0.1-0.6,0.4c0,0.2,0,0.4,0.1,0.6c0.1,0.6,0.2,1.2,0.3,1.7c0.1,0.4,0,0.9,0.2,1.3
			c0.2,0.4,0,0.8,0,1.2c0,0.5-0.2,1.1-0.1,1.6c0.1,0.4,0.1,0.7,0.1,1.1c0,0.1,0,0.3-0.1,0.4c-0.1,0.1-0.3,0.2-0.1,0.4
			c0.2,0.2-0.2,0.2-0.2,0.4c0,0.2,0.1,0.2,0.2,0.1c0,0,0.2,0,0.3,0.1c0.6,0.3,1.2,0.5,2,0.4c0.5-0.1,1,0,1.4,0
			c0.9-0.1,1.7,0,2.5,0.1c1,0.1,2,0.3,3,0.2c0.5,0,1.1,0.1,1.7,0.2c0.4,0.1,0.8,0.2,1.2,0.3c0.8,0.2,1.6,0.4,2.5,0.4
			c0.4,0,0.7,0.2,1.1,0.1c0.7,0,0.9,0.4,1.1,0.9c0,0.1,0,0.3,0,0.3c-0.4,0.1-0.3,0.4-0.3,0.7c0,0.8,0.4,1.5,0.5,2.3
			c0,0.3,0,0.5,0,0.8c0,0.2,0.1,0.5,0,0.6c-0.2,0.2-0.6,0.1-0.9,0.1c-1-0.1-1.9-0.2-2.9-0.3c-0.5,0-1-0.3-1.5-0.1
			c-0.5,0.1-0.9-0.1-1.4-0.1c-0.6,0.1-1.1-0.3-1.7,0c-0.7-0.6-1.7-0.2-2.5-0.4c-0.7-0.1-1.4-0.1-2.2,0c-0.5,0-0.9,0-1.3,0
			c-0.5-0.1-1-0.1-1.6-0.1c-0.4,0-0.6,0.1-0.7,0.4c-0.1,0.3-0.2,0.5-0.3,0.8c-0.2,0.6-0.3,1.1-0.5,1.7c-0.2,0.5-0.2,1-0.1,1.4
			c0.1,0.5,0.1,1,0.2,1.5c0,0.4,0.2,0.9,0.2,1.3c0,0.5,0.1,0.9,0.4,1.3c0,0,0,0.1,0,0.2c-0.3,0.7-0.1,1.5,0,2.2
			c0.1,0.9,0.2,1.8,0,2.7c-0.1,0.6-0.1,1.1,0.1,1.7c0.1,0.3,0.1,0.7,0.1,1.1c0.1,1.7,0.1,3.4,0.1,5c0,0.3,0,0.7,0,1
			c0,1-0.1,2-0.1,3.1c0,0.5,0,1,0.1,1.4c0.1,0.6,0,1.1,0.2,1.7c0.2,0.6,0.2,1.3,0,1.9c-0.1,0.3-0.1,0.6-0.1,0.9c0,1.6,0,3.3,0.1,4.9
			c0,0.5,0,1.1,0.1,1.6c0.1,0.5,0.2,1.1,0.2,1.6c0,0.8,0,1.6,0,2.5c0,0.5-0.1,1,0.5,1.3c0,0,0,0.1,0,0.2c0,0.1,0,0.1-0.1,0.2
			c-0.1,0-0.1,0-0.2-0.1c-0.1-0.1-0.4-0.1-0.3,0.1C301.6,77.7,301.4,78,301.4,78.4c-0.5,0.2-0.4,0.6-0.4,1c0,0,0.1,0.1,0.1,0.1
			c0.1,0,0.2-0.1,0.2-0.1C301.4,79,301.4,78.7,301.4,78.4z M312,31.3c-0.3-0.1-0.6-0.2-0.9-0.3c-0.1,0-0.2,0-0.4,0
			c0.1,0.1,0.2,0.1,0.3,0.2C311.4,31.2,311.7,31.2,312,31.3C312,31.3,312,31.3,312,31.3c0.4,0.1,0.7,0.2,1.1,0.3c0.1,0,0.1,0,0.2,0
			c-0.1,0-0.1-0.1-0.2-0.1C312.7,31.2,312.4,31.1,312,31.3z M297.5,13.9c0,0.1,0,0.2,0.1,0.2c0,0,0.2,0.1,0.2,0.1
			c0.1-0.1,0.2-0.2,0.2-0.3c0-0.1-0.1-0.2-0.2-0.3c0,0-0.2,0-0.2,0C297.5,13.7,297.5,13.9,297.5,13.9z"/>
		<path fill="#FFFFFF" d="M235.6,60.8c0,0.4,0,0.7,0,1.1c0,0.4,0,0.7-0.1,1.1c0,0.4-0.1,0.8-0.2,1.3c0,0.2-0.1,0.4-0.1,0.6
			c-0.2,0.7-0.3,1.4-0.5,2.1c0,0.1,0,0.3,0.1,0.3c0.4,0.2,0.3,0.4,0.2,0.7c-0.2,0.9-0.6,1.7-0.5,2.6c0,0.1-0.1,0.3-0.3,0.4
			c-0.3,0.3-0.3,0.6-0.3,1c0,0.7-0.1,1.3-0.2,2c0,0.1-0.1,0.2,0,0.3c0,0.1,0.1,0.2,0.2,0.2c0.2,0.1,0.4,0.1,0.6,0.1
			c0.2,0,0.3,0.1,0.3,0.2c0,0.1-0.1,0.3-0.2,0.3c-0.5,0.1-1,0.1-1.4,0.1c-0.5,0-1-0.1-1.5-0.3c-0.3-0.1-0.5-0.2-0.6-0.6
			c-0.1-1,0-2,0.2-2.9c0.2-1.9,0.6-3.7,0.8-5.6c0.1-1.1,0.2-2.2,0.1-3.3c0-0.5,0.1-1,0.2-1.6c0.2-1.5,0.4-3,0.5-4.4
			c0.1-1.2,0.4-2.4,0.5-3.7c0.1-1.9,0.7-3.8,0.9-5.7c0-0.1,0-0.1,0-0.2c-0.1-0.7,0.1-1.5,0.2-2.2c0.2-1.2,0.3-2.4,0.4-3.6
			c0.1-0.9,0.2-1.8,0.4-2.7c0.4-1.5,0.5-3.1,0.6-4.6c0-0.7,0.1-1.3,0.3-2c0.1-0.3,0.1-0.6,0.2-0.9c0.1-0.7,0.1-1.5,0.3-2.2
			c0.2-0.7,0.2-1.5,0.2-2.2c0.2-1.5,0.4-3,0.5-4.5c0.1-0.9,0.2-1.9,0.1-2.8c0.3-0.8,0.2-1.6,0.4-2.4c0.3-0.8,0.3-1.6,0.4-2.4
			c0-0.4,0.1-0.8-0.2-1.1c-0.3-0.3-0.1-0.7,0-1c0.2-0.6,0.5-1.1,0.5-1.7c0-0.2,0.2-0.4,0.3-0.5c0.1-0.1,0.2-0.2,0.2-0.2
			c-0.1-0.5,0.2-0.6,0.6-0.6c0.3-0.1,0.6-0.1,1,0c1,0.1,1.1,0.2,1,1c-0.1,0.5,0.1,1,0.3,1.4c0.3,0.8,0.5,1.7,0.8,2.5
			c0.1,0.3,0,0.6,0.1,0.9c0,0.3,0.1,0.6,0.1,0.9c0,0.2,0,0.3,0,0.5c0.1,1.1,0.4,2.2,0.4,3.3c0,0.3,0.1,0.7,0.2,1
			c0,0.2,0.1,0.4,0.1,0.6c-0.1,0.7,0.1,1.4,0.3,2.1c0.2,0.7,0.5,1.4,0.4,2.1c0,1.3,0.5,2.5,0.5,3.8c0,0.2,0.1,0.4,0.1,0.6
			c0,0.1,0.1,0.3,0.1,0.4c-0.1,1.2,0.4,2.3,0.7,3.4c0.2,0.7,0.3,1.3,0.2,2c0,1.1,0.2,2.2,0.4,3.3c0.3,1,0.5,2.1,0.4,3.1
			c0,0.6,0.1,1.1,0.2,1.7c0.3,1.1,0.7,2.3,0.7,3.4c0,0.3,0.1,0.6,0.2,0.9c0.1,0.3,0.2,0.5,0.1,0.8c-0.1,0.2,0.1,0.4,0.3,0.5
			c0.1,0.1,0.1,0.2,0.1,0.2c-0.3,0.3-0.1,0.7,0,1c0.3,1.3,0.5,2.6,0.9,3.9c0.2,0.6,0.3,1.3,0.3,2c0,0.2,0.1,0.4,0.2,0.6
			c0.1,0.2,0.6,0.5,0.2,0.8c0.2,0.2,0.3,0.5,0.2,0.7c0.4,0.3,0.1,0.7,0.2,1.1c0.2,0.4-0.1,0.8-0.3,1.1c-0.3,0.4-0.3,0.7-0.2,1.1
			c0.1,0.3,0.1,0.7,0.1,1c0,0.7,0.1,1.4,0.3,2.1c0.2,0.6,0.2,1.3,0.3,1.9c0.1,1.2,0.3,2.4,0.6,3.5c0.2,0.7,0.3,1.4,0.5,2.2
			c0.1,0.2,0.1,0.5,0.2,0.7c0.2,0.4,0.2,0.8,0,1.2c-0.2,0.3-0.2,0.6,0,0.9c0.2,0.3,0.3,0.7,0.3,1c0,0.4,0,0.7,0.2,1
			c0.1,0.2-0.1,0.4-0.3,0.3c0,0-0.1,0-0.1,0c-0.6-0.3-1.2-0.4-2-0.3c-0.2,0-0.5-0.1-0.7-0.1c-0.1,0-0.3-0.2-0.3-0.3
			c-0.1-0.3-0.2-0.6-0.3-0.9c-0.1-0.7-0.2-1.3-0.3-2c0-0.1,0-0.3-0.1-0.4c-0.4-0.5-0.3-1.1-0.4-1.7c-0.1-1.5-0.2-3-0.5-4.4
			c-0.2-0.8-0.3-1.7-0.3-2.5c0-0.5-0.3-0.9-0.2-1.4c0.1-0.5-0.2-0.9-0.3-1.3c-0.2-0.6-0.3-1.2-0.3-1.9c0-1.1-0.4-1.4-1.6-1.6
			c-0.6-0.1-1.3-0.1-1.8-0.4c-0.1-0.1-0.3-0.1-0.5-0.1c-1.5,0-2.9-0.3-4.4-0.5c-0.5-0.1-1-0.1-1.4-0.1c-0.8,0-0.9,0.1-1.1,0.8
			c0,0.2,0,0.4,0,0.6c0,0.4,0,0.7,0,1.1C235.6,60.7,235.6,60.7,235.6,60.8C235.6,60.8,235.6,60.8,235.6,60.8z M243.1,54.3
			c0.5,0,0.7,0,0.9,0c0.5,0,0.9-0.3,1.1-0.7c0.2-0.4,0.2-0.8,0-1.1c-0.2-0.3-0.5-0.7-0.1-1.1c0.1-0.1-0.1-0.3-0.1-0.4
			c0-0.2-0.1-0.3-0.1-0.5c0.1-0.3,0-0.6-0.1-0.9c-0.1-0.2-0.1-0.5-0.1-0.7c-0.1-0.5-0.1-0.9-0.2-1.4c0-0.2-0.1-0.5-0.1-0.7
			c-0.1-0.9-0.2-1.8-0.4-2.7c-0.1-0.4-0.2-0.8-0.2-1.2c0-0.4-0.3-0.8-0.1-1.2c-0.3-0.4-0.2-0.8-0.2-1.2c0-0.2-0.1-0.5-0.2-0.7
			c-0.1-0.7-0.3-1.3-0.4-2c-0.1-1.1-0.2-2.2-0.4-3.3c-0.2-1.2-0.4-2.4-0.7-3.5c-0.1-0.5-0.2-1-0.1-1.6c0-0.2,0-0.4,0-0.6
			c-0.2-0.9-0.4-1.9-0.5-2.8c0-0.2,0-0.4,0-0.6c0-0.2,0-0.4-0.1-0.5c-0.3-0.4-0.7-0.8-0.7-1.3c0-0.1-0.3-0.1-0.4-0.2
			c0,0-0.2,0.1-0.2,0.2c0,0.3,0,0.6-0.1,0.8c-0.4,1.5-0.4,2.9-0.4,4.4c0,1.1-0.1,2.2-0.4,3.3c-0.5,1.6-0.6,3.2-0.9,4.8
			c0,0.1,0,0.3,0,0.4c-0.1,0.7-0.2,1.5-0.2,2.2c0,1.7-0.4,3.4-0.5,5.2c0,1.4-0.2,2.8-0.3,4.2c-0.1,1.1-0.2,2.3-0.3,3.4
			c0,0.4-0.1,0.8-0.1,1.2c0,0.2,0,0.3,0.3,0.4c1.2,0.1,2.4,0.3,3.6,0.3c0.3,0,0.6,0.1,1,0.1C242.1,54.2,242.8,54.3,243.1,54.3z"/>
		<path fill="#FFFFFF" d="M97.5,76.3c0.1-0.5,0.2-1,0.2-1.6c0.1-0.9,0.2-1.8,0.2-2.6c0-2.2-0.2-4.4,0-6.6c0.2-2.4-0.1-4.9,0-7.3
			c0-1.1,0-2.3-0.1-3.4c0-0.9-0.1-1.8,0.1-2.6c0.1-0.3,0.1-0.7,0-0.9c-0.2-0.6,0-1.3-0.4-2c-0.1-0.2-0.1-0.4,0-0.6
			c0.2-0.7,0.2-1.3,0.1-2c-0.2-1.8,0.2-3.6,0.3-5.4c0-0.6,0.1-1.1,0.1-1.7c0-1.2-0.1-2.4-0.2-3.6c0-0.9,0-1.8,0.1-2.6
			c0.2-1.6,0.1-3.1,0.1-4.7c0-2.5,0-5-0.1-7.5c-0.1-1.6,0-3.3-0.2-4.9c-0.1-0.7,0-1.5,0.1-2.2c0-0.3,0-0.4-0.5-0.5
			c-0.3-0.1-0.6-0.2-0.8-0.4c-0.1-0.1-0.2-0.2-0.3-0.3c-1.4-0.6-1.5-1.8-1.9-2.9c0-0.1,0-0.2,0-0.3c0-0.1,0.1-0.2,0.2-0.2
			c0,0,0.2,0,0.2,0c0.2,0.4,0.7,0.5,1,0.8c0.5,0.4,1.1,0.4,1.7,0.4c0.5,0,1-0.1,1.5-0.1c0.4,0,0.9-0.2,1.3,0.1c0.1,0.1,0.4,0,0.6,0
			c0.8,0,1.6-0.1,2.5,0c0.7,0,1.4,0.1,2.1,0.2c0.6,0.1,1.1,0.2,1.7,0.2c0.8,0,1.6,0.2,2.3,0.6c0.3,0.2,0.6,0.3,0.9,0.4
			c0.6,0.3,1,0.8,1.3,1.4c0.4,0.7,0.7,1.4,0.8,2.2c0,0.4,0.2,0.8,0.4,1.2c0.2,0.5,0.3,1,0.2,1.5c0,0.3,0.1,0.6,0.2,0.8
			c0.4,0.7,0.5,1.4,0.3,2c-0.2,1-0.3,2-0.4,2.9c-0.1,1.1-0.2,2.2-0.4,3.3c0,0.2-0.1,0.5,0,0.7c0.2,0.4,0.1,0.8-0.1,1.2
			c-0.2,0.6-0.4,1.3-0.8,1.8c-0.7,0.9-1.4,1.8-2.2,2.7c-0.5,0.5-1.2,0.8-1.8,1.2c-0.3,0.2-0.6,0.4-0.9,0.7c-0.1,0.1-0.2,0.3-0.2,0.4
			c0.2,0.4,0,0.5-0.4,0.4c-0.1,0-0.2,0.1-0.2,0.2c0.2,1.3,0.5,2.6,0.8,4c0,0.1,0.1,0.2,0.1,0.3c0.1,1.6,0.6,3.1,1.1,4.7
			c0.2,0.6,0,1.2,0.3,1.8c-0.2,0.9,0.3,1.6,0.5,2.5c0.3,1.1,0.6,2.2,0.8,3.3c0.1,0.9,0.4,1.7,0.7,2.6c0.3,0.8,0.4,1.7,0.6,2.6
			c0.2,0.8,0.2,1.7,0.5,2.5c0,0.1,0,0.2,0.1,0.3c0.5,0.4,0.4,1,0.5,1.5c0,0.2,0,0.4,0.1,0.5c0.4,0.7,0.3,1.5,0.4,2.3
			c0,0.3,0.1,0.6,0.2,0.9c0.3,1,0.5,1.9,0.8,2.9c0.1,0.3,0.1,0.7,0.2,1c0.1,0.3,0.1,0.7,0.3,1c0.2,0.3,0.3,0.5,0.4,0.8
			c0.2,0.8,0.4,1.7,0.5,2.5c0,0.2,0.1,0.5,0.1,0.7c0,0.1-0.1,0.3-0.2,0.3c-0.7-0.1-1.2,0.4-1.9,0.4c-0.3,0-0.5-0.2-0.5-0.5
			c0-0.1,0.1-0.2,0.1-0.3c0-0.1,0-0.2-0.1-0.3c-0.4-0.2-0.4-0.5-0.4-0.8c0-0.9-0.3-1.7-0.5-2.5c-0.2-0.7-0.3-1.5-0.6-2.2
			c-0.1-0.3-0.2-0.6-0.2-0.9c-0.1-0.9-0.2-1.9-0.5-2.8c-0.1-0.3-0.1-0.6-0.2-0.9c-0.2-0.7-0.3-1.4-0.7-2c-0.1-0.2-0.3-0.4-0.3-0.6
			c-0.1-0.7-0.4-1.4-0.6-2.1c0-0.2-0.1-0.4,0-0.5c0.2-0.9-0.3-1.7-0.6-2.5c-0.1-0.3-0.3-0.6-0.3-0.9c0-1.3-0.5-2.5-0.6-3.8
			c0-0.4-0.3-0.9-0.4-1.3c-0.4-1.7-1-3.4-1.2-5.1c0-0.2-0.1-0.3-0.1-0.5c-0.2-0.8-0.5-1.6-0.2-2.4c0.1-0.3,0-0.6-0.1-0.8
			c-0.4-0.6-0.4-1.2-0.5-1.8c-0.1-0.8-0.4-1.6-0.7-2.4c-0.1-0.4-0.3-0.8-0.1-1.2c0.1-0.2-0.1-0.3-0.3-0.3c-0.4,0-0.8,0-1.2,0
			c-0.4,0-0.8,0.1-1.2,0.1c-0.6,0-0.7,0.1-0.7,0.7c0,0.4,0.1,0.8,0.2,1.2c0.2,0.6,0.2,1.2,0.1,1.8c-0.1,0.5-0.2,0.9,0,1.4
			c0.1,0.4-0.1,0.8-0.1,1.2c0,0.3-0.5,0.5-0.2,0.9c0.2,0.3,0,0.7,0,1c0,0.3-0.2,0.6-0.2,0.9c0,0.9,0,1.8,0.3,2.7
			c0.1,0.3,0,0.6,0.1,0.8c0.1,0.4-0.3,0.8-0.2,1.2c0.1,0.4,0,0.8-0.1,1.1c0,0.3-0.1,0.3-0.5,0.1c-0.1,0-0.2-0.2-0.2,0
			c0,0.5,0,1,0,1.6c0,0.1,0,0.2,0.1,0.3c0.4,0.3,0.3,0.6,0.4,1c0,0.6,0,1.3,0,1.9c0,0.4-0.1,0.8-0.2,1.3c-0.2,0.6-0.1,1.2-0.1,1.8
			c0,1,0,1.9,0.1,2.9c0,0.5,0.2,0.9,0.2,1.4c0,1,0,2.1,0,3.1c0,0.9,0,1.7,0.1,2.6c0.1,1.2,0.1,2.3,0.2,3.5c0,0.4-0.4,0.8-0.1,1.2
			c-0.2,0.6-0.1,1.1,0.1,1.7c0,0.2,0,0.3-0.1,0.5c0,0.3-0.1,0.7-0.1,1c0,0.8-0.1,1-0.9,1.1c-0.3,0.1-0.6,0-0.8,0
			c-0.1,0-0.2-0.1-0.2-0.1c0.2-0.5-0.6-0.8-0.5-1.3C97.6,76.7,97.6,76.5,97.5,76.3C97.5,76.3,97.5,76.3,97.5,76.3z M100.2,29.4
			c0,0.4-0.1,0.8-0.1,1.2c0,0.2,0,0.4,0.1,0.5c0.1,0.3,0.3,0.5,0.7,0.5c1.2,0,2.4-0.1,3.5-0.3c0.4-0.1,0.8-0.4,1.2-0.5
			c0.4-0.1,0.9-0.1,1.3-0.3c0.9-0.4,1.7-1,2-1.9c0.2-0.7,0.5-1.3,0.7-2c0.4-1.3,0.4-2.7,0.8-4c0-0.1,0.1-0.3,0-0.4
			c-0.3-0.4-0.1-0.8-0.2-1.2c-0.1-0.8-0.1-1.6-0.4-2.3c-0.4-1-1-2-2.1-2.5c-0.7-0.4-1.5-0.7-2.3-1c-0.1,0-0.2-0.1-0.4-0.1
			c-0.7,0-1.5-0.1-2.2-0.1c-0.6,0-1.2,0.1-1.8,0.1c-0.5,0-0.7,0.3-0.8,0.7c0,0.3,0,0.6,0,0.8c0,0.5,0,1-0.2,1.6
			c-0.2,0.7-0.4,1.5-0.1,2.2c0.1,0.2,0,0.3,0,0.5c0,1.9,0,3.8,0,5.7C100.1,27.6,100.4,28.5,100.2,29.4z M108.2,50.4
			c-0.1-0.2-0.2-0.5-0.4-0.8c0,0,0,0,0,0.1c0.1,0.3,0.1,0.5,0.2,0.8c0,0,0,0.1,0,0.1c0,0,0.1,0.1,0.1,0.1
			C108.1,50.6,108.1,50.5,108.2,50.4z M113.1,70.8c-0.1-0.1-0.2-0.3-0.2-0.4c0,0-0.1,0-0.1-0.1c0,0.1-0.1,0.1-0.1,0.2
			c0.1,0.2,0.2,0.3,0.2,0.5c0,0,0,0.1,0.1,0.1C113,71,113,70.9,113.1,70.8z"/>
		<path fill="#FFFFFF" d="M56.4,88.2c0-0.2-0.1-0.4-0.1-0.6c0-0.2-0.1-0.5-0.1-0.7c-0.1-0.6-0.2-1.1-0.2-1.7c0-0.2-0.1-0.5-0.1-0.7
			c-0.1-1-0.2-2-0.3-3c0-0.3-0.1-0.6-0.2-0.8c0-0.2-0.1-0.5-0.1-0.7c0-0.6,0-1.3-0.3-1.9c-0.1-0.2,0-0.5-0.1-0.7
			c0-0.7,0-1.5-0.1-2.2c0-0.5-0.1-1-0.2-1.5c0-0.3-0.1-0.6-0.1-0.8c0.1-0.6-0.1-1.2-0.5-1.7c-0.1-0.2-0.2-0.4-0.2-0.6
			c0-0.2-0.1-0.2-0.2-0.1c-1.1,0.4-2.2,0.6-3.3,0.9c-1.5,0.4-2.9,0.9-4.1,1.6c-0.7,0.4-1,0.8-1.1,1.6c0,0.8-0.2,1.6-0.3,2.4
			c0,0.2-0.1,0.4-0.1,0.5c0,0.7,0,1.3-0.2,2c-0.2,0.8-0.1,1.5-0.2,2.3c-0.1,0.9-0.2,1.8-0.4,2.6c0,0.3-0.1,0.6,0.1,0.8
			c0.3,0.3,0.2,0.7,0.1,1c-0.1,0.8-0.2,1.5-0.3,2.3c-0.1,0.8-0.1,1.5-0.3,2.3c0.2,0.9-0.1,1.8,0.2,2.6c0.1,0.2,0,0.4,0,0.6
			c0,0.3-0.1,0.6-0.1,0.9c0,0.4,0,0.8-0.4,1.1c-0.1,0,0,0.2,0,0.3c0,0.1,0.1,0.2,0,0.2c-0.3,0.5-0.7,0.8-1.4,1c-0.1,0-0.3,0-0.3-0.1
			c0,0,0-0.2,0-0.3c0-0.1,0.1-0.2,0.2-0.3c0.1-0.1,0.2-0.1,0.1-0.2c-0.5-0.6-0.3-1.3-0.2-2c0.1-1.2,0.2-2.5,0.2-3.7
			c0-0.5,0.1-1,0.2-1.5c0-0.7,0-1.4,0-2.1c0-0.4,0-0.8,0.1-1.2c0.1-0.3,0.1-0.5-0.2-0.8c-0.3-0.3-0.2-0.6-0.1-0.9
			c0-0.4,0.1-0.8,0.1-1.2c0-0.9,0.1-1.8,0.4-2.7c0.3-1,0.4-2,0.3-3.1c0-0.5-0.1-1,0.1-1.5c0.1-0.3,0.1-0.6,0.1-0.8
			c-0.1-1,0.2-1.9,0.3-2.8c0.1-0.8,0.2-1.6,0.3-2.4c0.1-0.9,0.2-1.8,0.2-2.7c0-0.4,0-0.8,0.3-1.1c0.1-0.2,0.2-0.5,0.2-0.8
			c0.1-1.3,0.3-2.5,0.2-3.8c0.2-0.7-0.1-1.4,0.1-2.1c0.2-0.6,0.1-1.3,0.2-2c0.1-0.7,0.1-1.4,0.2-2.1c0.1-0.7,0.2-1.4,0.3-2.1
			c0.1-1.3,0.2-2.5,0.3-3.8c0.1-1.2,0.2-2.3,0.3-3.5c0.1-1.4,0.4-2.8,0.5-4.2c0-0.7,0.1-1.3,0.1-2c0-0.2-0.1-0.5-0.2-0.7
			c0-0.1-0.2-0.3-0.2-0.4c0.1-0.9,0.1-1.8,0.2-2.7c0-0.4,0.1-0.7,0.2-1c0.1-0.5,0.1-1,0.2-1.5c0.4-2.3,0.8-4.7,0.6-7.1
			c0-0.7-0.1-1.3-0.1-2c0-0.3,0-0.5,0.3-0.7c0.4-0.2,0.4-0.6,0.4-0.9c0-0.6,0-1.2,0-1.8c0-0.6,0-1.3,0.1-1.9c0.1-0.5,0.2-1,0.2-1.6
			c0-1,0-2,0-3c0-0.5-0.1-1,0.1-1.5c0.1-0.4,0.3-0.7,0-1.1c-0.1-0.2,0.2-0.6,0.5-0.7c0.7-0.1,1.4,0,2,0.4c0,0,0,0.2,0,0.2
			c-0.6,0.1-0.3,0.4-0.1,0.6c0.1,0.1,0.1,0.3,0,0.4c-0.3,0.9,0,1.7,0.1,2.6c0.1,0.8,0.2,1.7,0.2,2.5c0,1.1,0.3,2.2,0.4,3.4
			c0,0.4,0.1,0.8,0.1,1.3c0.2,1.4,0.3,2.9,0.4,4.3c0.1,1.1-0.1,2.1,0,3.1c0,0.2,0,0.4,0.1,0.6c0.4,0.8,0.4,1.7,0.5,2.6
			c0,0.2,0,0.5,0.1,0.7c0.2,0.5,0.1,1-0.1,1.6c-0.1,0.3-0.1,0.6,0,0.9c0.3,1.3,0.4,2.5,0.4,3.8c0,0.4,0,0.8,0.2,1.2
			c0.1,0.1,0.1,0.3,0.1,0.4c0.1,1.3,0.3,2.7,0.6,4c0.1,0.3,0,0.6,0,0.8c0,0.4,0.1,0.8,0.2,1.3c0.1,0.4,0.1,0.8,0,1.2
			c-0.1,0.3-0.1,0.8,0,1.1c0.2,1.6,0.6,3.3,0.7,4.9c0.1,1.1,0.3,2.2,0.4,3.3c0,0.1,0.1,0.2,0,0.3c-0.3,1.2,0.1,2.3,0.3,3.4
			c0,0.2,0,0.5,0,0.7c0,0.5,0.1,0.9,0.3,1.3c0.3,0.7,0.5,1.3,0.5,2c0.1,0.8,0.2,1.7,0.4,2.5c0.2,1.1,0.3,2.2,0.3,3.3
			c0,1.1,0.1,2.2,0.1,3.3c0,0.4,0,0.7,0.2,1c0.3,0.5,0.3,0.9,0.3,1.4c0,0.9,0.1,1.8,0.1,2.7c0.1,0.7,0.1,1.3,0.3,2
			c0.3,1.1,0.2,2.2,0.2,3.3c0,0.8,0.1,1.6,0.3,2.4c0.1,0.5,0.1,0.9,0.1,1.4c0,0.3-0.2,0.5-0.4,0.7c-0.4,0.3-0.9,0.5-1.4,0.7
			c0,0-0.2-0.1-0.2-0.1c0-0.2,0-0.3-0.1-0.5C56.5,89.6,56.4,88.9,56.4,88.2C56.4,88.2,56.4,88.2,56.4,88.2z M53.9,63.7
			c0-0.8-0.1-1.5-0.4-2.3c-0.1-0.3-0.1-0.8,0-1.1c0-0.3,0-0.5,0-0.7c-0.1-0.8-0.1-1.6-0.2-2.4c0-0.3,0-0.6-0.1-0.8
			c-0.1-0.8-0.2-1.6-0.4-2.4c-0.2-0.9-0.1-1.8-0.3-2.6c-0.2-0.7-0.2-1.5,0-2.3c0-0.1,0-0.3,0-0.4c-0.1-0.2-0.2-0.4-0.2-0.6
			c0-1.2-0.1-2.4-0.4-3.6c-0.1-0.3-0.1-0.6,0-0.8c0.1-0.5,0-1-0.1-1.5c-0.3-1.3-0.4-2.6-0.3-3.9c0-0.5-0.1-1.1-0.2-1.6
			c-0.1-0.7-0.3-1.3-0.4-2c-0.1-1.1-0.2-2.1-0.3-3.2c-0.1-1.3-0.2-2.6-0.4-3.9c-0.1-0.7-0.2-1.5-0.2-2.2c-0.1-0.5-0.3-1-0.1-1.5
			c0,0-0.1-0.1-0.1-0.1c0,0-0.1,0-0.1,0.1c-0.1,0.2-0.2,0.4-0.2,0.6c-0.1,0.6-0.1,1.3-0.1,1.9c0,0.6-0.1,1.2-0.1,1.9
			c0,0.6-0.1,1.1-0.3,1.7c-0.4,1-0.4,1.9-0.4,2.9c0,0.8,0.1,1.7-0.1,2.5c-0.2,0.7-0.2,1.5-0.3,2.2c-0.1,0.7-0.1,1.5-0.2,2.2
			c-0.2,1.2-0.4,2.4-0.4,3.7c0,0.2,0,0.4,0,0.5c-0.3,1.6-0.3,3.3-0.6,4.9c-0.2,1-0.2,2-0.1,3.1c0,0.7-0.3,1.5-0.1,2.2
			c-0.2,1-0.3,2.1-0.3,3.2c0,0.3,0,0.6-0.1,1c-0.2,0.8-0.2,1.7-0.1,2.5c0,0.4,0,0.7,0,1.1c0,0.4-0.2,0.8,0.2,1.2
			c0.1,0.1,0,0.3,0,0.5c-0.1,0.7-0.3,1.4-0.4,2.1c-0.1,0.6-0.2,1.1,0,1.7c0,0.1,0.2,0.3,0.4,0.2c0.2-0.1,0.3-0.1,0.5-0.2
			c1.1-0.5,2.2-0.9,3.4-1.2c0.7-0.2,1.4-0.3,2.1-0.7c0.1-0.1,0.2-0.1,0.3-0.1c0.5,0,1,0.1,1.2-0.3c0.2-0.3,0.1-0.8,0.1-1.1
			C53.9,63.8,53.9,63.8,53.9,63.7z"/>
		<path fill="#FFFFFF" d="M258.7,76.6c0.1-0.9,0.2-1.6,0-2.3c-0.1-0.2,0-0.5,0.1-0.7c0-0.1,0.1-0.3,0-0.4c-0.2-0.4-0.2-0.9-0.2-1.4
			c0-2.3,0-4.6-0.1-6.9c0-1-0.1-2.1-0.1-3.1c0-1.1-0.1-2.1,0-3.2c0.1-1-0.1-2,0-2.9c0.1-0.9,0-1.9,0-2.9c0,0,0-0.1,0-0.1
			c-0.2-0.8-0.1-1.7-0.1-2.5c0-0.8,0-1.6,0-2.4c-0.1-0.9,0-1.9-0.3-2.8c-0.1-0.2,0-0.5,0-0.7c0-1-0.1-2.1-0.1-3.1
			c0-0.8-0.1-1.5-0.4-2.2c-0.9-2.6-1.8-5.1-2.6-7.7c-0.3-0.9-0.5-1.8-0.7-2.7c-0.1-0.2-0.1-0.5-0.3-0.7c-0.3-0.6-0.5-1.3-0.8-1.9
			c-0.3-0.6-0.3-1.2-0.6-1.8c-0.5-1.2-0.6-2.5-1.1-3.7c-0.1-0.3-0.2-0.6-0.3-0.8c-0.5-1-0.8-2.1-1-3.3c0-0.3-0.2-0.7-0.3-1
			c-0.4-1.5-0.7-3-1.1-4.4c-0.1-0.3-0.2-0.5-0.4-0.8c-0.2-0.5,0.3-1,0.9-1c0.3,0,0.6,0,0.9,0c0.1,0,0.3,0,0.5,0
			c0.3,0.1,0.7,0.1,0.9,0.3c0.2,0.3,0.3,0.7,0.5,1.1c0,0.1,0,0.2,0,0.3c-0.1,0.9,0.2,1.8,0.6,2.7c0.4,0.9,0.8,1.8,1.1,2.7
			c0.7,1.9,1.1,3.9,1.8,5.8c0.4,1.1,0.9,2.3,1.1,3.5c0.5,0.4,0.2,1.1,0.6,1.6c0.4,0.5,0.4,1.1,0.6,1.6c0.3,0.8,0.7,1.6,0.7,2.4
			c0.3,0.4,0.2,0.9,0.7,1.2c0.3-0.3,0.5-0.7,0.6-1.1c0.2-0.8,0.5-1.5,0.6-2.3c0.1-0.7,0.3-1.3,0.6-1.9c0.5-1,0.6-2.1,0.8-3.1
			c0.4-2,0.7-4,1.2-6c0.3-1.2,0.7-2.3,1.1-3.5c0.2-0.6,0.4-1.3,0.6-1.9c0.1-0.8,0.3-1.6,0.5-2.4c0.1-0.3,0.3-0.5,0.5-0.7
			c0.2-0.2,0.2-0.2,0.6,0.1c0.1,0.1,0.2,0.1,0.3,0.1c0.6,0,1.1-0.1,1.7-0.1c0.3,0,0.5,0.2,0.5,0.5c0,0.2-0.1,0.3-0.1,0.5
			c-0.2,0.7-0.4,1.4-0.6,2c-0.1,0.3-0.2,0.5-0.3,0.8c-0.3,0.6-0.5,1.3-0.6,1.9c-0.3,2-0.9,3.9-1.5,5.9c-0.9,3.3-1.8,6.6-2.7,9.9
			c-0.6,2.2-1.2,4.5-1.9,6.7c0,0.1-0.1,0.3-0.1,0.4c-0.1,1.1-0.1,2.1-0.2,3.2c0.2,0.4,0,0.9,0.1,1.3c0.1,0.4,0,0.8,0.1,1.2
			c0.2,0.6,0,1.2,0.1,1.8c0.3,2.2,0.3,4.4,0.3,6.5c0,1.7,0.2,3.5,0.2,5.2c0.1,2.8,0.1,5.6,0.1,8.4c0.1,2.5,0.1,5.1,0.2,7.6
			c0,1.8,0.1,3.7,0.1,5.5c0,0.2,0,0.4,0,0.5c0,0.6-0.2,0.6-0.8,0.3c-0.1,0-0.3-0.1-0.3-0.1c-0.3,0.2-0.6,0.1-0.9,0.1
			c-0.2,0-0.5,0.1-0.6,0c-0.2-0.2-0.3-0.4-0.4-0.7C258.8,78.1,258.7,77.2,258.7,76.6z"/>
		<path fill="#FFFFFF" d="M81.1,18.8c0,0.2,0,0.5,0.1,0.7c0,0.7,0.1,1.3-0.1,2c-0.2,0.6-0.1,2,0.1,2.5c0.1,0.4,0.4,0.5,0.9,0.5
			c1.1,0,2.2,0,3.3,0.1c0.2,0,0.3,0,0.5,0c0.5,0,1-0.1,1.5-0.1c0.8,0.2,1.5,0,2.2-0.1c0.9-0.1,1.8-0.3,2.7-0.4
			c0.3,0,0.5-0.1,0.7,0.1c0.3,0.3,0.7,0.3,1,0.3c0.2,0,0.3,0,0.5,0c0.9,0,0.9,0.1,0.9,0.8c0,0.4-0.1,0.8,0.1,1.2
			c0.1,0.2,0.1,0.6,0.1,0.8c0,0.8-0.3,1.3-1.3,1.4c-1.1,0.2-2.3,0.2-3.4,0.1c-1.4-0.1-2.9-0.1-4.3,0.1c-1,0.1-2,0.3-3,0.5
			c-0.4,0.1-0.9,0.1-1.4,0.1c-0.2,0-0.3,0.1-0.3,0.3c0,0.3-0.1,0.6-0.2,0.8c-0.3,0.6-0.3,1.2-0.3,1.9c0,0.9,0,1.8-0.2,2.6
			c-0.1,0.5-0.3,1.1-0.1,1.7c0,0.1,0,0.2,0,0.3c-0.3,1.7-0.1,3.5-0.4,5.3c-0.2,1.1-0.2,2.3-0.1,3.4c0.1,0.7-0.2,1.5,0.2,2.2
			c-0.2,0.5,0,1.1-0.1,1.6c-0.1,1.4,0,2.8,0,4.1c0,0.9,0.1,1.8,0.1,2.7c0,0.2,0,0.4,0.1,0.5c0.2,0.7,0.2,1.5-0.1,2.2
			c-0.1,0.3-0.1,0.5-0.2,0.8c0,0.8,0,1.6,0,2.3c0,0.6,0,1.1,0,1.7c0.1,0.9,0.2,1.9,0,2.9c-0.1,0.9,0,1.9-0.2,2.8c0,0.2,0,0.3,0,0.5
			c0.1,0.3,0.2,0.7,0.2,1c0.1,0.7,0.3,1.5,0.4,2.2c0.1,0.3,0.1,0.6,0.1,1c0,1.1,0.1,2.3,0.1,3.4c0,0.3,0.2,0.4,0.5,0.3
			c0.7-0.3,1.4-0.3,2.1-0.4c0.5-0.1,1-0.1,1.4-0.2c1-0.2,2-0.6,3.1-0.7c0.3,0,0.5-0.2,0.8-0.3c0.5-0.2,1.1-0.3,1.6-0.4
			c0.5,0,0.7,0.4,1.1,0.3c0.3,0.4,0.7,0.7,0.6,1.2c-0.1,0.7-0.1,1.3-0.2,2c0,0.2-0.1,0.3-0.2,0.5c-0.1,0.2-0.2,0.3-0.4,0.2
			c-0.8-0.2-1.4,0.1-2.1,0.3c-0.3,0.1-0.6,0.2-0.9,0.3c-0.5,0.1-0.8,0.5-1.2,0.5c-0.4,0.1-0.9-0.1-1.3,0.1c-0.6,0.2-1.2,0.4-1.6,0.9
			c-0.1,0.1-0.2,0.2-0.4,0.1c-0.3-0.1-0.6-0.1-0.8-0.1c-0.6,0.1-1.1,0.3-1.7,0.4c-0.8,0.1-1.3,0.5-2,0.7c-0.2,0.1-0.4,0-0.5-0.2
			c-0.2-0.3-0.4-0.6-0.3-0.9c0.1-0.7-0.2-1.2-0.2-1.9c0-0.2-0.1-0.4,0-0.5c0.2-0.8,0.1-1.6,0.1-2.4c0-0.4,0.1-0.8,0.1-1.2
			c0-0.2,0-0.3-0.1-0.5c-0.2-0.8-0.2-1.6,0-2.4c0.1-0.8,0.1-1.5-0.2-2.3c-0.2-0.5-0.3-0.9-0.1-1.4c0.1-0.4,0.1-0.8,0.1-1.3
			c0-0.5,0.2-1,0.1-1.5c-0.2-0.6,0.1-1,0.1-1.6c0-0.5,0-1,0-1.5c0-1,0.1-2,0.1-3.1c0-1,0-2,0-3.1c0-0.2-0.1-0.5-0.1-0.7
			c0-0.1-0.1-0.2,0-0.3c0.4-0.6,0.2-1.2,0.3-1.8c0.1-0.6,0-1.3,0-1.9c0.2-1.2-0.1-2.4,0.1-3.6c0-0.5-0.1-1.1-0.1-1.6
			c-0.1-0.8-0.2-1.5,0-2.3c0.1-0.4,0-0.8,0-1.3c0-0.4-0.1-0.8-0.2-1.3c0-1.4-0.1-2.9-0.1-4.3c0-0.6,0-1.2,0.1-1.8
			c0.1-0.6,0-1.1,0.1-1.7c0-0.3,0-0.6,0-0.8c0.1-0.4,0.1-0.8,0-1.2c-0.1-0.2-0.1-0.4-0.1-0.6c0-0.9-0.1-1.8,0.1-2.7
			c0-0.1,0-0.2,0-0.3c0.1-1.3,0.2-2.7,0.2-4c0-1.6-0.1-3.2-0.2-4.8c0-0.3,0-0.5,0-0.8c0.1-0.8,0.1-1.6-0.2-2.4
			c-0.1-0.3-0.1-0.6,0-0.8c0.2-1.6,0.1-3.1,0.1-4.7c-0.2-0.4,0.1-0.6,0.3-0.8c0.2-0.2,0.6-0.4,1-0.4c1,0,2,0,3-0.2
			c0.4-0.1,0.8-0.1,1.2,0c1.6,0.2,3.3,0.1,4.9,0c0.4,0,0.7,0,1.1,0.1c0.3,0.2,0.6,0.3,1,0.4c0.1,0.5,0.3,1,0.3,1.4
			c0,0.7-0.1,1.3,0,2c0,0.5-0.2,0.7-0.7,0.7c-0.3,0-0.7,0-1,0c-1.2,0-2.5,0-3.7,0.3c-0.3,0.1-0.6,0-0.9,0c-0.5,0.1-1-0.3-1.4,0
			c-0.4,0.3-1,0.2-1.3,0.5c-0.2,0.2-0.4,0-0.7-0.1c-0.4-0.1-0.5-0.1-0.5,0.2c-0.1,0.4-0.3,0.8-0.2,1.2
			C81.3,17.8,81.2,18.3,81.1,18.8C81.2,18.8,81.1,18.8,81.1,18.8z M85.5,12.1c0.2,0,0.3,0,0.3,0c0.1,0,0.2,0,0.2-0.2
			c0-0.1,0-0.2,0-0.3c-0.1,0-0.2,0-0.3,0c-0.2,0.1-0.3,0.2-0.5,0.3c0,0,0,0.1,0,0.1C85.4,12.1,85.5,12.1,85.5,12.1z M83.4,12.9
			C83.4,12.9,83.4,12.9,83.4,12.9c-0.1,0-0.2,0-0.4,0c-0.1,0-0.1,0-0.2,0.1c0.1,0,0.2,0,0.2,0c0.3,0,0.5,0.2,0.8,0c0,0,0.1,0,0.1,0
			c0.1-0.1,0.1-0.1-0.1-0.1C83.8,12.9,83.6,12.9,83.4,12.9z"/>
		<path fill="#FFFFFF" d="M147.3,38.2c0.1-0.6-0.1-1.3-0.2-2c-0.1-0.5,0-1.1,0-1.7c0.1-1,0.2-2-0.1-2.9c0-0.1,0-0.3,0-0.4
			c0.1-0.4,0.1-0.7-0.1-1c-0.2-0.5-0.2-1,0-1.5c0.1-0.3,0.2-0.6,0.1-0.9c-0.1-0.9-0.1-1.9-0.3-2.8c-0.1-0.3,0-0.7,0-1.1
			c0-1.4-0.2-2.7,0-4.1c0.1-0.6-0.1-1.3-0.2-1.9c-0.3-1.1-0.2-2.2-0.1-3.4c0-0.7,0-1.3,0.1-2c0-0.6,0-1.2,0-1.8
			c0-0.4,0.4-0.8,0.8-0.8c0.5,0,1-0.2,1.4,0.1c0.1,0.1,0.2,0.1,0.3,0.1c0.2,0,0.4-0.1,0.5,0c0.1,0.1,0.1,0.3,0.1,0.5
			c0,0.2,0,0.4,0,0.5c-0.3,1-0.1,1.9,0,2.9c0.3,0.3-0.1,0.6,0,0.9c0.2,0.3,0,0.6,0,0.9c0,0.3-0.1,0.6-0.1,0.9c0,0.2,0,0.3,0,0.5
			c0.1,0.6,0.1,1.2,0,1.8c-0.1,0.7,0,1.5,0.1,2.2c0.1,0.9,0.2,1.8,0,2.7c-0.1,0.4,0.1,0.8,0.1,1.3c-0.1,0.8-0.1,1.6-0.1,2.4
			c0,0.1,0.1,0.1,0.1,0.2c0.1,0,0.1-0.1,0.2-0.1c0.1-0.3,0.3-0.5,0.4-0.8c0.2-1,0.8-2,1.3-2.9c0.8-1.3,1.4-2.6,1.9-4
			c0.1-0.2,0.2-0.5,0.4-0.7c0.3-0.4,0.6-0.8,0.5-1.4c0-0.1,0-0.2,0.1-0.3c0.7-0.5,0.7-1.4,1-2c0.1-0.2,0.2-0.5,0.3-0.7
			c0.3-0.3,0.4-0.7,0.3-1.1c-0.1-0.4,0-0.7,0.3-1c0.7-0.6,1.1-1.4,1.5-2.2c0.2-0.5,0.6-0.7,1.2-0.7c0.2,0,0.4,0,0.6,0
			c0.3,0,0.5,0,0.7,0.3c0.2,0.2,0.8,0.2,0.7,0.6c0,0.3-0.3,0.5-0.3,0.8c-0.2,0.7-0.7,1.2-1.1,1.8c-0.2,0.2-0.3,0.5-0.4,0.8
			c-0.1,0.4-0.2,0.9-0.6,1.3c-0.1,0.1-0.1,0.3-0.2,0.5c0,0.1,0,0.3,0,0.3c-0.4,0.1-0.1,0.4-0.3,0.6c-0.7,0.5-0.9,1.2-1.1,1.8
			c-0.1,0.4-0.3,0.8-0.6,1.2c-0.5,0.7-0.9,1.4-1.3,2.1c-0.1,0.2-0.2,0.5-0.3,0.8c-0.1,0.3,0.3,0.6,0,1c-0.2,0.2-0.3,0.6-0.4,0.9
			c-0.1,0.3-0.1,0.5-0.1,0.8c0.1,1,0.3,1.9,0.7,2.8c0,0.1,0.1,0.2,0.1,0.3c-0.3,0.6,0.1,1.1,0.2,1.7c0,0.5,0,1.1,0.1,1.6
			c0.1,0.5,0.4,0.9,0.6,1.4c0.4,1.1,0.6,2.1,0.7,3.2c0.1,0.9,0.4,1.9,0.6,2.8c0.6,2.6,1.3,5.2,2.2,7.7c0.5,1.3,0.9,2.7,1.2,4.1
			c0.1,0.4,0.1,0.8,0.1,1.3c0,0.4,0.2,0.8,0.1,1.2c-0.1,0.3,0.1,0.8,0.2,1.1c0.1,0.3,0.2,0.5,0.2,0.8c0.1,1.1,0.4,2.1,0.7,3.2
			c0.2,0.7,0.4,1.5,0.7,2.2c0.4,1.2,0.8,2.3,1.1,3.5c0.2,0.8,0.3,1.5,0.5,2.3c0.1,0.6,0.3,1.2,0.5,1.7c0.3,0.9,0.6,1.8,1,2.6
			c0.4,1-0.4,1.4-1.3,1.3c-0.2,0-0.5-0.1-0.7-0.1c-0.3-0.1-0.6-0.4-0.5-0.5c0.3-0.5,0-0.9-0.2-1.3c-0.4-0.7-0.6-1.5-0.8-2.3
			c-0.3-1.5-0.7-3-1.1-4.6c-0.1-0.3-0.3-0.6,0.1-0.9c0-0.3,0-0.6-0.1-0.9c-0.4-0.9-0.5-1.8-0.8-2.7c-0.1-0.6-0.3-1.2-0.5-1.7
			c-0.1-0.4-0.2-0.9-0.4-1.3c-0.2-0.7-0.4-1.4-0.6-2.1c-0.2-0.6-0.3-1.2-0.3-1.9c-0.1-1.2-0.3-2.3-0.8-3.4c-0.3-0.6-0.4-1.2-0.7-1.8
			c-0.3-0.5-0.3-1.1-0.4-1.7c-0.1-0.8-0.3-1.5-0.6-2.3c-0.1-0.4-0.4-0.9-0.3-1.3c0-0.1,0-0.2-0.1-0.3c-0.4-0.4-0.3-0.8-0.4-1.3
			c-0.1-0.5-0.2-1-0.2-1.6c0-0.2,0-0.4-0.1-0.5c-0.4-0.6-0.5-1.3-0.7-1.9c0-0.1,0-0.1,0-0.2c-0.6-1.2-0.6-2.5-0.8-3.8
			c0-0.2,0-0.5-0.3-0.6c-0.1,0-0.1-0.2,0-0.3c0.1-0.6,0.1-0.9-0.1-1.4c0-0.1-0.1-0.1-0.2-0.1c-0.1,0-0.2,0.1-0.2,0.1
			c-0.3,0.8-0.8,1.5-1.2,2.2c-0.4,0.6-0.6,1.4-0.9,2.1c-0.2,0.5-0.5,1-0.7,1.5c-0.3,0.5-0.4,1-0.5,1.6c0,1.5-0.1,3.1-0.1,4.6
			c0,0.5-0.1,0.9-0.3,1.4c-0.1,0.4-0.1,0.7-0.1,1c0,0.9,0.1,1.8-0.1,2.6c0,0.2,0,0.4,0,0.5c0.1,0.6,0.1,1.2,0,1.8
			c0,0.2,0,0.4,0.1,0.5c0.3,0.5,0.2,1,0.2,1.6c0,1.2,0,2.4,0.1,3.6c0,0.2,0,0.5,0.2,0.7c0.3,0.5,0.3,0.9,0.3,1.4
			c0,1,0.1,1.9,0.1,2.9c0,0.5-0.1,1.1-0.1,1.6c0,0.3-0.1,0.6-0.1,0.8c0,0.5,0,1-0.1,1.5c-0.1,0.5-0.2,1,0.4,1.4
			c0,0.4,0.1,0.8,0.1,1.2c0,0.6,0,1.2-0.1,1.8c-0.1,0.4,0.3,0.7,0.2,1.1c-0.1,0.3-0.1,0.7-0.1,1.1c0,0.6,0,1.2,0.2,1.8
			c0.1,0.2,0,0.6,0,0.8c0,0.2-0.2,0.3-0.3,0.2c-0.4-0.2-0.7-0.3-1.2-0.2c-0.3,0.1-0.7-0.2-0.8-0.5c-0.1-0.8-0.4-1.7-0.3-2.5
			c0.1-0.6,0.1-1.2,0.2-1.8c0.2-0.6,0.2-1.1,0.2-1.7c0-0.3-0.1-0.6-0.2-0.9c-0.3-1-0.6-2-0.2-3c-0.1-0.6,0.1-1.2-0.2-1.8
			c-0.1-0.2-0.1-0.6-0.1-0.8c0-0.9,0-1.8,0-2.6c0-0.3,0-0.6,0-1c0.2-1.2,0.2-2.3,0.2-3.5c0-0.1,0-0.2,0-0.3
			c-0.4-1.2-0.1-2.5-0.1-3.7c0-0.2,0-0.4-0.1-0.6c-0.2-0.6-0.1-1.2-0.1-1.9c0.1-1.1,0.1-2.1,0-3.2c0-0.7,0-1.5,0.2-2.2
			C147.3,39.7,147.3,39,147.3,38.2z"/>
		<path fill="#FFFFFF" d="M67.2,70.6c-0.1-0.9,0.2-1.8,0.3-2.7c0-0.4,0.1-0.8,0-1.2c-0.2-0.4-0.1-0.9,0-1.4c0.1-0.2,0.1-0.5,0.1-0.7
			c0-1.2,0-2.4,0-3.6c0-0.6,0.1-1.1,0.2-1.7c0.1-0.3,0.1-0.6,0.1-0.8c0-0.7,0-1.4,0-2.1c0-0.3,0.1-0.6,0.1-0.9
			c0-0.1,0.1-0.3,0.1-0.4c0.1-0.9,0.1-1.8,0.2-2.7c0.1-0.9,0.3-1.8,0.3-2.6c0.1-1.1,0.3-2.2,0.5-3.3c0-0.1,0-0.1,0-0.2
			c0-1.1,0.2-2.2,0.4-3.3c0-0.3,0.1-0.6-0.1-0.9c-0.1-0.1-0.1-0.3-0.1-0.4c0.1-0.4,0.3-0.8,0.2-1.2c-0.1-0.4,0-0.8,0.1-1.2
			c0.1-0.6,0.2-1.2,0.3-1.8c0.1-0.4-0.1-0.9,0.1-1.3c0.2-0.4,0.2-0.8,0.2-1.3c0-0.4,0-0.8,0-1.3c0-0.1,0-0.1,0-0.2
			c0.1-1,0.2-2,0.4-3c0.2-1.2,0.3-2.4,0.6-3.6c0.3-1.3,0.4-2.7,0.4-4c0-0.6,0.2-1.3,0.3-1.9c0-0.1,0.1-0.2,0.1-0.3
			c-0.2-1.1,0.3-2.2,0.4-3.4c0-0.2,0-0.4,0-0.6c0-1.1,0.1-2.1,0.3-3.2c0.1-0.5,0-1.1-0.1-1.6c-0.1-0.3,0-0.5,0.3-0.6
			c0.3-0.2,0.6-0.4,1-0.3c0.2,0,0.3,0,0.5,0c0.6,0,0.6,0,0.4,0.6c0,0.1-0.1,0.2-0.1,0.3c0.2,0.6-0.1,1.2,0.1,1.8
			c0.2,0.9-0.1,1.8-0.2,2.6c-0.2,1.1-0.4,2.2-0.6,3.3c-0.3,1.6-0.6,3.2-0.8,4.8c0,0.2,0,0.4,0,0.6c-0.1,1.2-0.2,2.4-0.4,3.6
			c0,0.1,0,0.1,0,0.2c0.2,0.8,0,1.5,0,2.3c0,0.8-0.1,1.6-0.2,2.3c-0.3,1.3-0.3,2.6-0.4,3.9c0,0.6,0.2,1.1,0,1.7
			c0.2,0.4,0,0.8-0.1,1.1c-0.2,0.6-0.3,1.2-0.3,1.9c0,0.6,0,1.2-0.2,1.8c-0.1,0.3-0.1,0.6,0,0.9c0.1,0.6,0,1.2-0.1,1.8
			c-0.1,0.8-0.3,1.6-0.2,2.4c0,0.3-0.2,0.7-0.1,1c0.1,1.2-0.2,2.3-0.3,3.5c-0.1,0.6-0.1,1.3-0.2,1.9c-0.2,1.2-0.3,2.3-0.6,3.5
			c-0.2,0.7-0.1,1.3-0.1,2c0,0.3,0,0.6,0,1c0.1,1.5-0.1,2.9-0.3,4.3c-0.1,0.8,0,1.7-0.1,2.5c0,0.5-0.1,1.1-0.1,1.6
			c0,0.2,0,0.4,0,0.5c-0.1,1.3-0.1,2.5-0.2,3.8c-0.1,1.4-0.3,2.9-0.5,4.3c0,0.1,0,0.3-0.1,0.4c-0.5,0.3-0.3,0.8-0.4,1.3
			c-0.2,0.8,0,1.6-0.3,2.4c-0.1,0.2,0,0.5,0.1,0.7c0,0.8-0.4,1.5-0.5,2.3c-0.1,0.3-0.2,0.6,0.3,0.8c0,0,0,0.2,0,0.3
			c-0.4,0.4-1,0.6-1.6,0.7c-0.4,0.1-0.5,0-0.4-0.4c0.2-0.8,0.2-1.6,0-2.3C65.2,84,65.1,83,65,82.1c0-0.3-0.1-0.6-0.2-0.9
			c0-0.2-0.1-0.3-0.1-0.5c-0.2-1.3-0.3-2.7-0.5-4c0-0.1,0-0.2,0-0.3c0-0.7,0.1-1.5-0.2-2.2c-0.1-0.3,0-0.6-0.1-0.9
			c-0.3-1.3-0.2-2.6-0.5-3.9c0.1-1-0.2-2-0.1-3.1c0.1-0.8,0-1.5-0.2-2.3c-0.1-0.4-0.1-0.9-0.1-1.4c0-0.5-0.1-1-0.2-1.5
			c0-0.1-0.1-0.2-0.1-0.3c0.1-1.1-0.5-2.1-0.7-3.2c-0.1-0.3-0.1-0.6-0.1-0.9c0-0.3,0.1-0.5-0.1-0.7c-0.1-0.1-0.2-0.3-0.2-0.5
			c0-0.8-0.2-1.5,0-2.3c0-0.1,0.1-0.2,0-0.3c-0.3-1.3-0.1-2.6-0.3-3.9c-0.1-0.7-0.1-1.3-0.2-2c-0.2-1.1-0.3-2.2-0.4-3.3
			c-0.1-0.8-0.1-1.5-0.4-2.3c-0.1-0.2-0.1-0.5-0.1-0.7c-0.1-1.7-0.1-3.5-0.2-5.2c-0.1-1.1-0.3-2.2-0.5-3.4c-0.1-0.5-0.1-1-0.1-1.5
			c-0.2-1.7-0.2-3.5-0.5-5.3C59,24.6,59,23.9,59,23.1c0-1.2,0-2.5-0.5-3.7c-0.2-0.6-0.1-1.2-0.1-1.8c0-0.8,0.1-1.6-0.3-2.3
			c0-0.9-0.3-1.8-0.2-2.7c0.1-0.4-0.1-0.8-0.2-1.1c0-0.1,0.1-0.3,0.2-0.3c0.5-0.1,1-0.2,1.4-0.2c0.2,0,0.4,0.1,0.5,0.3
			c0.2,0.4,0.4,0.8,0.4,1.2c0.1,0.9,0.2,1.7,0.3,2.6c0,0.2,0,0.5,0,0.7c-0.1,1,0,2,0.4,3c0.1,0.2,0.2,0.3,0.1,0.5
			c-0.1,0.8,0.1,1.7,0.1,2.5c0,0.1,0,0.2,0,0.3c0.3,1,0.3,2,0.2,3c0,0.9,0.1,1.9,0.2,2.8c0.1,1.1,0.1,2.1,0.2,3.2
			c0.1,1.1,0.3,2.1,0.5,3.1c0,0.2,0,0.4,0,0.5c0.1,1.1,0.2,2.1,0.3,3.2c0,0.3,0,0.6,0,0.8c0,0.9,0,1.8,0.2,2.6
			c0,0.1,0.1,0.2,0.1,0.3c-0.3,1.2,0.4,2.3,0.2,3.4c0,0.2,0.1,0.3,0.1,0.5c0.3,0.9,0.4,1.8,0.4,2.7c0,0.2,0.1,0.5,0.1,0.7
			c0,0.3,0.1,0.6,0.1,0.9c-0.1,0.6-0.1,1.2,0.1,1.9c0.1,0.3,0.1,0.6,0.1,1c0.1,0.6,0.1,1.1,0.3,1.7c0.1,0.4,0.3,0.8,0.1,1.2
			c-0.1,0.2,0,0.4,0,0.6c-0.1,0.7,0.4,1.3,0.3,2c-0.1,0.7,0.1,1.3,0.2,2c0.1,0.5,0,1,0.1,1.6c0.2,1,0.2,2,0.4,3.1
			c0.3,1.5,0.2,3,0.3,4.4c0.1,1,0.3,2,0.5,2.9c0.1,0.3,0.3,0.6,0.4,0.9c0.1,0.2,0.1,0.4,0.2,0.5c0.1-0.2,0.2-0.4,0.2-0.6
			C67.1,72.4,67.4,71.5,67.2,70.6z M66,80.4c0,0.4-0.2,0.7,0,1c0,0.1,0.1,0.1,0.1,0.2c0,0,0.1-0.1,0.1-0.1c0.1-0.6,0.2-1.2,0.2-1.8
			c0-0.3,0.2-0.7,0-1c-0.4,0.2-0.2,0.7-0.4,1C65.9,79.8,66,80.2,66,80.4z M64.6,64.7c0-0.2,0-0.4-0.1-0.6c0,0-0.1-0.1-0.1-0.1
			c-0.1,0-0.1,0.1-0.1,0.1c0,0.3,0.1,0.7,0.1,1c0,0,0.1,0.1,0.1,0.1c0,0,0.1,0,0.1,0C64.6,64.9,64.6,64.8,64.6,64.7z M60.7,21.9
			C60.7,21.9,60.6,21.9,60.7,21.9c0-0.2,0-0.3,0-0.5c0-0.1-0.1-0.1-0.1-0.2c0,0.1,0,0.1,0,0.2c0,0.3,0,0.7,0,1c0,0.1,0,0.1,0,0.2
			c0-0.1,0.1-0.1,0.1-0.2C60.7,22.3,60.7,22.1,60.7,21.9z M60.6,20c0,0,0-0.2-0.1-0.3c0-0.1-0.1-0.1-0.2-0.1c0,0.1-0.1,0.1-0.1,0.2
			c0.1,0.2,0.1,0.4,0.2,0.6c0,0.1,0.1,0.1,0.1,0.2c0-0.1,0-0.1,0-0.2C60.6,20.3,60.6,20.2,60.6,20z"/>
		<path fill="#FFFFFF" d="M136.7,9.1c0.9-0.2,1.7,0.2,2.4,0.3c1.1,0.2,2.1,0.7,2.9,1.5c0.1,0.1,0.3,0.3,0.5,0.3
			c0.4,0.2,0.5,0.6,0.5,0.9c-0.2,1.1-0.4,2.3-0.8,3.4c0,0,0,0.1-0.1,0.1c-0.1,0-0.1,0.1-0.2,0.1c-0.1,0-0.2,0-0.2-0.1
			c-0.7-1.5-2.1-2-3.9-2.1c-0.7,0-1.5,0-2.2,0.3c-0.9,0.4-1.8,0.8-2.4,1.6c-0.5,0.6-0.9,1.2-1.2,1.9c-0.2,0.5-0.3,1-0.7,1.4
			c-0.1,0.1-0.2,0.4-0.2,0.6c-0.6,1.9-1.1,3.8-1.7,5.7c0,0.1-0.1,0.3-0.1,0.4c0.2,0.4,0,0.8-0.1,1.2c-0.2,0.9-0.4,1.7-0.4,2.6
			c0,0.2-0.1,0.4-0.1,0.6c0,0.1-0.1,0.2-0.1,0.2c0.5,0.8-0.3,1.7,0,2.5c0,0,0,0.1,0,0.1c-0.3,0.9-0.1,1.9-0.2,2.8c0,1,0,1.9,0,2.9
			c0,0.4,0,0.8-0.1,1.2c-0.1,0.5,0.2,0.9,0,1.4c-0.1,0.4,0,0.8,0.2,1.2c0.1,0.4-0.1,0.8,0,1.2c0.1,0.4,0.1,0.8,0,1.2
			c0,0.4,0,0.8,0.2,1.1c0.1,0.2,0.1,0.5,0.1,0.7c0,0.4-0.1,0.9-0.1,1.3c0,0.3,0.2,0.5,0.4,0.7c0.2,0.2,0.3,0.5,0.3,0.8
			c-0.1,1.2,0.3,2.4,0.7,3.5c0.1,0.4,0.2,0.8,0.3,1.1c0.2,0.8,0.5,1.6,0.9,2.3c0.1,0.1,0.2,0.3,0.1,0.4c0,0.7,0.4,1.4,0.8,2
			c0.1,0.2,0.3,0.4,0.3,0.6c0,0.5,0.3,0.9,0.6,1.2c0.5,0.7,0.9,1.6,1.7,2.2c0.1,0.1,0.3,0.2,0.3,0.3c0.2,0.7,0.8,1.2,1.2,1.8
			c0.4,0.6,1,1.2,1.9,1.4c0.6,0.1,1.1,0.4,1.6,0.8c0.9,0.6,1.8,1.1,2.9,1.3c0.2,0,0.4,0.1,0.6,0.2c0.2,0.1,0.4,0.3,0.5,0.4
			c0.2,0.1,0.1,0.3,0,0.5c0,0.1-0.1,0.1,0,0.2c0.3,0.9,0.2,1.7-0.1,2.6c-0.1,0.2,0,0.3,0,0.5c0,0.2,0,0.4-0.1,0.6
			c0,0.1-0.1,0.2-0.3,0.1c-0.1-0.1-0.3-0.3-0.4-0.3c-1-0.3-1.9-0.7-2.8-1.1c-0.7-0.3-1.4-0.7-2.1-0.9c-1.3-0.4-2.3-1.1-3.2-2
			c-0.3-0.3-0.6-0.5-0.8-0.8c-0.1-0.1-0.2-0.2-0.2-0.4c-0.2-0.9-0.9-1.5-1.5-2.2c0-0.1-0.1-0.1-0.2-0.2c-0.7-0.7-1.4-1.4-1.5-2.4
			c0-0.2-0.1-0.3-0.2-0.5c-0.4-0.8-1-1.6-1.1-2.6c0-0.1-0.1-0.1-0.1-0.2c-0.8-1.1-1.1-2.3-1.4-3.5c-0.1-0.2-0.1-0.4,0.1-0.6
			c0.1-0.1,0.1-0.3,0.1-0.5c-0.1-1-0.2-2-0.7-2.9c-0.3-0.5-0.3-1.1-0.3-1.6c0-0.3,0-0.7-0.1-0.9c-0.3-0.7-0.4-1.4-0.4-2.2
			c0-0.8,0-1.6-0.2-2.4c-0.1-0.3,0-0.7,0-1.1c-0.1-1.8-0.1-3.6-0.2-5.4c0-0.3,0-0.6,0-1c0.1-0.6,0.1-1.2-0.3-1.7
			c-0.1-0.2-0.1-0.4-0.1-0.6c0.4-1.4,0.3-2.8,0.4-4.2c0.1-1.5,0.2-3,0.3-4.5c0-0.3,0.2-0.7,0.2-1c0.3-1.2,0.6-2.5,0.8-3.7
			c0.1-0.4,0.1-0.7,0.4-1c0.1-0.1,0.1-0.2,0.1-0.3c0-0.8,0.5-1.5,0.7-2.2c0.2-0.7,0.3-1.4,0.7-2c-0.1-0.4,0.1-0.7,0.4-1
			c0.1-0.2,0.3-0.4,0.3-0.6c0.1-0.6,0.5-1.1,1-1.6c0.1-0.1,0.2-0.1,0.2-0.2c0.2-0.8,1-1.2,1.6-1.8c0.5-0.4,0.9-0.8,1.4-1.2
			c0.4-0.3,0.8-0.6,1.3-0.8C135.7,9.1,136.2,8.9,136.7,9.1z"/>
		<path fill="#FFFFFF" d="M118.3,73c0.1-0.4,0.2-0.9,0.3-1.3c0-0.1,0.1-0.2,0.1-0.3c-0.3-0.6,0.1-1.3,0.1-1.9c0-0.6,0-1.2,0.1-1.8
			c0-0.1,0-0.2,0-0.3c-0.2-0.6-0.2-1.3-0.2-1.9c-0.1-1.3-0.2-2.7-0.3-4c0-0.6,0-1.2,0.1-1.8c0.1-0.7,0-1.5,0-2.2
			c0-0.3-0.1-0.6-0.1-0.8c0-0.7,0.1-1.3,0-2c-0.2-0.6-0.1-1.3-0.1-1.9c0-0.2,0-0.4,0-0.6c0.1-0.7,0.1-1.5,0-2.2
			c-0.1-0.8-0.1-1.7,0.1-2.5c0-0.2,0.1-0.4,0.1-0.6c0.1-1.3,0.1-2.5,0.2-3.8c0-0.8,0-1.6-0.2-2.3c-0.1-0.3-0.1-0.7-0.1-1.1
			c0-1.5,0.1-3.1,0-4.6c0-1.6-0.1-3.1-0.1-4.7c0-0.7-0.1-1.5-0.2-2.2c-0.1-0.5-0.1-1,0-1.6c0.1-1.2,0.2-2.3,0.2-3.5c0-1.7,0-3.3,0-5
			c0-1.8-0.1-3.7-0.2-5.5c0-0.3-0.1-0.5-0.2-0.8c-0.1-0.4-0.1-0.8,0.4-1.2c0.1-0.1,0.2-0.3,0.3-0.4c0.1-0.1,0.3-0.2,0.4-0.1
			c0.5,0.3,1.1,0.4,1.7,0.6c0.2,0.1,0.2,0.2,0.1,0.3c-0.2,0.1-0.3,0.3-0.3,0.5c-0.1,1.4,0,2.8,0.1,4.1c0.1,0.5,0.1,1,0.1,1.6
			c0.1,0.6,0.1,1.3-0.1,2c-0.2,0.5-0.3,1.1-0.2,1.7c0.1,0.9,0,1.8-0.1,2.7c0,0.4-0.1,0.7,0.1,1c0,0.1,0.1,0.2,0.1,0.3
			c-0.1,1.1,0.2,2.2-0.1,3.4c-0.1,0.2-0.1,0.5,0,0.7c0.2,0.4,0,0.8,0,1.2c-0.3,1.6-0.1,3.1,0,4.7c0,0.6,0.1,1.1,0.1,1.7
			c0,0.5,0.1,1.1,0.2,1.6c0,0.3,0,0.6,0,1c0,0.5-0.2,0.9-0.1,1.4c0.1,0.5-0.1,0.9-0.1,1.4c0,0.1,0,0.1,0,0.2c0.2,0.9,0,1.8,0.1,2.6
			c0.1,0.8,0,1.7,0.1,2.5c0,0.7,0.1,1.5,0.1,2.2c0,0.1,0,0.3,0,0.4c-0.3,1.1-0.2,2.3-0.2,3.5c0,0.5-0.1,0.9-0.1,1.4
			c0,0.6-0.2,1.3,0.3,1.8c0,0.5,0.1,1,0.1,1.6c-0.1,1-0.3,2-0.2,3c0,0.1-0.1,0.2-0.1,0.3c-0.2,0.9,0,1.8,0,2.7c0,0.2,0,0.4,0.2,0.5
			c0.4,0.2,0.4,0.5,0.4,0.9c0,0.8-0.1,1.6-0.2,2.3c0,0.2-0.1,0.4-0.1,0.5c0,0.6,0,1.3,0,1.9c0,0.7,0.1,1.4-0.1,2.1
			c-0.1,0.3-0.1,0.7-0.1,1.1c0,0.3,0,0.5,0.3,0.7c0.2,0.2,0.1,0.5-0.2,0.6c-0.5,0.1-1,0.2-1.4,0.2c-0.3,0-0.6-0.1-0.5-0.4
			C118.4,74,118.3,73.5,118.3,73z"/>
	</g>
	<g>
		<path fill="#CF0A2C" d="M182.8,43.2c0.1-0.7,0.1-1.6-0.2-2.4c0-0.1,0-0.2,0-0.3c0.2-0.8,0.1-1.6,0.1-2.4c0-0.9,0.1-1.8,0.1-2.6
			c0-0.1,0-0.2,0-0.3c-0.1-0.2-0.3-0.4-0.1-0.6c0.2-0.2,0.5-0.5,0.9-0.6c0.4-0.1,0.8,0,1.2,0c0.2,0,0.3,0.2,0.3,0.4
			c0.1,0.5,0.2,1,0.1,1.5c-0.1,0.8,0.3,1.6,0.3,2.4c0,0.7,0.1,1.3,0.2,2c0.1,0.5,0.1,1.1,0.2,1.6c0,0.1,0.1,0.2,0.1,0.3
			c-0.2,1,0,2-0.1,3c0,0.2-0.1,0.4-0.1,0.7c-0.3,1.4-0.4,2.7-0.1,4.1c0.2,1.1-0.1,2.3-0.4,3.3c-0.1,0.2-0.3,0.4-0.5,0.4
			c-0.3,0.1-0.5,0.1-0.8,0.2c-0.3,0-0.6,0-0.7-0.3c-0.5-1.1-1.4-2.1-1.8-3.2c-0.1-0.4-0.4-0.7-0.6-1.1c-0.4-0.5-0.7-1-0.8-1.6
			c-0.1-0.3-0.3-0.7-0.5-1c-0.6-0.8-1.1-1.7-1.3-2.7c0-0.3-0.2-0.6-0.3-0.8c0-0.1-0.2-0.2-0.4-0.2c-0.1,0-0.2,0.1-0.2,0.2
			c0,0.5-0.1,1.1,0,1.6c0.2,0.9,0,1.7-0.1,2.6c-0.2,1.3-0.1,2.6-0.1,3.9c0,0.2,0.1,0.4,0.2,0.6c0.1,0.4,0.2,0.7,0,1.1
			c-0.2,0.4-0.5,0.6-0.9,0.5c-0.4-0.1-0.7,0-1.1,0.1c-0.2,0.1-0.3,0-0.3-0.2c-0.2-1.4-0.2-2.8,0-4.3c0-0.2,0.1-0.5,0-0.6
			c-0.2-0.5-0.1-0.9-0.2-1.4c-0.1-2.4-0.1-4.8-0.2-7.1c-0.1-1.4-0.1-2.7,0.1-4c0.1-0.3,0-0.7-0.1-1c0-0.2-0.1-0.4,0.1-0.6
			c0.1-0.1,0.2-0.2,0.3-0.3c0.1-0.1,0.3-0.1,0.5-0.1c1.2,0,1.2,0.1,1.6,0.9c1.2,2.5,2.5,5,3.6,7.6c0.4,0.9,1,1.7,1.7,2.5
			c0,0,0.2,0.1,0.2,0c0.1,0,0.1-0.1,0.1-0.1C182.9,44.3,182.9,43.8,182.8,43.2z M183.3,52.3c0,0.1-0.1,0.1,0,0.2
			c0.1,0.2,0.1,0.4,0.3,0.4c0.1,0.1,0.4,0.1,0.5,0.1c0,0,0.1-0.1,0.1-0.1c-0.1-0.1-0.1-0.3-0.2-0.3
			C183.7,52.5,183.5,52.4,183.3,52.3z M177.4,42.1C177.4,42.1,177.3,42.1,177.4,42.1c-0.2,0.1-0.1,0.6,0.1,0.6c0,0,0.1,0,0.1,0
			C177.7,42.6,177.6,42.2,177.4,42.1z"/>
		<path fill="#CF0A2C" d="M186.1,15.9c0,1.1,0,2.2,0,3.3c0,0.3-0.1,0.7,0.3,0.9c0.1,0,0.1,0.2,0.1,0.2c-0.2,0.4,0,0.8-0.1,1.2
			c-0.2,1.1-0.3,2.2-0.5,3.2c0,0.2-0.1,0.4-0.1,0.7c0,0.9-0.5,1.8-1,2.6c0,0.1-0.1,0.1-0.1,0.2c-0.7,0.2-1.1,0.8-1.7,1.2
			c-0.5,0.3-1.1,0.5-1.7,0.5c-0.8,0-1.5,0-2.3-0.1c-0.1,0-0.2-0.1-0.2-0.1c-1.3,0.1-2.2-0.5-3.2-1.1c-0.1-0.1-0.3-0.2-0.4-0.3
			c-0.3-0.6-0.6-1.1-0.8-1.7c-0.2-0.6-0.2-1.2-0.5-1.7c-0.1-0.1,0-0.4,0-0.5c0-0.4,0-0.9-0.1-1.3c-0.1-0.8-0.1-1.5-0.2-2.3
			c-0.1-1.4-0.1-2.7-0.2-4.1c0-0.4-0.1-0.7-0.3-1.1c-0.1-0.2-0.1-0.4,0-0.6c0.5-0.6,0-1.3,0.2-1.9c-0.3-0.7-0.8-1.4-1.6-1.5
			c-1-0.1-1.5-0.6-1.7-1.4c0-0.1-0.1-0.3-0.2-0.4c-0.3-0.6-0.3-1,0-1.8c0.1-0.3,0-0.7,0.4-0.7c0.4,0,0.4,0.4,0.6,0.6
			c0.1,0.2,0.1,0.4,0.3,0.6c0.4,0.6,1,1.1,1.9,1c0.7-0.1,1.5,0.1,2.2-0.2c0.1,0,0.2,0,0.4,0c0.3,0,0.5,0.2,0.5,0.5c0,1,0,1.9,0,2.9
			c0,0.5-0.1,0.9-0.1,1.4c0,0.8,0,1.6-0.1,2.4c0,0.8-0.1,1.7,0,2.5c0.1,1,0,2,0.1,3.1c0.1,1.3,0.5,2.5,1.4,3.6
			c0.2,0.2,0.5,0.4,0.8,0.5c1,0.2,1.9,0.2,2.9-0.1c0.3-0.1,0.6-0.2,0.9-0.3c0.4-0.1,0.7-0.4,0.7-0.8c0-0.2-0.1-0.4,0-0.5
			c0.2-0.4,0.2-0.8,0.4-1.2c0.2-0.3,0.3-0.7,0.3-1c0.1-0.4-0.2-0.9,0-1.3c0.2-0.5,0-0.9,0.1-1.4c0.1-0.4,0-0.9,0-1.3
			c0-0.4-0.2-0.8-0.1-1.3c0.1-0.5,0.1-1.1,0.2-1.6c0.1-0.8,0.1-1.5-0.1-2.3c-0.1-0.3-0.1-0.6-0.1-1c0.1-0.5,0-1,0-1.5
			c0-0.5,0.5-1,1-1.1c0.2,0,0.5,0,0.7-0.1c0.9-0.1,1.5-0.4,1.8-1.2c0.2-0.4,0.3-0.8,0.5-1.2c0.1-0.2,0.3-0.2,0.5-0.1
			c1.1,1,1.1,1.5,0.5,2.9c-0.2,0.5-0.6,0.8-1.2,1c-0.4,0.1-0.8,0.4-1,0.7c-0.2,0.3-0.3,0.7-0.2,1C186,13.7,186,14.8,186.1,15.9
			C186.1,15.9,186.1,15.9,186.1,15.9z"/>
		<path fill="#CF0A2C" d="M174.4,64.4c0-0.4-0.1-0.8,0-1.1c0.1-0.4,0.2-0.8,0.3-1.2c0.2-0.4,0.4-0.8,0.6-1.2
			c0.2-0.4,0.5-0.8,0.9-1.1c0.8-0.7,1.7-1.3,2.7-1.7c0.6-0.2,1.1-0.4,1.7-0.2c1.4,0.3,2.8,0.8,4,1.5c0.1,0.1,0.2,0.1,0.3,0.2
			c0.9,1.2,1.5,2.5,1.4,4c-0.1,1.3-0.5,2.5-0.8,3.7c0,0.1-0.1,0.3-0.2,0.4c-0.8,1.1-1.8,2.1-3.2,2.6c-0.7,0.2-1.4,0.3-2.2,0.3
			c-1,0.1-2-0.2-2.9-0.5c-0.4-0.1-0.6-0.3-0.8-0.6c-0.5-0.9-1-1.9-1.4-2.9C174.4,65.9,174.4,65.1,174.4,64.4z M183.6,64.3
			c0-0.1,0-0.2,0-0.2c0.2-1-0.5-1.7-1.1-2.4c-0.1-0.1-0.3-0.2-0.5-0.3c-0.6-0.2-1.2-0.3-1.8-0.5c-0.2,0-0.4-0.1-0.6,0
			c-0.4,0.2-0.8,0.4-1.1,0.6c-0.1,0-0.2,0-0.2,0c-0.1,0.1-0.2,0.2-0.2,0.3c-0.6,0.7-0.8,1.5-1.1,2.2c0,0.1,0,0.2,0,0.3
			c0.2,0.8,0.3,1.6,0.8,2.2c0.4,0.5,1.1,0.6,1.7,0.8c1.6,0.6,2.9-0.1,3.7-1.2C183.5,65.7,183.8,65.1,183.6,64.3z"/>
	</g>
</g>
<g>
	<path fill="#FFFFFF" d="M228.3,91.6L228.3,91.6c-0.3-0.2-0.8-0.3-1.2-0.3c-1.4,0.1-1.6,0.8-1.8,0.9c0,0.1-0.4,0.5-0.9,1.2
		c-1.7,2.2-5.8,6.7-9,8c-0.1,0.1-1.6,0.4-3.4,0.7c-1.9,0.3-4.3,0.5-6.7,0.5c-0.8,0-1.5,0-2.3-0.1c-1.6-1.4-3.9-2-6.6-2
		c-1.4,0-2.9,0.2-4.5,0.5c-0.6,0.1-1.3,0.2-2.1,0.2c-2.8,0-6.3-0.8-9.5-1.1c-0.6-0.1-1.2-0.1-1.8-0.1c-2.4,0-4.4,0.5-5.9,1.4
		c-1.2,0.1-2.6,0.2-3.9,0.2c-2.9,0-5.9-0.3-8.3-0.7c-1.2-0.2-2.2-0.4-3-0.6c-0.8-0.2-1.4-0.4-1.4-0.4c-2.3-1-5.1-3.6-7.2-5.9
		c-1.1-1.2-1.9-2.2-2.6-3c-0.6-0.8-1-1.3-1-1.3c-0.1-0.1-0.5-0.9-1.9-1c-0.3,0-0.7,0.1-1.1,0.3c-1,0.5-1.2,1.6-1.2,2
		c0,0.6,0.1,0.9,0.2,1c0,0,1.1,3,2.8,6.4c1.7,3.5,4,7.4,6.7,9.6c1.4,1,4.1,2.4,7.6,3.7c-0.8,0.3-1.6,0.6-2.4,0.7
		c-1,0.2-1.9,0.4-2.5,0.5c-0.7,0.1-1,0.1-1,0.1l-1.9,0.2l0.3,1.9c0,0.1,0.2,1.6,1.1,3.6c-7,3.6-11.7,7-11.8,7l-3.3,2.3l4,0.8
		c0,0,0.6,0.1,1.6,0.4c3,0.8,9.7,3,14,6.5c7.1,5.9,9,10.3,12.5,15.5c6.3,9.3,16.1,12.6,16.1,12.6l-0.2-3.1c-0.1-0.7-0.1-1.5-0.1-2.1
		c0-5.6,1.7-8.4,3.1-9.9c0.7-0.8,1.5-1.2,2-1.5c0.3-0.1,0.5-0.2,0.6-0.2c0,0,0.1,0,0.1,0c0.4,0,0.8-0.1,1.2-0.1c0.6,0,1.2,0,1.8,0.1
		c0.3,0,0.6,0.1,0.9,0.1c2.8,0,5.2-1.7,5.9-4.1c2.1-2.6,2.8-4.9,2.8-6.7c0-1.5-0.5-2.6-0.9-3.1c0-0.3-0.1-0.7-0.1-1.2
		c0-0.5,0.1-0.9,0.2-1.3c0.2-0.8,1.5-2.4,2.8-4.8c0.9,0.2,1.8,0.4,2.9,0.4c0.1,0,0.2,0,0.4,0c4,0,6.9-2.1,8.7-4.1
		c1.8-2,2.7-3.9,2.7-4l1.1-2.5l-2.7,0c-2.9,0-5.3-1.1-7.2-2.5c1.5-0.5,3-1,4.3-1.5c2.2-0.9,3.8-1.7,4.8-2.5c2.6-2,4.7-5.7,6.3-8.9
		c1.6-3.2,2.7-5.9,2.7-6c0-0.1,0.2-0.4,0.2-1C229.4,93.1,229.2,92.1,228.3,91.6z"/>
	<g>
		<path fill="#231F20" d="M227.3,93c-0.3-0.2-0.6,0.2-0.6,0.2s-5.6,7.6-10.6,9.8c-1.2,0.5-7.8,1.7-13.9,1.2c-1.6-1.8-5.2-2.5-10-1.5
			c-3.6,0.8-8.3-0.6-12.1-0.9c-3.2-0.3-5.4,0.3-7,1.2c-7.2,1-16.5-0.9-17.9-1.6c-5.5-2.5-11.5-10.8-11.5-10.8s-0.3-0.4-0.7-0.2
			c-0.4,0.2-0.2,0.8-0.2,0.8s4.4,11.7,9,15.3c1.4,1.1,5.7,3.2,10.7,4.7c-3.1,3-10,3.6-10,3.6s0.3,2.2,1.7,4.6
			c-7.7,3.8-13.1,7.7-13.1,7.7s17.7,2.9,27.5,20.7c-0.7-3.5-0.2-5.8-0.2-5.8c2.6,10.6,8.2,15.8,14.6,18.8c-1-13.9,7.2-15.6,7.2-15.6
			c1-0.1,2.2-0.1,3.5,0c2.6,0.3,4.5-1.1,5-3.1c4.6-5.6,1.8-8.2,1.8-8.2s-0.5-2,0-3.8c0.5-1.6,2.2-3.5,3.6-6.4
			c0.9,0.4,2.2,0.8,3.9,0.8c6.9,0.2,10.1-7,10.1-7c-4.9-0.1-8.5-2.7-10.9-5.1c5.4-1.2,10.2-3.4,11.7-4.5c4.3-3.3,8.4-14.1,8.4-14.1
			S227.7,93.2,227.3,93z"/>
		<path fill="#CF0A2C" d="M197.4,114.8c0.2-0.6,0.5-1,0.5-1c1.3-1.5,3.6,0,3.6,0c-0.7-2-2.5-2.5-4.1-2.6c0.8-0.7,1.7-1.9,1.2-3.8
			c-0.4-1.6-1.8-2.5-4.2-2.1c0,0-3.3,0.7-7.1,0.2c-2.9-0.4-7.7-2.6-12-0.1c1,1.3,0,3.6-0.1,3.7c-3.8,8.1-13.5,7.9-13.5,7.9
			c2.7-1.2,4.4-2.8,5.4-4.1c-2.2,1.5-5.5,2.9-10.1,3.4c0,0,0.7,6,8.2,6.1c2,0,3.4-0.3,4.5-0.8c0.4-2.1,1.3-3.5,1.3-3.5
			s-0.2,7.4,7.9,12.8c0.2-2.7,1.4-4.2,1.4-4.2s-0.2,3.3,0.7,6.1c1,2.8,0.9,4.7,1.1,6.2c0.4,2.6,2.8,2.9,3.8,1.9c0,0-1.7-5,0.2-6.7
			c2-1.7,4.8-0.1,4.8-0.1s2.2,1.1,3.9,0.5c2-0.7,3.2-0.3,3.2-0.3s-1.5-2.5-1.7-4.7c-0.3-2.8,0.4-3.7-0.1-6.2
			c-1.3,0.8-2.6,0.8-2.6,0.8C196.6,122,196.6,117.6,197.4,114.8z M181.7,120.7c-0.5,0.2-1-0.2-1-0.2c-0.1-0.1-0.9-0.9-0.4-1.8
			c0.3,0.3,0.7,0.6,0.7,0.6c-0.1-0.2-0.6-1.4-0.7-1.7c-0.4-0.1-0.7,0-1,0.2c-0.5,0.5-0.4,1.6,0.4,2.3c-0.7-0.1-1.3-0.5-1.9-1.1
			c-1.1-1.3-1.3-3-0.3-3.8c0.4-0.3,0.9-0.5,1.4-0.5c-1.1-1.5-2.6-1.4-2.6-1.4s3.5-2.2,5.3,2c1.1,2.7,2.3,7.2,6,8.7
			C187.8,124,183.8,124.9,181.7,120.7z"/>
		<path fill="#CF0A2C" d="M169,128.2c0.2,10.9,4.6,19.8,9.2,23.4c1.5-11.6-5.2-12.6-7.7-26.7c-4.2,2.1-8.8,3-13.3,2.7
			c3.2,2.1,6.5,4.9,9.3,8.6C167.4,131.3,169,128.2,169,128.2z"/>
		<g>
			<path fill="#FFFFFF" d="M173,105.6c-5.9,0.1-15.7-0.1-19.6-2.8c0,0,3.9,5,19.7,5.9C174.1,108.1,174.2,106.2,173,105.6z"/>
			<g>
				<path fill="#FFFFFF" d="M189.1,135.8c-0.6,0.2-1,0.8-0.8,1.5c0.1,0.7,0.8,1.2,1.5,1c0.1,0,0.2,0,0.3-0.1
					c0.7-0.2,1.3,0.1,1.7,0.3L189.1,135.8z"/>
				<path fill="#FFFFFF" d="M198.5,136.4l-2.6,2.2c0.3-0.2,1-0.5,1.7-0.2c0.1,0,0.1,0.1,0.2,0.1c0.6,0.2,1.1-0.2,1.3-0.8
					C199.2,137.2,199,136.6,198.5,136.4z"/>
			</g>
			<path fill="#FFFFFF" d="M180.7,120.5c-0.1-0.1-0.9-0.9-0.4-1.8c0.3,0.3,0.7,0.6,0.7,0.6c-0.1-0.2-0.6-1.4-0.7-1.7
				c-0.4-0.1-0.7,0-1,0.2c-0.5,0.5-0.4,1.6,0.4,2.3l0,0c0.5,0.4,1.1,0.6,1.6,0.6C181,120.8,180.7,120.5,180.7,120.5z"/>
		</g>
	</g>
</g>
</svg>
