<?xml version="1.0" encoding="utf-8"?>
<!-- Generator: Adobe Illustrator 18.1.1, SVG Export Plug-In . SVG Version: 6.00 Build 0)  -->
<svg version="1.1" id="Layer_1" xmlns="http://www.w3.org/2000/svg" xmlns:xlink="http://www.w3.org/1999/xlink" x="0px" y="0px"
	 viewBox="0 0 44.9 45.4" enable-background="new 0 0 44.9 45.4" xml:space="preserve">
<g>
	<path fill-rule="evenodd" clip-rule="evenodd" fill="#E9EFFD" d="M0.4,25.7c0,0,0.1-0.6,0.3-0.7s0.7-0.2,0.7-0.2s0.7,0,0.9,0.8
		c0.2,0.8,0.4,1.2,0.4,1.2s0.7,2.7,1,3.4c0.6,1,0.9,2.7,1.5,3.7c0.8,1.5,1.7,2.7,3,3.8c2.7,2.4,6.4,4.3,10,4.8c2.9,0.5,2,0.3,2,0.3
		l0.7,0.3l0.2,0.4c0,0-0.1,0.9,0,1.2c0.2,0.8-1.1,0.7-1.3,0.7c-0.3,0-3.9-0.2-9.5-3.1s-8.3-9.8-8.3-9.8s-1.7-4.3-1.8-5.6
		S0.4,25.7,0.4,25.7z"/>
	<path fill-rule="evenodd" clip-rule="evenodd" fill="#E9EFFD" d="M1.4,20.8l-0.5-0.2c0,0-0.5-0.7-0.6-0.8c-0.1-0.1-0.2-0.8-0.2-1
		c0,0,0.4-1.7,0.4-1.8c0-0.1,0.8-1.6,0.8-1.6s2.5-5.2,2.8-5.6C4.2,9.2,6,7,6.9,6.3s2-1,2-1s0.7-0.6,0.7-0.7c0-0.1,0.5-0.4,1.1-0.4
		c0.6-0.1,0.8,0.2,0.8,0.2s0.2,0.7,0.1,1C11.4,5.6,10,7,9.6,7.6S9.1,9.4,9.1,9.4l0.5,1.1c0,0,0.1,0.9,0.3,1.1s1.3,1.7,3.6,1.2
		c2.3-0.5,2.5-0.5,2.5-0.5l0.6,0.2c0,0,1.3,1.7,1.3,1.8s3.4,5.7,3.4,5.7l1.9,3.2l0.8,0.7l0.3-0.3l0.1-1.1l0.3-4.1l0.2-1.1l0-0.4
		l1.6-0.9c0,0,2.1-1.6,2.3-2.4s-0.3-2.5-0.3-2.5s-1.2-2-2-2.6s-0.1-1.7-0.1-1.7s2-0.4,2.9,0.1L34,9.4c0,0,1.2,1.5,1.6,2.9
		s0.4,3.8,0.3,3.9s-0.1,1.8-1.4,3.3s-2.1,2.2-2.1,2.2l0.1,3.6l0.2,3l-0.2,1.1l0,1.7c0,0-0.3,3.6-1.7,4.8c-1.4,1.2-3.6,3.3-5.4,3.8
		c-1.7,0.5-5,0.5-6.3,0s-4-2.4-4-2.4s-2.1-2.3-2.4-3.5c-0.3-1.3-0.8-3-0.8-3.3c0.1-0.4-0.2-2.4-0.2-2.4l0-2.2c0,0,0-1.2-0.1-1.7
		c-0.1-0.5-0.2-2.2-0.1-2.3c0.1-0.2,0-0.9,0-1.1c0-0.2-0.1-0.7,0-0.9s0.6-1.1,0.6-1.1s0.5-0.3,0.9-0.2c0.3,0.1,0.6,0,0.7,1.3
		s0.1,2.5,0.1,3.4c0,0.9,0.1,2.2,0.1,2.2l-0.1,0.5c0,0,0.2,1.9,0.2,3.3s0.4,1.8,0.4,2.1c0,0.2,0.3,1.2,0.4,1.4c0,0.1,0.5,2,0.9,2.3
		c0.4,0.4,2,1.5,2.5,1.6c0.5,0.1,3,1.1,5.6,0.9c2.6-0.2,3.8-1.6,3.8-1.6s1.9-2.6,2-4c0.1-1.4,0.4-2.6,0.4-2.6l0.4-4.2l0-4.8
		c0,0,0.3-0.2,0.4-0.4c0.9-0.7,1.3-1.5,2-2.4c1.2-1.9,1-6.1-1.2-7.2c-1.5-0.7,0,0.7-0.5,2.8c0,0-0.3,1.9-1,2.7s-1.2,1.6-1.4,1.7
		c-0.1,0.1-0.8,0.5-1.1,0.9c-0.3,0.3-0.1,1.9-0.1,1.9s-0.2,2.3-0.2,2.6s-0.2,1.6-0.2,1.6l0,2.6l0,0.4l-0.1,0.7c0,0-0.2,2.6-0.2,2.8
		s0.2,1.1-0.1,1.1c-0.3,0-0.5,0.1-0.6,0.1c-0.1,0.1-0.8,0-0.9-0.2c-0.1-0.2-3.3-4.9-3.3-4.9s-2-3.7-2.1-4c-0.1-0.3-1.4-1.7-1.4-1.9
		s-2.1-4.2-2.1-4.2L16,16.3c0,0-0.4-0.5-0.7-0.5S13.3,16,13,16c-0.3,0-2.8-0.5-3.6-1.1c-0.9-0.6-1.9-2-1.9-2.3
		c0-0.3-0.7-1.2-0.7-1.2L6.7,11c0,0-0.2-0.2-0.6,0.2c-0.4,0.4-2,3.2-2.3,4.1L3,17.8l-0.6,2.1C2.4,19.9,2.1,20.7,1.4,20.8z"/>
	<path fill-rule="evenodd" clip-rule="evenodd" fill="#E9EFFD" d="M15.8,3.7c0,0-0.5-0.8-0.7-0.8c-0.2,0-0.2-0.8,0.1-0.9
		C15.5,1.8,17,0.7,17,0.7c0.7-0.1,3.9-0.6,4.7-0.6s1,0.1,1,0.1L23.5,0c0,0,3.3,0.3,4.1,0.8c1.3,0.4,2.5,0.9,3.6,1.5
		c1.5,0.9,3.1,1.4,4.5,2.3c1.9,1.2,3.5,2.7,5,4.4c0.7,0.8,1.6,1.8,2,2.8c0.3,0.8,0.5,1.8,1.1,2.5c0.3,0.3,0.6,2.7,0.6,2.9
		c0,0.2,0,2-0.3,2.4c-0.3,0.5-0.9,1.1-1.2,1c-0.3-0.1-0.8-0.7-1-0.7c-0.2,0-0.7-0.6-0.7-0.8s-0.3-1.2-0.2-1.4c0-0.2-0.3-0.3-0.3-0.6
		c-0.1-1-0.3-1.8-0.6-2.8c-0.3-1.1-0.8-2.2-1.5-3.2c-1.3-1.9-3.4-3.9-5.4-5c-2.3-1.4-4.9-2.2-7.6-2.7c-2.1-0.4-4.5-0.5-6.7-0.2
		C18.5,3.1,15.8,3.7,15.8,3.7z"/>
	<path fill-rule="evenodd" clip-rule="evenodd" fill="#E9EFFD" d="M41.7,26.1c0,0,0-0.7,0.1-0.8c0.1-0.1,0.3-0.7,0.3-0.7l0.2-0.7
		c0,0,0.8-0.4,1.3-0.3c0.5,0,1.2,0.8,1.2,1.2c0,0,0.3,3.3-0.3,4.8c-0.7,1.5-2.1,5.2-3.3,6.5s-5.1,5-5.3,5.2s-2.7,1.8-4.8,2.6
		s-4,1.3-4.4,1.2c-0.4,0-0.8-0.2-0.9-0.6c-0.1-0.4,0.1-0.6,0.1-0.6s0.1-1,0.5-1c0.4-0.1,1.3-0.7,1.5-0.7c0.2,0,2.4-0.7,2.7-0.9
		c1.9-1,4.4-2.8,5.4-4c0,0,1.8-1.9,1.9-2c0.1-0.1,0.5-0.6,0.5-0.6L39,33c0,0,0.7-1.1,0.8-1.4c0.1-0.3,1.4-3.1,1.5-3.5
		C41.4,27.7,41.7,26.1,41.7,26.1z"/>
</g>
</svg>
