<?xml version="1.0" encoding="utf-8"?>
<!-- Generator: Adobe Illustrator 18.1.1, SVG Export Plug-In . SVG Version: 6.00 Build 0)  -->
<svg version="1.1" id="Layer_1" xmlns="http://www.w3.org/2000/svg" xmlns:xlink="http://www.w3.org/1999/xlink" x="0px" y="0px"
	 viewBox="0 0 257.8 37.9" enable-background="new 0 0 257.8 37.9" xml:space="preserve">
<path fill="#CF0A2C" d="M28,23.5c0.2,0,0.4,0,0.6,0c0.2,0,0.4,0.1,0.6,0.2c0,0,0,0,0,0c0.1,0.1,0.1,0.2,0.2,0.3c0,0,0.1,0,0.1-0.1
	c0-0.1-0.1-0.3-0.1-0.4l0,0c0.2-0.1,0.3-0.3,0.5-0.4c0.4-0.1,0.9-0.1,1.3,0c0.5,0.1,0.7-0.2,0.9-0.5c-0.1-0.1-0.1-0.2-0.2-0.2
	c-0.9-0.1-1.8-0.3-2.8,0c-0.3,0.1-0.7,0.1-1,0.1c-0.3,0-0.6,0-0.8,0.1c-0.3,0.1-0.6,0.3-0.9,0c-0.1-0.1-0.3,0-0.5,0
	c-0.7,0.1-1.4,0.4-2.1,0.1c-0.1,0-0.1,0-0.2,0c-1,0.7-2.1,0.3-3.2,0.5c-0.7,0.1-1.4,0.3-2.1,0.4c-0.1,0-0.3,0.1-0.4,0.1
	c-1.1,0-2.1,0-3.2,0c0.1-1.4,1-1.8,2-1.8c0.4,0,0.9-0.1,1.3-0.3c0.7-0.2,1.3-0.3,2-0.3c0.7,0,1.4-0.2,2.2-0.4c1-0.2,2-0.5,3.1-0.3
	c0.3,0,0.7-0.1,1-0.1c0.1,0,0.3-0.1,0.4-0.1c0.8,0.1,1.1,0,1.9-0.7c-0.9-0.1-1.3-1-2.3-0.9c-0.3,0.1-0.7-0.3-1.1-0.6
	c-0.1-0.1-0.1-0.4,0-0.5c0.3-0.5,0.8-0.7,1.4-0.7c0.5,0,1.1,0.2,1.6,0.3c0.1-0.3,0.3-0.7,0.5-1.1c-0.2-0.2-0.4-0.4-0.7-0.8
	c-0.2,0.3-0.4,0.5-0.5,0.8c-0.5-0.2-0.9-0.1-1.4,0.2c-0.3,0.2-0.8,0.2-1.2,0.3c-0.6,0.1-1.1,0.2-1.7,0.2c-0.3,0-0.6-0.1-0.9-0.1l0,0
	c0-0.8-0.5-1.4-1-1.9c-0.3-0.3-0.9-0.4-1.4-0.6c-0.2,0.2-0.3,0.3-0.4,0.5c-0.2,0-0.4-0.1-0.6-0.1c-0.1,0-0.1,0.2-0.2,0.4l0,0
	c-0.2,0-0.4,0.1-0.5,0c-0.3-0.1-0.2-0.3,0-0.4c0,0,0,0,0,0c-0.9-0.8-1.8-0.6-2.3,0.6c-0.1-0.3-0.1-0.5-0.2-0.9
	c-0.5,0.2-1,0.4-1.5,0.7c-0.2-0.2-0.4-0.5-0.6-0.7c-0.4-0.2-0.5,0.2-0.7,0.6c-0.6-0.3-1-0.4-1.7-0.2c-0.6,0.2-1.3,0-2,0
	c-0.1-0.1-0.1-0.2-0.2-0.3c-0.1-0.4-0.3-0.4-0.6-0.2c-1,0.4-2,0.3-2.9-0.2c-0.4-0.2-0.6-0.8-0.9-1.3C4.6,12.6,5,12,5.3,12.1
	c0.6,0.2,1-0.2,1.4-0.5c0.3-0.2,0.5-0.3,0.9-0.2c0.3,0,0.8,0,1-0.2c0.7-0.7,1.7-0.7,2.6-0.9c0.8-0.1,1.5-0.2,2.3-0.6
	c0.5-0.3,1.1-0.2,1.7-0.3c0.1,0,0.3,0,0.4-0.1c0.6-0.5,1.2-0.2,1.8-0.2c0.1,0.1,0.1,0.1,0.2,0.2c0,0,0,0,0,0
	c-0.1-0.1-0.1-0.1-0.2-0.2c0.5-0.1,0.9-0.2,1.4-0.3c0.1,0,0.4,0,0.4,0c0.5-0.7,1.2-0.4,1.8-0.3c0.1,0,0.2,0,0.3,0
	c0-0.6,0.4-0.6,0.8-0.7c0.4-0.1,0.8-0.2,1.2-0.2c0.1,0,0.1,0.1,0,0c0.1,0,0,0,0,0C23.2,7.1,23,7,22.5,7.3c-0.3,0.1-0.6,0.4-1.1,0.2
	c0.1-0.2,0.1-0.3,0.2-0.4c0.2-0.4,0.1-0.6-0.4-0.5c-0.6,0.1-1.1-0.1-1.6-0.6c-0.3-0.3-0.4-0.3-0.7,0.2l0,0c-0.2,0-0.3,0-0.5,0
	c-0.8,0.1-1.1-0.2-1.3-1c-0.5-0.2-1-0.3-1.4-0.4c0.2-1,0.3-1,1.1-0.8c1.2,0.3,2.3,0.6,3.5,0.9c0.4,0.1,0.8,0.1,1.2,0.1
	c0.1-0.2,0.1-0.2,0.1-0.2C22,3.7,22.3,3.5,23.4,4C24,4.2,24,4.2,24.7,4c0-0.5,0-1.1,0-1.6c0-0.2,0-0.3,0-0.5c0-0.3,0-0.6,0.3-0.7
	C25.3,1,25.6,1,25.8,1.3c0,0,0,0,0,0c0.2,0.2,0.4,0.3,0.6,0.5c0.3-0.1,0.5-0.2,0.8-0.3c0.1-0.5,0.3-1,0.4-1.5c0.2,0,0.4,0.1,0.6,0.1
	c1.1,0.1,2.1,0.1,3.2,0.2c0.4,0,0.8,0,1.2,0.4c0.3,0.2,0.6,0.3,0.9,0.2c0.2-0.1,0.5,0,0.7,0c0.4,0.1,0.9,0.2,1.3,0.2
	C36.4,1,37.3,1,38,1.5c0.2,0.1,0.6,0.2,0.8,0.1c0.4-0.2,0.8,0,1.2,0.1l0,0c0.7,0.4,1.5,0.6,2.4,0.5c0.2,0,0.3,0,0.5,0
	c1.4,0.3,2.8,0.3,4.1,0.2c0.2,0,0.4,0,0.5,0.1c0.4,0.3,0.8,0.5,1.3,0.2c0.1-0.1,0.3,0.1,0.5,0.1C49.9,3,50.6,3.1,51.3,3
	c1.3-0.2,2.5-0.1,3.8-0.1c1.3,0,2.6,0.2,4-0.1c0.4-0.1,0.8,0.1,1.3,0.1c0.3,0,0.5,0,0.8,0c0.7-0.1,1.5-0.4,2.2,0.1
	c0.4,0.3,0.9,0.2,1.4-0.1c0.4-0.3,0.8-0.4,1.3-0.2C66.5,3,67.1,3,67.5,2.4c0.6,0.6,1.1-0.1,1.7,0c0.9,0.1,1.8-0.3,2.7,0
	c0.2,0.1,0.4,0,0.7,0c0.4,0,0.9-0.1,1.3-0.2c0.4-0.1,0.9-0.2,1.3,0.2c0.2,0.1,0.6,0.1,0.8-0.1C76.5,2,77,2.1,77.6,2.5
	c0.2,0.2,0.4,0,0.5-0.1c0,0,0,0,0,0c0.2-0.1,0.4-0.2,0.6-0.2c0.9,0,1.7,0,2.6,0c0,0,0,0,0,0c0.1,0.3,0.3,0.3,0.6,0.2
	c0.4-0.2,0.8-0.4,1.3-0.6c0.8,0.5,1.6,0.5,2.5,0.3c0.2-0.1,0.5,0,0.7,0c0.7,0.1,1.3,0,2,0.2c0.7,0.2,1.5-0.2,2.2-0.3l0,0
	c0.6,0.4,1.2,0.4,1.9,0.4c0.6,0,1.1-0.3,1.7-0.1c0.2,0.1,0.4,0,0.7-0.1C95.4,2,95.9,2,96.3,2.7c0.7-0.2,1.3-0.4,2-0.1
	c0.2,0.1,0.4-0.1,0.6-0.1c0.4-0.1,0.8-0.2,1.1,0.3c0.2,0.3,0.5,0.2,0.8,0.2c0.6-0.2,1.2-0.3,1.8-0.5c0.2,0,0.4,0.1,0.6,0.2
	c0.2,0.1,0.5,0.2,0.6,0.1c0.7-0.4,1.4-0.2,2-0.2c0.3,0,0.6-0.1,1,0c-0.1,0.1-0.3,0.2-0.4,0.3c0,0,0,0.1,0,0.1c0.1,0,0.3,0,0.4-0.1
	c0.6-0.7,1.4-0.4,2.1-0.2c0.1,0,0.3,0.2,0.4,0.2c0.9,0,1.7,0,2.6,0c0.3,0,0.6,0,1,0.2c0.5,0.3,1,0.4,1.6,0.1
	c0.5-0.2,1.2-0.2,1.8-0.1c0.6,0.1,1.1,0,1.6,0c0.4,0,0.8,0,1.2,0.2c0.3,0.1,0.6,0.2,1,0.1c0.6-0.1,1.2-0.1,1.9-0.1
	c0.2,0,0.5,0,0.6,0.2c0.4,0.4,0.8,0.2,1,0c0.7,0.2,1.3,0.3,1.9,0.4c0.9-0.6,1-0.6,2,0.1c0.5-0.3,1-0.2,1.5,0.1
	c0.2,0.1,0.5,0.2,0.7,0.1c0.8-0.3,1.5-0.1,2.2,0.1c0.5,0.2,0.9,0.1,1.3-0.2c0.1-0.1,0.3-0.1,0.4-0.2c0.1,0.2,0.2,0.3,0.3,0.4
	c0.6-0.2,1.1-0.4,1.8-0.1c0.3,0.1,0.8,0,1.3-0.1c0.2,0.2,0.4,0.4,0.6,0.7c0.1-0.3,0.2-0.5,0.3-0.6c1.1-0.1,2,0.1,3,0.4
	c0.3,0.1,0.7,0.1,1,0.1c0.1,0,0.2-0.1,0.2,0c0.6,0.4,1.1,0.2,1.7,0c0.7-0.2,1.3,0.2,1.9,0.2c0.2,0,0.3,0,0.5,0
	c0.6-0.2,1.2,0,1.8,0.1c0.4,0.1,0.7,0.2,1.1,0.2c0.5,0,0.9,0,1.3,0.3c0.2,0.1,0.5,0.1,0.7,0c0.6-0.2,1-0.2,1.5,0.2
	c0.3,0.2,0.7,0.3,1,0.3c0.7,0,1.4-0.1,2.1-0.1c0,0,0,0,0,0c0.2,0,0.4-0.2,0.6-0.1c0.5,0.3,0.9,0.1,1.4-0.1c0.9-0.3,1.9-0.4,2.7-0.7
	c0.9-0.3,1.8-0.4,2.8-0.5c1.4-0.2,2.8-0.1,4.2,0c0.5,0,1,0.1,1.5,0.1c0.2,0,0.4-0.1,0.5-0.2c0.6-0.3,1.2-0.6,1.8-0.8
	c0.5-0.2,0.7,0,0.6,0.6c0,0.4-0.2,0.7-0.3,1.1c-0.2,0-0.3,0.1-0.5,0.1c0,0,0,0.1,0.1,0.1c0.1-0.1,0.3-0.1,0.4-0.2
	c0.3,0.6-0.1,1-0.5,1.5c0.2,0.1,0.4,0.2,0.7,0.2l0,0c0.4,0.1,0.7,0.2,1.1,0.2c0.4,0,0.7,0.1,0.9,0.6c0.1-0.2,0.2-0.3,0.3-0.5
	c0.5,0.1,1,0.1,1.5,0.2c0.5,0.1,0.9-0.3,1.4,0c0.5,0.2,1,0.2,1.5,0.3c0.4-0.3,0.9-0.3,1.5-0.2c0.7,0.2,1.4,0.3,2.1,0.3
	c0.7,0.1,1.5,0,2.2,0.2c0.9,0.3,1.9,0.3,2.9,0.4c0.3,0,0.7,0,1.1,0c0,0.1,0,0.2,0.1,0.4c0.2-0.1,0.3-0.1,0.4-0.2
	c0,0.1,0.1,0.2,0.1,0.3c0,0,0.1-0.1,0.1-0.1c-0.1-0.1-0.2-0.1-0.2-0.2c0.1-0.1,0.2-0.2,0.3-0.2c0.7,0,1.3-0.1,2,0.1
	c0.3,0.1,0.7,0.1,1.1,0.1c0.9-0.1,1.7,0.1,2.5,0.2c1.1,0.2,2.3,0.2,3.3,0.5c1,0.2,1.9,0,2.9,0.1c0.1,0,0.2-0.1,0.4-0.2l0,0
	c0.6,0.1,1.1,0.2,1.6-0.1c0.4-0.2,0.9,0,1.3,0c0-0.3,0-0.6,0-0.8c0.9-0.3,1.6-0.3,2.4,0.1c0.1-0.1,0.2-0.2,0.3-0.3
	c0.3-0.4,0.6-0.5,1.1-0.4c0.5,0.1,1.1,0.1,1.7,0.2c0.5,0.7,0.7,0.8,1.5,0.2c0.2-0.1,0.4-0.3,0.5-0.2c0.9,0.1,1.7-0.1,2.6-0.3
	c0.5-0.1,1,0,1.5,0c0.6,0,1.3,0,1.9,0.1c0.4,0,0.7,0.3,1.1,0.5c0.1-0.1,0.3-0.4,0.5-0.4c0.2,0,0.5,0.1,0.7,0.2
	c0.2,0.1,0.4,0.2,0.7,0.3c0-0.3,0.1-0.5,0.1-0.8c0.3,0.3,0.6,0.5,0.8,0.8c0,0,0,0,0,0c0.2-0.1,0.3-0.3,0.6-0.4
	c0.3-0.1,0.6-0.2,0.8-0.1c0.3,0.1,0.5,0.2,0.8,0.1c0.1,0,0.2,0.2,0.4,0.3c0.1,0.1,0.2,0.2,0.4,0.4c0.1-0.3,0.2-0.5,0.3-0.9
	c0.1,0.3,0.2,0.5,0.3,0.7c0.1-0.1,0.3-0.1,0.4-0.2c0.2-0.1,0.3-0.2,0.5-0.2c0.8,0.3,1.7-0.1,2.4,0.3c0.5,0.3,0.6,0.3,1.3-0.1
	c0.1,0.1,0.1,0.3,0.2,0.4c0.1,0.1,0.3,0.2,0.4,0.3c0.1-0.2,0.2-0.4,0.3-0.5c0.3-0.1,0.7-0.1,1,0c0.4,0.2,0.7,0.2,1.1,0.1
	c0.5,0,0.9,0,1.4,0c0.1,0,0.3,0,0.4-0.1c0.2-0.1,0.4-0.1,0.6-0.2c1.3-0.5,2.5-0.5,3.6,0.3c0.4,0.3,0.7,0.5,0.7,1
	c0,0.5,0.3,0.9,0.8,1c0.9,0.2,1.5,0.9,2.2,1.4c0.6-0.2,1.2-0.1,1.7,0.5c0.1,0.1,0.3,0.2,0.5,0.2c0.2,0.1,0.5,0.1,0.5,0.2
	c0.3,0.6,1,0.7,1.5,1c0.7,0.4,1.4,0.8,1.9,1.3c0,0,0,0,0.1,0c0.7,0,0.7,0.6,0.8,1.1c0.5-0.1,1,0,1.3,0.5c0.1,0.1,0.3,0.2,0.4,0.2
	c0.2,0,0.4,0.1,0.5,0.3c0.1,0.1,0.2,0.2,0.4,0.3c0.3,0.2,0.5,0.4,0.8,0.6c0.2,0.1,0.3,0.2,0.5,0.3c0.3,0.2,0.5,0.3,0.8,0.5
	c0.5,0.3,1,0.8,1.5,1.2c0.5,0.5,1.1,1,1.3,1.7c0.1,0.4-0.1,0.6-0.5,0.6c-0.9,0-1.8,0-2.7-0.2c-0.6-0.1-1.2-0.3-1.7-0.5
	c-0.6-0.3-1.1-0.6-1.8-0.4c-0.1,0-0.2,0-0.3,0c-0.8-0.4-1.6,0-2.4-0.2c-0.1,0-0.1,0.1-0.3,0.2c0.4,0.4,0.7,0.7,1,1.1
	c0.1,0.1,0.3,0.2,0.3,0.3c0.1,0.1,0.1,0.3,0.1,0.5c-0.1,0.1-0.3,0.2-0.4,0.2c-0.3-0.1-0.6-0.2-0.9,0.1c-0.1,0.1-0.4,0-0.6-0.1
	c-0.3-0.1-0.5-0.3-0.7-0.5c-0.5-0.3-1-0.3-1.5-0.3c-0.5,0-0.7-0.8-1.4-0.5c-0.1,0.2-0.2,0.5-0.4,0.8c-0.2,0.5,0,0.9,0.5,1
	c0.4,0.1,0.7,0.1,1.1,0.2c0.1,0,0.2,0.1,0.3,0.2c-0.1,0.2-0.1,0.4-0.2,0.7c0.3-0.2,0.5-0.3,0.6-0.4c0.5-0.4,1-0.6,1.6-0.6
	c0.3,0,0.6,0,0.9,0c0.4,0,0.8,0,1,0.5c0.1,0.2,0.5,0.3,0.8,0.5c-0.1,1-0.3,1.3-1.2,1.2c0.2-0.2,0.3-0.5,0.5-0.7
	c-0.1-0.2-0.3-0.4-0.4-0.6c-0.7,0.1-0.1,0.9-0.7,1.1c-0.2-0.2-0.5-0.4-0.7-0.6c0,0-0.1,0.1-0.1,0.1c0.1,0.2,0.2,0.4,0.3,0.7
	c-0.1,0-0.2,0.1-0.3,0.1c-0.9,0-1.8-0.1-2.7-0.1c-0.2-0.4-0.3-0.7-0.5-1.2c-0.4,0.5,0.2,0.7,0.1,1.1c-0.4,0.1-0.9,0.1-1.3,0.2
	c0.1,0.6,0.2,1.1,0.3,1.5c-0.4,0.2-0.9,0.3-1.1,0.6c-0.1,0.3,0.1,0.7,0.2,1.1c-0.9,0.6-1,0.6-1.7-0.2c0,0,0,0,0.1,0c0,0,0,0-0.1,0.1
	c-0.4,0-0.9,0.1-1.3,0.1c-0.7,0-0.8,0-1,0.7c0,0.1-0.1,0.1-0.2,0.3c-0.4,0-0.9,0.3-1.3-0.2c0.1,0,0.1-0.1,0.2-0.1
	c0,0-0.1-0.1-0.1-0.1c0,0.1-0.1,0.1-0.1,0.2c-0.8,0.6-1,0.6-1.7,0c0.1-0.1,0.2-0.1,0.3-0.2c0,0-0.1-0.1-0.1-0.1
	c-0.1,0.1-0.1,0.2-0.2,0.3c-0.2,0-0.4,0.1-0.6,0.1c0.1,0.6,0.2,1.1,0.3,1.7c0.1,0.8-0.4,1.2-1.1,1c-0.2-0.1-0.4-0.1-0.5-0.2
	c-0.7-0.5-1.3-1.1-2-1.6c-0.2-0.2-0.5-0.4-0.7-0.4c-0.8-0.1-1.5-0.1-2.2,0.3c-1,0.5-2,0.8-3.2,0.8c-0.5,0-1.1,0.2-1.6,0.3
	c-0.2,0-0.4,0.1-0.7,0.1c-0.2,0-0.5-0.1-0.7-0.1c-1.1,0-2.2,0.1-3.3,0.2c-0.5,0.1-1,0.3-1.6,0.4c-0.2,0-0.4,0.1-0.6,0
	c0.2-0.2,0.4-0.4,0.7-0.7c-0.5-0.1-0.8-0.2-1.2-0.4c-1.2-0.5-2.4-0.8-3.7-1c-0.3,0-0.6-0.1-0.9-0.2c-0.2,0-0.5,0-0.7,0
	c-0.3,0-0.6,0-0.9,0c-0.3,0-0.6-0.2-0.9,0.1c0,0-0.2,0.1-0.2,0.1c-1.2-0.2-2.1,0.2-3,0.9c-0.7,0.4-1.4,0.8-2.3,0.5
	c-0.2,0-0.4,0-0.5,0.1c-0.9,0.5-1.8,0.7-2.7,0.8c-0.7,0.1-1.3,0.5-2,0.7c-1.3,0.4-2.5,1-3.9,1.2c-0.4,0-0.7,0.3-1.1,0.4
	c-1.7,0.4-3.5,0.8-5.2,1c-1.1,0.1-2.1,0.5-3.3,0.3c-0.4-0.1-0.9,0.1-1.4,0.2c-0.2,0-0.4,0.1-0.5,0.1c-1.6-0.4-3.4-0.2-4.9-1.2
	c-0.4-0.3-0.9-0.3-1.2-0.8c-0.1-0.1-0.4-0.2-0.6-0.2c-0.9-0.1-1.8-0.1-2.6-0.1c-0.2,0-0.5,0-0.7,0c-0.8,0-1.5,0-2.3-0.1
	c-0.2,0-0.3-0.1-0.5-0.1c-1.1,0-2.2,0-3.3,0c-0.9,0-1.9-0.2-2.8-0.3c-0.2,0-0.4-0.2-0.7-0.4c0.3-0.2,0.4-0.3,0.6-0.3
	c0.6,0,1.2,0,1.8,0.2c0.9,0.3,1.9,0.2,2.8,0.2c1.5,0,2.9-0.1,4.4,0.2c0.7,0.1,1.5-0.1,2.2-0.1c1.2,0.1,2-0.4,2.9-1.1
	c0.8-0.7,1.7-1.3,2.8-1.4c1.3-0.2,2.5-0.9,3.7-1.4c0,0,0.1-0.1,0.1-0.2c-0.7-0.2-1.4-0.3-2.2-0.5c-0.1,0.3-0.4,0.3-0.8,0.3
	c-1.5-0.1-3-0.1-4.5-0.1c-0.5,0-0.9,0.1-1.4,0.1c-0.4,0-0.6-0.1-0.6-0.5c0,0,0,0,0,0c-0.2,0-0.4,0-0.5-0.1c-0.2-0.2-0.4-0.2-0.7-0.1
	l0,0c-0.4,0-0.9,0-1,0.5c-0.6,0.1-1.2,0.1-1.7,0.2c-0.9,0.1-1.7,0.4-2.6,0.5c-1.3,0.2-2.5,0.6-3.8,0.3c-0.7-0.2-1.4-0.1-2.1-0.1
	c-0.3,0-0.6,0-0.7-0.1c-0.6-0.4-1.2-0.3-1.8-0.3c-0.8,0-1.6,0-2.4,0c-0.1,0-0.1,0-0.2,0c-0.8,0.3-1.6,0.1-2.4,0.1
	c-0.9,0-1.8,0.2-2.7,0.2c-0.3,0-0.5-0.2-0.9-0.4c-0.3,0-0.2,0.7-0.7,0.6c-0.3-0.1-0.6-0.2-1-0.4c-0.6,0.6-1.4,0.6-2.2,0.6
	c-0.2,0-0.3,0-0.5,0c-1,0.1-1.9,0.1-2.9,0.2c-0.1,0-0.1,0-0.2,0c-0.8-0.5-1.5,0-2.3,0.1c-0.3,0.1-0.6,0.1-0.9,0.1
	c-0.4,0-0.7-0.2-0.7-0.7l0,0c0.1-0.3,0.3-0.6,0.4-0.9c0.2-0.8,0.9-1.1,1.6-1c0.5,0.1,0.9,0,1.4-0.1c0.3-0.1,0.7,0,1,0
	c0.1,0,0.2,0,0.3,0c0.6-0.1,1.3-0.3,1.9-0.5c-0.5,0-1.1-0.1-1.6-0.1c-0.8-0.1-1.6-0.2-2.4-0.3c-0.2,0-0.5-0.1-0.7,0
	c-0.6,0.2-1.2,0.1-1.8,0.1c-0.8-0.1-1.6-0.1-2.5-0.1c-1.2,0-2.3,0-3.5,0c-0.4,0-0.9,0.1-1.3,0.1c-0.4,0-0.9,0.1-1.1-0.5
	c-0.1-0.1-0.3-0.2-0.5-0.3c-0.2,0.2-0.4,0.4-0.7,0.6c-0.1-0.2-0.3-0.4-0.4-0.6c-0.6,0.4-1.9,0.5-2.8,0.2l0,0
	c-0.2-0.1-0.4-0.3-0.6-0.3c-0.5-0.1-1.1-0.1-1.8-0.1c0,0.1-0.1,0.3-0.2,0.5c-0.1,0-0.2,0-0.3,0c-0.1,0-0.3-0.1-0.4-0.2
	c-0.7-0.5-1.3-0.5-1.7,0.2c-0.8-0.1-1.5-0.2-2.5,0.2c0.6,0.3,1,0.6,1.4,0.8c1.6,0.7,3.3,1.2,5,1.6c2,0.5,4,0.9,6.1,1.3
	c1.1,0.2,2.1,0.3,3.2,0.4c1,0.2,2,0.1,3,0.5c0.3,0.2,0.8,0,1.2,0c1.1,0.1,2.1,0.3,3.2,0.4c1.2,0.1,2.4,0.1,3.6,0.2
	c1.1,0.1,2.3,0.2,3.5,0.3c-0.1,0.5-0.3,0.7-0.8,0.6c-0.4-0.1-0.7-0.1-1.1-0.1c-0.9-0.1-1.9-0.2-2.8-0.2c-0.7-0.1-1.3-0.1-2-0.2
	c-0.2,0-0.3,0-0.5,0c-1.2-0.2-2.3-0.4-3.5-0.5c-0.7-0.1-1.4,0-2.1,0c-0.2,0-0.3,0-0.5-0.1c-1-0.4-2-0.5-3.1-0.4
	c-0.2,0-0.4-0.1-0.6-0.2c-0.2-0.1-0.5-0.2-0.7-0.3c-0.8-0.1-1.6-0.1-2.4-0.2c-0.5-0.1-1.1-0.1-1.6-0.3c-1-0.3-2-0.6-3-0.9
	c-0.6-0.2-1.1-0.5-1.7-0.6c-0.6-0.1-1.1-0.4-1.7-0.2c-0.1,0.1-0.3,0-0.5-0.1c-1.1-0.4-2.2-0.8-3.2-1.3c-0.2-0.1-0.5-0.3-0.6-0.5
	c-0.3-0.7-0.7-0.7-1.4-0.5c0,0.4-0.1,0.8-0.1,1.2c-0.1,1.7-0.6,3.2-1.3,4.7c-0.3,0.7-0.6,1.3-1,2c-0.7,1.3-1.8,2.3-3.3,2.9
	c-1,0.4-2,0.7-3,0.8c-0.6,0-1.2-0.1-1.8-0.1c-0.4-0.1-0.8-0.2-1.2-0.3c-1.5-0.4-3-1-4.2-2c-0.1-0.1-0.1-0.1-0.2-0.2
	c-1.9-1-3.3-2.6-4.7-4.1c-1-1-2-2-3-3c-0.5-0.6-1-1.2-1.6-1.8c-0.3-0.4-0.7-0.7-1.2-0.4c0,0-0.1,0-0.1,0c-0.7-0.4-1.3,0.1-1.9,0.1
	c-0.5,0-1,0.1-1.5-0.1c-0.5-0.1-1.1,0.1-1.6,0.1c-0.6,0-1.2,0.1-1.8,0c-0.6,0-1.2-0.1-1.9,0.3c1.3,1.2,3,1.7,4.2,3
	c-0.1,0.4-0.3,0.4-0.6,0.3c-0.6-0.2-1.2-0.3-1.8-0.5c-0.6-0.2-1.2-0.4-1.8-0.7c-0.2-0.1-0.4-0.1-0.5-0.3c-0.4-0.5-1.1-0.7-1.6-1.1
	c-0.6-0.5-1.3-0.6-2.1-0.6c-1.2,0-2.4,0-3.6,0c-0.2,0-0.5,0-0.7,0.1c-0.6,0.2-1.2,0.4-1.7,0.7c-0.2,0.1-0.4,0.2-0.7,0.3
	c-0.3,0.1-0.6,0.1-0.9,0.2c-0.3,0.1-0.6,0.3-0.9,0.3c-0.3,0-0.5-0.3-0.8-0.4l0,0c0.4-0.1,0.8-0.3,1.3-0.5c-0.3-0.1-0.4-0.2-0.5-0.2
	c-0.3,0-0.6,0.1-0.8,0.1c-0.7-0.1-1.4-0.2-2,0.3c-0.1,0.1-0.3,0-0.4-0.1c-0.2-0.4-0.9-0.3-1-0.9c0-0.1-0.4-0.2-0.6-0.2
	c-1.1,0-2.2,0.1-3.3,0.2c-0.6,0-1.1,0.1-1.7,0.2c-0.1,0-0.1,0-0.2,0c-0.5-0.4-1-0.3-1.6-0.1c-0.6,0.2-0.9,0-1.2-0.6
	c-0.2-0.4-0.4-0.5-0.8-0.6c-0.7-0.1-1.5-0.1-2.1-0.5c-0.5-0.2-1,0-1.4,0.3c-1,0.8-1.9,1.7-2.9,2.5c-0.3,0.3-0.6,0.5-1,0.7
	c-1,0.5-1.9,1-2.9,1.5c-0.2,0.1-0.6,0-1,0c0.2-0.4,0.2-0.6,0.4-0.8c0.4-0.5,0.8-1,1.2-1.4c0.4-0.4,0.9-0.7,1.3-1.1
	c0.3-0.2,0.6-0.5,0.6-0.9c0-0.2,0.3-0.4,0.4-0.6c-0.5-0.3-0.5-0.3-1.1,0.5c-0.2-0.2-0.4-0.4-0.7-0.6c-0.4,0.8-0.3,0.8-1.1,0.2
	c-0.3,0.4-0.5,0.5-1,0.2c-0.2-0.1-0.5,0.1-0.7,0.1c-0.3,0-0.7,0-0.7-0.5l0,0c0.3,0.2,0.5,0.2,0.7-0.2c0,0,0,0,0,0
	c-0.2,0-0.5,0-0.7,0c0,0,0,0,0,0c-0.1,0-0.1,0-0.2,0l0,0c-0.2,0.1-0.3,0.1-0.5,0.2c0,0,0,0,0,0c-0.1,0.3-0.2,0.6-0.6,0.6
	c-0.4,0.1-0.7,0.7-1.4,0.4c-0.1-0.1-0.3-0.3-0.4-0.5c0,0,0,0,0,0c-0.5,0.5-0.5,0.5-1,0.2c-0.2-0.1-0.5-0.2-0.7-0.2c0,0,0,0,0,0
	c-0.3,0.7-0.3,0.7-1,0.3c0,0.2,0,0.3-0.1,0.5c-0.5,0.1-0.7-0.4-1-0.7c-0.1,0.1-0.3,0.2-0.4,0.3c-0.1,0.4-0.4,0.4-0.7,0.3
	c-0.7-0.3-1.4-0.2-2.2-0.1c-0.2,0-0.4,0-0.6,0c0,0,0,0,0,0c0.1,0.2,0.1,0.4,0.2,0.7c-0.4-0.1-0.6-0.2-0.9-0.3
	c-0.5-0.2-0.9-0.8-1.5-0.4c-0.4-0.3-0.8-0.1-1.3-0.1c-0.7,0.1-1.2,0.4-1.7,1c-0.2-0.1-0.5-0.2-0.7-0.4c-0.3-0.4-0.7-0.4-1.1-0.2
	c-0.8,0.4-1.6,0.7-2.5,1.1c-0.1,0.1-0.3,0-0.4,0.1c-0.3,0-0.6,0.1-0.9,0.1c-0.3-0.5-0.8-0.7-1.5-0.3c0.1,0.2,0.1,0.5,0.3,0.9
	c-0.5-0.4-0.8-0.6-1.2-0.9c-0.5,0.1-1.1,0.3-1.6,0.4l0,0c-0.1,0.1-0.3,0.1-0.4,0.3c-0.3,0.4-0.7,0.5-1.1,0.6l0,0
	c-0.2-0.7-0.2-0.7-0.8-0.3c-0.3,0.2-0.8,0.4-1.2,0.4c-0.4,0-0.8,0.1-1,0.6c-0.8-0.6-1.4-0.5-2.1,0l0,0c-0.2-0.1-0.4-0.1-0.6-0.2
	c-0.6-0.2-1,0-1.4,0.7c-0.1-0.1-0.2-0.2-0.3-0.3c0,0,0,0,0,0c-0.6,0-1.2,0.1-1.8,0.4c-0.3,0.2-0.6,0.1-1,0.1c-0.3,0-0.6,0-1,0
	C3.9,30.7,4,30.9,4,31c-0.5,0.3-0.9,0.6-1.4,0.1c-0.1-0.1-0.4,0-0.5,0.1c-0.7,0.7-1.3,0.4-2.1,0.1c0.2-0.1,0.3-0.2,0.4-0.3
	c0.4-0.3,0.6-0.6,0.4-1.1c-0.1-0.4,0.1-0.5,0.3-0.7c0,0,0.1,0,0.2,0c1.1,0.4,2-0.2,2.9-0.8c0.5-0.3,1-0.1,1.4-0.2
	c0.1,0,0.2,0.1,0.3,0.2l0,0c0,0.1,0.1,0.1,0.1,0.2c0-0.1,0-0.1,0.1-0.2l0,0c0.3-0.1,0.6-0.2,0.9-0.3c0.3,0.3,0.7,0.2,1.1,0.1
	c0.4-0.1,0.8-0.1,1.3-0.1c0.4,0,0.7,0,0.5-0.6c0.9,0.3,1.8,0.5,2.8,0.8c-0.2-0.3-0.4-0.5-0.5-0.7c0,0,0,0,0,0
	c-0.1-0.1-0.2-0.2-0.3-0.3c0.5-0.3,1.3-0.1,1.3-1c-0.2-0.1-0.4-0.1-0.7-0.2c0-0.1,0-0.1,0-0.2c0.2-0.1,0.3-0.2,0.5-0.3
	c1.1-0.3,2.2-0.5,3.3-0.8c0.1,0,0.1,0,0.2,0c1,0.3,1.9-0.2,2.9-0.3c0.5,0,1,0.1,1.6-0.1c0.8-0.2,1.7-0.3,2.6-0.5
	c0.4-0.1,0.8-0.1,1.2-0.1c0.4,0,0.8-0.2,1.2,0.1c0.1,0.1,0.4,0,0.6-0.1C27,23.8,27.5,23.6,28,23.5C28,23.5,28,23.5,28,23.5z
	 M149,21.3c-0.1-0.1-0.1-0.1-0.2-0.2c0,0,0,0,0,0C148.9,21.2,148.9,21.2,149,21.3C149,21.3,149,21.3,149,21.3z M194,33.6L194,33.6
	C194,33.6,194,33.6,194,33.6z M170.3,5.1L170.3,5.1C170.3,5.1,170.3,5.1,170.3,5.1z M225.2,10.5C225.2,10.5,225.2,10.5,225.2,10.5
	L225.2,10.5z M249.3,15.8L249.3,15.8C249.3,15.8,249.3,15.8,249.3,15.8z M31.3,19.4C31.3,19.4,31.3,19.4,31.3,19.4L31.3,19.4z
	 M226.9,10.5L226.9,10.5C226.9,10.5,226.9,10.6,226.9,10.5C226.9,10.6,226.9,10.5,226.9,10.5z M121.4,4.4
	C121.4,4.4,121.3,4.4,121.4,4.4C121.3,4.4,121.3,4.4,121.4,4.4c0.1,0,0.1-0.1,0.2-0.1C121.5,4.3,121.4,4.3,121.4,4.4z M219.6,8.6
	c0,0.1,0,0.2-0.1,0.3c0,0,0.1,0,0.1,0C219.7,8.8,219.6,8.7,219.6,8.6c0-0.1,0.1-0.1,0.1-0.2C219.7,8.5,219.7,8.6,219.6,8.6z
	 M87.4,18.4c-0.1-0.1-0.2-0.1-0.3-0.2c0,0,0,0.1-0.1,0.1C87.2,18.3,87.3,18.3,87.4,18.4C87.4,18.4,87.4,18.4,87.4,18.4z M252.2,19.7
	c-0.1,0-0.2,0.1-0.3,0.1c0,0,0.1,0.1,0.1,0.1C252.1,19.9,252.1,19.8,252.2,19.7c0.1-0.4,0.2-0.7,0.3-1c0.1-0.1,0.3-0.2,0.5-0.4
	c-0.5,0-0.5,0-0.5,0.4C252.1,18.9,252.3,19.4,252.2,19.7z M44.1,24.7c0.3,0.2,0.5,0.2,0.6-0.3C44.5,24.5,44.3,24.6,44.1,24.7
	C44.1,24.7,44,24.7,44.1,24.7C44,24.7,44.1,24.7,44.1,24.7z M84,16c-0.2,0.2-0.4,0.3-0.5,0.5c0,0,0.1,0.1,0.1,0.1
	c0.3-0.1,0.5-0.3,0.9-0.5C84.2,16,84.1,16,84,16c0-0.1,0-0.2,0-0.2c0-0.1-0.2-0.1-0.2-0.2c0,0-0.1,0.1-0.1,0.1c0,0.1,0,0.2,0.1,0.2
	C83.8,15.9,83.9,16,84,16z M167.9,6.1C167.9,6.1,167.9,6.1,167.9,6.1c0.1,0.2,0.3,0.4,0.4,0.6c0.4-0.4,0.3-0.7,0.1-0.8
	C168.3,5.9,168.1,6,167.9,6.1z M34.9,22.8C34.8,22.8,34.7,22.9,34.9,22.8C34.8,22.9,34.8,22.8,34.9,22.8c0.2-0.1,0.5-0.2,0.7-0.3
	c0-0.1,0-0.1,0-0.2c-0.2-0.1-0.4-0.1-0.7-0.2C34.9,22.4,34.9,22.6,34.9,22.8z M212.1,8.8c-0.1-0.1-0.2-0.2-0.5-0.3
	c0.1,0.4,0.1,0.6,0.2,0.8c0,0,0.3,0,0.4,0C212.1,9.2,212.1,9,212.1,8.8L212.1,8.8z M166.2,5.1c0.3,0.2,0.6,0.4,0.7-0.2
	C166.7,4.9,166.5,5,166.2,5.1c-0.4,0-0.9-0.1-1.3-0.1c-0.1,0-0.2,0.1-0.4,0.2C165.1,5.2,165.7,5.6,166.2,5.1z M214.8,10.9
	c-0.3-0.6-0.3-0.6-0.9-0.1C214.3,11.3,214.3,11.3,214.8,10.9L214.8,10.9z M46.5,21.6c-0.2,0-0.3,0.1-0.5,0.1c0,0,0.1,0.1,0.1,0.1
	C46.2,21.8,46.3,21.7,46.5,21.6c0.3,0.1,0.5,0.1,0.8,0.2c0.4,0.1,0.6,0,0.7-0.4c0.2,0,0.5,0.2,0.7-0.1c-0.3-0.2-0.5-0.2-0.7,0.2
	c-0.2,0-0.5-0.1-0.7-0.1C46.9,21.3,46.7,21.3,46.5,21.6z M231,11c-0.5,0-0.9-0.1-1.4-0.1c-0.1,0-0.2,0.1-0.3,0.2
	c0,0.1,0,0.1,0.1,0.2c0.6,0,1.2-0.1,1.9-0.1c0-0.1,0.1-0.2,0.1-0.3C231.2,11,231.1,11,231,11z M217.4,8.1c0.3,0.5,0.7,0.8,1.4,1
	c-0.1-0.3-0.2-0.6-0.3-0.8C218.1,8.2,217.8,8.2,217.4,8.1c-0.1,0-0.2,0-0.2,0C217.3,8.1,217.3,8.1,217.4,8.1z M94.4,16.3
	c-0.3-0.3-0.7-0.4-1.1-0.4c0,0.1-0.1,0.2-0.1,0.2C93.4,16.8,93.7,16.9,94.4,16.3c0.1,0.1,0.1,0.1,0.2,0.2c0.2,0.3,0.5,0.4,0.8,0.1
	c0.1-0.1,0.2-0.1,0.4-0.1c0,0,0,0,0,0c0.2,0.1,0.5,0.2,0.7,0.3l0,0c-0.1-0.8-0.7-1.1-1.4-0.8c-0.2,0.1-0.3,0.3-0.5,0.4
	C94.5,16.4,94.5,16.4,94.4,16.3z M129.9,7.8c-0.9-0.7-1.3-0.7-1.8-0.1c0.4,0.1,0.7,0.2,1,0.2C129.3,7.9,129.6,7.8,129.9,7.8
	c0.1,0.1,0.1,0.1,0.2,0.2c0,0,0.1-0.1,0.1-0.1C130.1,7.9,130,7.8,129.9,7.8z M98.5,18.7c0.2-0.6-0.4-0.4-0.5-0.5
	c-0.2-0.5-0.3-0.9-0.5-1.3c-0.4,0.4-0.4,0.4-0.3,0.8c0.1,0.2,0.2,0.5-0.1,0.6c-0.2,0.1-0.5,0-0.7-0.1c-0.1,0-0.2-0.2-0.4-0.3
	c-0.1,0.6,0.2,0.7,0.5,0.7C97.2,18.7,97.9,18.9,98.5,18.7L98.5,18.7z M78.9,20.9L78.9,20.9c0.3-0.2,0.8-0.2,0.8-0.7
	c-0.5-0.2-1-0.4-1.5-0.6c-0.4,0.2-0.5,0.4-0.4,0.8C78,20.9,78.3,21.1,78.9,20.9z M237.2,21.6c-0.2,0.3-0.4,0.4-0.6,0.1
	c-0.1-0.1-0.1-0.3-0.3-0.4c-0.1-0.1-0.2-0.1-0.3-0.1c-0.1,0-0.1,0.2-0.1,0.3c0,0.1,0.1,0.2,0.2,0.3c0.5,0.4,1,0.9,1.6,1.2
	c0.3,0.2,0.6,0.4,1,0.2c-0.1-0.8-0.4-1.1-1-1.3C237.5,21.9,237.4,21.7,237.2,21.6C237.2,21.6,237.1,21.6,237.2,21.6
	C237.1,21.6,237.2,21.6,237.2,21.6z M237.5,17c0,0-0.1,0-0.1,0.1c0,0,0,0,0.1,0.1C237.5,17.1,237.5,17,237.5,17
	c0.3,0.2,0.7,0.4,1,0.5c0.5,0.2,0.9,0.5,1.4,0.6c0.6,0,1.2-0.1,1.9-0.3c-0.4-0.2-0.7-0.2-0.9-0.4C239.9,16.7,238.7,16.9,237.5,17z
	 M245.7,16.2c-0.4-0.4-0.8-0.9-1.3-1.1c-0.4-0.2-0.9-0.3-1.4-0.3c-0.2,0-0.4,0.2-0.5,0.4c0,0.1,0.1,0.4,0.3,0.5
	c0.6,0.3,1.2,0.8,2,0.6C245.1,16.1,245.4,16.1,245.7,16.2c0.3,0.8,0.8,1,1.6,0.9c0-0.3,0-0.6,0-0.7
	C246.8,16.3,246.2,16.2,245.7,16.2z M232.1,21.1c-0.2-0.1-0.4-0.1-0.6-0.2c-0.2,1.1,0.4,1.9,1.4,2c0.5,0.1,1.1,0.1,1.6,0.2
	c0.1,0,0.1-0.1,0.3-0.1c-0.1-0.2-0.1-0.4-0.2-0.4c-0.7-0.5-1.5-1-2.3-1.4C232.2,21,232.1,21.1,232.1,21.1L232.1,21.1z M101.6,11.2
	c0.4-0.1,0.9-0.1,1.3-0.1c0.6,0,1.3,0,1.9,0c0.3,0,0.6,0,0.7-0.4c-0.1-0.1-0.1-0.2-0.2-0.2c-0.8-0.1-1.5-0.2-2.3-0.1
	c-0.9,0.1-1.9,0.1-2.8,0c-0.1,0-0.3-0.1-0.4-0.1c-0.2,0.1-0.4,0.2-0.5,0.3c0.1,0.2,0.2,0.5,0.4,0.5
	C100.3,11.1,100.9,11.4,101.6,11.2L101.6,11.2z M193.7,29.6c-0.5,0-0.9,0-1.4,0l0,0c-0.1-0.1-0.2-0.2-0.3-0.2c-0.4,0-0.8,0-1.2,0
	c-0.5,0-1,0.1-1.4,0.1c-0.3,0.1-0.7,0.2-0.6,0.7c1,0.3,2.1,0.7,3.1,1c0.3,0.1,0.7,0.1,1.1,0.1c1.2,0,2.3,0,3.5,0
	c0.4,0,0.9-0.1,1.3-0.2c0.6-0.1,1.1-0.3,1.7-0.3c0.6,0,1.1-0.2,1.6-0.4c0.3-0.1,0.5-0.3,0.5-0.7c-0.6,0-1.1,0-1.6-0.1
	c-1.5-0.3-3.1-0.1-4.7-0.1c-0.5,0-1,0.1-1.4,0.1C193.8,29.6,193.7,29.6,193.7,29.6z M8.4,12.6c-0.2-0.1-0.3-0.2-0.5-0.3
	c-0.2,0.6,0.1,0.8,0.5,0.8c1,0.2,2,0.3,3.1,0.4c0.1,0,0.3,0,0.4-0.1c1-0.1,2-0.4,3-0.1c0.1,0,0.2,0,0.2,0c0.7,0,1.5-0.1,2.2,0
	c0.8,0.1,1.6,0.2,2.4-0.1c0.3-0.1,0.5-0.1,0.7,0.1c0.1,0.1,0.3,0.2,0.4,0.3l0,0c0.5-0.3,0.9-0.5,1.3-0.8c0.8,0.3,1.5,0.2,2.2,0.1
	c0-0.1-0.1-0.1-0.1-0.2l0,0c0-0.2,0-0.4,0-0.5c-0.4,0-0.9,0.1-1.1-0.1c-0.5-0.3-1-0.4-1.5-0.3c-0.4-0.7-1.1-0.5-1.8-0.6
	c-0.1,0.3-0.1,0.5-0.2,0.7c-0.3,0-0.5-0.2-0.7-0.1c-0.4,0.2-0.8,0.1-1.1-0.1c-0.4-0.2-0.8-0.2-1.2,0.1c-0.8,0.6-1.6,0.4-2.3-0.3
	c0-0.2,0.1-0.4,0.1-0.6c-0.1-0.3-0.3-0.3-0.5,0c0.2,0.2,0.3,0.4,0.5,0.6c-0.2,0.1-0.5,0.4-0.7,0.3c-0.3,0-0.5-0.3-0.9-0.5
	c-0.1,0-0.2,0.1-0.4,0.1c-0.6,0-1.1,0.3-1.6,0.7c-0.2,0.2-0.5,0.3-0.8,0.4C9.5,12.6,8.9,12.6,8.4,12.6C8.4,12.6,8.4,12.6,8.4,12.6z
	 M182.6,33.9L182.6,33.9c1.4-0.7,3-0.3,4.4-0.5c-0.2,0.3-0.4,0.6-0.6,0.7c-0.7,0.1-1.3,0.1-2,0.1c-0.3,0-0.6,0-0.9,0
	c-0.9,0-1.9,0.4-2.8-0.2c-0.2,0.2-0.5,0.4-0.7,0.6c0.2,0.1,0.3,0.2,0.5,0.3c0.7,0.3,1.5,0.4,2.3,0.5c1.2,0.2,2.4,0.2,3.6-0.1
	c1.6-0.3,3.1-0.6,4.7-0.7c0.9-0.1,1.5-0.4,2.3-0.9c-0.5,0-0.9-0.1-1.3,0c-1.2,0.3-2.4,0.2-3.6,0.2c-0.3,0-0.6,0-0.8-0.1
	c-0.1,0-0.2-0.3-0.3-0.5c0.9-0.1,1.7-0.1,2.5-0.2c0.6,0,1.3-0.2,1.9-0.1c1,0.1,1.8-0.4,2.9-0.5c-0.3-0.1-0.3-0.2-0.4-0.2
	c-0.8,0.2-1.5,0.1-2.3-0.1c-0.2-0.1-0.5,0-0.7,0c-0.4,0-1.1,0-1.3-0.2c-0.6-0.8-1.8-0.1-2.3-1c0,0-0.1,0-0.1,0
	c-0.5,0.2-0.9-0.1-1.3-0.4c-0.5-0.3-0.8-0.3-1.3,0.1c-0.1,0.1-0.3,0.3-0.5,0.2c-0.9-0.1-1.7,0.3-2.5,0.6c-0.8,0.2-1.4,0.8-2.3,0.8
	c-0.5,0-0.9,0.6-0.9,1.2c1.1,0,2.1,0.1,3.2,0.1C182.4,33.6,182.5,33.7,182.6,33.9z M115.1,25.9c-0.2,0.1-0.3,0.1-0.4,0.2
	c-0.6,0.2-1.1,0.3-1.7,0.2c-0.6-0.1-1.2-0.1-1.9-0.1c-0.9,0-1.8,0.2-2.7,0.1c-1-0.1-2-0.2-3,0c-0.1,0-0.3,0-0.4-0.1
	c-0.7-0.1-1.4-0.4-2-0.3c-1.3,0.3-2.5,0.1-3.7,0c-0.8-0.1-1.7,0-2.6,0c-1.7-0.1-3.4,0.2-5.1,0c0,0-0.1,0.1-0.1,0.2
	c0.1,0.1,0.1,0.3,0.2,0.4c0.8,0.7,1.3,1.7,2.2,2.3c0.1,0.1,0.2,0.3,0.3,0.4c0.1,0.4,0.3,0.6,0.7,0.8c0.2,0.1,0.3,0.2,0.5,0.4
	c0.5,0.6,0.9,1.3,1.7,1.6c0.1,0.1,0.2,0.3,0.3,0.4c0.3,0.3,0.5,0.6,0.8,0.9c0.3,0.3,0.7,0.4,1,0.6c1,1.1,2.5,1.3,3.5,2.3
	c0.1,0.1,0.3,0.1,0.4,0.1c1,0.2,2,0.4,2.9,0.7c0.8,0.3,1.6,0.2,2.4,0.1c0.1,0,0.3-0.1,0.4-0.1c2.7-0.4,4.4-2.1,5.3-4.5
	c0.6-1.5,1.5-2.9,1.4-4.6c0,0,0-0.1,0-0.1C116,27.2,115.7,26.6,115.1,25.9z M39.2,18.2c1,0.8,2.2,0.6,3.3,0.8c0.1,0,0.1-0.1,0.2-0.1
	c1.2-0.4,2.5-0.6,3.8-0.3c0.6,0.1,1.3,0.1,1.9-0.2c0.6-0.3,1.3-0.3,2.1-0.2c0.6,0.1,1.3-0.2,2-0.3c0.2,0,0.3-0.1,0.6-0.3
	c-0.4-0.2-0.6-0.4-0.8-0.4C51.6,17.1,51,17,50.4,17c-1.4-0.1-2.8-0.1-4.1-0.2c-0.5,0-1-0.1-1.5-0.1c-0.5-0.1-1.1-0.4-1.6,0.1
	c-0.1,0.1-0.3,0-0.4,0c-0.5-0.1-1-0.2-1.5-0.2c-0.6,0-1.1,0.1-1.7,0.1C39.4,17.2,39.3,17.7,39.2,18.2z M124.7,14.7
	c0.4-0.4,0.9-0.3,1.5-0.3c0.5,0.1,1-0.1,1.5-0.1c0.7,0,1.5-0.2,2.2-0.1c1,0.1,1.9-0.3,2.9-0.6c0.3-0.1,0.4-0.4,0.1-0.7
	c-0.4-0.3-0.9-0.6-1.4-0.2c-0.2,0.1-0.4,0.2-0.5,0.2c-0.7,0.1-1.4,0.1-2.2,0.2c-0.2-0.5-0.8-0.6-1.2-0.4c-0.5,0.3-1,0.3-1.6,0.4
	c-0.5,0-0.9,0.1-1.5,0.2C124,13.9,124,14,124.7,14.7z M235.8,10c-0.4,0.3-0.5,0.6-0.1,0.9c0.6,0.5,1.2,1,1.8,1.4
	c0.2,0.2,0.5,0.2,0.8,0.3c0.6,0.1,1.2,0.2,1.8,0.3c0.3,0.1,0.6-0.2,0.4-0.5c-0.1-0.2-0.3-0.4-0.5-0.6c-0.3-0.2-0.4-0.5-0.4-0.9
	c0-1-0.7-1.4-1.7-0.9c-0.2,0.1-0.3,0.1-0.5,0.2C236.6,10.6,236.4,10.6,235.8,10z M141.1,13.2c-0.6-1-1.6-0.9-2.5-0.9
	c-1.1,0-2.1,0.4-2.9,1.3c0.8,0.6,1.5,0.2,2.2,0.1c0.1,0.2,0.2,0.3,0.3,0.4c0.5-0.2,0.9-0.5,1.4-0.2c0,0,0.1,0,0.2,0
	C140,13.4,140.6,13.7,141.1,13.2z M102.4,18.5c0.5,0.2,1,0.4,1.5,0.5c0.1,0,0.2,0,0.3,0c0.9,0,1.9,0,2.8,0c0.3,0,0.6,0,0.9-0.1
	c0.5-0.2,0.9-0.5,1.4-0.8c-0.2-0.2-0.5-0.2-0.7-0.2c-0.5,0-1.1,0-1.6,0c-0.3,0-0.6,0-0.8,0c-0.9,0.2-1.8,0.2-2.7-0.1
	C102.9,17.7,102.6,17.9,102.4,18.5z M220.9,29.6c-0.6,0-1.2-0.1-1.8,0c-0.6,0.1-1.1,0.4-1.7,0.7c1.7,0.9,4.5,0.5,5.7-0.7
	c-0.2-0.1-0.5-0.1-0.7-0.2c-0.3-0.1-0.6-0.1-0.8,0.2C221.2,30.1,221.2,30.1,220.9,29.6z M67.7,16.8c0,0.1,0,0.2,0,0.3
	c1.7,0.7,3.5,0.4,5.3,0.7c-0.2-0.4-0.5-0.7-0.8-0.9c-0.4-0.2-0.8-0.4-1.3-0.5c-0.4-0.1-0.9-0.1-1.3,0c-0.4,0.1-0.8,0.3-1.3,0.2
	C68.2,16.6,67.9,16.8,67.7,16.8z M97.4,21.4c0-0.1,0-0.1,0-0.2c-0.1-0.1-0.2-0.2-0.3-0.2c-2.9-0.1-5.8-0.1-8.7-0.2
	c-0.1,0-0.3,0-0.4,0.1c0,0,0,0,0,0.1c0,0,0,0.1,0,0.2c0.4,0,0.7,0.1,1.1,0.1c0.5,0,1,0.1,1.5,0.1c1,0,1.9,0,2.9,0.1
	c0.6,0,1.1,0,1.7,0.1C96,21.6,96.7,21.4,97.4,21.4z M78.3,17.5c0.2-0.1,0.4-0.2,0.6-0.3c0-0.2-0.1-0.3-0.1-0.4c-0.2-0.9-0.3-1-1-0.5
	c-0.2,0.2-0.6,0.2-0.8,0.3c-0.2,0-0.4,0-0.6,0c0,0.6,0,1.3,0.4,1.7c0.6,0.4,1.3,0.4,2,0.1C78.6,18.1,78.5,17.8,78.3,17.5z
	 M241.3,26.9c-0.4-0.8-0.9-1.1-1.7-1c-0.2,0-0.3,0.1-0.5,0c-0.5-0.1-1.1-0.1-1.6,0.2c-0.6-0.3-0.9,0.2-1.5,0.3
	c0.2,0.1,0.3,0.3,0.4,0.3c1.4,0.1,2.8,0.2,4.1,0.3C240.8,27.1,241,27,241.3,26.9z M37.5,17c-0.1,0-0.2-0.1-0.2-0.1
	c-0.8,0-1.1,0.6-1.5,1.2c-0.3,0.5-0.3,0.8,0.3,0.9c0.6,0.1,1.3,0,2,0c0-0.3-0.1-0.6-0.1-0.8C37.8,17.8,37.6,17.4,37.5,17z
	 M35.1,17.3c-0.2-0.1-0.2-0.1-0.2-0.1c-1.3,0.1-2.6,0.2-3.9,0.3c-0.1,0-0.2,0.2-0.5,0.3c1,0.2,1.8,0.4,2.7,0.6
	c0.2,0,0.4,0.1,0.7,0.1c0.2,0,0.5-0.1,0.6-0.2C34.7,18,34.9,17.7,35.1,17.3z M227.8,22.2c-0.5-1.8-2-2.8-3.4-1.7
	C225.3,21.4,226.4,21.9,227.8,22.2z M255.9,20.3c-0.5-0.1-1.2,0.2-1.2-0.5c0,0-0.2,0-0.2-0.1c-0.3-0.1-0.6-0.3-0.9-0.4
	c-0.4-0.2-0.7,0-0.8,0.4c-0.1,0.4,0.1,0.7,0.5,0.8c0.8,0.3,1.6,0.6,2.5,0.6C255.8,20.9,255.8,20.7,255.9,20.3z M82.4,18.6
	c-0.1-0.2-0.1-0.5-0.2-0.6c-0.4-0.4-0.9-0.9-1.4-1.3c-0.2-0.1-0.5-0.2-0.7-0.1c-0.1,0-0.3,0.3-0.3,0.3c0.2,0.5,0.3,1.1,0.6,1.3
	C81,18.5,81.6,18.9,82.4,18.6z M152.1,13.1c1.1-0.4,2.4,0.1,3.4-0.5c-0.1-0.4-0.4-0.4-0.6-0.4c-0.6,0-1.3-0.1-1.9-0.2
	C152.1,11.9,152,12,152.1,13.1z M76,18.3c0.1-0.6-0.2-1.2-0.7-1.6c-0.4-0.3-0.7-0.6-1.3-0.3C74.4,17.4,75.1,18,76,18.3z M145.9,11.9
	c-0.2,0-0.3-0.1-0.4-0.1c-0.7,0.1-1.4,0.2-2.2,0.3c-0.1,0-0.3,0.2-0.3,0.3c0,0.1,0.1,0.3,0.2,0.3c0.3,0.1,0.7,0,1,0.1
	c0.4,0.1,0.7,0.3,1-0.1C145.5,12.4,145.9,12.3,145.9,11.9z M241,24c0.5-0.2,0.9-0.4,1.2-0.5c0.4-0.2,0.5-0.6,0.4-1
	c-0.1-0.4-0.4-0.4-0.7-0.4c-0.2,0-0.3,0.1-0.4,0.1c-0.1,0.3-0.3,0.6-0.3,0.9C241,23.3,241,23.6,241,24z M118.6,13.3
	c1.1,0.7,2.1,0.8,3.3,0.4c-0.5,0-0.9-0.2-1-0.8C120.1,13,119.3,13.1,118.6,13.3z M226.3,30.6c-0.1-0.2-0.2-0.5-0.4-0.6
	c-0.3-0.1-0.8-0.2-1.1-0.1c-0.5,0.3-1,0.3-1.5,0.4c-0.3,0.1-0.5,0.2-0.9,0.3c0.4,0.2,0.6,0.4,0.8,0.5
	C224.2,30.5,225.2,30.3,226.3,30.6z M239.6,20.9c0.6,0.1,1.1,0.2,1.6,0.3c0.5,0.2,1,0.4,1.5,0.3c0-0.5-0.1-0.7-0.6-0.7
	c-0.4-0.1-0.9-0.2-1.3-0.3C240.4,20.4,240,20.4,239.6,20.9z M245,21.2c0.6,0.4,1.1,0.7,1.7,1.1c0.1-0.2,0.3-0.3,0.5-0.6
	c-0.5-0.3-1-0.6-1.4-0.9C245.4,20.5,245.3,20.5,245,21.2z M215.9,9.1c0.3,0.4,0.5,0.6,0.8,1c0.2-0.1,0.4-0.2,0.6-0.4
	c-0.1-0.4-0.2-0.6-0.3-0.9C216.2,8.5,216.2,8.5,215.9,9.1z M233.6,12.7c0.2-0.2,0.4-0.4,0.5-0.5c-0.3-0.5-0.6-0.9-0.8-1.2
	c-0.8,0.4-0.8,0.4-0.3,1.2C233.6,12.1,233.6,12.1,233.6,12.7z M134,8.2c0.6,0.1,1.1,0.2,1.6,0.3c0.4,0,0.7,0,0.8-0.5
	C135.6,7.8,134.8,7.4,134,8.2z M26.1,4.6c0.4,0.3,0.7,0.5,1,0.7c0.2,0.1,0.5,0.1,0.6-0.2c0.1-0.2,0-0.5-0.2-0.6
	C27.2,4.2,26.7,4.3,26.1,4.6z M149.3,12.7c0.5,0,1,0.2,1.4-0.2c0.1-0.1,0.2-0.3,0.1-0.4c-0.1-0.1-0.3-0.3-0.4-0.3
	C149.9,11.8,149.4,12,149.3,12.7z M88.7,16.8c-0.7-0.1-1.1,0-1.5,0.3c-0.1,0.1-0.3,0.4-0.2,0.6c0.1,0.3,0.4,0.1,0.6,0
	C87.9,17.3,88.2,17.1,88.7,16.8z M51.1,21.7c0.4-0.2,0.7-0.3,1.3-0.6c-0.7-0.2-1.1-0.6-1.7-0.2C50.8,21.2,50.9,21.4,51.1,21.7z
	 M230.7,16.7c-0.7-0.7-0.9-0.7-1.5-0.1C229.7,16.9,230.2,17,230.7,16.7z M235,17.6c-0.5-1.1-0.6-1.2-1.2-0.8
	C234.1,17.1,234.3,17.6,235,17.6z M65.6,19c-0.2-0.2-0.3-0.4-0.5-0.5c-0.2,0-0.4,0-0.5,0.1c-0.1,0-0.1,0.3-0.1,0.4
	c0.1,0.1,0.3,0.2,0.5,0.2C65.1,19.2,65.3,19.1,65.6,19z M231.6,25.9c0.5,0.3,0.8,0.5,1.2,0.5c0.1,0,0.2-0.1,0.4-0.2
	C232.7,25.8,232.3,25.6,231.6,25.9z M228.6,11.2c-0.8-0.4-1-0.4-1.6,0.3C227.6,11.6,228.1,11.5,228.6,11.2z M82.6,15.8
	c-0.5,0.1-0.9,0.1-1.3,0.2c0.4,0.3,0.7,0.6,1.2,0.5C82.6,16.2,82.6,16,82.6,15.8z M33.8,22.8c0.4,0,0.6-0.2,0.6-0.5
	c0-0.1-0.2-0.2-0.3-0.2C33.7,22.2,33.7,22.5,33.8,22.8z M128.2,20.3c0.4,0,0.8,0.3,1.3-0.1C129.1,20,128.6,20.1,128.2,20.3z
	 M158.4,12.5c0-0.1,0-0.2,0-0.3c-0.3-0.1-0.6-0.2-0.9,0.4C157.8,12.6,158.1,12.6,158.4,12.5z M226.4,10.3c-0.1-0.3-0.2-0.5-0.3-0.7
	c-0.2,0.1-0.3,0.2-0.4,0.3c-0.1,0-0.1,0.1-0.1,0.3C225.8,10.2,226,10.3,226.4,10.3z M237.7,15.1c-0.5-0.6-0.6-0.6-1-0.1
	C236.9,15,237.2,15,237.7,15.1z M94.3,18.5c0.1-0.3,0.3-0.6,0.4-0.9C94.2,17.6,94.2,17.6,94.3,18.5z M232.2,16.4
	c-0.1,0-0.1,0.1-0.2,0.1c0,0.4,0.1,0.6,0.8,0.5C232.6,16.8,232.4,16.6,232.2,16.4z M3.7,29.9c0-0.1,0-0.1,0-0.2
	c-0.3-0.1-0.5-0.1-0.8,0.3C3.3,30,3.5,30,3.7,29.9z M24.2,7.2c0.2,0.4,0.5,0.4,0.7,0C24.6,7.2,24.4,7.2,24.2,7.2z M233.6,26.3
	c0.2,0.1,0.3,0.2,0.4,0.2c0.1,0,0.2-0.1,0.3-0.1c-0.1-0.1-0.1-0.2-0.2-0.3C233.9,26.1,233.8,26.2,233.6,26.3z M43.7,21.4
	c0-0.1-0.1-0.1-0.1-0.2c-0.3,0.1-0.6,0.2-0.8,0.2c0,0.1,0,0.1,0.1,0.2C43.2,21.5,43.4,21.5,43.7,21.4z M214.6,8.7
	c0.1,0.5,0.3,0.6,0.7,0.2C215,8.7,214.8,8.7,214.6,8.7z M73,19.4c0.2,0.1,0.4,0.1,0.8,0.2C73.5,19.1,73.3,19,73,19.4z M141.4,8.4
	c0-0.1,0-0.1,0-0.2c-0.2-0.1-0.5-0.1-0.8,0.3C141,8.4,141.2,8.4,141.4,8.4z M92.4,17.5c0,0.1,0,0.2,0,0.3c0.2,0,0.4,0,0.5-0.1
	c0-0.1,0-0.2,0-0.2C92.8,17.5,92.6,17.5,92.4,17.5z M138.4,8.4c0.4,0,0.6-0.1,0.9-0.1C138.9,8.1,138.7,7.9,138.4,8.4z M250.9,18.1
	c-0.1,0-0.1-0.1-0.2-0.1c-0.1,0.1-0.2,0.3-0.3,0.4c0.1,0.1,0.2,0.1,0.3,0.2C250.8,18.4,250.9,18.2,250.9,18.1z M10.2,12
	c0.1-0.1,0.2-0.2,0.2-0.3c0-0.1-0.1-0.2-0.1-0.3c-0.1,0.1-0.2,0.1-0.3,0.2C10,11.7,10.1,11.8,10.2,12z M223.9,10.6
	c0.3-0.1,0.5-0.2,0.7-0.3C224.2,10,224,10.1,223.9,10.6z M163.3,5.1c0,0.1-0.1,0.2-0.1,0.2c0.2,0.1,0.3,0.1,0.5,0.2
	c0-0.1,0.1-0.1,0.1-0.2C163.6,5.2,163.4,5.2,163.3,5.1z M192.8,18.4c-0.1,0-0.2-0.1-0.3-0.1c0,0.1-0.1,0.3-0.1,0.4
	c0,0,0.1,0.1,0.1,0.1C192.7,18.6,192.7,18.5,192.8,18.4z M218.7,10.1c-0.1,0-0.1,0.1-0.2,0.1c0.1,0.1,0.2,0.3,0.3,0.4
	c0.1,0,0.1-0.1,0.2-0.1C218.9,10.4,218.8,10.3,218.7,10.1z M226.6,27c0.1,0.1,0.2,0.2,0.3,0.2c0,0,0.2-0.1,0.2-0.1
	c0-0.1-0.1-0.2-0.1-0.2C226.9,26.8,226.8,26.9,226.6,27z M131.5,7.8c-0.3-0.3-0.4-0.2-0.6,0.2C131.2,7.9,131.4,7.8,131.5,7.8z
	 M222.9,20.4c0.1-0.1,0.2-0.2,0.2-0.3c0,0-0.1-0.2-0.1-0.2c-0.1,0-0.2,0.1-0.2,0.1C222.8,20.2,222.8,20.3,222.9,20.4z M232.7,30.9
	c0.1-0.1,0.2-0.2,0.3-0.3c-0.1-0.1-0.3-0.2-0.4-0.3c0,0.1-0.1,0.1-0.1,0.2C232.6,30.6,232.6,30.7,232.7,30.9z M137.2,8
	c0,0.1-0.1,0.1-0.1,0.2c0.1,0.1,0.3,0.1,0.4,0.1c0,0,0-0.1,0.1-0.1C137.5,8.1,137.3,8,137.2,8z M222.7,9.3c0-0.1,0-0.2,0-0.2
	c-0.2,0-0.3,0-0.5,0.1c0,0.1,0,0.1,0,0.2C222.4,9.3,222.6,9.3,222.7,9.3z M223.1,26.8c0,0.1,0,0.1,0.1,0.2c0.1-0.1,0.3-0.1,0.4-0.2
	c0-0.1,0-0.1-0.1-0.2C223.3,26.7,223.2,26.8,223.1,26.8z M90,18.3c-0.1,0-0.1,0-0.2,0c0,0.1,0,0.3,0.1,0.4c0,0,0.1,0,0.1,0
	C90,18.6,90,18.5,90,18.3z M91.2,17.2c0-0.1-0.1-0.1-0.1-0.2c-0.1,0.1-0.2,0.2-0.3,0.3c0,0,0.1,0.1,0.1,0.1
	C91,17.4,91.1,17.3,91.2,17.2z M170.3,6.2c0.1-0.1,0.2-0.1,0.2-0.2c0-0.1,0-0.2-0.1-0.2c0,0-0.2,0-0.2,0.1
	C170.2,6,170.2,6.1,170.3,6.2z M222,10.2c0,0.1,0,0.1-0.1,0.2c0.1,0,0.3,0.1,0.4,0.1c0,0,0-0.1,0-0.1
	C222.3,10.3,222.2,10.2,222,10.2z M39,21.7C39,21.8,39,21.8,39,21.7c0.2,0.1,0.4,0.1,0.5,0.1c0,0,0-0.1,0-0.1
	C39.4,21.7,39.2,21.7,39,21.7C39,21.7,39,21.7,39,21.7z M85.9,17.4c0,0-0.1,0-0.1,0.1c0,0.1,0.1,0.2,0.1,0.3c0,0,0.1,0,0.1,0
	C86,17.6,85.9,17.5,85.9,17.4z M147.3,27.1C147.3,27.1,147.3,27.2,147.3,27.1c0.1,0.1,0.3,0.1,0.5,0.1c0,0,0-0.1,0-0.1
	C147.6,27.1,147.5,27.1,147.3,27.1z M132.3,7.8c-0.1,0-0.1,0-0.2-0.1c0,0-0.1,0.1,0,0.1c0.1,0,0.1,0.1,0.2,0.1
	C132.3,7.9,132.3,7.9,132.3,7.8z M246.9,14.7C246.9,14.7,246.9,14.8,246.9,14.7c0.2,0,0.3-0.1,0.4-0.2c0,0-0.1-0.1-0.1-0.1
	C247.1,14.5,247,14.6,246.9,14.7z M244.5,18c0,0,0-0.1,0-0.1c-0.1,0-0.2,0.1-0.3,0.1c0,0,0,0.1,0,0.1
	C244.2,18.1,244.3,18.1,244.5,18z M217.1,10.5c0,0-0.1,0-0.1,0.1c0.1,0.1,0.1,0.2,0.2,0.3c0,0,0.1,0,0.1-0.1
	C217.2,10.7,217.1,10.6,217.1,10.5z M82.8,23.7c0-0.1,0-0.1-0.1-0.2c-0.1,0-0.2,0.1-0.3,0.1c0,0,0,0.1,0,0.1
	C82.5,23.8,82.6,23.8,82.8,23.7z M91.3,16.3c0,0,0.1,0.1,0.1,0.1c0,0,0.1,0,0.1,0c0,0,0-0.1,0-0.1C91.4,16.3,91.4,16.3,91.3,16.3z
	 M232.3,12c0,0,0.1-0.1,0.1-0.1c0,0-0.1-0.1-0.1-0.1c0,0.1-0.1,0.1-0.1,0.2C232.2,11.9,232.3,11.9,232.3,12z M191,18.2
	c0,0-0.1,0-0.1-0.1c0,0,0,0.1,0,0.1C190.9,18.2,190.9,18.2,191,18.2C191,18.2,191,18.2,191,18.2z M243.2,17.7c0,0,0.1,0,0.1,0
	c0,0,0-0.1,0-0.1C243.2,17.7,243.2,17.7,243.2,17.7C243.1,17.7,243.1,17.7,243.2,17.7z M49.9,21.5c0,0,0.1,0,0.1,0c0,0,0-0.1,0-0.1
	C50,21.4,50,21.4,49.9,21.5C49.9,21.4,49.9,21.4,49.9,21.5z M246.2,25C246.1,24.9,246.1,24.9,246.2,25c-0.1-0.1-0.1,0-0.1,0
	c0,0,0,0.1,0,0.1C246.1,25,246.1,25,246.2,25z M93.4,17.8c0,0,0.1-0.1,0.1-0.1c0,0,0-0.1-0.1,0C93.4,17.6,93.4,17.6,93.4,17.8
	C93.4,17.7,93.4,17.7,93.4,17.8z M217.9,31.8C217.9,31.8,218,31.8,217.9,31.8C218,31.7,217.9,31.7,217.9,31.8
	C217.9,31.7,217.9,31.7,217.9,31.8C217.8,31.8,217.9,31.8,217.9,31.8z M93.3,11C93.2,11,93.2,11,93.3,11C93.2,11,93.2,11,93.3,11
	C93.2,11.1,93.2,11.1,93.3,11C93.2,11.1,93.2,11,93.3,11z M237.1,8.6L237.1,8.6L237.1,8.6L237.1,8.6z M148.1,20.7
	C148.1,20.7,148.1,20.7,148.1,20.7c-0.1-0.1-0.1-0.1-0.1-0.1c0,0,0,0.1,0,0.1C148,20.8,148.1,20.7,148.1,20.7z M126.9,7.6L126.9,7.6
	L126.9,7.6L126.9,7.6z M230,10.3L230,10.3L230,10.3L230,10.3z M202,30L202,30L202,30L202,30z M157.9,22L157.9,22L157.9,22L157.9,22z
	 M166.5,28.9L166.5,28.9L166.5,28.9L166.5,28.9z M247,20.8L247,20.8L247,20.8L247,20.8z M119.3,8.2L119.3,8.2L119.3,8.2L119.3,8.2z
	 M119.7,27.6L119.7,27.6L119.7,27.6L119.7,27.6z M94.7,18.6L94.7,18.6L94.7,18.6L94.7,18.6z M236.1,27.9L236.1,27.9L236.1,27.9
	L236.1,27.9z M40.2,22.1L40.2,22.1L40.2,22.1L40.2,22.1z M196.2,29.3L196.2,29.3L196.2,29.3L196.2,29.3z M79.2,18.4L79.2,18.4
	L79.2,18.4L79.2,18.4z M227.5,8.8L227.5,8.8L227.5,8.8L227.5,8.8z M155.6,29L155.6,29L155.6,29L155.6,29z M223.1,10.9L223.1,10.9
	L223.1,10.9L223.1,10.9z"/>
</svg>
