<?xml version="1.0" encoding="utf-8"?>
<!-- Generator: Adobe Illustrator 18.1.1, SVG Export Plug-In . SVG Version: 6.00 Build 0)  -->
<svg version="1.1" id="Layer_1" xmlns="http://www.w3.org/2000/svg" xmlns:xlink="http://www.w3.org/1999/xlink" x="0px" y="0px"
	 viewBox="0 0 257.9 36.9" enable-background="new 0 0 257.9 36.9" xml:space="preserve">
<path fill="#CF0A2C" d="M36.2,27.5c-0.6-0.2-1.2-0.4-1.9-0.2c-0.2,0.1-0.6,0.1-0.9-0.1c-0.7-0.4-1.5,0-2.1-0.5c-0.1-0.1-0.3,0-0.4,0
	c-0.4,0.2-0.9,0.3-1.4,0.3c-0.2,0-0.5,0.2-0.8,0.4c-0.2-0.2-0.5-0.6-1-0.3c0.1,0.1,0.2,0.2,0.2,0.4l0,0c0.2,0.1,0.4,0.3,0.6,0.4
	c-0.7,0-0.8,0-1.1-0.5C27.2,27.1,27,27,26.6,27c-1,0-1.9,0-2.7,0.6c-0.4-0.1-0.7-0.3-1.2-0.5c0,0.3,0,0.5,0.1,0.8
	c-0.3,0-0.6,0-1,0.1c0.1-0.3,0.1-0.5,0.2-0.7c0,0,0,0,0,0c-0.7,0.2-1.4,0.3-2.1,0.5c-0.5,0.2-0.9,0.3-1.5,0.3
	c-0.5-0.1-1.1,0.1-1.6,0.2c-0.7,0.1-1.2-0.3-1.3-0.9c0-0.3,0.1-0.6,0.2-0.9l0,0c0.4-0.2,0.8-0.2,1.2,0c0.4,0.2,0.7,0.2,1-0.2l0,0
	c0.6-0.1,1.2-0.2,1.9-0.4c0.1,0.1,0.3,0.3,0.4,0.5c1-0.3,1.8-0.6,2.7-0.8c0.1,0,0.3,0.2,0.5,0.3c0.9-1.3,1.9-0.3,2.9-0.3
	c0.4-0.2,0.8-0.4,1.3-0.5c0.4-0.1,0.9-0.1,1.5-0.1c-0.2-0.3-0.3-0.5-0.4-0.5c-0.9,0-1.7-0.9-2.7-0.3c-0.1,0.1-0.2,0-0.4,0
	c0,0,0-0.1,0-0.1c0,0,0,0.1,0,0.1c-0.4,0-0.9,0.1-1.3,0c-0.3-0.1-0.5-0.3-0.8-0.5c-0.1,0.1-0.2,0.2-0.3,0.4
	c-0.3-0.5-0.5-1.1-1.4-0.9c0.3,0.3,0.5,0.4,0.9,0.7c-0.6,0.5-1.1,0.2-1.6,0c-0.6-0.3-1.3-0.7-1.9-1c-0.1-0.1-0.3,0-0.6,0.1
	c0.3,0.2,0.6,0.4,0.9,0.6c0,0.1,0,0.1-0.1,0.2c-0.2,0-0.4,0-0.5-0.1c-0.7-0.2-1.3-0.6-2-0.1c-1.1-0.3-2.2,0-3.2-0.6
	c-0.3-0.2-0.6-0.2-1-0.2c-0.7,0.1-1.3,0-1.9-0.4c-0.6-0.4-1.3-0.6-1.9-0.8c-0.4-0.1-0.9,0-1.4,0.2c-0.3-0.2-0.7-0.3-1.1-0.2
	c-0.4,0.1-0.8,0-1.2-0.1c-0.2,0-0.3-0.1-0.5-0.1c-1.1,0.2-2.2-0.1-3.3-0.4c-0.3-0.1-0.6,0-0.9-0.1c-0.1-0.8,0.7-1.1,0.8-1.8
	c0.5,0,0.9-0.1,1.2-0.1c0.3,0.2,0.2,0.8,0.8,0.6c0-0.2,0-0.4,0-0.7c1.3,0.3,2.6,0.2,3.8,1c0.5-0.3,0.9-0.4,1.5,0.1
	c0.2,0.3,1,0.3,1.4,0.1c0.9-0.5,1.7-0.1,2.5,0.3c0.6,0.3,1,0.4,1.6,0.1c0.4-0.2,0.8-0.2,1.2-0.2c0.7,0,1.4,0,2.1,0
	c0.3,0,0.5-0.1,0.8-0.2c-0.6-1.2-1.2-1.1-2.3-0.8c-0.2,0.1-0.4,0.2-0.5,0.2c-0.9-0.1-1.8-0.2-2.7-0.4c-0.4-0.1-0.8-0.2-1.3-0.1
	c-0.5,0-0.9-0.1-1.2-0.6c-0.3-0.4-0.2-0.8,0.2-0.9c0.3-0.1,0.7-0.2,1-0.2c1.2-0.2,2.4-0.3,3.6-0.4c0.6-0.1,1.3-0.1,1.9,0
	c0.4,0.1,0.7,0.4,1,0.6c0.4-0.5-0.3-0.5-0.3-0.8c0.3-0.1,0.5-0.2,0.8-0.3c0-0.1,0-0.1,0-0.2c-0.2-0.1-0.4-0.1-0.7-0.2
	c-1.5-0.2-3-0.1-4.4-0.5c-1.2-0.3-2.4-0.2-3.6-0.3c-0.1,0-0.3,0-0.4,0c-1.2-0.1-1.3-0.3-1-1.5c-0.3-0.2-0.9,0.5-1.1-0.3c0,0,0,0,0,0
	c-0.4-0.5-0.4-0.5,0.6-0.7c-0.3-0.3-0.6-0.6-0.8-0.8c0.6-0.7,0.9-0.7,1.9-0.1c0-0.2,0.1-0.3,0.2-0.7c0.4,1,1.1,0.7,1.8,0.7
	c0.2-0.2,0.3-0.5,0.6-0.8c0.4,0.2,0.7,0.4,1.1,0.6c-0.1-0.8,0-0.9,0.7-0.7c0.6,0.1,1.2,0.2,1.4-0.5c0.9,0.3,1.7,0.6,2.6,0.9
	c0.2,0.1,0.5,0,0.7-0.1c0.3-0.1,0.5-0.4,0.7-0.6c-0.3-0.5-0.6-0.6-1.1-0.6c-0.8,0-1.6-0.2-2.4-0.2c-0.6-0.1-1-0.3-1.2-0.9
	c-0.1-0.2-0.2-0.4-0.4-0.7C13.2,8.8,13.1,9,13,9.4c-1.1-0.1-2.1-0.1-3.1-0.7c-0.2-0.1-0.6,0-0.9,0C8.9,8.5,8.8,8.4,8.7,8.3
	c-1,0.4-2,0.1-2.9-0.2C5.4,7.9,5,7.7,4.7,7.5C4.2,7.1,3.8,7.2,3.2,7.2c-1,0-2.1-0.3-3.2-0.5c0.2-0.6,0.3-1.1,0.4-1.4
	C0.7,5.1,1,5,1.2,4.8l0,0c0.5,0.5,1,0.7,1.7,0.4c0.2-0.1,0.5,0.1,0.9,0.1c0.6-0.5,1-0.6,2-0.5C5.9,5.3,5.9,5.7,6,6
	c0.1,0.1,0.4,0.2,0.7,0.3c0-0.3,0-0.6,0-0.8l0,0c0.7-0.6,1.5-0.8,2.4-0.3c0.1,0.1,0.4,0.1,0.5,0.1c0.6-0.4,1.3-0.2,1.9-0.2
	c0.7,0,1.5,0.4,2.3,0.3c0.1,0,0.3,0.3,0.4,0.4c0.3,0.2,0.5,0.3,0.8,0.4c0.3-1,0-1.5-0.8-1.3c-0.6,0.1-0.7-0.2-1.1-0.4c0,0,0,0,0,0
	c-0.9,0.1-1.7-0.2-2.6-0.6c0.1-0.1,0.1-0.1,0.2-0.2c0,0.1-0.1,0.1-0.1,0.2c-0.2-0.2-0.5-0.4-0.7-0.7C9.5,3.6,9,3.7,8.4,3.6
	C8.3,3.4,8.2,3.2,8.1,2.9C7.8,3,7.5,3.2,7.2,3.3C6.6,3,6.1,2.6,5.4,2.3C4.9,2.1,4.4,2.2,3.8,2.1c-0.4,0-0.9,0-1.2-0.2
	c-0.8-0.4-1-0.9-0.5-1.7C2.2,0.2,2.3,0,2.3,0C2.9,0.1,3.4,0.2,4,0.3c0.3,0.1,0.6,0.2,0.9,0.4C5.2,0.8,5.6,1,5.9,1.1
	C6,1.2,6.1,1.2,6.1,1.3C6.1,1.2,6,1.2,5.9,1.1C6,0.9,6,0.8,6.1,0.6c1,0.2,2.1,0.2,2.8,1C9,1.7,9.3,1.7,9.5,1.7c0,0,0,0,0,0
	c0.4-0.2,0.6,0,0.8,0.2c0.3,0.3,0.6,0.3,0.9,0.1c0.8-0.3,1.5-0.4,2.3,0c0.6,0.3,1.3,0.4,1.9,0.7c0,0,0,0,0,0
	c0.3,0.1,0.6,0.2,0.9,0.2c0.4-0.1,0.7-0.2,1.1,0.2c0.2,0.2,0.7,0.1,1,0.1c0.1,0,0.2-0.2,0.3-0.3c0,0,0,0,0,0c0.5,0.1,1,0.2,1.4,0.7
	c0.2,0.2,0.4,0.3,0.8,0.2c0.9-0.1,1.8,0,2.7-0.3c0.5-0.2,1.2,0,1.5,0.6c0.3,0.5,0.8,0.9,1.4,1.1c0.1-0.3,0.2-0.5,0.2-0.7
	c0,0,0,0,0,0c0.4,0.2,0.8,0.4,1.3,0.7c-0.1-0.4-0.2-0.8-0.3-1.1c0.8-0.3,0.9,0.2,1.1,0.7c0.4,0.1,0.9,0.1,1.3,0.2
	C30,5,30.1,5.1,30.2,5.3c0.1,0,0.1-0.1,0.2-0.1C30.2,5.1,30.1,5,30,4.8c0-0.3,0-0.5,0-0.9c0.2,0.1,0.3,0.2,0.4,0.3l0,0
	c0.2,0.1,0.4,0.3,0.6,0.4c0,0,0.1,0,0.1,0c0,0-0.1,0-0.1,0C31.4,4,31.5,4,32.1,4.4c0.4,0.2,1,0.4,1.3,0.2c0.6-0.3,0.9-0.2,1.3,0.1
	C34.8,4.9,34.9,5,35.1,5l0,0c-0.1,0.5,0,0.8,0.6,0.8c0.4,0,0.9,0.1,1-0.5c0-0.2,0.1-0.3,0.2-0.5c0.3,0.3,0.6,0.6,0.7,0.8
	c1,0.1,1.8,0.1,2.7,0.2c0.1-0.2,0.3-0.4,0.5-0.8c0.3,0.3,0.6,0.5,0.9,0.7c0.2-0.1,0.5-0.1,0.7-0.2c0.5,0.8,1.2,0.5,1.8,0.3
	c0.4-0.1,0.7-0.2,1,0C45.2,6,45.4,6,45.5,6c1.2-0.4,2.4-0.1,3.7,0c0.7,0,1.5,0.3,2.3-0.1c0.1-0.1,0.4-0.1,0.6,0
	c0.6,0.4,1,0.1,1.3-0.3C53.6,5.7,53.8,5.9,54,6c0.6-0.5,1.3-0.4,2-0.2C56.5,6,57,6,57.4,5.7c0.1-0.1,0.4-0.2,0.5-0.2
	c0.8,0.1,1.7,0.2,2.5,0.3c0,0,0,0,0,0c0.1,0,0.1,0,0.2,0l0,0c0.2-0.1,0.4-0.1,0.6-0.2c0.4-0.2,0.6-0.1,0.9,0.3
	c-0.2,0.2-0.4,0.3-0.7,0.6c0.5,0,0.9,0,1.3,0c0.1-0.3,0.2-0.7,0.4-0.9c0.2-0.1,0.7-0.1,0.9,0.1c0.5,0.5,1,0.3,1.4,0.1
	c0.7-0.3,1.3-0.2,1.9,0.1c0.5-0.4,1-0.5,1.7-0.4c0.8,0.1,1.6,0,2.4-0.2c0.5-0.1,0.8,0.1,1,0.5c0,0,0,0,0,0c0.2-0.3,0.4-0.8,0.9-0.2
	c0.2-0.3,0.3-0.5,0.5-0.7c0.5,0.3,1,0.5,1.4,0.7c0.9-0.2,1.6-0.3,2.3-0.5c0.7-0.1,1.3-0.3,2-0.4c1.1-0.2,2.2-0.1,3.2,0.5
	c0.2,0.1,0.7-0.1,1.1-0.2l0,0c0.1,0.1,0.1,0.3,0.2,0.4c0.3-0.3,0.5-0.7,0.8-0.7c0.3-0.1,0.6,0.1,0.9,0.2c0.4-0.1,0.9-0.1,1.3-0.2
	c0.8-0.1,1.7-0.2,2.5-0.2c0.6-0.1,0.6,0,0.9,0.6c-0.2,0.1-0.5,0.2-0.7,0.3c0,0.1,0,0.1,0.1,0.2c0.4,0.3,0.7,0.2,1-0.2
	c0.1,0,0.1,0.1,0.2,0.1c0,0,0,0,0.1,0c-0.1,0-0.2,0-0.2,0c0-0.2,0-0.6,0.1-0.7c0.3-0.2,0.7-0.4,1.1-0.4c0.4,0,0.7,0.2,1.1,0.3
	C93,4.7,93,4.8,92.9,4.8c0,0,0,0,0,0C93,4.8,93,4.7,93.1,4.6c0.4-0.2,0.7,0,1.1,0.3C94.4,5.1,94.7,5.2,95,5c0.9-0.8,2-0.5,3.1-0.5
	c0.7,0,1.3,0,2,0c0.1,0,0.1,0,0.2,0c0.5,0,1.1,0.2,1.2,0.6c0.1,0.6-0.4,0.6-0.7,0.8c0.9,0.4,1.3,0.2,1.2-0.7
	c1.3-0.8,2.7-0.5,4.1-0.6c0.3,0,0.5,0,0.8,0c0.5,0,1-0.1,1.4,0c0.6,0,1.2,0.4,1.8,0.2c0.1,0,0.3,0,0.4,0.1c0.5,0.5,1,0.5,1.5-0.2
	c0.7,1.1,1.4,0.3,2.1,0c0.1,0.4,0.2,0.6,0.2,0.9c0.3,0,0.6,0,1,0c0-0.2,0.1-0.4,0.2-0.7c0.6,0.2,1.2,0.4,1.7,0.5
	c0.6,0.1,0.7,1,1.5,0.8c-0.1-0.2-0.2-0.3-0.3-0.4c0.6-0.7,1.4-0.5,1.9-0.2c0.7,0.3,1.3,0.2,1.9,0.1c0,0,0,0,0,0
	c0.2-0.1,0.4-0.3,0.6-0.3c0.8,0,1.7,0,2.5,0c0.9,0.1,1.8,0.2,2.7,0.3c0.2,0.7,0.8,0.8,1.4,1c0,0,0,0,0,0c0-0.2,0-0.4,0-0.7
	c0.6,0,1.1,0,1.5,0.6c0.2-0.2,0.4-0.3,0.6-0.5c0.2,0.2,0.4,0.3,0.7,0.5c0.1-0.2,0.3-0.3,0.4-0.5c0.4,0,0.8,0,1.2,0l0,0
	c0.1,0.4,0.2,0.6,0.6,0.5c0.1-0.1,0.3-0.2,0.5-0.1c1.2,0.3,2.3-0.4,3.4-0.5c0.8-0.1,1.8-0.1,2.4,0.5c0.7,0.7,1.1,0.3,1.7-0.1
	c0.1,0.1,0.1,0.1,0.2,0.2c0.1,0.1,0.1,0.1,0.2,0.2c-0.1,0-0.1-0.1-0.2-0.1c-0.1-0.1-0.1-0.1-0.2-0.2c0.1-0.3,0.3-0.5,0.6-0.2
	c0.5,0.4,1,0.3,1.6,0.1c0.2-0.1,0.5-0.2,0.6-0.1c0.7,0.3,1.4,0.2,2.1,0.2c0.9,0,1.8,0,2.7,0.1c0.6,0,1.2,0.2,1.7,0.3
	c0.3,0.1,0.7,0.2,1-0.1c0.1-0.1,0.3-0.1,0.4-0.1c0.5,0.3,0.9,0.2,1.4-0.1c0.7,0.5,1.4,0.4,2.1,0.2c0.2-0.1,0.4-0.1,0.7-0.1
	c1-0.2,2-0.3,3.1-0.1c0.9,0.2,1.9,0.1,2.9,0.1c0,0,0,0,0,0c0.4,0,0.8,0.2,1.2-0.2c0.1-0.1,0.4-0.1,0.4-0.1c0.6,0.6,1.3,0,1.9,0.2
	c0.6,0.2,1.3,0.3,1.9,0.5c0.1,0,0.3,0,0.4,0c0,0,0,0,0,0c0.8-0.4,1.5,0.2,2.1,0.5c0.3,0.1,0.4,0.4,0.7,0.6c0,0.5,0,1-0.1,1.6
	c0.5-0.1,0.9-0.1,1.3-0.2c0.7-0.1,1.4-0.3,2.1-0.1c0.4,0.1,0.9,0,1.3-0.1c0.8-0.2,1.4-0.1,2,0.4c0.2-0.7,0.3-0.8,0.9-0.6
	c0.4,0.2,1.1-0.2,1.2,0.7c0.6-0.5,1.2-0.4,1.9-0.4c0.9,0,1.9-0.2,2.8,0.2c0.1,0.1,0.4-0.1,0.5-0.2c1-0.4,2-0.3,3.1-0.2
	c0.1,0,0.2,0.2,0.4,0.3c0.3,0.1,0.6,0.3,0.9,0.4c0-0.1,0.1-0.1,0.1-0.2c-0.1-0.1-0.2-0.2-0.3-0.4c0.3-0.3,0.6-0.3,0.8,0
	c0.2,0.3,0.5,0.3,0.8,0.2c0.8-0.5,1.8-0.3,2.6-0.3c0.5,0,0.9,0,1.4-0.1c0.8-0.1,1.6,0,2.4,0c0.3,0,0.6,0.1,0.9,0
	c0.6-0.2,1,0.1,1.5,0.3c0.7,0.2,1.5,0.6,2.1-0.3c0.2,0.3,0.4,0.6,0.6,1c0.1-0.3,0.2-0.5,0.4-0.8c0.6,0.2,1.2,0.4,1.9,0.1
	c0.2-0.1,0.6,0.1,0.9,0.1c0.6,0.1,1.2,0.2,1.8,0.1c0.8-0.1,1.6,0.1,2.3-0.3c0.1-0.1,0.4,0,0.5,0.1c0.5,0.4,1.1,0.2,1.6,0.1
	C213,9,213.4,9,214,9.2c0.5,0.2,1.2,0.5,1.8,0.1c0.5-0.4,1-0.3,1.6,0c0.2,0.1,0.6,0.2,0.8,0.2c1.3-0.4,2.6-0.1,3.8-0.2
	c0.3,0,0.5,0,0.8,0c1-0.4,2-0.3,2.9-0.5c0.4,0,0.7,0,1.1-0.1c1.7-0.4,3.4-0.5,5.1-0.3c0.4,0,0.8-0.1,1.2-0.2
	c0.9-0.3,0.9-0.4,1.7,0.1c0.7-0.4,1.4-0.7,2.3-0.6c-0.1,0.3-0.2,0.5-0.4,0.8c0.6-0.2,1-0.5,1.5-0.6c0.5-0.1,1,0,1.6,0
	c0.1,0.1,0.1,0.3,0.2,0.5c0,0,0.1,0,0.1,0c0.9-0.6,1.8-0.6,2.8-0.2c0.4,0.2,0.8,0.3,1.2,0.1c0.1-0.1,0.4,0.1,0.5,0.3
	c0.2,0.3,0.3,0.6,0.4,1c-0.5,0.3-1.1,0.4-1.7,0.4c-0.7,0-1.3-0.1-2,0.2c-0.3,0.1-0.6,0.1-0.9,0c-0.7-0.1-1.2,0.2-1.7,0.7
	c0.7,0.1,1.2,0.2,1.8,0.3c0.6,0.1,1.1,0.3,1.6,0.5c0.5,0.3,1,0.7,1.6,1.1c-0.3,0.2-0.5,0.5-0.7,0.6c-0.7,0.2-1.5,0.3-2.2,0.4
	c-0.9,0.2-1.8,0.3-2.9,0.5c0,0-0.1-0.2-0.3-0.4c-0.4,0.1-0.8,0.2-1.1,0.4c-0.6,0.3-1.2,0.4-1.9,0.1l0,0c-0.7-0.2-1.4-0.1-2.5,0.4
	c0.4,0.1,0.6,0.2,0.9,0.3c-0.1,0.1-0.1,0.1-0.2,0.2c-0.4,0.1-0.9,0.1-1.5,0.2c0.2-0.3,0.4-0.5,0.6-0.7c-0.4-0.3-0.7-0.1-0.8,0.3
	c-0.1,0.4-0.4,0.7-0.8,0.7l0,0c-0.1-0.1-0.1-0.1-0.2-0.2l0,0c0.2-0.2,0.6-0.3,0.4-0.9c-0.5,0.4-1,0.7-1.7,0.7
	c-0.2,0-0.4,0.4-0.6,0.7c0.6-0.1,1.1,0.1,1.7,0.2c0.8,0.2,1.7,0.1,2.6,0.1c1.4,0,2.7-0.1,4.1,0.2c0.4,0.1,0.9,0,1.4,0
	c2.1-0.3,4.1-0.2,6.2,0.2c0.2,0,0.4,0.1,0.6,0c0.7-0.1,1.2,0.2,1.7,0.8c-0.4,0.5-1,0.4-1.5,0.4c-1.5-0.1-3-0.3-4.6-0.3
	c-1.4,0-2.7,0.1-4.1,0.1c-0.8,0-1.6-0.1-2.4-0.2c-0.7,0-0.7,0-1.2,0.3c0.4,0.5,1.1,0.8,1.7,0.7c1.1-0.3,2.2,0,3.3,0.2
	c0.3,0.1,0.6,0.4,0.8,0.6c0.4,0.4,0.8,0.8,1.2,1.2c1-0.5,1.8-0.5,2.7,0c0.1,0.1,0.4,0.2,0.5,0.1c1.2-0.3,2.3,0.1,3.5,0
	c1.4,0,2.8-0.1,4.3-0.1c0,0,0.1,0,0.1,0c1.3,0.3,2.6-0.1,3.9,0c0.9,0,1.8,0,2.6,0c0.7,0,0.9,0.3,0.7,1.1c-0.4,0.1-0.9,0.2-1.3,0.2
	c-0.5,0-1.1,0-1.6,0c-0.1,0-0.3-0.1-0.4,0c-0.8,0.4-1.7,0.3-2.5,0c-0.9-0.3-1.6,0.1-2.4,0.3c-0.4,0.1-0.8,0-1.2,0
	c-0.8-0.1-1.5-0.2-2.3-0.2c-0.7,0-1.4,0.3-2.1,0.4c0,0.1,0,0.1,0,0.2c0.6,0.2,1.1,0.4,1.7,0.6c0.4-0.2,0.9-0.5,1.4-0.6
	c0.3-0.1,0.7,0,1,0.2c0.6,0.3,0.7,1.2,0,1.5c-0.6,0.3-1.1,0.8-1.9,0.3c-0.4-0.2-0.8,0.1-1.1,0.5c-0.2,0.3-0.3,0.5-0.5,0.8
	c-0.4-0.1-0.7-0.2-1-0.3c-0.3,0.3-0.6,0.7-1.3,0.5c0.2,1,1,0.5,1.5,0.7c0.4,0.3,1.1,0.2,1.8,0.3c0,0.2,0.1,0.5,0.2,0.8
	c0,0.5-0.3,0.9-0.7,1c0,0-0.1,0-0.1,0c-0.5,0.1-1,0.4-1.4,0.4c-0.5,0-1-0.3-1.4-0.6c-0.4-0.2-0.7-0.2-1,0c-0.2,0.2-0.1,0.3,0.1,0.4
	l0,0c-0.1,0.2-0.2,0.4-0.5,0.2c-0.2-0.1-0.5-0.2-0.9-0.4c0,0.3,0.1,0.5,0.1,0.9c-0.4-0.1-0.8-0.1-1.1-0.2c-0.5-0.1-1-0.1-1.5,0.2
	c-0.9,0.5-1.8,0.8-2.7,1.2c-0.1,0-0.2,0.1-0.4,0.1c-0.8-0.1-0.8-0.1-1.3,0.6c0.1,0.1,0.2,0.2,0.3,0.2c1.2-0.1,2.4-0.2,3.7,0
	c0.3,0,0.5,0.1,0.8,0c1.2-0.3,2.3,0.4,3.5,0.5c0.3,0,0.5,0.3,0.5,0.7c-0.2,0-0.4,0.1-0.5,0.1c-1.5-0.1-3.1-0.3-4.6-0.4
	c-0.2,0-0.4,0-0.6,0l0,0c-0.2-0.1-0.4-0.2-0.6-0.2c-0.9,0.3-1.9,0.2-2.8,0.1c-0.6,0-1.1,0-1.7,0.3c0.6,0.4,1.2,0.4,1.7,0.5
	c0.6,0.2,1.2,0.2,1.8,0.3c0.2,0,0.5,0,0.7,0c0.3,0,0.5,0,0.8,0c1.2,0.2,2.4,0.3,3.7,0.5c0.4,0.1,0.7,0.2,1,0.2
	c0.7,0.2,1.4,0.4,2.1,0.6c0.1,0,0.2,0.2,0.4,0.3c-0.4,0.4-0.7,0.2-1,0.1c-2.5-0.6-5.1-0.7-7.6-0.7c-1.9,0-3.8-0.1-5.8-0.2
	c-1.3,0-2.5-0.1-3.8-0.1c-1.2,0-2.4-0.1-3.6-0.1c-1.2,0-2.5,0.1-3.7,0.1c-1.5,0-2.9-0.1-4.4-0.2c-0.3,0-0.6,0-1,0
	c-0.8,0-1.6,0-2.4-0.1c-0.4,0-0.8,0-1.1,0c-0.2,0-0.3,0-0.5,0c-0.6-0.2-1.2-0.2-1.9-0.1c-0.4,0.1-1,0-1.4-0.2
	c-1-0.4-2.1-0.2-3.2-0.3c-0.5-0.1-1.1-0.1-1.6-0.2c-0.7-0.1-1.3-0.3-2,0c-0.2,0.1-0.4,0-0.6,0c-2.2-0.2-4.3-0.3-6.5-0.6
	c-1.2-0.2-2.3-0.1-3.5,0c-1,0-2.1-0.2-3.1-0.4c-1-0.1-2.1-0.2-3.1,0c-0.3,0.1-0.7,0.1-1.1,0c-1.1-0.1-2.1-0.2-3.2-0.3
	c-0.3,0-0.6,0-0.9,0c-0.7,0-1.5,0-2.2,0c-1,0-1.9,0.1-2.9,0.2c-0.9,0-1.8,0.1-2.7,0.1c-0.3,0-0.6,0.1-0.8,0.1
	c-0.1,0-0.1,0.1-0.2,0.1c-0.8-0.2-1.6-0.4-2.5-0.6c-0.5,0.3-1.1,0.4-1.8,0.5c-0.7,0.1-1.4,0.3-2.2,0.1c-0.1,0-0.1,0-0.2,0
	c-1,0.5-1.8,0.1-2.7-0.3c0,0,0,0,0,0c0-0.4-0.2-0.6-0.6-0.7c-0.7-0.1-1.4-0.3-2.2-0.3c-1.1-0.1-2.1-0.1-3.2-0.1
	c-1.8,0-3.6,0-5.4-0.3c-0.4-0.1-0.9-0.1-1.3,0c-1.5,0.3-2.9,0.4-4.3-0.3c-0.1-0.1-0.3,0-0.5,0c-1.3,0.6-2.5,0.2-3.8,0.1
	c-0.2,0-0.4,0-0.6,0c0,0,0,0,0,0c-0.5,0-1.1,0.1-1.6,0c-0.2,0-0.4-0.3-0.6-0.5c-2,0.3-4,0.6-6.1,0.2c-0.2,0-0.4-0.1-0.6,0
	c-1.5,0.5-3,0.1-4.4,0.2c-1.2,0.1-2.4,0.1-3.5,0.7c0.1,0.3,0.2,0.7,0.3,1c0.7,0,1.5,0,2,0.7c-0.2,0.4-0.7,0.5-1.1,0.4
	c-1-0.1-2.1-0.3-3.2-0.4c0,0.2,0,0.4,0.1,0.5c0,0.2,0.1,0.5,0,0.6c-0.1,0.2-0.3,0.3-0.5,0.5c-0.1-0.2-0.2-0.4-0.3-0.6
	c-0.4,0.2-0.7,0.4-1.1,0.6c-0.5,0.3-0.5,0.3-0.1,0.9c-0.4,0.5-0.9,1-1.3,1.5l0,0c-0.8-0.7-1.8-0.9-2.8-0.8c-0.2-0.3-0.3-0.5-0.5-0.8
	c0,0,0,0,0,0c-0.2,0-0.4,0-0.6-0.1c0.1-0.3,0.1-0.6,0.2-1.1c-0.6,0.1-1.2,0.2-1.7,0.2c-0.1-0.2-0.3-0.5-0.5-0.9
	c-0.1,0-0.2,0.1-0.3,0.1c-0.6,0.1-0.7-0.1-0.6-0.6c0.2-0.8,0.2-0.8-0.5-0.8l0,0c-0.1-1.1-1-1.2-1.8-1.5c-0.3-0.1-0.6,0-0.9-0.1
	c-0.6-0.2-1.1-0.1-1.5,0.4c-1-0.4-1.8-0.1-2.7,0.3c0-0.1,0.1-0.2,0.1-0.3c0-0.1,0-0.3-0.1-0.4c0,0-0.2,0-0.2,0
	c0,0.1-0.1,0.3-0.1,0.4c0,0.1,0.2,0.1,0.3,0.2c-0.3,0.1-0.5,0.2-0.7,0.3c-0.3-0.4-0.5-0.7-0.8-0.9c-0.3-0.1-0.6,0-0.8,0.4
	c0,0,0,0,0,0c-0.3-0.1-0.6-0.2-0.9-0.4c0,0.3,0,0.5,0,0.7c-0.1,0-0.2,0.1-0.2,0c-0.9-1.1-2-0.6-3-0.6c-0.4,0-0.9,0.2-1.3,0.3l0,0
	c-0.5-0.1-1.1,0.2-1.6-0.2c-0.1-0.1-0.3-0.3-0.4-0.4c0,0,0,0,0,0c-0.6,0.1-1.2,0.5-1.9,0c0,0-0.1,0-0.1,0c-0.9,0.6-1.8-0.1-2.7,0.1
	c-0.7,0.2-1.5-0.1-2.3-0.1c-1.4-0.2-2.7-0.4-4.1-0.5c-0.6-0.1-1.3,0-1.9,0c-0.7,0-1.4,0-2.1,0c-0.4,0-0.8-0.1-1.2,0
	c-0.2,0-0.5,0.2-0.6,0.3c-0.2,0.6-0.7,0.6-1.2,0.5c-1.9-0.4-3.7-0.7-5.6-1.1c-0.3-0.1-0.6,0-0.9,0c-0.6,0.1-1.2,0.1-1.8-0.3
	c-0.1,0-0.2-0.1-0.3-0.1c-0.6,0.4-1.1,0-1.6-0.1c-0.2,0-0.4,0.1-0.6,0.1c-0.2,0-0.4,0.1-0.7,0.1c-0.3,0-0.6,0.1-0.8,0.2
	c-0.5-0.2-1-0.2-1.6-0.1c-0.5,0.1-1.1,0-1.8,0c-0.2,0.1-0.6,0.4-1.1,0.7c0-0.3,0-0.5,0-0.8c-0.9-0.2-0.9-0.2-1.5,0.8
	c-0.2-0.1-0.5-0.2-0.9-0.4c0.3-0.2,0.6-0.3,0.9-0.5c-1.1-0.7-1.8,0-2.5,0.4c-0.2-0.1-0.4-0.2-0.6-0.3c-1.1-0.8-2.3-0.9-3.6-0.5
	c-0.8,0.2-1.6,0.3-2.4,0.4c0,0,0,0,0,0c-0.5-0.2-1-0.5-1.5-0.7c-1-0.5-1.7-0.3-2.3,0.6c-0.6-0.1-0.2-0.6-0.3-1
	c-0.7,0.1-1.4-0.4-2,0.5c-0.5-0.6-1.1-0.5-1.7-0.5C36.4,28.2,36.4,28.3,36.2,27.5C36.2,27.5,36.2,27.5,36.2,27.5z M29.8,25
	C29.8,25,29.8,25,29.8,25L29.8,25z M110.5,5.8C110.5,5.8,110.5,5.8,110.5,5.8L110.5,5.8z M119.1,6.8C119.1,6.8,119.1,6.8,119.1,6.8
	L119.1,6.8z M144.1,11.7C144.1,11.7,144.1,11.7,144.1,11.7C144.1,11.7,144.1,11.7,144.1,11.7C144.1,11.7,144.1,11.7,144.1,11.7z
	 M151.7,24.6L151.7,24.6c0.1,0,0.3,0,0.4,0c0,0.1,0.1,0.2,0,0c0.1,0.1,0.1,0,0,0C152,24.6,151.9,24.6,151.7,24.6z M78.8,7.4
	C78.8,7.4,78.8,7.4,78.8,7.4C78.8,7.4,78.8,7.4,78.8,7.4C78.8,7.4,78.8,7.4,78.8,7.4z M28.4,22.6C28.3,22.6,28.3,22.5,28.4,22.6
	C28.2,22.6,28.3,22.6,28.4,22.6C28.4,22.6,28.4,22.6,28.4,22.6z M103.9,8.9L103.9,8.9c0.1,0,0.2-0.1,0.3-0.1
	c-0.1-0.1-0.1-0.2-0.2-0.2C103.9,8.7,103.9,8.8,103.9,8.9z M104.8,8.9L104.8,8.9c0.2,0,0.3,0,0.5,0c0,0,0-0.1,0-0.1
	C105.1,8.8,105,8.9,104.8,8.9z M98,8.9C98,8.9,98,8.9,98,8.9C98,8.9,98,8.9,98,8.9c-0.2,0-0.3,0-0.5,0c0,0.1,0,0.1,0,0.2
	C97.7,9,97.8,9,98,8.9z M30.7,8.2C30.8,8.1,30.9,8,30.9,8c0,0,0.1,0,0.1,0c0.6,0.2,0.9,0.5,0.9,0.9c0,0.4-0.3,0.5-1,0.4
	c-0.9-0.1-1.8-0.3-2.6-0.6c-0.4-0.2-0.9-0.2-1.4-0.2c-0.6,0-1.2,0.2-1.8,0.2c-0.6,0-1.1-0.3-1.8-0.3c-0.9,0-1.8-0.3-2.7-0.5
	c-0.4-0.1-0.9-0.2-1.3-0.2c-2.2-0.2-4.4-0.3-6.7-0.5c-0.2,0-0.3-0.2-0.4-0.2c-0.2,0.2-0.4,0.3-0.5,0.4C11,6.5,10.7,6.4,9.6,6.1
	c0,0.4-0.5,0.8-0.2,1.2c0.5,0.1,0.9,0.2,1.3,0.2c0.7,0.1,1.4,0.2,2.2,0.3c0.1,0,0.3,0,0.4-0.1c0.5-0.2,1-0.2,1.4,0.2
	c0.1,0.1,0.4,0.1,0.5,0.2c0.2,0.1,0.4,0.3,0.6,0.4c0,0,0.1,0,0.1,0c0.1-0.2,0.1-0.3,0.3-0.8c1.3,1.4,2.8,1.7,4.5,2
	c-0.2-0.3-0.3-0.6-0.5-0.8c1-0.5,1.5-0.4,1.9,0.2c0.5-0.1,0.9-0.2,1.4-0.2c0.9,0.1,1.7,0.3,2.5,0.4c0.5,0.1,0.9,0.3,1.4,0.1
	c0.2-0.1,0.5,0.1,0.7,0.2c0,0,0,0,0,0c0.2,0.1,0.3,0.4,0.5,0.4c1.3,0.1,2.6,1,3.8-0.1c0.1-0.1,0.2,0,0.3-0.1c0.5,0.5,1,0.8,1.6,0.2
	c0.1-0.1,0.4,0,0.6,0c0.7,0.1,1.3,0.1,2,0.2c0-0.6,0.1-1,0.1-1.5c-1-0.1-1.6,0.8-2.5,0.3c0,0-0.2,0.1-0.2,0.1
	C34,9.7,33.5,9.5,33,9.5c-0.4,0-0.6-0.2-0.7-0.6c-0.1-0.3-0.3-0.6-0.5-0.9C31.6,7.6,31.3,7.6,31,8C30.9,8,30.8,8.1,30.7,8.2
	c-0.1-0.1-0.2-0.2-0.3-0.3c0,0.1-0.1,0.2,0,0.2c0.1,0.1,0.2,0.2,0.4,0.4C30.7,8.3,30.7,8.2,30.7,8.2z M169.9,26.7
	c0.3,0.1,0.6,0.1,0.9,0.2c0-0.1,0-0.1,0-0.2C170.5,26.7,170.2,26.7,169.9,26.7L169.9,26.7z M130,28.1c0.2,0.1,0.3,0.2,0.5,0.4
	C130.5,28,130.5,28,130,28.1c-0.1-0.1-0.3-0.3-0.4-0.4c-0.3-0.7-0.3-0.7-1-0.5c0.1,0.6,0.7,0.3,1,0.5C129.8,27.8,129.9,28,130,28.1z
	 M32.1,24.2c-0.1,0-0.2,0-0.3-0.1c0,0.1,0,0.2,0.1,0.3C31.9,24.3,32,24.2,32.1,24.2c0.4-0.1,0.4-0.1,0.5-0.5
	C32.5,23.9,32.3,24,32.1,24.2z M226.6,15.6c-0.3-0.2-0.6-0.4-1,0C225.9,15.6,226.3,15.6,226.6,15.6c0.1,0,0.1,0.1,0.2,0.1
	C226.7,15.7,226.7,15.6,226.6,15.6z M240.7,26.5c0,0.1,0,0.3-0.1,0.6c0.4-0.2,0.6-0.3,0.9-0.5c0-0.1-0.1-0.1-0.1-0.2
	C241.1,26.5,240.9,26.5,240.7,26.5L240.7,26.5z M196.1,30.8c-0.6-0.5-1.3-0.6-2-0.2c-0.2-0.1-0.4-0.3-0.6-0.4
	c-0.4-0.2-0.8-0.3-1.2-0.5c-0.4,0-0.9,0-1.4,0.1c0.1,0.4,0.3,0.5,0.6,0.5c0.9,0.1,1.7,0.2,2.6,0.2C194.8,31.2,195.4,31,196.1,30.8
	c0.4,0.2,0.7,0.3,1.2,0C196.8,30.5,196.4,30.9,196.1,30.8z M79.6,7.8L79.6,7.8c0.5,0,0.9-0.2,1.4,0.1c0.4,0.2,0.7,0,0.8-0.4
	c-0.5-0.1-0.9-0.3-1.4-0.4C79.8,6.9,79.7,7.1,79.6,7.8z M19.6,20.5L19.6,20.5c0.7-0.4,0.7-0.5,0-1l0,0c-0.2-0.5-0.7-0.5-1.2-0.7
	c0.2,0.4,0.3,0.6,0.5,0.9l0,0C18.9,20.2,19.3,20.2,19.6,20.5z M156.8,17.9c0,0.2,0.1,0.3,0.1,0.5c0.1,0,0.2,0.1,0.3,0.1
	c1.1,0.2,2.1,0.3,3.2,0.5c0.3,0,0.4-0.2,0.4-0.5C159.4,18.3,158.1,18.1,156.8,17.9C156.8,17.9,156.8,17.9,156.8,17.9z M112.3,19.3
	c0.1-0.2,0.1-0.4,0.2-0.8c-0.8,0-1.4,0.1-2.1,0.1c-0.7,0-1.1,0.4-1.6,1c0.4,0.1,0.7,0.2,1,0.2C110.7,19.7,111.5,19.7,112.3,19.3
	C112.3,19.3,112.3,19.4,112.3,19.3C112.3,19.4,112.3,19.3,112.3,19.3z M84.9,6.2c-0.2-0.1-0.4-0.3-0.5,0.2c0,0.2-0.1,0.4-0.1,0.6
	l0,0c0.8,0.2,1.5,0.6,2.5,0.3c0.8-0.3,1.8,0.1,2.7,0.2c0.6,0.1,1.2,0,1.8-0.3c-0.3-0.5-0.7-0.5-1.1-0.5c-0.5,0-1,0-1.5,0
	c-0.2,0-0.5-0.1-0.7-0.3c-0.7-0.8-0.7-0.8-1.6-0.4c-0.2,0.4-0.4,0.7-0.6,0.9c-0.3-0.2-0.5-0.4-0.8-0.5C85,6.3,84.9,6.2,84.9,6.2
	L84.9,6.2z M182.9,20.8c0-0.1,0-0.1,0-0.2c-1.1-0.2-2.2-0.4-3.3-0.4c-1.3-0.1-2.7-0.1-4.1-0.2c-0.2,0-0.4,0-0.6,0c-1,0-2.1,0-3.1,0
	c-0.7,0-1.3,0.2-2.1,0.6c0.2,0.1,0.4,0.2,0.5,0.2c3.8,0.5,7.5,0.3,11.3,0.3C182,21.1,182.4,20.9,182.9,20.8z M20.9,18.4
	C20.9,18.4,20.9,18.4,20.9,18.4c0.6,0.1,1.1,0.1,1.7,0.2c1.3,0.1,2.6,0.3,3.9,0.4c0.6,0.1,1.1,0.2,1.7,0.1c0.9-0.1,1.8-0.2,2.8-0.1
	c0.6,0.1,1.2,0.1,1.8,0c0.3,0,0.7-0.1,1-0.2c0-0.1,0-0.1,0-0.2c-0.3,0-0.7-0.1-1-0.1c-1-0.1-1.9-0.2-2.8-0.8
	c-0.3-0.2-0.8-0.2-1.2-0.2C26.1,17.8,23.5,18.1,20.9,18.4z M167.5,7.7c-0.6-0.4-1.1-0.4-1.5-0.3c-0.4,0-0.7,0.1-1.1,0.1
	c-1.3-0.1-2.6-0.2-3.8-0.3c-0.5,0-1-0.1-1.5,0c-1,0.2-2.1,0.5-3.1,0c-0.1,0.7,0,1,0.5,1c0.8,0,1.5,0.1,2.3,0
	c0.8-0.1,1.6-0.2,2.4-0.3c0.2,0,0.5,0,0.7,0.1c0.4,0.2,0.7,0.1,1.1-0.1c0.7-0.3,0.8-0.2,1.4,0.3C165.7,8.1,166.5,8,167.5,7.7z
	 M222.3,14.1c0-0.1,0-0.1-0.1-0.2c-3.7,0.3-7.3,0.6-11.1,0.9c0.2,0.5,0.5,0.5,0.8,0.4c0.4,0,0.7-0.1,1.1-0.1c1.4,0,2.7,0,4.1,0
	c0.7,0,1.4,0,2-0.2c0.6-0.1,1.2-0.2,1.6,0.1C221.3,14.7,221.8,14.4,222.3,14.1z M184.8,14.8c0-0.5-0.2-0.6-0.5-0.6
	c-1.1,0-2.2,0-3.3,0.1c-0.2,0-0.6,0.2-0.6,0.4c-0.1,0.3,0.2,0.5,0.5,0.6c0.8,0.1,1.6,0.2,2.4,0.2c0.3,0,0.6-0.1,0.8-0.2
	C184.4,15.2,184.6,15,184.8,14.8z M238.7,22.5c0,0.1,0,0.1,0,0.2c0.3,0.1,0.6,0.2,0.8,0.2c0.6-0.1,1.3-0.2,1.9-0.3
	c0.3-0.1,0.6-0.2,0.7-0.6c0-0.3-0.4-0.4-0.9-0.3c-0.1,0-0.1,0-0.2,0c-0.6,0.2-1.1,0.3-1.7,0.5C239.1,22.3,238.9,22.4,238.7,22.5z
	 M95.2,6.7c-1.2-0.9-2.3-0.3-3.4,0c0.2,0.3,0.4,0.5,0.5,0.6c0.4-0.1,0.7-0.2,1-0.1C93.9,7.3,94.5,7.1,95.2,6.7z M171.7,30.3
	c-0.3,0-0.6,0-0.8-0.1c-0.2-0.1-0.6-0.1-0.7-0.3c-0.4-0.5-0.8-0.3-1.2-0.2c-0.4,0.1-0.7,0.4-1.1,0.7
	C169.3,30.6,170.5,30.9,171.7,30.3z M189.2,11.7c-0.3-0.4-0.3-0.4-2.8-0.4c-0.5,0-1.2-0.3-1.7,0.5c0.3,0.1,0.5,0.2,0.7,0.2
	c0.5,0,1-0.2,1.4-0.2C187.6,11.7,188.4,11.3,189.2,11.7z M189.2,30.4c0.2-0.1,0.5-0.2,0.8-0.3c-0.7-0.9-1.8-0.5-2.6-0.9
	c-0.1-0.1-0.3-0.1-0.5,0c-0.1,0-0.1,0.1-0.3,0.2C187.5,29.7,188.3,30,189.2,30.4z M227.2,22.7c-0.5,0-1,0-1.4-0.1
	c-0.8-0.2-1.4,0-2.2,0.3c0.1,0.1,0.2,0.1,0.3,0.1c0.7,0.1,1.4,0.2,2.1,0.3C226.6,23.4,226.7,23.3,227.2,22.7z M8.8,7.6
	C8.7,7.1,8.6,6.6,8.5,6.2c-1-0.2-1.2-0.1-1.3,1C7.7,7.3,8.2,7.4,8.8,7.6z M194.4,11.3c-0.9,0-1.9-0.5-2.9,0.3c0.6,0,1-0.1,1.3,0
	C193.5,12,193.9,11.6,194.4,11.3z M76.7,16.1c0,0.1,0,0.2,0,0.3c0.8,0,1.5,0,2.3,0c0.3,0,0.7,0,0.9-0.5C78.8,15.9,77.8,16,76.7,16.1
	z M175.1,30.7c-0.1-0.3-0.2-0.5-0.2-0.5c-0.6,0-1.3-0.2-2,0.3C173.6,31.1,174.3,30.6,175.1,30.7z M230.5,34c0-0.1,0-0.2,0.1-0.3
	c-0.7-0.5-1.4-0.3-2.1-0.2c0,0.1,0,0.1,0,0.2C229.1,33.8,229.8,33.9,230.5,34z M202,21.9c-0.4,0-0.7,0.1-1,0.1c-0.3,0-0.6,0-1,0.2
	C201.7,22.7,201.7,22.7,202,21.9z M201,11.2c-1,0-1.9,0-2.9,0C199.1,11.7,200.1,11.6,201,11.2z M178.7,30.1
	c-0.3,0.3-0.4,0.6-0.1,0.8c0.3,0.2,0.7,0.1,1-0.4C179.2,30.4,178.9,30.2,178.7,30.1z M235.1,9.8c-0.5-0.4-1.1-0.4-1.7,0
	C234,9.7,234.5,10.2,235.1,9.8z M133.9,26.9c-0.6,0.2-1.1,0.3-1.6,0.4C133,27.8,133.3,27.7,133.9,26.9z M234.1,22.2
	c0.5,0.2,1.1,0.3,1.6,0C235.1,22,234.6,21.8,234.1,22.2z M26.1,22.8c0.4-0.1,0.9,0.2,1.2-0.4C26.7,22.1,26.6,22.1,26.1,22.8z
	 M220.8,12c-0.2-0.3-0.5-0.5-0.8-0.3c-0.1,0-0.1,0.3,0,0.3C220.2,12.3,220.5,12.3,220.8,12z M98.5,5.3c0.2,0.6,0.4,0.9,0.9,1
	C99.2,5.6,99.2,5.6,98.5,5.3z M166.9,30.5c-0.8-0.4-0.9-0.4-1.3,0.1C166.1,30.6,166.5,30.6,166.9,30.5z M7.3,1.2
	C7.5,2,7.5,2,7.9,1.9C8,1.9,8,1.7,8.1,1.6C8,1.5,7.9,1.4,7.7,1.4C7.6,1.3,7.5,1.3,7.3,1.2z M101.3,8.6c0.2,0.1,0.3,0.3,0.4,0.3
	c0.1,0,0.3-0.2,0.4-0.3c-0.1-0.1-0.2-0.3-0.4-0.3C101.6,8.3,101.5,8.4,101.3,8.6z M170,9.3c0.3,0.1,0.4,0.2,0.6,0.3
	c0.1,0,0.2-0.1,0.3-0.2c-0.1-0.1-0.2-0.3-0.4-0.3C170.3,9,170.2,9.2,170,9.3z M161.4,18.5c0.3-0.1,0.7-0.2,1-0.4
	c0-0.1-0.1-0.1-0.1-0.2C161.9,18,161.5,17.8,161.4,18.5z M194.3,16.7c-0.4-0.5-0.6-0.5-0.8-0.2c0,0,0,0.1,0,0.3
	C193.7,16.7,193.9,16.7,194.3,16.7z M199.6,31.3c-0.3,0-0.6-0.5-1.2,0C199,31.3,199.3,31.3,199.6,31.3z M137.9,22.9
	c0,0.1,0.1,0.2,0.1,0.3c0.2-0.1,0.3-0.2,0.5-0.3c0,0-0.1-0.2-0.1-0.2C138.2,22.8,138.1,22.9,137.9,22.9z M119.8,7.5
	c0,0.1,0,0.2-0.1,0.2c0.2,0,0.3,0.1,0.5,0.1c0-0.1,0.1-0.2,0.1-0.2C120.1,7.6,119.9,7.5,119.8,7.5z M190.7,11.5c0-0.1,0-0.1-0.1-0.2
	c-0.2,0-0.4,0.1-0.7,0.1c0,0.1,0,0.1,0,0.2C190.2,11.6,190.4,11.5,190.7,11.5z M225.5,30.3c0-0.1-0.1-0.1-0.1-0.2
	c-0.1,0.1-0.3,0.1-0.4,0.2c0,0,0,0.1,0.1,0.2C225.2,30.4,225.3,30.4,225.5,30.3z M89.4,17.5c0,0.1,0.1,0.1,0.1,0.2
	c0.1-0.1,0.3-0.1,0.4-0.2c0,0,0-0.1-0.1-0.2C89.6,17.3,89.5,17.4,89.4,17.5z M33.7,25c0,0,0-0.1,0-0.1c-0.1,0-0.2-0.1-0.3-0.1
	c-0.1,0-0.2,0.1-0.3,0.2c0,0.1,0,0.1,0.1,0.2C33.3,25,33.5,25,33.7,25z M20.9,22.8c0.1-0.1,0.1-0.2,0.1-0.3c0-0.1-0.1-0.1-0.2-0.2
	c-0.1,0.1-0.2,0.1-0.2,0.2C20.7,22.6,20.7,22.6,20.9,22.8z M23.4,4.4c0.1-0.1,0.2-0.2,0.2-0.2c0-0.1-0.1-0.2-0.1-0.2
	c0,0-0.1,0-0.2,0.1C23.3,4.1,23.3,4.2,23.4,4.4z M161.3,32c0,0.1,0.1,0.1,0.1,0.2c0.1-0.1,0.2-0.2,0.3-0.2c-0.1-0.1-0.1-0.2-0.2-0.2
	C161.5,31.8,161.4,31.9,161.3,32z M55.3,7.1c0.1-0.1,0.2-0.1,0.2-0.1c0-0.1,0-0.2-0.1-0.2c0,0-0.1,0.1-0.1,0.1
	C55.2,7,55.3,7,55.3,7.1z M113.3,5.9c0-0.1,0.1-0.1,0.1-0.2c-0.2,0-0.3-0.1-0.5-0.1c0,0.1,0,0.1-0.1,0.2
	C113,5.8,113.2,5.9,113.3,5.9z M163.5,8.7c0,0,0,0.1,0,0.1c0.2,0,0.3,0,0.5,0c0,0,0-0.1,0-0.1C163.8,8.7,163.6,8.7,163.5,8.7z
	 M197.2,11.4c0-0.1,0-0.1,0-0.2c-0.1,0-0.3,0.1-0.4,0.1c0,0,0,0.1,0,0.1C197,11.4,197.1,11.4,197.2,11.4z M6.2,6.7
	C6.1,6.9,6,6.9,6,7c0,0,0.1,0.1,0.1,0.1C6.2,7.1,6.3,7,6.3,7C6.3,6.9,6.3,6.8,6.2,6.7z M226.3,30.2c0,0.1,0,0.1,0,0.2
	c0.1,0,0.3-0.1,0.4-0.1c0,0,0-0.1,0-0.1C226.6,30.2,226.4,30.2,226.3,30.2z M19,3.9c0,0,0.1,0,0.1-0.1c0,0,0-0.1-0.1-0.1
	c0,0-0.1,0-0.1,0.1C18.9,3.8,19,3.8,19,3.9z M26,9.8c-0.1,0-0.1-0.1-0.2-0.1c-0.1,0-0.1,0.1-0.1,0.1c0.1,0,0.1,0.1,0.2,0.1
	C25.9,10,25.9,9.9,26,9.8z M223.5,33.8c0.1,0,0.1-0.1,0.2-0.1c-0.1-0.1-0.1-0.1-0.2-0.1c0,0-0.1,0-0.1,0.1
	C223.4,33.7,223.5,33.8,223.5,33.8z M31.2,23.5c0,0,0.1,0.1,0.1,0.1c0,0,0.1-0.1,0.1-0.1c0,0,0-0.1,0-0.1
	C31.3,23.4,31.3,23.4,31.2,23.5z M95.3,5.8c0,0,0.1,0.1,0.1,0.1c0.1,0,0.1-0.1,0.2-0.1c-0.1,0-0.1-0.1-0.2-0.1
	C95.4,5.7,95.3,5.8,95.3,5.8z M159.9,31.7c0,0,0.1-0.1,0.1-0.1c0,0-0.1-0.1-0.1-0.1C159.9,31.5,159.8,31.6,159.9,31.7
	C159.8,31.6,159.8,31.6,159.9,31.7z M15,4.6c0,0,0.1-0.1,0.1-0.1c0,0-0.1-0.1-0.1-0.1C15,4.4,14.9,4.5,15,4.6
	C14.9,4.5,14.9,4.5,15,4.6z M160.4,9.3c0,0-0.1-0.1-0.1-0.1c0,0-0.1,0.1-0.1,0.1C160.3,9.3,160.3,9.3,160.4,9.3
	C160.4,9.3,160.4,9.3,160.4,9.3z M75.7,7.4c0,0-0.1,0-0.1,0c0,0,0,0.1,0,0.1c0,0,0.1,0,0.1,0C75.6,7.4,75.6,7.4,75.7,7.4z M232.7,19
	c0,0-0.1,0.1-0.1,0.1c0,0,0,0.1,0.1,0c0,0,0.1,0,0.1-0.1C232.8,19,232.7,19,232.7,19z M10.9,21.2c0,0-0.1-0.1-0.1-0.1
	c0,0-0.1,0.1-0.1,0.1c0,0,0.1,0.1,0.1,0.1C10.8,21.3,10.9,21.2,10.9,21.2z M67.9,6.3c0,0-0.1-0.1-0.1-0.1c0,0-0.1,0.1-0.1,0.1
	c0,0,0.1,0.1,0.1,0.1C67.8,6.4,67.8,6.3,67.9,6.3z M229.6,9.3c0,0-0.1-0.1-0.1-0.1c0,0-0.1,0-0.1,0.1c0,0,0,0.1,0.1,0.1
	C229.5,9.3,229.6,9.3,229.6,9.3z M103,6.2c0.1,0,0.1,0,0.2-0.1c0,0-0.1-0.1-0.1-0.1c-0.1,0-0.1,0-0.2,0.1C102.9,6.1,103,6.2,103,6.2
	z M97.6,5.4c0,0,0.1,0.1,0.1,0.1c0,0,0.1,0,0.1,0c0,0,0-0.1,0-0.1C97.7,5.4,97.6,5.4,97.6,5.4z M96,4.8C96,4.8,96.1,4.8,96,4.8
	c0.1,0,0-0.1,0-0.1C96,4.7,96,4.7,96,4.8C96,4.7,96,4.8,96,4.8z M127.5,27.3C127.5,27.3,127.5,27.4,127.5,27.3c0.1,0.1,0.1,0,0.2,0
	c0,0,0,0,0-0.1C127.6,27.3,127.6,27.3,127.5,27.3z M232.2,34C232.1,34,232.1,34,232.2,34c-0.1,0-0.1,0.1-0.1,0.1
	C232.1,34.1,232.1,34.1,232.2,34C232.2,34.1,232.1,34,232.2,34z M114.2,34.7c0,0,0,0.1,0.1,0.1c0,0,0.1,0,0.1,0
	C114.3,34.8,114.3,34.7,114.2,34.7C114.2,34.7,114.2,34.7,114.2,34.7z M11.5,8.2C11.6,8.2,11.6,8.2,11.5,8.2c0.1,0,0.1,0,0.1,0
	C11.6,8.1,11.6,8.1,11.5,8.2C11.6,8.1,11.6,8.2,11.5,8.2z M17.2,22.6C17.2,22.6,17.2,22.7,17.2,22.6c0,0.1,0.1,0.1,0.1,0
	C17.3,22.6,17.3,22.6,17.2,22.6C17.3,22.6,17.2,22.6,17.2,22.6z M163.3,30.4c0,0,0-0.1,0.1-0.1c0,0,0,0-0.1,0
	C163.3,30.3,163.3,30.3,163.3,30.4C163.2,30.4,163.3,30.4,163.3,30.4z M196,11.4C196,11.4,196,11.3,196,11.4c-0.1-0.1-0.1-0.1-0.2,0
	C195.9,11.4,195.9,11.4,196,11.4C195.9,11.4,196,11.4,196,11.4z M162.3,31.9C162.4,31.9,162.4,31.9,162.3,31.9c0.1-0.1,0-0.1,0-0.1
	c0,0,0,0-0.1,0C162.3,31.8,162.3,31.9,162.3,31.9z M156.5,30C156.5,29.9,156.5,29.9,156.5,30c-0.1-0.1-0.1-0.1-0.2-0.1
	C156.4,29.9,156.4,30,156.5,30C156.5,30,156.5,30,156.5,30z M200.8,16.6C200.8,16.6,200.8,16.6,200.8,16.6c0.1,0,0.1-0.1,0-0.1
	C200.8,16.5,200.8,16.5,200.8,16.6C200.7,16.6,200.8,16.6,200.8,16.6z M169.3,20.3C169.3,20.3,169.3,20.3,169.3,20.3
	c0-0.1,0-0.1,0-0.2C169.3,20.2,169.3,20.2,169.3,20.3C169.2,20.3,169.3,20.3,169.3,20.3z M23.9,9.4C23.8,9.4,23.8,9.4,23.9,9.4
	C23.8,9.4,23.8,9.4,23.9,9.4C23.8,9.5,23.8,9.5,23.9,9.4C23.9,9.5,23.8,9.4,23.9,9.4z M108.8,6.1L108.8,6.1L108.8,6.1L108.8,6.1z
	 M24.3,4.5L24.3,4.5L24.3,4.5L24.3,4.5z M116.8,33.3L116.8,33.3L116.8,33.3L116.8,33.3z M88.1,5.3L88.1,5.3L88.1,5.3L88.1,5.3z
	 M77.6,7.5L77.6,7.5L77.6,7.5L77.6,7.5z M162.8,17.8L162.8,17.8L162.8,17.8L162.8,17.8z M243.6,28.3L243.6,28.3L243.6,28.3
	L243.6,28.3z M152.7,8.8L152.7,8.8L152.7,8.8L152.7,8.8z M63.4,6L63.4,6L63.4,6L63.4,6z M92.6,5.5L92.6,5.5L92.6,5.5L92.6,5.5z
	 M180.7,30.8L180.7,30.8L180.7,30.8L180.7,30.8z M225.1,33.7L225.1,33.7L225.1,33.7L225.1,33.7z M144.6,10L144.6,10L144.6,10
	L144.6,10z M240,26.4L240,26.4L240,26.4L240,26.4z M176.6,30.5L176.6,30.5L176.6,30.5L176.6,30.5z"/>
</svg>
