<?xml version="1.0" encoding="utf-8"?>
<!-- Generator: Adobe Illustrator 18.1.1, SVG Export Plug-In . SVG Version: 6.00 Build 0)  -->
<svg version="1.1" id="Layer_1" xmlns="http://www.w3.org/2000/svg" xmlns:xlink="http://www.w3.org/1999/xlink" x="0px" y="0px"
	 viewBox="0 0 46.8 50.9" enable-background="new 0 0 46.8 50.9" xml:space="preserve">
<g>
	<g>
		
			<path fill="#231F20" stroke="#231F20" stroke-width="6.8545" stroke-linecap="round" stroke-linejoin="round" stroke-miterlimit="10" d="
			M5.1,24.8c0.7-9.5,8.3-18.4,18.4-18.4c8.7,0,18.6,9.1,18.6,19.2S31,43.2,23.5,43.2C13.3,43.2,4.3,35,5.1,24.8z"/>
		
			<path fill="#231F20" stroke="#231F20" stroke-width="6.8545" stroke-linecap="round" stroke-linejoin="round" stroke-miterlimit="10" d="
			M42.1,27.9c-0.1,0.2-0.1,0.4-0.2,0.6c0,0.2-0.1,0.4-0.1,0.6c0,0.2-0.1,0.4-0.2,0.6c0,0.3-0.1,0.6-0.2,0.9
			c-0.1,0.2-0.1,0.4-0.2,0.6c0,0.1,0,0.2,0,0.3c0,0.2-0.1,0.4-0.1,0.6c0,0.1-0.1,0.2-0.2,0.3c-0.2,0.2-0.3,0.5-0.4,0.8
			c-0.2,0.2-0.3,0.4-0.4,0.6c0,0.1-0.1,0.2-0.2,0.2c-0.2,0.2-0.4,0.5-0.6,0.7c0,0-0.1,0.1-0.1,0.1c-0.1,0.3-0.3,0.4-0.4,0.6
			c-0.3,0.2-0.5,0.5-0.8,0.7c-0.2,0.2-0.4,0.4-0.7,0.5c-0.1,0.1-0.2,0.2-0.3,0.3c-0.1,0.1-0.2,0.3-0.4,0.4c-0.1,0.1-0.3,0.2-0.4,0.3
			c-0.3,0.2-0.5,0.4-0.8,0.7c-0.3,0.3-0.6,0.5-0.8,0.7c-0.1,0.1-0.2,0.2-0.3,0.3c-0.3,0.3-0.6,0.5-0.9,0.7c0,0-0.1,0.1-0.2,0.1
			c-0.2,0.1-0.3,0.2-0.5,0.3c-0.1,0-0.1,0.1-0.2,0.1c-0.1,0-0.2,0.1-0.3,0.1c-0.3,0.2-0.6,0.4-0.9,0.6c-0.3,0.2-0.6,0.4-0.9,0.6
			c0,0.1-0.1,0.1-0.1,0.2c-0.1,0.2-0.2,0.4-0.4,0.6c-0.1,0.1-0.2,0.2-0.3,0.3c-0.2,0.1-0.4,0.3-0.6,0.4c-0.2,0.1-0.3,0.2-0.5,0.2
			c-0.1,0-0.2,0-0.2,0.1c-0.3,0.1-0.7,0.2-1,0.2c-0.1,0-0.1,0-0.2,0c-0.1,0-0.2,0.1-0.3,0.1c-0.1,0-0.1,0.1-0.2,0.1
			c-0.3,0-0.5,0.1-0.8,0.2c-0.3,0.1-0.6,0.2-1,0.2c-0.3,0-0.5,0-0.8-0.1c-0.2-0.1-0.4,0-0.6,0c-0.3,0-0.7,0-1-0.1
			c-0.2,0-0.3,0.1-0.4,0c-0.1,0-0.2-0.1-0.3-0.1c-0.4,0-0.8-0.1-1.2-0.1c-0.1,0-0.2,0-0.3-0.1c-0.3-0.1-0.6-0.2-0.8-0.3
			c-0.2-0.1-0.4-0.2-0.6-0.2c-0.3-0.1-0.7-0.3-1-0.3c0,0,0,0-0.1,0c-0.2-0.2-0.5-0.2-0.8-0.3c-0.2-0.1-0.5-0.2-0.7-0.3
			c-0.1,0-0.1-0.1-0.2-0.1c-0.3,0-0.5-0.1-0.7-0.2c-0.2-0.1-0.5-0.2-0.7-0.4c-0.2-0.1-0.4-0.2-0.5-0.2c-0.2-0.1-0.5-0.2-0.7-0.3
			c-0.2-0.1-0.3-0.2-0.5-0.3c-0.4-0.1-0.7-0.4-1.1-0.6c-0.4-0.3-0.9-0.6-1.3-0.9c-0.3-0.3-0.5-0.6-0.9-0.9c-0.3-0.2-0.5-0.5-0.8-0.7
			c-0.3-0.2-0.5-0.5-0.7-0.8c-0.1-0.1-0.2-0.3-0.2-0.4c-0.1-0.2-0.2-0.3-0.3-0.5C7.4,35.7,7.2,35.3,7,35c-0.3-0.4-0.6-0.9-0.8-1.4
			c0-0.1-0.1-0.1-0.1-0.2c-0.2-0.4-0.4-0.8-0.6-1.3c-0.1-0.3-0.2-0.7-0.3-1c-0.1-0.2-0.1-0.4-0.1-0.6c0-0.5,0-0.8-0.2-1.4
			c0-0.1,0-0.1,0-0.2c0-0.3-0.1-0.7-0.1-1c0-0.2,0-0.4,0-0.6c0-0.1,0-0.2,0-0.2c0-0.2,0-0.3,0-0.5c0-0.2,0-0.3,0-0.5
			c0-0.2,0-0.3,0-0.5c0-0.1,0.1-0.2,0.2-0.3c0-0.1-0.1-0.2-0.1-0.3c0-0.2,0-0.4,0-0.6c0-0.1,0-0.3,0-0.4c0-0.1,0-0.2,0-0.2
			c0-0.2,0-0.3,0-0.5C5,23.2,5,23.1,5,22.9c0-0.2-0.1-0.3,0-0.5c0-0.2,0-0.3,0.1-0.5c0-0.1,0-0.2,0.1-0.2c0.2-0.4,0.2-0.8,0.3-1.3
			c0.2-0.3,0.3-0.7,0.3-1.1C5.9,19.1,5.9,19.1,6,19c0-0.1,0-0.2,0.1-0.3c0.1,0,0.1,0,0.2,0c0,0,0,0,0,0c0.1-0.1,0.1-0.3,0.2-0.5
			c0-0.1-0.1-0.1-0.2-0.1c0,0,0-0.1,0-0.1c0.1-0.1,0.2-0.3,0.3-0.4c0-0.1,0.1-0.2,0.2-0.2c0.1-0.1,0.1-0.2,0.2-0.2
			c0.1-0.2,0.3-0.4,0.3-0.6c0.1-0.1,0.2-0.3,0.4-0.5c0.1-0.1,0.1-0.2,0.2-0.2c0.1-0.1,0-0.3,0.2-0.4C8,15.2,8.1,15,8.2,14.9
			c0.1-0.1,0.1-0.2,0.2-0.3c0.2-0.2,0.4-0.4,0.6-0.7c0.1-0.2,0.3-0.3,0.3-0.5c0-0.1,0.1-0.1,0.1-0.2c0.2-0.2,0.5-0.5,0.7-0.7
			c0.2-0.2,0.3-0.3,0.4-0.5c0.1-0.2,0.3-0.4,0.5-0.6c0.3-0.1,0.4-0.4,0.7-0.5c0.1-0.1,0.2-0.3,0.4-0.5c0.1-0.1,0.2-0.3,0.3-0.4
			c0.2-0.1,0.4-0.1,0.6-0.4c0,0,0.1-0.1,0.1-0.1c0,0,0.1-0.1,0.1-0.1c0.1,0,0.2-0.1,0.3-0.1c0-0.2,0.1-0.3,0.2-0.4
			c0.1,0,0.2,0,0.2,0c0.2-0.2,0.4-0.4,0.6-0.5c0,0,0,0,0.1,0c0.1,0,0.1,0,0.2,0c0.1,0,0.1-0.2,0.2-0.2c0,0,0.1,0,0.1,0
			c0.1-0.1,0.3-0.1,0.4-0.2C15.7,8.1,15.9,8,16,7.9c0.2,0,0.3,0,0.4-0.1c0.1-0.1,0.2-0.2,0.2-0.3c0.2,0,0.3,0,0.5,0
			c0.1-0.1,0.2-0.1,0.4-0.2c0.1,0,0.3-0.1,0.4-0.1C18,7.1,18,7,18.1,7c0,0,0,0,0,0c0.1,0,0.3,0,0.4-0.1c0.1,0,0.2,0,0.3,0.1
			c0.1-0.1,0.1-0.1,0.2-0.2c0.2,0,0.4,0,0.6-0.1c0.1,0,0.2,0,0.3,0c0.2,0,0.4,0,0.5,0c0.2,0,0.4,0,0.5,0c0.1,0,0.2,0,0.3,0
			c0.1,0,0.1-0.1,0.2-0.1c0.1,0,0.2,0.1,0.2,0.1c0.4-0.1,0.9-0.1,1.3-0.1c0.1,0,0.2,0,0.3,0.1c0.1,0,0.2,0,0.3,0c0.1,0,0.2,0,0.3,0
			c0.1,0,0.2,0,0.3,0c0.1,0,0.3,0.1,0.4,0c0.2,0,0.3,0,0.5,0c0.2,0,0.5,0.1,0.7,0.1c0.3,0.1,0.6,0.1,0.9,0.1C27,6.9,27.2,7,27.3,7.1
			c0.1,0,0.2,0,0.3,0c0.1,0,0.2,0.1,0.3,0.1c0.1,0,0.2,0.1,0.3,0.1c0.1,0,0.1,0.1,0.2,0.1c0.1,0,0.2,0,0.2,0.1
			c0.4,0.2,0.8,0.3,1.2,0.4c0.1,0,0.1,0,0.2,0.1c0.2,0.2,0.4,0.2,0.7,0.4c0,0,0,0,0.1,0c0.2,0,0.5,0.1,0.7,0.2
			c0.1,0,0.2,0.1,0.3,0.1c0.2,0.1,0.4,0.3,0.7,0.4c0.2,0,0.3,0.1,0.4,0.2c0,0,0,0,0.1,0c0,0,0.1,0,0.1,0c0.1,0.1,0.2,0.2,0.3,0.4
			c0.1,0.1,0.3,0.1,0.4,0.2c0.1,0.1,0.2,0.2,0.3,0.2c0.1,0,0.2,0.2,0.3,0.3c0.1,0,0.2,0.1,0.4,0.2c0.1,0,0.2,0.1,0.2,0.2
			c0,0,0.1,0.1,0.1,0.1c0.2,0.1,0.4,0.3,0.7,0.5c0.1,0.1,0.2,0.2,0.4,0.3c0.2,0.2,0.2,0.2,0.3,0.6c0.2,0.2,0.3,0.4,0.5,0.5
			c0.1,0.1,0.2,0.2,0.4,0.3c0.3,0.2,0.5,0.4,0.6,0.6c0.1,0.1,0.2,0.2,0.2,0.3c0.3,0.4,0.5,0.8,0.8,1.2c0,0,0,0.1,0.1,0.2
			c0,0.1,0.1,0.2,0.1,0.3c0.1,0.2,0.2,0.4,0.3,0.7c0.1,0.2,0.3,0.4,0.4,0.7c0.1,0.1,0.2,0.2,0.2,0.4c0.1,0.3,0.3,0.6,0.4,1
			c0.2,0.4,0.3,0.8,0.6,1.1c0.2,0.3,0.4,0.7,0.5,1c0.1,0.3,0.2,0.5,0.3,0.8c0.1,0.3,0.2,0.6,0.3,0.8c0,0.1,0,0.2,0.1,0.3
			c0.1,0.4,0.2,0.8,0.1,1.2c0,0.3,0,0.7,0,1c0,0.1,0,0.2,0,0.2c-0.1,0.3,0,0.7-0.1,1c0,0.1,0,0.3,0,0.4c0,0.2,0,0.4,0,0.5
			c0,0.2,0,0.4,0,0.5c0,0.1,0,0.3,0,0.4C42.1,27.7,42.1,27.8,42.1,27.9z M12.1,39.8C12.1,39.8,12.1,39.8,12.1,39.8
			C12.1,39.8,12.1,39.8,12.1,39.8C12.1,39.8,12.1,39.8,12.1,39.8C12,39.8,12,39.8,12.1,39.8C12,39.8,12,39.8,12.1,39.8
			C12,39.8,12,39.8,12.1,39.8z M30.6,13.2C30.6,13.3,30.6,13.3,30.6,13.2C30.5,13.2,30.5,13.2,30.6,13.2
			C30.5,13.2,30.5,13.2,30.6,13.2z M10.5,34.9C10.5,35,10.6,35,10.5,34.9C10.6,35,10.5,35,10.5,34.9C10.5,34.9,10.5,34.9,10.5,34.9
			C10.5,34.9,10.5,34.9,10.5,34.9z M38.8,33.2C38.9,33.1,38.9,33.1,38.8,33.2c0.1-0.1,0.1-0.1,0.1-0.1c0,0,0,0,0,0
			C38.9,33,38.9,33,38.8,33.2C38.9,33.1,38.9,33.1,38.8,33.2C38.8,33.2,38.8,33.2,38.8,33.2C38.8,33.2,38.8,33.2,38.8,33.2
			C38.8,33.2,38.8,33.2,38.8,33.2z M36.1,37.3C36.1,37.3,36.1,37.4,36.1,37.3c-0.1,0.1-0.1,0.1,0,0.1C36.1,37.5,36.1,37.4,36.1,37.3
			C36.1,37.4,36.1,37.3,36.1,37.3c0,0,0.1,0,0.1,0c0.1,0,0.1,0,0-0.1C36.2,37.2,36.2,37.2,36.1,37.3C36.2,37.3,36.2,37.3,36.1,37.3z
			 M13.7,15C13.7,15,13.7,15,13.7,15C13.7,15,13.7,15,13.7,15C13.7,15,13.7,15,13.7,15C13.8,15,13.8,15.1,13.7,15
			c0.1,0.1,0.1,0.1,0.1,0.1c0,0,0,0,0,0c0,0,0-0.1-0.1-0.1C13.8,15,13.8,15,13.7,15z M16.2,41.6C16.2,41.6,16.2,41.6,16.2,41.6
			C16.3,41.7,16.3,41.6,16.2,41.6C16.3,41.6,16.2,41.6,16.2,41.6c0-0.1-0.1-0.2-0.2-0.2c-0.1,0-0.1,0-0.1,0
			C16,41.6,16.1,41.6,16.2,41.6z M16.9,12c-0.1,0-0.1,0-0.2,0.1c0,0,0,0.1,0,0.1c0,0,0.1,0,0.1,0C16.9,12.1,16.9,12,16.9,12
			C16.9,11.9,16.9,11.9,16.9,12C17,11.9,17,11.9,16.9,12C16.9,11.9,16.9,11.9,16.9,12z M9.1,36.6C9,36.7,9,36.8,9,36.9c0,0,0,0,0,0
			c0,0,0.1,0,0.1-0.1C9.1,36.8,9.1,36.7,9.1,36.6C9.1,36.6,9.1,36.6,9.1,36.6C9.1,36.6,9.1,36.6,9.1,36.6
			C9.1,36.6,9.1,36.6,9.1,36.6z M7.1,28.1c0,0,0-0.1,0-0.1c0-0.1,0-0.1-0.1,0C7,27.9,7,28,7.1,28.1C7,28,7.1,28,7.1,28.1
			c0.1,0.3,0.1,0.3,0.3,0.5c0-0.1,0-0.2-0.1-0.3C7.3,28.2,7.2,28.1,7.1,28.1z M7.9,34.2c0-0.1,0-0.3-0.2-0.3c-0.1,0-0.1,0-0.1,0.1
			c0,0,0.1,0.1,0.1,0.1C7.7,34.2,7.8,34.2,7.9,34.2C7.9,34.3,7.9,34.3,7.9,34.2c0,0.3,0,0.3,0.2,0.4c0.1-0.1,0.1-0.2,0-0.4
			C8,34.3,8,34.2,7.9,34.2z M6.1,32.7c0.1,0.1,0.1,0.1,0.2,0.1c0,0,0,0,0,0c0,0,0,0,0,0C6.3,32.7,6.2,32.7,6.1,32.7
			c0-0.1,0.1-0.1,0.1-0.2c0-0.1-0.1-0.1-0.1-0.2c0,0-0.1,0-0.1,0c0,0-0.1,0.1,0,0.1C5.9,32.5,6,32.6,6.1,32.7z M7.2,33.2
			c0.1,0.1,0.1,0.3,0.1,0.4c0,0.1,0.1,0.1,0.2,0.1c0-0.1,0-0.1,0-0.2c0-0.1-0.1-0.2-0.2-0.3C7.3,33.2,7.2,33.2,7.2,33.2
			C7.1,33.1,7.1,33,7,32.9c0,0-0.1,0-0.1,0c-0.1,0.1-0.2,0.2-0.2,0.3c0,0.1,0.1,0.2,0.2,0.1C6.9,33.2,7.1,33.1,7.2,33.2z M40.7,26.2
			c0-0.1,0-0.1-0.1-0.2c0,0,0,0,0,0c0,0-0.1,0,0,0.1C40.6,26.1,40.7,26.2,40.7,26.2c0,0.2,0.1,0.3,0.2,0.5c0.1,0.1,0.2,0.2,0.3,0.2
			c0.1-0.1,0.1-0.1,0-0.2C41.1,26.5,41,26.3,40.7,26.2z M32.5,12.6c0,0.1,0.1,0.2,0.2,0.2c0,0,0,0,0,0c0,0,0,0,0,0
			C32.7,12.7,32.6,12.6,32.5,12.6C32.4,12.6,32.4,12.6,32.5,12.6c-0.3-0.2-0.5-0.4-0.7-0.5c-0.2-0.1-0.5-0.3-0.7-0.4c0,0,0,0-0.1,0
			c0,0-0.1,0-0.1,0c0,0,0,0.1,0,0.1c0.2,0.2,0.5,0.3,0.7,0.4C31.9,12.4,32.2,12.6,32.5,12.6z M7.8,34.9c0,0.2,0,0.3,0,0.4
			c0.1,0.2,0.2,0.3,0.3,0.3c0.1-0.1,0.1-0.2,0.1-0.3c-0.1-0.1-0.2-0.1-0.3-0.3c0-0.1,0-0.1,0-0.2C7.9,35,7.8,35,7.8,34.9
			c-0.1-0.2-0.3-0.5-0.4-0.7c-0.1,0-0.2-0.2-0.3-0.2c-0.1,0-0.1,0.1-0.2,0.2C7,34.3,7,34.4,7.1,34.5c0.1,0.1,0.1,0.2,0.2,0.3
			c0.2,0,0.2,0.2,0.4,0.2C7.7,35,7.8,35,7.8,34.9z M7.7,19.2L7.7,19.2c-0.1,0.3-0.2,0.6-0.3,0.9c0,0.1-0.1,0.2-0.1,0.3
			c0,0.1,0,0.2,0,0.2c0,0,0.1,0,0.1-0.1c0.1-0.1,0.2-0.3,0.3-0.5c0.1-0.3,0.2-0.6,0.5-0.8c0.1-0.2,0.2-0.3,0.2-0.5
			c0-0.3,0.2-0.5,0.3-0.7c0.1-0.1,0.2-0.2,0.2-0.3C9,17.6,9,17.5,9.1,17.4c0-0.1,0-0.1,0-0.2c0.1,0,0.1,0,0.2,0c0,0,0-0.1,0-0.1
			c0,0,0-0.1-0.1-0.1c0,0-0.1,0-0.1,0c0,0,0,0.1,0,0.2c-0.2,0.1-0.3,0.2-0.4,0.4c0,0,0,0,0,0c0-0.1,0-0.2,0.1-0.3
			C8.9,17.2,9,17,9.1,16.8c0-0.2,0-0.3,0-0.5C9,16.2,9,16.1,9,16c0.2-0.4,0.2-0.9,0.3-1.4c0,0-0.1-0.1-0.1-0.1
			c-0.1,0.1-0.2,0.2-0.3,0.4c0,0.1-0.1,0.3-0.1,0.4c0,0.2-0.2,0.3-0.3,0.4c0,0.1-0.1,0.3-0.2,0.4c-0.1,0.1-0.1,0.3-0.2,0.3
			c-0.1,0.1-0.2,0.2-0.2,0.3c-0.1,0.2-0.2,0.4-0.3,0.5c-0.1,0.1-0.2,0.3-0.3,0.4c-0.1,0.1-0.1,0.3-0.2,0.4C7,18.1,7,18.2,7,18.4
			c0,0.1,0,0.1-0.1,0.2c-0.2,0.3-0.3,0.6-0.4,0.8c-0.1,0.2-0.2,0.4-0.2,0.7c0,0,0,0.1,0,0.1C6,20.3,6.1,20.5,6,20.7
			c-0.1,0.2-0.1,0.4-0.2,0.6c0,0.1,0,0.1,0,0.2c-0.1,0.4-0.1,0.9-0.3,1.3c-0.1,0.2-0.2,0.5-0.1,0.7c0,0.1,0,0.1,0,0.2
			c-0.1,0.2,0,0.3,0,0.5c-0.1,0-0.1,0-0.2,0c-0.1,0.1-0.1,0.2-0.1,0.3c0,0.3,0,0.6,0,0.9c0,0.2,0,0.3-0.1,0.5c0,0.2-0.1,0.4,0,0.6
			c0,0.1,0,0.2,0,0.3c0,0.2,0,0.3,0,0.5c0,0.1,0.1,0.3,0.1,0.4c0,0,0,0.1,0.1,0.1c0.1-0.1,0.2-0.3,0.3-0.5c0-0.1,0.1-0.2,0.2-0.2
			C5.9,27.1,5.9,27,6,27c0-0.1,0.1-0.3,0-0.4c-0.1-0.3-0.1-0.6-0.2-0.9c-0.1-0.3-0.2-0.5-0.2-0.8c0-0.1,0-0.1,0-0.2
			c-0.1-0.2-0.1-0.4-0.2-0.6c0.1,0.1,0.2,0.1,0.2,0.3c0,0.1,0,0.2,0.1,0.2c0,0.1,0.1,0.1,0.1,0.1c0,0,0.1,0,0.1,0c0,0,0.1,0,0.1-0.1
			c0-0.2,0.1-0.4,0.1-0.6c0.1-0.4,0.2-0.8,0.3-1.3c0.1-0.5,0.2-1,0.4-1.4c0-0.1,0.1-0.2,0.1-0.3C6.9,21.1,7,21,7,21
			c-0.1-0.2-0.1-0.3,0-0.5c0.1-0.2,0.1-0.4,0.2-0.6c0-0.1,0.1-0.3,0.2-0.4c0.1-0.1,0.2-0.2,0.2-0.3C7.6,19.2,7.6,19.2,7.7,19.2z
			 M17.8,7.7c-0.3,0-0.5,0.1-0.7,0.3c-0.1,0-0.1,0-0.2,0c0,0.1-0.2,0.1-0.2,0.2c0,0.1,0,0.2,0,0.3c0,0,0,0.1-0.1,0.1
			c-0.2,0.1-0.5,0.3-0.7,0.4c-0.2,0.1-0.3,0.2-0.5,0.2c-0.2,0.1-0.3,0.2-0.5,0.2c-0.1,0-0.1,0.1-0.1,0.1c0,0,0,0.1,0,0.1
			c0,0,0,0,0,0c0.2,0,0.3-0.1,0.5-0.1c0.4,0,0.7-0.2,1-0.3c0.1,0,0.2-0.1,0.3-0.1c0,0,0.1,0,0.2,0c0,0.1-0.1,0.2-0.1,0.2
			c0.1,0,0.1,0.1,0.2,0.1c0.2,0.1,0.3,0.2,0.5,0.2c0.2,0,0.4,0.1,0.7,0.2c0.3-0.1,0.6-0.1,0.9-0.2c0,0,0.1,0,0.1,0
			c0.1-0.1,0.3-0.1,0.4-0.1c0.2,0,0.3-0.1,0.5-0.1c0.1,0,0.2,0,0.3,0c0.3-0.2,0.3-0.2,0.7-0.2c0.6,0,1.3-0.1,1.9,0c0,0,0,0,0.1,0
			c0.1,0,0.2-0.1,0.3-0.1c0.1,0,0.2,0,0.4,0c0.1,0,0.3,0.1,0.4,0.1c0.4-0.1,0.7-0.1,1.1-0.1c0.3,0,0.6,0,0.9,0
			c0.4,0.1,0.9,0.3,1.3,0.3c0,0,0.1-0.1,0.1-0.1c0-0.1,0.1-0.2,0.1-0.3c0-0.2,0.2-0.3,0.4-0.4c0.1-0.1,0.2-0.1,0.3-0.1
			c0.1,0,0.3-0.1,0.4-0.2c0,0,0.1-0.1,0.1-0.2c-0.1,0-0.1-0.1-0.2-0.1c-0.3-0.1-0.6-0.1-0.9-0.2C27.4,8,27.2,8,27,7.9
			c-0.2,0-0.4,0-0.6,0c-0.1,0-0.2,0-0.3,0c-0.2-0.1-0.5-0.1-0.8-0.1c-0.2,0-0.5,0-0.7-0.1c-0.2-0.1-0.4-0.1-0.6-0.1
			c-0.2,0-0.4,0-0.5,0c-0.2,0-0.3,0-0.5-0.1c-0.1,0-0.2,0-0.2,0c-0.1,0-0.2,0-0.3,0c0,0,0,0-0.1-0.1c0.1-0.1,0.2-0.2,0.4-0.1
			c0.2,0,0.3,0,0.5,0.1c0.2,0,0.3,0,0.5,0c0.2,0,0.3,0,0.5,0c0.2,0,0.4,0,0.5,0.1c0.1,0,0.2,0,0.3,0c0.1,0,0.2,0,0.4,0
			c0.1,0,0.3,0.1,0.4,0.1c0.1,0,0.1,0,0.2,0c0.2,0,0.3,0.1,0.5,0.1c0.2,0,0.3,0,0.5,0.1c0.1,0,0.2-0.1,0.3-0.1c0,0-0.1-0.1-0.1-0.1
			c-0.3-0.1-0.5-0.2-0.8-0.2c-0.4-0.1-0.7-0.1-1.1-0.1c-0.1,0-0.3,0-0.4,0c-0.6-0.1-1.2-0.1-1.8,0c0,0-0.1,0-0.1,0
			c-0.1,0-0.2,0-0.3,0c-0.2,0.1-0.4,0.1-0.6,0.1c-0.2,0-0.4,0-0.6-0.1c-0.2,0-0.4,0.1-0.6,0.1c-0.1,0-0.3,0-0.4,0
			c-0.4,0-0.8,0-1.2,0.1c0,0-0.1,0-0.1,0.1c0,0.1,0,0.2-0.1,0.3c-0.8,0.2-0.9,0.2-1.2,0.2C17.6,7.8,17.7,7.8,17.8,7.7
			c0.1,0,0.2,0.1,0.3,0.1c0.2-0.1,0.3-0.1,0.4-0.2c0,0,0,0,0,0c0,0,0,0,0-0.1c0-0.1-0.1-0.1-0.1-0.1C18.2,7.5,18,7.5,17.8,7.7
			C17.8,7.6,17.8,7.7,17.8,7.7z M27,21.5c0.2-0.3,0.4-0.5,0.6-0.8c0.1-0.4,0.3-0.7,0.5-1c0-0.1,0.1-0.1,0.1-0.2
			c0.1-0.2,0.2-0.3,0.2-0.5c0.1-0.3,0.2-0.5,0.4-0.7c0-0.1,0.1-0.1,0.1-0.2c0.2-0.3,0.5-0.6,0.5-1.1c0,0,0-0.1,0-0.1
			c0.1-0.3,0.3-0.6,0.4-0.9c0.2-0.4,0.4-0.7,0.6-1c0.1-0.1,0.1-0.3,0-0.5c-0.1-0.2-0.2-0.5-0.3-0.7c-0.1-0.2-0.1-0.3-0.2-0.5
			c-0.1-0.1-0.1-0.3-0.2-0.5c-0.1-0.2-0.2-0.4-0.4-0.5c-0.1-0.1-0.1-0.2-0.2-0.2c0-0.1-0.1-0.2-0.2-0.3c-0.1-0.1-0.1-0.2-0.3-0.2
			c-0.1-0.1-0.2-0.2-0.3-0.2c-0.2-0.4-0.4-0.7-0.8-0.8c-0.1-0.1-0.3-0.1-0.4-0.2c-0.1-0.1-0.6-0.2-0.7-0.2c-0.5,0-0.9-0.1-1.4-0.2
			c-0.2,0-0.3,0-0.5,0c-0.3,0-0.6,0-0.9-0.1c-0.3,0-0.7,0.1-1,0.1c-0.2,0-0.4,0-0.5,0c-0.3,0-0.6,0.1-0.9,0.2
			c-0.3,0.1-0.7,0.3-1,0.4c-0.1,0-0.2,0.1-0.3,0.1c-0.4,0.1-0.8,0.2-1.2,0.4c-0.2,0.1-0.3,0.2-0.5,0.3c-0.2,0.2-0.4,0.4-0.6,0.6
			c-0.2,0.4-0.4,0.7-0.8,0.9c-0.1,0.5-0.4,0.9-0.7,1.3c0,0.1-0.1,0.1-0.1,0.1c-0.3,0.2-0.4,0.5-0.5,0.9c0,0.1,0,0.2,0,0.2
			c0,0.1,0.1,0.2,0.1,0.3c0,0.5,0.2,1,0.4,1.4c0.1,0.2,0.2,0.4,0.3,0.6c0.1,0.2,0.2,0.3,0.3,0.5c0.2,0.4,0.4,0.8,0.6,1.2
			c0.2,0.3,0.3,0.5,0.5,0.8c0,0.1,0.1,0.1,0.1,0.2c0.2,0.2,0.4,0.5,0.6,0.7c0.3,0.3,0.5,0.6,0.9,0.8c0.2-0.1,0.4-0.1,0.6-0.2
			c0.4,0.1,0.9,0,1.2,0c0.3,0,0.5,0.1,0.8,0.1c0.1,0,0.2-0.1,0.3-0.2c0.2,0,0.3,0,0.4,0c0.2-0.1,0.3,0,0.5,0c0.1,0,0.2-0.1,0.3,0
			c0.2,0,0.4,0,0.6,0c0.1,0,0.2,0,0.2,0c0.1,0,0.1,0,0.2,0c0.6,0.1,1.1,0,1.7,0c0,0,0.1,0,0.1,0C26.5,21.6,26.7,21.6,27,21.5z
			 M8.9,18.8c-0.1,0.2-0.2,0.4-0.3,0.6c0,0.1-0.1,0.1-0.1,0.2c-0.2,0.3-0.3,0.6-0.4,0.8c-0.1,0.2-0.2,0.3-0.2,0.5
			c-0.1,0.4-0.4,0.8-0.4,1.2c0,0.2-0.1,0.3-0.2,0.4c-0.2,0.5-0.3,1.1-0.4,1.7c0,0.2-0.1,0.3-0.1,0.5c0,0.2-0.1,0.3-0.1,0.5
			c0,0.3,0,0.5,0,0.8c0,0.1,0,0.2,0.1,0.3c0.1,0.1,0.2,0.2,0.2,0.4c0.1,0.2,0.1,0.3,0.2,0.5c0.1,0.1,0.1,0.2,0.2,0.4
			c0.1,0.1,0.1,0.3,0.1,0.3c0.1,0.1,0.2,0.2,0.2,0.3c0,0.1,0,0.2,0.1,0.2C7.9,28.6,8,28.8,8,28.9c0,0.1,0.2,0.3,0.2,0.4
			c0.1,0.1,0.1,0.2,0.2,0.2c0.1,0.1,0,0.2,0.2,0.3c0.1,0,0.1,0.1,0.2,0.1c0,0.1,0,0.1,0,0.2c0,0,0.1,0.1,0.1,0.1
			c0.1,0.2,0.3,0.2,0.3,0.4c0.1,0.2,0.3,0.2,0.5,0.3c0,0,0,0,0,0c0.1,0.1,0.1,0.1,0.1,0.2c0,0.1,0,0.1,0.1,0.1c0.2,0,0.2,0,0.5,0.1
			c0.3-0.1,0.6-0.2,0.9-0.1c0.3-0.1,0.5-0.2,0.8-0.2c0.1-0.1,0.3-0.1,0.5-0.1c0.1-0.1,0.3-0.1,0.4-0.2c0.2-0.1,0.5-0.1,0.7-0.2
			c0.2-0.1,0.5-0.2,0.7-0.3c0.2,0,0.3-0.1,0.5-0.2c0.3-0.1,0.4-0.3,0.6-0.4c0.1-0.2,0.3-0.3,0.4-0.3c0.4-0.1,0.7-0.3,1-0.5
			c0.1-0.1,0.2-0.1,0.2-0.2c0-0.3,0.1-0.6,0.1-0.9c0-0.2,0.1-0.5,0.2-0.7c0.1-0.2,0.2-0.5,0.2-0.8c0-0.1,0-0.2,0-0.2
			c0.1-0.1,0.1-0.3,0.2-0.4c0.1-0.2,0.1-0.3,0.2-0.5c0.1-0.2,0.1-0.4,0.2-0.6c0.1-0.2,0.1-0.3,0.1-0.5c0-0.1,0-0.1,0-0.2
			c0.1-0.4,0.1-0.8,0.1-1.2c0-0.2,0-0.3,0.1-0.5c0-0.1,0-0.1,0-0.2c0,0,0-0.1-0.1-0.1c-0.2-0.2-0.3-0.4-0.5-0.5
			c-0.2-0.2-0.4-0.5-0.5-0.7c-0.1-0.1-0.1-0.2-0.2-0.3c-0.2-0.3-0.4-0.6-0.5-0.9c-0.2-0.3-0.4-0.6-0.5-0.9c-0.3-0.5-0.6-1-0.9-1.5
			c0-0.1-0.1-0.1-0.1-0.2c-0.1-0.2-0.3-0.4-0.4-0.6c-0.1-0.1-0.3-0.2-0.4-0.3c-0.3,0.1-0.6,0-0.8,0.1c-0.2,0-0.5,0-0.7,0.1
			c-0.1,0.1-0.3,0.1-0.4,0.1c-0.3,0-0.5,0.2-0.7,0.3c-0.1,0.1-0.3,0.1-0.4,0.2c-0.3,0.2-0.6,0.3-0.9,0.5c-0.2,0.1-0.3,0.2-0.4,0.3
			c-0.1,0.1-0.3,0.2-0.4,0.2c-0.1,0.1-0.1,0.2-0.2,0.2C9.3,18.3,9.2,18.6,8.9,18.8z M36.3,30.2c0.2-0.1,0.4-0.2,0.5-0.4
			c0.2-0.1,0.3-0.4,0.4-0.5c0.2-0.2,0.3-0.4,0.5-0.6c0.1-0.2,0.2-0.4,0.3-0.6c0.1-0.2,0.3-0.4,0.5-0.6c0,0,0-0.1,0.1-0.1
			c0.2-0.4,0.5-0.9,0.6-1.3c0-0.1,0.1-0.2,0.1-0.3c0.2-0.4,0.3-0.8,0.4-1.3c0-0.2,0.1-0.3,0.1-0.5c0-0.2,0-0.4,0-0.6
			c0-0.4,0-0.7-0.1-1.1c-0.1-0.4-0.2-0.7-0.2-1.1c0-0.1-0.1-0.3-0.1-0.4c0-0.2-0.1-0.4-0.2-0.6c-0.2-0.3-0.3-0.6-0.5-0.9
			c-0.1-0.1-0.1-0.2-0.2-0.4c-0.1-0.3-0.2-0.5-0.4-0.8c-0.1-0.2-0.2-0.4-0.3-0.6c-0.1-0.1-0.2-0.3-0.2-0.5c0-0.1-0.1-0.2-0.1-0.3
			c-0.1-0.1-0.2-0.3-0.3-0.4c-0.1-0.2-0.3-0.4-0.6-0.4c-0.1,0-0.2,0-0.4-0.1c-0.4,0-0.7-0.2-1.1-0.1c0,0-0.1,0-0.1,0
			c-0.2-0.1-0.4-0.1-0.6-0.1c-0.1,0-0.2,0-0.2,0c-0.2-0.1-0.3-0.1-0.5-0.1c-0.3-0.1-0.7-0.1-1-0.2c-0.1-0.1-0.3,0-0.5-0.1
			c0,0-0.1,0-0.1,0c-0.2,0.1-0.3,0.1-0.5,0c0,0,0,0-0.1,0c-0.1,0-0.2,0-0.3,0.1c0,0.1-0.1,0.1-0.1,0.2c-0.2,0.5-0.5,1-0.7,1.4
			c-0.1,0.2-0.2,0.3-0.3,0.5c-0.1,0.2-0.2,0.4-0.3,0.7c-0.1,0.2-0.2,0.4-0.4,0.6c0,0.1-0.1,0.1-0.1,0.2c-0.2,0.3-0.3,0.6-0.5,0.9
			c0,0.1,0,0.2,0,0.3c-0.1,0.2-0.3,0.4-0.4,0.6c-0.1,0.3-0.1,0.5-0.1,0.7c0,0.2,0,0.3,0,0.5c0,0,0,0.1,0,0.1c0,0.1,0,0.2-0.1,0.3
			c0.1,0.2,0.1,0.3,0.1,0.5c0.1,0.2,0.2,0.4,0.2,0.6c0.1,0.2,0.1,0.4,0.1,0.6c0,0.1,0,0.2,0.1,0.3c0,0.1,0.1,0.2,0.1,0.3
			c0.1,0.1,0.3,0.2,0.3,0.4c0,0.1-0.1,0.3-0.1,0.5c-0.1,0.1-0.1,0.1-0.2,0.2c0,0.1,0,0.2,0,0.4c0,0.1,0,0.3,0.2,0.4
			c0.1,0,0.2,0,0.3,0c0.3,0.4,0.5,0.9,0.6,1.5c0,0.2,0.1,0.3,0.1,0.5c0,0.2,0.1,0.3,0.3,0.4c0.1,0,0.1,0.1,0.2,0.1
			c0.4,0.1,0.7,0.2,1.1,0.3c0.1,0,0.1,0.1,0.2,0.1c0.1,0,0.1,0.1,0.2,0.1c0.3,0.1,0.5,0.2,0.9,0.3c0,0,0.1,0,0.2,0
			c0.3,0,1,0.1,1.3,0.3c0.3,0.1,0.7,0.2,1,0.2c0.2,0,0.3,0,0.5,0C35.9,30.1,36.1,30.2,36.3,30.2z M11.2,37c0.1,0.3,0.2,0.5,0.3,0.7
			c0.1,0,0.1,0.1,0.1,0.1c0.2,0.1,0.4,0.2,0.6,0.4c0,0,0.1,0.1,0.1,0.1c0.2,0.1,0.4,0.3,0.6,0.5c0.2,0.2,0.3,0.3,0.5,0.4
			c0.2,0.1,0.3,0.2,0.5,0.3c0.2,0.2,0.4,0.3,0.6,0.4c0.2,0.2,0.4,0.3,0.6,0.4c0.2,0.1,0.3,0.2,0.5,0.3c0.1,0,0.3,0.1,0.4,0.2
			c0.3,0.1,0.7,0.3,1,0.4c0.6,0.2,1.3,0.4,1.9,0.5c0.3,0.1,0.7,0.2,1,0.2c0.1,0,0.3-0.1,0.4-0.1c0.1,0,0.3,0,0.4,0
			c0.1-0.1,0.2-0.1,0.4-0.2c0.1,0,0.2,0,0.4,0c0.1,0,0.2-0.1,0.3-0.1c0.1,0,0.2-0.1,0.3-0.2c0.1,0,0.1,0,0.2,0
			c0.3-0.1,0.5-0.3,0.8-0.4c0.3-0.1,0.4-0.4,0.7-0.5c0.1,0,0.1,0,0.2,0c0.1,0,0.1-0.1,0.1-0.1c0-0.1,0-0.2,0-0.2
			c-0.1-0.3-0.1-0.5-0.1-0.8c0-0.2,0-0.4,0-0.6c0-0.2,0-0.4,0-0.6c0-0.4,0-0.7-0.1-1.1c0-0.3-0.1-0.7,0-1c0-0.1,0-0.2,0-0.4
			c0-0.1,0-0.2,0-0.4c0-0.2,0-0.4,0-0.5c0-0.1,0-0.2-0.1-0.4c0,0-0.1-0.1-0.2-0.1c-0.2-0.1-0.3-0.2-0.4-0.3
			c-0.3-0.3-0.6-0.5-0.9-0.7c-0.1-0.1-0.3-0.1-0.4-0.2c-0.1-0.1-0.3-0.2-0.5-0.3c-0.1,0-0.1-0.1-0.2-0.1c0,0-0.1-0.1-0.1-0.1
			c-0.2,0-0.3-0.1-0.5-0.1c-0.1-0.1-0.2-0.1-0.2-0.2c-0.4-0.2-0.7-0.4-1.1-0.7c-0.2-0.1-0.4-0.3-0.7-0.4c-0.4-0.1-0.7-0.4-1-0.6
			c-0.2-0.2-0.4-0.3-0.6-0.4c-0.3,0-0.6,0.1-0.8,0.1c-0.2,0.1-0.5,0.1-0.7,0.1c-0.3,0.1-0.6,0.2-0.9,0.4c-0.5,0.2-1,0.4-1.5,0.6
			c-0.2,0.1-0.4,0.1-0.6,0.2c-0.4,0.1-0.7,0.2-1.1,0.3c-0.2,0.1-0.4,0.1-0.5,0.3c-0.1,0.2-0.1,0.4-0.1,0.6c0,0.1,0,0.2,0,0.2
			c0,0.1,0,0.2,0,0.3c0,0.2-0.1,0.4,0,0.6c0,0.1,0,0.1,0,0.2c0,0.3,0,0.5,0.1,0.8c0.1,0.2,0,0.4,0.1,0.5c0.1,0.3,0.1,0.6,0.2,0.9
			C11.2,36.4,11.2,36.7,11.2,37z M36.9,35.6c0-0.2,0-0.5,0-0.8c0-0.1,0-0.3,0-0.4c0-0.4-0.1-0.7-0.1-1.1c0-0.4,0-0.7,0-1.1
			c0-0.2,0-0.3-0.1-0.5c-0.1-0.3-0.2-0.5-0.3-0.8c0-0.1-0.1-0.2-0.2-0.3c-0.2,0-0.4-0.1-0.7-0.1c-0.7,0-1.5-0.1-2.2-0.3
			c-0.1,0-0.1,0-0.2,0c-0.2,0-0.3-0.1-0.5-0.1c-0.4-0.1-0.7-0.2-1.1-0.2c-0.1,0-0.2,0-0.2,0c-0.2,0-0.4-0.1-0.6-0.1
			c-0.2,0-0.4-0.1-0.6-0.2c-0.2,0-0.4,0-0.5,0.1c0,0-0.1,0-0.1,0c-0.2,0.1-0.4,0-0.6,0.1c-0.1,0.1-0.2,0.2-0.3,0.3
			c-0.2,0.1-0.2,0.3-0.3,0.4c-0.1,0.1-0.2,0.2-0.3,0.4c-0.2,0.1-0.3,0.2-0.5,0.4c-0.1,0.2-0.3,0.4-0.5,0.6c0,0-0.1,0-0.1,0.1
			c-0.1,0.1-0.3,0.2-0.4,0.3c-0.1,0.2-0.3,0.4-0.5,0.6c-0.2,0.3-0.5,0.5-0.7,0.8c0,0-0.1,0-0.1,0.1c-0.1,0-0.1,0-0.2,0
			c-0.1,0-0.1,0.1-0.1,0.2c-0.1,0.2-0.2,0.5-0.2,0.8c0,0.1,0,0.2,0,0.2c-0.1,0.3-0.1,0.5-0.2,0.8c0,0.6,0.1,1.1,0.1,1.7
			c0,0.1,0,0.2,0,0.3c0,0.2,0,0.4-0.1,0.5c0,0.1,0,0.2,0,0.2c0,0.4,0,0.9,0,1.3c0,0.1,0,0.3,0,0.4c0,0.1,0.1,0.1,0.1,0.2
			c0.1,0,0.2,0.1,0.3,0.1c0.2,0.1,0.4,0.2,0.7,0.2c0.3,0,0.5,0.1,0.8,0.2c0.1,0.1,0.1,0.1,0.2,0.2c0.2,0,0.4-0.1,0.6,0
			c0.1,0,0.2,0.1,0.3,0.1c0.1,0,0.2,0.1,0.3,0.1c0.2,0,0.4,0,0.6,0.1c0.1,0,0.2,0,0.3,0c0.1,0,0.2,0,0.3,0.1c0.1,0,0.1,0.1,0.2,0.1
			c0.2,0,0.4,0.1,0.6,0.1c0.2-0.1,0.4-0.1,0.5-0.2c0.1-0.1,0.3-0.2,0.4-0.2c0.1,0,0.2-0.1,0.2-0.1c0.1-0.1,0.3-0.1,0.4-0.2
			c0.4-0.3,0.7-0.6,1.1-0.8c0.1,0,0.1-0.1,0.1-0.1c0.1-0.1,0.3-0.2,0.4-0.3c0.1,0,0.2-0.1,0.2-0.2c0.5-0.4,1.1-0.8,1.5-1.3
			c0,0,0.1-0.1,0.1-0.1c0.1-0.2,0.3-0.3,0.4-0.5c0.1-0.1,0.2-0.3,0.4-0.4c0.2-0.1,0.3-0.3,0.5-0.5c0.1-0.1,0.2-0.2,0.3-0.3
			C36.7,36.1,36.9,35.9,36.9,35.6z M37.2,13.6c0,0.1,0,0.1,0,0.2c0,0.4,0.1,0.7,0.1,1.1c0,0.2,0.1,0.4,0.2,0.6
			c0.2,0.3,0.4,0.6,0.5,0.9c0,0,0,0.1,0.1,0.1c0.1,0.3,0.2,0.6,0.4,0.8c0,0,0.1,0.1,0.1,0.2c0,0.2,0.2,0.4,0.2,0.6
			c0.1,0.3,0.2,0.5,0.3,0.8c0.1,0.4,0.2,0.8,0.3,1.1c0,0,0,0.1,0,0.1c0.1,0.1,0.1,0.3,0.2,0.4c0.1,0.2,0.1,0.4,0.1,0.6
			c0.1,0.3,0.1,0.5,0.2,0.8c0.1,0.3,0.1,0.5,0.1,0.8c0.1,0.6,0.1,1.2,0,1.8c0.1,0.2,0.2,0.4,0.3,0.6c0.1,0,0.2,0.1,0.3,0.1
			c0.1,0.1,0.3,0.3,0.4,0.4c0.1,0.2,0.3,0.3,0.4,0.5c0.1,0,0.2,0,0.3-0.1c0-0.1,0.1-0.3,0.1-0.4c0-0.2,0.1-0.4,0.1-0.6
			c0-0.1,0-0.2,0-0.4c0-0.3,0-0.6,0-0.9c0-0.3,0-0.5,0-0.8c0-0.5-0.1-0.9-0.3-1.4c-0.1-0.3-0.3-0.5-0.4-0.8
			c-0.1-0.5-0.4-0.9-0.6-1.4c-0.2-0.4-0.4-0.7-0.5-1.1c-0.1-0.2-0.2-0.5-0.3-0.7c-0.1-0.3-0.2-0.5-0.4-0.7c0-0.1-0.1-0.1-0.1-0.2
			c-0.1-0.3-0.3-0.6-0.5-1c0-0.1-0.1-0.2-0.2-0.3c0,0-0.1,0-0.1,0c0,0-0.1,0-0.1,0.1c-0.2-0.3-0.3-0.5-0.4-0.8
			c-0.1-0.3-0.2-0.6-0.4-0.9C37.5,13.8,37.4,13.7,37.2,13.6C37.3,13.6,37.2,13.6,37.2,13.6z M9.5,37.4c0.1,0.1,0.2,0.1,0.3,0.2
			c0.1,0.1,0.2,0.2,0.3,0.2c0,0,0.1,0.1,0.1,0.1c0.4,0.3,0.9,0.6,1.3,0.9c0,0,0.1,0.1,0.2,0.1c0,0,0.1,0,0.1,0c0,0,0.1-0.1,0-0.1
			c-0.1-0.2-0.3-0.4-0.5-0.5c-0.3-0.2-0.5-0.4-0.7-0.6c-0.1-0.1-0.2-0.2-0.3-0.2c-0.2-0.2-0.5-0.3-0.8-0.4c0,0-0.1,0.1-0.1,0.1
			C9.5,37.3,9.5,37.3,9.5,37.4z M17.3,41.7c-0.2,0.1-0.4,0.2-0.5,0c0,0-0.1,0-0.1,0c0,0,0,0.1,0,0.1c0,0,0.1,0,0.1,0
			c0.1,0,0.2,0,0.3,0c0.1,0.1,0.1,0.1,0.2,0.1c0.2,0.1,0.4,0.2,0.7,0.3c0.2,0,0.3,0.1,0.5,0.1c0,0,0.1,0,0.1-0.1
			c0-0.1,0.1-0.2,0.1-0.3c0-0.1-0.1-0.2-0.2-0.2c-0.1,0-0.2,0-0.3,0C17.7,41.9,17.5,41.9,17.3,41.7z M33.3,12.2c0.1,0,0.2,0,0.2,0
			c0.1,0.1,0.1,0.1,0.2,0.2c0.1,0,0.2,0,0.3,0c0.1,0,0.2,0.1,0.4,0c0-0.1-0.1-0.2-0.2-0.2c-0.3-0.2-0.6-0.4-0.9-0.6
			c-0.1-0.1-0.2,0-0.3,0c0,0.1-0.1,0.1-0.1,0.2C33.1,11.9,33.2,12,33.3,12.2z M27.4,43.1c-0.1,0-0.3,0-0.4,0c-0.1,0-0.2,0-0.3,0
			c-0.1,0-0.1,0.1-0.2,0.1c0,0,0,0.1,0,0.1c0,0,0.1,0,0.1,0.1c0,0,0,0,0.1,0c0.3-0.1,0.6-0.1,0.8-0.2c0.2-0.1,0.3-0.1,0.5-0.1
			c0.2,0,0.2-0.1,0.4-0.2c-0.2-0.1-0.4-0.1-0.6,0C27.7,42.9,27.5,43,27.4,43.1z M22.5,41.6c0.1,0.1,0.2,0.1,0.3,0.2
			c0.1,0.1,0.1,0.2,0.2,0.3c0,0,0,0,0.1,0c0.2-0.1,0.2-0.2,0.2-0.4c-0.1-0.1-0.1-0.2-0.2-0.4C22.8,41.4,22.6,41.5,22.5,41.6z
			 M19,28.6c0,0.1,0.1,0.1,0.2,0.1c0.1,0.1,0.2,0.1,0.3-0.1c0,0,0-0.1,0-0.1c-0.1-0.2-0.1-0.3,0-0.5c0,0,0,0,0-0.1
			c0,0-0.1-0.1-0.1-0.1c-0.1,0-0.1,0.1-0.1,0.1c0,0.1,0,0.1,0,0.2C19.1,28.3,19,28.4,19,28.6z M10,34.8c-0.1-0.1-0.2-0.3-0.4-0.4
			c-0.1-0.1-0.2-0.2-0.4-0.3c0,0,0,0-0.1,0c0,0,0,0,0,0.1c0.1,0.1,0.1,0.3,0.2,0.4c0.1,0.2,0.2,0.3,0.4,0.3
			C9.9,34.9,9.9,34.8,10,34.8z M6.4,30.7C6.5,30.7,6.5,30.7,6.4,30.7c0.1-0.1,0.1-0.1,0.1-0.1c0-0.2-0.2-0.4-0.2-0.6
			c0-0.1-0.1-0.1-0.1-0.2c-0.1-0.1-0.1-0.2-0.2-0.2c-0.1,0.1,0,0.2,0,0.3C6.2,30.2,6.3,30.4,6.4,30.7C6.4,30.7,6.4,30.7,6.4,30.7z
			 M37,31c0.2,0.2,0.3,0.4,0.3,0.7c0,0,0,0.1,0.1,0.1c0,0,0,0,0.1,0c0.1-0.1,0.1-0.2,0.1-0.3c0,0,0.1-0.1,0.1-0.1
			C37.4,31.2,37.3,31.1,37,31C37.1,30.9,37,31,37,31z M21.9,24.8c-0.1-0.1-0.1,0-0.2,0c-0.1,0-0.2-0.1-0.2-0.1
			c-0.1,0.1-0.1,0.1,0,0.2c0.1,0.1,0.1,0.1,0.2,0.1C21.8,25,21.9,24.9,21.9,24.8z M24.4,33.6C24.5,33.6,24.5,33.6,24.4,33.6
			c0.2,0,0.3,0,0.4-0.1c0,0,0,0,0-0.1c0,0-0.1-0.1-0.1-0.1C24.6,33.3,24.5,33.4,24.4,33.6z M15,12.1c0.1-0.1,0.2-0.1,0.3-0.2
			c0,0,0-0.1,0.1-0.1c0,0-0.1-0.1-0.1-0.1C15,11.9,14.9,12,15,12.1z M19.1,42.5c0.1,0.1,0.1,0.1,0.2,0.1c0.1-0.1,0.1-0.1,0.1-0.2
			C19.3,42.3,19.2,42.3,19.1,42.5z M20.4,43c-0.1,0-0.2,0-0.3,0c0.2,0.2,0.2,0.2,0.4,0.2c0,0,0,0,0,0C20.5,43.1,20.5,43.1,20.4,43
			C20.4,43,20.4,43,20.4,43z M12.7,40.2c-0.1-0.1-0.1-0.1-0.2-0.2c0,0-0.1,0-0.1,0c0,0,0,0,0,0c0,0,0,0,0,0
			C12.4,40.1,12.5,40.2,12.7,40.2C12.7,40.2,12.7,40.2,12.7,40.2z M38.7,33.6C38.7,33.5,38.7,33.5,38.7,33.6c0-0.1-0.1-0.1-0.1-0.1
			c0,0-0.1,0-0.1,0.1c0,0.1,0,0.1,0,0.2c0,0,0,0,0.1,0.1C38.6,33.7,38.7,33.6,38.7,33.6z M12.1,39.1C12.1,39.2,12.2,39.2,12.1,39.1
			c0.1,0.1,0.1,0.1,0.1,0.1c0,0,0,0,0.1,0c0,0,0,0,0,0c0,0,0,0,0,0C12.3,39.1,12.2,39.1,12.1,39.1z M6.8,33.8
			C6.8,33.7,6.8,33.7,6.8,33.8c-0.1-0.1-0.1-0.1-0.1-0.1C6.6,33.8,6.7,33.8,6.8,33.8C6.8,33.8,6.8,33.8,6.8,33.8z M21.9,26.3
			c0,0-0.1-0.1-0.1,0C21.8,26.3,21.8,26.4,21.9,26.3C21.9,26.4,21.9,26.4,21.9,26.3C21.9,26.3,21.9,26.3,21.9,26.3z M23.7,41.4
			C23.7,41.4,23.7,41.4,23.7,41.4C23.7,41.4,23.7,41.4,23.7,41.4C23.6,41.4,23.6,41.4,23.7,41.4C23.7,41.4,23.7,41.4,23.7,41.4z
			 M15.3,8.7C15.3,8.7,15.3,8.7,15.3,8.7c0,0.1,0,0.1,0,0.1C15.4,8.8,15.4,8.8,15.3,8.7C15.4,8.7,15.3,8.7,15.3,8.7z M6.3,29.3
			C6.3,29.3,6.3,29.3,6.3,29.3C6.3,29.3,6.2,29.3,6.3,29.3C6.2,29.3,6.2,29.3,6.3,29.3C6.3,29.3,6.3,29.3,6.3,29.3z M7.8,29.9
			C7.8,29.9,7.8,29.9,7.8,29.9C7.8,29.9,7.8,29.9,7.8,29.9C7.8,29.9,7.7,29.9,7.8,29.9C7.8,29.9,7.8,29.9,7.8,29.9z M26,43.3
			C26,43.3,26,43.3,26,43.3C26,43.4,26,43.4,26,43.3C26,43.4,26,43.3,26,43.3C26,43.3,26,43.3,26,43.3z M23.2,26.3
			C23.2,26.3,23.2,26.2,23.2,26.3C23.1,26.2,23.1,26.2,23.2,26.3C23.1,26.3,23.1,26.3,23.2,26.3C23.2,26.3,23.2,26.3,23.2,26.3z
			 M31.1,14.4C31.1,14.4,31.1,14.4,31.1,14.4c0-0.1,0-0.1,0-0.1C31.1,14.2,31.1,14.3,31.1,14.4C31,14.3,31.1,14.4,31.1,14.4z
			 M30.6,11.5C30.6,11.5,30.5,11.5,30.6,11.5C30.5,11.5,30.5,11.6,30.6,11.5C30.6,11.6,30.6,11.5,30.6,11.5
			C30.6,11.5,30.6,11.5,30.6,11.5z M9,36.2C9,36.2,9,36.2,9,36.2C9,36.2,9,36.2,9,36.2C8.9,36.2,8.9,36.2,9,36.2
			C8.9,36.2,9,36.2,9,36.2z M10.5,32.3C10.5,32.2,10.5,32.2,10.5,32.3C10.5,32.2,10.4,32.2,10.5,32.3C10.4,32.2,10.4,32.3,10.5,32.3
			C10.5,32.3,10.5,32.3,10.5,32.3z M40.3,32.5C40.3,32.5,40.3,32.5,40.3,32.5C40.3,32.5,40.2,32.5,40.3,32.5
			C40.2,32.5,40.2,32.5,40.3,32.5C40.3,32.5,40.3,32.5,40.3,32.5C40.3,32.5,40.3,32.5,40.3,32.5z M37.1,30.2L37.1,30.2L37.1,30.2
			L37.1,30.2z"/>
		
			<path fill="#231F20" stroke="#231F20" stroke-width="6.8545" stroke-linecap="round" stroke-linejoin="round" stroke-miterlimit="10" d="
			M33.8,36.7c0,0.1,0,0.2,0,0.3c0,0-0.1,0-0.1,0c0-0.1,0-0.2,0-0.4C33.7,36.7,33.7,36.7,33.8,36.7z"/>
	</g>
	<path fill="#BCBEC0" stroke="#231F20" stroke-width="1.0737" stroke-miterlimit="10" d="M5.1,24.8c0.7-9.5,8.3-18.4,18.4-18.4
		c8.7,0,18.6,9.1,18.6,19.2S31,43.2,23.5,43.2C13.3,43.2,4.3,35,5.1,24.8z"/>
	<g>
		<path d="M3.5,19.3c0.2-0.2,0.3-0.3,0.4-0.6c0.1-0.1,0.2-0.3,0.2-0.4c0.1-0.1,0.1-0.2,0.2-0.3c0.1-0.3,0.3-0.5,0.5-0.7
			C5,17.2,5.1,17.1,5.1,17c0.2-0.3,0.4-0.5,0.7-0.7c0.2-0.2,0.4-0.5,0.6-0.7c0.2-0.2,0.3-0.4,0.5-0.5c0.2-0.2,0.3-0.4,0.3-0.6
			c0.4-0.5,0.7-1,1.1-1.5c0.4-0.3,0.4-0.3,0.8-0.7c0-0.1,0.1-0.1,0.1-0.2c0-0.2,0.1-0.4,0.2-0.5c0.2-0.2,0.3-0.4,0.4-0.7
			c0.1-0.2,0.2-0.4,0.4-0.6c0.1,0.1,0.2,0.1,0.3,0c0.2-0.2,0.3-0.4,0.4-0.6c0.2-0.4,0.3-0.8,0.5-1.1c0-0.1,0.1-0.1,0.1-0.2
			c0,0,0,0,0.1,0c0,0,0.1,0,0.1,0.1c0,0.1,0,0.1,0,0.2c0,0.1-0.1,0.3-0.1,0.4c0,0,0.1,0.1,0.1,0.1c0,0,0.1,0,0.1,0
			c0.2-0.2,0.4-0.3,0.6-0.5c0.4-0.3,0.7-0.7,1.1-1c0.2-0.2,0.4-0.4,0.7-0.5c0.4-0.3,0.8-0.6,1.2-0.9c0.2-0.4,0.2-0.5,0.6-0.8
			c0,0,0.1,0,0.2-0.1l0,0c0,0.1,0,0.2,0,0.3c0,0,0.1,0,0.1,0c0.3-0.2,0.7-0.4,1-0.6c0.1-0.1,0.2-0.1,0.2-0.2
			c0.1-0.1,0.3-0.3,0.4-0.4c0.1,0,0.1,0.1,0.2,0.1c0,0,0.1,0,0.1,0c0.2-0.1,0.4-0.2,0.5-0.3C18.7,4,18.9,4,19.1,3.8c0,0,0.1,0,0.1,0
			c0.3,0,0.5-0.2,0.8-0.2c0.4-0.1,0.8-0.2,1.2-0.2c0.3,0,0.5-0.1,0.8-0.1c0.4,0,0.8-0.1,1.2-0.1c0,0,0,0,0.1,0
			c0.5-0.1,1.1-0.2,1.6-0.3c0.1,0,0.2-0.1,0.4-0.1c0.9-0.2,1.8-0.3,2.5-0.3c0.1,0,0.2,0,0.3,0c0.1,0.2,0.1,0.2,0.1,0.4
			c-0.1-0.1-0.2-0.1-0.3-0.2c-0.4,0.1-0.9,0.2-1.3,0.2c-0.1,0-0.2,0-0.2,0c-0.5,0.2-1,0.1-1.5,0.4c0,0,0,0.1,0,0.1
			c0.2,0,0.4,0,0.5,0.1l0,0c-0.2,0-0.4,0-0.7,0c-0.2,0-0.5,0-0.7,0c-0.2,0-0.3,0-0.4,0.2c0.2,0,0.3,0,0.4,0c0.5-0.1,0.9-0.1,1.4-0.1
			l0,0c0.1,0,0.1,0.1,0.2,0.1c0.4,0,0.8,0.1,1.3,0.2c0.4,0.1,0.8,0.1,1.2,0.2c0.1,0,0.3,0,0.4,0c0.2,0,0.4,0,0.6,0
			c0.1,0,0.3,0,0.4,0.1c0,0.2,0,0.3,0.1,0.4c0.1,0,0.1,0.1,0.2,0.2c0.1,0,0.2,0,0.3,0c0.9,0,1.7,0,2.6,0.1c0.6,0.1,1.2,0.2,1.8,0.4
			c0.4,0.1,0.7,0.2,1.1,0.4c0.1,0,0.1,0.1,0.2,0c0.1-0.2-0.1-0.2-0.1-0.4c0-0.1,0-0.2,0-0.2c0,0,0.1,0,0.1,0c0,0,0.1,0,0.1,0
			c0,0,0.1,0.1,0.1,0.1c0.4,0.3,0.8,0.6,1,1.1c0.2,0.2,0.4,0.5,0.5,0.7c0,0,0,0.1,0,0.1c0,0-0.1,0.1-0.2,0c-0.1,0-0.1-0.1-0.2-0.1
			c0,0-0.1-0.1-0.1-0.1c-0.1-0.1-0.1-0.2-0.2-0.2c-0.2,0-0.3-0.1-0.5-0.1c-0.3-0.2-0.6-0.3-0.9-0.5c-0.1,0-0.2,0-0.2,0l0,0l0,0
			c0,0.1,0,0.1,0.1,0.2c0.3,0.3,0.5,0.7,0.8,1c0.1,0.2,0.3,0.3,0.5,0.5c0.4,0.3,0.7,0.6,1.1,0.9c0.5,0.4,1,0.9,1.5,1.4
			c0.2,0.3,0.5,0.5,0.7,0.8c0.1,0.1,0.2,0.2,0.3,0.3c0.1,0.1,0.2,0.1,0.2,0.2c0.2,0.2,0.3,0.3,0.5,0.5c0.2,0.2,0.4,0.5,0.6,0.8
			c0.3,0.6,0.5,1.3,0.6,1.9c0,0.2,0.1,0.4,0.2,0.6c0,0.1,0,0.1,0.1,0.2c0.2,0.9,0.4,1.7,0.7,2.6c0.1,0.3,0.1,0.7,0.2,1
			c0,0,0,0.1,0,0.1c0,0.4,0.1,0.7,0.2,1.1c0.1,0.6,0.3,1.1,0.4,1.7c0.2,0.9,0.2,1.9,0,2.8c-0.1,0.5-0.2,0.9-0.4,1.4
			c-0.3,0.8-0.4,1.6-0.5,2.4c-0.1,0.4-0.2,0.8-0.3,1.2c0,0,0,0.1,0,0.1c-0.2,0.4-0.4,0.8-0.5,1.2c-0.3,0.6-0.6,1.3-0.9,1.9
			c-0.1,0.3-0.2,0.6-0.4,0.9c-0.1,0.2-0.2,0.5-0.4,0.7C40,35,39.6,35.5,39.1,36C39,36,39,36.1,38.9,36.2c-0.5,0.6-1,1.1-1.6,1.7
			c-0.3,0.3-0.6,0.7-0.9,1c-0.2,0.3-0.5,0.5-0.9,0.7c-0.3,0.2-0.6,0.5-0.9,0.7c-0.4,0.3-0.8,0.5-1.3,0.8c-0.6,0.4-1.3,0.7-1.9,1
			c-0.3,0.2-0.7,0.3-1,0.5c-0.3,0.1-0.6,0.3-0.9,0.4c-0.2,0.3-0.2,0.3,0,0.6c0.1,0.1,0.2,0,0.3,0l0,0c-0.1,0.1-0.1,0.1-0.2,0.2
			c0,0,0,0.1,0,0.1c-0.1,0-0.1,0-0.2,0c0,0,0.1,0,0.1,0c0.1,0,0.1,0,0.2-0.1c0,0,0.1,0,0.1,0c0.3-0.1,0.6-0.2,0.9-0.4
			c0,0,0-0.1,0.1-0.1l0,0c0.1,0,0.2,0,0.3-0.1l0,0c0.1,0,0.3,0,0.4-0.1c0.4-0.2,0.8-0.4,1.3-0.6c0.3-0.2,0.6-0.3,0.9-0.5
			c0.1-0.1,0.2-0.1,0.3-0.2c0.1,0,0.1-0.1,0.2-0.1c0.6-0.3,1-0.7,1.5-1.1c0.4-0.3,0.7-0.6,1-0.9c0.5-0.4,0.9-0.9,1.4-1.3
			c0.4-0.3,0.7-0.7,1.1-1c0.1-0.1,0.1-0.1,0.1-0.2c0.2-0.3,0.4-0.6,0.6-0.9c0-0.1,0.1-0.1,0.1-0.2c0.2-0.2,0.4-0.4,0.5-0.7
			c0-0.1,0.1-0.2,0.1-0.2l0,0l0,0c-0.1,0.1-0.1,0.1-0.1,0.2c-0.1,0-0.2,0-0.2,0.1c-0.1,0.1-0.2,0.3-0.3,0.4c0,0,0,0.1,0,0.2
			c-0.1,0-0.2,0-0.2,0c0,0,0,0,0,0c0.1-0.3,0.3-0.6,0.5-0.9c0.1-0.2,0.2-0.3,0.3-0.5c0.1-0.2,0.2-0.3,0.3-0.4
			c0.2-0.3,0.4-0.6,0.6-0.9c0.1-0.1,0.1-0.1,0.2-0.2c0.1,0,0.1,0,0.2,0.1c-0.2,0.2-0.3,0.4-0.5,0.6c0,0,0,0.1,0.1,0.1
			c0.2-0.2,0.4-0.4,0.4-0.8c0.1,0,0.2-0.1,0.3-0.2c0.2-0.3,0.4-0.6,0.6-0.9c0.2-0.4,0.4-0.9,0.5-1.4l0,0c0.1-0.1,0.1-0.2,0.1-0.4
			l0,0c0.1-0.1,0.2-0.3,0.2-0.4c0.1-0.5,0.3-1,0.5-1.4c0.1-0.4,0.2-0.7,0.3-1.1c0.1-0.6,0.3-1.1,0.4-1.7c0.1-0.5,0.2-0.9,0.3-1.4
			c0-0.1,0-0.2,0-0.3c0-0.1,0-0.2-0.2-0.3l0,0c0-0.1,0-0.3,0.1-0.4c0.1-0.1,0.1-0.2,0.1-0.3c0.1-0.6,0.1-1.2,0.1-1.9
			c0-0.9,0-1.8,0-2.7c0-0.2,0-0.3,0-0.5c0-0.2,0-0.4,0-0.6c0-0.1,0-0.3,0-0.5c0.2,0.4,0.2,0.8,0.2,1.3c0.1-0.1,0.1-0.2,0.1-0.2
			c0-0.1,0-0.3,0-0.4c-0.1-0.6-0.2-1.3-0.5-1.8c0-0.1-0.1-0.1-0.1-0.2c0,0,0,0,0-0.1c0.1,0,0.1,0.1,0.2,0.1c0.1-0.2,0.1-0.2-0.1-0.8
			c-0.1,0-0.1,0-0.2,0c0,0-0.1-0.1-0.1-0.1c-0.2-0.8-0.4-1.7-0.6-2.5c-0.1-0.2-0.1-0.4-0.2-0.6c0-0.1,0-0.2,0.1-0.3c0,0,0,0,0-0.1
			c0-0.1,0-0.3,0-0.4l0,0c0.1-0.1,0.1-0.2,0.1-0.3c-0.1-0.2-0.1-0.4-0.2-0.6c-0.2-0.5-0.4-0.9-0.6-1.4c-0.1-0.2-0.2-0.4-0.3-0.6
			c-0.2-0.6-0.6-1.2-1-1.8c-0.1-0.2-0.2-0.3-0.4-0.5c-0.3-0.4-0.6-0.7-1-1c-0.4-0.4-0.8-0.7-1.2-1.1l0,0c0.3,0,0.5,0.1,0.7,0.2
			c0.3,0.2,0.5,0.4,0.8,0.7c0.8,0.8,1.4,1.7,2,2.6c0.8,1.3,1.4,2.6,1.9,4c0,0.1,0,0.1,0.1,0.2c0.2,0.7,0.4,1.3,0.5,2
			c0,0.1,0,0.1,0,0.2c0,0.4,0.1,0.8,0.2,1.2c0.2,0.6,0.2,1.3,0.4,1.9c0,0.1,0,0.2,0,0.3c0,0.2,0,0.5,0.1,0.7c0,0.2,0,0.5,0.1,0.8
			c0,0.4,0.1,0.8,0.1,1.2c0,0.2,0.1,0.4,0.1,0.6c0.2,0.3,0.2,0.7,0.2,1c0,0.1,0,0.2-0.2,0.2c0,0-0.1,0-0.1,0c0,0.5-0.1,1-0.1,1.4
			c0,0.3,0,0.6-0.1,0.9c0,0.2,0,0.3,0,0.5c0,0,0.1,0.1,0.1,0.1l0,0c0,0,0,0.1-0.1,0.1c-0.1,0-0.2,0-0.2,0.1
			c-0.1,0.4-0.2,0.9-0.3,1.4c0.1,0.3,0.1,0.6,0,0.8c0,0.1,0,0.2,0,0.2c0,0.1,0,0.2,0,0.2c-0.1,0.2-0.2,0.4-0.2,0.5
			c0,0,0,0.1-0.1,0.1c0-0.1,0-0.1,0-0.2c0-0.1,0-0.1-0.1,0c0,0,0,0,0,0.1c0,0.1,0.1,0.1,0.1,0.1c0,0.3-0.1,0.5-0.1,0.8
			c-0.1,0.3-0.1,0.5-0.2,0.8c0,0.1-0.1,0.2-0.1,0.3c0,0-0.1-0.1-0.1-0.1c0,0,0,0,0,0c-0.1,0.1-0.1,0.2-0.2,0.3c0,0.1,0,0.3,0.1,0.4
			c0,0,0,0.1,0.1,0.1c0,0.1-0.1,0.2-0.1,0.3c-0.1,0.2-0.2,0.4-0.3,0.6c0,0.1-0.1,0.1-0.1,0.2c0,0.1-0.1,0.2-0.1,0.3
			c-0.2,0.3-0.3,0.5-0.4,0.8c-0.2,0.5-0.5,1.1-0.7,1.6c-0.2,0.3-0.3,0.6-0.5,0.9c-0.4,0.6-0.8,1.3-1.2,1.9c-0.3,0.5-0.6,0.9-0.9,1.4
			c-0.1,0.1-0.2,0.2-0.2,0.3c-0.1,0.2-0.2,0.4-0.3,0.5c-0.1,0.1-0.2,0.3-0.4,0.5c0,0,0,0-0.1,0c0,0-0.1-0.1-0.1-0.1
			c0-0.1,0-0.2,0-0.2c0-0.1-0.1-0.1-0.1-0.1c-0.1,0.1-0.2,0.2-0.3,0.2c-0.1,0-0.1-0.1-0.2-0.2c-0.1,0-0.2,0-0.3,0.1c0,0,0-0.1,0-0.1
			c0.2-0.3,0.4-0.6,0.7-0.8c0,0,0.1-0.1,0.1-0.1c0-0.1,0.1-0.1,0.1-0.2c0,0,0-0.1-0.1-0.1c-0.1,0-0.2-0.1-0.4-0.1
			c-0.1,0-0.2,0.1-0.3,0.2c-0.4,0.4-0.8,0.8-1.2,1.2c-0.7,0.7-1.5,1.4-2.3,1.9c-0.4,0.3-0.9,0.6-1.3,0.8c-0.2,0.1-0.3,0.2-0.5,0.3
			c-0.1,0.1-0.3,0.2-0.4,0.2c-0.2,0.1-0.4,0.2-0.5,0.3c-0.1,0-0.2,0.1-0.2,0.2c-0.1,0-0.2,0-0.3,0.1c-0.1,0-0.3,0-0.4,0.1
			c-0.6,0.3-1.2,0.5-1.9,0.8c0.2,0.1,0.2,0.1,0.2,0c0.7-0.2,1.4-0.5,2.1-0.9c0.1,0,0.2-0.1,0.3-0.1c0.6-0.3,1.2-0.6,1.9-0.9
			c0.1,0,0.1-0.1,0.2-0.1c0,0,0,0,0,0c-0.2,0.2-0.5,0.4-0.7,0.5c-0.8,0.4-1.5,0.8-2.3,1.2c-0.7,0.3-1.5,0.6-2.3,0.7
			c-0.1,0-0.2,0-0.2,0c0-0.1,0-0.2,0-0.2c0,0-0.1-0.1-0.1-0.1c-0.2,0-0.3,0-0.5,0c-1.1,0.2-2.3,0.2-3.4,0.2c-0.1,0-0.3,0-0.4,0
			c0,0-0.1,0-0.1-0.1c0,0,0-0.1,0-0.1c0.1,0,0.1-0.1,0.2-0.1c0.1,0,0.2,0,0.4-0.1c0.1,0,0.2-0.1,0.3-0.1c-0.2-0.1-0.4-0.1-0.5-0.2
			c-0.1-0.1-0.1-0.1-0.2-0.2c0,0-0.1-0.1-0.2-0.1c-0.4-0.1-0.7-0.1-1.1-0.2c-0.5-0.1-1-0.1-1.5-0.2c-0.1,0-0.1,0-0.2,0
			c-0.1,0-0.2,0.1-0.2,0.2c-0.5,0-0.9-0.1-1.4-0.2c-0.1,0-0.2-0.1-0.3-0.1c-0.1,0-0.2-0.1-0.2-0.1c-0.1-0.2-0.3-0.2-0.4-0.3
			c-0.4-0.2-0.8-0.4-1.1-0.7c-0.1-0.1-0.2-0.2-0.4-0.2c0,0-0.1,0-0.1,0c-0.4-0.2-0.9-0.4-1.3-0.7c-0.2-0.1-0.3-0.2-0.5-0.3
			c-0.2-0.1-0.4-0.3-0.7-0.4c-0.3-0.1-0.6-0.2-0.8-0.4c-0.4-0.2-1.2-0.7-1.5-0.9c-0.3-0.2-0.5-0.4-0.8-0.6c-0.4-0.6-0.5-0.7-1.1-0.9
			c-0.2,0-0.2,0.3-0.5,0.2c0.2,0.3,0.4,0.5,0.6,0.6c0.2,0.1,0.4,0.3,0.6,0.5c0.7,0.6,1.4,1.1,2.2,1.6c0.3,0.2,0.7,0.4,1,0.7
			c0.2,0.1,0.3,0.2,0.5,0.3c0.2,0.1,0.4,0.3,0.6,0.4l0,0c-0.2,0-0.3,0-0.5-0.1c-0.5-0.2-0.9-0.5-1.4-0.8c-0.6-0.4-1.2-0.8-1.7-1.2
			c-0.5-0.4-0.9-0.7-1.4-1.1c0,0-0.1-0.1-0.1-0.1c-0.4-0.4-0.9-0.9-1.3-1.3c-0.1-0.1-0.2-0.3-0.4-0.4c-0.1-0.1-0.2-0.3-0.3-0.4
			c-0.1-0.1-0.1-0.1-0.2-0.1c0-0.1,0-0.1,0-0.1c0,0,0,0,0,0c0,0,0.1,0.1,0.1,0.1c0,0.1,0.1,0.2,0.1,0.3c0.1,0.1,0.2,0.3,0.3,0.4
			c0.1,0.1,0.1,0.2,0,0.4c0,0,0,0.1,0,0.1c0.1,0.2,0.2,0.3,0.3,0.5c0.2,0.3,0.5,0.6,0.7,0.9c0.1,0.2,0.3,0.3,0.5,0.4l0,0
			c0,0.1,0,0.2,0,0.3l0,0c-0.2-0.1-0.4-0.2-0.5-0.4c-0.5-0.7-1.1-1.4-1.6-2C7.4,37,7,36.5,6.7,36c-0.5-0.6-1-1.3-1.5-1.9
			c-0.3-0.4-0.5-0.8-0.8-1.2c-0.2-0.3-0.4-0.6-0.6-0.8c-0.2-0.3-0.4-0.6-0.6-0.9C3.1,31.1,3,31,2.9,30.9c-0.1,0-0.1,0.1,0,0.2
			c0.1,0.3,0.3,0.6,0.4,0.8C3.5,32.3,3.7,32.6,4,33c0.3,0.5,0.6,1,1,1.5c0.3,0.4,0.6,0.9,0.9,1.3C5.9,35.9,6,36,6,36
			c0.1,0.1,0.2,0.2,0.3,0.4c0,0.1,0.1,0.2,0.2,0.3c0,0.1,0,0.1,0,0.2l0,0c-0.1,0-0.1,0-0.2-0.1c-0.4-0.4-0.7-0.8-1-1.2
			c-0.2-0.2-0.3-0.4-0.5-0.7c-0.1-0.1-0.2-0.2-0.3-0.3c0-0.1-0.1-0.2-0.2-0.3c-0.3-0.5-0.6-0.9-0.9-1.3c-0.3-0.4-0.6-0.8-0.9-1.2
			c-0.2-0.3-0.5-0.7-0.7-1c-0.1-0.1-0.2-0.2-0.2-0.4c-0.1-0.3-0.3-0.5-0.5-0.8c0,0,0,0,0,0c-0.1,0.1,0,0.2,0.1,0.3
			c0,0.1,0.1,0.2,0.1,0.3l0,0c-0.1,0-0.2-0.1-0.3-0.1c0,0.1-0.1,0.1-0.1,0.2c0,0.3,0,0.5,0,0.7c0,0.2,0.1,0.3,0,0.5
			c0,0.4,0,0.9,0.1,1.3c0.1,0.5,0.2,1,0.2,1.5c0.1,0.3,0.1,0.6,0.2,0.8c0.2,0.6,0.4,1.1,0.7,1.7c0.1,0.1,0.1,0.2,0.1,0.4
			c0,0,0,0.1-0.1,0.1c0,0,0,0-0.1,0c0-0.1-0.1-0.1-0.1-0.2c-0.2-0.5-0.4-1-0.6-1.5c-0.2-0.7-0.4-1.3-0.6-2c0-0.1,0-0.2-0.1-0.2
			c-0.1,0.1,0,0.3,0,0.4c0.2,1,0.5,1.9,0.9,2.8c0.2,0.4,0.3,0.7,0.5,1c0.1,0.1,0.2,0.2,0.2,0.3l0,0c0,0,0.1,0.1,0.1,0.1l0,0
			c0.2,0.1,0.3,0.3,0.4,0.5c0.4,0.7,0.9,1.2,1.5,1.6c0.2,0.1,0.4,0.2,0.5,0.4l0,0c0,0-0.1,0-0.1,0c-0.6-0.3-1.1-0.7-1.6-1.2
			c-0.2-0.2-0.4-0.4-0.6-0.6c0,0-0.1-0.1-0.1-0.1l0,0l0,0c0,0,0.1,0.1,0.1,0.1C3,38.9,3,39,3,39.1c0.2,0.2,0.3,0.4,0.5,0.6
			c0,0.1,0.1,0.1,0.1,0.2c0,0,0,0,0,0c0,0,0,0-0.1,0c-0.1-0.1-0.2-0.1-0.2-0.2c-0.3-0.3-0.5-0.6-0.8-0.9c-0.2-0.3-0.4-0.6-0.7-0.8
			c-0.2-0.2-0.3-0.4-0.4-0.7c0-0.2-0.1-0.4-0.2-0.5c0,0,0,0,0-0.1c0-0.4-0.2-0.8-0.3-1.2c-0.1-0.4-0.2-0.8-0.3-1.3
			c0-0.1,0-0.1-0.1-0.2c-0.1-0.3-0.2-0.7-0.2-1c0-0.3-0.1-0.6-0.1-0.9c-0.1-0.5,0-1.1,0-1.6c0-0.2,0-0.3,0-0.5c0-0.2,0-0.4,0.1-0.6
			c0.1-0.5,0.2-1,0.2-1.4c0-0.2,0-0.3-0.1-0.5c-0.1-0.2-0.1-0.5-0.2-0.7C0.1,25.6,0,24.5,0,23.3c0-0.4,0.1-0.7,0.1-1.1
			c0.1-0.6,0.2-1.1,0.2-1.7c0-0.7,0.1-1.3,0.3-2c0.1-0.5,0.3-1,0.5-1.6c0.1-0.3,0.3-0.6,0.3-0.9c0-0.1,0-0.2,0.1-0.2
			c0.2-0.3,0.3-0.6,0.4-1c0-0.1,0.1-0.1,0.1-0.2c0.6-1.4,1.3-2.7,2.1-4c0.3-0.5,0.7-1.1,1.1-1.6C5.8,8.4,6.4,7.7,6.9,7
			C7.2,6.7,8,5.9,8.3,5.6c0.1,0,0.3,0,0.4-0.1c0.1,0,0.2-0.1,0.3-0.1l0,0c0,0.1-0.1,0.2-0.2,0.2C8.3,6.1,7.9,6.5,7.4,7
			C7.3,7.1,7.1,7.3,7,7.4C6.6,8,6.1,8.5,5.8,9.1C5.5,9.5,5.2,9.8,5,10.2c-0.6,0.8-1.1,1.6-1.5,2.5c0,0.1-0.1,0.1-0.1,0.2
			c-0.1,0.4-0.3,0.8-0.4,1.2c-0.3,0.7-0.6,1.4-0.9,2.1c-0.2,0.4-0.4,0.8-0.5,1.2c-0.3,0.7-0.6,1.3-0.7,2c0,0.2-0.1,0.3-0.1,0.5
			c0,0.4-0.1,0.9-0.1,1.3c0,0.3-0.1,0.5-0.1,0.8c0,0.2-0.1,0.4,0,0.6c0,0.1,0,0.2,0,0.2c0,0.2,0,0.5-0.1,0.7c0,0.3,0,0.6,0,0.9
			c0,0.3,0.1,0.6,0.1,0.9c0,0.3,0.1,0.5,0.1,0.7c0,0.1,0.1,0.2,0.2,0.2c0,0,0.1,0,0.1-0.1c0.2-0.5,0.3-1,0.5-1.6
			c0.1-0.2,0.1-0.5,0.2-0.7c0.1-0.2,0.2-0.5,0.1-0.7c0-0.1,0-0.1,0-0.2c0.1-0.4,0.2-0.9,0.3-1.3c0.1-0.3,0.2-0.6,0.3-0.9
			c0.1-0.2,0.2-0.3,0.3-0.5C2.7,20.3,2.9,20,3,19.7c0.2-0.3,0.4-0.6,0.6-1c0,0,0.1-0.1,0.2-0.1l0,0c0,0.1-0.1,0.2-0.1,0.3
			C3.6,19.1,3.5,19.2,3.5,19.3c0,0-0.1,0.1-0.1,0.1c-0.1,0.1-0.1,0.2-0.1,0.4c-0.1,0.1-0.1,0.2-0.1,0.3c-0.1,0-0.2,0.1-0.2,0.2
			c-0.1,0.2-0.2,0.4-0.3,0.6c0,0.1,0,0.1,0,0.2c0,0,0,0,0,0c0,0,0,0,0,0C2.7,21,2.8,21,2.8,20.9c0.1-0.2,0.2-0.4,0.3-0.6
			c0-0.1,0-0.2,0.1-0.3c0.1-0.1,0.1-0.2,0.1-0.3C3.4,19.7,3.6,19.5,3.5,19.3z M6.3,16.9c0,0,0.1-0.1,0.1-0.1l0,0l0,0
			C6.4,16.8,6.4,16.8,6.3,16.9c0,0.1-0.1,0.1-0.1,0.1c-0.1,0.1-0.1,0.1-0.1,0.2c0,0-0.1,0.1-0.1,0.1c-0.1,0.1-0.1,0.1-0.2,0.2
			c-0.1,0.1-0.2,0.3-0.3,0.5c-0.4,0.5-0.7,1-1,1.6c-0.3,0.5-0.6,1-0.9,1.5c-0.3,0.6-0.6,1.2-0.9,1.8c-0.4,0.8-0.6,1.7-0.8,2.6
			c0,0.1-0.1,0.2-0.1,0.3c0,0.5-0.1,1,0,1.6c0,0,0,0.1,0,0.1c0.2,0.3,0.3,0.7,0.3,1c0,0.3,0.2,0.7,0.3,1c0.1,0.2,0.2,0.4,0.4,0.6
			c0.1,0.2,0.3,0.5,0.4,0.7c0.2,0.4,0.5,0.8,0.8,1.1c0.3,0.5,0.6,0.9,1,1.4c0,0.1,0.1,0.1,0.2,0.2c0,0,0.1,0.1,0.1,0.1
			c0,0.1,0,0.2,0.1,0.2l0,0l0,0c0-0.1-0.1-0.1-0.1-0.2c0,0-0.1-0.1-0.1-0.1c0-0.1,0-0.2,0-0.3C5,33,4.9,32.6,4.9,32.2
			c0,0,0,0,0.1-0.1c0,0,0,0,0,0c-0.1,0,0,0.1,0,0.1c-0.1-0.1-0.1-0.2-0.1-0.3c0.1-0.2,0.1-0.4,0.1-0.6c0-0.1,0-0.3-0.1-0.4
			c0-0.2-0.1-0.3-0.1-0.5c0-0.3,0-0.5-0.1-0.8c0,0,0-0.1,0-0.1c0.1-0.2,0-0.3,0-0.5c0-0.5,0-1,0-1.5c-0.1-0.1-0.1-0.3-0.2-0.4
			c-0.1-0.2-0.1-0.3-0.3-0.5c0.1,0.7,0.1,1.4,0.4,2c0,0.1-0.1,0.1-0.1,0.2l0,0l0,0c0,0.1-0.1,0.3-0.1,0.4c0,0,0,0.1-0.1,0.1
			c0,0,0,0-0.1,0c0,0,0,0,0,0C4.1,29,4,28.9,4,28.8c0-0.4-0.1-0.8-0.1-1.2c-0.1-0.5-0.1-1,0-1.6c0.1-0.4,0.2-0.8,0.3-1.2
			c0-0.2,0.1-0.4,0.1-0.6c0-0.5,0.1-1.1,0.2-1.6c0-0.1,0.1-0.3,0.1-0.4c0-0.3,0.1-0.6,0.2-0.8c0.1-0.2,0.1-0.3,0.1-0.5
			c0-0.1-0.1-0.2-0.1-0.3c0-0.1,0-0.1,0-0.2c0-0.2,0.1-0.4,0.2-0.5c0.1-0.1,0.1-0.2,0.1-0.3c0.2-0.4,0.3-0.9,0.5-1.3
			c0.1-0.3,0.2-0.7,0.3-1c0,0,0.1-0.1,0.1-0.1c0-0.1,0.1-0.1,0.1-0.2C6.3,17,6.3,16.9,6.3,16.9z M13.3,10.1L13.3,10.1L13.3,10.1
			L13.3,10.1L13.3,10.1z M8.5,13c0.1,0,0.1-0.1,0.1-0.1c0.1,0,0.1-0.1,0.1-0.1l0,0l0,0c-0.1,0-0.1,0-0.1,0.1C8.6,12.9,8.6,13,8.5,13
			C8.5,13,8.5,13,8.5,13C8.5,13,8.5,13,8.5,13z M21.5,19.4L21.5,19.4L21.5,19.4L21.5,19.4L21.5,19.4z M37,8.7C37,8.7,37,8.7,37,8.7
			C37,8.7,37,8.7,37,8.7c-0.1,0-0.1-0.1-0.1-0.1c0,0-0.1-0.1-0.1-0.1l0,0l0,0c0,0,0.1,0.1,0.1,0.1C36.9,8.6,36.9,8.7,37,8.7z
			 M35,6.6L35,6.6L35,6.6c-0.1,0-0.1-0.1-0.1-0.1c0-0.1-0.1-0.2-0.1-0.2c-0.2-0.3-0.6-0.4-0.9-0.6c-0.1-0.1-0.3-0.1-0.4,0
			c0,0.1,0.1,0.1,0.2,0.1c0.3,0.2,0.7,0.4,1,0.7c0,0,0.1,0.1,0.2,0.1c0,0,0.1,0,0.1,0C34.9,6.5,35,6.6,35,6.6z M9.5,37.2
			C9.5,37.3,9.5,37.3,9.5,37.2C9.6,37.2,9.5,37.2,9.5,37.2c0-0.1-0.1-0.1-0.1-0.1c0-0.1,0-0.1-0.1-0.1l0,0l0,0
			c0,0.1,0.1,0.1,0.1,0.1C9.4,37.2,9.5,37.2,9.5,37.2z M41.3,35.2c0,0,0.1-0.1,0.1-0.1c0,0,0-0.1,0.1-0.1c0,0,0,0,0,0
			c0,0,0,0.1,0,0.1C41.4,35.2,41.3,35.2,41.3,35.2L41.3,35.2L41.3,35.2z M41.7,34.4L41.7,34.4L41.7,34.4L41.7,34.4L41.7,34.4z
			 M17.6,6.9c-0.1,0-0.2,0-0.3,0.1c-0.2,0-0.3,0.1-0.4,0.3c0,0,0,0.1,0,0.1c0,0,0,0,0,0c0.1-0.1,0.3-0.2,0.3-0.4
			C17.4,7,17.5,7.1,17.6,6.9C17.6,6.9,17.6,6.9,17.6,6.9C17.6,6.9,17.6,6.9,17.6,6.9z M30.5,21.3C30.5,21.4,30.5,21.4,30.5,21.3
			C30.5,21.4,30.5,21.4,30.5,21.3C30.5,21.4,30.5,21.4,30.5,21.3L30.5,21.3L30.5,21.3z M28.7,20.1C28.7,20.1,28.7,20.2,28.7,20.1
			C28.7,20.2,28.7,20.2,28.7,20.1c0-0.1-0.1-0.1-0.2-0.2c0,0,0,0,0,0c0,0,0,0,0,0C28.5,20.1,28.6,20.1,28.7,20.1z M14,18.2
			c0.1-0.1,0.2-0.2,0.2-0.3c0.1,0,0.1-0.1,0.1-0.1c0.1-0.1,0.2-0.1,0.2-0.2c0.4-0.4,0.8-0.8,1.1-1.2c0.2-0.2,0.3-0.4,0.5-0.5
			c0,0,0.1,0,0.2-0.1l0,0c-0.1,0.2-0.2,0.4-0.4,0.6c-0.3,0.3-0.6,0.7-1,1.1c-0.3,0.3-0.6,0.6-0.9,1c-0.1,0.1-0.2,0.3-0.2,0.5
			c0,0.1,0.1,0.1,0.2,0.2c0.2,0.1,0.5,0.1,0.7,0.2c0.5,0.1,0.9,0.2,1.3,0.4c0,0,0.1,0,0.1,0.1c0,0,0,0,0,0c0,0-0.1,0.1-0.1,0.1
			c0.1,0.1,0.2,0.1,0.4,0.1c0.1,0,0.3,0.1,0.4,0.1c0.3,0.2,0.6,0.2,0.9,0.3c0.3,0,0.6,0.1,0.9,0.1c0.1-0.1,0.3-0.1,0.4-0.2
			c0-0.1,0.1-0.2,0.1-0.3l0,0c0.2,0,0.3-0.2,0.4-0.3c0.1,0,0.1,0,0.2,0c0.2,0,0.2-0.1,0.2-0.2c0,0,0-0.1,0-0.1
			c0-0.1,0.1-0.1,0.2-0.2c0.4-0.4,0.9-0.8,1.4-1.2c0.1-0.1,0.3-0.2,0.5-0.1c0.1,0,0.2,0,0.2-0.1c0.1-0.1,0.3-0.2,0.4-0.3
			c0.2-0.2,0.5-0.4,0.7-0.7c0-0.1,0-0.1,0-0.2c-0.1-0.3,0-0.7,0.1-1c0.1-0.3,0.1-0.6,0.1-0.9c0-0.4,0.1-0.8,0.2-1.2
			c0-0.3,0.1-0.7,0.1-1c0-0.3,0-0.6,0-0.9c0-0.5-0.1-1-0.1-1.5c0-0.1,0-0.1,0-0.2c0,0-0.1,0-0.1-0.1c0,0,0,0.1,0,0.1
			c-0.1,0.4-0.1,0.9-0.2,1.3c0,0.1,0,0.1-0.1,0c0,0,0-0.1,0-0.1c0-0.4,0-0.9,0-1.3c0-0.2,0.1-0.4,0.2-0.6c0,0,0,0,0-0.1
			c0,0,0-0.1,0-0.1c0,0-0.1-0.1-0.1-0.1c-0.1,0-0.2,0-0.4,0.1c-0.3,0.1-0.6,0.2-0.9,0.1c-0.6-0.1-1.1-0.2-1.7-0.3
			c-0.3-0.1-0.6-0.1-0.9,0c-0.5,0.1-1,0.1-1.6,0.2c-0.4,0.1-0.8,0.1-1.1,0.4c0,0-0.1,0-0.1,0.1c-0.8,0.4-1.5,0.9-2.3,1.3
			c-0.3,0.2-0.5,0.4-0.8,0.6c-0.1,0.1-0.1,0.1,0,0.2c0,0,0,0.1,0,0.1c-0.1,0.2-0.3,0.3-0.5,0.4c-0.2,0.1-0.3,0.3-0.5,0.4
			c-0.2,0.1-0.3,0.3-0.5,0.4c-0.2,0.1-0.3,0.3-0.5,0.4c-0.1,0-0.2,0-0.2,0c-0.1,0.1-0.1,0.1-0.2,0.2c0,0.1-0.1,0.3-0.1,0.4
			c-0.3,0.4-0.5,0.9-0.9,1.2c-0.2,0.2-0.4,0.5-0.6,0.8c-0.1,0.1,0,0.2,0,0.3c0,0,0,0,0,0c0,0,0,0,0,0c0.1-0.1,0.2-0.2,0.3-0.3
			c0,0,0.1,0,0.1,0c0.2,0,0.3,0.1,0.3,0.3c0,0.2,0,0.3-0.1,0.5c0,0.2,0,0.3-0.1,0.5c0,0.1,0,0.1,0,0.2c0.1,0.1,0.3,0.1,0.4,0.1
			c0.1-0.1,0.1-0.2,0.2-0.2c0.1,0.1,0,0.3,0.2,0.4c0.1,0,0.2,0,0.3,0.1c0,0,0,0,0,0c-0.2,0-0.3,0-0.5,0c0,0-0.1,0-0.1,0.1
			c0,0,0,0.1,0.1,0.1c0.1,0,0.2,0,0.4,0c0.5,0,1,0,1.5,0.1c0.1,0,0.1,0,0.2,0c0.2-0.1,0.3-0.3,0.4-0.5c0.3-0.5,0.6-0.9,1-1.4
			c0.1-0.2,0.3-0.4,0.5-0.5c0.2-0.2,0.4-0.4,0.6-0.7c0.3-0.4,0.7-0.8,1-1.1c0.5-0.6,1.2-1,2-1.2c0.2-0.1,0.4-0.1,0.6-0.2
			c0.4-0.1,0.8-0.2,1.1-0.4c0.6-0.3,1.3-0.5,1.9-0.7c0.4-0.1,0.6-0.1,1.1-0.1c-0.4,0.2-0.9,0.3-1.3,0.5c-0.4,0.1-0.8,0.3-1.1,0.4
			c-0.6,0.3-1.2,0.6-1.9,0.7c-0.1,0-0.2,0.1-0.3,0.1c-0.1,0.1-0.3,0.1-0.4,0.2c-0.6,0.2-1,0.5-1.4,0.9c-0.4,0.4-0.7,0.7-1,1.2
			c-0.2,0.3-0.5,0.6-0.7,0.8c-0.2,0.2-0.4,0.5-0.6,0.7c-0.1,0.1-0.1,0.2-0.1,0.3c-0.1,0-0.1,0.1-0.1,0.1C14.1,17.9,14,18,14,18.2
			L14,18.2L14,18.2z M12.6,10.6c0.1,0,0.2,0,0.2-0.1c0,0,0,0,0,0c0,0,0,0,0,0C12.6,10.4,12.6,10.5,12.6,10.6L12.6,10.6L12.6,10.6z
			 M2,29L2,29L2,29c0-0.1,0-0.2-0.1-0.3c0,0-0.1,0-0.1,0c0,0,0,0.1,0,0.1C1.8,29,1.8,29,2,29z M8.3,34.8L8.3,34.8L8.3,34.8
			c0,0.2,0.2,0.4,0.4,0.6c0,0.1,0,0.1,0.1,0.2c0.2,0.2,0.3,0.4,0.5,0.6c0,0,0.1,0.1,0.1,0.1c0,0,0.1,0,0.1,0c0,0,0.1-0.1,0.1-0.1
			c0-0.1,0-0.1-0.1-0.2c-0.2-0.2-0.5-0.4-0.7-0.6c0,0-0.1,0-0.1,0c0-0.2-0.1-0.3-0.2-0.4C8.4,34.9,8.4,34.8,8.3,34.8z M9.3,14.7
			c0.1,0,0.1,0,0.2,0c0.1,0,0.1-0.1,0.1-0.1c0.2-0.1,0.3-0.3,0.5-0.4c0.2-0.1,0.2-0.3,0.2-0.5c0,0,0-0.1-0.1-0.1
			C10,13.7,10,13.9,9.9,14c-0.2,0.1-0.4,0.3-0.5,0.5C9.4,14.6,9.3,14.7,9.3,14.7L9.3,14.7L9.3,14.7z M29.5,9.7c-0.1,0-0.2,0-0.3,0
			c-0.5-0.2-1-0.3-1.5-0.4c0,0-0.1,0-0.1,0c0.1,0,0.2,0.1,0.2,0.1c0.7,0.2,1.4,0.5,2,0.8c0.5,0.2,1,0.5,1.4,0.9
			c0.1,0,0.1,0.1,0.2,0.2c0,0,0,0.1,0,0.1c0,0-0.1,0-0.1,0c-0.1-0.1-0.2-0.1-0.3-0.2c-0.8-0.5-1.6-0.9-2.5-1.2
			c-0.6-0.2-1.2-0.4-1.8-0.5c-0.2-0.1-0.4-0.1-0.7,0c-0.2,0.1-0.5,0.1-0.7,0.2c0,0-0.1,0-0.1,0c-0.1-0.1-0.2-0.2-0.3-0.3
			c0,0-0.1,0-0.1,0c0,0,0,0-0.1,0c-0.1,0.2-0.3,0.3-0.4,0.5c0,0.2,0,0.4,0.1,0.6c0,0,0,0,0.1,0c0.1,0,0.2,0,0.2,0.1
			c0.1,0.1,0.1,0.2,0.1,0.4c0,0.4,0,0.9-0.1,1.3c-0.1,0.5-0.1,1-0.2,1.6c-0.1,0.8-0.2,1.5-0.3,2.3c0,0.2,0,0.4,0.1,0.6
			c0,0,0.1,0.1,0.1,0.1c0.3,0.1,0.6,0.3,0.7,0.6c0.1,0.1,0.2,0.2,0.3,0.2c0.2,0.1,0.4,0.2,0.6,0.4c0.2,0.2,0.5,0.3,0.7,0.4
			c0,0,0,0,0.1,0c0,0,0,0,0,0c0-0.1-0.1-0.1-0.1-0.2c0-0.1,0-0.1,0.1-0.2c0,0,0.1,0,0.1,0.1c0,0.1,0.1,0.1,0.1,0.2
			c0,0.2,0.1,0.4,0.3,0.6c0.2,0.1,0.4,0.3,0.6,0.4c0.4,0.4,0.9,0.6,1.4,0.9c0.1,0.1,0.3,0.1,0.5,0.1c0.4-0.1,0.8-0.2,1.2-0.3
			c0.1,0,0.2,0,0.2-0.1c0.6-0.2,1.2-0.4,1.7-0.6c0.2-0.1,0.5-0.1,0.7-0.2c0,0,0.1,0,0.1,0.1c0,0,0,0,0,0c-0.3,0.2-0.7,0.3-1.1,0.5
			c-0.6,0.2-1.1,0.4-1.7,0.6c-0.3,0.1-0.5,0.2-0.8,0.3c0,0,0.1,0.1,0.1,0.1c0.2,0,0.3,0,0.5,0c0.4-0.1,0.8-0.2,1.2-0.4
			c0.9-0.3,1.8-0.7,2.6-1c0.1-0.1,0.2-0.1,0.2-0.3c0,0,0.1-0.1,0.1-0.1c0.1,0,0.2,0,0.3,0c0.1,0,0.3,0,0.4-0.1
			c0.3-0.1,0.5-0.2,0.8-0.3c0.2-0.1,0.3-0.1,0.4-0.2c0.1,0,0.2-0.1,0.2-0.2c0-0.1,0-0.1-0.1-0.2c0.2-0.3,0.4-0.6,0.4-0.9
			c0-0.1-0.1-0.2,0-0.3c0.1-0.3,0.1-0.7,0.2-1c0.1-0.3,0.1-0.5,0.2-0.8c0.2-0.5,0.2-0.5,0.1-1.1c0.1-0.1,0.1-0.2,0.2-0.3
			c-0.2-0.4-0.5-0.8-0.8-1.1c-0.2-0.2-0.5-0.2-0.6-0.4c0,0-0.1-0.1-0.1-0.2c0-0.2-0.1-0.3-0.2-0.5c-0.1-0.1-0.2-0.2-0.3-0.2
			c-0.6-0.4-1.1-0.9-1.7-1.3c-0.9-0.6-1.8-1.1-2.8-1.5c-1.1-0.5-2.1-0.9-3.1-1.5c-0.3-0.1-0.5-0.2-0.8-0.3c-0.3-0.1-0.5-0.1-0.8-0.1
			c-0.1,0-0.2,0-0.2,0.1c0.1,0.1,0.1,0.1,0.2,0.2c0.1,0,0.2,0,0.4,0c0.1,0,0.3,0.1,0.4,0.2C27.9,7,28,7,28.1,7c0.1,0,0.2,0,0.4,0.1
			c0.2,0.1,0.4,0.1,0.5,0.4c0,0.1,0.1,0.2,0.2,0.2c0.1,0,0.2,0.1,0.3,0.1C29.5,7.9,29.7,8,29.9,8C30,8,30,8.1,30.1,8.2
			c0,0.1,0.1,0.2,0.1,0.3c0,0,0,0,0,0.1c0,0.1-0.1,0.3-0.2,0.3c-0.2,0-0.3,0-0.5-0.1c-0.3-0.1-0.6-0.1-1,0c-0.1,0.1-0.2,0.2-0.2,0.3
			c0,0,0,0,0,0.1c0,0.1,0.1,0.1,0.2,0.2c0.2,0.1,0.3,0.1,0.5,0.2C29.3,9.6,29.4,9.6,29.5,9.7L29.5,9.7z M11.8,28.3
			c0-0.1-0.1-0.1-0.1-0.2c0-0.1,0-0.2,0-0.2c0,0-0.1-0.1-0.1-0.1c0-0.1,0-0.3,0-0.5c-0.1-0.4-0.1-0.9-0.2-1.3
			c-0.1-0.4-0.1-0.9-0.1-1.3c0-0.4,0.1-0.7,0.1-1.1c0.2-1.1,0.5-2.2,0.9-3.2c0.1-0.3,0.2-0.5,0.3-0.8c0-0.1,0.1-0.2,0.1-0.3
			c0-0.1,0-0.2-0.1-0.2c0,0-0.1,0-0.1,0c-0.4-0.1-0.8-0.1-1.3-0.1c0,0,0,0-0.1,0c-0.1,0-0.2,0.1-0.2,0.1c-0.1,0.1-0.1,0.3-0.2,0.4
			c-0.1,0.1-0.1,0.2-0.2,0.4c-0.2,0.2-0.4,0.5-0.6,0.7c-0.4,0.4-0.8,0.9-1.1,1.4c-0.1,0.1-0.2,0.3-0.3,0.4c0,0-0.1,0-0.1,0
			c-0.1,0-0.1,0-0.2,0c-0.1,0.2-0.3,0.3-0.4,0.5c-0.2,0.3-0.4,0.6-0.2,1c0,0.1,0,0.1,0,0.2c0,0.1,0,0.2-0.2,0.3c0,0,0,0-0.1,0
			c-0.1,0-0.1-0.1-0.2-0.1c-0.3-0.2-0.3-0.2-0.5-0.1c-0.1,0.1-0.2,0.1-0.3,0.2c-0.1,0-0.2,0-0.3,0c-0.1,0.2-0.1,0.3-0.1,1
			c0.1,0.1,0.1,0.3,0.2,0.4c-0.1,0.2-0.1,0.5,0,0.8c0,0.1,0,0.2,0,0.2c0.1,0.6,0.2,1.2,0.4,1.8c0,0.6,0,0.6,0.3,1.3
			c0,0.1,0.1,0.2,0.1,0.3c0.1,0.4,0.3,0.7,0.5,1.1C8,31.5,8.2,31.8,8.3,32c0.3,0.6,0.7,1.1,1.1,1.6c0,0,0.1,0,0.2,0.1
			c0.1-0.2,0.2-0.4,0.2-0.6c0.1-0.1,0.2-0.2,0.4-0.3c0.2,0,0.4,0,0.6-0.2c0.1,0,0.2,0,0.2-0.1c0.1,0,0.2,0,0.4,0
			c0.1,0,0.1,0.1,0.1,0.1c0.3,0.3,0.7,0.6,1,1c0.2,0.2,0.3,0.3,0.5,0.4c0.2,0.1,0.5,0.2,0.7,0.3c0.5,0.3,1.1,0.4,1.6,0.7
			c0.1,0.1,0.3,0.1,0.5,0.1c0.1-0.1,0.2-0.2,0.3-0.3c0.2-0.1,0.2-0.2,0.3-0.4c0-0.2,0.1-0.3,0.2-0.4c0.1-0.1,0.2-0.2,0.3-0.4
			c0.3-0.3,0.6-0.6,0.8-0.9c0-0.1,0.1-0.1,0.2-0.2c0.2-0.1,0.3-0.3,0.4-0.5c0.1-0.2,0.3-0.5,0.4-0.7c0.1-0.2,0.2-0.3,0.3-0.5
			c0.1-0.1,0.2-0.2,0.3-0.2c0.1-0.2,0.2-0.4,0.4-0.5c0.3-0.5,0.6-1,0.9-1.5c0,0,0-0.1,0-0.2c0,0,0-0.1,0-0.1
			c-0.1-0.1-0.2-0.1-0.3-0.2c-0.3-0.1-0.7-0.3-1-0.3c0,0,0,0,0,0c0,0,0-0.1,0.1-0.1c0.2,0,0.4,0,0.5,0c0.1,0,0.1,0,0.1-0.1
			c-0.1-0.1-0.2-0.1-0.2-0.2c-0.1-0.1-0.1-0.2-0.2-0.3c-0.1-0.1-0.2-0.3-0.3-0.4c-0.1-0.2-0.2-0.4-0.3-0.6c-0.1-0.5-0.2-0.9-0.2-1.4
			c0-0.6,0-1.2,0-1.9c0-0.2,0-0.4-0.1-0.6c-0.1-0.1-0.2-0.2-0.4-0.3c-0.1,0-0.2,0.1-0.3,0.1c0,0-0.1,0-0.1,0c0-0.2,0-0.4,0-0.7
			c0.1-0.1,0.3-0.2,0.4-0.3c0.1-0.1,0.2-0.2,0.2-0.3c0.1-0.1,0-0.3-0.1-0.3c0,0-0.1,0-0.1-0.1c-0.2-0.1-0.5-0.1-0.7-0.2
			c-0.6-0.1-1.1-0.2-1.7-0.4c-0.5-0.1-1-0.3-1.5-0.4c-0.2,0-0.4-0.1-0.6-0.1c0,0-0.1,0.1-0.1,0.1c-0.2,0.2-0.3,0.4-0.4,0.6
			c-0.1,0.3-0.2,0.6-0.4,0.9c-0.3,0.7-0.6,1.4-0.7,2.1c0,0.1,0,0.2-0.1,0.2c0,0.1,0,0.2,0,0.3c0,0.5,0,0.9,0,1.4c0,0.1,0,0.1,0,0.2
			c0,0,0,0,0,0c0,0,0,0-0.1,0c0-0.1-0.1-0.1-0.1-0.2c-0.1,0.3,0,0.6,0,0.8c0,0.1,0,0.3,0,0.4c0,0.3,0,0.7,0.1,1
			c0.1,0.6,0.4,1.2,0.6,1.8c0,0.1,0.1,0.2,0.1,0.3l0,0c-0.2,0-0.3-0.1-0.3-0.3c0-0.1,0-0.1-0.1-0.2l0,0c0-0.1-0.1-0.2-0.1-0.2l0,0
			c0-0.1,0-0.1-0.1-0.2c-0.1,0-0.1,0-0.2-0.1C11.9,28.5,11.8,28.4,11.8,28.3C11.8,28.3,11.8,28.3,11.8,28.3
			C11.9,28.3,11.8,28.3,11.8,28.3z M30,32.5c-0.2,0-0.2-0.2-0.3-0.3c-0.3-0.3-0.5-0.6-0.8-0.9c-0.1-0.1-0.2-0.3-0.3-0.4
			c-0.1-0.1-0.3-0.2-0.4-0.3c-0.1,0-0.2,0-0.2,0.1c-0.2-0.2-0.3-0.5-0.6-0.7c-0.4-0.1-0.8-0.2-1.2-0.3c-0.3-0.1-0.5-0.1-0.8-0.1
			c-0.3,0-0.5,0-0.7-0.2c-0.1-0.1-0.2-0.1-0.3-0.1c-0.2-0.1-0.4-0.1-0.6-0.2c-0.3-0.1-0.5-0.2-0.8-0.2c-0.1,0-0.1,0-0.2,0
			c-0.1,0-0.3-0.1-0.4-0.1c-0.4-0.1-0.8-0.2-1.3-0.2c-0.1,0-0.1,0-0.2,0c0,0.1-0.1,0.1-0.1,0.2c-0.6,1.2-1.4,2.4-2.1,3.6
			c-0.2,0.3-0.3,0.6-0.5,0.8c-0.2,0.3-0.3,0.6-0.5,0.9c-0.1,0.2-0.2,0.4-0.4,0.6c-0.2,0.3-0.4,0.6-0.5,1c-0.1,0.3-0.1,0.6,0.1,0.8
			c0.2,0.4,0.4,0.7,0.7,1.1c0.3,0.3,0.6,0.7,0.9,0.9c0.1,0.1,0.2,0.1,0.2,0.2c0.1,0.1,0.1,0.1,0.1,0.2c0,0.1-0.1,0.1-0.1,0.2
			c0,0.1,0,0.1-0.1,0.2c0.2,0.1,0.3,0.2,0.4,0.3c0.6,0.1,0.6,0.1,1.2,0.1c0,0,0,0,0.1,0c0.2,0,0.3,0,0.4,0.2
			c0.1,0.2,0.2,0.3,0.4,0.3l0,0c0.1,0.1,0.3,0.1,0.4,0.1c0.2,0.1,0.4,0.1,0.6,0.2c0.1,0,0.1,0.1,0.1,0.1c0,0.1,0,0.1,0,0.2
			c0.5,0.2,1,0.3,1.5,0.3c0.6,0,1.2-0.2,1.7-0.3c0.7-0.2,1.4-0.4,2.2-0.6c0.1,0,0.3-0.1,0.4-0.2c0-0.1,0-0.1,0-0.2
			c0-0.1,0.1-0.2,0.1-0.2c0.4-0.1,0.8-0.3,1.2-0.5c0.2-0.1,0.4-0.1,0.6-0.1c0.2,0,0.4,0,0.5-0.1c0,0,0.1-0.1,0.1-0.1
			c-0.1,0-0.2-0.1-0.2-0.1c-0.1,0-0.2,0-0.4-0.1c0,0-0.1,0-0.1-0.1c-0.1-0.1-0.1-0.2-0.2-0.2c0-0.1-0.1-0.2-0.1-0.4
			c0.1,0,0.2,0,0.2-0.1c0.2-0.3,0.4-0.3,0.7-0.3c0.3,0,0.6,0.1,1,0.1c0.1,0,0.1,0,0.2,0c0-0.2,0-0.3,0-0.5C32,37,31.9,37,31.9,36.9
			c0,0,0,0,0-0.1c0.1,0,0.2,0,0.2-0.1c0.1,0,0.2-0.1,0.1-0.2c0-0.1,0-0.1-0.1-0.2c0.3-0.2,0.3-0.2,0.2-0.4c0-0.1,0-0.1,0-0.2
			c0-0.1,0-0.2,0-0.3c0-0.1-0.1-0.2-0.1-0.3c0.1-0.1,0.1-0.1,0.2-0.2c0,0,0-0.1,0-0.1c0,0,0-0.1-0.1-0.1c0,0,0-0.1,0.1-0.1
			c0.3-0.1,0.5,0,0.8-0.1c0.3-0.1,0.6-0.2,0.9-0.3c0.2-0.1,0.4-0.2,0.6-0.2c0.2-0.1,0.4-0.2,0.7-0.3c0.3-0.1,0.6-0.3,0.9-0.4
			c0.2-0.1,0.4-0.1,0.6-0.2c0.1,0,0.2,0,0.2,0c0.2,0.1,0.4,0,0.7,0c0,0,0.1,0.1,0.1,0.1c-0.1,0.1-0.1,0.1-0.2,0.2
			c0.1,0.1,0.1,0.2,0.2,0.3c0.2,0,0.3,0,0.4-0.1c0-0.1,0.1-0.2,0.2-0.2c0.2-0.1,0.3-0.3,0.4-0.4c0.3-0.3,0.5-0.6,0.7-1
			c0.1-0.1,0.2-0.3,0.3-0.4c0.4-0.4,0.6-0.9,0.8-1.4c0.1-0.1,0.1-0.3,0.1-0.5c0-0.1,0-0.2-0.1-0.3c-0.1-0.3-0.1-0.6,0-0.9
			c0.1-0.6,0.3-1.1,0.5-1.7c0.3-0.9,0.4-1.7,0.5-2.6c0-0.1,0-0.2,0-0.3c-0.1-0.2-0.1-0.4,0-0.6c0-0.1,0-0.1,0-0.2
			c0-0.1,0-0.2-0.1-0.3c-0.2-0.2-0.5-0.3-0.7-0.5c-0.2,0-0.3,0-0.5,0.1c-0.1,0.1-0.1,0.1-0.2,0.1c0-0.1,0-0.2,0-0.2
			c0.1-0.3,0-0.6-0.1-0.8c-0.1-0.1-0.2-0.3-0.3-0.4c-0.1-0.1-0.1-0.2-0.2-0.3c-0.4-0.6-0.4-0.6-0.5-1.3c-0.1-0.1-0.2-0.2-0.2-0.3
			c0-0.1-0.1-0.1-0.1-0.2c-0.1-0.1-0.3-0.2-0.4-0.3c-0.1,0-0.2-0.1-0.3-0.2c-0.2-0.1-0.4-0.2-0.6-0.1c-0.1,0.1-0.2,0.2-0.3,0.3
			c-0.2,0.1-0.4,0.2-0.6,0.2c-0.7,0.3-1.4,0.5-2.2,0.8c-1,0.3-1.9,0.7-2.9,1c-0.2,0.1-0.4,0.1-0.6,0.3c-0.1,0.1-0.1,0.3-0.2,0.4
			c-0.2,0.4-0.4,0.9-0.5,1.3c-0.1,0.3-0.3,0.7-0.4,1c0,0.1-0.1,0.3-0.2,0.4c0,0-0.1,0-0.1,0.1l0,0c0-0.1,0-0.1,0-0.2
			c-0.1,0.1-0.1,0.1-0.2,0.2c-0.2,0.6-0.4,1.1-0.5,1.7c0,0.2-0.1,0.4-0.2,0.6c0,0.1-0.1,0.2-0.1,0.2c-0.2,0.1-0.2,0.3-0.3,0.4
			c-0.1,0.2-0.1,0.4-0.2,0.6c0,0.2,0,0.3,0,0.4c0,0.1,0.1,0.2,0.1,0.2c-0.1,0.1-0.2,0.1-0.2,0.3c0.1,0.2,0.3,0.4,0.5,0.6
			c0.2,0.1,0.4,0.1,0.6,0.2c0,0,0,0-0.1,0c0,0-0.1,0-0.1,0c-0.2,0-0.3,0.2-0.2,0.4c0,0.1,0.1,0.1,0.1,0.2c0,0.1-0.1,0.2-0.1,0.3
			c0.1,0.1,0.1,0.2,0.2,0.3c0,0.1,0.1,0.1,0.2,0.2c0.1,0.1,0.1,0.1,0.2,0.2c0.3,0.5,0.7,0.9,1,1.3C30,32.4,30,32.5,30,32.5L30,32.5z
			 M37.5,9.6c-0.3-0.3-0.6-0.5-0.9-0.7c-0.5-0.4-1-0.9-1.4-1.4c-0.1-0.1-0.1-0.2-0.2-0.3c-0.3-0.5-0.8-0.8-1.3-1
			C33.6,6.1,33.4,6,33.3,6c-0.5-0.1-1-0.1-1.6-0.1c-0.2,0-0.4,0-0.7-0.1c-0.3-0.1-0.7-0.2-1-0.3c-0.4-0.1-0.8-0.2-1.3-0.1
			c0,0,0,0-0.1,0c0,0,0,0.1,0,0.1c0.1,0,0.2,0.1,0.3,0.1c0.2,0,0.4,0.1,0.6,0.2c0,0,0.1,0.1,0,0.1c0,0,0,0,0,0
			c-0.1,0.1-0.2,0-0.3,0.1c0,0,0,0.1,0.1,0.1c0.4,0.2,0.8,0.4,1.2,0.6c0.7,0.4,1.5,0.7,2.2,1.1c0.9,0.4,1.7,1,2.5,1.6
			c0.4,0.3,0.7,0.5,1.1,0.8c1.1,1,2.1,2.1,2.9,3.4c0,0,0.1,0.1,0.1,0.1c0.3,0.1,0.5,0.4,0.5,0.7c0.1,0.2,0.2,0.4,0.3,0.6
			c0.1,0.1,0.1,0.2,0.2,0.3c0.1,0.3,0.3,0.5,0.4,0.8c0.1,0.2,0.2,0.5,0.3,0.7c0,0,0.1,0,0.1,0c0,0,0,0,0,0c0-0.2,0-0.4,0-0.6
			c-0.1-0.6-0.3-1.1-0.4-1.7c-0.1-0.3-0.2-0.6-0.3-0.9c-0.2-0.4-0.4-0.8-0.8-1c-0.5-0.4-0.9-0.8-1.3-1.2c-0.3-0.3-0.5-0.6-0.7-0.9
			C37.7,10,37.6,9.8,37.5,9.6z M19.9,41.8C19.9,41.9,19.9,41.9,19.9,41.8C20,42,20.1,42,20.2,42c0.4,0.1,0.9,0.1,1.3,0.2
			c0.4,0.1,0.8,0.1,1.2,0c0.1,0,0.2,0,0.3,0c0.3,0,0.6,0,1,0c0.4,0,0.8,0,1.2,0c0.2,0,0.3,0,0.5,0c0.4,0,0.8-0.1,1.1-0.2
			c0.1,0,0.2,0,0.3-0.1c0,0,0-0.1-0.1-0.1c0.3-0.1,0.6,0,0.8-0.1c0.3,0,0.5-0.2,0.8-0.2c0.1-0.1,0.2-0.2,0.3-0.3
			c-0.1-0.2-0.1-0.3-0.2-0.5c-0.4-0.2-0.4-0.2-0.8-0.1c-0.5,0.1-1,0.3-1.6,0.5c-0.5,0.2-1,0.3-1.5,0.3c-0.7,0.1-1.5,0.1-2.2-0.1
			c-0.3,0-0.5-0.1-0.8-0.2c-0.7-0.2-1.5-0.4-2.2-0.4c-0.1,0-0.2,0-0.3,0c-0.2,0.1-0.4,0.2-0.5,0.2c-0.2,0.1-0.4,0.1-0.5,0.2
			c0,0,0,0.1,0,0.1c0,0,0,0.1,0,0.1c0.1,0.1,0.3,0.2,0.4,0.2c0.2,0,0.4,0,0.6,0c0.4,0.1,0.8,0.1,1.2,0.2c0.1,0,0.1,0,0,0.1
			c-0.1,0-0.2,0-0.3,0C20.1,41.8,20,41.8,19.9,41.8z M26.6,4.7c0,0-0.1,0-0.2-0.1c-0.2,0-0.4-0.1-0.5-0.1c-0.8-0.1-1.6-0.1-2.4,0
			c-0.8,0.1-1.5,0.2-2.3,0.3c-0.7,0.1-1.4,0.3-2.1,0.6c-0.2,0.1-0.3,0.2-0.5,0.3c0,0,0,0,0,0c0,0,0,0.1,0.1,0.1c0.1,0,0.3,0,0.4,0
			c0.1,0,0.2,0.1,0.4,0.2c0.2,0,0.4-0.1,0.5-0.1c0.2,0,0.3-0.1,0.5-0.1c0.7-0.1,1.3-0.1,2-0.1c0.6,0,1.2,0.1,1.8,0
			c0.1,0,0.1,0,0.2,0c0.1,0,0.3,0,0.4,0c0.2,0,0.3,0,0.5-0.1c0.1,0.1,0.1,0.2,0.2,0.2c0.3,0,0.6,0,0.9,0c0,0,0.1,0,0.1,0
			c0.1-0.1,0.2-0.2,0.1-0.4c-0.2-0.1-0.4,0-0.5-0.1c0-0.1,0.1-0.2,0.1-0.3C26.5,4.8,26.6,4.8,26.6,4.7z M42.9,23.3
			c0-0.1,0-0.3,0-0.4c0-0.1,0-0.1-0.1-0.2c0,0-0.1-0.1-0.2,0c0,0-0.1,0.1-0.1,0.1c0,0,0,0.1,0,0.1c0,0.1,0.1,0.1,0.1,0.2
			c0,0.1-0.1,0.2-0.2,0.2c-0.1,0-0.2,0-0.2-0.1c-0.1,0-0.2,0-0.2,0.1c0,0.1,0,0.2,0,0.3c0,0.5-0.1,1.1-0.1,1.6
			c-0.1,0.7-0.2,1.4-0.5,2c-0.1,0.2-0.1,0.4-0.2,0.7c-0.1,0.2-0.1,0.5,0,0.7c0,0.2,0.1,0.3,0.2,0.4c0,0.1,0.1,0.1,0.2,0
			c0.2-0.2,0.3-0.4,0.4-0.7c0-0.2,0.1-0.4,0.1-0.6c0.1-0.3,0.2-0.7,0.2-1c0.1-0.4,0.1-0.9,0.3-1.3c0.1-0.5,0.2-0.9,0.3-1.4
			C42.8,23.9,42.9,23.6,42.9,23.3z M14.1,9.6c0.1,0.1,0.2,0.1,0.3,0c0.6-0.3,1.1-0.5,1.7-0.7c0.5-0.1,1-0.3,1.5-0.4
			c0.2-0.1,0.4-0.2,0.6-0.4c0.1-0.1,0.1-0.1,0.1-0.3c0-0.1-0.1-0.1-0.2-0.1c-0.7,0.1-1.4,0.2-2.1,0.4c-0.2,0-0.4,0.1-0.6,0.3
			c-0.2,0.1-0.4,0.2-0.6,0.3c-0.1,0.1-0.2,0.1-0.3,0.1c-0.1,0.1-0.2,0.1-0.2,0.2C14.2,9.3,14.1,9.5,14.1,9.6z M18.2,7.4
			C18.2,7.4,18.2,7.4,18.2,7.4c0.2,0,0.3,0,0.5-0.1c0.7-0.1,1.3-0.3,1.9-0.8c0,0,0-0.1,0-0.1c0,0-0.1,0-0.1,0
			c-0.4,0-0.8,0.1-1.1,0.3c-0.2,0.1-0.4,0.2-0.7,0.3c-0.2,0.1-0.4,0.1-0.6,0.2c-0.2,0.1-0.3,0.1-0.4,0.2c0,0,0,0.1,0,0.1
			c0,0,0,0,0.1,0C17.9,7.4,18.1,7.4,18.2,7.4z M24.4,18.2c-0.1,0.1-0.1,0.2,0,0.3c0.2,0.2,0.3,0.3,0.5,0.5c0.1,0.1,0.3,0.1,0.5,0.1
			c0,0,0,0,0,0c0,0,0.1,0.1,0.1,0.1c0,0,0.1,0.1,0.1,0.1c0,0,0.1,0,0.2,0c0,0,0-0.1,0-0.1c-0.1-0.2-0.1-0.5-0.2-0.7
			c-0.3-0.2-0.7-0.4-1-0.5C24.5,18.1,24.5,18.2,24.4,18.2z M11.4,13.1c0.1-0.1,0.1-0.1,0.2-0.2c0.3-0.2,0.5-0.5,0.8-0.8
			c0.1-0.1,0.1-0.2,0.1-0.3c0,0,0,0,0,0c0,0-0.1,0-0.1,0c-0.5,0.3-1,0.6-1.4,1c0,0-0.1,0.1-0.1,0.1c0,0-0.1,0.1,0,0.2
			c0,0,0.1,0,0.1,0C11.1,13.1,11.2,13.1,11.4,13.1z M31.1,5.3c0.3,0.1,0.4,0.2,0.6,0.3c0,0,0.1,0,0.1,0c0.2,0,0.5,0.1,0.7,0.1
			c0.1,0,0.2,0,0.4,0c0.1,0,0.1,0,0.2-0.1c0.1,0,0.1-0.1,0.1-0.1c0,0-0.1-0.1-0.1-0.1C32.4,5.3,31.8,5.3,31.1,5.3z M15.1,9.8
			c-0.7,0.1-1.2,0.4-1.8,0.8c0,0,0,0,0,0c0,0,0,0.1,0,0.2c0,0,0.1,0.1,0.1,0c0.1,0,0.2-0.1,0.3-0.1C14.2,10.5,14.7,10.2,15.1,9.8z
			 M23.5,18.1C23.5,18.1,23.6,18.1,23.5,18.1c0-0.1,0-0.2-0.1-0.2c0,0-0.1,0-0.2,0c-0.2,0.2-0.4,0.4-0.7,0.6
			c-0.1,0.1-0.1,0.3,0.1,0.4c0,0,0.1,0,0.1,0c0.2-0.1,0.4-0.2,0.4-0.5c0-0.1,0-0.1,0.1-0.1c0,0,0.1,0,0.1,0
			C23.5,18.2,23.5,18.1,23.5,18.1z M22.4,28C22.3,28,22.4,28,22.4,28c0.1,0,0.2-0.1,0.2-0.2c0-0.1-0.1-0.3-0.2-0.3
			c-0.1-0.1-0.2-0.1-0.3-0.1c-0.1,0-0.1,0-0.2,0.1c0,0.1-0.1,0.2-0.1,0.3c0,0.1,0,0.2,0.1,0.2C22,28,22.2,28,22.4,28z M13.6,36.9
			c0,0,0,0.1,0,0.1c0.1,0.2,0.2,0.3,0.4,0.4c0.2,0.1,0.5,0.2,0.7,0.4c0,0,0,0,0.1,0c0,0,0.1,0,0.1-0.1c0,0,0,0,0-0.1
			c-0.2-0.2-0.5-0.3-0.7-0.5C14,37,13.8,37,13.6,36.9C13.7,36.9,13.6,36.9,13.6,36.9z M21.3,3.8c0,0-0.1,0-0.1,0
			c-0.3,0-0.7,0.1-1,0.2c-0.1,0.1-0.3,0.1-0.4,0.2c0,0,0,0,0.1,0c0.3,0,0.6-0.1,0.8-0.1c0.1,0,0.3-0.1,0.4-0.1
			C21.2,4,21.3,3.9,21.3,3.8z M7.2,33.4C7.2,33.5,7.2,33.5,7.2,33.4c0.1,0.3,0.2,0.6,0.4,0.9c0,0,0.1,0.1,0.1,0.1c0,0,0.1,0,0.1,0
			c0,0,0-0.1,0-0.1c-0.1-0.3-0.2-0.5-0.4-0.7C7.4,33.5,7.3,33.4,7.2,33.4z M14.8,36c-0.2,0.2-0.3,0.4-0.3,0.5
			c0.1,0.1,0.2,0.2,0.4,0.2c0.1-0.1,0.2-0.3,0.1-0.4C15,36.2,14.9,36,14.8,36z M1.6,28.5c0.1-0.3,0.1-0.5,0.1-0.8
			c0-0.1-0.1-0.3-0.1-0.4c0,0,0,0,0,0c0,0,0,0-0.1,0c0,0.1,0,0.3,0,0.4c0,0.1,0,0.3-0.1,0.4C1.5,28.2,1.6,28.3,1.6,28.5z M45.3,21.4
			c0,0.3,0,0.6-0.1,0.8c-0.1,0.2,0,0.4,0,0.6c0,0,0.1,0,0.1,0c0-0.1,0.1-0.2,0.1-0.3c0,0,0-0.1,0-0.1c0-0.3,0-0.5,0-0.8
			C45.4,21.5,45.4,21.5,45.3,21.4z M5.4,23.6c0-0.2-0.1-0.3-0.1-0.5c0,0-0.1-0.1-0.1-0.1c0,0-0.1,0-0.1,0c0,0.2,0,0.3,0,0.5
			c0,0.1,0,0.2,0.1,0.3c0,0,0.1,0,0.1,0.1C5.4,23.8,5.4,23.7,5.4,23.6z M45.4,19.3C45.4,19.3,45.3,19.3,45.4,19.3
			c-0.1,0.1-0.1,0.2-0.1,0.3c0,0.3,0,0.5,0,0.8c0-0.1,0-0.1,0-0.1C45.4,20,45.4,19.7,45.4,19.3z M31,39c0.1,0,0.2,0,0.3,0
			c0,0,0,0,0,0c0,0,0-0.1-0.1-0.1C31.2,38.9,31.1,38.9,31,39C31,39,31,39,31,39z M11.8,13c-0.1,0.1-0.2,0.2-0.3,0.3c0,0,0,0.1,0,0.1
			c0,0,0.1,0,0.1,0C11.7,13.3,11.8,13.2,11.8,13C11.9,13,11.9,13,11.8,13z M4.2,28.3c0.1-0.2,0.1-0.2,0-0.3c0,0,0,0,0,0c0,0,0,0,0,0
			C4.1,28.1,4.1,28.2,4.2,28.3z M23.3,28C23.3,28,23.3,28,23.3,28c-0.1-0.1-0.1-0.2-0.2-0.1c0,0,0,0,0,0C23.1,28,23.2,28.1,23.3,28
			C23.3,28.1,23.3,28,23.3,28z M41.1,22.1C41.1,22.1,41,22.1,41.1,22.1c-0.1,0.1-0.1,0.2,0,0.2c0,0,0.1,0,0.1,0c0,0,0,0,0,0
			C41.2,22.1,41.2,22.1,41.1,22.1z M0.9,33C0.9,33,0.9,32.9,0.9,33c0-0.1,0-0.1,0-0.2c0,0,0,0,0,0.1C0.9,32.9,0.9,33,0.9,33z
			 M28.7,44.6C28.8,44.6,28.8,44.7,28.7,44.6c0.1,0,0.1,0,0.2,0c0,0,0,0-0.1,0C28.8,44.6,28.8,44.6,28.7,44.6z M45.3,21.1
			C45.3,21,45.4,21,45.3,21.1c0-0.2,0-0.2,0-0.2c0,0,0,0,0,0.1C45.3,21,45.3,21,45.3,21.1z M20.3,20.4
			C20.3,20.4,20.2,20.4,20.3,20.4c-0.1,0-0.1,0-0.1,0c0,0,0,0.1,0,0.1c0,0,0.1,0,0.1,0C20.3,20.5,20.3,20.5,20.3,20.4z M17.3,38
			C17.3,38,17.3,37.9,17.3,38c0-0.1-0.1-0.1-0.1-0.1c0,0-0.1,0,0,0.1C17.2,38,17.2,38,17.3,38C17.2,38,17.3,38,17.3,38z M40.6,34.8
			C40.6,34.8,40.6,34.8,40.6,34.8C40.6,34.9,40.6,34.9,40.6,34.8C40.6,34.9,40.6,34.9,40.6,34.8C40.7,34.9,40.7,34.9,40.6,34.8
			C40.6,34.8,40.6,34.8,40.6,34.8z M23.8,6.4C23.8,6.4,23.7,6.4,23.8,6.4C23.7,6.4,23.7,6.4,23.8,6.4C23.7,6.4,23.7,6.4,23.8,6.4
			C23.8,6.4,23.8,6.4,23.8,6.4C23.8,6.4,23.8,6.4,23.8,6.4z"/>
		<path d="M19.4,49.4c0.1,0,0.2,0,0.3,0c0.7,0.2,1.4,0.5,2.1,0.6c0.9,0.2,1.9,0.5,2.9,0.6c1,0.1,2.1,0.1,3.1,0
			c0.9-0.2,1.8-0.4,2.7-0.6c0.5-0.2,1-0.3,1.6-0.5c1-0.3,1.9-0.8,2.8-1.4c0.5-0.3,1-0.6,1.4-0.9c0.6-0.4,1.2-0.8,1.7-1.3
			c0.1-0.1,0.2-0.2,0.2-0.3c0.1,0,0.1-0.1,0.1-0.1c0,0,0.1,0,0.1,0c0.2-0.1,0.3-0.2,0.4-0.5c0.1,0,0.1-0.1,0.1-0.1
			c0,0,0.1-0.1,0.1-0.1c0,0,0.1-0.1,0.1-0.1c0,0,0.1-0.1,0.1-0.1l0,0l0,0c0,0-0.1,0.1-0.1,0.1c0,0-0.1,0.1-0.1,0.1
			c0,0-0.1,0.1-0.1,0.1c-0.1,0-0.1,0-0.1,0.1c-0.2,0.1-0.3,0.2-0.5,0.4c0,0,0,0.1,0,0.1c-0.1,0-0.1,0.1-0.1,0.1
			c-0.1,0-0.1,0-0.2,0.1c-0.2,0.1-0.4,0.3-0.6,0.4c-0.8,0.6-1.6,1.1-2.4,1.6c-0.7,0.4-1.4,0.8-2.2,1.2c-0.1,0-0.2,0.1-0.3,0.1
			c-0.6,0.2-1.2,0.4-1.8,0.7c0,0,0,0-0.1,0c-0.7,0.1-1.4,0.4-2.1,0.5c-0.6,0.1-1.3,0.2-1.9,0.3c-0.7,0-1.4,0-2.1,0
			c-0.7,0-1.4-0.2-2-0.3c-0.5-0.1-0.9-0.2-1.4-0.3c-0.9-0.2-1.7-0.6-2.6-1c-0.2-0.1-0.4-0.3-0.5-0.4c0-0.1,0.1-0.1,0.1-0.1
			c0.4,0.2,0.9,0.4,1.4,0.6c0.1,0,0.3,0.1,0.4,0.1c0.1,0.1,0.2,0.1,0.4,0.1l0,0l0,0c-0.1-0.1-0.2-0.1-0.4-0.1c0-0.1-0.2-0.2-0.3-0.2
			c-0.3-0.1-0.5-0.2-0.7-0.4c0,0-0.1-0.1-0.1-0.1l0,0c0.1,0,0.2,0,0.2,0c0.7,0.3,1.5,0.5,2.2,0.8c1.1,0.3,2.2,0.6,3.4,0.8
			c0.7,0.1,1.3,0.2,2,0.2c0.7,0,1.4-0.1,2.1-0.2c0.7-0.2,1.3-0.3,1.9-0.5c0.8-0.3,1.6-0.6,2.3-0.9c0.1,0,0.2-0.1,0.3-0.1
			c0.2,0,0.4-0.1,0.5-0.2c0.7-0.4,1.3-0.8,1.9-1.2c0.8-0.6,1.6-1.2,2.3-1.9c0.2-0.2,0.3-0.3,0.5-0.5c0.3-0.3,0.5-0.5,0.7-0.8
			c0.1-0.1,0.2-0.2,0.3-0.3c0.4-0.4,0.8-0.9,1.1-1.4c0.1-0.1,0.2-0.3,0.3-0.4c0.5-0.5,0.9-1.1,1.4-1.6c0.6-0.8,1.3-1.5,1.9-2.4
			c0.7-1.1,1.3-2.2,1.6-3.4c0.1-0.4,0.3-0.8,0.4-1.2c0.1-0.4,0.2-0.8,0.3-1.2c0-0.2,0.1-0.4,0.2-0.6c0,0,0.1-0.1,0.1-0.1
			c0,0,0,0.1,0,0.1c-0.1,0.6-0.3,1.3-0.4,1.9c-0.3,1-0.6,2.1-1.1,3c-0.4,0.8-0.9,1.6-1.5,2.4c-0.4,0.5-0.8,1-1.2,1.5
			c-0.2,0.2-0.3,0.4-0.3,0.6c0,0.1-0.1,0.2-0.2,0.3l0,0l0,0c-0.2,0.4-0.5,0.7-0.8,1.1C41.2,41.9,41.1,42,41,42l0,0l0,0
			c0,0.1-0.1,0.2-0.1,0.3c-0.3,0.4-0.6,0.8-1,1.2c-0.1,0.1-0.1,0.2-0.2,0.3c0,0.1,0,0.2,0.1,0.2c-0.1,0.3-0.2,0.5-0.5,0.8
			c-0.2,0.2-0.4,0.5-0.7,0.7c-0.9,0.9-2,1.7-3.1,2.4c-0.5,0.3-0.9,0.6-1.4,0.9c-0.9,0.5-1.8,0.9-2.7,1.2c-0.6,0.2-1.2,0.4-1.8,0.6
			c-0.4,0.1-0.8,0.2-1.3,0.2c-0.2,0-0.3,0-0.5,0.1c-1,0.2-2.1,0.2-3.1,0.1c-0.7-0.1-1.4-0.2-2-0.3c-0.9-0.2-1.9-0.5-2.7-0.8
			c-0.2-0.1-0.3-0.1-0.5-0.2C19.4,49.5,19.4,49.4,19.4,49.4L19.4,49.4z"/>
		<path d="M23.2,44.8c0,0.1-0.1,0.1-0.2,0.1c-0.1,0-0.1,0.1-0.1,0.1c0,0,0.1,0.1,0.1,0.1c0.1,0,0.3,0.1,0.4,0.1
			c0.7,0.1,1.3,0.3,2,0.4c0.2,0,0.4,0,0.6-0.1c0.1,0,0.1-0.1,0.2-0.1c0.1,0,0.1,0,0.1,0.1c0,0.1,0,0.2,0,0.2
			C26.3,46,26.2,46,26.1,46c-0.3,0-0.6,0.1-1,0.1c-0.3,0-0.5,0-0.8,0c-0.4,0-0.9,0-1.3-0.1c-0.5-0.1-1-0.1-1.5-0.2
			c-0.1,0-0.2-0.1-0.3-0.1c0,0,0-0.1,0-0.1c0,0,0,0,0,0c0.2,0,0.5,0.1,0.7,0.1c0.4,0.1,0.9,0.2,1.3,0.2c0.2,0,0.3,0,0.5-0.1
			c0,0-0.1-0.1-0.1-0.1c-0.4-0.1-0.8-0.2-1.2-0.3c-0.3-0.1-0.7-0.2-1.1-0.2c-0.3,0-0.7,0-1,0.1c-0.3,0.1-0.6,0.1-1,0.1
			c0,0.1,0.1,0.1,0.1,0.1c0.5,0.1,0.9,0.2,1.4,0.4c0.3,0.1,0.6,0.2,0.9,0.3c0.1,0,0.3,0.1,0.3,0.2c0,0-0.1,0-0.1,0
			c-0.3-0.1-0.6-0.1-1-0.2c-0.2,0-0.5-0.1-0.7-0.1c-0.5,0-1-0.1-1.4-0.4c-0.1-0.1-0.2-0.1-0.3-0.1c-0.1,0-0.2-0.1-0.3-0.1
			c-0.3-0.1-0.6-0.2-1-0.3c-0.3,0-0.6-0.2-0.8-0.4c-0.3-0.2-0.6-0.4-0.9-0.7c-0.3-0.2-0.6-0.4-0.9-0.5c-0.4-0.2-1.6-0.9-1.8-1.1
			c0,0,0-0.1,0-0.1c0,0,0,0,0,0c0,0,0.1,0,0.1,0c0.2,0.1,0.4,0.1,0.6,0.2c0.1,0,0.1,0,0.2,0.1c0.4,0.3,0.8,0.4,1.2,0.7
			c0.1,0,0.1,0.1,0.2,0.1c0.4,0.2,0.7,0.5,1.1,0.7c0.1,0.1,0.2,0.1,0.3,0.2c0.4,0.3,0.8,0.4,1.3,0.3c0.2,0,0.4,0,0.6,0
			c0.1,0,0.2,0,0.3-0.1l0,0c0.5,0.1,1,0.1,1.5,0.1c0,0,0,0,0,0c-0.1-0.1-0.2-0.1-0.3-0.2c-0.3-0.1-0.5-0.2-0.8-0.3
			c-0.1,0-0.1-0.1-0.2-0.1c0,0,0-0.1,0-0.1c0,0,0,0,0,0c0.1,0,0.1,0,0.2,0c0.2,0,0.3,0.1,0.5,0.2c0.5,0.2,1,0.4,1.5,0.5
			c0.1,0,0.2,0.1,0.3,0.1c0.2,0.1,0.4,0.1,0.6,0C22.6,44.8,22.9,44.8,23.2,44.8L23.2,44.8z"/>
		<path d="M19.3,2.6c-0.1,0-0.2,0-0.2,0c-0.5,0.2-1,0.3-1.5,0.5c-0.3,0.1-0.6,0.2-0.8,0.3l0,0c0,0,0-0.1,0-0.1
			C17,3.2,17.3,3.1,17.5,3c0.1-0.1,0.3-0.1,0.4-0.2c0.1-0.1,0.2-0.1,0.4-0.2c0.3,0,0.6-0.1,0.9-0.2c0.7-0.2,1.3-0.4,2-0.5
			c0.5-0.1,1.1-0.3,1.6-0.4c0.1,0,0.2-0.1,0.2-0.1c0.2-0.1,0.5-0.1,0.7-0.2c0.1,0,0.3,0,0.4-0.1C24.6,1,25,1,25.4,1
			c0.3,0,0.5-0.1,0.8-0.1c0.4,0,0.7,0,1.1,0c0.2,0,0.4,0,0.6,0c0.1-0.1,0.2,0,0.3,0C28.2,1,28.3,1,28.3,1c0.3,0,0.5,0.1,0.7,0.1
			c0.2,0,0.5,0.1,0.7,0.1c0.1,0,0.1,0,0.2,0c0,0,0-0.1,0.1-0.1c0,0,0,0,0,0c0,0-0.1,0-0.1,0c-0.4-0.3-0.9-0.4-1.4-0.4
			c-0.1,0-0.2,0-0.2,0c-0.5-0.2-0.6-0.2-1.1-0.1c-0.1,0-0.2-0.1-0.3-0.1c-0.1,0-0.2,0-0.3-0.1c-0.1,0-0.1-0.1-0.1-0.1
			c0,0,0-0.1,0-0.1c0.1,0,0.2,0,0.2,0c0.5,0,1,0.1,1.5,0.2c0.7,0.1,1.4,0.2,2.2,0.3c0.3,0,0.5,0.1,0.8,0.1c0.2,0,0.3,0.1,0.5,0.1
			c0.1,0.1,0.3,0.2,0.4,0.4c0,0.1,0,0.1-0.1,0.2c-0.1,0.1-0.3,0.2-0.3,0.4c0,0.1-0.1,0.1-0.2,0.2c-0.2,0-0.4,0-0.6,0
			c-0.3,0-0.6-0.1-0.9-0.1c-0.2,0-0.3-0.1-0.5-0.2c-0.3-0.1-0.6-0.2-0.9-0.2c-0.1,0-0.2,0-0.3,0c-0.3-0.1-0.7-0.1-1-0.1
			c-0.1,0.1-0.3,0.1-0.4,0.2c-0.2-0.1-0.4-0.2-0.6-0.2c-0.2,0.1-0.2,0.1-0.3,0.2c-0.2,0-0.3-0.2-0.5-0.3c-0.2,0-0.4,0-0.7,0.1
			c-0.3,0.1-0.7,0.1-1,0.2c-0.4,0.1-0.8,0.1-1.2,0.2c-0.1,0-0.1,0-0.2,0c-0.3,0.1-0.6,0.2-0.9,0.2c-0.3,0-0.5,0.1-0.8,0.2
			c-0.1,0-0.2,0.1-0.4,0.1c-0.2,0-0.3,0.1-0.5,0.2c0,0-0.1,0.1-0.1,0.1C19.5,2.6,19.4,2.5,19.3,2.6L19.3,2.6z"/>
		<path d="M9.3,5.2C9.5,4.9,9.7,4.7,10,4.6c0.5-0.4,1-0.8,1.5-1.2c0.7-0.5,1.4-1.1,2.1-1.5c0.4-0.3,1.1-0.5,1.6-0.7
			c0.6-0.2,1.2-0.3,1.8-0.4c0.3-0.1,0.5-0.1,0.8-0.3c0.1,0,0.2,0,0.3,0c0,0,0-0.1,0.1-0.1c0,0,0.1,0,0.1,0c0,0,0.1,0,0.1,0.1
			c0.4,0,0.8-0.1,1.2-0.2C20,0.2,20.3,0.1,20.7,0c0.4-0.1,0.7-0.1,1.1,0c0.2,0,0.4,0.1,0.5,0.1c0.1,0.1,0.2,0.2,0.3,0.4
			c-0.2,0.1-0.4,0.1-0.6,0.1c-0.1,0-0.2,0-0.4,0l0,0c0,0,0-0.1,0.1-0.1c0.1,0,0.3-0.1,0.4-0.1c0.1,0,0.1-0.1,0.2-0.1
			c-0.1-0.1-0.2-0.1-0.3-0.1c-0.3,0-0.6-0.1-0.9,0c-0.3,0.1-0.5,0.1-0.8,0.1c-0.1,0-0.3,0-0.4,0c-0.6,0.1-1.1,0.2-1.7,0.3
			c-0.8,0.2-1.5,0.3-2.3,0.5c-1,0.2-1.9,0.6-2.7,1.1c-0.3,0.2-0.5,0.4-0.8,0.6c-0.4,0.3-0.7,0.5-1.1,0.8C11.2,3.8,11.1,3.9,11,4
			c-0.5,0.4-1,0.7-1.5,1.1C9.4,5.1,9.3,5.2,9.3,5.2L9.3,5.2z"/>
		<path d="M14.8,42.6c-0.3,0-0.5-0.1-0.7-0.3c-0.4-0.2-0.9-0.5-1.3-0.8c-0.1-0.1-0.3-0.1-0.4-0.2c-0.3-0.1-0.5-0.2-0.7-0.4
			c-0.2-0.1-0.4-0.3-0.6-0.4c0,0-0.1,0-0.1-0.1c0,0,0,0,0,0c0,0.1,0.1,0,0.1,0c0,0.1,0,0.2,0,0.2c0.1,0.1,0.2,0.2,0.2,0.3
			c0.1,0.2,0.2,0.3,0.4,0.5c0.2,0.1,0.4,0.3,0.6,0.5c0,0,0,0.1,0,0.1l0,0c-0.2-0.1-0.4-0.2-0.5-0.3c-0.2,0-0.2,0.1-0.3,0.1
			c-0.1,0-0.2,0-0.3,0c-0.2-0.1-0.4,0-0.7-0.1c-0.1,0-0.1,0-0.2-0.1c0,0,0-0.1,0.1-0.1c0,0,0,0,0.1,0c0.3,0.1,0.6,0.1,1,0
			c0-0.2,0-0.2-0.2-0.1c-0.4-0.3-0.4-0.3-0.9-0.5c-0.1,0-0.2-0.1-0.3-0.2c0,0,0-0.1,0-0.1c0.4,0.1,0.8,0.3,1.2,0.5c0,0,0,0,0,0
			c0,0,0,0,0,0c0-0.1-0.1-0.3-0.1-0.4c-0.3-0.3-0.5-0.7-0.8-1c-0.1-0.1-0.2-0.2-0.3-0.3l0,0c0.2-0.1,0.3-0.1,0.4,0
			c0.2,0.2,0.5,0.3,0.7,0.5c0.1,0.1,0.2,0.1,0.3,0.2c0.2,0.1,0.3,0.2,0.5,0.3c0.7,0.5,1.5,1,2.3,1.5c0.2,0.1,0.4,0.3,0.6,0.4
			C14.7,42.5,14.7,42.6,14.8,42.6L14.8,42.6z"/>
		<path d="M16.6,2.3c0,0,0.1-0.1,0.1-0.1c0.8-0.3,1.6-0.6,2.4-0.8c0.6-0.2,1.2-0.3,1.8-0.4c0.1,0,0.2,0,0.2,0l0,0
			C21,1,20.9,1,20.8,1.1c-0.1,0.1-0.2,0.1-0.3,0.1c-0.1,0.1-0.3,0.1-0.5,0.2c-0.1,0.1-0.1,0.2-0.2,0.2c-0.1,0.1-0.2,0-0.4-0.1
			c-0.4,0.1-0.8,0.2-1.3,0.4C18.3,2,18.4,2,18.4,2c0.2,0,0.5-0.1,0.7-0.2c0.1,0,0.1,0,0.3,0C19.3,2,19.1,2,18.9,2.1
			c-0.2,0.1-0.3,0.1-0.5,0.2c-0.3,0.1-0.7,0.2-1,0.3c-0.1,0-0.2,0-0.2,0l0,0c0-0.1,0-0.1,0.1-0.1c0.1-0.1,0.2-0.1,0.2-0.2
			c0.1,0,0.1-0.1,0.2-0.2l0,0c-0.2,0-0.3,0-0.5,0.1c-0.1,0-0.3,0-0.4,0C16.7,2.3,16.7,2.2,16.6,2.3L16.6,2.3z"/>
		<path d="M14.4,45.9C14.4,45.9,14.3,45.9,14.4,45.9c-0.1,0.1-0.2,0-0.2,0c-0.3-0.2-0.6-0.4-0.9-0.7c-0.1-0.1-0.2-0.2-0.3-0.3
			c-0.1-0.1-0.2-0.1-0.3-0.2c-0.3-0.2-0.6-0.5-0.8-0.7c-0.4-0.4-0.8-0.9-1.2-1.2c-0.1-0.1-0.1-0.1,0-0.2c0.3-0.1,0.4,0.1,0.6,0.2
			c0,0.1,0,0.1,0,0.2c0.2,0.2,0.3,0.5,0.5,0.6c0.1,0.1,0.2,0.1,0.2,0.2c0.6,0.6,1.2,1.1,1.9,1.6c0.1,0.1,0.3,0.2,0.4,0.3
			c0,0,0,0.1,0.1,0.2l0,0C14.4,45.8,14.4,45.8,14.4,45.9C14.4,45.8,14.4,45.9,14.4,45.9L14.4,45.9z"/>
		<path d="M36.4,2.6c0.1,0,0.1,0,0.2,0c0.7,0.3,1.3,0.6,1.9,1c0.2,0.1,0.3,0.2,0.5,0.4c0.3,0.2,0.6,0.5,0.9,0.7
			C40.3,5.1,40.7,5.5,41,6c0,0,0,0,0,0.1c0,0,0,0,0,0.1c0,0,0,0,0,0c0,0-0.1-0.1-0.1-0.1c-0.4-0.5-0.8-0.9-1.3-1.3
			c-0.2-0.1-0.3-0.3-0.5-0.4c-0.7-0.5-1.4-1-2.2-1.4C36.6,2.8,36.5,2.8,36.4,2.6C36.4,2.7,36.4,2.6,36.4,2.6L36.4,2.6z"/>
		<path d="M10.3,8.5c0-0.1,0.1-0.3,0.2-0.4c0.1-0.1,0.2-0.2,0.3-0.2c0.2-0.2,0.3-0.4,0.6-0.6c0.2-0.1,0.4-0.3,0.7-0.5
			c0.3-0.3,0.6-0.6,0.9-0.8c0.2-0.2,0.5-0.4,0.7-0.6c0.1-0.1,0.2-0.1,0.3-0.1l0,0c-0.2,0.2-0.4,0.4-0.7,0.7C12.6,6.4,12,7,11.4,7.5
			c-0.2,0.2-0.4,0.4-0.5,0.7c0,0-0.1,0.1-0.1,0.1c-0.1-0.1-0.2-0.1-0.3-0.1C10.4,8.3,10.4,8.4,10.3,8.5L10.3,8.5z"/>
		<path d="M43,30.9c-0.1,0-0.1,0.1-0.2,0.2c0,0-0.1-0.1,0-0.1c0.1-0.4,0.2-0.7,0.3-1.1c0.1-0.3,0.2-0.7,0.3-1c0,0,0.1-0.1,0.1-0.1
			l0,0c0,0.1,0,0.3,0,0.4c-0.1,0.3-0.1,0.6-0.2,0.8c-0.1,0.2-0.1,0.4-0.1,0.6l0,0C43,30.6,43,30.8,43,30.9L43,30.9z"/>
		<path d="M44.1,26.6c0-0.3,0-0.6,0.1-0.9c0.1-0.3,0.1-0.5,0.2-0.8c0,0,0.1-0.1,0.1-0.1l0,0c0,0.3-0.1,0.6-0.1,0.8
			C44.3,26,44.2,26.2,44.1,26.6C44.1,26.5,44.1,26.6,44.1,26.6L44.1,26.6z"/>
		<path d="M25.6,46.4c-0.6,0.1-0.6,0.1-1,0c0-0.1,0.1-0.1,0.2-0.1C25.1,46.2,25.3,46.2,25.6,46.4z"/>
		<path d="M14.4,3.3c-0.2,0.1-0.3,0.3-0.4,0.4c0,0-0.1,0-0.1,0c0,0,0,0,0-0.1c0.2-0.2,0.4-0.4,0.6-0.5c0,0,0.1,0,0.1,0
			c0,0,0,0.1,0,0.1c0,0.1,0,0.1-0.1,0.1l0,0C14.5,3.3,14.4,3.3,14.4,3.3L14.4,3.3z"/>
		<path d="M15.4,4.1C15.4,4.1,15.4,4.1,15.4,4.1c0.3-0.2,0.5-0.3,0.7-0.4c0,0,0.1,0,0.2,0l0,0c0,0,0,0,0,0.1C16,3.9,15.7,4,15.4,4.1
			L15.4,4.1z"/>
		<path d="M9.6,9.2c0,0.1,0,0.1-0.1,0.2C9.5,9.5,9.3,9.6,9.2,9.8c0,0-0.1,0-0.2,0.1l0,0c0,0,0-0.1,0-0.1c0.1-0.2,0.3-0.4,0.4-0.5
			C9.5,9.2,9.6,9.2,9.6,9.2L9.6,9.2z"/>
		<path d="M13.4,44.3c-0.1,0-0.1,0-0.2,0c-0.1,0-0.1-0.1-0.1-0.1C13,44.1,13,44,12.9,43.9c0,0,0-0.1,0-0.1
			C13.1,44,13.3,44.1,13.4,44.3L13.4,44.3z"/>
		<path d="M43.8,27.5c0-0.3,0.1-0.6,0.2-0.9c0,0,0,0,0,0l0,0c0,0.3-0.1,0.5-0.1,0.8C43.9,27.4,43.8,27.5,43.8,27.5L43.8,27.5z"/>
		<path d="M43.5,28.8c0-0.3,0.1-0.5,0.2-0.8c0,0,0,0,0,0l0,0C43.7,28.2,43.6,28.5,43.5,28.8C43.5,28.8,43.5,28.8,43.5,28.8
			L43.5,28.8z"/>
		<path d="M14.8,4.5c0,0.1,0,0.1-0.1,0.1c-0.2,0.1-0.3,0.2-0.5,0.3l0,0c0-0.1,0.1-0.2,0.2-0.3C14.5,4.6,14.6,4.5,14.8,4.5L14.8,4.5z
			"/>
		<path d="M38,6.8c0.2,0.1,0.3,0.2,0.4,0.4c0,0.1,0,0.1-0.1,0C38.2,7.1,38.1,7,38,6.8C38,6.9,38,6.8,38,6.8L38,6.8z"/>
		<path d="M34.7,41c0.1-0.1,0.2-0.2,0.3-0.3c0,0,0.1,0,0.1,0c0,0,0,0,0,0C34.9,40.9,34.8,41,34.7,41L34.7,41z"/>
		<path d="M9.6,9.2c0-0.1,0-0.1,0-0.2C9.8,8.9,9.9,8.8,10,8.7l0,0C10,8.9,9.9,9.1,9.6,9.2L9.6,9.2z"/>
		<path d="M16.2,3.7c0.1-0.2,0.3-0.3,0.5-0.2l0,0C16.6,3.6,16.4,3.7,16.2,3.7L16.2,3.7z"/>
		<path d="M25.3,3.6c0.1,0,0.3,0,0.5,0.1c-0.2,0.1-0.3,0-0.5,0l0,0C25.3,3.6,25.3,3.6,25.3,3.6L25.3,3.6z"/>
		<path d="M30.9,43.2c0,0,0,0.1,0,0.1l0,0c-0.1,0-0.2,0-0.3,0.1l0,0c-0.1,0-0.1,0-0.2-0.1C30.6,43.2,30.7,43.2,30.9,43.2L30.9,43.2z
			"/>
		<path d="M5.1,15.7c0.1-0.1,0.1-0.2,0.2-0.3c0,0,0.1,0,0.1,0l0,0C5.3,15.5,5.3,15.6,5.1,15.7C5.2,15.7,5.1,15.7,5.1,15.7L5.1,15.7z
			"/>
		<path d="M41.7,12c0.1,0.1,0.2,0.2,0.2,0.3l0,0C41.9,12.2,41.8,12.1,41.7,12L41.7,12z"/>
		<path d="M7.1,12.7c0-0.2,0.1-0.3,0.2-0.4l0,0C7.3,12.5,7.2,12.6,7.1,12.7L7.1,12.7z"/>
		<path d="M12.3,4.6c0,0.1-0.1,0.1-0.1,0.2c0,0.1-0.1,0.1-0.1,0c0,0,0,0,0-0.1C12.2,4.7,12.2,4.6,12.3,4.6L12.3,4.6z"/>
		<path d="M2.7,37.9c0-0.1,0-0.1,0.1-0.1c0.1,0,0.1,0.1,0.1,0.2c0,0,0,0,0,0c0,0,0,0,0,0l0,0C2.8,38,2.7,38,2.7,37.9L2.7,37.9z"/>
		<path d="M17.9,47.6c0.1,0,0.2,0.1,0.3,0.2c0,0,0,0.1,0,0.1l0,0C18.2,47.8,18.1,47.8,17.9,47.6C18,47.7,18,47.6,17.9,47.6
			L17.9,47.6z"/>
		<path d="M15,45.6c-0.2,0-0.3-0.1-0.4-0.2l0,0C14.8,45.4,14.9,45.5,15,45.6L15,45.6z"/>
		<path d="M14,45c0.2,0,0.3,0.1,0.4,0.2l0,0C14.2,45.2,14.1,45.1,14,45L14,45z"/>
		<path d="M32.2,42.5c0,0,0,0.1-0.1,0.1c-0.1,0.1-0.2,0.1-0.2,0.1l0,0c0,0,0-0.1,0-0.1C32,42.6,32.1,42.5,32.2,42.5L32.2,42.5z"/>
		<path d="M44.4,24.8c0-0.2,0-0.3,0.1-0.5l0,0c0,0.1,0,0.1,0,0.2C44.5,24.7,44.5,24.8,44.4,24.8L44.4,24.8z"/>
		<path d="M43.7,28c0-0.1,0-0.2,0-0.3c0-0.1,0-0.1,0.1-0.2l0,0c0,0.1,0,0.2,0,0.3C43.8,27.9,43.8,27.9,43.7,28L43.7,28z"/>
		<path d="M44.6,24.4c0-0.1,0-0.3,0.1-0.4l0,0C44.6,24.1,44.6,24.3,44.6,24.4L44.6,24.4z"/>
		<polygon points="26.1,47.2 26.1,47.2 26,47.2 		"/>
		<path d="M24.8,47.3C24.8,47.3,24.8,47.3,24.8,47.3C24.7,47.3,24.7,47.4,24.8,47.3C24.7,47.3,24.7,47.3,24.8,47.3
			C24.7,47.3,24.7,47.3,24.8,47.3z"/>
		<path d="M15.7,46.9c-0.1,0-0.2-0.1-0.2-0.1l0,0c0,0,0.1,0,0.1-0.1C15.7,46.8,15.7,46.8,15.7,46.9C15.7,46.9,15.7,46.9,15.7,46.9
			L15.7,46.9z"/>
		<path d="M5.9,14.6c0,0,0-0.1,0-0.1c0,0,0,0,0,0C5.9,14.5,5.9,14.5,5.9,14.6L5.9,14.6z"/>
		<path d="M33.9,41.6c-0.1,0.1-0.1,0.1-0.2,0.1l0,0C33.8,41.6,33.8,41.6,33.9,41.6L33.9,41.6z"/>
		<path d="M8.2,11c0,0,0-0.1,0-0.1C8.2,10.9,8.2,10.9,8.2,11C8.2,11,8.2,11,8.2,11L8.2,11z"/>
		<path d="M43.8,11C43.8,11,43.8,11,43.8,11c-0.1-0.1-0.1-0.1-0.1-0.1C43.8,10.9,43.8,10.9,43.8,11C43.8,11,43.8,11,43.8,11L43.8,11
			z"/>
		<path d="M7.1,38.6C7,38.6,7,38.5,7,38.4l0,0C7,38.5,7.1,38.5,7.1,38.6L7.1,38.6z"/>
		<path d="M5,16c0-0.1,0-0.2,0.1-0.3l0,0C5.1,15.8,5.1,15.9,5,16L5,16z"/>
		<path d="M9.4,40.6c0,0,0.1,0,0.1,0l0,0c0,0,0,0.1,0,0.1C9.4,40.7,9.4,40.6,9.4,40.6L9.4,40.6z"/>
		<path d="M6.5,13.6c0-0.1,0-0.2,0.1-0.2l0,0C6.6,13.5,6.6,13.5,6.5,13.6L6.5,13.6z"/>
		<path d="M8.3,39.2c0.1,0.1,0.1,0.1,0.1,0.2l0,0C8.3,39.4,8.3,39.3,8.3,39.2L8.3,39.2z"/>
		<path d="M6.7,13.1c0,0.1,0,0.2-0.1,0.2l0,0C6.6,13.3,6.7,13.2,6.7,13.1L6.7,13.1z"/>
		<path d="M4.6,16.3c0,0.1,0,0.2-0.1,0.2l0,0C4.6,16.4,4.6,16.4,4.6,16.3L4.6,16.3z"/>
		<path d="M5.5,15.1C5.5,15.1,5.5,15.1,5.5,15.1C5.5,15,5.5,15,5.5,15.1C5.6,15,5.6,15.1,5.5,15.1C5.5,15.1,5.5,15.1,5.5,15.1
			L5.5,15.1z"/>
		<path d="M5.5,15.1c0,0.1,0,0.2-0.1,0.3l0,0C5.4,15.3,5.4,15.2,5.5,15.1L5.5,15.1z"/>
		<path d="M34.4,41.2c-0.1,0.1-0.2,0.1-0.2,0.1l0,0C34.3,41.2,34.3,41.2,34.4,41.2L34.4,41.2z"/>
		<path d="M9.9,39.9c0.1,0,0.1,0.1,0.1,0.2l0,0C9.9,40.1,9.9,40,9.9,39.9L9.9,39.9z"/>
		<path d="M1.5,30.2C1.5,30.2,1.5,30.3,1.5,30.2c0.1,0.1,0.1,0.1,0.1,0.1C1.5,30.3,1.5,30.2,1.5,30.2L1.5,30.2z"/>
		<polygon points="5.1,38 5.1,38 5,38 		"/>
		<path d="M7.3,38c-0.1-0.1-0.1-0.2-0.1-0.2l0,0c0,0,0.1,0,0.1,0l0,0C7.3,37.9,7.3,38,7.3,38L7.3,38z"/>
		<path d="M6.5,36.9C6.5,36.9,6.5,36.9,6.5,36.9C6.5,36.9,6.5,37,6.5,36.9C6.5,36.9,6.5,36.9,6.5,36.9L6.5,36.9z"/>
		<path d="M19.2,49.3c0.1,0,0.2,0,0.2,0.1l0,0C19.3,49.4,19.2,49.4,19.2,49.3L19.2,49.3z"/>
		<path d="M18.8,48.1c-0.1,0-0.2,0-0.2-0.1l0,0C18.7,48,18.8,48,18.8,48.1L18.8,48.1z"/>
		<path d="M18.6,48c-0.1,0-0.2,0-0.3-0.1l0,0C18.4,47.9,18.5,47.9,18.6,48L18.6,48z"/>
		<path d="M17.7,47.5c0.1,0,0.2,0,0.3,0.1l0,0C17.9,47.6,17.8,47.6,17.7,47.5L17.7,47.5z"/>
		<path d="M16.3,47.4c0.1,0,0.2,0,0.2,0.1l0,0C16.5,47.5,16.4,47.4,16.3,47.4L16.3,47.4z"/>
		<path d="M17.6,47.4c-0.1,0-0.2,0-0.3-0.1l0,0C17.4,47.3,17.5,47.3,17.6,47.4L17.6,47.4z"/>
		<path d="M14,5.1c-0.1,0.1-0.1,0.1-0.2,0.1l0,0c0-0.1,0-0.1,0.1-0.1C13.9,5.1,14,5.1,14,5.1L14,5.1z"/>
		<path d="M29.8,43.7c0-0.1,0.1-0.1,0.2-0.1l0,0C30,43.6,29.9,43.6,29.8,43.7L29.8,43.7z"/>
		<path d="M30,43.5C30,43.5,30.1,43.5,30,43.5c0.1-0.1,0.1-0.1,0.1-0.1C30.2,43.5,30.2,43.5,30,43.5C30.1,43.5,30,43.5,30,43.5
			L30,43.5z"/>
		<polygon points="17.2,43.5 17.2,43.5 17.2,43.5 		"/>
		<path d="M30.9,43.2c0-0.1,0.1-0.1,0.2-0.1l0,0C31.1,43.2,31,43.2,30.9,43.2L30.9,43.2z"/>
		<path d="M31.1,43.1c0-0.1,0.1-0.1,0.2-0.1l0,0C31.3,43,31.2,43,31.1,43.1L31.1,43.1z"/>
		<path d="M15.7,43c0,0-0.1,0-0.1,0c0,0,0,0-0.1,0c0,0,0,0,0,0C15.6,43,15.6,43,15.7,43C15.7,43,15.7,43,15.7,43L15.7,43z"/>
		<path d="M15.5,46c-0.1,0-0.2,0-0.3-0.1l0,0C15.3,45.9,15.4,45.9,15.5,46L15.5,46z"/>
		<path d="M14.8,4.5c0.1-0.1,0.2-0.1,0.3-0.1l0,0C14.9,4.5,14.9,4.5,14.8,4.5L14.8,4.5z"/>
		<path d="M32.7,42.3c0-0.1,0.1-0.1,0.2-0.1l0,0C32.9,42.2,32.8,42.2,32.7,42.3L32.7,42.3z"/>
		<path d="M39.4,9C39.4,9,39.4,9,39.4,9C39.4,9,39.4,9,39.4,9L39.4,9z"/>
		<path d="M33.1,42c0.1-0.1,0.2-0.1,0.2-0.1l0,0C33.3,42,33.2,42,33.1,42L33.1,42z"/>
		<path d="M31.6,42.8c0,0.1-0.1,0.1-0.2,0.1l0,0C31.4,42.8,31.5,42.9,31.6,42.8L31.6,42.8z"/>
		<path d="M31.6,42.8c0.1-0.1,0.2-0.1,0.3-0.1l0,0C31.8,42.8,31.7,42.8,31.6,42.8L31.6,42.8z"/>
		<path d="M32.4,42.3c0,0.1-0.1,0.1-0.3,0.1l0,0C32.3,42.4,32.4,42.4,32.4,42.3L32.4,42.3z"/>
		<path d="M32.7,42.2c-0.1,0.1-0.2,0.1-0.3,0.1l0,0C32.5,42.3,32.6,42.3,32.7,42.2L32.7,42.2z"/>
		<path d="M12.6,42.4c-0.1,0-0.2,0-0.3-0.1l0,0C12.4,42.2,12.5,42.3,12.6,42.4L12.6,42.4z"/>
		<path d="M38.9,8.5C38.9,8.6,38.9,8.6,38.9,8.5C38.9,8.6,38.8,8.6,38.9,8.5C38.8,8.5,38.9,8.5,38.9,8.5C38.9,8.5,38.9,8.5,38.9,8.5
			z"/>
		<path d="M16.4,46.5c-0.1,0-0.2,0-0.3-0.1l0,0C16.2,46.5,16.3,46.5,16.4,46.5L16.4,46.5z"/>
		<path d="M34.2,1.6c0,0,0.1,0,0.1,0C34.3,1.6,34.3,1.6,34.2,1.6C34.2,1.6,34.2,1.6,34.2,1.6L34.2,1.6z"/>
		<path d="M16.9,47.1c0.1,0,0.2,0,0.3,0.1l0,0C17.1,47.1,17,47.1,16.9,47.1L16.9,47.1z"/>
		<path d="M17.2,2.6C17.2,2.6,17.2,2.7,17.2,2.6c-0.1,0.1-0.1,0.1-0.1,0.1C17.1,2.6,17.2,2.6,17.2,2.6L17.2,2.6z"/>
		<path d="M37.5,2.7c-0.1,0-0.1-0.1-0.2-0.1l0,0C37.3,2.7,37.4,2.6,37.5,2.7L37.5,2.7z"/>
		<path d="M38,2.9c-0.1,0-0.2,0-0.2-0.1l0,0C37.8,2.9,37.9,2.9,38,2.9L38,2.9z"/>
		<path d="M37.4,2.7c0.1,0,0.2,0,0.3,0.1l0,0C37.6,2.8,37.5,2.8,37.4,2.7L37.4,2.7z"/>
		<path d="M16.2,47.3c-0.1,0-0.2-0.1-0.2-0.1l0,0C16.1,47.2,16.2,47.2,16.2,47.3L16.2,47.3z"/>
		<polygon points="7,37.6 6.9,37.5 6.9,37.6 		"/>
		<path d="M7.1,37.7c0,0-0.1-0.1-0.1-0.1l0,0C7,37.6,7,37.7,7.1,37.7L7.1,37.7z"/>
		<path d="M7.2,37.7c0,0,0.1,0,0.1,0l0,0C7.3,37.7,7.2,37.7,7.2,37.7L7.2,37.7z"/>
		<path d="M7.1,37.7c0.1,0,0.1,0,0.2,0l0,0c0,0,0,0.1,0,0.1l0,0C7.2,37.8,7.1,37.7,7.1,37.7L7.1,37.7z"/>
		<path d="M7.3,37.7C7.3,37.7,7.3,37.7,7.3,37.7c0,0.1,0,0.1,0,0.1l0,0C7.3,37.8,7.3,37.7,7.3,37.7L7.3,37.7z"/>
		<path d="M19.2,49.3C19.2,49.2,19.2,49.2,19.2,49.3C19.1,49.3,19.1,49.3,19.2,49.3L19.2,49.3z"/>
		<path d="M15.1,45.8c0.1,0,0.1,0.1,0.1,0.1l0,0C15.2,45.8,15.2,45.8,15.1,45.8L15.1,45.8z"/>
		<path d="M15.6,46.1c0,0-0.1-0.1-0.1-0.1l0,0C15.5,46,15.6,46.1,15.6,46.1L15.6,46.1z"/>
		<polygon points="15.6,46.1 15.6,46.1 15.6,46.1 		"/>
		<polygon points="16,46.3 16,46.3 16,46.3 		"/>
		<path d="M16.1,46.5c0,0-0.1-0.1-0.1-0.1l0,0C16,46.4,16.1,46.4,16.1,46.5L16.1,46.5z"/>
		<path d="M16.5,46.7c-0.1,0-0.1-0.1-0.1-0.1l0,0C16.4,46.6,16.4,46.7,16.5,46.7L16.5,46.7z"/>
		<polygon points="15.5,46.8 15.5,46.8 15.5,46.8 		"/>
		<polygon points="16.5,46.7 16.5,46.7 16.5,46.7 		"/>
		<polygon points="16.8,46.9 16.8,46.9 16.8,46.9 		"/>
		<path d="M15.7,46.9c0.1,0,0.1,0,0.1,0.1l0,0C15.8,47,15.8,47,15.7,46.9L15.7,46.9z"/>
		<path d="M17,47.1c0,0-0.1-0.1-0.1-0.1l0,0C16.9,47,16.9,47,17,47.1L17,47.1z"/>
		<path d="M16,47.2c0,0-0.1-0.1-0.1-0.1l0,0C15.9,47.1,15.9,47.1,16,47.2L16,47.2z"/>
		<path d="M17.2,47.2c0.1,0,0.1,0.1,0.1,0.1l0,0C17.3,47.2,17.2,47.2,17.2,47.2L17.2,47.2z"/>
		<path d="M16.2,47.3c0,0,0.1,0.1,0.1,0.1l0,0C16.3,47.4,16.3,47.3,16.2,47.3L16.2,47.3z"/>
		<path d="M17.6,47.4c0.1,0,0.1,0.1,0.1,0.1l0,0C17.6,47.5,17.6,47.4,17.6,47.4L17.6,47.4z"/>
		<polygon points="16.6,47.5 16.6,47.5 16.6,47.5 		"/>
		<polygon points="8,39 8,39 8,39 		"/>
		<path d="M8,39c0.1,0,0.1,0,0.1,0.1l0,0C8.1,39.1,8.1,39,8,39L8,39z"/>
		<path d="M8.3,39.2c-0.1,0-0.1-0.1-0.1-0.1l0,0C8.2,39.1,8.3,39.2,8.3,39.2L8.3,39.2z"/>
		<path d="M8.4,39.5C8.4,39.5,8.4,39.5,8.4,39.5C8.4,39.5,8.4,39.4,8.4,39.5L8.4,39.5z"/>
		<polygon points="10,40.1 10,40.2 10,40.1 		"/>
		<polygon points="9.4,40.6 9.4,40.6 9.4,40.6 		"/>
		<path d="M9.5,40.6C9.5,40.6,9.5,40.6,9.5,40.6C9.5,40.6,9.5,40.6,9.5,40.6L9.5,40.6z"/>
		<polygon points="5.2,40.6 5.3,40.6 5.2,40.6 		"/>
		<path d="M34.6,41.1c0,0,0.1-0.1,0.1-0.1l0,0C34.6,41,34.6,41,34.6,41.1L34.6,41.1z"/>
		<path d="M34.5,41.1c0,0-0.1,0.1-0.1,0.1l0,0C34.4,41.1,34.5,41.1,34.5,41.1L34.5,41.1z"/>
		<path d="M34.2,41.3c0,0.1-0.1,0.1-0.1,0.1l0,0C34.1,41.4,34.1,41.3,34.2,41.3L34.2,41.3z"/>
		<path d="M7.5,38C7.5,38,7.5,38,7.5,38C7.5,38,7.5,38,7.5,38L7.5,38z"/>
		<path d="M7.3,38.1c0.1,0,0.1,0,0.2,0l0,0c0,0,0,0.1,0,0.1l0,0C7.4,38.1,7.4,38.1,7.3,38.1L7.3,38.1z"/>
		<path d="M7.4,38.2C7.5,38.2,7.5,38.2,7.4,38.2C7.5,38.2,7.5,38.2,7.4,38.2L7.4,38.2z"/>
		<path d="M7,38.4C7,38.4,6.9,38.4,7,38.4C6.9,38.3,6.9,38.3,7,38.4L7,38.4z"/>
		<polygon points="7.7,38.4 7.7,38.4 7.7,38.4 		"/>
		<path d="M7.7,38.5C7.6,38.5,7.6,38.5,7.7,38.5c0-0.1,0-0.1,0-0.1l0,0C7.7,38.4,7.7,38.5,7.7,38.5L7.7,38.5z"/>
		<path d="M7.8,38.6c-0.1,0-0.1-0.1-0.1-0.1l0,0C7.7,38.5,7.8,38.6,7.8,38.6L7.8,38.6z"/>
		<path d="M8,38.6L8,38.6L8,38.6l0.1,0C8,38.6,8,38.6,8,38.6L8,38.6z"/>
		<path d="M7.1,38.6c0,0,0.1,0.1,0.1,0.1l0,0C7.2,38.7,7.1,38.7,7.1,38.6L7.1,38.6z"/>
		<path d="M7.8,38.6c0.1,0,0.1,0,0.2,0l0,0C7.9,38.7,7.9,38.7,7.8,38.6L7.8,38.6z"/>
		<polygon points="8,38.6 8.1,38.6 8.1,38.6 		"/>
		<polygon points="7.2,38.7 7.2,38.8 7.2,38.7 		"/>
		<path d="M13.6,44.5c-0.1,0-0.1,0-0.1-0.1l0,0C13.5,44.4,13.5,44.4,13.6,44.5L13.6,44.5z"/>
		<path d="M13.7,44.6c-0.1,0-0.1-0.1-0.1-0.1l0,0C13.6,44.5,13.6,44.5,13.7,44.6L13.7,44.6z"/>
		<path d="M13.7,44.6c0.1,0,0.1,0.1,0.1,0.1l0,0C13.7,44.7,13.7,44.6,13.7,44.6L13.7,44.6z"/>
		<polygon points="18.9,44.7 18.9,44.7 18.9,44.7 		"/>
		<path d="M13.8,44.7c0.1,0,0.1,0.1,0.1,0.1l0,0C13.9,44.8,13.8,44.7,13.8,44.7L13.8,44.7z"/>
		<polygon points="23.2,44.8 23.2,44.8 23.2,44.8 		"/>
		<path d="M14,44.9c0,0-0.1-0.1-0.1-0.1l0,0C14,44.8,14,44.9,14,44.9L14,44.9z"/>
		<path d="M14.4,45.2c0,0,0.1,0.1,0.1,0.1l0,0C14.5,45.3,14.4,45.2,14.4,45.2L14.4,45.2z"/>
		<path d="M14.5,45.3c0.1,0,0.1,0.1,0.1,0.1l0,0C14.6,45.4,14.6,45.3,14.5,45.3L14.5,45.3z"/>
		<path d="M15,45.6c0,0,0.1,0.1,0.1,0.1l0,0C15.1,45.7,15.1,45.7,15,45.6L15,45.6z"/>
		<path d="M14.4,45.8c0.1,0.1,0.1,0.1,0,0.1l0,0C14.4,45.8,14.4,45.8,14.4,45.8L14.4,45.8z"/>
		<path d="M33.9,41.6c0-0.1,0.1-0.1,0.1-0.1l0,0C34,41.5,34,41.5,33.9,41.6L33.9,41.6z"/>
		<path d="M33.7,41.6C33.7,41.7,33.7,41.7,33.7,41.6C33.7,41.7,33.7,41.7,33.7,41.6L33.7,41.6z"/>
		<path d="M33.3,41.9C33.3,41.9,33.3,41.9,33.3,41.9C33.3,41.9,33.3,41.9,33.3,41.9L33.3,41.9z"/>
		<path d="M33.1,42c0,0.1,0,0.1-0.1,0.1l0,0C33,42.1,33,42,33.1,42L33.1,42z"/>
		<polygon points="15.3,42.1 15.3,42.1 15.3,42.1 		"/>
		<path d="M12.6,42.4C12.6,42.4,12.6,42.4,12.6,42.4C12.6,42.4,12.6,42.4,12.6,42.4L12.6,42.4z"/>
		<polygon points="14.8,42.6 14.8,42.6 14.8,42.6 		"/>
		<path d="M12.4,43.1C12.4,43,12.4,43,12.4,43.1C12.4,43,12.4,43.1,12.4,43.1L12.4,43.1z"/>
		<polygon points="12.4,43.1 12.5,43.1 12.4,43.1 		"/>
		<path d="M15.7,43.1c0,0,0.1,0.1,0.1,0.1l0,0C15.8,43.1,15.8,43.1,15.7,43.1L15.7,43.1z"/>
		<path d="M15.8,43.2C15.9,43.2,15.9,43.2,15.8,43.2C15.9,43.2,15.9,43.2,15.8,43.2C15.9,43.2,15.9,43.2,15.8,43.2L15.8,43.2z"/>
		<path d="M15.9,5.2C15.9,5.1,15.9,5.1,15.9,5.2C15.9,5.1,15.9,5.2,15.9,5.2C15.9,5.2,15.9,5.2,15.9,5.2L15.9,5.2z"/>
		<path d="M9.2,5.3c0-0.1,0.1-0.1,0.1-0.1l0,0C9.3,5.2,9.2,5.3,9.2,5.3L9.2,5.3z"/>
		<path d="M9,5.4c0-0.1,0-0.1,0.1-0.1l0,0C9.1,5.4,9.1,5.4,9,5.4L9,5.4z"/>
		<polygon points="12.6,4.2 12.6,4.2 12.6,4.2 		"/>
		<path d="M15.4,4.1C15.4,4.1,15.3,4.2,15.4,4.1C15.3,4.2,15.3,4.2,15.4,4.1C15.4,4.1,15.4,4.1,15.4,4.1L15.4,4.1z"/>
		<path d="M12.6,4.2C12.6,4.2,12.5,4.2,12.6,4.2C12.6,4.3,12.6,4.3,12.6,4.2L12.6,4.2z"/>
		<path d="M15,4.4C15,4.4,15,4.3,15,4.4C15.1,4.3,15.1,4.3,15,4.4C15,4.4,15,4.4,15,4.4L15,4.4z"/>
		<polygon points="12.3,4.6 12.3,4.6 12.3,4.6 		"/>
		<path d="M14,5.1c0,0,0.1-0.1,0.1-0.1l0,0C14.1,5,14.1,5,14,5.1L14,5.1z"/>
		<path d="M10.2,8.5c0,0.1,0,0.1-0.1,0.1l0,0C10.1,8.5,10.2,8.5,10.2,8.5L10.2,8.5z"/>
		<path d="M10.1,8.6c0,0.1,0,0.1-0.1,0.1l0,0C10,8.6,10.1,8.6,10.1,8.6L10.1,8.6z"/>
		<path d="M39.5,9.2c0,0-0.1-0.1-0.1-0.1l0,0C39.4,9.1,39.5,9.1,39.5,9.2L39.5,9.2z"/>
		<polygon points="39.5,9.2 39.6,9.2 39.5,9.2 		"/>
		<polygon points="37.9,6.7 37.8,6.7 37.8,6.7 		"/>
		<path d="M38,6.8c-0.1,0-0.1-0.1-0.1-0.1l0,0C37.9,6.7,37.9,6.8,38,6.8L38,6.8z"/>
		<polygon points="19.3,2.6 19.3,2.6 19.3,2.6 		"/>
		<polygon points="38,3 38,3 38,2.9 		"/>
		<path d="M14.5,3.3c-0.1,0.1-0.1,0.1-0.1,0l0,0C14.4,3.3,14.5,3.3,14.5,3.3L14.5,3.3z"/>
		<polygon points="39.1,3.7 39,3.6 39,3.7 		"/>
		<path d="M39,3.7c0,0,0.1,0.1,0.1,0.1l0,0C39.1,3.7,39.1,3.7,39,3.7L39,3.7z"/>
		<polygon points="16.6,2.2 16.6,2.3 16.6,2.3 		"/>
		<polygon points="36.4,2.6 36.4,2.6 36.4,2.6 		"/>
		<polygon points="37.2,2.6 37.2,2.6 37.2,2.6 		"/>
		<path d="M3.8,18.6C3.8,18.6,3.8,18.6,3.8,18.6C3.8,18.6,3.8,18.6,3.8,18.6C3.8,18.6,3.8,18.6,3.8,18.6L3.8,18.6z"/>
		<polygon points="7.3,12.3 7.3,12.3 7.3,12.3 		"/>
		<path d="M42,12.3c0,0,0.1,0.1,0.1,0.1l0,0C42.1,12.4,42,12.3,42,12.3L42,12.3z"/>
		<path d="M42.2,12.5c0,0-0.1-0.1-0.1-0.1l0,0C42.1,12.5,42.2,12.5,42.2,12.5L42.2,12.5z"/>
		<path d="M42.2,12.6C42.2,12.6,42.2,12.6,42.2,12.6C42.3,12.6,42.3,12.6,42.2,12.6L42.2,12.6z"/>
		<polygon points="7.1,12.7 7.1,12.7 7.1,12.7 		"/>
		<polygon points="6.9,13 6.9,13 6.8,13 		"/>
		<path d="M6.8,13c0,0-0.1,0.1-0.1,0.1l0,0C6.8,13.1,6.8,13.1,6.8,13L6.8,13z"/>
		<path d="M6.5,13.6c0,0-0.1,0.1-0.1,0.1l0,0C6.4,13.7,6.4,13.6,6.5,13.6L6.5,13.6z"/>
		<path d="M8.9,10c0,0,0.1-0.1,0.1-0.1l0,0C9,9.9,9,10,8.9,10L8.9,10z"/>
		<path d="M8.9,9.9C8.9,10,8.9,10,8.9,9.9C8.9,10,8.9,10,8.9,9.9L8.9,9.9z"/>
		<polygon points="8.2,11 8.2,11 8.2,11 		"/>
		<path d="M7.8,11.6C7.8,11.6,7.8,11.6,7.8,11.6C7.8,11.6,7.8,11.6,7.8,11.6L7.8,11.6z"/>
		<path d="M7.8,11.6c0,0.1,0,0.1-0.1,0.1l0,0C7.7,11.7,7.8,11.6,7.8,11.6L7.8,11.6z"/>
		<path d="M7.7,11.7C7.7,11.7,7.7,11.7,7.7,11.7C7.7,11.8,7.7,11.8,7.7,11.7L7.7,11.7z"/>
		<path d="M41.8,12C41.7,12,41.7,12,41.8,12C41.7,12,41.7,12,41.8,12L41.8,12z"/>
		<polygon points="4.5,16.5 4.5,16.5 4.5,16.5 		"/>
		<path d="M6.3,13.7C6.3,13.7,6.3,13.7,6.3,13.7L6.3,13.7z"/>
		<polygon points="6.1,14.1 6.1,14 6.1,14.1 		"/>
		<path d="M6.1,14.1C6.1,14.1,6.1,14.1,6.1,14.1C6.1,14.1,6.1,14.1,6.1,14.1L6.1,14.1z"/>
		<path d="M5.9,14.5c0,0.1-0.1,0.1-0.2,0.1l0,0C5.8,14.6,5.8,14.6,5.9,14.5L5.9,14.5z"/>
		<path d="M5.7,14.6C5.7,14.7,5.7,14.7,5.7,14.6C5.7,14.7,5.7,14.7,5.7,14.6C5.7,14.7,5.7,14.7,5.7,14.6L5.7,14.6z"/>
		<path d="M4.9,16.1C4.9,16,5,16,5,16l0,0C5,16,4.9,16,4.9,16.1L4.9,16.1z"/>
		<path d="M4.8,16.2c0,0,0.1-0.1,0.1-0.1l0,0C4.8,16.1,4.8,16.1,4.8,16.2L4.8,16.2z"/>
		<path d="M4.6,16.3c0,0,0.1-0.1,0.1-0.1l0,0C4.7,16.2,4.7,16.2,4.6,16.3L4.6,16.3z"/>
		<path d="M30,32.5c0,0,0.1,0,0.1,0c0.1,0.2,0.3,0.3,0.4,0.5c0,0.1,0,0.1-0.1,0.1c-0.2-0.1-0.3-0.3-0.4-0.5C30,32.6,30,32.6,30,32.5
			L30,32.5z"/>
		<path d="M29.3,25.3c0,0.3-0.1,0.6-0.2,0.8c0,0-0.1,0.1-0.1,0.1l0,0C29,25.9,29.1,25.6,29.3,25.3C29.2,25.3,29.3,25.3,29.3,25.3
			L29.3,25.3z"/>
		<path d="M26.8,35c-0.1,0.1-0.1,0-0.2,0c-0.1,0-0.2,0-0.3-0.1C26.5,35,26.6,35,26.8,35C26.8,35,26.8,35,26.8,35z"/>
		<path d="M41,23.2C41,23.3,40.9,23.3,41,23.2c-0.1,0.1-0.1,0.1-0.2,0c0,0,0-0.1,0-0.1c0,0,0-0.1,0.1-0.1c0,0,0.1,0,0.1,0.1
			C41,23.2,41,23.2,41,23.2z"/>
		<path d="M27.6,34.9c0.1-0.1,0.2-0.1,0.3-0.1c0,0,0,0,0,0C27.8,34.9,27.7,34.9,27.6,34.9L27.6,34.9z"/>
		<path d="M29,26.2c0,0.1,0,0.2,0,0.3c0,0-0.1,0.1-0.1,0.1l0,0C28.9,26.5,28.9,26.4,29,26.2L29,26.2z"/>
		<path d="M29.4,24.8c0,0.2,0,0.3-0.1,0.5l0,0c0-0.1,0-0.2,0-0.3C29.3,25,29.4,24.9,29.4,24.8L29.4,24.8z"/>
		<path d="M29.4,24.8c0-0.2,0-0.4,0.1-0.5l0,0C29.5,24.5,29.5,24.7,29.4,24.8L29.4,24.8z"/>
		<path d="M27.6,34.9c0,0-0.1,0.1-0.1,0.1c0,0-0.1,0-0.1,0c0,0,0,0,0.1,0C27.5,34.9,27.5,34.9,27.6,34.9L27.6,34.9z"/>
		<path d="M28.9,26.7c0,0,0,0.1,0,0.1C28.8,26.7,28.9,26.7,28.9,26.7L28.9,26.7z"/>
		<polygon points="28.7,34.6 28.7,34.6 28.7,34.6 		"/>
		<polygon points="21.4,40.2 21.4,40.1 21.3,40.1 		"/>
		<path d="M12.7,29.8C12.7,29.8,12.8,29.8,12.7,29.8c0.2,0.2,0.3,0.4,0.4,0.6l0,0c0,0,0,0-0.1,0C12.9,30.1,12.7,30,12.7,29.8
			L12.7,29.8z"/>
		<path d="M12.7,29.7c-0.1-0.1-0.1-0.1-0.1-0.2l0,0C12.7,29.6,12.7,29.7,12.7,29.7L12.7,29.7z"/>
		<path d="M13.1,30.3C13.1,30.3,13.1,30.4,13.1,30.3c0.1,0.1,0.1,0.1,0.1,0.1C13.1,30.4,13.1,30.3,13.1,30.3L13.1,30.3z"/>
		<polygon points="12.1,28.8 12.1,28.8 12.1,28.8 		"/>
		<polygon points="12.2,29 12.2,29.1 12.2,29 		"/>
		<path d="M36.3,17.1c0,0-0.1,0-0.1,0c-0.3-0.5-0.6-1-0.9-1.4c-0.1-0.2-0.2-0.4-0.4-0.6c0,0,0-0.1,0.1-0.1c0,0,0,0,0.1,0
			c0,0,0.1,0.1,0.1,0.1c0.3,0.5,0.6,0.9,0.9,1.4C36.2,16.6,36.3,16.9,36.3,17.1L36.3,17.1z"/>
		<path d="M31,10.6c0,0,0.1,0,0.1,0c0.3,0.1,0.5,0.2,0.6,0.5l0,0c0,0-0.1,0-0.1,0C31.4,10.9,31.2,10.8,31,10.6L31,10.6z"/>
		<path d="M34.1,19c0-0.1,0.1-0.1,0.1-0.1c0,0,0.1,0,0.1,0.1c0,0,0,0,0,0C34.3,19,34.2,19,34.1,19C34.1,19,34.1,19,34.1,19z"/>
		<path d="M30.3,10.1c0.1,0.1,0.2,0.1,0.3,0.2c0,0,0,0.1,0,0.1l0,0C30.5,10.3,30.4,10.2,30.3,10.1L30.3,10.1z"/>
		<path d="M34.5,14.6c-0.1,0-0.1-0.1-0.1-0.2c0,0,0,0,0,0c0,0,0.1,0,0.1,0C34.5,14.4,34.5,14.5,34.5,14.6
			C34.5,14.5,34.5,14.6,34.5,14.6z"/>
		<path d="M36.5,17.6c0,0,0.1,0.1,0.1,0.1c0,0,0,0,0,0c0,0-0.1,0-0.1,0C36.5,17.7,36.5,17.6,36.5,17.6L36.5,17.6z"/>
		<path d="M30.3,10.1c-0.1,0-0.2,0-0.2-0.1l0,0C30.1,10,30.2,10.1,30.3,10.1L30.3,10.1z"/>
		<path d="M30.6,10.4c0.1,0,0.2,0,0.3,0.1l0,0C30.8,10.5,30.7,10.4,30.6,10.4L30.6,10.4z"/>
		<path d="M36.5,17.6c0-0.1-0.1-0.2-0.1-0.2l0,0C36.4,17.4,36.5,17.5,36.5,17.6L36.5,17.6z"/>
		<path d="M36.4,17.4c0-0.1-0.1-0.2-0.1-0.3l0,0C36.3,17.2,36.3,17.3,36.4,17.4L36.4,17.4z"/>
		<path d="M30.4,19.7C30.4,19.7,30.3,19.7,30.4,19.7c-0.1,0.1-0.1,0.1-0.1,0.1c0,0,0-0.1,0-0.1C30.3,19.7,30.4,19.7,30.4,19.7
			L30.4,19.7z"/>
		<path d="M29.5,9.7c0.1,0,0.2,0,0.2,0.1l0,0C29.7,9.8,29.6,9.9,29.5,9.7L29.5,9.7z"/>
		<path d="M30.1,10c-0.1,0-0.2,0-0.3-0.1l0,0C29.9,9.9,29.9,9.9,30.1,10L30.1,10z"/>
		<path d="M30.4,19.7L30.4,19.7L30.4,19.7z"/>
		<path d="M31,10.6c-0.1,0-0.1,0-0.1-0.1l0,0C31,10.5,31,10.5,31,10.6L31,10.6z"/>
		<path d="M31.7,11L31.7,11L31.7,11z"/>
		<path d="M22.1,17.5c-0.1,0.1-0.2,0.1-0.3,0.2c0,0,0,0,0,0c0,0,0-0.1,0-0.1c0,0,0.1,0,0.1,0C21.9,17.5,22,17.5,22.1,17.5L22.1,17.5
			z"/>
		<path d="M22.7,17c0-0.1,0.1-0.2,0.2-0.2l0,0c0,0.1,0,0.2-0.1,0.2C22.8,17,22.8,17,22.7,17L22.7,17z"/>
		<polygon points="20.6,18.4 20.6,18.4 20.6,18.4 		"/>
		<path d="M20.6,18.4c0,0-0.1,0.1-0.1,0.1l0,0C20.6,18.5,20.6,18.4,20.6,18.4L20.6,18.4z"/>
		<path d="M20.5,18.5c0,0-0.1,0.1-0.1,0.1l0,0C20.4,18.6,20.5,18.6,20.5,18.5L20.5,18.5z"/>
		<polygon points="20.4,18.6 20.4,18.6 20.4,18.6 		"/>
		<polygon points="20,18.9 20.1,18.8 20,18.8 		"/>
		<polygon points="22.1,17.5 22.1,17.5 22.1,17.5 		"/>
		<polygon points="21.3,17.9 21.3,17.9 21.2,17.9 		"/>
		<path d="M21.1,18c0,0,0.1-0.1,0.1-0.1l0,0C21.2,18,21.2,18,21.1,18L21.1,18z"/>
		<path d="M21.1,18c0,0-0.1,0.1-0.1,0.1l0,0C21,18.1,21.1,18.1,21.1,18L21.1,18z"/>
		<path d="M21,18.2C21,18.2,21,18.2,21,18.2C21,18.2,21,18.2,21,18.2L21,18.2z"/>
		<path d="M19.3,20C19.3,20,19.3,20,19.3,20C19.3,20,19.3,20,19.3,20L19.3,20z"/>
		<path d="M19.9,19c0,0,0.1-0.1,0.1-0.1l0,0C20,18.9,19.9,18.9,19.9,19L19.9,19z"/>
		<path d="M19.9,19C19.9,19,19.9,19,19.9,19C19.9,19,19.9,19,19.9,19L19.9,19z"/>
		<polygon points="22.9,16.8 23,16.7 22.9,16.8 		"/>
		<polygon points="22.7,17 22.7,17 22.7,17 		"/>
		<polygon points="16.5,15.7 16.5,15.7 16.5,15.7 		"/>
		<path d="M40.4,14c-0.3-0.2-0.3-0.2-0.4-0.4c0,0,0,0,0,0c0.1,0.1,0.2,0.1,0.3,0.3C40.4,13.9,40.4,13.9,40.4,14L40.4,14z"/>
		<path d="M40.4,14C40.4,14,40.4,14,40.4,14C40.4,14,40.4,14,40.4,14L40.4,14z"/>
		<path d="M21.2,41.8c0.2,0,0.4,0,0.7,0c0.2,0,0.4,0,0.5,0c0,0.1-0.1,0.1-0.2,0.1C21.9,41.9,21.5,41.9,21.2,41.8
			C21.2,41.8,21.2,41.8,21.2,41.8z"/>
		<path d="M23.4,41.9c-0.2,0.1-0.3,0-0.5,0c0,0,0,0-0.1,0c0.1,0,0.3,0,0.4,0C23.3,41.8,23.4,41.8,23.4,41.9z"/>
		<path d="M26.1,42c0,0-0.1,0-0.1,0c0,0,0,0,0,0C26,42,26,42,26.1,42z"/>
		<path d="M25.3,41.9C25.3,42,25.3,42,25.3,41.9C25.2,42,25.2,42,25.3,41.9C25.2,42,25.2,42,25.3,41.9
			C25.2,41.9,25.2,41.9,25.3,41.9z"/>
		<polygon points="24.2,42 24.2,41.9 24.2,41.9 		"/>
		<path d="M21.2,5.2C21.2,5.2,21.2,5.2,21.2,5.2c-0.2,0.1-0.3,0.1-0.4,0.2c-0.1,0-0.2,0.1-0.3,0.2c-0.1,0-0.2,0-0.2,0.1
			c-0.1,0-0.2,0-0.3-0.1c0,0,0-0.1,0-0.1c0.3-0.1,0.6-0.2,0.9-0.2C20.9,5.2,21.1,5.2,21.2,5.2L21.2,5.2z"/>
		<path d="M21.2,5.2c0.2-0.1,0.3-0.1,0.5-0.1c-0.1,0.1-0.2,0-0.3,0C21.4,5.2,21.3,5.2,21.2,5.2L21.2,5.2z"/>
		<polygon points="24.9,18.5 24.9,18.5 24.9,18.5 		"/>
		<path d="M25,18.6c0,0-0.1-0.1-0.1-0.1l0,0C24.9,18.5,25,18.6,25,18.6L25,18.6z"/>
		<polygon points="25,18.6 25,18.6 25,18.6 		"/>
	</g>
</g>
</svg>
