<?xml version="1.0" encoding="utf-8"?>
<!-- Generator: Adobe Illustrator 18.1.1, SVG Export Plug-In . SVG Version: 6.00 Build 0)  -->
<!DOCTYPE svg PUBLIC "-//W3C//DTD SVG 1.1//EN" "http://www.w3.org/Graphics/SVG/1.1/DTD/svg11.dtd">
<svg version="1.1" id="Layer_1" xmlns="http://www.w3.org/2000/svg" xmlns:xlink="http://www.w3.org/1999/xlink" x="0px" y="0px"
	 width="883px" height="100px" viewBox="0 0 883 100" enable-background="new 0 0 883 100" xml:space="preserve">
<g>
	<g>
		<defs>
			<rect id="SVGID_1_" width="386" height="100"/>
		</defs>
		<clipPath id="SVGID_2_">
			<use xlink:href="#SVGID_1_"  overflow="visible"/>
		</clipPath>
		<g clip-path="url(#SVGID_2_)">
			<path fill="#FFFFFF" d="M393.4-55.9L393.4-55.9c-1.5-0.9-3.3-1.5-5.1-1.5c-6.2,0.6-7.3,3.6-8,3.9c-0.2,0.3-1.6,2.2-4.2,5.4
				c-7.6,9.6-25.9,30-39.9,35.8c-0.3,0.2-7,2-15.2,3.1c-8.3,1.2-19,2.1-29.8,2.1c-3.4,0-6.8-0.1-10.2-0.3
				c-7.3-6.2-17.6-8.9-29.6-8.9c-6.2,0-12.9,0.7-20,2.3c-2.7,0.6-5.8,0.8-9.3,0.8c-12.4,0.1-28-3.8-42.2-5c-2.7-0.2-5.4-0.4-7.9-0.4
				c-10.7,0-19.5,2.2-26.5,6c-5.5,0.7-11.4,0.9-17.4,0.9c-13.1,0-26.4-1.4-37-3.1c-5.3-0.8-9.9-1.8-13.4-2.6
				c-3.4-0.8-6.1-1.7-6.2-1.8c-10.3-4.6-22.8-16.1-32.1-26.4c-4.7-5.1-8.7-10-11.5-13.5c-2.8-3.5-4.3-5.7-4.3-5.7
				c-0.6-0.4-2-3.9-8.4-4.4c-1.4,0-3.2,0.3-4.7,1.2c-4.2,2.3-5.3,6.9-5.2,8.9c0,2.6,0.6,3.8,0.8,4.3c0,0.1,5,13.3,12.6,28.7
				c7.8,15.4,17.6,33,29.9,42.8c6.1,4.7,18.3,10.9,33.8,16.7c-3.5,1.4-7.2,2.5-10.7,3.3c-4.4,1.1-8.4,1.8-11.4,2.2
				c-2.9,0.4-4.6,0.5-4.6,0.5l-8.4,0.7l1.3,8.4c0.1,0.5,1.1,7.2,5,16C22.6,80.9,1.5,95.7,1.3,95.9l-14.9,10.5l17.8,3.7
				c0,0,2.6,0.6,7.1,1.7c13.5,3.6,43.4,13.2,62.4,29c31.7,26.1,39.9,45.8,55.7,69c28.2,41.6,71.8,55.9,71.8,55.9l-1-13.9
				c-0.2-3.3-0.3-6.5-0.3-9.5c0.1-24.8,7.4-37.3,13.9-44c3.3-3.4,6.5-5.4,8.9-6.5c1.2-0.6,2.1-0.9,2.7-1.1c0.1,0,0.2-0.1,0.3-0.1
				c1.6-0.2,3.5-0.2,5.5-0.2c2.5,0,5.2,0.1,8,0.5c1.4,0.2,2.8,0.2,4.1,0.2c12.5,0.2,23-7.5,26.4-18.3c9.2-11.7,12.5-21.7,12.5-29.7
				c0-6.7-2.3-11.4-4.1-14c-0.2-1.2-0.4-3.1-0.4-5.2c0-2.1,0.2-4.2,0.8-6c0.8-3.6,6.6-10.8,12.3-21.2c3.8,1,8.2,1.6,13.1,1.8
				c0.6,0,1.1,0,1.6,0c17.8,0,30.8-9.4,38.8-18.1c8.1-8.8,11.9-17.2,12.1-17.7l4.9-11l-12-0.1c-12.9-0.1-23.6-4.8-32.2-11
				c6.9-2.1,13.3-4.4,19-6.7c9.6-3.9,16.8-7.6,21.3-11C368.8,14,378-2.2,385.3-16.5c7.2-14.2,11.9-26.5,11.9-26.6
				c0.2-0.7,0.7-1.9,0.8-4.3C398.1-49.3,397.3-53.4,393.4-55.9z"/>
			<g>
				<path d="M389.1-49.6c-1.4-0.9-2.7,0.7-2.7,0.7s-24.8,33.8-47.2,43.6c-5.2,2.3-34.9,7.5-61.7,5.3c-7.2-8-23.3-11.2-44.5-6.6
					c-15.8,3.4-36.9-2.6-53.9-4C164.8-11.9,155-9.6,148-5.3c-32.1,4.3-73.5-4-79.9-7C43.7-23.5,17-60.4,17-60.4s-1.2-1.7-2.9-0.8
					c-1.7,0.9-0.8,3.5-0.8,3.5s19.5,52,40.1,68.1c6.4,5,25.3,14.2,47.6,20.9c-13.8,13.5-44.7,16-44.7,16s1.5,9.8,7.7,20.6
					C29.7,85,5.6,102,5.6,102s78.9,12.8,122.4,92.2c-3-15.7-0.9-25.8-0.9-25.8c11.6,47.1,36.6,70.3,65,83.7c-4.4-62,32-69.6,32-69.6
					c4.4-0.4,9.9-0.5,15.8,0.2c11.7,1.4,20.1-4.8,22.3-13.8c20.3-25,8.2-36.6,8.2-36.6s-2.3-8.9,0.2-17c2.2-7.2,10-15.7,15.9-28.6
					c4.2,1.9,9.8,3.4,17.3,3.6c30.7,1,45.1-31.2,45.1-31.2C327,59,310.7,47.3,300.3,36.5c23.9-5.4,45.3-15,52-20.1
					c18.9-14.5,37.5-62.7,37.5-62.7S390.6-48.7,389.1-49.6z"/>
				<path fill="#CF0A2C" d="M255.9,47.6c0.8-2.8,2.3-4.4,2.4-4.4c5.6-6.8,16.2-0.1,16.2-0.1c-3-8.9-11.3-11.2-18.1-11.4
					c3.5-2.9,7.6-8.3,5.2-16.7c-2-6.9-7.9-11-18.8-9.5c0,0-14.6,3-31.7,0.9c-12.7-1.6-34.4-11.5-53.3-0.4c4.6,5.9-0.1,15.9-0.5,16.6
					c-17.1,36.1-60.1,35.2-60.1,35.2c11.9-5.3,19.5-12.5,24.2-18.3c-10,6.7-24.6,13.1-45,15c0,0,3.3,26.5,36.7,27.1
					c8.8,0.2,15.3-1.4,20.1-3.7c1.8-9.6,5.6-15.7,5.6-15.7s-0.8,33.1,35.1,56.9c0.9-12.1,6.1-18.6,6.1-18.6s-1.1,14.6,3.2,27.3
					c4.3,12.7,3.9,21,4.9,27.5c1.9,11.5,12.3,12.9,16.8,8.5c0,0-7.7-22.3,1.1-30c8.7-7.7,21.5-0.6,21.5-0.6s9.9,4.7,17.3,2
					c8.8-3.2,14.4-1.4,14.4-1.4s-6.5-11-7.5-20.8c-1.2-12.3,1.8-16.5-0.6-27.7c-5.8,3.6-11.4,3.8-11.4,3.8
					C252.2,79.3,252.2,59.9,255.9,47.6z M185.7,73.9c-2.3,0.8-4.3-0.9-4.3-1c-0.4-0.4-4.2-3.9-1.7-8c1.3,1.2,3.3,2.7,3.3,2.7
					c-0.3-0.8-2.5-6.4-3-7.5c-1.7-0.3-3.3,0-4.4,1c-2.4,2.2-1.8,7.1,1.7,10.4c-3-0.6-6-2.4-8.5-5.1c-5-5.6-5.7-13.3-1.4-17.1
					c1.7-1.6,4-2.2,6.4-2.1c-4.9-6.5-11.4-6.3-11.4-6.3s15.7-9.9,23.7,9c5,11.8,10.3,32,26.7,38.5C212.8,88.4,195.3,92.7,185.7,73.9
					z"/>
				<path fill="#CF0A2C" d="M129.3,107.1c1.1,48.5,20.4,88.3,41.1,104.2c6.6-51.8-23.2-56-34.3-118.8c-18.9,9.5-39.2,13.5-59.1,12.2
					c14.3,9.2,28.9,21.7,41.5,38.4C121.9,121.1,129.3,107.1,129.3,107.1z"/>
				<g>
					<path fill="#FFFFFF" d="M147.1,6.4C121,6.9,77.1,5.8,59.7-6.2c0,0,17.4,22.4,87.7,26.2C151.8,17.6,152.3,9.2,147.1,6.4z"/>
					<g>
						<path fill="#FFFFFF" d="M218.6,140.9c-2.7,0.9-4.3,3.7-3.7,6.7c0.6,3.2,3.6,5.2,6.6,4.6c0.4-0.1,0.8-0.2,1.1-0.4
							c3.1-0.8,5.9,0.3,7.7,1.3L218.6,140.9z"/>
						<path fill="#FFFFFF" d="M260.8,143.6l-11.8,9.9c1.3-0.7,4.4-2.2,7.4-1.1c0.3,0.2,0.6,0.4,1,0.5c2.5,0.8,5.1-0.8,5.8-3.4
							C263.8,147.1,262.8,144.7,260.8,143.6z"/>
					</g>
					<path fill="#FFFFFF" d="M181.3,72.9c-0.4-0.4-4.2-3.9-1.7-8c1.3,1.2,3.3,2.7,3.3,2.7c-0.3-0.8-2.5-6.4-3-7.5
						c-1.7-0.3-3.3,0-4.4,1c-2.4,2.2-1.8,7.1,1.7,10.4l0,0c2.2,1.9,4.8,2.8,7.1,2.6C182.7,74.1,181.4,72.9,181.3,72.9z"/>
				</g>
			</g>
		</g>
	</g>
	<g>
		<path fill="#FFFFFF" d="M829.2,35.3c0,0.2,0.1,0.3,0.1,0.5c1-0.1,1.9-0.6,2.9-0.2c-0.6,0.2-1.2,0.3-1.7,0.5
			c-0.5,0.2-1.3,0.2-1.4,1.1c0.7-0.2,1.3-0.5,2-0.1c0.1,0.9-0.7,0.6-1.2,0.7c0.5,0.7,0.5,1.1-0.2,1.4c-2,1-4.1,1.9-6.2,2.8
			c-1.5,0.6-3.1,1.1-4.8,1.7c-0.2,2.8-0.3,5.6-0.4,8.4c0.2,0,0.5,0.2,0.7,0.1c1.8-0.2,3.7-0.4,5.4-0.8c0.6-0.1,1,0,1.6,0
			c0.5,0,1-0.1,1.7-0.2c-1.1,0.8-5.1,1.6-9.4,2c-0.1,0.7-0.1,0.7,0.7,0.7l0,0c-0.3,0.4-1.1,0.1-1,0.9c-0.3-0.3-0.5-0.5-0.6-0.6
			c0.1-0.2,0.3-0.4,0.6-0.9c-0.6,0-1,0-1.3,0.1c-0.1,0.5-0.1,0.8-0.2,1.2c0,0.3,0,0.7,0,1.2c1.3-0.1,2.5-0.2,3.7-0.4
			c1.2-0.2,2.4-0.6,3.6-0.7c1.1-0.2,2.3-0.2,3.4-0.4c0.2,0,0.3,0,0.6,0.1c-0.2,0.2-0.3,0.3-0.4,0.4c1.6,0,3.1,0,4.8,0
			c0.2-0.9,0.3-1.8,0.5-2.6c-0.7-0.5-1.3,0.1-2.1-0.1c0.6-0.2,1.1-0.3,1.5-0.4c0.5,0,0.8-0.2,0.8-0.7c0-0.6,0.1-1.2,0.1-1.9
			c-1,0.1-1.9,0.1-2.8,0.3c-0.7,0.1-1.3,0.2-2,0.3c-0.7,0.1-1.3,0.3-2,0.4c-0.6,0.1-1.3,0.2-1.9,0.3c-0.1,0-0.2-0.1-0.5-0.3
			c3.2-0.7,6.2-1.3,9.3-1.4c0-0.2,0.1-0.4,0.2-0.7c0.5-2.7,1.1-5.4,1.6-8.1c0.4-2,0.9-4,1.4-6.1c0-0.2,0-0.5,0.1-0.5
			c0.8-0.3,0.5-0.8,0.5-1.4c0-0.6,0.2-1.1,0.3-1.7c0.2,0,0.3,0,0.6-0.1c0-0.5,0.4-0.8,0.1-1.4c-0.1-0.1,0.1-0.5,0.2-0.7
			c0.3-0.5,0.5-1,0.3-1.6c-0.1-0.2,0-0.4,0-0.6c0.2-0.9,0.3-1.8,0-2.7c-0.2-0.7-0.1-1.4-0.1-2.2c0.2,0,0.4-0.1,0.7-0.1
			c-0.1-0.4-0.3-0.6-0.4-0.9c0,0,0.1-0.1,0.1-0.1c0.6,0-0.1-0.6,0.4-0.7c0.5-0.1,0.2-0.5,0.2-0.7c0-0.3,0-0.6,0.1-0.8
			c0.2-0.6,0.3-0.6,0.1-1.3c0.8,0,0.5,0.7,0.9,1.1c1-0.3,0.9-1.4,1.4-2.3c0.7,1.1-0.1,2.3,0.5,3.5c0.2-0.2,0.3-0.3,0.3-0.4
			c0-0.3-0.1-0.6,0.4-0.5c0-0.2,0-0.4,0.1-0.5c0-0.1,0.3,0.1,0.4,0c0.2-0.1,0.3-0.3,0.3-0.5c0.1-0.4,0-0.9,0-1.3
			c0-0.4,0-0.7-0.1-1.2c0.4,0.2,0.6,0.4,1,0.6c-0.3,1.7-0.4,3.5,0.3,5.2c0.1,0,0.2,0,0.2,0c0-0.5,0-1-0.1-1.7
			c0.5,1.2,0.4,2.3,0.6,3.3c0.7-0.1,0.6-0.7,0.9-1c0,0,0.1,0,0.1,0c0,0,0,0.1,0,0.1c0,0.1,0,0.1,0.1,0.2c0.1-0.5,0.2-1,0.4-1.5
			c0.3,0.3,0.4,0.6,0.4,1c0,1,0,2.1-0.1,3.1c0,0.6,0.1,0.9,0.5,1.4c1.3,1.4,2.6,2.7,3.7,4.2c0.9,1.2,1.6,2.5,2.7,3.6
			c0.4,0.4,0.8,0.8,1.1,1.2c0.4,0.4,0.8,0.8,1.4,1.3c0.3,0,0.7-0.1,0.9-0.7c0.1-0.2,0.3-0.3,0.5-0.5c0.6-0.6,1.3-1.2,1.8-1.9
			c0.3-0.4,0.5-0.3,0.7-0.4c0.3-0.6,0.5-1.2,0.8-1.8c0.1,0,0.1,0,0.2,0c0,0.2,0,0.3,0,0.5c0,0,0.1,0,0.1,0.1
			c0.1-0.2,0.1-0.5,0.3-0.7c0.2-0.2,0.5-0.3,0.7-0.4c-0.2-0.1-0.3-0.2-0.4-0.3c0.6-1.2,1.8-2,1.8-3.4c0.1,0.1,0.2,0.2,0.5,0.5
			c0-0.3,0.1-0.5,0-0.6c-0.3-2.3-0.6-4.6-1-6.9c-0.1-0.5,0-0.9,0.7-1c-0.2-0.5-0.5-0.9,0.3-1.1c0.1,0.3,0.3,0.5,0.4,0.8
			c0.1,0.3,0.2,0.6,0.3,0.9c0.1,0.2,0.1,0.5,0.2,0.5c0.3,0.2,0.4,0,0.5-0.3c0,0,0.3,0,0.3-0.1c-0.1-1.3-0.2-2.6-0.3-3.9c0,0,0,0,0,0
			c0.5,0.2,0.7,0.6,0.7,1.1c0.1,0.9,0.3,1.8,0.9,2.6c0.3-0.3,0.3-0.6,0.2-0.9c-0.2-0.7-0.2-0.7,0.4-1.5c0.1,0.2,0.2,0.3,0.4,0.5
			c0.5-0.6,0-1.2-0.1-1.8l0,0c0.1-0.1,0.3-0.2,0.3-0.2c-0.1-0.6-0.3-1.3-0.4-1.9c-0.1-0.4-0.3-0.9,0.5-0.9c0.1,0.7,0.2,1.3,0.3,2
			c0.1,0.6,0.2,1.3,0.4,1.9c0.2,0.8,0.4,1.5,0.6,2.3c0,0,0,0.1,0,0.1c1.1,0.8,1,2.2,1.7,3.2c0,0,0.1,0,0.2,0c0-1.5-0.2-3-0.9-4.3
			c0.1-0.1,0.3-0.1,0.4-0.3c0.1-0.1,0.1-0.2,0.2-0.4c0.1,0.1,0.2,0.2,0.2,0.2c0.2,0.8,0.3,1.7,0.5,2.6c0.4,2.1,0.7,4.2,1.1,6.3
			c0,0.2,0.1,0.3,0.2,0.5c0.2,0.6,0.5,1.1,0.7,1.7c0,0.1,0,0.2,0,0.2c-0.6,0.5-0.3,1.1-0.1,1.7c0.2,1,0.5,2,0.8,3
			c0.2,0.8,0.4,1.7,0.6,2.5c0.6,2,1.3,4,1.8,6c0.3,1.4,1,2.6,1.3,3.9c0.7,2.6,1.3,5.2,2.1,7.8c0.7,2.3,1.1,4.7,1.5,7
			c0,0.2,0,0.4-0.2,0.6c-0.2-0.9-0.4-1.7-0.6-2.6c-0.6-2.7-1.1-5.4-2-8c-0.6-1.8-1.1-3.7-1.7-5.6c-0.3-1-0.7-2-1-2.9
			c-0.4-1.1-0.8-2.2-1.1-3.3c-0.6-2.4-1.3-4.9-1.9-7.3c-0.2-0.6-0.2-1.3-0.4-1.9c-0.3,0.5-0.4,0.9-0.3,1.5c0.6,3.8,1.5,7.5,2.9,11.1
			c0.4,1.2,0.8,2.4,1.3,3.5c0,0.1,0.1,0.2,0.1,0.3c-0.3,1.8,0.8,3.4,1.1,5.1c0.2,1.5,0.8,2.8,1.4,4.2c0.4,1,0.6,2.1,0.7,3.2
			c0.2,1.4,0.3,2.9,0.5,4.4c0,0.5,0.2,1-0.5,1.6c-0.1-0.8-0.2-1.5-0.3-2.1c-0.1-0.6-0.3-1.3-0.5-1.9c-0.1,0-0.2,0-0.3,0
			c0.1,0.3,0.1,0.7,0.2,1c0.2,1.3,0.5,2.5,0.4,3.8c-0.1,0.6-0.3,1-0.8,1.2c-0.5,0.2-0.8-0.2-1.1-0.6c0,0-0.1-0.1-0.2-0.1
			c-0.1,0.3-0.2,0.6-0.3,1c-0.5-0.5-0.9-1-1.7-0.8c-0.1,0-0.3-0.3-0.4-0.5c-0.2-0.6-0.4-1.2-0.7-2.1c-0.1,0.4-0.2,0.7-0.3,0.9
			c0,0-0.1-0.1-0.1-0.1c-0.2-0.6-0.4-1.2-0.6-1.8c-0.3-1.3-0.6-2.6-1-3.9c-0.2-0.7-0.5-1.3-0.7-2c-0.2-0.6-0.2-1.2-0.4-1.8
			c-0.3-1.3-0.7-2.6-1.3-3.8c-0.6-1.3-0.9-2.7-1.3-4.1c-0.6-2.1-1.2-4.1-1.9-6.2c0-0.1-0.1-0.1-0.2-0.2c-0.5,0.5-0.9,1-1.4,1.5
			c-1.6,2-3.6,3.6-5.5,5.2c-0.2,0.1-0.4,0.3-0.5,0.5c-0.1,0.2-0.3,0.2-0.4,0.2c-0.1,0-0.2,0.4-0.3,0.6c0,0.1,0.1,0.3,0.1,0.4
			c0,0.1,0,0.2-0.1,0.4c-0.2-0.1-0.4-0.3-0.7-0.4c-0.1,0.3-0.2,0.5-0.3,0.8c-0.7,0-1.4-0.1-1.9,0.6c-0.7-0.7-1.6-1.1-1.9-2.1
			c-0.1-0.2-0.3-0.3-0.5-0.5c-0.4-0.3-1-0.6-0.8-1.3c0-0.1-0.2-0.3-0.3-0.4c-0.8-0.9-1.6-1.7-2.3-2.6c-1.4-1.9-3-3.7-4.5-5.4
			c-0.4-0.4-0.8-0.9-1.2-1.3c-0.7,1.2-0.8,2.5-1.1,3.7c-0.1,0.6-0.4,1.2-0.6,1.9c-0.3,1.1-0.5,2.3-0.7,3.4c-0.1,0.5-0.2,1-0.3,1.4
			c-0.6,3.6-1.3,7.1-1.9,10.7c-0.2,1.5-0.5,3-0.3,4.6c0,0.3-0.2,0.7-0.3,1.2c-0.7-2.5,0-4.7,0-6.9c-0.2,1.4-0.4,2.7-0.6,4.1
			c0,0.3-0.2,0.6-0.2,0.9c-0.1,0.5-0.3,1.1-0.1,1.5c0.3,0.9-0.3,1.5-0.4,2.3c-0.6,0.2-0.7,1.1-1.5,1.1c-0.2,0-0.4,0.2-0.7,0.3
			c-0.4,0.2-0.7,0.4-1.2,0.2c-0.2-0.1-0.4,0.1-0.6,0.2c-0.3-0.4-0.6-1-1.1-1.4c-0.6-0.6-0.7-1.2-0.7-2c0-0.4,0.2-0.8-0.3-1.3
			c0,0.5-0.1,0.9-0.1,1.3c-0.6-1.3-0.8-2.6-0.6-4c-0.7,1.6-2.2,1.4-3.4,1.8c-2,0.6-4.1,0.9-6.2,1.3c-0.8,0.2-1.7,0.2-2.5,0.2
			c-1.9,0.1-3.7,0.2-5.6,0.1c-0.5,0-1.1,0.2-1.6,0.3c-0.6-0.9-1.3-1.7-1.9-2.5c-0.7-0.8-1.7-1.2-2.5-2.3c0.7,0.1,1.2,0.1,1.6,0.1
			c0-0.1,0-0.1,0.1-0.2c-0.3-0.1-0.6-0.2-0.9-0.4c-1.1-0.5-1.2-1-0.4-1.9c0.1-0.1,0.2-0.2,0.4-0.4c0.2,0.2,0.3,0.4,0.5,0.6
			c0.2-0.4,0.7-0.5,0.2-1c-0.1-0.1,0-0.4,0-0.6c-0.1-0.7-0.2-1.4-0.3-2c0-0.1-0.1-0.3,0-0.4c0.4-0.5,0.3-1.1,0.3-1.6
			c0.1-1,0.1-2.1,0.2-3.1c0-0.4,0-0.8-0.1-1.1c-1.4-0.6-2.4-1.5-3.1-3c0.3-0.3,0.6-0.5,1-0.9c-0.3-0.3-0.7-0.6-1.1-0.9
			c0.1-0.3,0.3-0.6,0.5-0.9c-0.2,0-0.5,0-0.8-0.1c0.2-0.3,0.5-0.6,0.8-1c0.3,0.6,0.8,0.6,1.3,0.3c0.6-0.3,1.1-0.1,1.7,0.5
			c0-1,0.1-1.7,0.1-2.5c-1.2,0.2-2.4-0.1-3.6-0.5c0.4-0.1,0.7-0.2,1.2-0.4c0.7,0.4,1.3,0.3,2.5-0.3c0-1.1,0-2.2,0.1-3.4
			c0-0.1,0-0.3-0.1-0.4c-0.7-0.4-0.3-0.9-0.3-1.5c-1.2,0-2-0.5-2.1-1.8c0-0.3,0-0.3,0.4-0.6c0.3,0.3,0.3,1.1,1.2,0.7
			c-0.5-0.5-0.9-1-1.4-1.5c0.5-0.1,1-0.2,1.4-0.3c-0.7-0.3-1.4-0.1-1.9-0.6c0.8,0,1.7-0.1,2.7-0.2c-0.1-0.6-0.2-1-0.3-1.4
			c-0.6-0.1-1.1-0.1-1.4-0.3c-0.2-0.1-0.2-0.6-0.4-1c0.8-0.2,1.4-0.6,1.9-1.1c0.5-0.5,1.1-0.9,1.6-1.4c0.1,0.2,0.3,0.4,0.5,0.7
			c0.5-0.5,0.1-1,0.1-1.4c0-0.5-0.2-0.9-0.3-1.5c0.1-0.2,0.3-0.4,0.5-0.8c0.2,1.1,0.4,2.2,0.6,3.2c0.9,0.3,1.5-0.4,2.3-0.3
			c0-1.4-0.7-2.8,0-4.2c0.1,1.3,0.3,2.6,0.4,4c0.4-0.1,0.7-0.1,1-0.3c1.4-0.9,3-0.9,4.5-1.1c1.4-0.2,2.7-0.3,4.1-0.4
			c-0.3,0.1-0.5,0.2-0.8,0.2c0.6,0.3,1.3,0.3,1.9,0.9c-2.8,0.3-5.5,0.5-8.3,0.8c0.1,0.4,0.2,0.8,0.4,1.4c1-0.2,2.1-0.4,3.3-0.6
			c-0.5,0.6-1.1,0.5-1.6,0.7c-0.5,0.2-1,0.3-1.6,0.4c0.1,0.6,0.1,1.1,0.2,1.6c2.5-0.2,4.9-0.3,7.4-0.5c-0.1,0.2-0.2,0.3-0.4,0.6
			c0.5,0,1-0.1,1.4,0c0.4,0.1,0.7,0.5,1.1,0.8c0.1-0.2,0.2-0.5,0.3-0.7c0.9-0.1,1.9-0.2,2.8-0.4c0,0.1,0,0.1,0,0.2
			c-0.3,0-0.5,0.1-0.8,0.1c0.1,0.3,0.3,0.6,0.4,0.9c-0.4,0.2-0.7,0.3-1.1,0.5c0.6,0.7,1.5,0.2,2.2,0.7c-0.6,0-1.2,0-1.8,0
			c0.5,0.8,1.8,0.1,1.9,1.2c-1.1,0.5-2.2,0.9-3.4,1.4c0.5,0.6,1.4,0.1,1.6,0.9c-0.7,0.1-1.3,0.2-1.9,0.3c-2.4,0.2-4.5,1.1-6.7,1.9
			c-0.7,0.2-1.4,0.4-2,0.6c-0.3,0.1-0.6,0.5-0.8,0.7c-0.1,0.1,0,0.4,0.1,0.5c0.1,0.1,0.3,0.1,0.5,0.1c0.6-0.1,1.1-0.3,1.7-0.5l0,0
			c-0.3,0.7-0.9,0.6-1.4,0.8c-0.4,0.2-0.8,0.4-0.8,0.8c0,0.5,0,1,0.6,1.2c-0.2,0.2-0.3,0.4-0.5,0.6c0,0.1,0.1,0.1,0.1,0.2
			c1.2-0.4,2.3-0.8,3.5-1.2c0-0.1,0-0.1,0-0.2c-0.6,0.1-1.1,0.1-1.7,0.2l0,0c0.9-0.5,1.7-1.1,2.6-1.6c0.2-0.1,0.4,0,0.6,0
			c0.1,0.2,0.2,0.4,0.2,0.6c-0.3,0.1-0.6,0.3-0.9,0.4c0,0.1,0,0.1,0,0.2c0.2,0,0.5,0.1,0.7,0.1c0,0.2,0.1,0.3,0.1,0.5
			c0.3-0.1,0.6-0.2,1-0.3c0.4,0.6,0.9,0.5,1.5,0.3C827.8,35.9,828.5,35.6,829.2,35.3L829.2,35.3z M814.4,22.4
			c0.2-0.1,0.4-0.2,0.8-0.4c-1.5-0.1-1.5-0.1-1.9,0.1C813.6,22.6,814,22.4,814.4,22.4c-0.3,0.1-0.6,0.3-0.8,0.4
			C814,22.9,814.5,23,814.4,22.4z M849.1,26.9c0.7,1.5,2.1,2.5,3.2,3.7c-0.3-0.6-0.6-1.1-1.1-1.6C850.5,28.2,849.8,27.6,849.1,26.9
			c0-0.6-0.4-0.8-0.9-1C848.5,26.2,848.8,26.5,849.1,26.9z M818,50.6c0-2.2,0.3-4.3-0.2-6.3c-0.8,0.2-0.8,0.2-0.9,0.9
			c0,1,0,2.1-0.1,3.1c0,0.8,0,1.5,0,2.3c0,0.1,0.1,0.2,0.2,0.3C817.3,50.8,817.6,50.7,818,50.6z M823.7,30.7c0-0.1,0-0.1-0.1-0.2
			c-1.1,0.2-2.3,0.3-3.4,0.5c-1,0.2-1,0.3-0.8,1.4C820.9,31.9,822.3,31.3,823.7,30.7z M818.1,22.4c-0.1-0.5-0.2-0.9-0.3-1.2
			c-0.6,0-1.1,0.1-1.5,0.1c-0.1,0.5-0.2,0.9-0.3,1.4C816.7,22.5,817.3,22.5,818.1,22.4z M816.8,24.7c0.6-0.1,1.2-0.2,1.8-0.3
			c-0.2-0.6-0.6-0.9-0.3-1.6c-0.7,0.2-1.2,0.3-1.6,0.4C816.7,23.7,816.7,24.1,816.8,24.7z M816.9,32c0.3,0.4,0.6,0.7,0.8,1
			c0.9-0.3,0.9-0.3,0.7-1.7C817.9,31.5,817.4,31.7,816.9,32z M818.2,35.2c-1.1,0.3-1.2,0.7-0.6,1.7
			C818.1,36.4,818.9,36.1,818.2,35.2z M817.5,34.9c0.3-0.2,0.6-0.3,0.9-0.5c0-0.4,0-0.7,0-1c-0.8-0.2-0.9,0.5-1.3,0.8
			C817.2,34.4,817.4,34.6,817.5,34.9z M816.8,52.3c0.4,0,0.7,0,1-0.1c0-0.4,0-0.7,0-1.1c-0.4,0.1-0.7,0.1-1,0.2
			C816.9,51.7,816.9,51.9,816.8,52.3z M810.9,26c0.3-0.6,0.3-1.1,0-1.5c-0.1-0.1-0.3,0-0.6,0C810.5,25.1,810.7,25.5,810.9,26z
			 M815.9,23.3c-0.1,0.6-0.2,1,0.3,1.5C816.3,23.9,816.3,23.9,815.9,23.3z M849.4,28.2c-0.1,0.1-0.1,0.1-0.2,0.2
			c0.4,0.6,0.8,1.1,1.4,1.5c0.1-0.1,0.1-0.1,0.2-0.2C850.3,29.2,849.9,28.7,849.4,28.2z M851.4,30.4c-0.1,0.1-0.1,0.1-0.2,0.2
			c0.4,0.4,0.8,0.8,1.2,1.3c0.1-0.1,0.1-0.1,0.2-0.2C852.2,31.3,851.8,30.8,851.4,30.4z M847.8,26c0,0.8,0.4,1.2,0.8,1.6
			c0.1,0,0.1-0.1,0.2-0.1C848.5,27,848.2,26.5,847.8,26z M840.9,51.7C840.9,51.7,841,51.7,840.9,51.7c0.1-0.4,0.2-0.9,0.2-1.3
			c0,0-0.1,0-0.1,0C841,50.8,840.9,51.2,840.9,51.7z M854.1,32.9c0.1-0.6-0.2-0.8-0.7-0.9C853.6,32.3,853.9,32.6,854.1,32.9z
			 M818.3,37.5c0-0.1,0-0.1,0-0.2c-0.2,0-0.4,0-0.6,0.1c0,0-0.1,0.2-0.1,0.4C817.8,37.7,818.1,37.6,818.3,37.5z M869.7,17.7
			c-0.1,0.3-0.3,0.6,0.3,0.9C869.8,18.2,869.7,18,869.7,17.7z M840.7,53C840.7,53,840.6,53,840.7,53c-0.1,0.3-0.1,0.6-0.1,0.9
			c0,0,0,0,0,0C840.6,53.6,840.6,53.3,840.7,53z M814,23.5c-0.1,0-0.2,0-0.3,0c0,0.2,0.1,0.4,0.1,0.6c0.1,0,0.1,0,0.2,0
			C814,24,814,23.7,814,23.5z M847.3,21.8c0,0,0.1,0,0.1,0c0-0.1,0-0.3,0-0.4c0,0,0,0,0,0C847.3,21.5,847.3,21.7,847.3,21.8z
			 M843.5,18.8c0,0,0.1,0,0.1,0c0-0.2,0-0.5,0-0.7c-0.1,0-0.1,0-0.2,0C843.5,18.3,843.5,18.5,843.5,18.8z"/>
		<path fill="#CF0A2C" d="M410.2,64c0.6-0.3,0.3-0.8,0.3-1.2c-1.3-0.4-1.4-0.6-0.8-1.2c0,0.2,0,0.4,0.1,0.6c0.3-0.1,0.5-0.3,0.7-0.4
			c-0.1-0.5-0.4-0.7-0.8-0.8c-1-0.2-1.9-0.3-2.9-0.4c-0.9-0.1-1.8-0.4-2.5-1.1c0.6-0.4,1.3,0.3,1.8-0.4c-0.3-0.2-0.5-0.3-0.9-0.4
			c0.6-0.1,1.1-0.1,1.6-0.2c0.1-0.5-0.2-0.6-0.4-0.6c-0.8-0.2-1.6-0.3-2.3-0.5c-0.5-0.1-1-0.4-1.5-0.6c-0.8-0.2-1.7-0.3-2.6-0.6
			c0.3,0,0.6,0,0.9,0c0.2,0,0.5-0.1,0.6-0.3c0.2-0.8,0.8-0.8,1.4-0.8c0.9,0,1.7,0.1,2.6,0.1c0.5,0,0.9,0,1-0.7c0.8,0,1.6,0,2.5,0
			c0.1-0.4,0.2-0.8,0.2-1.3c0.2-0.1,0.5-0.2,0.9-0.3c0,0,0-0.1,0-0.2c0.1-0.4,0.2-0.7,0.4-1.1c0.3-0.8,0.1-1.2-0.8-1.2
			c-2,0-4,0.1-6,0.1c-1.6,0-3.2-0.2-4.7-0.4c-0.7-0.1-1.4-0.5-2-0.7c-0.5-0.2-1-0.4-1.5-0.7c-0.4-0.3-0.8-0.7-1.4-0.8
			c-0.4,0-0.7-0.5-1-0.8c0.1-0.7,0.8-0.3,1.1-0.5c0.1-0.1,0.1-0.2,0.1-0.2c0-0.1-1.1-1.2-1.2-1.4c-0.1-0.2-0.2-0.4-0.4-0.7
			c-0.5-0.1-1.1-0.3-1.9-0.6c0.6-0.3,0.9-0.6,1.4-0.6c1.2,0.2,1.4,0,1.6-0.9c0.5-0.2,0.9-0.4,1.4-0.5c0.3-0.1,0.5-0.1,0.8-0.1
			c2.6,0,5.2,0,7.8-0.1c2.3-0.1,4.5-0.3,6.8-0.4c0.5,0,0.8-0.6,1.3-0.4c0,0,0.2-0.3,0.2-0.4c0.1-0.7,0.3-1.3,0.4-2
			c0-0.2-0.2-0.4-0.3-0.6c1-0.9,1.1-2.1,1.4-3.4c0.3-1.4,0.7-2.8,1.1-4.2c0.1-0.4,0.5-0.3,0.7-0.5c0.2-0.4,0.4-0.9,0.6-1.3
			c0.3-0.7,0.6-1.3,1-1.9c-0.1,1-0.9,1.9,0.1,3c0.3-0.3,0.5-0.6,0.9-1c0,0,0.2,0.1,0.3,0c1-0.5,1.7-0.2,2.5,0.5
			c0.2,0.2,0.6,0.1,1.1,0.2c0,0.8,0.1,1.7,0.1,2.7c0.1-0.2,0.2-0.4,0.3-0.6c0.4-1.1,1.3-1.3,2.2-0.5c0.5,0.4,1,0.6,1.6,1
			c-0.2,0.5-0.4,1.1-0.7,1.6c-0.1,0.1-0.1,0.3-0.2,0.3c-0.9,0.6-1.2,1.6-1.4,2.6c-0.1,0.4-0.3,0.7-0.4,1c-0.4,0.8-0.7,1.6-0.7,2.6
			c0.9,0.1,1.8,0,2.5-0.4c0.8-0.4,1.6-0.4,2.4-0.6c0.8-0.2,1.5-0.4,2.3-0.6c0.4-0.1,0.4-0.4,0.4-0.6c0-0.3-0.2-0.4-0.5-0.2l0,0
			c0.6-0.8,0.9-1.7,1-2.7c0.1-0.6,0.4-1.2,0.6-1.8c0.2-0.6,0.4-1.3,0.6-1.9c0-0.1,0.1-0.3,0.1-0.4c-0.1-1,0.1-2.2,0.5-3
			c0,0,0.1-0.1,0.3-0.1c-0.3,0.8-0.5,1.5-0.3,2.3c0.1-0.2,0.2-0.3,0.2-0.4c0-0.7,0.6-1.2,0.7-1.8c0.2-1.1,1-2,0.6-3.2
			c0-0.1,0.1-0.3,0.2-0.5c0.2-0.4,0.3-0.7,0.5-1.1c0-0.1,0.1-0.2,0.2-0.2c0.8-0.1,1.1-0.8,1.5-1.3c0.4-0.5,0.9-0.7,1.5-0.8
			c0.3,0.5,0.6,0.9,0.7,1.4c0.1,0.4,0,0.8,0,1.3c0.5,0.5,0.7-0.3,1.2-0.4c0.7,1,0.9,2.1,0.7,3.3c-0.3,1.3-0.4,2.6-1.2,3.7
			c-0.2,0.3-0.3,0.7-0.4,1.1c0,0.1,0,0.2-0.1,0.3c-1.1,0.8-1.2,2-1.6,3.2c-0.3,0.7-0.5,1.5-0.6,2.2c0,0.2,0,0.3-0.1,0.7
			c1.1-0.3,2.2-0.7,3.3-1c1.4-0.4,2.8-0.8,4.2-1.3c0.3-0.1,0.5-0.1,0.7,0.3c-0.5,0.3-1,0.6-1.6,0.9c0.7,0,1.2-0.2,1.8,0.1
			c0.4,0.3,1,0.3,1.1,1c1,0.5,0.8,1.4,0.8,2.2c0,0.5,0.3,1.1,0.4,1.6c-0.3,0.2-0.6,0.3-1,0.5c0,0.8-0.6,1.2-1.2,1.7
			c-1.8,1.4-3.9,1.9-6,2.7c-0.8,0.3-1.6,0.5-2.4,0.8c-0.2,0.1-0.5,0.4-0.5,0.7c-0.1,1.1-0.1,2.3-0.1,3.4c1.1,0.3,2-0.1,3-0.4
			c2-0.4,4-0.9,6-1.4c0.7-0.2,1.4-0.3,2-0.4c0.8-0.1,0.8-0.1,1.1,0.8c0,0.1,0.2,0.2,0.4,0.3c-0.4,0.1-0.6,0.2-0.9,0.3
			c0.4,0.4,0.7,0.7,1.1,1.2c0,0,0.3,0.1,0.5,0.2c0.9,0.3,0.9,0.4,0.9,1.4c0,0.3,0,0.6,0,0.8c0.1,0.5,0.2,1,0.3,1.5
			c-0.7,0.2-1.1,0.4-1.4,1c-0.1,0.3-0.4,0.5-0.7,0.6c-1.9,0.9-3.8,1.6-5.9,1.9c-1.5,0.3-3.1,0.7-4.6,1.1c-0.6,0.1-1.1,0.3-1.7,0.4
			c0,0.6-0.1,1.2-0.1,1.7c0,0.9,0.2,1.8-0.4,2.7c-0.1,0.1-0.1,0.3-0.1,0.4c0.3,1.3-0.3,2.5-0.2,3.8c0,0.5-0.1,0.9-0.6,1.2
			c-0.1,0.1-0.3,0.2-0.3,0.4c0,0.6-0.5,0.8-1,1.2c-0.2-1.1,0.4-2.3-0.5-3.4c-0.1,0.7-0.2,1.2-0.3,1.8c-0.4-0.1-0.4-0.1-0.1-0.8
			c-0.7-0.1-1.1-0.6-1.2-1.5c-0.4,0.6-0.6,1-0.8,1.4c0-0.2-0.1-0.4-0.1-0.7c-0.2-0.1-0.5-0.2-0.9-0.4c0.2-0.4,0.4-0.7,0.6-1.1
			c-0.5-0.3-0.7,0-0.9,0.4c-0.4-0.5-0.4-1-0.3-1.5c0.1-0.6,0-1.3,0-2c0-0.7,0-1.5,0-2.3c-1.1,0.1-2.2,0.2-3.3,0.3
			c-1.1,0.1-2.3,0.1-3.4,0.1c-0.1,1.8-0.1,3.5-0.2,5.2c0,0.8-0.2,1.6-0.3,2.4c-0.2,1.3-0.5,2.5-0.8,3.8c-0.1,0.9-0.4,1.6-1,2.5
			c0-0.4,0-0.6,0-0.7c-0.2,0.1-0.5,0.1-0.9,0.2c0.2-0.5,0.3-0.8,0.4-1.2c0-0.2-0.1-0.4-0.1-0.5c0,0-0.3,0.1-0.4,0.1
			c-0.2,0-0.4,0-0.6,0c0,0.3,0,0.5-0.1,0.9c-0.7,0-1,0.5-1.1,1.2c-0.2-0.1-0.5-0.2-0.5-0.3c0.1-0.7-0.1-1.6,0.7-2.2
			c-0.1-0.2-0.2-0.3-0.2-0.5c-0.1-0.2-0.2-0.4-0.3-0.6c0.1,0,0.2,0,0.4-0.1c0-0.4,0.1-0.8,0.1-1.4c-0.3,0.2-0.5,0.4-0.5,0.5
			c-0.3,0.5-0.5,1.1-1.1,1.4c-0.2,0.1-0.2,0.5-0.3,0.7c-0.2,0.4-0.2,1.1-1,1.2c-0.1,0-0.3,0.3-0.4,0.6c-0.1,0.5-0.2,1.1-0.3,1.7
			c-0.1,0.4,0.1,0.9-0.4,1.2c-0.1,0.1-0.1,0.3,0,0.5c0,0.4,0.1,0.8,0,1.3c-0.1-0.3-0.2-0.6-0.3-0.9c-0.1-0.4-0.1-0.8-0.3-1.1
			c-0.1-0.3-0.4-0.6-0.6-0.9c-0.2,0.3-0.4,0.5-0.5,0.7c-0.1-0.1-0.2-0.1-0.2-0.1c0.2-0.9,0.5-1.9,0.7-2.8c0-0.2-0.1-0.5-0.2-0.7
			c-0.6-0.9-0.9-1.9-1-2.9c0-0.1-0.1-0.2-0.2-0.3c-0.5,0.2-0.3,0.7-0.6,1.2c0-0.9,0-1.7-0.1-2.6c0-1.1,0.1-2.3,0.3-3.4
			c0-0.2-0.1-0.5-0.2-0.6c-0.5-0.3-0.4-0.6-0.1-0.9c0,0.2,0.1,0.4,0.2,0.9c0.2-0.6,0.2-0.6-0.2-0.8C410.1,64.2,410.2,64.1,410.2,64
			L410.2,64z M428.6,52c0-0.9,0-1.9,0-2.9c-2.5,0.5-4.8,0.9-7,1.4c0,0.8-0.1,1.5,0,2.2c0,0.3,0.3,0.6,0.4,0.8
			C424.3,53.2,426.5,53,428.6,52z M416.7,29.7c-0.4,0.4-0.4,0.8-0.3,1.2C416.5,30.5,417.3,30.3,416.7,29.7z M410.1,53.6
			c-0.7,0.3-0.4,0.6-0.2,0.9c0,0,0.1,0,0.2,0C410.1,54.3,410.1,54,410.1,53.6z M414,35.2c-0.1,0-0.1,0-0.2-0.1
			c-0.1,0.3-0.2,0.6-0.3,1c0.1,0,0.1,0,0.2,0.1C413.8,35.9,413.9,35.6,414,35.2z"/>
		<path fill="#FFFFFF" d="M720,42.8c0.3,0.9,0.6,1.8,0.8,2.7c0.5,2.4,1,4.8,1.1,7.3c0.1,2,0.4,4,0.6,6c0.1,0.6,0.4,1.1,0,1.7
			c0.4,0.5,0.2,1.1,0,1.6c0,0.1,0.1,0.3,0.1,0.3c0.6,0,0.6,0.5,0.6,0.9c0.3,2,0.5,3.9,0.8,5.9c0.1,1.2,0.2,2.5,0.3,3.7
			c0,0.6-0.1,1.2-0.1,1.8c0.3,2.5,0.6,5,1,7.4c0.1,1.1,0.3,2.3,0.6,3.4c0.1-0.2,0.2-0.4,0.4-0.8c0.2,1,0.3,1.8,0.4,2.7
			c0.6-0.1,0.7-0.4,0.6-0.8c-0.1-0.4-0.2-0.8-0.2-1.2c0-0.6,0-1.2-0.1-1.7c-0.1-0.8-0.2-1.6-0.3-2.4c-0.1-0.5-0.1-1-0.1-1.5
			c0.8,2.2,0.4,4.6,1.5,6.7c0.1-0.6,0-1.3,0.3-1.8c0.4-0.7-0.3-1.3,0.2-1.9c0.1,1.1,0.2,2.1,0.3,3.1c0.1,1,0.9,1.8,0.9,2.9
			c0.2-0.1,0.4-0.2,0.5-0.3c0,0,0.1,0.1,0.1,0.1c0,0.6,0.2,1.2-0.3,1.7c-0.1,0.1-0.3,0.3-0.4,0.4c-0.4,0.3-0.9,0.7-1.3,1
			c0.2,0.4,0.3,0.8,0.5,1.2c-0.7,0.3-0.9-0.6-1.4-0.7c-1,0.8-1.1,1-0.5,1.6c-0.2,0.1-0.4,0.1-0.7,0.2c0.1,0.6,0.1,1.1,0.2,1.7
			c-0.6,0.2-1.2,0.6-1.9-0.3c0.1,0.4,0.2,0.6,0.3,1c-0.7-0.7-1.2-1.1-1.6-1.6c-1-1.1-1.3-2.5-1.5-3.9c-0.3-2.2-0.7-4.3-1-6.5
			c-0.2-1.1-0.2-2.1-0.4-3.2c-0.3-2.2-0.7-4.3-1-6.5c-0.6-4.5-1.1-9-1.6-13.5c-0.7-5.6-1.3-11.2-2-16.7c-0.6-4.6-1.4-9.1-2-13.7
			c-0.1-0.5-0.1-1.1-0.4-1.6c-0.2,0.7-0.5,1.3-0.7,2c-0.8,1.9-1.6,3.8-2.1,5.9c-0.1,0.6-0.4,1.2-0.6,1.9c-0.3,1-0.5,2.1-0.9,3.1
			c-0.4,1.2-0.8,2.4-1.1,3.6c-0.4,1.3-0.6,2.6-1,4c-0.1,0.5-0.3,1-0.4,1.5c-0.1,0.4-0.3,0.8-0.2,1.1c0.2,0.9-0.6,1.6-0.7,2.4
			c0,0.1-0.3,0.3-0.4,0.3c-0.1-0.1-0.2-0.3-0.3-0.5c-0.2,0.2-0.4,0.5-0.6,0.7c-0.1-0.1-0.2-0.1-0.3-0.2c0.4-0.5,0.2-1.1,0.1-1.6
			c-1-0.1-0.4,0.9-0.7,1.3c-0.7,0,0-0.5-0.4-0.7c-0.2,0-0.4,0-0.6,0c0-0.1,0-0.2,0.1-0.3c0.4-0.5,0.4-1.1,0-1.3
			c-0.3-0.2-0.8,0-1.1,0.4c-0.1,0.1-0.2,0.3-0.3,0.4c-0.5,0.2-0.8,0.6-1.1,1c-0.9-0.2-1.4-0.7-1.9-1.4c-1.2-1.6-1.9-3.4-2.5-5.2
			c-0.3-1-1.1-1.8-1.6-2.6c-1.3-1.9-2.8-3.8-3.9-5.9c-0.7-1.4-1.7-2.6-2.5-3.9c-0.1-0.2-0.2-0.5-0.6-0.7c-0.1,0.7-0.1,1.4-0.2,2.1
			c0,0.9,0,1.9-0.1,2.8c-0.1,0.9,0,1.8-0.3,2.7c-0.2,0.7,0,1.6,0.1,2.4c0,0.3,0.2,0.6-0.2,1c-0.2,0.1-0.1,0.5-0.1,0.8
			c0,1.1-0.1,2.2-0.1,3.2c-0.1,3.2-0.3,6.3-0.4,9.5c-0.1,1.5-0.1,2.9,0,4.4c0,0.7,0.3,1.3,0,2c0,0.1,0,0.2,0,0.2
			c0.7,0.7,0.3,1.7,0.4,2.5c0.1,0.9,0,1.7,0,2.6c0,0.7-0.1,0.8-1,0.7c0.1,0.9,0.3,1.9,0.4,2.9c-0.1,0.1-0.7,0-0.4,0.6
			c0.2,0.4-0.3,1.4-0.7,1.6c-0.3,0.2-1-0.1-1.4-0.4c-0.1-0.1-0.2-0.2-0.3-0.2c-0.4,0,0,0.7-0.6,0.5c-0.2-0.1-0.5,0-0.9,0.1
			c0,0.1,0,0.3,0,0.4c-0.2,0.1-1.3-0.3-1.3-0.5c-0.2-0.6-0.5-1.1-1-1.5c-0.2-0.1-0.2-0.4-0.3-0.7c-0.2-1.4-0.5-2.9-0.6-4.3
			c-0.1-1.5-0.2-3,0.1-4.5c0.2-0.9,0.1-1.8,0.1-2.7c0-1.2,0-2.5,0-3.7c0.1-1.7,0.2-3.4,0.3-5.1c0-0.4,0.2-0.7,0.2-1.1
			c0.1-1.4,0.1-2.9,0.2-4.4c0-0.8,0.1-1.7,0.2-2.5c0.3-2.5,0.1-5.1,0.8-7.6c0.3-1.3-0.1-2.6-0.1-3.8c0-0.2-0.1-0.5,0-0.7
			c0.5-2.9,1-5.8,1.4-8.7c0.1-0.5,0.2-1,0.2-1.4c0-0.6-0.2-1.2-0.4-1.7c-0.7-1.3-1.3-2.6-1.6-4c-0.1-0.5-0.3-1-0.5-1.5
			c0.3,0,0.5,0.5,0.8,0.1c0.1-0.2,0.5-0.1,0.9-0.2c-0.2-0.7-0.4-1.4-0.6-2.1c0.9,0.5,0.9,0.5,1.3,1.4c0.3,0.6,0.5,1.3,1.1,1.7
			c0.2,0.1,0.3,0.4,0.5,0.7c0.5,0.3,0.6-0.3,0.8-0.5c0.4,0.3,0.8,0.6,1.2,0.9c0.1,0.1,0.3,0.1,0.4,0.1c0.3-0.4,0.6-0.2,1-0.1
			c0.1,0,0.3-0.1,0.5-0.2c0.2,0.3,0.3,0.7,0.5,1c0.1,0.1,0.2,0.3,0.1,0.3c-0.3,0.6,0.1,1,0.5,1.4c-0.1,0.3-0.2,0.6-0.3,0.7
			c0.4,0.7,0.7,1.3,1,1.9c0.6,1,1.1,2.1,1.7,3.1c0.3,0.6,0.6,1.2,1.2,1.7c0.4,0.3,0.5,1,0.7,1.5c1,2.2,1.9,4.6,3.5,6.5
			c0.3,0.3,0.5,0.6,1,0.5c0.1,0,0.3,0.3,0.6,0.6c0.6,0,1.2,0.3,1.7,0.9c0.8-0.8,1.1-1.8,1.5-2.7c0.5-1.1,0.9-2.2,1.5-3.2
			c0.4-0.8,0.7-1.7,1-2.5c0.3-0.7,0.6-1.3,0.9-2c0-0.1,0.2-0.1,0.5-0.3c-0.2,0.6-0.3,1-0.4,1.4c-0.5,1.4-1,2.7-1.6,4.1
			c-0.1,0.2-0.2,0.4-0.2,0.5c0.2,0.8-0.1,1.4-0.4,2.1c0,0,0,0.1,0.1,0.2c0.7-0.6,3.1-6.4,2.8-7.8c0.2-0.2,0.6-0.4,0.7-0.7
			c0.5-1.3,0.9-2.6,1.2-3.9c0.1-0.5,0.1-1.1,0.2-1.8c0.1,0.1,0.3,0.2,0.6,0.3c0.2-0.7,0.3-1.3,0.5-2c0.2-0.8,0.3-1.6,0.5-2.4
			c0.3-1.1,0.8-2.1,1.1-3.1c0.2-0.6,0.4-1.2,0.6-1.8c0.1,0,0.4,0.1,0.6,0.2c0.4-0.8,0.4-1.7,1.1-2.3c-0.1-0.2-0.2-0.5-0.3-0.7
			c0.4,0,0.8-0.1,1.2-0.1c0.4,0.6,0,1-0.2,1.5c-0.2,0.5-0.3,1-0.4,1.6c0.2-0.2,0.4-0.4,0.6-0.7c0.2,0.2,0.4,0.4,0.5,0.5
			c0.5-0.9,0.8-1.7,1.3-2.5c0.2-0.3,0.6-0.5,1-0.7c0.1,0,0.1,0.1,0.2,0.1c-0.2,0.7-0.3,1.3-0.5,2c0.1,0.1,0.1,0.1,0.2,0.2
			c0.1-0.2,0.2-0.4,0.4-0.8c0.1,0.3,0.3,0.5,0.3,0.6c-0.3,0.6,0.1,1.2,0.2,1.8c0.1,0.3,0.1,0.7,0.1,1c-0.3,1.4,0.3,2.5,0.9,3.6
			c-0.3,0.5-0.4,1-0.3,1.7c0.1,0.9-0.1,1.7,0,2.6c0.2,2.3,0,4.6,0.5,6.9c0.4,2,0.4,4,0.7,6.1c0.3,2.3,0.8,4.6,1.2,6.9
			c0.2,1.5,0.6,3,0.7,4.5c0.1,0.7,0,1.5,0.5,2.3c0.2,0.3,0.4,0.9-0.1,1.4c-0.2,0.2,0,0.8,0,1.2c0.7-0.6,0.7-0.7,0.6-1.5
			c-0.2-1.6-0.4-3.3-0.7-4.9c-0.1-0.6-0.5-1.2-0.4-1.9C719.8,43.2,719.9,43,720,42.8L720,42.8z M700.9,37c0.1-0.3,0.3-0.5,0.4-0.8
			c-0.1,0-0.1-0.1-0.2-0.1C701.1,36.5,701,36.8,700.9,37c-0.1,0.2-0.3,0.4-0.5,0.6c0,0,0.1,0.1,0.1,0.1
			C700.7,37.5,700.8,37.3,700.9,37z M684.9,50.4c0.1,0,0.3,0,0.4,0c-0.7-2.9,0.2-5.8-0.3-8.7c-0.2,1-0.4,2.1-0.4,3.1
			c0,1,0.1,2.1,0.1,3.1c0,0.6,0,1.1-0.1,1.7C684.5,50.1,684.7,50.3,684.9,50.4c-0.2,0.1-0.4,0.1-0.6,0.2c0,0.3,0.1,0.5,0.1,0.7
			c-0.1,1.6-0.2,3.1-0.2,4.7c-0.1,2.3-0.2,4.5-0.2,6.8c0,1.5,0,3.1-0.1,4.6c0,1.1-0.2,2.2-0.2,3.3c0,0.7,0.1,1.5,0.8,2.2
			c0.2-0.9,0.3-1.7-0.4-2.2c0-0.8,0-1.4,0-2.1c0.2-1.9,0.1-3.9,0.4-5.8c0.2-1.9,0.1-3.8,0.1-5.7c0-0.9,0-1.9,0.3-2.7
			c0.3-0.7,0.3-1.3,0.4-2.1c-0.1,0.2-0.2,0.2-0.4,0.5C684.9,51.9,684.9,51.2,684.9,50.4z M681.6,59.1c-0.1,1.8-0.5,3.6-0.1,5.5
			c0.4-1.3,0.5-2.6,0.5-3.9C682,60.2,682,59.6,681.6,59.1c0.3,0,0.5-0.1,0.5-0.4c0.1-1.7,0.2-3.4,0.4-5.1c0-0.2,0-0.4-0.1-0.6
			c-0.1-0.7,0-1.3,0.3-1.9c0,1.2,0.1,2.5,0.1,3.7c0.2-0.5,0.4-1.1,0.4-1.6c0.2-2.4,0.4-4.9,0.6-7.3c0.2-2,0.3-4.1,0.4-6.1
			c0-0.5-0.2-1.1-0.2-1.6c-0.1-0.4-0.1-0.7-0.1-1.1c0-0.6,0.1-1.2,0.1-1.9c-0.2,0.1-0.3,0.2-0.4,0.3c-0.1,0.9-0.2,1.7-0.3,2.6
			c-0.1,1.1-0.3,2.3-0.2,3.4c0,0.6-0.5,0.7-0.5,1.2c-0.1,1.8-0.3,3.6-0.4,5.4c-0.2,3.1-0.3,6.2-0.5,9.3
			C681.5,58,681.6,58.6,681.6,59.1z M681.3,69c0.1-0.6,0.5-1.4,0.2-1.9c-0.3-0.7-0.1-1.2,0-1.8C680.9,66.5,681.1,67.7,681.3,69z
			 M682.8,57.4c-0.1,0-0.2,0-0.2,0c-0.1,0.3-0.2,0.6-0.3,0.9c0.1,0,0.2,0,0.2,0.1C682.7,58,682.7,57.7,682.8,57.4z M682.9,55.6
			c0,0-0.1,0-0.1,0c0,0.3,0,0.6-0.1,0.8c0,0,0,0,0.1,0C682.8,56.2,682.9,55.9,682.9,55.6z"/>
		<path fill="#FFFFFF" d="M463.4,56.4c0-0.6,0-1.2,0.1-1.8c0.1-0.6,0.2-1.1,0.3-1.7c0-0.1,0.2-0.3,0.3-0.3c0.6,0,0.6-0.5,0.5-0.8
			c-0.2-0.3,0-0.6,0-0.9c0.1-1,0.4-2.1-0.2-3.2c0.1-0.1,0.2-0.2,0.3-0.3c0.5-0.4-0.2-1,0.5-1.4c0.4-0.3,0.3-0.9,0.2-1.4
			c-0.1-0.3,0-0.7,0-1l0,0c0.2-1.8,0.6-3.6,0.4-5.5c0.4,0.3,0.4,0.7,0.5,1c0,0,0.1,0,0.1,0c0.2,1,0.5,2,0.1,3
			c-0.2,0.6-0.3,1.1,0,1.7c0.2-0.8,0.3-1.5,0.4-2.3c0-0.2,0-0.5,0.1-0.6c0.5-0.3,0.3-0.8,0.4-1.2c0.1-0.2,0-0.5,0.2-0.7
			c0.6-0.6,0.6-1.3,0.8-2.1c-1.3-0.2-0.2-1.3-0.8-1.9c-0.2,0.2-0.3,0.4-0.4,0.7c-0.1,0.4-0.2,0.8-0.3,1.2c-0.2,0.7-0.1,1.5-0.6,2.1
			c0.2-0.9,0.3-1.8,0.5-2.6c0-0.2,0.3-0.6-0.2-0.7c0-0.2,0-0.5,0.1-0.7c0.3-0.5,0.4-1,0.3-1.7c-0.1,0.2-0.2,0.4-0.3,0.5
			c-0.1-0.1-0.3-0.2-0.4-0.3c-0.3,0.2-0.1,1.1-0.8,0.9l0,0c0.2-0.7,0.4-1.5,0.6-2.3c0.2,0.1,0.3,0.2,0.6,0.4c0-0.4-0.1-0.8,0-1
			c0.1-0.3,0.5-0.4,0.7-0.7c0.3,0.5,0.6,1.1,0.9,1.7c0.1,0,0.1-0.1,0.2-0.1c-0.1-0.8-0.2-1.5-0.5-2.2c-0.3-0.8-0.1-1.6,0-2.4
			c0.7,0,0.4-0.7,0.4-1.2c0.3-0.1,0.7-0.2,0.7-0.4c0.1-0.2-0.1-0.6-0.1-0.9c0-0.4,0.1-0.8,0.2-1.2c0.2-0.6,0.3-1.1,0.6-1.6
			c0.1-0.2,0.3-0.4,0.5-0.6c0.2-0.2,0.5-0.3,0.8-0.5c0.5-0.4,0.9-0.9,0.8-1.6c0-0.3,0.1-0.5,0.1-0.8c0.1,0,0.1-0.1,0.2-0.1
			c0.6-0.2,0.9-0.8,1.7-0.8c0.2,0,0.4-0.3,0.5-0.6c0.3-0.6,0.5-1.2,0.9-1.9c0.4,0.7,0.8,1.2,1.2,1.9c-0.1,0.1-0.1,0.4-0.2,0.6
			c0.9,0.5,0.9,0.4,1.4-0.9c0.4,0,0.9-0.3,1.3,0.2c0.4,0.5,0.6,1.1,0.3,1.8c-0.8,1.4-1.2,3-1.7,4.6c-0.1,0.2-0.1,0.4-0.2,0.6
			c-0.3,0.4-0.3,0.8-0.1,1.3c0.1,0.5,0.2,0.9,0.3,1.4c0.3-0.2,0.5-0.4,0.6-0.5c0.5-0.1,0.2,0.8,0.8,0.5c0,0,0.2,0.1,0.2,0.1
			c0.3,0.6,0.1,1.6-0.3,2.1c-0.3,0.4-0.6,0.2-0.9,0.2c0,0.6,0.1,1.2,0.1,1.8c0,0.1,0.2,0.2,0.3,0.2c-0.1,0.7-0.1,1.4-0.2,2.2
			c0.1-0.1,0.1-0.3,0.1-0.4c0-0.6,0-1.2,0-1.8c0-0.4,0-0.8,0-1.2c0.1,0,0.1,0,0.2,0c0,0.2,0.1,0.4,0.1,0.6c0.1,1.2,0.1,2.4,0.1,3.5
			c0,0.5,0.2,1-0.4,1.3c-0.1,0.1-0.1,0.4-0.1,0.5c0.2,2.1,0.5,4.3,0.7,6.4c0.2,1.4,0.4,2.9,0.6,4.3c0.1,0.5,0.1,0.9,0.8,1
			c-0.8,1.4-0.3,2.8,0,4.1c0.8-0.7,1.1-1.6,0.9-2.5c-0.1-0.4,0-0.9,0.1-1.4c0.2-0.8,0.6-1.4,1.2-2c0.5-0.5,0.7-1.4,0.8-2.1
			c0.1-1,0.5-1.8,1-2.6c0.5-0.9,0.5-1-0.3-1.6c0.2-0.1,0.4-0.2,0.6-0.3l0,0c0.2,0,0.5,0.2,0.6-0.2c0.2-0.7,0.5-1.3,0.7-2
			c0.1-0.2,0.2-0.4,0.3-0.7c0.1-0.3,0.2-0.5,0.2-0.8c-0.1,0-0.1-0.1-0.2-0.1c-0.2,0.3-0.4,0.7-0.7,1.1c-0.2-0.5,0-0.8,0.2-1.2
			c0.2-0.3,0.4-0.5,0.2-0.8l0,0c0.3-0.3,0.6-0.8,1-0.9c1.1-0.3,0.9-1.2,1.3-2c-0.5,0-0.9-0.1-0.9-0.5c0-0.3,0.3-0.5,0.7-0.6
			c0-0.3,0-0.5-0.1-0.8c0.4,0,0.8,0,1.3,0c0.1-0.3,0.2-0.6,0.4-0.9c-0.2-0.2-0.4-0.4-0.6-0.5c0.1-0.3,0.2-0.6,0.4-0.8
			c0.1-0.1,0.3-0.3,0.4-0.3c0.6-0.2,0.7-0.3,0.6-0.9c-0.1-0.3-0.2-0.5-0.2-0.8c-0.1-0.3-0.2-0.6-0.3-1c1-0.1,1.4-0.5,1.4-1.4
			c0-0.1,0-0.3,0-0.4c0-0.3,0-0.6,0.1-1.2c0.1,0.8,0.6,0.5,0.9,0.7c-0.3,0.4-0.6,0.8-0.3,1.3c0.9-0.5,1-0.7,0.3-1.3
			c0.1-0.2,0.2-0.3,0.3-0.6c0.1,0,0.4,0,0.7,0.1c0-0.4,0.1-0.9,0-1.1c-0.3-0.4-0.2-0.7-0.2-1c0.1-0.5,0.2-1.1,0.3-1.7
			c0.2-0.1,0.5-0.1,0.8-0.2c-0.1,0.6-0.2,1.1-0.4,1.6c0.3,0.3,0.6,0.2,0.7-0.2c0.2-0.7,0.5-1.4,0.6-2.1c0.1-0.7,0.3-1.1,1-1
			c0.5-0.7,0.4-1.6,1.3-2.1c-0.3,1-0.5,1.8-0.8,2.8c0.7,0.1,1.3,0.2,1.9,0.2c1,0,1,0,0.9,0.9c-0.1,0.7,0,1.5-0.5,2.2
			c-0.1,0.2-0.1,0.5,0,0.8c0.1,1.2,0,2.3-0.4,3.4c-0.3,0.7-0.3,1.4-0.2,2.1c0.1,0.4,0,0.8-0.2,1.2c-0.3,0.7-0.4,1.6,0.3,2.4
			c-0.7,0.6-0.7,1.3-0.8,2c-0.1,1.9-0.2,3.7-0.3,5.6c-0.1,2.4-0.3,4.8-0.3,7.2c0,0.4-0.1,0.9,0.5,1.2c0.3,0.2,0.6,0.5,0.9,0.9
			c-0.7,0.1-0.8-0.7-1.3-0.7c-0.1,1-0.2,2-0.2,3.1c-0.1,2.8-0.1,5.6-0.2,8.5c0,1.1,0,2.2,0,3.2c0,1.2,0,2.3-0.1,3.5
			c0,0.6-0.1,1.3,0.3,1.6c-0.1,0.9-0.3,1.6-0.3,2.4c0,2.6,0.1,5.3,0.2,8c-0.3,0.1-0.6,0.2-1,0.3c-0.1,1-0.2,2.1-0.2,3.1
			c0,0.4,0,0.6-0.3,0.9c-0.7,0.7-0.8,1.4-0.4,2.1c-0.4,0.7-1.5,0.7-1.6,1.7c-0.5-0.1-0.9-0.2-1.4-0.3c0.3-1,0-1.9-0.8-2.7
			c-0.6-0.7-1.3-1.6-0.9-2.8c0.2,0.2,0.4,0.4,0.7,0.7c0.1-0.4,0.1-0.7,0.1-1c0-2.4,0-4.7,0-7.1c0-1,0.2-2.1,0.2-3.1
			c0-0.9-0.1-1.7-0.1-2.6c0-0.6-0.1-1.2-0.3-1.8c0,0.5,0,0.9,0,1.5c-0.3-0.2-0.5-0.2-0.6-0.6c-0.3-1.2,0-2.5,0-3.7
			c-0.1-2.1,0-4.3,0-6.4c0-1.2,0-2.4,0.1-3.5c0-1.8,0.1-3.6,0.1-5.4c0-0.3-0.1-0.7-0.1-1.1c-0.1,0.1-0.2,0.2-0.3,0.3
			c-0.2-0.8-0.4-1.5-0.1-2.3c0.2-0.6,0.2-1.2,0.2-1.8c-1.2,1.3-1.5,2.8-1.3,4.5c-0.1-0.3-0.2-0.6-0.3-0.9c-0.2,0.8-0.4,1.5-0.5,2.2
			c-0.1,0-0.1,0-0.2,0c0-0.4,0.1-0.8,0.1-1.4c-0.2,0.4-0.4,0.5-0.4,0.7c-0.5,1.2-0.8,2.4-1.4,3.4c-0.7,1.2-1.1,2.5-1.6,3.7
			c-0.5,1.2-0.9,2.4-1.3,3.6c-0.2,0.6-0.5,1.3-0.8,1.9c-0.3,0.6-0.5,1.3-0.3,1.9c0.3,1.3,0.1,2.4-0.3,3.6c-0.1,0.2,0,0.4-0.1,0.6
			c-0.3-0.5-0.7,0.2-1-0.2c-0.2-0.2-0.7-0.3-1.1-0.4c-1.4,1.1-2.2,2.6-3.6,3.6c-1-0.3-0.6-1-0.6-1.5c0-0.8-0.2-1.7-0.7-2.2
			c-0.1-0.1-0.1-0.2-0.2-0.2c-0.3-0.2-0.6-0.4-0.3-0.8c0.3-0.4,0.5,0,0.8,0.1c0,0,0.1,0,0.1,0c0.3-0.8,0.2-1.8,1.1-2.5
			c0.2,0,0.4,0.1,0.7,0.1c0-0.1,0.1-0.2,0.1-0.3c-0.8-2.3-1.1-4.7-1.5-7.1c-0.2-1.5-0.6-3-0.9-4.5c-0.1-0.5-0.1-1-0.2-1.5
			c-0.1-0.6-0.3-1.1-0.5-1.7c-0.1,0-0.2,0-0.2,0c0,0.8,0.1,1.5,0.1,2.4c-0.2,0-0.3,0-0.4,0c0,0.4-0.1,0.9-0.1,1.3
			c-0.4,0-0.6,0.1-1,0.1c0.1,0.4,0.1,0.7,0.2,1c0.3,0.5,0.3,0.7,0.1,1.3c-0.2,0.6-0.3,1.3-0.5,2c-0.1,0.2,0,0.7,0.2,0.8
			c0.6,0.4,0.4,1.1,0.6,1.6c0.1,0.4-0.2,0.8-0.3,1.2c-0.1,0.3-0.1,0.6-0.1,0.9c0,0.4,0.6,0.9-0.2,1.1c0,0,0,0.2,0,0.3
			c0.2,0.3,0.2,0.5-0.1,0.8c-0.4,0.5-0.1,1,0,1.5c0.1,0.8,0.5,1.6,0.7,2.4c0.1,0.3,0.1,0.5,0.1,0.8c-0.3,0.1-0.5,0.1-0.7,0.2
			c-0.7,0.3-1.3,0.6-1.2,1.6c0.1,0.6,0.1,1.3-0.8,1.5c-0.2,0-0.4,0.6-0.4,0.9c0,0.3,0.1,0.6,0.1,1c-1.1,0.7-1.2,2.1-1.8,3.2
			c-0.2,0.4-0.3,0.8-0.7,1.1c-0.2,0.1-0.2,0.4-0.4,0.6c-0.2,0.2-0.4,0.5-0.8,0.8c-0.1-0.5-0.2-0.7-0.2-1c-0.1,0-0.3,0-0.3,0.1
			c-0.4,0.6-0.8,1.2-1.1,1.7c-0.2,0.3-0.4,0.6-0.9,0.4c-0.2-0.3-0.4-0.6-0.5-0.8c0.1-0.7,0.7-1.4-0.1-2.1c-0.4,0.7-0.7,1.3-1,2
			c-0.3-0.1-0.5-0.2-0.9-0.3c0.1-0.4,0.3-0.8,0.4-1.1c-0.9-0.9-1-0.9-2,0.5c0.3-1,0.7-1.9,0.7-2.8c0-0.9,0.7-1.5,0.9-2.4
			c-0.6-0.2-0.4-0.6-0.3-1l0,0c0.1-0.3,0.4-0.6,0.4-0.9c0.1-0.5,0.2-0.8,0.8-0.8c-0.2-0.6,0.2-1.2-0.1-1.8c0.8-0.2,0.3-0.9,0.5-1.4
			c0.2-0.5,0.4-0.9,0.6-1.4c0-0.1,0-0.1,0-0.2c0.1,0.2,0.3,0.4,0.6,0.9c0-0.6,0-1,0-1.6c-0.3,0.3-0.4,0.5-0.6,0.7
			c0.3-0.6,0.4-1.2,0-1.9c-0.2-0.4-0.1-1-0.1-1.5c0.4-0.1,0.7-0.2,1-0.4c-0.2-0.7-0.4-1.4-0.6-2C463.1,57.1,463,56.7,463.4,56.4
			c0.2,0,0.4,0.1,0.7,0.1c0-0.4-0.1-0.6-0.1-0.9C463.7,55.9,463.6,56.1,463.4,56.4z M464.7,55.3c0.1-0.1,0.2-0.2,0.3-0.4
			c0.2-0.9,0.3-1.9,0.6-2.8c0.1-0.5,0.2-0.9,0.1-1.4c-0.1-0.4-0.1-0.9-0.2-1.4c-0.1,0-0.2,0-0.2,0C464.8,51.3,464.6,53.2,464.7,55.3
			z M466.2,48.5c0-0.9,0.1-1.7,0.1-2.5c0-0.2-0.2-0.4-0.3-0.7c-0.7,0.8-0.6,1.6-0.6,2.5C465.4,48.4,465.7,48.4,466.2,48.5z
			 M468.5,34.8c-0.6,0.5-0.4,1.1-0.3,1.9C468.9,36,468.6,35.4,468.5,34.8z M464,54.7c0.1,0,0.2,0,0.3,0c0-0.5,0-1,0-1.5
			C463.7,53.7,463.7,54.2,464,54.7z M463.8,65.3c-0.1,0-0.2,0-0.2-0.1c-0.5,0.8-0.5,0.8,0,1.4C463.6,66,463.7,65.7,463.8,65.3z
			 M467.6,40.5c0.1,0,0.1,0,0.2,0c0-0.2,0-0.5,0.1-0.7c-0.1,0-0.2,0-0.3,0C467.6,40.1,467.6,40.3,467.6,40.5z M463.6,64.8
			c0.1,0,0.2,0,0.3,0c0-0.3,0-0.6,0.1-0.9c-0.1,0-0.1,0-0.2,0C463.7,64.2,463.6,64.5,463.6,64.8z"/>
		<path fill="#FFFFFF" d="M572.6,40.5c-0.1-0.1-0.2-0.3-0.3-0.3c-0.3,0-0.5,0.1-0.8,0c1.3-1.3,3-1.7,4.7-2.6c0-0.1,0-0.3,0-0.6
			c2.6-0.5,5.2-1.1,7.8-1.6c0.8-0.2,1.7-0.1,2.6-0.1c0.8,0,1.6,0.2,2.4,0.4c0.7,0.2,1.4,0.6,2.1,0.8c0.2,0.1,0.4,0.3,0.7,0.3
			c0.9,0,1.3,0.7,1.9,1.1c0.3,0.2,0.2,0.7-0.1,0.8c-0.4,0.2-0.3,0.4-0.3,0.7c0,0,0,0.1,0,0.1c0.2,0.7-0.3,1.2-0.3,1.8
			c0,0.5,0.6,1.1,0.5,1.7c-0.2,1.3-0.6,2.5-1.5,3.5c-0.3,0.4-0.6,0.9-1,1.2c-0.3,0.4-0.7,0.7-1.1,1.1c-0.2,0.2-0.4,0.4-0.6,0.6
			c-0.7,0.6-1.3,1.1-2,1.6c-0.2,0.1-0.3,0.3-0.6,0.6c0.4,0.3,0.7,0.6,1.1,0.8c1.8,0.9,3.2,2.3,4.6,3.6c0.2,0.2,0.3,0.4,0.4,0.6
			c1.2,1.9,2.4,3.9,3.4,5.8c0.6,1.1,1,2.3,1.4,3.4l0,0c-0.5-0.7-1-1.4-1.5-2.1c-0.5-0.8-0.9-1.7-1.5-2.5c-1.1-1.4-1.9-3-2.8-4.5
			c-0.2-0.4-0.5-0.7-0.8-1.1c-0.1,0.1-0.2,0.1-0.2,0.2c0.5,0.9,1.1,1.8,1.6,2.7c1.1,1.7,2.3,3.4,3.3,5.2c0.7,1.3,1.5,2.6,2.7,3.7
			c0.1,0.1,0.2,0.3,0.3,0.4c-0.1,0.5,0.3,0.7,0.6,1c0.3,0.1,0.5,0.3,0.8,0.4c0.4,0.3,0.8,0.6,1.1,1c0.2,0.4,0.5,0.6,0.9,0.6
			c0.7,0.1,1.4,0.1,2.1,0.3c0.2,0.1,0.5-0.2,0.9-0.4c0.1,0.2,0.2,0.5,0.3,0.7c0.3,0,0.5-0.1,0.8-0.1c0,0.2,0.1,0.3,0.1,0.4
			c-0.1,0.3-0.3,0.5-0.3,0.8c-0.1,0.3-0.1,0.7,0,0.9c0.3,0.4,0.3,0.8,0.1,1.3c-0.1,0.3-0.1,0.6-0.2,0.9c-0.1,0.3-0.1,0.6-0.2,1
			c0.4,0,0.7-0.1,1-0.1c-0.1,0.9-0.9,0.9-1.4,1.2c-0.4,0.2-0.8,0.4-1.2,0.6c-0.4,0.2-0.5,0.5-0.2,0.9c-0.5,0.4-1,0.8-1.5,1.1
			c-0.6,0.4-1.8,0.2-2.4-0.2c-1-0.8-2-1.5-3.3-1.8c-0.5-0.1-0.8-0.7-1.2-1.1c-0.4-0.5-0.8-1-1.2-1.5c-0.7-1-1.5-2.1-2.1-3.2
			c-0.7-1.4-1.7-2.6-2.5-3.9c-1.1-1.6-2.1-3.3-3.2-4.9c0,0,0-0.1-0.1-0.1c-0.7-1.4-1.7-1.8-3.2-1.5c-0.5,0.1-1-0.1-1.5-0.1
			c-0.3,0.3-0.6,0.6-1,0.9c0.1,2.7,1.3,5.2,1.5,8c-0.3,0-0.5,0-0.7-0.1c0.1,0.4,0.4,0.7-0.1,1c-0.1,0.1-0.1,0.4-0.1,0.6
			c0,0.6,0.1,1.2,0,1.8c0,0.5,0.1,1.1-0.6,1.3c-0.1,0-0.1,0.2-0.2,0.4c-0.2,0.6-0.6,0.9-1.2,1c-0.8-0.7-0.9-1.7-1.3-2.7
			c0,0.2-0.1,0.5-0.1,0.7c0,0.2,0.1,0.3,0.2,0.5c0.2,0.8,0.1,1.2-0.6,1.6c-0.2,0.1-0.3,0.2-0.5,0.3c-0.7-0.2-1.1-0.9-1.9-1
			c-0.1,0-0.2-0.3-0.3-0.4c-0.4-1.1-0.9-2.2-1.1-3.4c0-0.4-0.3-0.8-0.4-1.2c-0.2-0.6-0.3-1.2-0.4-1.8c0-0.5-0.1-0.9-0.2-1.4
			c-0.2-0.9-0.8-1.7-0.3-2.7c0.1-0.2,0.1-0.6,0-0.8c-0.2-1.4-0.4-2.8-0.5-4.2c0-0.5,0-1,0.1-1.5c0-0.1,0.1-0.2,0.1-0.3
			c-0.1-1.4-0.3-2.7-0.5-4.1c0-0.1-0.1-0.3,0-0.4c0.3-0.8,0.4-1.7,0.1-2.6c-0.1-0.4,0.2-0.9,0.2-1.4c0-1.3,0-2.5-0.1-3.8
			c0-0.3,0-0.7,0.1-1c-0.5-0.4-1.1,0.4-1.6-0.2c0.4-0.5,1.1-0.5,1.7-0.9c-0.8-0.1-1.5-0.1-2.2-0.2c0,0,0-0.1,0-0.1
			c0.4-0.2,0.8-0.4,1.2-0.5c-0.7-0.1-1.2-0.6-1.9-0.9c0.6-0.5,1-1,1.8-1.1C571.7,41.2,572.3,41.2,572.6,40.5c0.3,0.3,0.7,0.2,1,0.1
			c0.1-0.1,0.2-0.2,0.3-0.3c-0.2-0.1-0.4-0.4-0.4-0.3C573.2,40.1,572.9,40.3,572.6,40.5z M588.5,43.7c-3.7-0.6-7.1,0.5-10.6,1.1
			c0.1,0.8,0.1,1.5,0.2,2.2c0.1,1,0.3,1.9,0.5,2.9c0.2,0.8,0.4,1.7,0.6,2.5c0,0.2,0.2,0.3,0.3,0.4c0.5,0.4,1.1,0.6,1.8,0.7
			c-0.6-0.5-1.2-0.9-1.7-1.3c0.5-0.7,1-1.3,1.4-1.9c0.1-0.1,0.4-0.2,0.5-0.2c0.9-0.2,1.8,0.1,2.6,0.5c0.4,0.2,0.8,0.4,1.2,0
			c0.6-0.6,1.2-1.1,1.7-1.7c1-1.1,1.9-2.4,2.8-3.5c0.2-0.2,0.3-0.4,0.4-0.7c-0.1,0-0.1-0.1-0.2-0.1c-0.6,0.6-1.2,1.1-1.8,1.7
			c-0.6,0.5-1.1,1.1-1.7,1.6c-0.6,0.5-1,1.3-1.8,1.5c0-0.2,0.1-0.3,0.2-0.5c0.7-0.7,1.3-1.6,2-2.2c0.8-0.6,0.7-1.1,0.6-1.9
			C587.8,44.6,588.1,44.2,588.5,43.7z M580.6,59.5c-0.4,1-0.4,1-0.1,1.9c1.3,0,2.7,0,4.2,0.1c-0.2-0.7-0.7-1-1.3-1
			c-0.6,0-1.1-0.2-1.5-0.4C581.4,59.9,581,59.7,580.6,59.5z M591.3,39.3c0.1,0.4,0.1,0.9,0.2,1.3c0,0.1,0.2,0.3,0.3,0.4
			c0.3-0.3,0.7-0.5,0.8-0.8c0.2-0.4,0.2-0.9-0.2-1.1c-0.8-0.6-1.6-1.3-2.8-1.1C589.8,38.7,590,38.8,591.3,39.3z M584.3,39
			c0.1,0.1,0.1,0.2,0.2,0.2c0.9,0.1,1.7,0.2,2.6,0.3c0.2,0,0.5,0,0.6,0.1c0.6,0.5,1.3,0.4,2,0.4c-0.1-0.2-0.1-0.5-0.2-0.5
			c-0.8-0.4-1.5-0.8-2.3-1c-0.8-0.1-1.6,0.5-2.5,0.3C584.6,38.8,584.5,38.9,584.3,39z M579.3,39.7c-1.3-0.6-2.5-0.2-3.6,0
			c-0.1,0-0.2,0.4-0.3,0.6C576.7,40.1,577.9,39.9,579.3,39.7z"/>
		<path fill="#FFFFFF" d="M641.8,33.6c0.1,0,0.3,0.1,0.3,0.1c0.1,1,0.7,1.9,0.7,3c0,0.6,0.3,1.2,0.6,1.7c0.9,1.2,1.1,2.6,1.6,3.9
			c0.5,1.4,0.9,2.8,1.3,4.2c0.1,0.4,0.3,0.9,0.9,0.8c0.8-1,1.7-2.1,2.5-3.2c0-0.1,0.1-0.1,0.1-0.2c1.4-0.6,1.8-2,2.9-2.9
			c0.2-0.1,0.1-0.5,0.3-0.6c0.2-0.2,0.6-0.2,0.7-0.3c0.4-0.5,0.6-1.1,0.9-1.6c0.1-0.1,0.1-0.3,0.2-0.4c0.3-0.3,0.6-0.5,0.8-0.7
			c0.1-0.1,0.2-0.3,0.3-0.3c0.8,0.1,0.9-0.6,1.2-1.1c0.5-0.8,0.9-1.6,1.4-2.4c0.2,0.1,0.3,0.2,0.5,0.3c0.2-0.3,0.5-0.5,0.7-0.9
			c0.4,0.4,0.7,0.7,0.4,1.3c-0.2,0.4-0.3,0.8-0.4,1.2c-0.1,0.3,0,0.6,0,1.2c0.5-0.5,0.8-0.8,1.1-1.1c0.1,0.8-0.5,1.3-0.8,2
			c0.9,0.8,0.9,0.8,1.5-0.2c0.1-0.1,0.2-0.2,0.2-0.3c0.1-0.1,0.2-0.3,0.4-0.5c0.1,0.2,0.3,0.4,0.4,0.6c-0.1,1.1-1.5,1.8-0.9,3.3
			c0.4-0.5,0.8-0.9,1.1-1.3c0,0,0.1,0,0.1,0.1c-0.2,0.3-0.3,0.6-0.5,0.9c-0.5,1-1.2,1.9-1.6,2.9c-0.5,1.3-1.3,2.4-2.1,3.6
			c-0.2,0.4-0.6,0.7-0.9,1c-0.3,0.4-0.4,0.8-0.7,1.2c-0.8,1.2-1.6,2.4-2.4,3.6c0.6,0.8,1.5,1.2,2.3,1.7c2.1,1.3,4.3,2.5,6.1,4.2
			c0.5,0.5,1.2,0.8,1.8,1.3c0.9,0.8,1.7,1.7,2.5,2.6c0.7,0.8,1.3,2,2.8,1.7c-0.1,0.3-0.2,0.4-0.2,0.6c0.3,0.7,1,0.6,1.6,0.7
			c0.1,0.4,0.2,0.8,0.1,1.1c-0.1,0.5,0.1,0.8,0.6,0.8c0.1,0,0.2,0.1,0.3,0.1c0.5,0.6,0.9,1.3,1.4,2c-0.9,0.2-0.5,1.5-1.4,1.8
			c0.1,0.2,0.2,0.4,0.4,0.6c-0.6,0.1-1.2,0.2-1.7,0.3c-0.4,0.1-0.8,0.2-1,0.6c-0.1,0.2-0.6,0.5-0.8,0.5c-0.7-0.3-1.6-0.3-2.2-0.8
			c-1.5-1.3-3.1-2.5-4.6-3.8c-1.2-1.1-2.5-2.2-3.7-3.3c-1.3-1.2-2.8-2-4.3-2.9c-0.9-0.5-1.8-1-2.7-1.5c-0.4-0.2-0.8-0.3-1.2-0.5
			c-0.1,0.4-0.1,0.7-0.2,1c-0.1-0.3-0.2-0.7-0.3-1c0.1,0.5-0.3,1.1,0.3,1.7c0-0.4,0-0.6,0-0.8c0.3,1.3,0.6,2.6,0.9,3.8
			c0.4,1.5,0.5,3.2,1.1,4.6c0.1,0.2,0.1,0.5,0.1,0.8c0,0.3-0.1,0.5-0.2,1c-0.2-0.5-0.4-0.9-0.5-1.3c-0.3-1.5-0.6-3-0.9-4.6
			c-0.1-0.3,0-0.7-0.5-0.5c0,0-0.1-0.3-0.3-0.4c0.1,0.9,0.1,1.8,0.4,2.6c0.2,0.5,0.3,0.9,0.2,1.4c-0.2,1.2-0.2,2.3,0.3,3.5
			c0.2,0.6,0.3,1.1-0.3,1.7c-0.4,0.4-0.5,1-1.2,1.2c-0.1-0.2-0.2-0.4-0.2-0.6c-0.2-1.1-0.4-2.1-0.6-3.2c-0.1-0.3-0.3-0.6-0.5-0.9
			c0.1,0.7-0.1,1.4,0.3,2c0.1,0.1,0.1,0.4,0,0.6c-0.1,0.7-0.1,1.4-0.2,2.2c0,0.5-0.3,0.6-0.7,0.8c-0.5,0.2-0.9,0.1-1.2-0.4
			c-0.2-0.4-0.4-0.8-0.6-1.3c-0.2,0.2-0.4,0.4-0.6,0.6c-0.3-0.4-0.5-0.7-0.7-1.1c-0.2,0-0.4,0.1-0.7,0.2c-0.2-1.2-0.4-2.4-0.6-3.5
			c-0.4-2.5-0.8-4.9-1.1-7.4c-0.3-1.9-0.4-3.9-0.6-5.8c-0.2-1.6-0.4-3.2-1-4.7c-0.2-0.5-0.2-1-0.3-1.5c-0.1-1.6-0.3-3.3-1.1-4.7
			c-0.2,0-0.3,0.1-0.4,0.1c-0.1-0.1-0.1-0.2-0.1-0.2c0-0.5,0.1-1,0.1-1.4c0-0.2-0.1-0.5-0.1-0.5c-0.8-0.2-0.6-0.8-0.7-1.3
			c-0.1-0.5-0.3-1-0.6-1.5c-0.1-0.3-0.3-0.6-0.5-0.9c0.1-0.2,0.3-0.5,0.5-0.8c-0.3-0.4-0.6-0.9-0.9-1.4c1.1-0.6,0-1.6,0.4-2.5
			c0.3,0.3,0.5,0.5,0.9,0.7c0.2-0.7,0.2-1.3-0.2-1.8c-0.1-0.2-0.3-0.3-0.3-0.5c-0.1-0.4,0-0.7,0.6-0.6c-0.6-0.8,0.1-1.7-0.4-2.5
			c0.6,0.1,0.6,0.5,0.7,0.8c0.4,1.3,0.8,2.5,1,3.8c0.1,0.7,0.5,1,1.1,1.3c0-0.4,0.1-0.8,0.1-1.1c0.4-0.2,0.7-0.3,1-0.5
			c0.2,0.2,0.4,0.4,0.8,0.7C642.3,35.5,641.9,34.5,641.8,33.6L641.8,33.6z M650.3,64.6c0.1-0.3,0.2-0.4,0.2-0.5
			c-0.1-1.3-0.3-2.7-0.4-4c-0.1-0.5-0.3-0.6-1-0.2C649.3,61.4,649.6,63,650.3,64.6z M672,69.5c-0.1-0.6-0.3-0.9-0.9-0.9
			C671.1,69.3,671.2,69.7,672,69.5z"/>
		<path fill="#FFFFFF" d="M800.2,21.7c0,0.2-0.1,0.5-0.2,0.7c-0.4,1-0.3,2-0.2,3c0.3,0,0.6,0,1,0.1c0.1-0.9,0.1-1.7,0.2-2.6
			c0.1,0,0.1,0,0.2,0c0,0.4,0,0.8,0,1.1c0,0.5-0.2,1.1,0.4,1.5c0.1,0.1,0,0.3,0,0.5c0,2.1,0.1,4.2-0.3,6.2c-0.2,1.3-0.1,2.6-0.2,3.9
			c0,0,0.1,0.1,0.2,0.2c0.3-0.7,0.4-1.4,0.5-2c0.1-0.8,0.1-1.6,0.2-2.4c0.2-1.2,0.4-2.3,0.6-3.5c0.1-0.7,0.4-1.5,0.2-2.3
			c0-0.2,0-0.5,0-0.6c0.5-0.8,0.4-1.7,0.6-2.5c0.1,0.2,0.2,0.3,0.2,0.5c0,0.3,0,0.7,0,1c-0.2,2-0.4,4-0.5,6
			c-0.1,0.6-0.2,1.2-0.3,1.8c-0.2,1.2-0.4,2.5-0.6,3.8c0.4-0.1,0.7-0.1,1.1-0.1c-0.3,0.3-0.6,0.6-0.9,0.9c0,0.9,0,1.9,0,2.9
			c1.5-0.6,2.3,0.2,3,1.2c-0.2,0.3-0.4,0.6-0.7,1c0.5,0,0.8,0,1.1-0.1c0.1,0.4,0.3,0.7,0.4,1.1c-0.2,0.1-0.4,0.3-0.6,0.4
			c-0.7,0.3-1.3,0.5-1.7,1.2c-0.2,0.3-0.6,0.5-1,0.8c0.1,1.2,0.3,2.4,0.4,3.7c0.1,1.2,0.3,2.5,0.5,3.7c0.1,1.2,0.6,2.4,0.3,3.7
			c-0.9-3.5-1.7-7.1-2-10.8c-0.8,0.4-0.6,1.1-0.5,1.7c0.1,0.8,0.3,1.5,0.4,2.3c0.4,2.6,0.7,5.2,1.1,7.8c0,0.4,0,0.8-0.1,1.2
			c-0.1-0.5-0.3-1.1-0.4-1.6c0,0-0.1,0-0.1,0c0,0.9,0.1,1.8,0.1,2.7c-0.9-0.1-0.4,0.8-0.9,1.1c-0.8-0.2-1.3,0.4-1.4,1.2
			c-0.4,0.2-0.6,0.3-0.9,0.4c-0.5,0.2-0.9,0-1.1-0.4c-0.4-0.8-0.8-1.5-1.2-2.3c-0.2-0.3-0.2-0.7-0.3-1c-0.2-0.9-0.4-1.9-0.8-2.8
			c-0.4-0.8-0.5-1.8-0.7-2.7c-0.3-1.5-0.5-3-0.7-4.4c0-0.3-0.1-0.6-0.2-0.9c-2,0.3-4.1,0.3-6.1,1.2c0.3,2.7,0.6,5.4,0.8,8.1
			c-0.6-0.5-0.4-1.1-0.5-1.7c-0.1-0.6-0.1-1.2-0.2-1.9c-0.1,0-0.1,0-0.2,0c0,0.7,0.1,1.4,0.1,2.1c-0.1,0-0.1,0-0.2,0
			c-0.1-1.3-0.2-2.5-0.3-3.8c0.1,0.2,0.3,0.4,0.4,0.7c0,0,0.1,0,0.1,0c-0.2-1.1-0.3-2.3-0.5-3.4c0,0-0.1,0-0.1,0
			c0,0.4-0.1,0.7-0.1,1.1c-0.1-0.2-0.1-0.5-0.2-0.7c-0.1-0.2-0.1-0.4-0.3-0.6c-0.2,1.4,0.1,2.7,0.1,4.1c0.1,1.3,0.1,2.7,0.2,4
			c-0.1,0-0.1,0-0.2,0c-0.1-0.5-0.2-1.1-0.2-1.7c-0.4,0.2-0.3,0.5-0.3,0.7c0.1,0.4,0,0.7-0.4,0.8l0,0c-0.5,0.3-0.4,0.8-0.5,1.3
			c0.3-0.2,0.5-0.3,0.6-0.4l0,0c0.1,0,0.2,0,0.2,0c0.1,0.4,0.2,0.9,0.3,1.3c-0.1,0-0.2,0.1-0.2,0.1c-0.1-0.2-0.3-0.4-0.5-0.8
			c-0.5,1.5-1.4,2.6-1.5,4.2c-0.9-0.1-0.8-1-1.3-1.3c-0.3,0-0.7,0-1.1,0c-0.1-0.4-0.3-0.9-0.4-1.3c-0.4-2-0.7-4-1-6
			c-0.1-0.9,0-1.8-0.7-2.6c-0.2-1.3-0.8-2.5-0.7-3.9c0.1-1.3-0.1-2.6-0.1-3.9c0-1.3,0-2.6,0-3.9c0.1-1.8,0.2-3.6,0.3-5.4
			c0-0.3,0.1-0.7,0.2-1c0.8-2.3,0.9-4.6,1.1-7c0-0.2,0-0.3,0-0.5c0-0.2,0-0.3,0.1-0.5c0,0.2,0.1,0.3,0.1,0.5c-0.1,3.5-0.6,7-1,10.5
			c-0.2,1.3-0.4,2.7,0.2,4c0.1-1,0.1-2.1,0.3-3.1c0.3-2.3,0.7-4.6,0.9-6.8c0.3-2.6,0.3-5.3,0.2-7.9c0-0.8,0.1-1.6,0.5-2.4
			c0.2-0.4,0.2-1,0.1-1.5c0-0.6-0.1-1.1-0.2-1.7c-0.1-0.7,0.3-1.1,0.6-1.6c0.1-0.1,0.4-0.1,0.6-0.2c0,2.2,0.1,4.2,0.1,6.4
			c0.4-0.2,0.6-0.3,0.7-0.7c0-0.3-0.3-0.7,0.2-0.9c0.2-0.1,0.5-0.2,0.7-0.3c0.1,0,0.2-0.1,0.3-0.1c0.1,0.5,0.1,0.9,0.2,1.3
			c0.1,0,0.1,0,0.2,0c0.1-0.4,0.1-0.8,0.2-1.2c0.3,0.7-0.4,1.4,0.2,2c0.4,0.1,0.5-0.3,0.5-0.6c0-0.5-0.1-1-0.1-1.5
			c0-0.4,0.1-0.8,0.1-1.2c0.1,0,0.1,0,0.2,0c0,0.8,0.1,1.6,0.1,2.5c1,0.3,1,1.2,1,2c0,1.4,0,2.8,0,4.2c0,0.6,0,1.2,0,1.8
			c0.8-1.2,0.9-5.2,0.2-10c0.2,0.3,0.4,0.4,0.6,0.7c0-0.3,0-0.5,0.1-0.7c0.1,0,0.2,0,0.2,0.1c0.2,0.6,0.4,1.1,0.4,1.7
			c0,2.7,0,5.3-0.4,8c-0.3,1.7-0.4,3.4-0.7,5.1c-0.1,0.5-0.2,1-0.2,1.4c-0.1,0.9-0.1,1.8-0.2,2.8c0.5,0.2,1.1,0.2,1.6,0.1
			c1.2-0.1,2.4-0.2,3.5-0.3c-0.3,0.1-0.5,0.2-0.8,0.3c-1.3,0.2-2.6,0.3-3.9,0.5c-0.2,0-0.4,0.1-0.6,0.2c1.3,0.5,2.6-0.1,4.1,0.2
			c-0.8,0.6-1.5,0.1-2.1,0.3c-0.6,0.2-1.3,0.2-1.9,0.3c0,0.4-0.1,0.8-0.1,1.1c1.1,0.4,2.1,0.1,3.1,0c0.7-0.1,1.5-0.1,2.4-0.2
			c0-0.3,0.1-0.8,0-1.2c-0.2-0.4,0-0.8-0.1-1.3c0-0.1-0.2-0.1-0.2-0.2c0.1-0.2,0.4-0.4,0.4-0.7c0.1-1.1,0.2-2.1,0.3-3.2
			c0-1,0-1.9,0.1-2.9c0,0.5,0,1.1,0,1.6c0,0,0.1,0,0.1,0c0.4-2.5,0.7-5,1.1-7.5c0,1.8,0,3.6-0.3,5.4c0.2-0.4,0.6-1.9,0.6-2.3
			c0.1-1.3,0-2.6,0.6-3.7c0.1-0.2,0.1-0.5,0.1-0.8c0-0.4,0.2-0.7,0.5-1c0,0.3,0,0.7,0.1,1.2c0.5-0.6,0-0.8-0.1-1.1
			c0-0.3,0-0.6,0-0.8c0.2-0.6,0.1-1.2-0.1-1.8c-0.1-0.3,0-0.7,0.1-1.1c0.1-0.2,0.4-0.3,0.7-0.5c0.1,0.5,0.3,0.8,0.3,1.1
			c0,0.8-0.2,1.7-0.3,2.5c-0.1,0.6-0.2,1.1,0.4,1.5c0.2,0.2,0.3,0.6,0.4,0.9c0.1,0.2,0.2,0.4,0.3,0.6c0.1,0,0.2,0,0.3,0
			c0.1-0.3,0.1-0.6,0.2-0.9c0-0.3,0-0.6,0.1-0.8c0.4-0.6,0.7-1.2,0.8-1.9C799.9,21.7,800.1,21.7,800.2,21.7L800.2,21.7z M801,38.8
			c0.1,0,0.2,0,0.4,0c0-0.3-0.1-0.6-0.1-0.9c-0.1,0-0.2,0-0.3,0C801,38.2,801,38.5,801,38.8z M802.2,54.9c-0.1,0-0.1,0-0.2,0
			c0,0.4,0.1,0.8,0.1,1.1c0.1,0,0.1,0,0.2,0C802.4,55.7,802.3,55.3,802.2,54.9z M787.5,35.7C787.5,35.7,787.5,35.7,787.5,35.7
			c-0.1,0.4-0.2,0.8-0.2,1.2c0.1,0,0.1,0,0.2,0C787.5,36.5,787.5,36.1,787.5,35.7z M787.9,32.6c0,0,0.1,0,0.1,0
			c0.1-0.2,0.1-0.5,0.2-0.7c-0.1,0-0.1,0-0.2,0C788,32.1,788,32.4,787.9,32.6z M786.9,41c0.1,0,0.1,0,0.2,0.1c0-0.3,0-0.6,0.1-0.9
			c0,0-0.1,0-0.1,0C787,40.5,787,40.7,786.9,41z M787.3,38.3c0,0,0.1,0,0.1,0c0-0.2,0-0.4,0-0.6c0,0,0,0-0.1,0
			C787.3,37.9,787.3,38.1,787.3,38.3z"/>
		<path fill="#FFFFFF" d="M760.8,30.9c0.3,0.2,0.5,0.4,0.8,0.6c-0.5,0.5-0.1,0.9,0.2,1.1c1.6,1.5,3.3,2.9,4.9,4.3
			c0,0,0.1-0.1,0.1-0.1c-0.5-0.5-0.9-1-1.4-1.5c0.5,0.1,0.9,0.4,1.2,0.8c0.3,0.3,0.9,0.1,0.9,0.6c0.3-0.4,0.6-0.7,0.8-1.1
			c0.2-0.4,0.3-0.8,0.4-1.2c0.2-1,0.4-1.9,1.3-2.5c0.3-0.2,0.7-0.6,0.4-1.2c-0.1-0.2,0.1-0.5,0.2-0.7c0.9-1.1,1.3-2.4,1.3-3.9
			c0-0.1,0.2-0.2,0.3-0.3c0.3,0.9,0.3,0.9,1.3,0.6c-0.3,0.5-0.4,0.6-1.4,1c0.1,0.2,0.3,0.4,0.3,0.6c0.1,0.4,0.6,0.8-0.1,1.2
			c-0.1,0.1,0,0.4,0,0.7c0.1,0,0.2,0.1,0.3,0.1c0.2-0.3,0.5-0.6,0.7-0.9c0.2-0.3,0.4-0.7,0.6-1c0.1-0.2,0.2-0.4,0.1-0.6
			c-0.1-1.3,0-1.3,0.7-2.3c0.4-0.5,1.2-0.9,1.1-1.7c0.6-0.3,0.7,0.4,1.1,0.6c0.6-0.3,1.3-0.7,2-1.1c0.1,0.3,0.1,0.6,0.2,1
			c-0.5,0.2-1.1,0.3-0.9,1.1c-0.4,0.3-0.3,0.9-0.8,1.1c-0.4,0.2-0.5,0.8-0.7,1.2c-0.5,1.2-1.1,2.3-1,3.7c0.5-0.2,1-0.3,1.3-0.8
			c0.1-0.2,0.6-0.2,0.9-0.3c0.2,0.3,0.3,0.6,0.5,0.8c0,0,0,0.1,0,0.1c-0.7,0.6-0.1,1.7-0.8,2.4c0.3-0.1,0.6-0.3,0.9-0.5
			c0.1,0.4,0.2,0.9-0.2,0.9c-0.5,0.1-0.7,0.5-1.1,0.8c-1.3,1.2-1.5,2.7-2,4.3c-0.5,1.6-0.2,3.2-0.4,4.8c-0.3,2.2-0.5,4.4-0.8,6.6
			c-0.1,0.7-0.3,1.3-0.2,2c0.1,0.4-0.3,0.8-0.5,1.3c-0.3-1.3-0.1-2.4,0.1-3.5c0.3-2,0.6-3.9,0.8-5.9c0.1-1,0.1-2,0.2-2.9
			c0.1-0.4-0.1-0.5-0.4-0.8c-0.1,0.2-0.2,0.4-0.2,0.6c-0.1,1.1-0.3,2.3-0.4,3.4c0,0.3,0.2,0.6,0.3,0.9c-0.1,0.1-0.4,0.2-0.4,0.4
			c-0.2,1.6-0.3,3.2-0.5,4.7c-0.3,1.7-0.3,3.5-1.3,5c-0.8,1.4-0.9,2.9-1.3,4.4c-0.2,0.7-0.1,1.4-0.2,2.1c-0.2,1.1-0.5,2.1-0.8,3.2
			c-0.3,0.9-0.5,1.8-0.8,2.7c-0.3,0.9-0.8,1.5-1.9,1.5c-0.3,0-0.6,0.3-1.1,0.5c0.1-0.2,0.3-0.4,0.3-0.5c0-0.2-0.1-0.5-0.3-0.6
			c-0.6-0.1-1.2-0.5-1.7,0.3c-0.5-0.4-0.7-1.1-1.5-0.9c0.2-0.2,0.4-0.3,0.6-0.6c-0.6-0.5-0.9-1.1-0.8-1.9c0.1-0.6-0.1-1.2,0.6-1.7
			c0.1,0,0.2,0.1,0.3,0.1c0.9,0.3,1.1,0.2,1.2-0.8c0.1-0.6,0.2-1.3,0.3-2.1c-0.3,0.2-0.4,0.3-0.6,0.4c-0.2-0.8-0.2-1.5-0.4-2.3
			c-0.2-0.5,0-1.2,0.2-1.7c0.3-0.6,0.1-1.1,0.1-1.6c0.2-0.3,0.5-0.6,0.5-0.9c0.3-1.8,0.6-3.6,0.8-5.4c0.1-1-0.4-1.8-1.1-2.3
			c-2.8-2.2-5.4-4.6-7.8-7.1c-1.7-1.8-3.2-3.8-4.7-5.8c-0.9-1.2-1.8-2.6-2.6-3.9c-0.3-0.5-0.5-1-0.6-1.5c-0.1-0.7-0.5-1.2-0.8-1.8
			c-0.2-0.4-0.4-0.9-0.7-1.5c0.6,0,1,0.1,1.5,0.1c0.1,1.2,1.5,0.7,2.1,1.5c0.3-0.8,0.3-1.5-0.1-2.1c-0.2-0.4-0.6-0.8-1-1.1
			c-0.5-0.4-0.9-0.9-0.7-1.7c0.8-0.2,1.6-0.1,2.2,0.6c0.4,0.4,0.8,0.8,1.3,1c0.8,0.2,1.3,0.7,1.7,1.4c1.2,0.3,1.6,1.6,2.4,2.3
			c0.2,0.2,0.4,0.4,0.7,0.6c0.1,0,0.1-0.1,0.2-0.1c0-0.2-0.1-0.5-0.2-0.8c0.2,0,0.4-0.1,0.8-0.2c-0.5,0.7-0.2,1.1,0.4,1.5
			c-0.3,0.1-0.4,0.2-0.6,0.3c0.1,0.1,0.3,0.3,0.4,0.3c0.5-0.2,0.8,0.1,1.1,0.5c0.5,0.5,1.1,1,1.7,1.4
			C760.9,31.3,760.9,31.1,760.8,30.9L760.8,30.9z M770,34.5c-0.1,0-0.2,0-0.3,0c0.5,0.7-0.4,1.2-0.2,1.9c0.4-0.3,0.2-1.2,1-0.7
			c0.1-0.3,0.2-0.5,0.2-0.7C770.4,34.8,770.2,34.6,770,34.5z M760.4,31.9c0.1-0.1,0.1-0.1,0.2-0.2c-0.3-0.2-0.5-0.3-0.8-0.5
			c0,0.1-0.1,0.1-0.1,0.2C759.9,31.6,760.1,31.7,760.4,31.9z M753.4,26.7c0.1-0.1,0.1-0.1,0.2-0.2c-0.2-0.1-0.4-0.3-0.6-0.4
			c0,0-0.1,0.1-0.1,0.1C753.1,26.3,753.2,26.5,753.4,26.7z M762.4,34.1c0.1-0.1,0.2-0.2,0.2-0.2c0-0.1-0.1-0.2-0.2-0.2
			c-0.1,0-0.2,0.1-0.3,0.2C762.2,33.9,762.3,34,762.4,34.1z M771.5,32.7C771.5,32.7,771.5,32.7,771.5,32.7c0.1-0.2,0.1-0.4,0.1-0.7
			c0,0,0,0-0.1,0C771.5,32.3,771.5,32.5,771.5,32.7z"/>
		<path fill="#FFFFFF" d="M554.6,65.5c0.6-0.7,1.3-0.6,2.1-0.6c0.2,0,0.4,0,0.5,0c0-0.1,0-0.2,0-0.2c-0.4-0.1-0.9-0.1-1.3-0.2
			c-0.3-0.1-0.5-0.3-0.8-0.4c-0.4-0.2-0.8-0.4-0.8,0.5c-0.3-0.4-0.5-0.7-0.9-1.1c0.6,0,1,0,1.5,0c0.5,0,1,0.1,1.5,0.1
			c0.6,0,1.2,0.1,1.7,0.5c0.7,0.6,1.6,0.3,2.4,0.3c0.4,0,0.8,0,1.2,0c0.2,0,0.5,0,0.6-0.1c0.5-0.3,1-0.2,1.5-0.3
			c0.8-0.2,1.6-0.1,2.3,0.3c0.2,0.1,0.6,0.1,0.9,0.1c0.4,0,0.7-0.2,1.2-0.3c-0.1,0.3-0.2,0.4-0.3,0.6c0.5,0.5,0.9,0,1.3-0.1
			c-0.7,1.6-2,2-3.4,2.3c-0.2,0.9-0.1,1,1.2,0.8c0,0,0,0.1,0,0.1c-0.1,1.6,0.1,1.3,1.5,0.9c0,0.3,0.1,0.7,0,0.8
			c-0.5,0.4-0.4,1.2-1.1,1.4c-0.1,0-0.1,0.1-0.2,0.1c-0.3,0.9-1.1,0.9-1.8,1.1c-1.8,0.6-3.7,0.6-5.5,0.9c-0.2,0-0.3,0-0.5,0
			c-2.4-0.3-4.8-0.6-7.1-1c-0.6-0.1-1.2-0.4-1.8-0.6c-0.2,0-0.3,0-0.6,0c-0.1,0.2-0.2,0.4-0.3,0.7c-0.2-0.4-0.4-0.7-0.6-1.1
			c-0.8,0.1-1.2-0.5-1.6-1.1c0.5-0.7,0.1-1.5-0.2-2.3c0.3-0.1,0.6-0.2,0.8-0.4c0.2-0.2,0.1-0.6,0.2-0.9c0-0.3,0.1-0.7,0.1-1
			c0-0.7,0.1-1.4,0.1-2.2c0-1.3-0.1-2.6-0.2-4c0-0.3,0-0.7-0.3-0.9c-0.2-0.2-0.1-0.5-0.2-0.9c-0.6,0-1.1-0.1-1.9-0.1
			c0.5-0.2,0.8-0.3,1.2-0.4c-0.6-0.6-0.7-1.2,0-1.8c-0.4,0-0.9,0-1.4,0c0.7-0.5,1.7,0.2,2.3-1c-0.2-0.1-0.5-0.2-0.6-0.3
			c0-0.3,0-0.4,0-0.4c0.6-0.2,0.5-0.8,0.5-1.2c-0.1-1.7,0-3.3,0.2-5c0.1-0.8,0-1.7-0.1-2.5c-0.7,1.2-0.9,2.5-1.3,3.8
			c0.2-0.9,0.3-1.9,0.5-2.8c0.2-0.8,0.5-1.5-0.4-2c-0.1-0.6-0.3-1-1-0.9c0,0.1,0,0.3,0,0.5c-0.2-0.2-0.5-0.3-0.9-0.6
			c0.3-0.2,0.5-0.3,0.8-0.5c-0.1-0.1-0.3-0.3-0.2-0.4c0.1-0.3,0.4-0.6-0.1-0.9c-0.2-0.1-0.5-0.2-0.8-0.3c0.7-0.3,1.3-0.7,2-0.8
			c0.7-0.2,1.5-0.2,2.2-0.5c-0.5-0.1-0.9-0.1-1.6-0.2c0.4-0.8,0.8-1.5,1.2-2.4c-0.7,0-1.3,0.1-1.9,0.1c0-0.1,0-0.2,0-0.2
			c0.7-0.1,1.4-0.2,2.2-0.3c0.1-0.1,0.2-0.2,0.2-0.4c0.3-0.6,0.7-0.9,1.4-0.9c1.2,0,2.4-0.3,3.6,0c0.1,0,0.2,0,0.2,0
			c0.8-0.6,1.8-0.3,2.7-0.5c0.9-0.2,1.7-0.3,2.6-0.5c0.6-0.1,1.4,0.1,2,0.2c0.9,0.1,1.8,0.2,2.6,0.3c0.2,0,0.3,0.1,0.6,0.3
			c-0.6,0.1-0.9,0.2-1.2,0.3c0.2,0.8,1.5,1.2,2.8,1.1c-0.6,0.2-1.2,0.4-1.8,0.7c-0.5,0.2-1,0.5-1.3,0.9c-0.2,0.3-0.2,0.8-0.3,1.2
			c0.8,0.5,1.5,0.6,2.3,0.4c0.4-0.1,0.8,0.2,1.4,0.4c-0.5,0.5-1.1,0.7-1.2,1.1c-0.2,0.7-0.8,0.4-1.1,0.8c0.1,0.7-0.1,1-0.8,1.1
			c-0.9,0-1.7,0.4-2.6,0.8c-1,0.5-2.1,0.8-3.2,1c-1.7,0.4-3.5,0.7-5.3,1.1c-0.2,0.6-0.7,1.1-0.1,1.9c0.1,0.1,0,0.4,0,0.6
			c0,0.5-0.1,1.1-0.1,1.8c1.3-0.2,2.3-0.4,3.4-0.6c0.7-0.1,1.3-0.2,2-0.1c1.9,0.2,3.7,0,5.4-0.9c0.3,0.2,0.6,0.3,1,0.5
			c-0.9,0.6-1.8,1.1-2.7,1.7c-0.1,0.3-0.1,0.7-0.1,1c0,0.3,0.1,0.6,0.2,1c0.7-0.1,1.3-0.1,1.9-0.2c0.1,0.2,0.3,0.5,0.6,0.8
			c-0.2,0.2-0.4,0.4-0.6,0.6c-0.6,0.5-1.4,0.7-1.6,1.6c0,0.1-0.1,0.1-0.1,0.2c-1.2,0.5-2.2,1.6-3.5,1.9c-1.8,0.5-3.5,1.3-5.4,1.4
			c-0.3,0-0.5,0.1-0.9,0.3c0,1,0.1,1.9,0.5,2.9c0.4,0.8,0.3,1.6,0.2,2.4c-0.3-0.9-0.6-1.9-1.6-2.4c0,0.6-0.1,1.2-0.1,1.8
			c-0.6-1.5,0.3-3-0.1-4.5c-0.2,0-0.4-0.1-0.6-0.1c0,1.8-0.1,3.6-0.1,5.2c0.7,0.6,1.4,0.1,2,0.5c0.6,0.3,1.4,0.2,2.2,0.2
			C554.5,65.1,554.6,65.3,554.6,65.5c-0.2-0.1-0.3-0.3-0.5-0.3c-0.6,0-1.2,0-1.8,0.1c0,0,0,0,0,0.1
			C553.1,65.3,553.9,65.4,554.6,65.5z M551.1,45.9c-0.1,0-0.1,0-0.2,0c-0.2,0.4-0.4,0.8-0.5,1.3c-0.4-0.4,0.2-0.9-0.5-1.2
			c-0.3,1.6,0.2,3,0.2,4.5c0.8-0.2,0.8-0.8,0.9-1.2C551.2,48.1,551.1,47,551.1,45.9z M551.6,48.7c-0.1,0.1-0.1,0.1-0.2,0.2
			c0.1,0.1,0.2,0.3,0.3,0.4c0,0,0.1-0.1,0.2-0.1C551.8,49,551.7,48.8,551.6,48.7z M557.5,64.4c0-0.1,0-0.1,0.1-0.2
			c-0.1-0.1-0.3-0.2-0.4-0.2c0,0.1-0.1,0.2-0.1,0.3C557.1,64.3,557.3,64.4,557.5,64.4z"/>
		<path fill="#FFFFFF" d="M729.2,51.7c1.4-0.4,1-2,1.8-2.7c0.6-0.2,0.4,1,1.2,0.5c0.8-2.2,1.1-4.7,1.4-7.1c0.2-1.6,0.5-3.2,0.7-4.9
			c0.1-0.5,0-1.1-0.1-1.6c-0.1-0.4,0.1-0.7,0.3-1.1c-0.4-0.2-0.7-0.4-1.1-0.6c0.1-0.5,0.1-1,0.2-1.6c1.1,0.4,2.1,0.8,3.3,1.2
			c0.9-0.2,0.9-1,1.1-1.9c0.2,0.2,0.3,0.3,0.4,0.4c0.1,0.1,0.2,0.2,0.4,0.4c0.3-0.5,0.6-0.9,0.9-1.4c0.2,0.1,0.3,0.2,0.5,0.3
			c0.2,0.1,0.4,0.4,0.6,0.4c0.5,0.1,0.9,0.3,1,0.9c-0.3,0.3-0.7,0.6-1,0.9c0.3,0.5,0.3,0.5,0.9,0.4c0,0.2-0.1,0.4-0.1,0.7
			c0.2,0.1,0.5,0.3,1,0.6c-0.4,0-0.6,0.1-0.8,0.1c0.1,0.4,0.1,0.7,0.2,1.1c0.1,0.3,0.3,0.5,0.7,0.5c1,0,1.1,0.1,0.9,1
			c0.6,0.7,1.1,1.3,1.6,2c0.2,0.3,0.3,0.8,0.5,1.1c0.1,0.2,0.3,0.5,0.4,0.7c-0.2,0-0.5,0.1-1,0.2c0.7,0.6,0.8,1.5,1.7,1.8
			c0.2,0.1,0.3,0.6,0.4,0.9c0.2,0.7,0.3,0.7,1.1,0.4c0.1,0.2,0.2,0.5,0.4,0.9c0.2-0.5,0.4-0.8,0.6-1.3c0.6,1.1,1.5,0.9,2.5,0.8
			c1-0.2,2.1-0.1,3.1,0.3c-0.8,0.3-0.8,0.3-1.6,0.1c-0.7-0.1-2.1,0.1-3,0.5c0.2,0.2,0.4,0.4,0.5,0.4c0.5,0,0.8,0.2,0.9,0.8
			c-0.5,0-1.3-0.2-1.4,0.5c-0.1,0.7-0.5,0.7-1,0.6c-0.2,0.8,0,1.5,0.2,2.2c0.1,0.5,0.5,0.8,0.9,0.7c0.9-0.1,1.4,0.3,1.9,0.9
			c0.5,0.6,1.3,0.7,2.1,1.1c-0.7,0-1.2,0-1.7,0c0,0.1,0,0.1,0,0.2c0.3,0.1,0.7,0.2,1.1,0.3c0,0.3,0,0.5-0.1,0.8c-0.5,0-0.9,0-1.3,0
			c-0.2,0.3-0.3,0.7-0.5,0.9c-0.6,0.4-0.5,0.8-0.3,1.3c0.4,0.8,0.8,1.6,1.1,2.3c0.1,0.3,0.1,0.6,0.2,0.9c0.2,1.1,0.6,1.5,1.6,1.7
			c-0.3,0.8,0.6,1.3,0.7,2.2c-0.5-0.2-0.8-0.3-1.1-0.4c-0.3,0.8-0.6,1.5-1,2.3c-0.8,0.1-1.3-0.7-1.7-1.4c-0.6-1-1-2-1.5-3.1
			c-0.6-1.6-1.2-3.2-1.8-4.9c-0.3,0-0.8,0.1-1.2,0.1c-2.2,0.4-4.4,0.7-6.6,1.1c-0.6,0.1-0.9,0.2-1.1,0.9c-0.5,1.6-1,3.1-1.6,4.9
			c-0.1-0.5-0.1-0.7-0.1-1c-0.5,1.1-1.1,2.2-1.6,3.3c-0.6-0.2-0.9,0-1,0.5c-0.2,0.8-0.7,1.1-1.4,1.1c-0.1,0-0.3,0-0.4,0.1
			c-0.5,0.6-1,0.2-1.4-0.1c-0.1,0.1-0.2,0.2-0.6,0.5c0.1-0.6,0.2-1,0.3-1.4c-0.3,0-0.6,0-0.9-0.1c-0.3-1.5,0.9-2.8,0.3-4.4
			c-0.5,0.7-0.8,1.3-1.2,1.9c-0.4-0.8-0.6-1.7-0.2-2.6c0.5-1.1,0.6-2.3,1-3.4c0.5-1.4,0.4-1.4-0.5-2.6c0-0.6,0.1-1.2,0.2-2
			c0.4,0.2,0.8,0.3,1.2,0.5c0.1-0.2,0.2-0.7-0.2-0.7c-0.8,0-1.1-0.5-1.4-1.1C729.4,52,729.3,51.9,729.2,51.7z M742.8,42.2
			c-0.1,0-0.2,0.1-0.3,0.1c-0.2,1.8-0.5,3.6-0.7,5.5c1-0.3,1.7-0.5,2.6-0.8c-0.4-0.2-0.7-0.4-1-0.6c0.4-0.3,0.7-0.5,0.9-0.7
			C743.8,44.5,743.3,43.3,742.8,42.2z M739.2,33.1c0.1,0,0.1,0.1,0.2,0.1c0.2-0.2,0.5-0.3,0.6-0.5c0.1-0.1-0.1-0.4-0.2-0.6
			c-0.2,0.1-0.4,0.1-0.5,0.2C739.3,32.6,739.2,32.9,739.2,33.1z M743.7,49.8c-0.8,0.2-1.5,0.4-2.1,0.5
			C742.5,50.5,742.8,50.4,743.7,49.8z M749.3,46.3c0,0.4-0.1,0.8-0.1,1.2c0.2-0.1,0.3-0.2,0.5-0.2C749.4,47.1,750.1,46.6,749.3,46.3
			z M739.3,35.2c0.1,0,0.2,0,0.3,0.1c0-0.3,0-0.6,0.1-0.9c-0.1,0-0.1,0-0.2,0C739.4,34.7,739.3,34.9,739.3,35.2z"/>
		<path fill="#FFFFFF" d="M520.6,63.8c0.5,0.7,0.6,1.6,0.8,2.4c0.2,0.9,0.4,1.8,0.5,2.8c0.1,0.4,0.1,0.9,0.1,1.3c-0.1,0-0.2,0-0.3,0
			c-0.2-0.9-0.3-1.8-0.5-2.8c-0.8,0.2-0.9,0.3-0.8,0.9c0.1,0.6,0.3,1.3,0.4,1.9c0.1,1,0.3,2.1,0.3,3.1c-0.5-1.6-0.7-3.2-1.1-4.9
			c-0.2,0.1-0.2,0.2-0.2,0.2c0.1,1,0.1,2,0.2,2.9c0.1,0.9,0.4,1.7,0.5,2.6c0.1,0.5,0.1,1.1-0.5,1.5c-0.2,0.1-0.3,0.4-0.4,0.6
			c-0.3,0-0.6,0.1-1,0.1c-0.3-0.5-1-0.7-1.2-1.4c-0.3-1.3-0.6-2.6-0.9-3.9c-0.1-0.3-0.2-0.5-0.3-0.9c-0.2,0.2-0.3,0.3-0.4,0.4
			c-0.5-1.1-1.1-2.3-1.6-3.4c0.3,1,0.1,2.1,1,2.8c-0.8,1.3,0.4,2.3,0.3,3.5c-0.2,0-0.4-0.1-0.5-0.4c-0.5-1.9-0.8-3.9-1.7-5.8
			c-0.2-0.4-0.2-0.8-0.3-1.2c-0.1-0.3-0.3-0.5-0.6-0.4c-1.1,0.3-2.3,0-3.4,0.1c-0.8,0.1-1.6,0-2.3,0c-0.3,1.6-0.6,3.3-1.1,4.8
			c-0.5,1.6-0.4,3.2-1.2,4.8c-0.2-0.5-0.3-0.8-0.5-1.3c-0.3,0.3-0.4,0.5-0.6,0.7c-0.5,0.4-0.9,0.3-1.3-0.2c-0.6-0.9-0.4-1.8-0.5-2.8
			c0-0.7,0-1.3,0-2c0.1-0.7,0.2-1.3,0.3-1.9c0.1-0.5,0.2-1,0.4-1.5c0.4-1.3-0.3-2.2-1.2-2.9c-0.2-0.2-0.4-0.2-0.6-0.4
			c-0.5-0.5-0.4-1.4,0.2-1.8c0.3-0.2,0.6-0.4,0.9-0.6c-0.1-0.3-0.2-0.6-0.3-0.9c0-0.2-0.1-0.4-0.1-0.6c0.1-0.1,0.2-0.1,0.3-0.1
			c0.4,0,1.1,0.1,1.3-0.1c0.4-0.5,0.9-1.1,0.9-1.8c0-0.2,0-0.3,0.1-0.5c-0.2-0.1-0.3-0.2-0.5-0.2c0,0,0.1-0.1,0.1-0.1
			c0.6,0.1,0.7-0.4,0.9-0.7c0.7-1.8,1.3-3.5,1.9-5.3c0.3-0.8,0.4-1.7,0.7-2.5c0.3-0.7,0.4-1.6,1.3-2c0.2-0.1,0.4-0.5,0.5-0.8
			c0.2-0.5,0.2-0.9,0.8-1.2c0.3-0.2,0.5-0.9,0.4-1.5c-0.1-1.8-0.1-3.7-0.2-5.6c0.7,0.4,0.3,1.3,0.9,1.8c0.1-1,0.9-1.2,1.6-1.4
			c0.4,0.5,0.8,1.1,1.2,1.6c0.2-0.2,0.3-0.3,0.5-0.5c0.3,0.5,0.5,0.9,0.7,1.4c-0.1-0.1-0.3-0.2-0.4-0.2c0,0.2,0,0.3,0.1,0.5
			c0,0.1,0.2,0.1,0.2,0.1c0.3,0.5,0.5,1,0.3,1.6c-0.2,0.5,0,1,0.2,1.4c0.3,0.9,0.5,1.8,0.7,2.7c0.5,2.3,1.1,4.6,1.6,6.9
			c0.2,0.9,0.3,1.8,0.5,2.7c0.3,0,0.5,0,0.7,0.1c0-0.1,0.1-0.1,0.1-0.1c-0.5-3-1.1-6-1.6-9c0.1,0,0.1,0,0.2,0c0.2,1,0.4,1.9,0.6,2.9
			c0.5,2.3,1,4.5,1.5,6.8c0.1,0.6,0.5,0.4,1.1,0.1c-0.3,0.3-0.4,0.4-0.6,0.6c0.3,0.1,0.6,0.1,1.2,0.2c-0.5,0.3-0.9,0.5-1.3,0.7
			c0.1,0.5,0.2,1,0.3,1.5c0.6-0.1,1.2-0.1,1.8-0.2c0.2,0.7-0.7,0.1-0.7,0.6c0.3,0.2,0.7,0.4,1,0.6C521.5,61.5,520.3,62.3,520.6,63.8
			c-0.2-0.3-0.3-0.6-0.6-1c-0.1,0.3-0.3,0.6-0.2,0.8c0.3,0.9,0.6,1.8,0.9,2.8c0.5-0.4,0.1-0.9,0.1-1.4
			C520.7,64.5,520.7,64.1,520.6,63.8z M511.2,53.1c-1.1,0.8-0.3,1.8-0.6,2.8c-0.2-0.5-0.3-0.8-0.4-1c-0.2,1-0.5,1.9-0.7,2.9
			c0.6-0.2,1.1-0.4,1.6-0.5c0.5-0.2,0.8-0.5,0.7-1C511.6,55.2,511.4,54.2,511.2,53.1z M519.4,58.2c-0.4,0.1-0.8,0-0.7,0.6
			c0.1,0.6,0.2,0.8,1,0.9C519.6,59.2,519.5,58.7,519.4,58.2z"/>
		<path fill="#FFFFFF" d="M523.9,45.1c-0.2,0.3-0.2,0.4-0.3,0.6c-0.2-0.9,0.3-1.8-0.6-2.3c0.9-0.6,0.6-1.5,0.8-2.6
			c0.5,0.8,0.6,1.7,1.4,2.1c-0.4-0.6-0.6-1.1-0.1-1.8c0.2-0.3-0.1-0.8-0.2-1.2c-0.1-0.4-0.2-0.7-0.3-1c0.4-0.2,0.7-0.2,0.8,0.2
			c0.2,0.5,0.4,1,0.5,1.6c0.1,0.6,0.2,1.2,0.4,1.8c0.4,0.2,0.7,0.3,1,0.5c0.3-0.7,0.3-0.7,0.4-1.9c0,0.2,0.1,0.4,0.1,0.7
			c0,1.2,0.3,2.3,0.8,3.3c0.3,0.6,0.5,1.2,0.7,1.8c0.2,0.4,0.2,0.8,0.8,1c0.4,0.1,0.5,0.5,0.6,0.9c0.6,1.1,0.5,2.3,1.3,3.3
			c0.4,0.5,0.5,1.2,0.6,1.8c0.1,0.8,0.4,1.5,1,2c-0.2,0.1-0.4,0.2-0.6,0.3c0.4,0.7,0.8,1.3,1.1,2c0.2,0.7,0.2,1.5,0.2,2.2
			c0.1,0,0.2,0,0.2,0c0.2-0.4,0.4-0.8,0.5-1.3c0.2-1,0.9-2,0.8-3.1c0-0.1,0.2-0.3,0.3-0.4c0.6-1,1.1-2,1.4-3.1
			c0.2-0.6,0.3-1.3,0.9-1.7c0.2-0.1,0.3-0.4,0.4-0.6c0.3-0.7,0.5-1.4,0.9-2c0.7-1.3,0.7-2.7,0.7-4c0-0.8,0.2-1.2,0.9-1.6
			c0.2,0.4,0.5,0.7,0.8,1.3c0.7-1.7,1.4-3.1,2-4.6c0.4,1,0.4,1.9-0.2,2.8c-0.3,0.5-0.3,1.3-0.4,2c0,0.1,0.4,0.4,0.4,0.3
			c0.8-0.5,1.3,0.2,1.9,0.4c0.1,0,0.2,0.1,0.3,0.1c0.2-0.2,0.4-0.5,0.6-0.7c0.1,0,0.1,0.1,0.2,0.1c0,0.2,0.1,0.4,0,0.5
			c-0.5,1.9-0.9,3.7-1.5,5.6c-0.3,0.9-0.8,1.7-1.2,2.5c-0.1,0.3-0.2,0.6-0.3,0.9c-0.5,1-1,2-1.5,3c-0.5,0.9-0.9,1.9-1.3,2.8
			c-0.5,1-1,2-1.4,3.1c-0.7,1.7-1.4,3.3-2,5c-0.1,0.2-0.1,0.4,0,0.6c0.5,0.8,0.2,1.8,0.4,2.6c0,0.2-0.1,0.4-0.1,0.6
			c-0.4,0.1-0.8,0.2-1,0.2c-0.5,0.6-0.9,1-1.2,1.4c-0.2,0.3-0.4,0.7-0.5,1.1c-0.2,0.6-0.3,1.2-0.4,1.8c-0.1,0-0.1,0-0.2,0
			c0-0.3,0.1-0.7,0.1-1c-0.6,0-0.6,0.3-0.6,0.6c-0.2,0.7-0.3,1.5-0.5,2.2c-0.1,0.2-0.3,0.5-0.5,0.6c-0.9,0.3-1.9,0.6-2.9,0.9
			c-1-0.5-0.4-1.3-0.1-2.1c-0.8,0-0.6-0.9-1.1-1.2c-0.1,0,0-0.3,0-0.4c0.6-0.6,0.7-1.5,1.1-2.3c0.3-0.5,0.5-1.1,0.4-1.8
			c0-0.2-0.1-0.4-0.1-0.6c-0.1-0.3-0.2-0.5-0.4-0.9c-0.2,0.2-0.4,0.4-0.7,0.7c-0.1-0.8,0.8-1.4,0.3-2.2c-0.3,0.1-0.5,0.3-0.7,0.4
			c0-0.1-0.1-0.1,0-0.2c0.6-1,0.2-1.9-0.1-2.8c-0.6-2.1-1.3-4.1-2-6.2c-0.6-2-1.1-4.1-1.6-6.1c-0.1-0.4-0.3-0.8-0.4-1.3
			c-0.3-1.1-0.6-2.2-0.9-3.3c0.7-0.8-0.4-1.7,0.1-2.6C524.2,46.2,523.9,45.7,523.9,45.1z M528.2,46.3c0,0.4,0,0.7,0.1,1
			c0.4,1.7,1.5,3.1,2.2,4.6c-0.3-1.2-0.5-2.5-0.8-3.7C528.6,48,529,46.9,528.2,46.3z M528,45.6c0-0.2,0.1-0.3,0-0.3
			c-0.1-0.1-0.2-0.1-0.2-0.2C527.9,45.2,527.9,45.4,528,45.6z M532.7,59.8c0,0,0.1-0.1,0.1-0.1c-0.1-0.2-0.2-0.3-0.3-0.5
			c0,0-0.1,0-0.1,0.1C532.6,59.4,532.7,59.6,532.7,59.8z"/>
		<path fill="#FFFFFF" d="M628,41.9c0.3,0.3,0.5,0.7,0.8,1c1.2,1.1,1.9,2.6,2.6,4c0.1,0.1,0,0.3,0,0.4c-0.7,0-0.7,0-2-0.9
			c0.2,0.6,0.5,1.1,0.4,1.7c0,0.5-0.3,1.1-0.6,1.8c-0.7-0.8-1.3-1.5-1.9-2.2c-0.1-0.1-0.1-0.2-0.2-0.2c-1-0.5-1.6-1.4-2.3-2.4
			c-1,0.7-1.9,1.4-2.6,2.2c-0.3,2-0.6,3.9-0.9,5.8c-0.2,0-0.4,0.1-0.8,0.2c0.1,0.5,0.3,1,0.4,1.6c-0.3,0.7-0.3,1,0.6,2.2
			c-0.1,0.2-0.3,0.4-0.4,0.6c0,0,0.1,0.1,0.1,0.1c0.1-0.1,0.2-0.1,0.4-0.2c0,0.5,1,0.5,0.5,1.3c0.1,0.1,0.2,0.1,0.3,0.2
			c0.2,0.2,0.4,0.5,0.4,0.9c-0.3-0.1-0.5-0.3-0.8-0.4c0,0-0.1,0.1-0.1,0.1c0.2,0.4,0.4,0.7,0.6,1.1c0.3,0.5,0.5,1,0.7,1.5
			c0.4,0.7,1,1.1,1.7,1.4c0,0,0.2-0.2,0.3-0.3l0,0c0.5,0.6,1,0.8,1.8,0.6c0.7-0.2,1.4-0.3,2.1-0.4c0.2,0,0.4,0,0.6,0
			c0.4,0,0.8,0.1,1.3,0.2c0.2-0.5,0.4-0.9,0.7-1.3c0.7,0.4,0.8,0.4,1.2-0.3c0.1-0.2,0.2-0.4,0.4-0.6c0,0,0.1,0,0.2,0
			c0,0.1,0,0.3,0,0.5c0.1,0,0.2,0,0.3-0.1c0.2-0.4,0.5-0.9,0.8-1.5c0,0.5-0.1,0.9-0.1,1.3c0,0.4-0.1,0.8-0.1,1.3
			c0.3,0.1,0.6,0.2,1,0.3c-0.2,0.6-0.4,1.2-0.6,2c0.4-0.3,0.6-0.4,0.9-0.6c0.3,0.1,0.6,0.2,0.9,0.3c0,0.3,0,0.7,0,1.2
			c0.1-0.1,0.3-0.1,0.4-0.2c0.1,0.7,0.1,0.7-0.3,1.2c-0.4,0.4-0.8,0.8-1.2,1.2c-0.6,0.6-0.6,0.6-0.1,1.4c0.1,0.1,0.1,0.2,0.2,0.4
			c-0.7,0.7-1.5,1.4-2.5,1.7c-1.3,0.5-2.7,1-4.2,0.8c-0.9-0.1-1.8-0.3-2.7-0.5c-0.5-0.1-0.9-0.4-1.2-0.9c-0.3-0.4-0.6-0.9-1.3-0.8
			c-0.6,0-2.1-1.2-2.5-1.8c-0.1-0.1-0.1-0.3-0.1-0.4c0.3-0.6,0-0.9-0.4-1.3c-0.9-1-1.7-2.1-2.7-3.2c0.4-0.1,0.6-0.2,0.8-0.2
			c-0.3-0.8-0.5-1.6-0.8-2.5l0,0c0.1,0,0.2,0.1,0.6,0.2c-0.3-0.4-0.5-0.7-0.7-1c-0.1-0.1-0.1-0.3-0.2-0.4c-0.1-0.2-0.2-0.5-0.3-0.5
			c-0.7-0.1-0.7-0.7-0.9-1.1c-0.4-1.3-0.8-2.5-1.1-3.8c-0.1-0.5-0.2-1-0.2-1.4c0.1-1.6,0.2-3.1,0.4-4.7c0.1-1.4,0.5-2.7,1.1-3.9
			c0.4-0.9,0.9-1.7,1.3-2.6c0.6-1.3,1.6-2.1,2.6-3c0.6-0.5,1.2-1,2-0.9c0.4,0.1,0.7,0.2,1,0.4c0.5,0.3,0.9,0.5,1.6,0.2
			c1-0.4,2.3,0.2,2.9,1.1l0,0c-0.4-0.2-0.8-0.4-1.2-0.6c-0.7-0.3-1-0.3-1.8,0c0.6,1.1,1.6,1.4,2.7,1.7c-0.3,0.1-0.5,0.2-0.8,0.3
			C627.3,41.6,627.5,41.9,628,41.9L628,41.9z M621.6,42.7c1-0.4,1.7-1,2.3-1.7c-0.3,0-0.5,0.2-0.7,0.2c-0.3,0.1-0.5,0.1-0.9,0.1
			C622.1,41.7,621.9,42.1,621.6,42.7z"/>
		<path fill="#FFFFFF" d="M603.8,64.3c0.3-0.5,0.3-1.3-0.1-1.5c-0.8-0.4-0.8-1.1-0.9-1.7c-0.4-2.2-0.7-4.3-1.1-6.5
			c-0.1-0.9-0.2-1.9-0.3-2.9c0.1,0,0.2,0,0.3,0c0.2,1.1,0.4,2.2,0.5,3.3c0.2,1.1,0.3,2.3,0.5,3.4c0.2,1.1,0.5,2.2,0.8,3.5
			c0.3-1.4-0.1-2.6-0.3-3.7c-0.3-1.5-0.5-3.1-0.8-4.6c-0.2-1-0.4-2-0.5-3c-0.1-0.7-0.2-1.4-0.3-2.1c-0.1-1.1-0.2-2.3-0.4-3.4
			c0-0.3-0.2-0.7-0.2-1c0-0.3,0-0.7,0.2-1c0.7,1.2,0.7,2.5,0.9,4c0.6-1.6-0.1-2.9-0.1-4.3c0-1.3-0.6-2.6-1-4.1
			c0.3,0.3,0.5,0.5,0.7,0.7c0.3-0.6-0.8-1.3,0.3-1.9c0.3,1,0.6,2,0.7,2.9c0.1,0.9,0.4,1.5,1,2.1c0.6-0.9-0.1-1.8,0.1-2.7
			c0.6,1.7,1.2,3.5,1.9,5.2c0,0.1,0.2,0.3,0.2,0.4c-0.3,1,0.4,1.8,0.7,2.7c0.2,0.7,0.3,1.4,0.4,2.1c0.1,0.4,0.1,0.8,0.3,1.1
			c0.2,0.3,0.5,0.6,0.8,0.8c-0.2-1-0.3-2-0.7-3c-0.5-1.2-0.5-2.6-0.7-3.9c0-0.2,0.2-0.4,0.3-0.7c0.4,1.3,1.1,2.4,1.5,3.7
			c0.3,1.1,0.5,2.1,0.8,3.2c0.1,0.5,0.2,1.1,0.3,1.6c0.4,1.7,0.8,3.4,1.2,5.1c0.3,1.5,0.4,3,0.7,4.5c0.2,1.3,0.4,2.7,0.6,4
			c0.1,0.5,0.1,0.9-0.5,1.2c-0.6,0.3-0.1,0.8,0,1.2c-0.1,0.1-0.3,0.2-0.4,0.3c-0.3,0-0.8-0.6-0.9-1.1c-0.1-0.5-0.1-1-0.2-1.5
			c0-0.2-0.2-0.5-0.3-0.7c-0.1,0-0.2,0-0.3,0c-0.1,0.6-0.1,1.1-0.2,1.7c0,0,0,0.1,0,0.1c0,0.5-0.1,1-0.1,1.5
			c0.1,0.7-0.8,0.6-0.9,1.1c-0.6-0.6-1.1-1.2-1.5-1.7c-0.6,0-1.1,0.1-1.6,0.1C603.9,67.7,603.7,66,603.8,64.3L603.8,64.3z"/>
		<path fill="#FFFFFF" d="M688,52.3c0.1,3.1,0.1,6.2,0.2,9.3c0.1,3.3,0.2,6.7,0.3,10c0,1-0.1,2.1,0.5,3c-0.3,0-0.5,0-0.8,0.1
			c-0.4-0.4-0.2-1-0.2-1.6c0.1-0.9-0.1-1.9-0.2-2.8c0-1,0-2.1,0-3.1c0-1.5,0-2.9,0-4.4c0-2.2-0.1-4.3-0.1-6.5c0-1.4,0.1-2.8,0.1-4.2
			C687.9,52.2,687.9,52.2,688,52.3z"/>
		<path fill="#FFFFFF" d="M460.7,69.8c-0.2,0.1-0.4,0.2-0.4,0.3c-0.3,0.7-0.5,1.5-0.7,2.2c-0.1,0.2-0.2,0.5-0.3,0.7
			c-0.1,0-0.1,0-0.2-0.1c0.1-0.3,0.1-0.6,0.2-0.9c0.3-1,0.6-2,0.8-3c0.2-1,0.2-2.1,0.3-3.1c0.2-1.4,0.4-2.7,0.6-4.1
			c0.7,0.1,0.4,0.7,0.5,1c0.1,0.4,0.2,0.7,0.4,1.2c-0.3,0.6-0.5,1.3-0.6,2.2c0,1-0.4,1.9-0.7,2.9C460.5,69.4,460.6,69.6,460.7,69.8
			C460.6,69.9,460.7,69.8,460.7,69.8z"/>
		<path fill="#FFFFFF" d="M514.3,36.9c-0.3,0-0.4,0.1-0.7,0.1c-0.1,0.3-0.1,0.5-0.2,1c-0.1-0.5-0.1-0.8-0.2-1.1c-0.3,0-0.6,0-0.9,0
			c0.5-1,0.3-1.2-0.3-1.8c0-0.3,0.2-0.7,0-0.9c-0.2-0.3-0.2-0.5,0.1-0.6c0.2-0.1,0.4,0.1,0.6,0.2c0-0.2,0-0.4,0-0.6
			c0.2,0.1,0.3,0.1,0.3,0.2c0.2,0.7,0.4,1.4,0.7,2.1C513.2,36.2,514.2,36.3,514.3,36.9z"/>
		<path fill="#FFFFFF" d="M775.4,20c-0.1,0.1-0.1,0.3-0.2,0.4c-0.1,0.1-0.2,0.2-0.3,0.4c0.2,0.1,0.3,0.1,0.5,0.2
			c0.3,0.2,0.4,0.5,0.1,0.7c-1.2,0.8-1.9,1.9-2,3.4c0,0.2-0.2,0.4-0.4,0.7c-0.1-0.2-0.3-0.3-0.3-0.4c0.1-0.7,0.3-1.3,0.5-2
			c0.3-0.7,0.6-1.4,0.9-2.1c0.3-0.6,0.6-1.1,0.9-1.6C775.2,19.9,775.3,19.9,775.4,20z"/>
		<path fill="#FFFFFF" d="M688.8,51.7c-0.1-0.2-0.1-0.4-0.1-0.6c0-1.4,0-2.8,0-4.2c0-0.2-0.1-0.4-0.1-0.7c-0.3,0.2-0.5,0.3-0.7,0.4
			c-0.1-1.5-0.2-3-0.4-4.6c0.8,0.6,0.5,1.3,0.5,1.9c0.1,0.6,0,1.2,0.1,1.9c0.1-0.3,0.1-0.6,0.2-1.1c0.1,0.5,0.1,0.7,0.1,0.9
			c0,0,0.1,0,0.1,0c0-0.3,0.1-0.6,0.1-0.8C689,47.1,689.3,49.4,688.8,51.7L688.8,51.7z"/>
		<path fill="#FFFFFF" d="M462.8,53.7c0,0.3,0,0.7-0.1,0.9c-0.3,0.5-0.2,0.9,0.4,1.3c-1.1,0.4-0.9,1.3-0.7,1.9
			c0.2,0.8-0.3,1.5-0.3,2.3c0,0.1,0,0.2-0.1,0.2c-0.7,0.1-0.7,0.8-1.2,1.2c0.1-1.6,0.1-1.6,0.5-2c0,0.2,0.1,0.4,0.2,0.8
			c0.1-0.2,0.2-0.3,0.2-0.4c0.2-1.1,0.3-2.2,0.5-3.3c0-0.1-0.1-0.3-0.2-0.4c-0.1-0.2-0.2-0.4-0.4-0.7c0.3,0,0.5,0,0.6,0
			c0.1-0.6,0.2-1.3,0.3-1.9C462.6,53.7,462.7,53.7,462.8,53.7z"/>
		<path fill="#FFFFFF" d="M686.6,64.8c0.5,1.9,0.2,3.9,0.4,5.9c0.2,0,0.4-0.1,0.6-0.1c0,0.1,0,0.2,0,0.3c-0.2,0.3-0.5,0.5-0.8,0.9
			c-0.1-0.5-0.2-1-0.2-1.4C686.6,68.5,686.6,66.7,686.6,64.8z"/>
		<path fill="#FFFFFF" d="M822.7,21.5c2.1-0.5,4.1-1,6.3-0.2c-0.4,0-0.8,0.2-1.2,0.1c-1.3-0.2-2.5,0-3.7,0.2
			c-0.4,0.1-0.9,0.1-1.3,0.2C822.7,21.6,822.7,21.5,822.7,21.5z"/>
		<path fill="#FFFFFF" d="M688.8,51.8c0.1,0.2,0.3,0.5,0.3,0.7c0,1.8-0.1,3.5-0.2,5.3c0,0.1-0.1,0.2-0.1,0.3
			C688.5,57.4,688.5,53.2,688.8,51.8L688.8,51.8z"/>
		<path fill="#FFFFFF" d="M683.6,13.7c0.5,0.3,0.9,0.6,1.4,0.9c0.2-0.4,0.3-0.8,0.5-1.3c0.8,0.5,0.1,1.5,0.7,2.1
			c-0.3-0.1-0.5-0.2-0.8-0.3c-0.3-0.1-0.6-0.2-0.8-0.3C684,14.8,683.7,14.4,683.6,13.7z"/>
		<path fill="#FFFFFF" d="M825.9,18.7c0.4-0.1,0.9-0.1,1.3-0.2c1.2,0,2.5-0.1,3.7,0c0.5,0,1,0.1,1.5,0.6
			C830.2,18.7,828.1,18.8,825.9,18.7z"/>
		<path fill="#FFFFFF" d="M598.9,67.9c-0.1-0.1-0.2-0.3-0.3-0.4c-0.2-0.3-0.3-0.6-0.5-0.9c-0.1-0.2-0.2-0.5-0.3-0.7l0,0
			c0.1,0.1,0.3,0.1,0.3,0.2c0.8,1,1.6,2,2.1,3.2c-0.3-0.1-0.5-0.3-0.8-0.4C599.3,68.5,599.1,68.2,598.9,67.9z"/>
		<path fill="#FFFFFF" d="M686.6,59c0.2,1.6,0.4,3.2,0.1,4.8C686.5,62.2,686.5,60.6,686.6,59z"/>
		<path fill="#FFFFFF" d="M730,83.8c-0.6-1-0.6-2.2-0.8-3.4c0.9,0.5,0.1,1.6,1,1.8C730.2,82.7,730.1,83.2,730,83.8L730,83.8z"/>
		<path fill="#FFFFFF" d="M712.9,7.8c0.6,0.8,1,1.5,1.4,2.2C713,9.7,712.6,9.2,712.9,7.8z"/>
		<path fill="#FFFFFF" d="M726,81.1c0.1,1.2,0.2,2.2,0.3,3.3c-0.1,0-0.2,0-0.3,0c-0.4-0.9-0.3-2-0.3-2.9
			C725.7,81.4,725.9,81.3,726,81.1z"/>
		<path fill="#FFFFFF" d="M733.6,90.2c0.1-0.2,0.2-0.3,0.3-0.5c0,0.4,0,0.6,0,0.9c-0.1,0-0.3,0-0.3,0c-0.5-0.3-0.9-0.7-1.3-1.1
			c0.2-0.3,0.3-0.5,0.5-0.7c0,0,0.1,0,0.1,0.1C732.9,89.4,733.1,89.9,733.6,90.2z"/>
		<path fill="#FFFFFF" d="M620.7,70c-1.1-0.8-1.9-1.6-2.3-2.8c0.4,0.4,0.7,0.9,1.1,1.3C619.8,68.9,620.6,69,620.7,70z"/>
		<path fill="#FFFFFF" d="M745.2,38.7c-0.4-0.2-0.8-0.5-1.4-0.9c0.4-0.2,0.7-0.3,1-0.4C745,37.9,745.3,38.4,745.2,38.7z"/>
		<path fill="#FFFFFF" d="M786.3,17.4c0-1-0.6-2,0.4-2.9c-0.1,0.5-0.2,0.9-0.2,1.4C786.3,16.4,786.3,16.9,786.3,17.4z"/>
		<path fill="#FFFFFF" d="M730,83.8c0.2,1.4,0.4,2.7,0.5,4.1C730.2,87.4,729.9,84.8,730,83.8C730,83.8,730,83.8,730,83.8z"/>
		<path fill="#FFFFFF" d="M628.2,39.7c0.8,0.4,1.5,1.1,1.8,2C629.5,41,628.4,40.7,628.2,39.7L628.2,39.7z"/>
		<path fill="#FFFFFF" d="M863.8,13.4c0.3-0.1,0.6-0.2,0.9-0.3c0.7,0.7,0.6,1.5,0.6,2.5c-0.1-0.5-0.1-0.9-0.3-1.3
			C864.8,13.5,864.6,13.5,863.8,13.4z"/>
		<path fill="#FFFFFF" d="M753.9,51.6c0.8-0.4,1.5-0.5,2.3-0.1C755.4,51.6,754.7,51.9,753.9,51.6z"/>
		<path fill="#FFFFFF" d="M800.2,21.7c-0.2-1.1,0-2.1,0.3-3.1c0-0.1,0.2-0.2,0.3-0.3C800.6,19.4,800.4,20.6,800.2,21.7
			C800.2,21.7,800.2,21.7,800.2,21.7z"/>
		<path fill="#FFFFFF" d="M719.2,39.6c-0.1-1-0.3-1.9-0.4-2.9c0.5,0.9,0.5,1.9,0.7,2.9C719.4,39.6,719.3,39.6,719.2,39.6z"/>
		<path fill="#FFFFFF" d="M683.1,15.2c0.7,0.2,1.3,0.6,1.9,1.1C684.3,16.3,683.5,15.9,683.1,15.2z"/>
		<path fill="#FFFFFF" d="M622.8,58.2c0.7,0.7,1.1,1.4,1.3,2.4C623.3,60,623,59.1,622.8,58.2L622.8,58.2z"/>
		<path fill="#FFFFFF" d="M522.3,72.9c-0.2-0.7-0.3-1.5-0.5-2.2C522.4,71.3,522.5,72.1,522.3,72.9z"/>
		<path fill="#FFFFFF" d="M464.2,41.9c0.1,0.2,0.2,0.5,0.3,0.8c-0.2,0.2-0.4,0.4-0.7,0.7c0.1-0.6,0.1-1,0.2-1.5
			C464.1,41.9,464.1,41.9,464.2,41.9z"/>
		<path fill="#FFFFFF" d="M465.3,43.6c-0.1,0.3-0.3,0.5-0.4,0.8c-0.1,0-0.1,0-0.2-0.1c0.1-0.7,0.2-1.3,0.3-2.2
			C465.2,42.8,465.3,43.2,465.3,43.6C465.4,43.6,465.3,43.6,465.3,43.6z"/>
		<path fill="#FFFFFF" d="M522.8,42.3c0-0.4,0-0.8,0-1.3c0.8,0.4,0.4,0.8,0.3,1.2C523,42.3,522.9,42.3,522.8,42.3z"/>
		<path fill="#FFFFFF" d="M823.8,50.3c-0.6,0.1-1.2,0.1-1.9,0.2c0-0.1,0-0.2,0-0.3c0.6-0.1,1.2-0.1,1.9-0.2
			C823.8,50.1,823.8,50.2,823.8,50.3z"/>
		<path fill="#CF0A2C" d="M409.3,68.4c0-0.4-0.5-0.9,0.2-1.3C409.6,67.7,409.6,67.7,409.3,68.4z"/>
		<path fill="#FFFFFF" d="M639.5,32.4c-0.2-0.7-0.3-1.1-0.5-1.7C639.7,31.3,639.7,31.3,639.5,32.4z"/>
		<path fill="#FFFFFF" d="M617.4,60.2c0,0.4,0,0.8,0.1,1.2c-0.1,0-0.1,0-0.2,0c-0.2-0.4-0.3-0.9-0.5-1.3c0.1,0,0.1-0.1,0.2-0.1
			C617.1,60.1,617.2,60.2,617.4,60.2C617.4,60.3,617.4,60.2,617.4,60.2z"/>
		<path fill="#FFFFFF" d="M867.2,13.4c-0.5,0.3-0.7-0.1-1.1-0.5c0.2-0.2,0.5-0.4,0.7-0.6c0.1,0.1,0.1,0.2,0.2,0.2
			C867,12.9,867.1,13.2,867.2,13.4L867.2,13.4z"/>
		<path fill="#FFFFFF" d="M490.5,71c-0.1-0.4-0.2-0.8-0.3-1.2C490.8,70,490.8,70,490.5,71z"/>
		<path fill="#FFFFFF" d="M464.8,39.4c0,0.3-0.1,0.7-0.1,1.1C464.2,39.8,464.2,39.8,464.8,39.4z"/>
		<path fill="#FFFFFF" d="M484.9,40.1c-0.1-0.2-0.3-0.5-0.2-0.6c0.1-0.4,0.4-0.8,0.6-1.1C485.4,38.9,485.2,39.5,484.9,40.1
			C484.9,40.1,484.9,40.1,484.9,40.1z"/>
		<path fill="#FFFFFF" d="M727.5,62.6c0.1,0.6,0.2,1.2,0.3,1.7c-0.1,0-0.2,0-0.3,0c-0.1-0.6-0.2-1.2-0.3-1.7
			C727.3,62.7,727.4,62.6,727.5,62.6z"/>
		<path fill="#FFFFFF" d="M798.9,21.2c0.1-0.7,0.1-1.4,0.2-2.1c0,0,0,0,0.1,0C799.1,19.8,799,20.6,798.9,21.2
			C798.9,21.3,798.9,21.3,798.9,21.2z"/>
		<path fill="#FFFFFF" d="M722.6,55c-0.1-0.5-0.2-1.1-0.3-1.6c0.1,0,0.2,0,0.2,0c0.1,0.5,0.1,1.1,0.2,1.6
			C722.7,55,722.6,55,722.6,55z"/>
		<path fill="#FFFFFF" d="M787.7,57.9c0.1,0.6,0.1,1.2,0.2,1.9c-0.1,0-0.1,0-0.2,0c-0.1-0.6-0.1-1.2-0.2-1.9
			C787.5,58,787.6,57.9,787.7,57.9z"/>
		<path fill="#FFFFFF" d="M622.8,58.2c-0.3-0.6-0.5-1.1-0.8-1.7C622.6,56.9,622.7,57.6,622.8,58.2C622.8,58.2,622.8,58.2,622.8,58.2
			z"/>
		<path fill="#FFFFFF" d="M497.9,66.1c-0.3-0.3-0.7-0.5-0.5-1.1C497.9,65.2,497.9,65.7,497.9,66.1z"/>
		<path fill="#FFFFFF" d="M780.9,56.1c0,0.4,0.1,0.9,0.1,1.3c-0.1,0-0.2,0-0.2,0c0-0.2,0-0.4,0-0.5c0-0.2-0.1-0.5-0.2-0.7
			C780.7,56.2,780.8,56.1,780.9,56.1z"/>
		<path fill="#FFFFFF" d="M688.8,43c0,0.4,0,0.8,0,1.2c-0.1,0-0.2,0-0.2,0c-0.2-0.4-0.1-0.8,0-1.2C688.7,43,688.8,43,688.8,43z"/>
		<path fill="#FFFFFF" d="M473.8,16.7c-0.3,0.3-0.6,0.5-1,0.8c-0.1-0.1-0.1-0.1-0.2-0.2c0.3-0.3,0.6-0.6,0.9-0.9
			C473.7,16.5,473.7,16.6,473.8,16.7z"/>
		<path fill="#FFFFFF" d="M486.2,35.5c-0.3,0.5-0.6,1-0.9,1.5C485.4,35.7,485.4,35.7,486.2,35.5C486.2,35.6,486.2,35.5,486.2,35.5z"
			/>
		<path fill="#FFFFFF" d="M687.9,50.5c0-0.4-0.1-0.8-0.1-1.2c0,0,0.1,0,0.1,0c0,0.4,0.1,0.8,0.1,1.3
			C687.9,50.5,687.9,50.5,687.9,50.5z"/>
		<path fill="#FFFFFF" d="M686.9,54.2c0,0.6-0.1,1.1-0.1,1.7C686.5,55.3,686.6,54.7,686.9,54.2z"/>
		<path fill="#FFFFFF" d="M458.9,68.9c0.1-0.6,0.3-1.1,0.4-1.7c0.1,0,0.1,0,0.2,0c-0.1,0.6-0.3,1.2-0.4,1.7
			C459,69,459,69,458.9,68.9z"/>
		<path fill="#FFFFFF" d="M463,39.1c-0.2,0.4-0.3,0.6-0.4,0.9c-0.1-0.3-0.2-0.6-0.3-1C462.6,39,462.8,39.1,463,39.1z"/>
		<path fill="#FFFFFF" d="M728.9,74.2c0-0.4-0.1-0.7-0.1-1.1C729.3,73.4,729.3,73.6,728.9,74.2z"/>
		<path fill="#FFFFFF" d="M753,52.7c0.5,0.1,1.1,0.2,1.6,0.3c0,0,0,0.1,0,0.1c-0.6,0-1.2-0.1-1.7-0.1C752.9,52.9,753,52.8,753,52.7z
			"/>
		<path fill="#FFFFFF" d="M757.1,59.2c0.8,0.3,0.8,0.3,0.2,1C757.3,59.9,757.2,59.6,757.1,59.2z"/>
		<path fill="#FFFFFF" d="M633,47.2c-0.2-0.4-0.3-0.8-0.5-1.3c0.1,0,0.1,0,0.2-0.1c0.2,0.4,0.3,0.8,0.5,1.3
			C633.1,47.2,633,47.2,633,47.2z"/>
		<path fill="#CF0A2C" d="M428.5,35.3c0.8,0.4,0.5,0.7,0.3,1.3C428.7,36.1,428.6,35.8,428.5,35.3z"/>
		<path fill="#FFFFFF" d="M617.8,59.9c0.1,0.1,0.1,0.3,0.2,0.4c0,0.3,0.1,0.6,0.1,0.9l0,0c-0.1-0.1-0.3-0.3-0.4-0.4
			c-0.1-0.2-0.3-0.4-0.4-0.5c0,0,0,0,0,0C617.4,60,617.4,59.6,617.8,59.9z"/>
		<path fill="#FFFFFF" d="M617.2,65.4c-0.2-0.3-0.3-0.7-0.5-1c0.1,0,0.1-0.1,0.2-0.1c0.2,0.3,0.4,0.6,0.5,1
			C617.3,65.3,617.3,65.4,617.2,65.4z"/>
		<path fill="#FFFFFF" d="M463,50.9c0,0.4-0.1,0.8-0.1,1.2c0,0-0.1,0-0.1,0c0-0.4,0-0.8,0-1.2C462.9,50.9,463,50.9,463,50.9z"/>
		<path fill="#FFFFFF" d="M490.3,75.8c0,0.3,0,0.6,0.1,1c0,0-0.1,0-0.1,0C490.3,76.4,490.3,76.1,490.3,75.8z"/>
		<path fill="#CF0A2C" d="M404.4,75.7c0.2-0.3,0.3-0.7,0.6-1.2c0.3,0.8-0.2,0.9-0.4,1.3C404.6,75.8,404.5,75.8,404.4,75.7z"/>
		<path fill="#FFFFFF" d="M724.2,62.6c0.4,0.5,0.4,1,0.2,1.5C724.3,63.6,724.3,63.1,724.2,62.6L724.2,62.6z"/>
		<path fill="#FFFFFF" d="M724.2,62.6c-0.1-0.5-0.2-1.1-0.2-1.6c0.1,0,0.1,0,0.2,0C724.2,61.5,724.2,62.1,724.2,62.6
			C724.2,62.6,724.2,62.6,724.2,62.6z"/>
		<path fill="#FFFFFF" d="M621.8,54.4c0.1,0.3,0.1,0.6,0.2,0.9C621.6,54.9,621.6,54.9,621.8,54.4z"/>
		<path fill="#FFFFFF" d="M457.3,72.3c0.2-0.4,0.4-0.8,0.6-1.2c0.1,0,0.1,0.1,0.2,0.1c-0.2,0.4-0.4,0.8-0.6,1.2
			C457.5,72.3,457.4,72.3,457.3,72.3z"/>
		<path fill="#FFFFFF" d="M829,52.2c0.3,0,0.7,0,1,0c0,0,0,0.1,0,0.1c-0.3,0-0.7,0.1-1,0.1C829,52.3,829,52.2,829,52.2z"/>
		<path fill="#FFFFFF" d="M630.2,42.6c0.3,0.3,0.6,0.5,0.9,0.8c0,0.1-0.1,0.1-0.1,0.2c-0.3-0.3-0.6-0.6-0.8-0.8
			C630.1,42.7,630.2,42.7,630.2,42.6z"/>
		<path fill="#FFFFFF" d="M784.7,16.7c0-0.4,0.1-0.8,0.1-1.2c0,0,0.1,0,0.1,0C784.9,15.9,784.8,16.3,784.7,16.7
			C784.8,16.8,784.8,16.7,784.7,16.7z"/>
		<path fill="#FFFFFF" d="M819.1,53.9c0.5-0.1,1.1-0.2,1.6-0.2c0,0.1,0,0.2,0,0.2C820.2,53.9,819.7,53.9,819.1,53.9
			C819.1,53.9,819.1,53.9,819.1,53.9z"/>
		<path fill="#FFFFFF" d="M474.7,58.1c-0.1-0.2-0.2-0.3-0.3-0.5c0,0,0.2-0.2,0.2-0.2c0.1,0.1,0.3,0.3,0.4,0.4
			C474.9,58,474.8,58,474.7,58.1z"/>
		<path fill="#FFFFFF" d="M508.5,44.1c0.1-0.3,0.3-0.5,0.4-0.8c0.1,0,0.1,0,0.2,0.1c0,0.2-0.1,0.3-0.1,0.5c-0.1,0.1-0.2,0.2-0.3,0.4
			C508.6,44.2,508.6,44.2,508.5,44.1z"/>
		<path fill="#FFFFFF" d="M507.4,69.2c-0.1-0.3-0.2-0.6-0.3-1.1C507.6,68.4,507.9,68.7,507.4,69.2z"/>
		<path fill="#FFFFFF" d="M686.8,56.3c0,0.3-0.1,0.6-0.1,0.9c-0.1,0-0.1,0-0.2,0c0-0.3,0-0.6,0-0.9
			C686.6,56.3,686.7,56.3,686.8,56.3z"/>
		<path fill="#FFFFFF" d="M781.3,58.5c0.1,0.3,0.1,0.7,0.2,1c-0.1,0-0.1,0-0.2,0c-0.1-0.3-0.1-0.7-0.2-1
			C781.2,58.6,781.3,58.6,781.3,58.5z"/>
		<path fill="#FFFFFF" d="M775.6,19.5c0.3-0.2,0.6-0.4,0.9-0.6c0,0.1,0.1,0.1,0.1,0.2c-0.3,0.2-0.6,0.4-0.8,0.7
			C775.8,19.6,775.7,19.5,775.6,19.5z"/>
		<path fill="#FFFFFF" d="M729.4,72.7c-0.2,0-0.4,0-0.5-0.1c0.1-0.2,0.2-0.4,0.3-0.8C729.2,72.2,729.3,72.5,729.4,72.7z"/>
		<path fill="#FFFFFF" d="M786.4,18.1c0,0.3,0,0.6,0,0.9c0,0-0.1,0-0.1,0c0-0.3-0.1-0.6-0.1-0.9C786.2,18.1,786.3,18.1,786.4,18.1z"
			/>
		<path fill="#FFFFFF" d="M786.8,58L786.8,58c-0.1-0.3-0.1-0.6-0.2-0.9l0,0C787,57.3,787,57.6,786.8,58z"/>
		<path fill="#FFFFFF" d="M526.3,40.8c0.2,0.4,0.3,0.6,0.5,0.9C526.4,41.4,526.4,41.4,526.3,40.8z"/>
		<path fill="#FFFFFF" d="M603.8,64.3c-0.7-0.2-0.3-0.7-0.4-1c0.1,0,0.2,0,0.2-0.1C603.7,63.6,603.7,63.9,603.8,64.3
			C603.8,64.3,603.8,64.3,603.8,64.3z"/>
		<path fill="#FFFFFF" d="M614.7,56.9c0-0.2,0-0.5,0-0.7c0.1,0,0.1,0,0.2,0c0,0.2,0.1,0.5,0.1,0.7C614.9,56.8,614.8,56.8,614.7,56.9
			z"/>
		<path fill="#FFFFFF" d="M490.8,67.3c-0.3-0.3-0.4-0.4-0.6-0.6C490.8,66.7,490.8,66.7,490.8,67.3z"/>
		<path fill="#FFFFFF" d="M489.7,47.1c0.1-0.3,0.1-0.5,0.1-0.8c0.1,0.1,0.2,0.1,0.2,0.1C490.1,46.7,490.2,47,489.7,47.1z"/>
		<path fill="#FFFFFF" d="M720,42.8c-0.2,0-0.4-0.1-0.3-0.4c0.1-0.4,0.1-0.7,0.2-1.1l0,0C719.9,41.9,719.9,42.3,720,42.8
			C720,42.8,720,42.8,720,42.8z"/>
		<path fill="#FFFFFF" d="M688.9,59.7c-0.2-0.5-0.3-0.7-0.4-1.2C689,58.9,689,59.2,688.9,59.7z"/>
		<path fill="#FFFFFF" d="M693.7,25.8c0.5,0,0.5,0.4,0.5,0.7C694,26.3,693.9,26.1,693.7,25.8z"/>
		<path fill="#FFFFFF" d="M794.4,30.2c0-0.4,0.1-0.7,0.1-1.1c0,0,0.1,0,0.1,0c0,0.4,0,0.7,0,1.1C794.5,30.2,794.5,30.2,794.4,30.2z"
			/>
		<path fill="#FFFFFF" d="M546.1,37.2c0.2,0,0.5,0,0.7,0c0,0,0,0.1,0,0.1c-0.2,0.1-0.5,0.1-0.7,0.2
			C546.1,37.3,546.1,37.2,546.1,37.2z"/>
		<path fill="#FFFFFF" d="M540.7,40.9c0-0.4,0-0.6-0.1-0.9C541.2,40.2,541.2,40.5,540.7,40.9z"/>
		<path fill="#FFFFFF" d="M541,38.4c-0.1,0.3-0.2,0.5-0.2,0.8c-0.1,0-0.1,0-0.2-0.1c0.1-0.3,0.1-0.5,0.2-0.8
			C540.8,38.4,540.9,38.4,541,38.4z"/>
		<path fill="#FFFFFF" d="M688.7,40.6c0,0.3,0,0.6-0.1,0.9c0,0-0.1,0-0.1,0C688.6,41.2,688.6,40.9,688.7,40.6
			C688.7,40.6,688.7,40.6,688.7,40.6z"/>
		<path fill="#FFFFFF" d="M688.9,23.4c-0.1-0.2-0.2-0.4-0.4-0.5c0,0,0.1-0.1,0.1-0.1c0.1,0.2,0.2,0.4,0.4,0.5
			C688.9,23.4,688.9,23.4,688.9,23.4z"/>
		<path fill="#FFFFFF" d="M821.1,36c-0.6,0.3-0.6,0.3-0.9-0.1C820.5,36,820.8,36,821.1,36C821.1,36.1,821.1,36,821.1,36z"/>
		<path fill="#FFFFFF" d="M472.3,19.3c-0.1,0-0.1,0.1-0.2,0.1c-0.1-0.1-0.2-0.2-0.3-0.3c0.1-0.1,0.2-0.2,0.3-0.2
			C472.1,19,472.2,19.2,472.3,19.3z"/>
		<path fill="#CF0A2C" d="M415.6,27.7c-0.1,0.3-0.1,0.7-0.3,1.1C415,28.3,415.4,28,415.6,27.7z"/>
		<path fill="#FFFFFF" d="M774.9,23.3c0,0.2,0,0.4,0,0.6c-0.1,0-0.2,0-0.2,0c0-0.2,0-0.4,0-0.6C774.8,23.3,774.9,23.3,774.9,23.3z"
			/>
		<path fill="#CF0A2C" d="M410.2,64c-0.4,0.1-0.8,0.2-0.9-0.6C409.7,63.7,409.9,63.8,410.2,64C410.2,64,410.2,64,410.2,64z"/>
		<path fill="#FFFFFF" d="M754.1,61.6c0-0.2,0-0.5-0.1-0.7c0.1,0,0.1,0,0.2,0c0,0.3,0.1,0.5,0.1,0.8
			C754.3,61.6,754.2,61.6,754.1,61.6z"/>
		<path fill="#FFFFFF" d="M760.9,30.9c-0.2-0.2-0.3-0.4-0.5-0.6c0.1,0,0.2-0.1,0.2-0.1C760.9,30.3,761,30.6,760.9,30.9L760.9,30.9z"
			/>
		<path fill="#FFFFFF" d="M458.4,70.3c0.1-0.3,0.2-0.5,0.3-0.8c0.1,0,0.1,0,0.2,0.1c-0.1,0.3-0.2,0.5-0.3,0.8
			C458.5,70.4,458.5,70.3,458.4,70.3z"/>
		<path fill="#FFFFFF" d="M610.9,51.2c0-0.2-0.1-0.5-0.1-0.7c0,0,0.1,0,0.1,0c0.1,0.2,0.1,0.4,0.2,0.7C611,51.2,611,51.2,610.9,51.2
			z"/>
		<path fill="#FFFFFF" d="M829,23.7c0.2-0.5,0.6-0.4,1-0.2C829.7,23.6,829.3,23.7,829,23.7L829,23.7z"/>
		<path fill="#FFFFFF" d="M719.9,41.4c-0.4-0.2-0.4-0.6-0.2-1C719.7,40.7,719.8,41,719.9,41.4L719.9,41.4z"/>
		<path fill="#FFFFFF" d="M463.2,46.9c-0.1-0.2-0.1-0.5-0.2-0.7c0.1,0,0.1,0,0.2,0c0.1,0.2,0.1,0.5,0.2,0.7
			C463.3,46.9,463.2,46.9,463.2,46.9z"/>
		<path fill="#FFFFFF" d="M462.4,62.7c0.1-0.2,0.2-0.4,0.3-0.7c0.1,0,0.1,0,0.2,0.1c-0.1,0.2-0.2,0.5-0.2,0.7
			C462.5,62.7,462.4,62.7,462.4,62.7z"/>
		<path fill="#FFFFFF" d="M628.1,41.9c0.5-0.2,0.9-0.2,1.4,0.3C628.9,42.1,628.5,42,628.1,41.9C628,41.9,628.1,41.9,628.1,41.9z"/>
		<path fill="#FFFFFF" d="M547.8,64.9c-0.3,0.1-0.6,0.1-0.9,0.2c0,0,0-0.1,0-0.1c0.3-0.1,0.6-0.2,0.9-0.2
			C547.8,64.8,547.8,64.9,547.8,64.9z"/>
		<path fill="#FFFFFF" d="M728.4,69.8c0.1,0.2,0.2,0.4,0.3,0.6c-0.1,0-0.1,0.1-0.2,0.1c-0.1-0.2-0.2-0.4-0.3-0.6
			C728.3,69.9,728.4,69.8,728.4,69.8z"/>
		<path fill="#FFFFFF" d="M557.6,32.5c0.2,0,0.5,0,0.8,0C558.1,33,557.8,32.9,557.6,32.5z"/>
		<path fill="#FFFFFF" d="M465.3,34.6c0.2,0.4,0.2,0.8-0.1,1.2C464.8,35.3,465.2,35,465.3,34.6C465.3,34.6,465.3,34.6,465.3,34.6z"
			/>
		<path fill="#FFFFFF" d="M482.5,46.6c-0.1-0.1-0.3-0.1-0.4-0.2c0-0.1,0.1-0.2,0.1-0.2c0.1,0.1,0.3,0.2,0.4,0.2
			C482.5,46.5,482.5,46.6,482.5,46.6z"/>
		<path fill="#CF0A2C" d="M422.6,27.3c-0.1,0.1-0.2,0.2-0.3,0.3c-0.1-0.1-0.2-0.2-0.2-0.3c0-0.1,0.2-0.2,0.3-0.2
			C422.3,27.2,422.4,27.3,422.6,27.3z"/>
		<path fill="#FFFFFF" d="M474.9,56.5c0.1-0.2,0.2-0.4,0.4-0.5c0.1,0,0.1,0.1,0.2,0.1c-0.1,0.2-0.2,0.4-0.3,0.6
			C475,56.6,474.9,56.6,474.9,56.5z"/>
		<path fill="#FFFFFF" d="M788.4,56.7c0,0.3,0,0.6-0.1,0.8c0,0,0,0-0.1,0c0-0.3,0-0.6,0-0.8C788.3,56.7,788.4,56.7,788.4,56.7z"/>
		<path fill="#FFFFFF" d="M802,26.6c0-0.2,0-0.5,0.1-0.7c0,0,0.1,0,0.1,0C802.2,26.1,802.1,26.4,802,26.6
			C802.1,26.6,802.1,26.6,802,26.6z"/>
		<path fill="#FFFFFF" d="M867.2,13.4c0,0.4-0.3,0.6-0.5,0.9c0,0,0,0,0,0C866.3,13.7,866.9,13.6,867.2,13.4
			C867.2,13.4,867.2,13.4,867.2,13.4z"/>
		<path fill="#CF0A2C" d="M431.6,30.4c0,0.3,0,0.6,0,0.8C431.4,31,431,30.8,431.6,30.4z"/>
		<path fill="#FFFFFF" d="M869.2,14.4c-0.3-0.1-0.7,0.3-0.7-0.4C868.7,14.2,868.9,14.3,869.2,14.4C869.1,14.4,869.2,14.4,869.2,14.4
			z"/>
		<path fill="#CF0A2C" d="M425,28.8c-0.1,0.2-0.1,0.4-0.2,0.6c-0.1,0-0.2,0-0.2-0.1c0-0.2,0.1-0.4,0.1-0.6
			C424.9,28.8,425,28.8,425,28.8z"/>
		<path fill="#FFFFFF" d="M776.9,22.3c0,0.3-0.1,0.5-0.1,0.8c0,0-0.1,0-0.1,0c0-0.3,0-0.5,0.1-0.8C776.8,22.3,776.9,22.3,776.9,22.3
			z"/>
		<path fill="#FFFFFF" d="M865.8,13.6c0.2,0.1,0.3,0.2,0.5,0.3c0,0.1-0.1,0.1-0.1,0.2c-0.2-0.1-0.4-0.2-0.6-0.3
			C865.7,13.7,865.7,13.6,865.8,13.6z"/>
		<path fill="#FFFFFF" d="M781.4,22.9c-0.2,0.1-0.4,0.2-0.5,0.2c0,0,0-0.1-0.1-0.1c0.2-0.1,0.4-0.2,0.5-0.3
			C781.4,22.8,781.4,22.8,781.4,22.9z"/>
		<path fill="#FFFFFF" d="M686.3,16.7c0.1,0.2,0.1,0.5,0.2,0.7c-0.1,0-0.2,0-0.2,0.1c-0.1-0.2-0.1-0.5-0.2-0.7
			C686.1,16.8,686.2,16.7,686.3,16.7z"/>
		<path fill="#FFFFFF" d="M825.2,53.2c0.2,0,0.3-0.1,0.5-0.1c0,0,0,0.1,0,0.1c-0.2,0-0.4,0.1-0.5,0.1
			C825.2,53.3,825.2,53.2,825.2,53.2z"/>
		<path fill="#FFFFFF" d="M641.8,33.6c-0.4-0.1-0.5-0.4-0.5-0.8C641.8,33,641.8,33.3,641.8,33.6L641.8,33.6z"/>
		<path fill="#FFFFFF" d="M628.9,62.5c0.2-0.1,0.3-0.1,0.5-0.2c0,0,0,0.1,0.1,0.1c-0.1,0-0.1,0.1-0.2,0.1c-0.1,0-0.2,0-0.3,0.1
			C628.9,62.6,628.9,62.5,628.9,62.5z"/>
		<path fill="#FFFFFF" d="M625.4,63.2c-0.2-0.2-0.5-0.4-0.7-0.6c0.1-0.1,0.1-0.1,0.2-0.2C625.2,62.6,625.3,62.9,625.4,63.2
			L625.4,63.2z"/>
		<path fill="#FFFFFF" d="M725.2,70.5c0-0.2,0.1-0.4,0.1-0.7c0,0,0.1,0,0.1,0c0,0.2,0,0.4-0.1,0.7C725.3,70.5,725.2,70.5,725.2,70.5
			z"/>
		<path fill="#FFFFFF" d="M827.9,52.7c-0.2,0.1-0.4,0.1-0.6,0.2c0,0,0-0.1,0-0.1c0.2-0.1,0.4-0.1,0.6-0.2
			C827.9,52.6,827.9,52.6,827.9,52.7z"/>
		<path fill="#FFFFFF" d="M829.2,35.3c0.4-0.1,0.7-0.2,1.1-0.3c0,0.1,0,0.2,0,0.3C830,35.3,829.6,35.3,829.2,35.3
			C829.2,35.3,829.2,35.3,829.2,35.3z"/>
		<path fill="#FFFFFF" d="M832.8,24.2c0.2,0,0.5,0,0.7,0c0,0,0,0.1,0,0.1C833.3,24.3,833,24.2,832.8,24.2
			C832.8,24.2,832.8,24.2,832.8,24.2z"/>
		<path fill="#FFFFFF" d="M742.3,33.6c-0.1-0.2-0.2-0.3-0.2-0.4c0-0.1,0.1-0.2,0.2-0.2c0.1,0.1,0.2,0.1,0.3,0.2
			C742.5,33.3,742.4,33.5,742.3,33.6z"/>
		<path fill="#FFFFFF" d="M743,34c-0.1-0.1-0.2-0.2-0.2-0.3c0-0.1,0.1-0.2,0.2-0.3c0.1,0.2,0.1,0.4,0.1,0.5
			C743.2,33.9,743.1,34,743,34z"/>
		<path fill="#FFFFFF" d="M490.7,73.4c-0.2,0.2-0.2,0.3-0.3,0.4c0-0.1,0-0.2,0-0.3C490.3,73.5,490.4,73.5,490.7,73.4z"/>
		<path fill="#FFFFFF" d="M515.7,37.8c-0.1,0.3-0.1,0.6-0.2,1C515.1,38.3,515.4,38.1,515.7,37.8z"/>
		<path fill="#FFFFFF" d="M748.5,44.3c-0.1-0.2-0.2-0.4-0.3-0.6c0,0,0.1-0.1,0.1-0.1c0.1,0.2,0.3,0.4,0.4,0.5
			C748.6,44.2,748.6,44.2,748.5,44.3z"/>
		<path fill="#CF0A2C" d="M429.5,37.4c-0.2,0-0.4,0-0.8,0.1C429.1,36.9,429.3,37.2,429.5,37.4C429.5,37.4,429.5,37.4,429.5,37.4z"/>
		<path fill="#FFFFFF" d="M499.8,64.4c0-0.1,0-0.3,0-0.4c0,0,0.1,0,0.2,0c0,0.2,0,0.3,0,0.5C500,64.4,499.9,64.4,499.8,64.4z"/>
		<path fill="#FFFFFF" d="M627.5,62.4c0.2,0,0.4,0,0.6,0.1c0,0,0,0.1,0,0.1c-0.2,0-0.4,0-0.6,0C627.4,62.4,627.4,62.4,627.5,62.4z"
			/>
		<path fill="#FFFFFF" d="M829,23.7c-0.3,0-0.5,0-0.9,0.1C828.6,23.4,828.6,23.4,829,23.7C829,23.7,829,23.7,829,23.7z"/>
		<path fill="#CF0A2C" d="M417.5,75.8c0,0.1,0,0.2,0,0.3c0,0.1-0.1,0.2-0.1,0.4c0,0,0-0.1,0-0.1c0-0.2,0-0.3,0-0.5
			C417.4,75.8,417.4,75.8,417.5,75.8z"/>
		<path fill="#FFFFFF" d="M490,78.8c-0.2-0.1-0.3-0.2-0.5-0.3c0-0.1,0.1-0.1,0.1-0.2c0.2,0.1,0.3,0.2,0.5,0.3
			C490.1,78.7,490.1,78.8,490,78.8z"/>
		<path fill="#FFFFFF" d="M824.1,32.7c0.2-0.1,0.3-0.1,0.5-0.2c0,0,0,0.1,0,0.1C824.5,32.7,824.3,32.7,824.1,32.7
			C824.1,32.8,824.1,32.7,824.1,32.7z"/>
		<path fill="#FFFFFF" d="M821.7,53.6c0.2,0,0.4,0,0.7,0.1c0,0,0,0.1,0,0.1c-0.2,0-0.4,0-0.7-0.1C821.7,53.6,821.7,53.6,821.7,53.6z
			"/>
		<path fill="#FFFFFF" d="M821.4,33.7c0.3-0.1,0.6-0.2,0.8-0.3C822,33.7,821.7,33.8,821.4,33.7C821.4,33.6,821.4,33.7,821.4,33.7z"
			/>
		<path fill="#FFFFFF" d="M764.1,33.9c0.1,0.1,0.3,0.3,0.4,0.4c0,0-0.1,0.1-0.1,0.1c-0.1-0.1-0.3-0.2-0.4-0.4
			C764,34,764,34,764.1,33.9z"/>
		<path fill="#FFFFFF" d="M487.7,30.8c0.1-0.1,0.1-0.3,0.2-0.4c0,0,0.1,0.1,0.1,0.1c-0.1,0.1-0.1,0.3-0.2,0.4
			C487.8,30.8,487.7,30.8,487.7,30.8z"/>
		<path fill="#FFFFFF" d="M784.9,18.3c0-0.2,0-0.4,0-0.6c0,0,0,0,0,0C784.9,17.9,784.9,18.1,784.9,18.3
			C784.9,18.3,784.9,18.3,784.9,18.3z"/>
		<path fill="#FFFFFF" d="M545.6,37.4c-0.1,0.1-0.3,0.3-0.4,0.4c0-0.1-0.1-0.1-0.1-0.2c0.2-0.1,0.3-0.2,0.5-0.4
			C545.6,37.3,545.6,37.3,545.6,37.4z"/>
		<path fill="#FFFFFF" d="M551.7,63.3c0-0.1-0.1-0.3-0.1-0.4c0.1,0,0.1,0,0.2,0c0,0.1,0.1,0.3,0.1,0.4
			C551.8,63.3,551.8,63.3,551.7,63.3z"/>
		<path fill="#FFFFFF" d="M463.3,52.8c0-0.2,0-0.5-0.1-0.7c0.1,0,0.1,0,0.2,0c0,0.2,0.1,0.5,0.1,0.7
			C463.5,52.8,463.4,52.8,463.3,52.8z"/>
		<path fill="#FFFFFF" d="M726.9,70.3c0-0.2,0-0.4,0-0.6c0,0,0.1,0,0.1,0c0,0.2,0,0.4,0,0.6C727,70.3,727,70.3,726.9,70.3z"/>
		<path fill="#FFFFFF" d="M600.3,42.3c0-0.1-0.1-0.3-0.1-0.4c0.1,0,0.2,0.1,0.3,0.2c0,0,0,0.1,0,0.2
			C600.4,42.2,600.3,42.2,600.3,42.3z"/>
		<path fill="#FFFFFF" d="M604.3,37.7c0-0.1-0.1-0.3-0.1-0.4c0,0,0.1,0,0.1,0C604.4,37.4,604.4,37.5,604.3,37.7
			C604.4,37.7,604.4,37.7,604.3,37.7z"/>
		<path fill="#FFFFFF" d="M754.2,59.4c0-0.2-0.1-0.4,0-0.5c0-0.1,0.1-0.1,0.2-0.1c0,0.1,0.1,0.2,0.1,0.3
			C754.4,59.1,754.3,59.2,754.2,59.4z"/>
		<path fill="#FFFFFF" d="M718.7,35.5c0-0.2,0-0.5,0-0.7c0.1,0,0.1,0,0.2,0c0,0.2,0,0.5,0,0.7C718.8,35.5,718.7,35.5,718.7,35.5z"/>
		<path fill="#CF0A2C" d="M427.8,51.6c0.1-0.4-1-0.6-0.3-1.2C427.6,50.9,427.7,51.2,427.8,51.6z"/>
		<path fill="#FFFFFF" d="M683.6,41.4c0,0.2-0.1,0.3-0.1,0.5c-0.1,0-0.1,0-0.2,0c0-0.2,0-0.3,0-0.5
			C683.4,41.3,683.5,41.3,683.6,41.4z"/>
	</g>
</g>
</svg>
