<?xml version="1.0" encoding="utf-8"?>
<!-- Generator: Adobe Illustrator 18.1.1, SVG Export Plug-In . SVG Version: 6.00 Build 0)  -->
<!DOCTYPE svg PUBLIC "-//W3C//DTD SVG 1.1//EN" "http://www.w3.org/Graphics/SVG/1.1/DTD/svg11.dtd">
<svg version="1.1" id="Layer_1" xmlns="http://www.w3.org/2000/svg" xmlns:xlink="http://www.w3.org/1999/xlink" x="0px" y="0px"
	 width="529.6px" height="60px" viewBox="312.5 367 529.6 60" enable-background="new 312.5 367 529.6 60" xml:space="preserve">
<g>
	<g>
		<g>
			<defs>
				<rect id="SVGID_1_" x="312.5" y="367" width="231.6" height="60"/>
			</defs>
			<clipPath id="SVGID_2_">
				<use xlink:href="#SVGID_1_"  overflow="visible"/>
			</clipPath>
			<g clip-path="url(#SVGID_2_)">
				<path fill="#FFFFFF" d="M548.6,333.5L548.6,333.5c-0.9-0.5-2-0.9-3.1-0.9c-3.7,0.4-4.4,2.2-4.8,2.3c-0.1,0.2-1,1.3-2.5,3.2
					c-4.6,5.8-15.5,18-23.9,21.5c-0.2,0.1-4.2,1.2-9.1,1.9c-5,0.7-11.4,1.3-17.9,1.3c-2,0-4.1-0.1-6.1-0.2
					c-4.4-3.7-10.6-5.3-17.8-5.3c-3.7,0-7.7,0.4-12,1.4c-1.6,0.4-3.5,0.5-5.6,0.5c-7.4,0.1-16.8-2.3-25.3-3
					c-1.6-0.1-3.2-0.2-4.7-0.2c-6.4,0-11.7,1.3-15.9,3.6c-3.3,0.4-6.8,0.5-10.4,0.5c-7.9,0-15.8-0.8-22.2-1.9
					c-3.2-0.5-5.9-1.1-8-1.6c-2-0.5-3.7-1-3.7-1.1c-6.2-2.8-13.7-9.7-19.3-15.8c-2.8-3.1-5.2-6-6.9-8.1s-2.6-3.4-2.6-3.4
					c-0.4-0.2-1.2-2.3-5-2.6c-0.8,0-1.9,0.2-2.8,0.7c-2.5,1.4-3.2,4.1-3.1,5.3c0,1.6,0.4,2.3,0.5,2.6c0,0.1,3,8,7.6,17.2
					c4.7,9.2,10.6,19.8,17.9,25.7c3.7,2.8,11,6.5,20.3,10c-2.1,0.8-4.3,1.5-6.4,2c-2.6,0.7-5,1.1-6.8,1.3c-1.7,0.2-2.8,0.3-2.8,0.3
					l-5,0.4l0.8,5c0.1,0.3,0.7,4.3,3,9.6c-18.6,9.8-31.3,18.7-31.4,18.8l-8.9,6.3l10.7,2.2c0,0,1.6,0.4,4.3,1
					c8.1,2.2,26,7.9,37.4,17.4c19,15.7,23.9,27.5,33.4,41.4c16.9,25,43.1,33.5,43.1,33.5l-0.6-8.3c-0.1-2-0.2-3.9-0.2-5.7
					c0.1-14.9,4.4-22.4,8.3-26.4c2-2,3.9-3.2,5.3-3.9c0.7-0.4,1.3-0.5,1.6-0.7c0.1,0,0.1-0.1,0.2-0.1c1-0.1,2.1-0.1,3.3-0.1
					c1.5,0,3.1,0.1,4.8,0.3c0.8,0.1,1.7,0.1,2.5,0.1c7.5,0.1,13.8-4.5,15.8-11c5.5-7,7.5-13,7.5-17.8c0-4-1.4-6.8-2.5-8.4
					c-0.1-0.7-0.2-1.9-0.2-3.1c0-1.3,0.1-2.5,0.5-3.6c0.5-2.2,4-6.5,7.4-12.7c2.3,0.6,4.9,1,7.9,1.1c0.4,0,0.7,0,1,0
					c10.7,0,18.5-5.6,23.3-10.9c4.9-5.3,7.1-10.3,7.3-10.6l2.9-6.6l-7.2-0.1c-7.7-0.1-14.2-2.9-19.3-6.6c4.1-1.3,8-2.6,11.4-4
					c5.8-2.3,10.1-4.6,12.8-6.6c6.8-5.3,12.4-15.1,16.7-23.6c4.3-8.5,7.1-15.9,7.1-16c0.1-0.4,0.4-1.1,0.5-2.6
					C551.4,337.4,550.9,335,548.6,333.5z"/>
				<g>
					<path d="M546,337.2c-0.8-0.5-1.6,0.4-1.6,0.4s-14.9,20.3-28.3,26.2c-3.1,1.4-20.9,4.5-37,3.2c-4.3-4.8-14-6.7-26.7-4
						c-9.5,2-22.1-1.6-32.3-2.4c-8.6-0.8-14.5,0.6-18.7,3.2c-19.3,2.6-44.1-2.4-47.9-4.2c-14.6-6.7-30.7-28.9-30.7-28.9
						s-0.7-1-1.7-0.5c-1,0.5-0.5,2.1-0.5,2.1s11.7,31.2,24.1,40.9c3.8,3,15.2,8.5,28.6,12.5c-8.3,8.1-26.8,9.6-26.8,9.6
						s0.9,5.9,4.6,12.4c-20.6,10.3-35,20.5-35,20.5s47.3,7.7,73.4,55.3c-1.8-9.4-0.5-15.5-0.5-15.5c7,28.3,22,42.2,39,50.2
						c-2.6-37.2,19.2-41.8,19.2-41.8c2.6-0.2,5.9-0.3,9.5,0.1c7,0.8,12.1-2.9,13.4-8.3c12.2-15,4.9-22,4.9-22s-1.4-5.3,0.1-10.2
						c1.3-4.3,6-9.4,9.5-17.2c2.5,1.1,5.9,2,10.4,2.2c18.4,0.6,27.1-18.7,27.1-18.7c-13.1-0.1-22.9-7.1-29.2-13.6
						c14.3-3.2,27.2-9,31.2-12.1c11.3-8.7,22.5-37.6,22.5-37.6S546.9,337.8,546,337.2z"/>
					<path fill="#CF0A2C" d="M466.1,395.6c0.5-1.7,1.4-2.6,1.4-2.6c3.4-4.1,9.7-0.1,9.7-0.1c-1.8-5.3-6.8-6.7-10.9-6.8
						c2.1-1.7,4.6-5,3.1-10c-1.2-4.1-4.7-6.6-11.3-5.7c0,0-8.8,1.8-19,0.5c-7.6-1-20.6-6.9-32-0.2c2.8,3.5-0.1,9.5-0.3,10
						c-10.3,21.7-36.1,21.1-36.1,21.1c7.1-3.2,11.7-7.5,14.5-11c-6,4-14.8,7.9-27,9c0,0,2,15.9,22,16.3c5.3,0.1,9.2-0.8,12.1-2.2
						c1.1-5.8,3.4-9.4,3.4-9.4s-0.5,19.9,21.1,34.1c0.5-7.3,3.7-11.2,3.7-11.2s-0.7,8.8,1.9,16.4c2.6,7.6,2.3,12.6,2.9,16.5
						c1.1,6.9,7.4,7.7,10.1,5.1c0,0-4.6-13.4,0.7-18c5.2-4.6,12.9-0.4,12.9-0.4s5.9,2.8,10.4,1.2c5.3-1.9,8.6-0.8,8.6-0.8
						s-3.9-6.6-4.5-12.5c-0.7-7.4,1.1-9.9-0.4-16.6c-3.5,2.2-6.8,2.3-6.8,2.3C463.9,414.6,463.9,402.9,466.1,395.6z M424,411.3
						c-1.4,0.5-2.6-0.5-2.6-0.6c-0.2-0.2-2.5-2.3-1-4.8c0.8,0.7,2,1.6,2,1.6c-0.2-0.5-1.5-3.8-1.8-4.5c-1-0.2-2,0-2.6,0.6
						c-1.4,1.3-1.1,4.3,1,6.2c-1.8-0.4-3.6-1.4-5.1-3.1c-3-3.4-3.4-8-0.8-10.3c1-1,2.4-1.3,3.8-1.3c-2.9-3.9-6.8-3.8-6.8-3.8
						s9.4-5.9,14.2,5.4c3,7.1,6.2,19.2,16,23.1C440.2,420,429.7,422.6,424,411.3z"/>
					<path fill="#CF0A2C" d="M390.1,431.3c0.7,29.1,12.2,53,24.7,62.5c4-31.1-13.9-33.6-20.6-71.3c-11.3,5.7-23.5,8.1-35.5,7.3
						c8.6,5.5,17.3,13,24.9,23C385.7,439.7,390.1,431.3,390.1,431.3z"/>
					<g>
						<path fill="#FFFFFF" d="M400.8,370.8c-15.7,0.3-42-0.4-52.4-7.6c0,0,10.4,13.4,52.6,15.7C403.6,377.6,403.9,372.5,400.8,370.8
							z"/>
						<g>
							<path fill="#FFFFFF" d="M443.7,451.5c-1.6,0.5-2.6,2.2-2.2,4c0.4,1.9,2.2,3.1,4,2.8c0.2-0.1,0.5-0.1,0.7-0.2
								c1.9-0.5,3.5,0.2,4.6,0.8L443.7,451.5z"/>
							<path fill="#FFFFFF" d="M469,453.2l-7.1,5.9c0.8-0.4,2.6-1.3,4.4-0.7c0.2,0.1,0.4,0.2,0.6,0.3c1.5,0.5,3.1-0.5,3.5-2
								C470.8,455.3,470.2,453.8,469,453.2z"/>
						</g>
						<path fill="#FFFFFF" d="M421.3,410.7c-0.2-0.2-2.5-2.3-1-4.8c0.8,0.7,2,1.6,2,1.6c-0.2-0.5-1.5-3.8-1.8-4.5
							c-1-0.2-2,0-2.6,0.6c-1.4,1.3-1.1,4.3,1,6.2l0,0c1.3,1.1,2.9,1.7,4.3,1.6C422.2,411.5,421.4,410.7,421.3,410.7z"/>
					</g>
				</g>
			</g>
		</g>
	</g>
	<g>
		<path fill="#FFFFFF" d="M810.1,388.2c0,0.1,0.1,0.2,0.1,0.3c0.6-0.1,1.1-0.4,1.7-0.1c-0.4,0.1-0.7,0.2-1,0.3s-0.8,0.1-0.8,0.7
			c0.4-0.1,0.8-0.3,1.2-0.1c0.1,0.5-0.4,0.4-0.7,0.4c0.3,0.4,0.3,0.7-0.1,0.8c-1.2,0.6-2.5,1.1-3.7,1.7c-0.9,0.4-1.9,0.7-2.9,1
			c-0.1,1.7-0.2,3.4-0.2,5c0.1,0,0.3,0.1,0.4,0.1c1.1-0.1,2.2-0.2,3.2-0.5c0.4-0.1,0.6,0,1,0c0.3,0,0.6-0.1,1-0.1
			c-0.7,0.5-3.1,1-5.6,1.2c-0.1,0.4-0.1,0.4,0.4,0.4l0,0c-0.2,0.2-0.7,0.1-0.6,0.5c-0.2-0.2-0.3-0.3-0.4-0.4
			c0.1-0.1,0.2-0.2,0.4-0.5c-0.4,0-0.6,0-0.8,0.1c-0.1,0.3-0.1,0.5-0.1,0.7c0,0.2,0,0.4,0,0.7c0.8-0.1,1.5-0.1,2.2-0.2
			c0.7-0.1,1.4-0.4,2.2-0.4c0.7-0.1,1.4-0.1,2-0.2c0.1,0,0.2,0,0.4,0.1c-0.1,0.1-0.2,0.2-0.2,0.2c1,0,1.9,0,2.9,0
			c0.1-0.5,0.2-1.1,0.3-1.6c-0.4-0.3-0.8,0.1-1.3-0.1c0.4-0.1,0.7-0.2,0.9-0.2c0.3,0,0.5-0.1,0.5-0.4c0-0.4,0.1-0.7,0.1-1.1
			c-0.6,0.1-1.1,0.1-1.7,0.2c-0.4,0.1-0.8,0.1-1.2,0.2c-0.4,0.1-0.8,0.2-1.2,0.2c-0.4,0.1-0.8,0.1-1.1,0.2c-0.1,0-0.1-0.1-0.3-0.2
			c1.9-0.4,3.7-0.8,5.6-0.8c0-0.1,0.1-0.2,0.1-0.4c0.3-1.6,0.7-3.2,1-4.9c0.2-1.2,0.5-2.4,0.8-3.7c0-0.1,0-0.3,0.1-0.3
			c0.5-0.2,0.3-0.5,0.3-0.8c0-0.4,0.1-0.7,0.2-1c0.1,0,0.2,0,0.4-0.1c0-0.3,0.2-0.5,0.1-0.8c-0.1-0.1,0.1-0.3,0.1-0.4
			c0.2-0.3,0.3-0.6,0.2-1c-0.1-0.1,0-0.2,0-0.4c0.1-0.5,0.2-1.1,0-1.6c-0.1-0.4-0.1-0.8-0.1-1.3c0.1,0,0.2-0.1,0.4-0.1
			c-0.1-0.2-0.2-0.4-0.2-0.5l0.1-0.1c0.4,0-0.1-0.4,0.2-0.4c0.3-0.1,0.1-0.3,0.1-0.4c0-0.2,0-0.4,0.1-0.5c0.1-0.4,0.2-0.4,0.1-0.8
			c0.5,0,0.3,0.4,0.5,0.7c0.6-0.2,0.5-0.8,0.8-1.4c0.4,0.7-0.1,1.4,0.3,2.1c0.1-0.1,0.2-0.2,0.2-0.2c0-0.2-0.1-0.4,0.2-0.3
			c0-0.1,0-0.2,0.1-0.3c0-0.1,0.2,0.1,0.2,0c0.1-0.1,0.2-0.2,0.2-0.3c0.1-0.2,0-0.5,0-0.8s0-0.4-0.1-0.7c0.2,0.1,0.4,0.2,0.6,0.4
			c-0.2,1-0.2,2.1,0.2,3.1c0.1,0,0.1,0,0.1,0c0-0.3,0-0.6-0.1-1c0.3,0.7,0.2,1.4,0.4,2c0.4-0.1,0.4-0.4,0.5-0.6h0.1v0.1
			c0,0.1,0,0.1,0.1,0.1c0.1-0.3,0.1-0.6,0.2-0.9c0.2,0.2,0.2,0.4,0.2,0.6c0,0.6,0,1.3-0.1,1.9c0,0.4,0.1,0.5,0.3,0.8
			c0.8,0.8,1.6,1.6,2.2,2.5c0.5,0.7,1,1.5,1.6,2.2c0.2,0.2,0.5,0.5,0.7,0.7c0.2,0.2,0.5,0.5,0.8,0.8c0.2,0,0.4-0.1,0.5-0.4
			c0.1-0.1,0.2-0.2,0.3-0.3c0.4-0.4,0.8-0.7,1.1-1.1c0.2-0.2,0.3-0.2,0.4-0.2c0.2-0.4,0.3-0.7,0.5-1.1c0.1,0,0.1,0,0.1,0
			c0,0.1,0,0.2,0,0.3c0,0,0.1,0,0.1,0.1c0.1-0.1,0.1-0.3,0.2-0.4c0.1-0.1,0.3-0.2,0.4-0.2c-0.1-0.1-0.2-0.1-0.2-0.2
			c0.4-0.7,1.1-1.2,1.1-2c0.1,0.1,0.1,0.1,0.3,0.3c0-0.2,0.1-0.3,0-0.4c-0.2-1.4-0.4-2.8-0.6-4.1c-0.1-0.3,0-0.5,0.4-0.6
			c-0.1-0.3-0.3-0.5,0.2-0.7c0.1,0.2,0.2,0.3,0.2,0.5c0.1,0.2,0.1,0.4,0.2,0.5c0.1,0.1,0.1,0.3,0.1,0.3c0.2,0.1,0.2,0,0.3-0.2
			c0,0,0.2,0,0.2-0.1c-0.1-0.8-0.1-1.6-0.2-2.3l0,0c0.3,0.1,0.4,0.4,0.4,0.7c0.1,0.5,0.2,1.1,0.5,1.6c0.2-0.2,0.2-0.4,0.1-0.5
			c-0.1-0.4-0.1-0.4,0.2-0.9c0.1,0.1,0.1,0.2,0.2,0.3c0.3-0.4,0-0.7-0.1-1.1l0,0c0.1-0.1,0.2-0.1,0.2-0.1c-0.1-0.4-0.2-0.8-0.2-1.1
			c-0.1-0.2-0.2-0.5,0.3-0.5c0.1,0.4,0.1,0.8,0.2,1.2c0.1,0.4,0.1,0.8,0.2,1.1c0.1,0.5,0.2,0.9,0.4,1.4v0.1c0.7,0.5,0.6,1.3,1,1.9
			c0,0,0.1,0,0.1,0c0-0.9-0.1-1.8-0.5-2.6c0.1-0.1,0.2-0.1,0.2-0.2c0.1-0.1,0.1-0.1,0.1-0.2c0.1,0.1,0.1,0.1,0.1,0.1
			c0.1,0.5,0.2,1,0.3,1.6c0.2,1.3,0.4,2.5,0.7,3.8c0,0.1,0.1,0.2,0.1,0.3c0.1,0.4,0.3,0.7,0.4,1c0,0.1,0,0.1,0,0.1
			c-0.4,0.3-0.2,0.7-0.1,1c0.1,0.6,0.3,1.2,0.5,1.8c0.1,0.5,0.2,1,0.4,1.5c0.4,1.2,0.8,2.4,1.1,3.6c0.2,0.8,0.6,1.6,0.8,2.3
			c0.4,1.6,0.8,3.1,1.3,4.7c0.4,1.4,0.7,2.8,0.9,4.2c0,0.1,0,0.2-0.1,0.4c-0.1-0.5-0.2-1-0.4-1.6c-0.4-1.6-0.7-3.2-1.2-4.8
			c-0.4-1.1-0.7-2.2-1-3.4c-0.2-0.6-0.4-1.2-0.6-1.7c-0.2-0.7-0.5-1.3-0.7-2c-0.4-1.4-0.8-2.9-1.1-4.4c-0.1-0.4-0.1-0.8-0.2-1.1
			c-0.2,0.3-0.2,0.5-0.2,0.9c0.4,2.3,0.9,4.5,1.7,6.7c0.2,0.7,0.5,1.4,0.8,2.1c0,0.1,0.1,0.1,0.1,0.2c-0.2,1.1,0.5,2,0.7,3.1
			c0.1,0.9,0.5,1.7,0.8,2.5c0.2,0.6,0.4,1.3,0.4,1.9c0.1,0.8,0.2,1.7,0.3,2.6c0,0.3,0.1,0.6-0.3,1c-0.1-0.5-0.1-0.9-0.2-1.3
			c-0.1-0.4-0.2-0.8-0.3-1.1c-0.1,0-0.1,0-0.2,0c0.1,0.2,0.1,0.4,0.1,0.6c0.1,0.8,0.3,1.5,0.2,2.3c-0.1,0.4-0.2,0.6-0.5,0.7
			s-0.5-0.1-0.7-0.4c0,0-0.1-0.1-0.1-0.1c-0.1,0.2-0.1,0.4-0.2,0.6c-0.3-0.3-0.5-0.6-1-0.5c-0.1,0-0.2-0.2-0.2-0.3
			c-0.1-0.4-0.2-0.7-0.4-1.3c-0.1,0.2-0.1,0.4-0.2,0.5l-0.1-0.1c-0.1-0.4-0.2-0.7-0.4-1.1c-0.2-0.8-0.4-1.6-0.6-2.3
			c-0.1-0.4-0.3-0.8-0.4-1.2c-0.1-0.4-0.1-0.7-0.2-1.1c-0.2-0.8-0.4-1.6-0.8-2.3c-0.4-0.8-0.5-1.6-0.8-2.5c-0.4-1.3-0.7-2.5-1.1-3.7
			c0-0.1-0.1-0.1-0.1-0.1c-0.3,0.3-0.5,0.6-0.8,0.9c-1,1.2-2.2,2.2-3.3,3.1c-0.1,0.1-0.2,0.2-0.3,0.3s-0.2,0.1-0.2,0.1
			c-0.1,0-0.1,0.2-0.2,0.4c0,0.1,0.1,0.2,0.1,0.2s0,0.1-0.1,0.2c-0.1-0.1-0.2-0.2-0.4-0.2c-0.1,0.2-0.1,0.3-0.2,0.5
			c-0.4,0-0.8-0.1-1.1,0.4c-0.4-0.4-1-0.7-1.1-1.3c-0.1-0.1-0.2-0.2-0.3-0.3c-0.2-0.2-0.6-0.4-0.5-0.8c0-0.1-0.1-0.2-0.2-0.2
			c-0.5-0.5-1-1-1.4-1.6c-0.8-1.1-1.8-2.2-2.7-3.2c-0.2-0.2-0.5-0.5-0.7-0.8c-0.4,0.7-0.5,1.5-0.7,2.2c-0.1,0.4-0.2,0.7-0.4,1.1
			c-0.2,0.7-0.3,1.4-0.4,2c-0.1,0.3-0.1,0.6-0.2,0.8c-0.4,2.2-0.8,4.3-1.1,6.4c-0.1,0.9-0.3,1.8-0.2,2.8c0,0.2-0.1,0.4-0.2,0.7
			c-0.4-1.5,0-2.8,0-4.1c-0.1,0.8-0.2,1.6-0.4,2.5c0,0.2-0.1,0.4-0.1,0.5c-0.1,0.3-0.2,0.7-0.1,0.9c0.2,0.5-0.2,0.9-0.2,1.4
			c-0.4,0.1-0.4,0.7-0.9,0.7c-0.1,0-0.2,0.1-0.4,0.2c-0.2,0.1-0.4,0.2-0.7,0.1c-0.1-0.1-0.2,0.1-0.4,0.1c-0.2-0.2-0.4-0.6-0.7-0.8
			c-0.4-0.4-0.4-0.7-0.4-1.2c0-0.2,0.1-0.5-0.2-0.8c0,0.3-0.1,0.5-0.1,0.8c-0.4-0.8-0.5-1.6-0.4-2.4c-0.4,1-1.3,0.8-2,1.1
			c-1.2,0.4-2.5,0.5-3.7,0.8c-0.5,0.1-1,0.1-1.5,0.1c-1.1,0.1-2.2,0.1-3.4,0.1c-0.3,0-0.7,0.1-1,0.2c-0.4-0.5-0.8-1-1.1-1.5
			c-0.4-0.5-1-0.7-1.5-1.4c0.4,0.1,0.7,0.1,1,0.1c0-0.1,0-0.1,0.1-0.1c-0.2-0.1-0.4-0.1-0.5-0.2c-0.7-0.3-0.7-0.6-0.2-1.1
			c0.1-0.1,0.1-0.1,0.2-0.2c0.1,0.1,0.2,0.2,0.3,0.4c0.1-0.2,0.4-0.3,0.1-0.6c-0.1-0.1,0-0.2,0-0.4c-0.1-0.4-0.1-0.8-0.2-1.2
			c0-0.1-0.1-0.2,0-0.2c0.2-0.3,0.2-0.7,0.2-1c0.1-0.6,0.1-1.3,0.1-1.9c0-0.2,0-0.5-0.1-0.7c-0.8-0.4-1.4-0.9-1.9-1.8
			c0.2-0.2,0.4-0.3,0.6-0.5c-0.2-0.2-0.4-0.4-0.7-0.5c0.1-0.2,0.2-0.4,0.3-0.5c-0.1,0-0.3,0-0.5-0.1c0.1-0.2,0.3-0.4,0.5-0.6
			c0.2,0.4,0.5,0.4,0.8,0.2c0.4-0.2,0.7-0.1,1,0.3c0-0.6,0.1-1,0.1-1.5c-0.7,0.1-1.4-0.1-2.2-0.3c0.2-0.1,0.4-0.1,0.7-0.2
			c0.4,0.2,0.8,0.2,1.5-0.2c0-0.7,0-1.3,0.1-2c0-0.1,0-0.2-0.1-0.2c-0.4-0.2-0.2-0.5-0.2-0.9c-0.7,0-1.2-0.3-1.3-1.1
			c0-0.2,0-0.2,0.2-0.4c0.2,0.2,0.2,0.7,0.7,0.4c-0.3-0.3-0.5-0.6-0.8-0.9c0.3-0.1,0.6-0.1,0.8-0.2c-0.4-0.2-0.8-0.1-1.1-0.4
			c0.5,0,1-0.1,1.6-0.1c-0.1-0.4-0.1-0.6-0.2-0.8c-0.4-0.1-0.7-0.1-0.8-0.2c-0.1-0.1-0.1-0.4-0.2-0.6c0.5-0.1,0.8-0.4,1.1-0.7
			c0.3-0.3,0.7-0.5,1-0.8c0.1,0.1,0.2,0.2,0.3,0.4c0.3-0.3,0.1-0.6,0.1-0.8c0-0.3-0.1-0.5-0.2-0.9c0.1-0.1,0.2-0.2,0.3-0.5
			c0.1,0.7,0.2,1.3,0.4,1.9c0.5,0.2,0.9-0.2,1.4-0.2c0-0.8-0.4-1.7,0-2.5c0.1,0.8,0.2,1.6,0.2,2.4c0.2-0.1,0.4-0.1,0.6-0.2
			c0.8-0.5,1.8-0.5,2.7-0.7c0.8-0.1,1.6-0.2,2.5-0.2c-0.2,0.1-0.3,0.1-0.5,0.1c0.4,0.2,0.8,0.2,1.1,0.5c-1.7,0.2-3.3,0.3-5,0.5
			c0.1,0.2,0.1,0.5,0.2,0.8c0.6-0.1,1.3-0.2,2-0.4c-0.3,0.4-0.7,0.3-1,0.4c-0.3,0.1-0.6,0.2-1,0.2c0.1,0.4,0.1,0.7,0.1,1
			c1.5-0.1,2.9-0.2,4.4-0.3c-0.1,0.1-0.1,0.2-0.2,0.4c0.3,0,0.6-0.1,0.8,0s0.4,0.3,0.7,0.5c0.1-0.1,0.1-0.3,0.2-0.4
			c0.5-0.1,1.1-0.1,1.7-0.2c0,0.1,0,0.1,0,0.1c-0.2,0-0.3,0.1-0.5,0.1c0.1,0.2,0.2,0.4,0.2,0.5c-0.2,0.1-0.4,0.2-0.7,0.3
			c0.4,0.4,0.9,0.1,1.3,0.4c-0.4,0-0.7,0-1.1,0c0.3,0.5,1.1,0.1,1.1,0.7c-0.7,0.3-1.3,0.5-2,0.8c0.3,0.4,0.8,0.1,1,0.5
			c-0.4,0.1-0.8,0.1-1.1,0.2c-1.4,0.1-2.7,0.7-4,1.1c-0.4,0.1-0.8,0.2-1.2,0.4c-0.2,0.1-0.4,0.3-0.5,0.4c-0.1,0.1,0,0.2,0.1,0.3
			c0.1,0.1,0.2,0.1,0.3,0.1c0.4-0.1,0.7-0.2,1-0.3l0,0c-0.2,0.4-0.5,0.4-0.8,0.5c-0.2,0.1-0.5,0.2-0.5,0.5c0,0.3,0,0.6,0.4,0.7
			c-0.1,0.1-0.2,0.2-0.3,0.4c0,0.1,0.1,0.1,0.1,0.1c0.7-0.2,1.4-0.5,2.1-0.7c0-0.1,0-0.1,0-0.1c-0.4,0.1-0.7,0.1-1,0.1l0,0
			c0.5-0.3,1-0.7,1.6-1c0.1-0.1,0.2,0,0.4,0c0.1,0.1,0.1,0.2,0.1,0.4c-0.2,0.1-0.4,0.2-0.5,0.2c0,0.1,0,0.1,0,0.1
			c0.1,0,0.3,0.1,0.4,0.1c0,0.1,0.1,0.2,0.1,0.3c0.2-0.1,0.4-0.1,0.6-0.2c0.2,0.4,0.5,0.3,0.9,0.2
			C809.2,388.5,809.6,388.4,810.1,388.2L810.1,388.2z M801.2,380.4c0.1-0.1,0.2-0.1,0.5-0.2c-0.9-0.1-0.9-0.1-1.1,0.1
			C800.7,380.6,800.9,380.4,801.2,380.4c-0.2,0.1-0.4,0.2-0.5,0.2C800.9,380.7,801.2,380.8,801.2,380.4z M822,383.1
			c0.4,0.9,1.3,1.5,1.9,2.2c-0.2-0.4-0.4-0.7-0.7-1C822.8,383.9,822.4,383.6,822,383.1c0-0.4-0.2-0.5-0.5-0.6
			C821.6,382.7,821.8,382.9,822,383.1z M803.3,397.4c0-1.3,0.2-2.6-0.1-3.8c-0.5,0.1-0.5,0.1-0.5,0.5c0,0.6,0,1.3-0.1,1.9
			c0,0.5,0,0.9,0,1.4c0,0.1,0.1,0.1,0.1,0.2C802.9,397.5,803.1,397.4,803.3,397.4z M806.8,385.4c0-0.1,0-0.1-0.1-0.1
			c-0.7,0.1-1.4,0.2-2,0.3c-0.6,0.1-0.6,0.2-0.5,0.8C805.1,386.1,805.9,385.8,806.8,385.4z M803.4,380.4c-0.1-0.3-0.1-0.5-0.2-0.7
			c-0.4,0-0.7,0.1-0.9,0.1c-0.1,0.3-0.1,0.5-0.2,0.8C802.6,380.5,802.9,380.5,803.4,380.4z M802.6,381.8c0.4-0.1,0.7-0.1,1.1-0.2
			c-0.1-0.4-0.4-0.5-0.2-1c-0.4,0.1-0.7,0.2-1,0.2C802.6,381.2,802.6,381.5,802.6,381.8z M802.7,386.2c0.2,0.2,0.4,0.4,0.5,0.6
			c0.5-0.2,0.5-0.2,0.4-1C803.3,385.9,803,386,802.7,386.2z M803.5,388.1c-0.7,0.2-0.7,0.4-0.4,1
			C803.4,388.8,803.9,388.7,803.5,388.1z M803,387.9c0.2-0.1,0.4-0.2,0.5-0.3c0-0.2,0-0.4,0-0.6c-0.5-0.1-0.5,0.3-0.8,0.5
			C802.9,387.6,803,387.8,803,387.9z M802.6,398.4c0.2,0,0.4,0,0.6-0.1c0-0.2,0-0.4,0-0.7c-0.2,0.1-0.4,0.1-0.6,0.1
			C802.7,398,802.7,398.1,802.6,398.4z M799.1,382.6c0.2-0.4,0.2-0.7,0-0.9c-0.1-0.1-0.2,0-0.4,0C798.8,382.1,799,382.3,799.1,382.6
			z M802.1,381c-0.1,0.4-0.1,0.6,0.2,0.9C802.3,381.3,802.3,381.3,802.1,381z M822.2,383.9c-0.1,0.1-0.1,0.1-0.1,0.1
			c0.2,0.4,0.5,0.7,0.8,0.9c0.1-0.1,0.1-0.1,0.1-0.1C822.7,384.5,822.5,384.2,822.2,383.9z M823.4,385.2c-0.1,0.1-0.1,0.1-0.1,0.1
			c0.2,0.2,0.5,0.5,0.7,0.8c0.1-0.1,0.1-0.1,0.1-0.1C823.9,385.8,823.6,385.5,823.4,385.2z M821.2,382.6c0,0.5,0.2,0.7,0.5,1
			c0.1,0,0.1-0.1,0.1-0.1C821.6,383.2,821.5,382.9,821.2,382.6z M817.1,398C817.1,398,817.1,398,817.1,398c0.1-0.2,0.1-0.5,0.1-0.8
			h-0.1C817.1,397.5,817.1,397.7,817.1,398z M825,386.7c0.1-0.4-0.1-0.5-0.4-0.5C824.7,386.4,824.9,386.6,825,386.7z M803.5,389.5
			c0-0.1,0-0.1,0-0.1c-0.1,0-0.2,0-0.4,0.1c0,0-0.1,0.1-0.1,0.2C803.2,389.6,803.4,389.6,803.5,389.5z M834.4,377.6
			c-0.1,0.2-0.2,0.4,0.2,0.5C834.4,377.9,834.4,377.8,834.4,377.6z M817,398.8C817,398.8,816.9,398.8,817,398.8
			c-0.1,0.2-0.1,0.4-0.1,0.5l0,0C816.9,399.2,816.9,399,817,398.8z M800.9,381.1c-0.1,0-0.1,0-0.2,0c0,0.1,0.1,0.2,0.1,0.4
			c0.1,0,0.1,0,0.1,0C800.9,381.4,800.9,381.2,800.9,381.1z M820.9,380.1L820.9,380.1c0.1-0.1,0.1-0.2,0.1-0.2l0,0
			C820.9,379.9,820.9,380,820.9,380.1z M818.6,378.3L818.6,378.3c0.1-0.1,0.1-0.3,0.1-0.4c-0.1,0-0.1,0-0.1,0
			C818.6,378,818.6,378.1,818.6,378.3z"/>
		<path fill="#CF0A2C" d="M558.7,405.4c0.4-0.2,0.2-0.5,0.2-0.7c-0.8-0.2-0.8-0.4-0.5-0.7c0,0.1,0,0.2,0.1,0.4
			c0.2-0.1,0.3-0.2,0.4-0.2c-0.1-0.3-0.2-0.4-0.5-0.5c-0.6-0.1-1.1-0.2-1.7-0.2c-0.5-0.1-1.1-0.2-1.5-0.7c0.4-0.2,0.8,0.2,1.1-0.2
			c-0.2-0.1-0.3-0.2-0.5-0.2c0.4-0.1,0.7-0.1,1-0.1c0.1-0.3-0.1-0.4-0.2-0.4c-0.5-0.1-1-0.2-1.4-0.3c-0.3-0.1-0.6-0.2-0.9-0.4
			c-0.5-0.1-1-0.2-1.6-0.4c0.2,0,0.4,0,0.5,0c0.1,0,0.3-0.1,0.4-0.2c0.1-0.5,0.5-0.5,0.8-0.5c0.5,0,1,0.1,1.6,0.1
			c0.3,0,0.5,0,0.6-0.4c0.5,0,1,0,1.5,0c0.1-0.2,0.1-0.5,0.1-0.8c0.1-0.1,0.3-0.1,0.5-0.2c0,0,0-0.1,0-0.1c0.1-0.2,0.1-0.4,0.2-0.7
			c0.2-0.5,0.1-0.7-0.5-0.7c-1.2,0-2.4,0.1-3.6,0.1c-1,0-1.9-0.1-2.8-0.2c-0.4-0.1-0.8-0.3-1.2-0.4c-0.3-0.1-0.6-0.2-0.9-0.4
			c-0.2-0.2-0.5-0.4-0.8-0.5c-0.2,0-0.4-0.3-0.6-0.5c0.1-0.4,0.5-0.2,0.7-0.3c0.1-0.1,0.1-0.1,0.1-0.1c0-0.1-0.7-0.7-0.7-0.8
			s-0.1-0.2-0.2-0.4c-0.3-0.1-0.7-0.2-1.1-0.4c0.4-0.2,0.5-0.4,0.8-0.4c0.7,0.1,0.8,0,1-0.5c0.3-0.1,0.5-0.2,0.8-0.3
			c0.2-0.1,0.3-0.1,0.5-0.1c1.6,0,3.1,0,4.7-0.1c1.4-0.1,2.7-0.2,4.1-0.2c0.3,0,0.5-0.4,0.8-0.2c0,0,0.1-0.2,0.1-0.2
			c0.1-0.4,0.2-0.8,0.2-1.2c0-0.1-0.1-0.2-0.2-0.4c0.6-0.5,0.7-1.3,0.8-2c0.2-0.8,0.4-1.7,0.7-2.5c0.1-0.2,0.3-0.2,0.4-0.3
			c0.1-0.2,0.2-0.5,0.4-0.8c0.2-0.4,0.4-0.8,0.6-1.1c-0.1,0.6-0.5,1.1,0.1,1.8c0.2-0.2,0.3-0.4,0.5-0.6c0,0,0.1,0.1,0.2,0
			c0.6-0.3,1-0.1,1.5,0.3c0.1,0.1,0.4,0.1,0.7,0.1c0,0.5,0.1,1,0.1,1.6c0.1-0.1,0.1-0.2,0.2-0.4c0.2-0.7,0.8-0.8,1.3-0.3
			c0.3,0.2,0.6,0.4,1,0.6c-0.1,0.3-0.2,0.7-0.4,1c-0.1,0.1-0.1,0.2-0.1,0.2c-0.5,0.4-0.7,1-0.8,1.6c-0.1,0.2-0.2,0.4-0.2,0.6
			c-0.2,0.5-0.4,1-0.4,1.6c0.5,0.1,1.1,0,1.5-0.2c0.5-0.2,1-0.2,1.4-0.4c0.5-0.1,0.9-0.2,1.4-0.4c0.2-0.1,0.2-0.2,0.2-0.4
			c0-0.2-0.1-0.2-0.3-0.1l0,0c0.4-0.5,0.5-1,0.6-1.6c0.1-0.4,0.2-0.7,0.4-1.1c0.1-0.4,0.2-0.8,0.4-1.1c0-0.1,0.1-0.2,0.1-0.2
			c-0.1-0.6,0.1-1.3,0.3-1.8c0,0,0.1-0.1,0.2-0.1c-0.2,0.5-0.3,0.9-0.2,1.4c0.1-0.1,0.1-0.2,0.1-0.2c0-0.4,0.4-0.7,0.4-1.1
			c0.1-0.7,0.6-1.2,0.4-1.9c0-0.1,0.1-0.2,0.1-0.3c0.1-0.2,0.2-0.4,0.3-0.7c0-0.1,0.1-0.1,0.1-0.1c0.5-0.1,0.7-0.5,0.9-0.8
			c0.2-0.3,0.5-0.4,0.9-0.5c0.2,0.3,0.4,0.5,0.4,0.8c0.1,0.2,0,0.5,0,0.8c0.3,0.3,0.4-0.2,0.7-0.2c0.4,0.6,0.5,1.3,0.4,2
			c-0.2,0.8-0.2,1.6-0.7,2.2c-0.1,0.2-0.2,0.4-0.2,0.7c0,0.1,0,0.1-0.1,0.2c-0.7,0.5-0.7,1.2-1,1.9c-0.2,0.4-0.3,0.9-0.4,1.3
			c0,0.1,0,0.2-0.1,0.4c0.7-0.2,1.3-0.4,2-0.6c0.8-0.2,1.7-0.5,2.5-0.8c0.2-0.1,0.3-0.1,0.4,0.2c-0.3,0.2-0.6,0.4-1,0.5
			c0.4,0,0.7-0.1,1.1,0.1c0.2,0.2,0.6,0.2,0.7,0.6c0.6,0.3,0.5,0.8,0.5,1.3c0,0.3,0.2,0.7,0.2,1c-0.2,0.1-0.4,0.2-0.6,0.3
			c0,0.5-0.4,0.7-0.7,1c-1.1,0.8-2.3,1.1-3.6,1.6c-0.5,0.2-1,0.3-1.4,0.5c-0.1,0.1-0.3,0.2-0.3,0.4c-0.1,0.7-0.1,1.4-0.1,2
			c0.7,0.2,1.2-0.1,1.8-0.2c1.2-0.2,2.4-0.5,3.6-0.8c0.4-0.1,0.8-0.2,1.2-0.2c0.5-0.1,0.5-0.1,0.7,0.5c0,0.1,0.1,0.1,0.2,0.2
			c-0.2,0.1-0.4,0.1-0.5,0.2c0.2,0.2,0.4,0.4,0.7,0.7c0,0,0.2,0.1,0.3,0.1c0.5,0.2,0.5,0.2,0.5,0.8c0,0.2,0,0.4,0,0.5
			c0.1,0.3,0.1,0.6,0.2,0.9c-0.4,0.1-0.7,0.2-0.8,0.6c-0.1,0.2-0.2,0.3-0.4,0.4c-1.1,0.5-2.3,1-3.5,1.1c-0.9,0.2-1.9,0.4-2.8,0.7
			c-0.4,0.1-0.7,0.2-1,0.2c0,0.4-0.1,0.7-0.1,1c0,0.5,0.1,1.1-0.2,1.6c-0.1,0.1-0.1,0.2-0.1,0.2c0.2,0.8-0.2,1.5-0.1,2.3
			c0,0.3-0.1,0.5-0.4,0.7c-0.1,0.1-0.2,0.1-0.2,0.2c0,0.4-0.3,0.5-0.6,0.7c-0.1-0.7,0.2-1.4-0.3-2c-0.1,0.4-0.1,0.7-0.2,1.1
			c-0.2-0.1-0.2-0.1-0.1-0.5c-0.4-0.1-0.7-0.4-0.7-0.9c-0.2,0.4-0.4,0.6-0.5,0.8c0-0.1-0.1-0.2-0.1-0.4c-0.1-0.1-0.3-0.1-0.5-0.2
			c0.1-0.2,0.2-0.4,0.4-0.7c-0.3-0.2-0.4,0-0.5,0.2c-0.2-0.3-0.2-0.6-0.2-0.9c0.1-0.4,0-0.8,0-1.2c0-0.4,0-0.9,0-1.4
			c-0.7,0.1-1.3,0.1-2,0.2s-1.4,0.1-2,0.1c-0.1,1.1-0.1,2.1-0.1,3.1c0,0.5-0.1,1-0.2,1.4c-0.1,0.8-0.3,1.5-0.5,2.3
			c-0.1,0.5-0.2,1-0.6,1.5c0-0.2,0-0.4,0-0.4c-0.1,0.1-0.3,0.1-0.5,0.1c0.1-0.3,0.2-0.5,0.2-0.7c0-0.1-0.1-0.2-0.1-0.3
			c0,0-0.2,0.1-0.2,0.1c-0.1,0-0.2,0-0.4,0c0,0.2,0,0.3-0.1,0.5c-0.4,0-0.6,0.3-0.7,0.7c-0.1-0.1-0.3-0.1-0.3-0.2
			c0.1-0.4-0.1-1,0.4-1.3c-0.1-0.1-0.1-0.2-0.1-0.3c-0.1-0.1-0.1-0.2-0.2-0.4c0.1,0,0.1,0,0.2-0.1c0-0.2,0.1-0.5,0.1-0.8
			c-0.2,0.1-0.3,0.2-0.3,0.3c-0.2,0.3-0.3,0.7-0.7,0.8c-0.1,0.1-0.1,0.3-0.2,0.4c-0.1,0.2-0.1,0.7-0.6,0.7c-0.1,0-0.2,0.2-0.2,0.4
			c-0.1,0.3-0.1,0.7-0.2,1c-0.1,0.2,0.1,0.5-0.2,0.7c-0.1,0.1-0.1,0.2,0,0.3c0,0.2,0.1,0.5,0,0.8c-0.1-0.2-0.1-0.4-0.2-0.5
			c-0.1-0.2-0.1-0.5-0.2-0.7c-0.1-0.2-0.2-0.4-0.4-0.5c-0.1,0.2-0.2,0.3-0.3,0.4c-0.1-0.1-0.1-0.1-0.1-0.1c0.1-0.5,0.3-1.1,0.4-1.7
			c0-0.1-0.1-0.3-0.1-0.4c-0.4-0.5-0.5-1.1-0.6-1.7c0-0.1-0.1-0.1-0.1-0.2c-0.3,0.1-0.2,0.4-0.4,0.7c0-0.5,0-1-0.1-1.6
			c0-0.7,0.1-1.4,0.2-2c0-0.1-0.1-0.3-0.1-0.4c-0.3-0.2-0.2-0.4-0.1-0.5c0,0.1,0.1,0.2,0.1,0.5c0.1-0.4,0.1-0.4-0.1-0.5
			C558.6,405.5,558.7,405.5,558.7,405.4L558.7,405.4z M569.7,398.2c0-0.5,0-1.1,0-1.7c-1.5,0.3-2.9,0.5-4.2,0.8c0,0.5-0.1,0.9,0,1.3
			c0,0.2,0.2,0.4,0.2,0.5C567.1,398.9,568.4,398.8,569.7,398.2z M562.6,384.8c-0.2,0.2-0.2,0.5-0.2,0.7
			C562.4,385.3,562.9,385.2,562.6,384.8z M558.6,399.2c-0.4,0.2-0.2,0.4-0.1,0.5c0,0,0.1,0,0.1,0
			C558.6,399.6,558.6,399.4,558.6,399.2z M560.9,388.1c-0.1,0-0.1,0-0.1-0.1c-0.1,0.2-0.1,0.4-0.2,0.6c0.1,0,0.1,0,0.1,0.1
			C560.8,388.5,560.9,388.4,560.9,388.1z"/>
		<path fill="#FFFFFF" d="M744.5,392.7c0.2,0.5,0.4,1.1,0.5,1.6c0.3,1.4,0.6,2.9,0.7,4.4c0.1,1.2,0.2,2.4,0.4,3.6
			c0.1,0.4,0.2,0.7,0,1c0.2,0.3,0.1,0.7,0,1c0,0.1,0.1,0.2,0.1,0.2c0.4,0,0.4,0.3,0.4,0.5c0.2,1.2,0.3,2.3,0.5,3.5
			c0.1,0.7,0.1,1.5,0.2,2.2c0,0.4-0.1,0.7-0.1,1.1c0.2,1.5,0.4,3,0.6,4.4c0.1,0.7,0.2,1.4,0.4,2c0.1-0.1,0.1-0.2,0.2-0.5
			c0.1,0.6,0.2,1.1,0.2,1.6c0.4-0.1,0.4-0.2,0.4-0.5s-0.1-0.5-0.1-0.7c0-0.4,0-0.7-0.1-1c-0.1-0.5-0.1-1-0.2-1.4
			c-0.1-0.3-0.1-0.6-0.1-0.9c0.5,1.3,0.2,2.8,0.9,4c0.1-0.4,0-0.8,0.2-1.1c0.2-0.4-0.2-0.8,0.1-1.1c0.1,0.7,0.1,1.3,0.2,1.9
			c0.1,0.6,0.5,1.1,0.5,1.7c0.1-0.1,0.2-0.1,0.3-0.2l0.1,0.1c0,0.4,0.1,0.7-0.2,1c-0.1,0.1-0.2,0.2-0.2,0.2
			c-0.2,0.2-0.5,0.4-0.8,0.6c0.1,0.2,0.2,0.5,0.3,0.7c-0.4,0.2-0.5-0.4-0.8-0.4c-0.6,0.5-0.7,0.6-0.3,1c-0.1,0.1-0.2,0.1-0.4,0.1
			c0.1,0.4,0.1,0.7,0.1,1c-0.4,0.1-0.7,0.4-1.1-0.2c0.1,0.2,0.1,0.4,0.2,0.6c-0.4-0.4-0.7-0.7-1-1c-0.6-0.7-0.8-1.5-0.9-2.3
			c-0.2-1.3-0.4-2.6-0.6-3.9c-0.1-0.7-0.1-1.3-0.2-1.9c-0.2-1.3-0.4-2.6-0.6-3.9c-0.4-2.7-0.7-5.4-1-8.1c-0.4-3.4-0.8-6.7-1.2-10
			c-0.4-2.8-0.8-5.5-1.2-8.2c-0.1-0.3-0.1-0.7-0.2-1c-0.1,0.4-0.3,0.8-0.4,1.2c-0.5,1.1-1,2.3-1.3,3.5c-0.1,0.4-0.2,0.7-0.4,1.1
			c-0.2,0.6-0.3,1.3-0.5,1.9c-0.2,0.7-0.5,1.4-0.7,2.2c-0.2,0.8-0.4,1.6-0.6,2.4c-0.1,0.3-0.2,0.6-0.2,0.9c-0.1,0.2-0.2,0.5-0.1,0.7
			c0.1,0.5-0.4,1-0.4,1.4c0,0.1-0.2,0.2-0.2,0.2c-0.1-0.1-0.1-0.2-0.2-0.3c-0.1,0.1-0.2,0.3-0.4,0.4c-0.1-0.1-0.1-0.1-0.2-0.1
			c0.2-0.3,0.1-0.7,0.1-1c-0.6-0.1-0.2,0.5-0.4,0.8c-0.4,0,0-0.3-0.2-0.4c-0.1,0-0.2,0-0.4,0c0-0.1,0-0.1,0.1-0.2
			c0.2-0.3,0.2-0.7,0-0.8c-0.2-0.1-0.5,0-0.7,0.2c-0.1,0.1-0.1,0.2-0.2,0.2c-0.3,0.1-0.5,0.4-0.7,0.6c-0.5-0.1-0.8-0.4-1.1-0.8
			c-0.7-1-1.1-2-1.5-3.1c-0.2-0.6-0.7-1.1-1-1.6c-0.8-1.1-1.7-2.3-2.3-3.5c-0.4-0.8-1-1.6-1.5-2.3c-0.1-0.1-0.1-0.3-0.4-0.4
			c-0.1,0.4-0.1,0.8-0.1,1.3c0,0.5,0,1.1-0.1,1.7c-0.1,0.5,0,1.1-0.2,1.6c-0.1,0.4,0,1,0.1,1.4c0,0.2,0.1,0.4-0.1,0.6
			c-0.1,0.1-0.1,0.3-0.1,0.5c0,0.7-0.1,1.3-0.1,1.9c-0.1,1.9-0.2,3.8-0.2,5.7c-0.1,0.9-0.1,1.7,0,2.6c0,0.4,0.2,0.8,0,1.2
			c0,0.1,0,0.1,0,0.1c0.4,0.4,0.2,1,0.2,1.5c0.1,0.5,0,1,0,1.6c0,0.4-0.1,0.5-0.6,0.4c0.1,0.5,0.2,1.1,0.2,1.7
			c-0.1,0.1-0.4,0-0.2,0.4c0.1,0.2-0.2,0.8-0.4,1c-0.2,0.1-0.6-0.1-0.8-0.2c-0.1-0.1-0.1-0.1-0.2-0.1c-0.2,0,0,0.4-0.4,0.3
			c-0.1-0.1-0.3,0-0.5,0.1c0,0.1,0,0.2,0,0.2c-0.1,0.1-0.8-0.2-0.8-0.3c-0.1-0.4-0.3-0.7-0.6-0.9c-0.1-0.1-0.1-0.2-0.2-0.4
			c-0.1-0.8-0.3-1.7-0.4-2.6c-0.1-0.9-0.1-1.8,0.1-2.7c0.1-0.5,0.1-1.1,0.1-1.6c0-0.7,0-1.5,0-2.2c0.1-1,0.1-2,0.2-3.1
			c0-0.2,0.1-0.4,0.1-0.7c0.1-0.8,0.1-1.7,0.1-2.6c0-0.5,0.1-1,0.1-1.5c0.2-1.5,0.1-3.1,0.5-4.6c0.2-0.8-0.1-1.6-0.1-2.3
			c0-0.1-0.1-0.3,0-0.4c0.3-1.7,0.6-3.5,0.8-5.2c0.1-0.3,0.1-0.6,0.1-0.8c0-0.4-0.1-0.7-0.2-1c-0.4-0.8-0.8-1.6-1-2.4
			c-0.1-0.3-0.2-0.6-0.3-0.9c0.2,0,0.3,0.3,0.5,0.1c0.1-0.1,0.3-0.1,0.5-0.1c-0.1-0.4-0.2-0.8-0.4-1.3c0.5,0.3,0.5,0.3,0.8,0.8
			c0.2,0.4,0.3,0.8,0.7,1c0.1,0.1,0.2,0.2,0.3,0.4c0.3,0.2,0.4-0.2,0.5-0.3c0.2,0.2,0.5,0.4,0.7,0.5c0.1,0.1,0.2,0.1,0.2,0.1
			c0.2-0.2,0.4-0.1,0.6-0.1c0.1,0,0.2-0.1,0.3-0.1c0.1,0.2,0.2,0.4,0.3,0.6c0.1,0.1,0.1,0.2,0.1,0.2c-0.2,0.4,0.1,0.6,0.3,0.8
			c-0.1,0.2-0.1,0.4-0.2,0.4c0.2,0.4,0.4,0.8,0.6,1.1c0.4,0.6,0.7,1.3,1,1.9c0.2,0.4,0.4,0.7,0.7,1c0.2,0.2,0.3,0.6,0.4,0.9
			c0.6,1.3,1.1,2.8,2.1,3.9c0.2,0.2,0.3,0.4,0.6,0.3c0.1,0,0.2,0.2,0.4,0.4c0.4,0,0.7,0.2,1,0.5c0.5-0.5,0.7-1.1,0.9-1.6
			c0.3-0.7,0.5-1.3,0.9-1.9c0.2-0.5,0.4-1,0.6-1.5c0.2-0.4,0.4-0.8,0.5-1.2c0-0.1,0.1-0.1,0.3-0.2c-0.1,0.4-0.2,0.6-0.2,0.8
			c-0.3,0.8-0.6,1.6-1,2.5c-0.1,0.1-0.1,0.2-0.1,0.3c0.1,0.5-0.1,0.8-0.2,1.3c0,0,0,0.1,0.1,0.1c0.4-0.4,1.9-3.8,1.7-4.7
			c0.1-0.1,0.4-0.2,0.4-0.4c0.3-0.8,0.5-1.6,0.7-2.3c0.1-0.3,0.1-0.7,0.1-1.1c0.1,0.1,0.2,0.1,0.4,0.2c0.1-0.4,0.2-0.8,0.3-1.2
			c0.1-0.5,0.2-1,0.3-1.4c0.2-0.7,0.5-1.3,0.7-1.9c0.1-0.4,0.2-0.7,0.4-1.1c0.1,0,0.2,0.1,0.4,0.1c0.2-0.5,0.2-1,0.7-1.4
			c-0.1-0.1-0.1-0.3-0.2-0.4c0.2,0,0.5-0.1,0.7-0.1c0.2,0.4,0,0.6-0.1,0.9c-0.1,0.3-0.2,0.6-0.2,1c0.1-0.1,0.2-0.2,0.4-0.4
			c0.1,0.1,0.2,0.2,0.3,0.3c0.3-0.5,0.5-1,0.8-1.5c0.1-0.2,0.4-0.3,0.6-0.4c0.1,0,0.1,0.1,0.1,0.1c-0.1,0.4-0.2,0.8-0.3,1.2
			c0.1,0.1,0.1,0.1,0.1,0.1c0.1-0.1,0.1-0.2,0.2-0.5c0.1,0.2,0.2,0.3,0.2,0.4c-0.2,0.4,0.1,0.7,0.1,1.1c0.1,0.2,0.1,0.4,0.1,0.6
			c-0.2,0.8,0.2,1.5,0.5,2.2c-0.2,0.3-0.2,0.6-0.2,1c0.1,0.5-0.1,1,0,1.6c0.1,1.4,0,2.8,0.3,4.1c0.2,1.2,0.2,2.4,0.4,3.7
			c0.2,1.4,0.5,2.8,0.7,4.1c0.1,0.9,0.4,1.8,0.4,2.7c0.1,0.4,0,0.9,0.3,1.4c0.1,0.2,0.2,0.5-0.1,0.8c-0.1,0.1,0,0.5,0,0.7
			c0.4-0.4,0.4-0.4,0.4-0.9c-0.1-1-0.2-2-0.4-2.9c-0.1-0.4-0.3-0.7-0.2-1.1C744.4,392.9,744.5,392.8,744.5,392.7L744.5,392.7z
			 M733.1,389.2c0.1-0.2,0.2-0.3,0.2-0.5c-0.1,0-0.1-0.1-0.1-0.1C733.2,388.9,733.1,389.1,733.1,389.2c-0.1,0.1-0.2,0.2-0.3,0.4
			l0.1,0.1C733,389.5,733,389.4,733.1,389.2z M723.5,397.2c0.1,0,0.2,0,0.2,0c-0.4-1.7,0.1-3.5-0.2-5.2c-0.1,0.6-0.2,1.3-0.2,1.9
			s0.1,1.3,0.1,1.9c0,0.4,0,0.7-0.1,1C723.2,397.1,723.4,397.2,723.5,397.2c-0.1,0.1-0.2,0.1-0.4,0.1c0,0.2,0.1,0.3,0.1,0.4
			c-0.1,1-0.1,1.9-0.1,2.8c-0.1,1.4-0.1,2.7-0.1,4.1c0,0.9,0,1.9-0.1,2.8c0,0.7-0.1,1.3-0.1,2c0,0.4,0.1,0.9,0.5,1.3
			c0.1-0.5,0.2-1-0.2-1.3c0-0.5,0-0.8,0-1.3c0.1-1.1,0.1-2.3,0.2-3.5c0.1-1.1,0.1-2.3,0.1-3.4c0-0.5,0-1.1,0.2-1.6
			c0.2-0.4,0.2-0.8,0.2-1.3c-0.1,0.1-0.1,0.1-0.2,0.3C723.5,398.1,723.5,397.7,723.5,397.2z M721.5,402.5c-0.1,1.1-0.3,2.2-0.1,3.3
			c0.2-0.8,0.3-1.6,0.3-2.3C721.7,403.1,721.7,402.8,721.5,402.5c0.2,0,0.3-0.1,0.3-0.2c0.1-1,0.1-2,0.2-3.1c0-0.1,0-0.2-0.1-0.4
			c-0.1-0.4,0-0.8,0.2-1.1c0,0.7,0.1,1.5,0.1,2.2c0.1-0.3,0.2-0.7,0.2-1c0.1-1.4,0.2-2.9,0.4-4.4c0.1-1.2,0.2-2.5,0.2-3.7
			c0-0.3-0.1-0.7-0.1-1c-0.1-0.2-0.1-0.4-0.1-0.7c0-0.4,0.1-0.7,0.1-1.1c-0.1,0.1-0.2,0.1-0.2,0.2c-0.1,0.5-0.1,1-0.2,1.6
			c-0.1,0.7-0.2,1.4-0.1,2c0,0.4-0.3,0.4-0.3,0.7c-0.1,1.1-0.2,2.2-0.2,3.2c-0.1,1.9-0.2,3.7-0.3,5.6
			C721.4,401.8,721.5,402.2,721.5,402.5z M721.3,408.4c0.1-0.4,0.3-0.8,0.1-1.1c-0.2-0.4-0.1-0.7,0-1.1
			C721.1,406.9,721.2,407.6,721.3,408.4z M722.2,401.4c-0.1,0-0.1,0-0.1,0c-0.1,0.2-0.1,0.4-0.2,0.5c0.1,0,0.1,0,0.1,0.1
			C722.2,401.8,722.2,401.6,722.2,401.4z M722.3,400.4L722.3,400.4c-0.1,0.2-0.1,0.4-0.1,0.5c0,0,0,0,0.1,0
			C722.2,400.7,722.3,400.5,722.3,400.4z"/>
		<path fill="#FFFFFF" d="M590.6,400.8c0-0.4,0-0.7,0.1-1.1c0.1-0.4,0.1-0.7,0.2-1c0-0.1,0.1-0.2,0.2-0.2c0.4,0,0.4-0.3,0.3-0.5
			c-0.1-0.2,0-0.4,0-0.5c0.1-0.6,0.2-1.3-0.1-1.9c0.1-0.1,0.1-0.1,0.2-0.2c0.3-0.2-0.1-0.6,0.3-0.8c0.2-0.2,0.2-0.5,0.1-0.8
			c-0.1-0.2,0-0.4,0-0.6l0,0c0.1-1.1,0.4-2.2,0.2-3.3c0.2,0.2,0.2,0.4,0.3,0.6h0.1c0.1,0.6,0.3,1.2,0.1,1.8c-0.1,0.4-0.2,0.7,0,1
			c0.1-0.5,0.2-0.9,0.2-1.4c0-0.1,0-0.3,0.1-0.4c0.3-0.2,0.2-0.5,0.2-0.7c0.1-0.1,0-0.3,0.1-0.4c0.4-0.4,0.4-0.8,0.5-1.3
			c-0.8-0.1-0.1-0.8-0.5-1.1c-0.1,0.1-0.2,0.2-0.2,0.4c-0.1,0.2-0.1,0.5-0.2,0.7c-0.1,0.4-0.1,0.9-0.4,1.3c0.1-0.5,0.2-1.1,0.3-1.6
			c0-0.1,0.2-0.4-0.1-0.4c0-0.1,0-0.3,0.1-0.4c0.2-0.3,0.2-0.6,0.2-1c-0.1,0.1-0.1,0.2-0.2,0.3c-0.1-0.1-0.2-0.1-0.2-0.2
			c-0.2,0.1-0.1,0.7-0.5,0.5l0,0c0.1-0.4,0.2-0.9,0.4-1.4c0.1,0.1,0.2,0.1,0.4,0.2c0-0.2-0.1-0.5,0-0.6c0.1-0.2,0.3-0.2,0.4-0.4
			c0.2,0.3,0.4,0.7,0.5,1c0.1,0,0.1-0.1,0.1-0.1c-0.1-0.5-0.1-0.9-0.3-1.3c-0.2-0.5-0.1-1,0-1.4c0.4,0,0.2-0.4,0.2-0.7
			c0.2-0.1,0.4-0.1,0.4-0.2c0.1-0.1-0.1-0.4-0.1-0.5c0-0.2,0.1-0.5,0.1-0.7c0.1-0.4,0.2-0.7,0.4-1c0.1-0.1,0.2-0.2,0.3-0.4
			c0.1-0.1,0.3-0.2,0.5-0.3c0.3-0.2,0.5-0.5,0.5-1c0-0.2,0.1-0.3,0.1-0.5c0.1,0,0.1-0.1,0.1-0.1c0.4-0.1,0.5-0.5,1-0.5
			c0.1,0,0.2-0.2,0.3-0.4c0.2-0.4,0.3-0.7,0.5-1.1c0.2,0.4,0.5,0.7,0.7,1.1c-0.1,0.1-0.1,0.2-0.1,0.4c0.5,0.3,0.5,0.2,0.8-0.5
			c0.2,0,0.5-0.2,0.8,0.1s0.4,0.7,0.2,1.1c-0.5,0.8-0.7,1.8-1,2.8c-0.1,0.1-0.1,0.2-0.1,0.4c-0.2,0.2-0.2,0.5-0.1,0.8
			c0.1,0.3,0.1,0.5,0.2,0.8c0.2-0.1,0.3-0.2,0.4-0.3c0.3-0.1,0.1,0.5,0.5,0.3l0.1,0.1c0.2,0.4,0.1,1-0.2,1.3
			c-0.2,0.2-0.4,0.1-0.5,0.1c0,0.4,0.1,0.7,0.1,1.1c0,0.1,0.1,0.1,0.2,0.1c-0.1,0.4-0.1,0.8-0.1,1.3c0.1-0.1,0.1-0.2,0.1-0.2
			c0-0.4,0-0.7,0-1.1c0-0.2,0-0.5,0-0.7c0.1,0,0.1,0,0.1,0c0,0.1,0.1,0.2,0.1,0.4c0.1,0.7,0.1,1.4,0.1,2.1c0,0.3,0.1,0.6-0.2,0.8
			c-0.1,0.1-0.1,0.2-0.1,0.3c0.1,1.3,0.3,2.6,0.4,3.8c0.1,0.8,0.2,1.7,0.4,2.6c0.1,0.3,0.1,0.5,0.5,0.6c-0.5,0.8-0.2,1.7,0,2.5
			c0.5-0.4,0.7-1,0.5-1.5c-0.1-0.2,0-0.5,0.1-0.8c0.1-0.5,0.4-0.8,0.7-1.2c0.3-0.3,0.4-0.8,0.5-1.3c0.1-0.6,0.3-1.1,0.6-1.6
			c0.3-0.5,0.3-0.6-0.2-1c0.1-0.1,0.2-0.1,0.4-0.2l0,0c0.1,0,0.3,0.1,0.4-0.1c0.1-0.4,0.3-0.8,0.4-1.2c0.1-0.1,0.1-0.2,0.2-0.4
			c0.1-0.2,0.1-0.3,0.1-0.5c-0.1,0-0.1-0.1-0.1-0.1c-0.1,0.2-0.2,0.4-0.4,0.7c-0.1-0.3,0-0.5,0.1-0.7c0.1-0.2,0.2-0.3,0.1-0.5l0,0
			c0.2-0.2,0.4-0.5,0.6-0.5c0.7-0.2,0.5-0.7,0.8-1.2c-0.3,0-0.5-0.1-0.5-0.3c0-0.2,0.2-0.3,0.4-0.4c0-0.2,0-0.3-0.1-0.5
			c0.2,0,0.5,0,0.8,0c0.1-0.2,0.1-0.4,0.2-0.5c-0.1-0.1-0.2-0.2-0.4-0.3c0.1-0.2,0.1-0.4,0.2-0.5c0.1-0.1,0.2-0.2,0.2-0.2
			c0.4-0.1,0.4-0.2,0.4-0.5c-0.1-0.2-0.1-0.3-0.1-0.5c-0.1-0.2-0.1-0.4-0.2-0.6c0.6-0.1,0.8-0.3,0.8-0.8c0-0.1,0-0.2,0-0.2
			c0-0.2,0-0.4,0.1-0.7c0.1,0.5,0.4,0.3,0.5,0.4c-0.2,0.2-0.4,0.5-0.2,0.8c0.5-0.3,0.6-0.4,0.2-0.8c0.1-0.1,0.1-0.2,0.2-0.4
			c0.1,0,0.2,0,0.4,0.1c0-0.2,0.1-0.5,0-0.7c-0.2-0.2-0.1-0.4-0.1-0.6c0.1-0.3,0.1-0.7,0.2-1c0.1-0.1,0.3-0.1,0.5-0.1
			c-0.1,0.4-0.1,0.7-0.2,1c0.2,0.2,0.4,0.1,0.4-0.1c0.1-0.4,0.3-0.8,0.4-1.3c0.1-0.4,0.2-0.7,0.6-0.6c0.3-0.4,0.2-1,0.8-1.3
			c-0.2,0.6-0.3,1.1-0.5,1.7c0.4,0.1,0.8,0.1,1.1,0.1c0.6,0,0.6,0,0.5,0.5c-0.1,0.4,0,0.9-0.3,1.3c-0.1,0.1-0.1,0.3,0,0.5
			c0.1,0.7,0,1.4-0.2,2c-0.2,0.4-0.2,0.8-0.1,1.3c0.1,0.2,0,0.5-0.1,0.7c-0.2,0.4-0.2,1,0.2,1.4c-0.4,0.4-0.4,0.8-0.5,1.2
			c-0.1,1.1-0.1,2.2-0.2,3.4c-0.1,1.4-0.2,2.9-0.2,4.3c0,0.2-0.1,0.5,0.3,0.7c0.2,0.1,0.4,0.3,0.5,0.5c-0.4,0.1-0.5-0.4-0.8-0.4
			c-0.1,0.6-0.1,1.2-0.1,1.9c-0.1,1.7-0.1,3.4-0.1,5.1c0,0.7,0,1.3,0,1.9c0,0.7,0,1.4-0.1,2.1c0,0.4-0.1,0.8,0.2,1
			c-0.1,0.5-0.2,1-0.2,1.4c0,1.6,0.1,3.2,0.1,4.8c-0.2,0.1-0.4,0.1-0.6,0.2c-0.1,0.6-0.1,1.3-0.1,1.9c0,0.2,0,0.4-0.2,0.5
			c-0.4,0.4-0.5,0.8-0.2,1.3c-0.2,0.4-0.9,0.4-1,1c-0.3-0.1-0.5-0.1-0.8-0.2c0.2-0.6,0-1.1-0.5-1.6c-0.4-0.4-0.8-1-0.5-1.7
			c0.1,0.1,0.2,0.2,0.4,0.4c0.1-0.2,0.1-0.4,0.1-0.6c0-1.4,0-2.8,0-4.3c0-0.6,0.1-1.3,0.1-1.9c0-0.5-0.1-1-0.1-1.6
			c0-0.4-0.1-0.7-0.2-1.1c0,0.3,0,0.5,0,0.9c-0.2-0.1-0.3-0.1-0.4-0.4c-0.2-0.7,0-1.5,0-2.2c-0.1-1.3,0-2.6,0-3.8
			c0-0.7,0-1.4,0.1-2.1c0-1.1,0.1-2.2,0.1-3.2c0-0.2-0.1-0.4-0.1-0.7c-0.1,0.1-0.1,0.1-0.2,0.2c-0.1-0.5-0.2-0.9-0.1-1.4
			c0.1-0.4,0.1-0.7,0.1-1.1c-0.7,0.8-0.9,1.7-0.8,2.7c-0.1-0.2-0.1-0.4-0.2-0.5c-0.1,0.5-0.2,0.9-0.3,1.3c-0.1,0-0.1,0-0.1,0
			c0-0.2,0.1-0.5,0.1-0.8c-0.1,0.2-0.2,0.3-0.2,0.4c-0.3,0.7-0.5,1.4-0.8,2c-0.4,0.7-0.7,1.5-1,2.2c-0.3,0.7-0.5,1.4-0.8,2.2
			c-0.1,0.4-0.3,0.8-0.5,1.1c-0.2,0.4-0.3,0.8-0.2,1.1c0.2,0.8,0.1,1.4-0.2,2.2c-0.1,0.1,0,0.2-0.1,0.4c-0.2-0.3-0.4,0.1-0.6-0.1
			c-0.1-0.1-0.4-0.2-0.7-0.2c-0.8,0.7-1.3,1.6-2.2,2.2c-0.6-0.2-0.4-0.6-0.4-0.9c0-0.5-0.1-1-0.4-1.3c-0.1-0.1-0.1-0.1-0.1-0.1
			c-0.2-0.1-0.4-0.2-0.2-0.5c0.2-0.2,0.3,0,0.5,0.1h0.1c0.2-0.5,0.1-1.1,0.7-1.5c0.1,0,0.2,0.1,0.4,0.1c0-0.1,0.1-0.1,0.1-0.2
			c-0.5-1.4-0.7-2.8-0.9-4.3c-0.1-0.9-0.4-1.8-0.5-2.7c-0.1-0.3-0.1-0.6-0.1-0.9c-0.1-0.4-0.2-0.7-0.3-1c-0.1,0-0.1,0-0.1,0
			c0,0.5,0.1,0.9,0.1,1.4c-0.1,0-0.2,0-0.2,0c0,0.2-0.1,0.5-0.1,0.8c-0.2,0-0.4,0.1-0.6,0.1c0.1,0.2,0.1,0.4,0.1,0.6
			c0.2,0.3,0.2,0.4,0.1,0.8c-0.1,0.4-0.2,0.8-0.3,1.2c-0.1,0.1,0,0.4,0.1,0.5c0.4,0.2,0.2,0.7,0.4,1c0.1,0.2-0.1,0.5-0.2,0.7
			c-0.1,0.2-0.1,0.4-0.1,0.5c0,0.2,0.4,0.5-0.1,0.7c0,0,0,0.1,0,0.2c0.1,0.2,0.1,0.3-0.1,0.5c-0.2,0.3-0.1,0.6,0,0.9
			c0.1,0.5,0.3,1,0.4,1.4c0.1,0.2,0.1,0.3,0.1,0.5c-0.2,0.1-0.3,0.1-0.4,0.1c-0.4,0.2-0.8,0.4-0.7,1c0.1,0.4,0.1,0.8-0.5,0.9
			c-0.1,0-0.2,0.4-0.2,0.5c0,0.2,0.1,0.4,0.1,0.6c-0.7,0.4-0.7,1.3-1.1,1.9c-0.1,0.2-0.2,0.5-0.4,0.7c-0.1,0.1-0.1,0.2-0.2,0.4
			s-0.2,0.3-0.5,0.5c-0.1-0.3-0.1-0.4-0.1-0.6c-0.1,0-0.2,0-0.2,0.1c-0.2,0.4-0.5,0.7-0.7,1c-0.1,0.2-0.2,0.4-0.5,0.2
			c-0.1-0.2-0.2-0.4-0.3-0.5c0.1-0.4,0.4-0.8-0.1-1.3c-0.2,0.4-0.4,0.8-0.6,1.2c-0.2-0.1-0.3-0.1-0.5-0.2c0.1-0.2,0.2-0.5,0.2-0.7
			c-0.5-0.5-0.6-0.5-1.2,0.3c0.2-0.6,0.4-1.1,0.4-1.7s0.4-0.9,0.5-1.4c-0.4-0.1-0.2-0.4-0.2-0.6l0,0c0.1-0.2,0.2-0.4,0.2-0.5
			c0.1-0.3,0.1-0.5,0.5-0.5c-0.1-0.4,0.1-0.7-0.1-1.1c0.5-0.1,0.2-0.5,0.3-0.8c0.1-0.3,0.2-0.5,0.4-0.8c0-0.1,0-0.1,0-0.1
			c0.1,0.1,0.2,0.2,0.4,0.5c0-0.4,0-0.6,0-1c-0.2,0.2-0.2,0.3-0.4,0.4c0.2-0.4,0.2-0.7,0-1.1c-0.1-0.2-0.1-0.6-0.1-0.9
			c0.2-0.1,0.4-0.1,0.6-0.2c-0.1-0.4-0.2-0.8-0.4-1.2C590.4,401.3,590.3,401,590.6,400.8c0.1,0,0.2,0.1,0.4,0.1
			c0-0.2-0.1-0.4-0.1-0.5C590.8,400.5,590.7,400.7,590.6,400.8z M591.4,400.2c0.1-0.1,0.1-0.1,0.2-0.2c0.1-0.5,0.2-1.1,0.4-1.7
			c0.1-0.3,0.1-0.5,0.1-0.8c-0.1-0.2-0.1-0.5-0.1-0.8c-0.1,0-0.1,0-0.1,0C591.4,397.8,591.3,398.9,591.4,400.2z M592.3,396.1
			c0-0.5,0.1-1,0.1-1.5c0-0.1-0.1-0.2-0.2-0.4c-0.4,0.5-0.4,1-0.4,1.5C591.8,396,592,396,592.3,396.1z M593.6,387.9
			c-0.4,0.3-0.2,0.7-0.2,1.1C593.9,388.6,593.7,388.2,593.6,387.9z M590.9,399.8c0.1,0,0.1,0,0.2,0c0-0.3,0-0.6,0-0.9
			C590.8,399.2,590.8,399.5,590.9,399.8z M590.8,406.2c-0.1,0-0.1,0-0.1-0.1c-0.3,0.5-0.3,0.5,0,0.8
			C590.7,406.6,590.8,406.4,590.8,406.2z M593.1,391.3c0.1,0,0.1,0,0.1,0c0-0.1,0-0.3,0.1-0.4c-0.1,0-0.1,0-0.2,0
			C593.1,391.1,593.1,391.2,593.1,391.3z M590.7,405.9c0.1,0,0.1,0,0.2,0c0-0.2,0-0.4,0.1-0.5c-0.1,0-0.1,0-0.1,0
			C590.8,405.5,590.7,405.7,590.7,405.9z"/>
		<path fill="#FFFFFF" d="M656.1,391.3c-0.1-0.1-0.1-0.2-0.2-0.2c-0.2,0-0.3,0.1-0.5,0c0.8-0.8,1.8-1,2.8-1.6c0-0.1,0-0.2,0-0.4
			c1.6-0.3,3.1-0.7,4.7-1c0.5-0.1,1-0.1,1.6-0.1c0.5,0,1,0.1,1.4,0.2c0.4,0.1,0.8,0.4,1.3,0.5c0.1,0.1,0.2,0.2,0.4,0.2
			c0.5,0,0.8,0.4,1.1,0.7c0.2,0.1,0.1,0.4-0.1,0.5c-0.2,0.1-0.2,0.2-0.2,0.4v0.1c0.1,0.4-0.2,0.7-0.2,1.1c0,0.3,0.4,0.7,0.3,1
			c-0.1,0.8-0.4,1.5-0.9,2.1c-0.2,0.2-0.4,0.5-0.6,0.7c-0.2,0.2-0.4,0.4-0.7,0.7c-0.1,0.1-0.2,0.2-0.4,0.4c-0.4,0.4-0.8,0.7-1.2,1
			c-0.1,0.1-0.2,0.2-0.4,0.4c0.2,0.2,0.4,0.4,0.7,0.5c1.1,0.5,1.9,1.4,2.8,2.2c0.1,0.1,0.2,0.2,0.2,0.4c0.7,1.1,1.4,2.3,2,3.5
			c0.4,0.7,0.6,1.4,0.8,2l0,0c-0.3-0.4-0.6-0.8-0.9-1.3c-0.3-0.5-0.5-1-0.9-1.5c-0.7-0.8-1.1-1.8-1.7-2.7c-0.1-0.2-0.3-0.4-0.5-0.7
			c-0.1,0.1-0.1,0.1-0.1,0.1c0.3,0.5,0.7,1.1,1,1.6c0.7,1,1.4,2,2,3.1c0.4,0.8,0.9,1.6,1.6,2.2c0.1,0.1,0.1,0.2,0.2,0.2
			c-0.1,0.3,0.2,0.4,0.4,0.6c0.2,0.1,0.3,0.2,0.5,0.2c0.2,0.2,0.5,0.4,0.7,0.6c0.1,0.2,0.3,0.4,0.5,0.4c0.4,0.1,0.8,0.1,1.3,0.2
			c0.1,0.1,0.3-0.1,0.5-0.2c0.1,0.1,0.1,0.3,0.2,0.4c0.2,0,0.3-0.1,0.5-0.1c0,0.1,0.1,0.2,0.1,0.2c-0.1,0.2-0.2,0.3-0.2,0.5
			c-0.1,0.2-0.1,0.4,0,0.5c0.2,0.2,0.2,0.5,0.1,0.8c-0.1,0.2-0.1,0.4-0.1,0.5c-0.1,0.2-0.1,0.4-0.1,0.6c0.2,0,0.4-0.1,0.6-0.1
			c-0.1,0.5-0.5,0.5-0.8,0.7c-0.2,0.1-0.5,0.2-0.7,0.4c-0.2,0.1-0.3,0.3-0.1,0.5c-0.3,0.2-0.6,0.5-0.9,0.7c-0.4,0.2-1.1,0.1-1.4-0.1
			c-0.6-0.5-1.2-0.9-2-1.1c-0.3-0.1-0.5-0.4-0.7-0.7c-0.2-0.3-0.5-0.6-0.7-0.9c-0.4-0.6-0.9-1.3-1.3-1.9c-0.4-0.8-1-1.6-1.5-2.3
			c-0.7-1-1.3-2-1.9-2.9c0,0,0-0.1-0.1-0.1c-0.4-0.8-1-1.1-1.9-0.9c-0.3,0.1-0.6-0.1-0.9-0.1c-0.2,0.2-0.4,0.4-0.6,0.5
			c0.1,1.6,0.8,3.1,0.9,4.8c-0.2,0-0.3,0-0.4-0.1c0.1,0.2,0.2,0.4-0.1,0.6c-0.1,0.1-0.1,0.2-0.1,0.4c0,0.4,0.1,0.7,0,1.1
			c0,0.3,0.1,0.7-0.4,0.8c-0.1,0-0.1,0.1-0.1,0.2c-0.1,0.4-0.4,0.5-0.7,0.6c-0.5-0.4-0.5-1-0.8-1.6c0,0.1-0.1,0.3-0.1,0.4
			s0.1,0.2,0.1,0.3c0.1,0.5,0.1,0.7-0.4,1c-0.1,0.1-0.2,0.1-0.3,0.2c-0.4-0.1-0.7-0.5-1.1-0.6c-0.1,0-0.1-0.2-0.2-0.2
			c-0.2-0.7-0.5-1.3-0.7-2c0-0.2-0.2-0.5-0.2-0.7c-0.1-0.4-0.2-0.7-0.2-1.1c0-0.3-0.1-0.5-0.1-0.8c-0.1-0.5-0.5-1-0.2-1.6
			c0.1-0.1,0.1-0.4,0-0.5c-0.1-0.8-0.2-1.7-0.3-2.5c0-0.3,0-0.6,0.1-0.9c0-0.1,0.1-0.1,0.1-0.2c-0.1-0.8-0.2-1.6-0.3-2.5
			c0-0.1-0.1-0.2,0-0.2c0.2-0.5,0.2-1,0.1-1.6c-0.1-0.2,0.1-0.5,0.1-0.8c0-0.8,0-1.5-0.1-2.3c0-0.2,0-0.4,0.1-0.6
			c-0.3-0.2-0.7,0.2-1-0.1c0.2-0.3,0.7-0.3,1-0.5c-0.5-0.1-0.9-0.1-1.3-0.1v-0.1c0.2-0.1,0.5-0.2,0.7-0.3c-0.4-0.1-0.7-0.4-1.1-0.5
			c0.4-0.3,0.6-0.6,1.1-0.7C655.6,391.7,655.9,391.7,656.1,391.3c0.2,0.2,0.4,0.1,0.6,0.1c0.1-0.1,0.1-0.1,0.2-0.2
			c-0.1-0.1-0.2-0.2-0.2-0.2C656.5,391.1,656.3,391.2,656.1,391.3z M665.6,393.2c-2.2-0.4-4.3,0.3-6.4,0.7c0.1,0.5,0.1,0.9,0.1,1.3
			c0.1,0.6,0.2,1.1,0.3,1.7c0.1,0.5,0.2,1,0.4,1.5c0,0.1,0.1,0.2,0.2,0.2c0.3,0.2,0.7,0.4,1.1,0.4c-0.4-0.3-0.7-0.5-1-0.8
			c0.3-0.4,0.6-0.8,0.8-1.1c0.1-0.1,0.2-0.1,0.3-0.1c0.5-0.1,1.1,0.1,1.6,0.3c0.2,0.1,0.5,0.2,0.7,0c0.4-0.4,0.7-0.7,1-1
			c0.6-0.7,1.1-1.4,1.7-2.1c0.1-0.1,0.2-0.2,0.2-0.4c-0.1,0-0.1-0.1-0.1-0.1c-0.4,0.4-0.7,0.7-1.1,1c-0.4,0.3-0.7,0.7-1,1
			c-0.4,0.3-0.6,0.8-1.1,0.9c0-0.1,0.1-0.2,0.1-0.3c0.4-0.4,0.8-1,1.2-1.3c0.5-0.4,0.4-0.7,0.4-1.1
			C665.2,393.8,665.4,393.5,665.6,393.2z M660.9,402.7c-0.2,0.6-0.2,0.6-0.1,1.1c0.8,0,1.6,0,2.5,0.1c-0.1-0.4-0.4-0.6-0.8-0.6
			s-0.7-0.1-0.9-0.2C661.4,402.9,661.1,402.8,660.9,402.7z M667.3,390.6c0.1,0.2,0.1,0.5,0.1,0.8c0,0.1,0.1,0.2,0.2,0.2
			c0.2-0.2,0.4-0.3,0.5-0.5c0.1-0.2,0.1-0.5-0.1-0.7c-0.5-0.4-1-0.8-1.7-0.7C666.4,390.2,666.5,390.3,667.3,390.6z M663.1,390.4
			c0.1,0.1,0.1,0.1,0.1,0.1c0.5,0.1,1,0.1,1.6,0.2c0.1,0,0.3,0,0.4,0.1c0.4,0.3,0.8,0.2,1.2,0.2c-0.1-0.1-0.1-0.3-0.1-0.3
			c-0.5-0.2-0.9-0.5-1.4-0.6c-0.5-0.1-1,0.3-1.5,0.2C663.3,390.3,663.2,390.3,663.1,390.4z M660.1,390.8c-0.8-0.4-1.5-0.1-2.2,0
			c-0.1,0-0.1,0.2-0.2,0.4C658.6,391.1,659.3,390.9,660.1,390.8z"/>
		<path fill="#FFFFFF" d="M697.6,387.2c0.1,0,0.2,0.1,0.2,0.1c0.1,0.6,0.4,1.1,0.4,1.8c0,0.4,0.2,0.7,0.4,1c0.5,0.7,0.7,1.6,1,2.3
			c0.3,0.8,0.5,1.7,0.8,2.5c0.1,0.2,0.2,0.5,0.5,0.5c0.5-0.6,1-1.3,1.5-1.9c0-0.1,0.1-0.1,0.1-0.1c0.8-0.4,1.1-1.2,1.7-1.7
			c0.1-0.1,0.1-0.3,0.2-0.4c0.1-0.1,0.4-0.1,0.4-0.2c0.2-0.3,0.4-0.7,0.5-1c0.1-0.1,0.1-0.2,0.1-0.2c0.2-0.2,0.4-0.3,0.5-0.4
			c0.1-0.1,0.1-0.2,0.2-0.2c0.5,0.1,0.5-0.4,0.7-0.7c0.3-0.5,0.5-1,0.8-1.4c0.1,0.1,0.2,0.1,0.3,0.2c0.1-0.2,0.3-0.3,0.4-0.5
			c0.2,0.2,0.4,0.4,0.2,0.8c-0.1,0.2-0.2,0.5-0.2,0.7c-0.1,0.2,0,0.4,0,0.7c0.3-0.3,0.5-0.5,0.7-0.7c0.1,0.5-0.3,0.8-0.5,1.2
			c0.5,0.5,0.5,0.5,0.9-0.1c0.1-0.1,0.1-0.1,0.1-0.2c0.1-0.1,0.1-0.2,0.2-0.3c0.1,0.1,0.2,0.2,0.2,0.4c-0.1,0.7-0.9,1.1-0.5,2
			c0.2-0.3,0.5-0.5,0.7-0.8c0,0,0.1,0,0.1,0.1c-0.1,0.2-0.2,0.4-0.3,0.5c-0.3,0.6-0.7,1.1-1,1.7c-0.3,0.8-0.8,1.4-1.3,2.2
			c-0.1,0.2-0.4,0.4-0.5,0.6c-0.2,0.2-0.2,0.5-0.4,0.7c-0.5,0.7-1,1.4-1.4,2.2c0.4,0.5,0.9,0.7,1.4,1c1.3,0.8,2.6,1.5,3.7,2.5
			c0.3,0.3,0.7,0.5,1.1,0.8c0.5,0.5,1,1,1.5,1.6c0.4,0.5,0.8,1.2,1.7,1c-0.1,0.2-0.1,0.2-0.1,0.4c0.2,0.4,0.6,0.4,1,0.4
			c0.1,0.2,0.1,0.5,0.1,0.7c-0.1,0.3,0.1,0.5,0.4,0.5c0.1,0,0.1,0.1,0.2,0.1c0.3,0.4,0.5,0.8,0.8,1.2c-0.5,0.1-0.3,0.9-0.8,1.1
			c0.1,0.1,0.1,0.2,0.2,0.4c-0.4,0.1-0.7,0.1-1,0.2c-0.2,0.1-0.5,0.1-0.6,0.4c-0.1,0.1-0.4,0.3-0.5,0.3c-0.4-0.2-1-0.2-1.3-0.5
			c-0.9-0.8-1.9-1.5-2.8-2.3c-0.7-0.7-1.5-1.3-2.2-2c-0.8-0.7-1.7-1.2-2.6-1.7c-0.5-0.3-1.1-0.6-1.6-0.9c-0.2-0.1-0.5-0.2-0.7-0.3
			c-0.1,0.2-0.1,0.4-0.1,0.6c-0.1-0.2-0.1-0.4-0.2-0.6c0.1,0.3-0.2,0.7,0.2,1c0-0.2,0-0.4,0-0.5c0.2,0.8,0.4,1.6,0.5,2.3
			c0.2,0.9,0.3,1.9,0.7,2.8c0.1,0.1,0.1,0.3,0.1,0.5s-0.1,0.3-0.1,0.6c-0.1-0.3-0.2-0.5-0.3-0.8c-0.2-0.9-0.4-1.8-0.5-2.8
			c-0.1-0.2,0-0.4-0.3-0.3c0,0-0.1-0.2-0.2-0.2c0.1,0.5,0.1,1.1,0.2,1.6c0.1,0.3,0.2,0.5,0.1,0.8c-0.1,0.7-0.1,1.4,0.2,2.1
			c0.1,0.4,0.2,0.7-0.2,1c-0.2,0.2-0.3,0.6-0.7,0.7c-0.1-0.1-0.1-0.2-0.1-0.4c-0.1-0.7-0.2-1.3-0.4-1.9c-0.1-0.2-0.2-0.4-0.3-0.5
			c0.1,0.4-0.1,0.8,0.2,1.2c0.1,0.1,0.1,0.2,0,0.4c-0.1,0.4-0.1,0.8-0.1,1.3c0,0.3-0.2,0.4-0.4,0.5c-0.3,0.1-0.5,0.1-0.7-0.2
			c-0.1-0.2-0.2-0.5-0.4-0.8c-0.1,0.1-0.2,0.2-0.4,0.4c-0.2-0.2-0.3-0.4-0.4-0.7c-0.1,0-0.2,0.1-0.4,0.1c-0.1-0.7-0.2-1.4-0.4-2.1
			c-0.2-1.5-0.5-2.9-0.7-4.4c-0.2-1.1-0.2-2.3-0.4-3.5c-0.1-1-0.2-1.9-0.6-2.8c-0.1-0.3-0.1-0.6-0.2-0.9c-0.1-1-0.2-2-0.7-2.8
			c-0.1,0-0.2,0.1-0.2,0.1c-0.1-0.1-0.1-0.1-0.1-0.1c0-0.3,0.1-0.6,0.1-0.8c0-0.1-0.1-0.3-0.1-0.3c-0.5-0.1-0.4-0.5-0.4-0.8
			c-0.1-0.3-0.2-0.6-0.4-0.9c-0.1-0.2-0.2-0.4-0.3-0.5c0.1-0.1,0.2-0.3,0.3-0.5c-0.2-0.2-0.4-0.5-0.5-0.8c0.7-0.4,0-1,0.2-1.5
			c0.2,0.2,0.3,0.3,0.5,0.4c0.1-0.4,0.1-0.8-0.1-1.1c-0.1-0.1-0.2-0.2-0.2-0.3c-0.1-0.2,0-0.4,0.4-0.4c-0.4-0.5,0.1-1-0.2-1.5
			c0.4,0.1,0.4,0.3,0.4,0.5c0.2,0.8,0.5,1.5,0.6,2.3c0.1,0.4,0.3,0.6,0.7,0.8c0-0.2,0.1-0.5,0.1-0.7c0.2-0.1,0.4-0.2,0.6-0.3
			c0.1,0.1,0.2,0.2,0.5,0.4C697.9,388.3,697.7,387.7,697.6,387.2L697.6,387.2z M702.7,405.8c0.1-0.2,0.1-0.2,0.1-0.3
			c-0.1-0.8-0.2-1.6-0.2-2.4c-0.1-0.3-0.2-0.4-0.6-0.1C702.1,403.8,702.3,404.8,702.7,405.8z M715.7,408.7c-0.1-0.4-0.2-0.5-0.5-0.5
			C715.2,408.6,715.3,408.8,715.7,408.7z"/>
		<path fill="#FFFFFF" d="M792.7,380c0,0.1-0.1,0.3-0.1,0.4c-0.2,0.6-0.2,1.2-0.1,1.8c0.2,0,0.4,0,0.6,0.1c0.1-0.5,0.1-1,0.1-1.6
			c0.1,0,0.1,0,0.1,0c0,0.2,0,0.5,0,0.7c0,0.3-0.1,0.7,0.2,0.9c0.1,0.1,0,0.2,0,0.3c0,1.3,0.1,2.5-0.2,3.7c-0.1,0.8-0.1,1.6-0.1,2.3
			c0,0,0.1,0.1,0.1,0.1c0.2-0.4,0.2-0.8,0.3-1.2c0.1-0.5,0.1-1,0.1-1.4c0.1-0.7,0.2-1.4,0.4-2.1c0.1-0.4,0.2-0.9,0.1-1.4
			c0-0.1,0-0.3,0-0.4c0.3-0.5,0.2-1,0.4-1.5c0.1,0.1,0.1,0.2,0.1,0.3c0,0.2,0,0.4,0,0.6c-0.1,1.2-0.2,2.4-0.3,3.6
			c-0.1,0.4-0.1,0.7-0.2,1.1c-0.1,0.7-0.2,1.5-0.4,2.3c0.2-0.1,0.4-0.1,0.7-0.1c-0.2,0.2-0.4,0.4-0.5,0.5c0,0.5,0,1.1,0,1.7
			c0.9-0.4,1.4,0.1,1.8,0.7c-0.1,0.2-0.2,0.4-0.4,0.6c0.3,0,0.5,0,0.7-0.1c0.1,0.2,0.2,0.4,0.2,0.7c-0.1,0.1-0.2,0.2-0.4,0.2
			c-0.4,0.2-0.8,0.3-1,0.7c-0.1,0.2-0.4,0.3-0.6,0.5c0.1,0.7,0.2,1.4,0.2,2.2c0.1,0.7,0.2,1.5,0.3,2.2c0.1,0.7,0.4,1.4,0.2,2.2
			c-0.5-2.1-1-4.3-1.2-6.5c-0.5,0.2-0.4,0.7-0.3,1c0.1,0.5,0.2,0.9,0.2,1.4c0.2,1.6,0.4,3.1,0.7,4.7c0,0.2,0,0.5-0.1,0.7
			c-0.1-0.3-0.2-0.7-0.2-1H794c0,0.5,0.1,1.1,0.1,1.6c-0.5-0.1-0.2,0.5-0.5,0.7c-0.5-0.1-0.8,0.2-0.8,0.7c-0.2,0.1-0.4,0.2-0.5,0.2
			c-0.3,0.1-0.5,0-0.7-0.2c-0.2-0.5-0.5-0.9-0.7-1.4c-0.1-0.2-0.1-0.4-0.2-0.6c-0.1-0.5-0.2-1.1-0.5-1.7c-0.2-0.5-0.3-1.1-0.4-1.6
			c-0.2-0.9-0.3-1.8-0.4-2.6c0-0.2-0.1-0.4-0.1-0.5c-1.2,0.2-2.5,0.2-3.7,0.7c0.2,1.6,0.4,3.2,0.5,4.9c-0.4-0.3-0.2-0.7-0.3-1
			c-0.1-0.4-0.1-0.7-0.1-1.1c-0.1,0-0.1,0-0.1,0c0,0.4,0.1,0.8,0.1,1.3c-0.1,0-0.1,0-0.1,0c-0.1-0.8-0.1-1.5-0.2-2.3
			c0.1,0.1,0.2,0.2,0.2,0.4h0.1c-0.1-0.7-0.2-1.4-0.3-2h-0.1c0,0.2-0.1,0.4-0.1,0.7c-0.1-0.1-0.1-0.3-0.1-0.4s-0.1-0.2-0.2-0.4
			c-0.1,0.8,0.1,1.6,0.1,2.5c0.1,0.8,0.1,1.6,0.1,2.4c-0.1,0-0.1,0-0.1,0c-0.1-0.3-0.1-0.7-0.1-1c-0.2,0.1-0.2,0.3-0.2,0.4
			c0.1,0.2,0,0.4-0.2,0.5l0,0c-0.3,0.2-0.2,0.5-0.3,0.8c0.2-0.1,0.3-0.2,0.4-0.2l0,0c0.1,0,0.1,0,0.1,0c0.1,0.2,0.1,0.5,0.2,0.8
			c-0.1,0-0.1,0.1-0.1,0.1c-0.1-0.1-0.2-0.2-0.3-0.5c-0.3,0.9-0.8,1.6-0.9,2.5c-0.5-0.1-0.5-0.6-0.8-0.8c-0.2,0-0.4,0-0.7,0
			c-0.1-0.2-0.2-0.5-0.2-0.8c-0.2-1.2-0.4-2.4-0.6-3.6c-0.1-0.5,0-1.1-0.4-1.6c-0.1-0.8-0.5-1.5-0.4-2.3c0.1-0.8-0.1-1.6-0.1-2.3
			s0-1.6,0-2.3c0.1-1.1,0.1-2.2,0.2-3.2c0-0.2,0.1-0.4,0.1-0.6c0.5-1.4,0.5-2.8,0.7-4.2c0-0.1,0-0.2,0-0.3c0-0.1,0-0.2,0.1-0.3
			c0,0.1,0.1,0.2,0.1,0.3c-0.1,2.1-0.4,4.2-0.6,6.3c-0.1,0.8-0.2,1.6,0.1,2.4c0.1-0.6,0.1-1.3,0.2-1.9c0.2-1.4,0.4-2.8,0.5-4.1
			c0.2-1.6,0.2-3.2,0.1-4.7c0-0.5,0.1-1,0.3-1.4c0.1-0.2,0.1-0.6,0.1-0.9c0-0.4-0.1-0.7-0.1-1c-0.1-0.4,0.2-0.7,0.4-1
			c0.1-0.1,0.2-0.1,0.4-0.1c0,1.3,0.1,2.5,0.1,3.8c0.2-0.1,0.4-0.2,0.4-0.4c0-0.2-0.2-0.4,0.1-0.5c0.1-0.1,0.3-0.1,0.4-0.2
			c0.1,0,0.1-0.1,0.2-0.1c0.1,0.3,0.1,0.5,0.1,0.8c0.1,0,0.1,0,0.1,0c0.1-0.2,0.1-0.5,0.1-0.7c0.2,0.4-0.2,0.8,0.1,1.2
			c0.2,0.1,0.3-0.2,0.3-0.4c0-0.3-0.1-0.6-0.1-0.9c0-0.2,0.1-0.5,0.1-0.7c0.1,0,0.1,0,0.1,0c0,0.5,0.1,1,0.1,1.5
			c0.6,0.2,0.6,0.7,0.6,1.2c0,0.8,0,1.7,0,2.5c0,0.4,0,0.7,0,1.1c0.5-0.7,0.5-3.1,0.1-6c0.1,0.2,0.2,0.2,0.4,0.4
			c0-0.2,0-0.3,0.1-0.4c0.1,0,0.1,0,0.1,0.1c0.1,0.4,0.2,0.7,0.2,1c0,1.6,0,3.2-0.2,4.8c-0.2,1-0.2,2-0.4,3.1
			c-0.1,0.3-0.1,0.6-0.1,0.8c-0.1,0.5-0.1,1.1-0.1,1.7c0.3,0.1,0.7,0.1,1,0.1c0.7-0.1,1.4-0.1,2.1-0.2c-0.2,0.1-0.3,0.1-0.5,0.2
			c-0.8,0.1-1.6,0.2-2.3,0.3c-0.1,0-0.2,0.1-0.4,0.1c0.8,0.3,1.6-0.1,2.5,0.1c-0.5,0.4-0.9,0.1-1.3,0.2c-0.4,0.1-0.8,0.1-1.1,0.2
			c0,0.2-0.1,0.5-0.1,0.7c0.7,0.2,1.3,0.1,1.9,0c0.4-0.1,0.9-0.1,1.4-0.1c0-0.2,0.1-0.5,0-0.7c-0.1-0.2,0-0.5-0.1-0.8
			c0-0.1-0.1-0.1-0.1-0.1c0.1-0.1,0.2-0.2,0.2-0.4c0.1-0.7,0.1-1.3,0.2-1.9c0-0.6,0-1.1,0.1-1.7c0,0.3,0,0.7,0,1h0.1
			c0.2-1.5,0.4-3,0.7-4.5c0,1.1,0,2.2-0.2,3.2c0.1-0.2,0.4-1.1,0.4-1.4c0.1-0.8,0-1.6,0.4-2.2c0.1-0.1,0.1-0.3,0.1-0.5
			c0-0.2,0.1-0.4,0.3-0.6c0,0.2,0,0.4,0.1,0.7c0.3-0.4,0-0.5-0.1-0.7c0-0.2,0-0.4,0-0.5c0.1-0.4,0.1-0.7-0.1-1.1
			c-0.1-0.2,0-0.4,0.1-0.7c0.1-0.1,0.2-0.2,0.4-0.3c0.1,0.3,0.2,0.5,0.2,0.7c0,0.5-0.1,1-0.2,1.5c-0.1,0.4-0.1,0.7,0.2,0.9
			c0.1,0.1,0.2,0.4,0.2,0.5c0.1,0.1,0.1,0.2,0.2,0.4c0.1,0,0.1,0,0.2,0c0.1-0.2,0.1-0.4,0.1-0.5c0-0.2,0-0.4,0.1-0.5
			c0.2-0.4,0.4-0.7,0.5-1.1C792.5,380,792.6,380,792.7,380L792.7,380z M793.1,390.3c0.1,0,0.1,0,0.2,0c0-0.2-0.1-0.4-0.1-0.5
			c-0.1,0-0.1,0-0.2,0C793.1,389.9,793.1,390.1,793.1,390.3z M793.9,399.9c-0.1,0-0.1,0-0.1,0c0,0.2,0.1,0.5,0.1,0.7
			c0.1,0,0.1,0,0.1,0C794,400.4,793.9,400.2,793.9,399.9z M785,388.4L785,388.4c-0.1,0.2-0.1,0.5-0.1,0.7c0.1,0,0.1,0,0.1,0
			C785,388.9,785,388.7,785,388.4z M785.3,386.6L785.3,386.6c0.1-0.1,0.1-0.3,0.2-0.4c-0.1,0-0.1,0-0.1,0
			C785.3,386.3,785.3,386.4,785.3,386.6z M784.7,391.6c0.1,0,0.1,0,0.1,0.1c0-0.2,0-0.4,0.1-0.5h-0.1
			C784.7,391.3,784.7,391.4,784.7,391.6z M784.9,390L784.9,390c0.1-0.1,0.1-0.2,0.1-0.4c0,0,0,0-0.1,0
			C784.9,389.7,784.9,389.9,784.9,390z"/>
		<path fill="#FFFFFF" d="M769,385.5c0.2,0.1,0.3,0.2,0.5,0.4c-0.3,0.3-0.1,0.5,0.1,0.7c1,0.9,2,1.7,2.9,2.6l0.1-0.1
			c-0.3-0.3-0.5-0.6-0.8-0.9c0.3,0.1,0.5,0.2,0.7,0.5c0.2,0.2,0.5,0.1,0.5,0.4c0.2-0.2,0.4-0.4,0.5-0.7c0.1-0.2,0.2-0.5,0.2-0.7
			c0.1-0.6,0.2-1.1,0.8-1.5c0.2-0.1,0.4-0.4,0.2-0.7c-0.1-0.1,0.1-0.3,0.1-0.4c0.5-0.7,0.8-1.4,0.8-2.3c0-0.1,0.1-0.1,0.2-0.2
			c0.2,0.5,0.2,0.5,0.8,0.4c-0.2,0.3-0.2,0.4-0.8,0.6c0.1,0.1,0.2,0.2,0.2,0.4c0.1,0.2,0.4,0.5-0.1,0.7c-0.1,0.1,0,0.2,0,0.4
			c0.1,0,0.1,0.1,0.2,0.1c0.1-0.2,0.3-0.4,0.4-0.5c0.1-0.2,0.2-0.4,0.4-0.6c0.1-0.1,0.1-0.2,0.1-0.4c-0.1-0.8,0-0.8,0.4-1.4
			c0.2-0.3,0.7-0.5,0.7-1c0.4-0.2,0.4,0.2,0.7,0.4c0.4-0.2,0.8-0.4,1.2-0.7c0.1,0.2,0.1,0.4,0.1,0.6c-0.3,0.1-0.7,0.2-0.5,0.7
			c-0.2,0.2-0.2,0.5-0.5,0.7c-0.2,0.1-0.3,0.5-0.4,0.7c-0.3,0.7-0.7,1.4-0.6,2.2c0.3-0.1,0.6-0.2,0.8-0.5c0.1-0.1,0.4-0.1,0.5-0.2
			c0.1,0.2,0.2,0.4,0.3,0.5v0.1c-0.4,0.4-0.1,1-0.5,1.4c0.2-0.1,0.4-0.2,0.5-0.3c0.1,0.2,0.1,0.5-0.1,0.5c-0.3,0.1-0.4,0.3-0.7,0.5
			c-0.8,0.7-0.9,1.6-1.2,2.6c-0.3,1-0.1,1.9-0.2,2.9c-0.2,1.3-0.3,2.6-0.5,4c-0.1,0.4-0.2,0.8-0.1,1.2c0.1,0.2-0.2,0.5-0.3,0.8
			c-0.2-0.8-0.1-1.4,0.1-2.1c0.2-1.2,0.4-2.3,0.5-3.5c0.1-0.6,0.1-1.2,0.1-1.7c0.1-0.2-0.1-0.3-0.2-0.5c-0.1,0.1-0.1,0.2-0.1,0.4
			c-0.1,0.7-0.2,1.4-0.2,2c0,0.2,0.1,0.4,0.2,0.5c-0.1,0.1-0.2,0.1-0.2,0.2c-0.1,1-0.2,1.9-0.3,2.8c-0.2,1-0.2,2.1-0.8,3
			c-0.5,0.8-0.5,1.7-0.8,2.6c-0.1,0.4-0.1,0.8-0.1,1.3c-0.1,0.7-0.3,1.3-0.5,1.9c-0.2,0.5-0.3,1.1-0.5,1.6c-0.2,0.5-0.5,0.9-1.1,0.9
			c-0.2,0-0.4,0.2-0.7,0.3c0.1-0.1,0.2-0.2,0.2-0.3c0-0.1-0.1-0.3-0.2-0.4c-0.4-0.1-0.7-0.3-1,0.2c-0.3-0.2-0.4-0.7-0.9-0.5
			c0.1-0.1,0.2-0.2,0.4-0.4c-0.4-0.3-0.5-0.7-0.5-1.1c0.1-0.4-0.1-0.7,0.4-1c0.1,0,0.1,0.1,0.2,0.1c0.5,0.2,0.7,0.1,0.7-0.5
			c0.1-0.4,0.1-0.8,0.2-1.3c-0.2,0.1-0.2,0.2-0.4,0.2c-0.1-0.5-0.1-0.9-0.2-1.4c-0.1-0.3,0-0.7,0.1-1c0.2-0.4,0.1-0.7,0.1-1
			c0.1-0.2,0.3-0.4,0.3-0.5c0.2-1.1,0.4-2.2,0.5-3.2c0.1-0.6-0.2-1.1-0.7-1.4c-1.7-1.3-3.2-2.8-4.7-4.3c-1-1.1-1.9-2.3-2.8-3.5
			c-0.5-0.7-1.1-1.6-1.6-2.3c-0.2-0.3-0.3-0.6-0.4-0.9c-0.1-0.4-0.3-0.7-0.5-1.1c-0.1-0.2-0.2-0.5-0.4-0.9c0.4,0,0.6,0.1,0.9,0.1
			c0.1,0.7,0.9,0.4,1.3,0.9c0.2-0.5,0.2-0.9-0.1-1.3c-0.1-0.2-0.4-0.5-0.6-0.7c-0.3-0.2-0.5-0.5-0.4-1c0.5-0.1,1-0.1,1.3,0.4
			c0.2,0.2,0.5,0.5,0.8,0.6c0.5,0.1,0.8,0.4,1,0.8c0.7,0.2,1,1,1.4,1.4c0.1,0.1,0.2,0.2,0.4,0.4c0.1,0,0.1-0.1,0.1-0.1
			c0-0.1-0.1-0.3-0.1-0.5c0.1,0,0.2-0.1,0.5-0.1c-0.3,0.4-0.1,0.7,0.2,0.9c-0.2,0.1-0.2,0.1-0.4,0.2c0.1,0.1,0.2,0.2,0.2,0.2
			c0.3-0.1,0.5,0.1,0.7,0.3c0.3,0.3,0.7,0.6,1,0.8C769.1,385.8,769.1,385.7,769,385.5L769,385.5z M774.5,387.7c-0.1,0-0.1,0-0.2,0
			c0.3,0.4-0.2,0.7-0.1,1.1c0.2-0.2,0.1-0.7,0.6-0.4c0.1-0.2,0.1-0.3,0.1-0.4C774.8,387.9,774.7,387.8,774.5,387.7z M768.8,386.1
			c0.1-0.1,0.1-0.1,0.1-0.1c-0.2-0.1-0.3-0.2-0.5-0.3c0,0.1-0.1,0.1-0.1,0.1C768.5,386,768.6,386,768.8,386.1z M764.6,383
			c0.1-0.1,0.1-0.1,0.1-0.1c-0.1-0.1-0.2-0.2-0.4-0.2l-0.1,0.1C764.4,382.8,764.5,382.9,764.6,383z M770,387.5
			c0.1-0.1,0.1-0.1,0.1-0.1c0-0.1-0.1-0.1-0.1-0.1c-0.1,0-0.1,0.1-0.2,0.1C769.9,387.3,769.9,387.4,770,387.5z M775.4,386.6
			L775.4,386.6c0.1-0.1,0.1-0.2,0.1-0.4c0,0,0,0-0.1,0C775.4,386.4,775.4,386.5,775.4,386.6z"/>
		<path fill="#FFFFFF" d="M645.3,406.3c0.4-0.4,0.8-0.4,1.3-0.4c0.1,0,0.2,0,0.3,0c0-0.1,0-0.1,0-0.1c-0.2-0.1-0.5-0.1-0.8-0.1
			c-0.2-0.1-0.3-0.2-0.5-0.2c-0.2-0.1-0.5-0.2-0.5,0.3c-0.2-0.2-0.3-0.4-0.5-0.7c0.4,0,0.6,0,0.9,0c0.3,0,0.6,0.1,0.9,0.1
			c0.4,0,0.7,0.1,1,0.3c0.4,0.4,1,0.2,1.4,0.2c0.2,0,0.5,0,0.7,0c0.1,0,0.3,0,0.4-0.1c0.3-0.2,0.6-0.1,0.9-0.2
			c0.5-0.1,1-0.1,1.4,0.2c0.1,0.1,0.4,0.1,0.5,0.1c0.2,0,0.4-0.1,0.7-0.2c-0.1,0.2-0.1,0.2-0.2,0.4c0.3,0.3,0.5,0,0.8-0.1
			c-0.4,1-1.2,1.2-2,1.4c-0.1,0.5-0.1,0.6,0.7,0.5v0.1c-0.1,1,0.1,0.8,0.9,0.5c0,0.2,0.1,0.4,0,0.5c-0.3,0.2-0.2,0.7-0.7,0.8
			c-0.1,0-0.1,0.1-0.1,0.1c-0.2,0.5-0.7,0.5-1.1,0.7c-1.1,0.4-2.2,0.4-3.3,0.5c-0.1,0-0.2,0-0.3,0c-1.4-0.2-2.9-0.4-4.3-0.6
			c-0.4-0.1-0.7-0.2-1.1-0.4c-0.1,0-0.2,0-0.4,0c-0.1,0.1-0.1,0.2-0.2,0.4c-0.1-0.2-0.2-0.4-0.4-0.7c-0.5,0.1-0.7-0.3-1-0.7
			c0.3-0.4,0.1-0.9-0.1-1.4c0.2-0.1,0.4-0.1,0.5-0.2c0.1-0.1,0.1-0.4,0.1-0.5c0-0.2,0.1-0.4,0.1-0.6c0-0.4,0.1-0.8,0.1-1.3
			c0-0.8-0.1-1.6-0.1-2.4c0-0.2,0-0.4-0.2-0.5c-0.1-0.1-0.1-0.3-0.1-0.5c-0.4,0-0.7-0.1-1.1-0.1c0.3-0.1,0.5-0.2,0.7-0.2
			c-0.4-0.4-0.4-0.7,0-1.1c-0.2,0-0.5,0-0.8,0c0.4-0.3,1,0.1,1.4-0.6c-0.1-0.1-0.3-0.1-0.4-0.2c0-0.2,0-0.2,0-0.2
			c0.4-0.1,0.3-0.5,0.3-0.7c-0.1-1,0-2,0.1-3c0.1-0.5,0-1-0.1-1.5c-0.4,0.7-0.5,1.5-0.8,2.3c0.1-0.5,0.2-1.1,0.3-1.7
			c0.1-0.5,0.3-0.9-0.2-1.2c-0.1-0.4-0.2-0.6-0.6-0.5c0,0.1,0,0.2,0,0.3c-0.1-0.1-0.3-0.2-0.5-0.4c0.2-0.1,0.3-0.2,0.5-0.3
			c-0.1-0.1-0.2-0.2-0.1-0.2c0.1-0.2,0.2-0.4-0.1-0.5c-0.1-0.1-0.3-0.1-0.5-0.2c0.4-0.2,0.8-0.4,1.2-0.5c0.4-0.1,0.9-0.1,1.3-0.3
			c-0.3-0.1-0.5-0.1-1-0.1c0.2-0.5,0.5-0.9,0.7-1.4c-0.4,0-0.8,0.1-1.1,0.1c0-0.1,0-0.1,0-0.1c0.4-0.1,0.8-0.1,1.3-0.2
			c0.1-0.1,0.1-0.1,0.1-0.2c0.2-0.4,0.4-0.5,0.8-0.5c0.7,0,1.4-0.2,2.2,0c0.1,0,0.1,0,0.1,0c0.5-0.4,1.1-0.2,1.6-0.3
			c0.5-0.1,1-0.2,1.6-0.3c0.4-0.1,0.8,0.1,1.2,0.1c0.5,0.1,1.1,0.1,1.6,0.2c0.1,0,0.2,0.1,0.4,0.2c-0.4,0.1-0.5,0.1-0.7,0.2
			c0.1,0.5,0.9,0.7,1.7,0.7c-0.4,0.1-0.7,0.2-1.1,0.4c-0.3,0.1-0.6,0.3-0.8,0.5c-0.1,0.2-0.1,0.5-0.2,0.7c0.5,0.3,0.9,0.4,1.4,0.2
			c0.2-0.1,0.5,0.1,0.8,0.2c-0.3,0.3-0.7,0.4-0.7,0.7c-0.1,0.4-0.5,0.2-0.7,0.5c0.1,0.4-0.1,0.6-0.5,0.7c-0.5,0-1,0.2-1.6,0.5
			c-0.6,0.3-1.3,0.5-1.9,0.6c-1,0.2-2.1,0.4-3.2,0.7c-0.1,0.4-0.4,0.7-0.1,1.1c0.1,0.1,0,0.2,0,0.4c0,0.3-0.1,0.7-0.1,1.1
			c0.8-0.1,1.4-0.2,2-0.4c0.4-0.1,0.8-0.1,1.2-0.1c1.1,0.1,2.2,0,3.2-0.5c0.2,0.1,0.4,0.2,0.6,0.3c-0.5,0.4-1.1,0.7-1.6,1
			c-0.1,0.2-0.1,0.4-0.1,0.6s0.1,0.4,0.1,0.6c0.4-0.1,0.8-0.1,1.1-0.1c0.1,0.1,0.2,0.3,0.4,0.5c-0.1,0.1-0.2,0.2-0.4,0.4
			c-0.4,0.3-0.8,0.4-1,1c0,0.1-0.1,0.1-0.1,0.1c-0.7,0.3-1.3,1-2.1,1.1c-1.1,0.3-2.1,0.8-3.2,0.8c-0.2,0-0.3,0.1-0.5,0.2
			c0,0.6,0.1,1.1,0.3,1.7c0.2,0.5,0.2,1,0.1,1.4c-0.2-0.5-0.4-1.1-1-1.4c0,0.4-0.1,0.7-0.1,1.1c-0.4-0.9,0.2-1.8-0.1-2.7
			c-0.1,0-0.2-0.1-0.4-0.1c0,1.1-0.1,2.2-0.1,3.1c0.4,0.4,0.8,0.1,1.2,0.3c0.4,0.2,0.8,0.1,1.3,0.1
			C645.2,406.1,645.3,406.2,645.3,406.3c-0.1-0.1-0.2-0.2-0.3-0.2c-0.4,0-0.7,0-1.1,0.1c0,0,0,0,0,0.1
			C644.4,406.2,644.9,406.2,645.3,406.3z M643.2,394.5c-0.1,0-0.1,0-0.1,0c-0.1,0.2-0.2,0.5-0.3,0.8c-0.2-0.2,0.1-0.5-0.3-0.7
			c-0.2,1,0.1,1.8,0.1,2.7c0.5-0.1,0.5-0.5,0.5-0.7C643.3,395.9,643.2,395.2,643.2,394.5z M643.5,396.2c-0.1,0.1-0.1,0.1-0.1,0.1
			c0.1,0.1,0.1,0.2,0.2,0.2c0,0,0.1-0.1,0.1-0.1C643.6,396.4,643.6,396.3,643.5,396.2z M647,405.6c0-0.1,0-0.1,0.1-0.1
			c-0.1-0.1-0.2-0.1-0.2-0.1c0,0.1-0.1,0.1-0.1,0.2C646.8,405.6,646.9,405.6,647,405.6z"/>
		<path fill="#FFFFFF" d="M750.1,398c0.8-0.2,0.6-1.2,1.1-1.6c0.4-0.1,0.2,0.6,0.7,0.3c0.5-1.3,0.7-2.8,0.8-4.3
			c0.1-1,0.3-1.9,0.4-2.9c0.1-0.3,0-0.7-0.1-1c-0.1-0.2,0.1-0.4,0.2-0.7c-0.2-0.1-0.4-0.2-0.7-0.4c0.1-0.3,0.1-0.6,0.1-1
			c0.7,0.2,1.3,0.5,2,0.7c0.5-0.1,0.5-0.6,0.7-1.1c0.1,0.1,0.2,0.2,0.2,0.2s0.1,0.1,0.2,0.2c0.2-0.3,0.4-0.5,0.5-0.8
			c0.1,0.1,0.2,0.1,0.3,0.2c0.1,0.1,0.2,0.2,0.4,0.2c0.3,0.1,0.5,0.2,0.6,0.5c-0.2,0.2-0.4,0.4-0.6,0.5c0.2,0.3,0.2,0.3,0.5,0.2
			c0,0.1-0.1,0.2-0.1,0.4c0.1,0.1,0.3,0.2,0.6,0.4c-0.2,0-0.4,0.1-0.5,0.1c0.1,0.2,0.1,0.4,0.1,0.7c0.1,0.2,0.2,0.3,0.4,0.3
			c0.6,0,0.7,0.1,0.5,0.6c0.4,0.4,0.7,0.8,1,1.2c0.1,0.2,0.2,0.5,0.3,0.7c0.1,0.1,0.2,0.3,0.2,0.4c-0.1,0-0.3,0.1-0.6,0.1
			c0.4,0.4,0.5,0.9,1,1.1c0.1,0.1,0.2,0.4,0.2,0.5c0.1,0.4,0.2,0.4,0.7,0.2c0.1,0.1,0.1,0.3,0.2,0.5c0.1-0.3,0.2-0.5,0.4-0.8
			c0.4,0.7,0.9,0.5,1.5,0.5c0.6-0.1,1.3-0.1,1.9,0.2c-0.5,0.2-0.5,0.2-1,0.1c-0.4-0.1-1.3,0.1-1.8,0.3c0.1,0.1,0.2,0.2,0.3,0.2
			c0.3,0,0.5,0.1,0.5,0.5c-0.3,0-0.8-0.1-0.8,0.3c-0.1,0.4-0.3,0.4-0.6,0.4c-0.1,0.5,0,0.9,0.1,1.3c0.1,0.3,0.3,0.5,0.5,0.4
			c0.5-0.1,0.8,0.2,1.1,0.5c0.3,0.4,0.8,0.4,1.3,0.7c-0.4,0-0.7,0-1,0c0,0.1,0,0.1,0,0.1c0.2,0.1,0.4,0.1,0.7,0.2
			c0,0.2,0,0.3-0.1,0.5c-0.3,0-0.5,0-0.8,0c-0.1,0.2-0.2,0.4-0.3,0.5c-0.4,0.2-0.3,0.5-0.2,0.8c0.2,0.5,0.5,1,0.7,1.4
			c0.1,0.2,0.1,0.4,0.1,0.5c0.1,0.7,0.4,0.9,1,1c-0.2,0.5,0.4,0.8,0.4,1.3c-0.3-0.1-0.5-0.2-0.7-0.2c-0.2,0.5-0.4,0.9-0.6,1.4
			c-0.5,0.1-0.8-0.4-1-0.8c-0.4-0.6-0.6-1.2-0.9-1.9c-0.4-1-0.7-1.9-1.1-2.9c-0.2,0-0.5,0.1-0.7,0.1c-1.3,0.2-2.6,0.4-4,0.7
			c-0.4,0.1-0.5,0.1-0.7,0.5c-0.3,1-0.6,1.9-1,2.9c-0.1-0.3-0.1-0.4-0.1-0.6c-0.3,0.7-0.7,1.3-1,2c-0.4-0.1-0.5,0-0.6,0.3
			c-0.1,0.5-0.4,0.7-0.8,0.7c-0.1,0-0.2,0-0.2,0.1c-0.3,0.4-0.6,0.1-0.8-0.1c-0.1,0.1-0.1,0.1-0.4,0.3c0.1-0.4,0.1-0.6,0.2-0.8
			c-0.2,0-0.4,0-0.5-0.1c-0.2-0.9,0.5-1.7,0.2-2.6c-0.3,0.4-0.5,0.8-0.7,1.1c-0.2-0.5-0.4-1-0.1-1.6c0.3-0.7,0.4-1.4,0.6-2
			c0.3-0.8,0.2-0.8-0.3-1.6c0-0.4,0.1-0.7,0.1-1.2c0.2,0.1,0.5,0.2,0.7,0.3c0.1-0.1,0.1-0.4-0.1-0.4c-0.5,0-0.7-0.3-0.8-0.7
			C750.2,398.2,750.1,398.1,750.1,398z M758.2,392.3c-0.1,0-0.1,0.1-0.2,0.1c-0.1,1.1-0.3,2.2-0.4,3.3c0.6-0.2,1-0.3,1.6-0.5
			c-0.2-0.1-0.4-0.2-0.6-0.4c0.2-0.2,0.4-0.3,0.5-0.4C758.8,393.7,758.5,393,758.2,392.3z M756.1,386.9c0.1,0,0.1,0.1,0.1,0.1
			c0.1-0.1,0.3-0.2,0.4-0.3c0.1-0.1-0.1-0.2-0.1-0.4c-0.1,0.1-0.2,0.1-0.3,0.1C756.1,386.6,756.1,386.7,756.1,386.9z M758.8,396.9
			c-0.5,0.1-0.9,0.2-1.3,0.3C758,397.3,758.2,397.2,758.8,396.9z M762.1,394.8c0,0.2-0.1,0.5-0.1,0.7c0.1-0.1,0.2-0.1,0.3-0.1
			C762.2,395.3,762.6,395,762.1,394.8z M756.1,388.1c0.1,0,0.1,0,0.2,0.1c0-0.2,0-0.4,0.1-0.5c-0.1,0-0.1,0-0.1,0
			C756.2,387.8,756.1,387.9,756.1,388.1z"/>
		<path fill="#FFFFFF" d="M624.9,405.3c0.3,0.4,0.4,1,0.5,1.4c0.1,0.5,0.2,1.1,0.3,1.7c0.1,0.2,0.1,0.5,0.1,0.8c-0.1,0-0.1,0-0.2,0
			c-0.1-0.5-0.2-1.1-0.3-1.7c-0.5,0.1-0.5,0.2-0.5,0.5c0.1,0.4,0.2,0.8,0.2,1.1c0.1,0.6,0.2,1.3,0.2,1.9c-0.3-1-0.4-1.9-0.7-2.9
			c-0.1,0.1-0.1,0.1-0.1,0.1c0.1,0.6,0.1,1.2,0.1,1.7s0.2,1,0.3,1.6c0.1,0.3,0.1,0.7-0.3,0.9c-0.1,0.1-0.2,0.2-0.2,0.4
			c-0.2,0-0.4,0.1-0.6,0.1c-0.2-0.3-0.6-0.4-0.7-0.8c-0.2-0.8-0.4-1.6-0.5-2.3c-0.1-0.2-0.1-0.3-0.2-0.5c-0.1,0.1-0.2,0.2-0.2,0.2
			c-0.3-0.7-0.7-1.4-1-2c0.2,0.6,0.1,1.3,0.6,1.7c-0.5,0.8,0.2,1.4,0.2,2.1c-0.1,0-0.2-0.1-0.3-0.2c-0.3-1.1-0.5-2.3-1-3.5
			c-0.1-0.2-0.1-0.5-0.2-0.7c-0.1-0.2-0.2-0.3-0.4-0.2c-0.7,0.2-1.4,0-2,0.1c-0.5,0.1-1,0-1.4,0c-0.2,1-0.4,2-0.7,2.9
			c-0.3,1-0.2,1.9-0.7,2.9c-0.1-0.3-0.2-0.5-0.3-0.8c-0.2,0.2-0.2,0.3-0.4,0.4c-0.3,0.2-0.5,0.2-0.8-0.1c-0.4-0.5-0.2-1.1-0.3-1.7
			c0-0.4,0-0.8,0-1.2c0.1-0.4,0.1-0.8,0.2-1.1c0.1-0.3,0.1-0.6,0.2-0.9c0.2-0.8-0.2-1.3-0.7-1.7c-0.1-0.1-0.2-0.1-0.4-0.2
			c-0.3-0.3-0.2-0.8,0.1-1.1c0.2-0.1,0.4-0.2,0.5-0.4c-0.1-0.2-0.1-0.4-0.2-0.5c0-0.1-0.1-0.2-0.1-0.4c0.1-0.1,0.1-0.1,0.2-0.1
			c0.2,0,0.7,0.1,0.8-0.1c0.2-0.3,0.5-0.7,0.5-1.1c0-0.1,0-0.2,0.1-0.3c-0.1-0.1-0.2-0.1-0.3-0.1l0.1-0.1c0.4,0.1,0.4-0.2,0.5-0.4
			c0.4-1.1,0.8-2.1,1.1-3.2c0.2-0.5,0.2-1,0.4-1.5c0.2-0.4,0.2-1,0.8-1.2c0.1-0.1,0.2-0.3,0.3-0.5c0.1-0.3,0.1-0.5,0.5-0.7
			c0.2-0.1,0.3-0.5,0.2-0.9c-0.1-1.1-0.1-2.2-0.1-3.4c0.4,0.2,0.2,0.8,0.5,1.1c0.1-0.6,0.5-0.7,1-0.8c0.2,0.3,0.5,0.7,0.7,1
			c0.1-0.1,0.2-0.2,0.3-0.3c0.2,0.3,0.3,0.5,0.4,0.8c-0.1-0.1-0.2-0.1-0.2-0.1c0,0.1,0,0.2,0.1,0.3c0,0.1,0.1,0.1,0.1,0.1
			c0.2,0.3,0.3,0.6,0.2,1c-0.1,0.3,0,0.6,0.1,0.8c0.2,0.5,0.3,1.1,0.4,1.6c0.3,1.4,0.7,2.8,1,4.1c0.1,0.5,0.2,1.1,0.3,1.6
			c0.2,0,0.3,0,0.4,0.1c0-0.1,0.1-0.1,0.1-0.1c-0.3-1.8-0.7-3.6-1-5.4c0.1,0,0.1,0,0.1,0c0.1,0.6,0.2,1.1,0.4,1.7
			c0.3,1.4,0.6,2.7,0.9,4.1c0.1,0.4,0.3,0.2,0.7,0.1c-0.2,0.2-0.2,0.2-0.4,0.4c0.2,0.1,0.4,0.1,0.7,0.1c-0.3,0.2-0.5,0.3-0.8,0.4
			c0.1,0.3,0.1,0.6,0.2,0.9c0.4-0.1,0.7-0.1,1.1-0.1c0.1,0.4-0.4,0.1-0.4,0.4c0.2,0.1,0.4,0.2,0.6,0.4
			C625.4,403.9,624.7,404.4,624.9,405.3c-0.1-0.2-0.2-0.4-0.4-0.6c-0.1,0.2-0.2,0.4-0.1,0.5c0.2,0.5,0.4,1.1,0.5,1.7
			c0.3-0.2,0.1-0.5,0.1-0.8C625,405.7,625,405.5,624.9,405.3z M619.3,398.9c-0.7,0.5-0.2,1.1-0.4,1.7c-0.1-0.3-0.2-0.5-0.2-0.6
			c-0.1,0.6-0.3,1.1-0.4,1.7c0.4-0.1,0.7-0.2,1-0.3c0.3-0.1,0.5-0.3,0.4-0.6C619.5,400.1,619.4,399.5,619.3,398.9z M624.2,401.9
			c-0.2,0.1-0.5,0-0.4,0.4c0.1,0.4,0.1,0.5,0.6,0.5C624.3,402.5,624.2,402.2,624.2,401.9z"/>
		<path fill="#FFFFFF" d="M626.9,394.1c-0.1,0.2-0.1,0.2-0.2,0.4c-0.1-0.5,0.2-1.1-0.4-1.4c0.5-0.4,0.4-0.9,0.5-1.6
			c0.3,0.5,0.4,1,0.8,1.3c-0.2-0.4-0.4-0.7-0.1-1.1c0.1-0.2-0.1-0.5-0.1-0.7s-0.1-0.4-0.2-0.6c0.2-0.1,0.4-0.1,0.5,0.1
			c0.1,0.3,0.2,0.6,0.3,1c0.1,0.4,0.1,0.7,0.2,1.1c0.2,0.1,0.4,0.2,0.6,0.3c0.2-0.4,0.2-0.4,0.2-1.1c0,0.1,0.1,0.2,0.1,0.4
			c0,0.7,0.2,1.4,0.5,2c0.2,0.4,0.3,0.7,0.4,1.1c0.1,0.2,0.1,0.5,0.5,0.6c0.2,0.1,0.3,0.3,0.4,0.5c0.4,0.7,0.3,1.4,0.8,2
			c0.2,0.3,0.3,0.7,0.4,1.1c0.1,0.5,0.2,0.9,0.6,1.2c-0.1,0.1-0.2,0.1-0.4,0.2c0.2,0.4,0.5,0.8,0.7,1.2c0.1,0.4,0.1,0.9,0.1,1.3
			c0.1,0,0.1,0,0.1,0c0.1-0.2,0.2-0.5,0.3-0.8c0.1-0.6,0.5-1.2,0.5-1.9c0-0.1,0.1-0.2,0.2-0.2c0.4-0.6,0.7-1.2,0.8-1.9
			c0.1-0.4,0.2-0.8,0.5-1c0.1-0.1,0.2-0.2,0.2-0.4c0.2-0.4,0.3-0.8,0.5-1.2c0.4-0.8,0.4-1.6,0.4-2.4c0-0.5,0.1-0.7,0.5-1
			c0.1,0.2,0.3,0.4,0.5,0.8c0.4-1,0.8-1.9,1.2-2.8c0.2,0.6,0.2,1.1-0.1,1.7c-0.2,0.3-0.2,0.8-0.2,1.2c0,0.1,0.2,0.2,0.2,0.2
			c0.5-0.3,0.8,0.1,1.1,0.2c0.1,0,0.1,0.1,0.2,0.1c0.1-0.1,0.2-0.3,0.4-0.4c0.1,0,0.1,0.1,0.1,0.1c0,0.1,0.1,0.2,0,0.3
			c-0.3,1.1-0.5,2.2-0.9,3.4c-0.2,0.5-0.5,1-0.7,1.5c-0.1,0.2-0.1,0.4-0.2,0.5c-0.3,0.6-0.6,1.2-0.9,1.8c-0.3,0.5-0.5,1.1-0.8,1.7
			c-0.3,0.6-0.6,1.2-0.8,1.9c-0.4,1-0.8,2-1.2,3c-0.1,0.1-0.1,0.2,0,0.4c0.3,0.5,0.1,1.1,0.2,1.6c0,0.1-0.1,0.2-0.1,0.4
			c-0.2,0.1-0.5,0.1-0.6,0.1c-0.3,0.4-0.5,0.6-0.7,0.8c-0.1,0.2-0.2,0.4-0.3,0.7c-0.1,0.4-0.2,0.7-0.2,1.1c-0.1,0-0.1,0-0.1,0
			c0-0.2,0.1-0.4,0.1-0.6c-0.4,0-0.4,0.2-0.4,0.4c-0.1,0.4-0.2,0.9-0.3,1.3c-0.1,0.1-0.2,0.3-0.3,0.4c-0.5,0.2-1.1,0.4-1.7,0.5
			c-0.6-0.3-0.2-0.8-0.1-1.3c-0.5,0-0.4-0.5-0.7-0.7c-0.1,0,0-0.2,0-0.2c0.4-0.4,0.4-0.9,0.7-1.4c0.2-0.3,0.3-0.7,0.2-1.1
			c0-0.1-0.1-0.2-0.1-0.4c-0.1-0.2-0.1-0.3-0.2-0.5c-0.1,0.1-0.2,0.2-0.4,0.4c-0.1-0.5,0.5-0.8,0.2-1.3c-0.2,0.1-0.3,0.2-0.4,0.2
			c0-0.1-0.1-0.1,0-0.1c0.4-0.6,0.1-1.1-0.1-1.7c-0.4-1.3-0.8-2.5-1.2-3.7c-0.4-1.2-0.7-2.5-1-3.7c-0.1-0.2-0.2-0.5-0.2-0.8
			c-0.2-0.7-0.4-1.3-0.5-2c0.4-0.5-0.2-1,0.1-1.6C627.1,394.7,626.9,394.4,626.9,394.1z M629.5,394.8c0,0.2,0,0.4,0.1,0.6
			c0.2,1,0.9,1.9,1.3,2.8c-0.2-0.7-0.3-1.5-0.5-2.2C629.7,395.8,629.9,395.1,629.5,394.8z M629.3,394.4c0-0.1,0.1-0.2,0-0.2
			c-0.1-0.1-0.1-0.1-0.1-0.1C629.3,394.1,629.3,394.2,629.3,394.4z M632.2,402.9L632.2,402.9c0-0.2-0.1-0.2-0.1-0.4
			c0,0-0.1,0-0.1,0.1C632.1,402.6,632.2,402.8,632.2,402.9z"/>
		<path fill="#FFFFFF" d="M689.3,392.1c0.2,0.2,0.3,0.4,0.5,0.6c0.7,0.7,1.1,1.6,1.6,2.4c0.1,0.1,0,0.2,0,0.2c-0.4,0-0.4,0-1.2-0.5
			c0.1,0.4,0.3,0.7,0.2,1c0,0.3-0.2,0.7-0.4,1.1c-0.4-0.5-0.8-0.9-1.1-1.3c-0.1-0.1-0.1-0.1-0.1-0.1c-0.6-0.3-1-0.8-1.4-1.4
			c-0.6,0.4-1.1,0.8-1.6,1.3c-0.2,1.2-0.4,2.3-0.5,3.5c-0.1,0-0.2,0.1-0.5,0.1c0.1,0.3,0.2,0.6,0.2,1c-0.2,0.4-0.2,0.6,0.4,1.3
			c-0.1,0.1-0.2,0.2-0.2,0.4l0.1,0.1c0.1-0.1,0.1-0.1,0.2-0.1c0,0.3,0.6,0.3,0.3,0.8c0.1,0.1,0.1,0.1,0.2,0.1
			c0.1,0.1,0.2,0.3,0.2,0.5c-0.2-0.1-0.3-0.2-0.5-0.2l-0.1,0.1c0.1,0.2,0.2,0.4,0.4,0.7c0.2,0.3,0.3,0.6,0.4,0.9
			c0.2,0.4,0.6,0.7,1,0.8c0,0,0.1-0.1,0.2-0.2l0,0c0.3,0.4,0.6,0.5,1.1,0.4c0.4-0.1,0.8-0.2,1.3-0.2c0.1,0,0.2,0,0.4,0
			c0.2,0,0.5,0.1,0.8,0.1c0.1-0.3,0.2-0.5,0.4-0.8c0.4,0.2,0.5,0.2,0.7-0.2c0.1-0.1,0.1-0.2,0.2-0.4c0,0,0.1,0,0.1,0
			c0,0.1,0,0.2,0,0.3c0.1,0,0.1,0,0.2-0.1c0.1-0.2,0.3-0.5,0.5-0.9c0,0.3-0.1,0.5-0.1,0.8c0,0.2-0.1,0.5-0.1,0.8
			c0.2,0.1,0.4,0.1,0.6,0.2c-0.1,0.4-0.2,0.7-0.4,1.2c0.2-0.2,0.4-0.2,0.5-0.4c0.2,0.1,0.4,0.1,0.5,0.2c0,0.2,0,0.4,0,0.7
			c0.1-0.1,0.2-0.1,0.2-0.1c0.1,0.4,0.1,0.4-0.2,0.7c-0.2,0.2-0.5,0.5-0.7,0.7c-0.4,0.4-0.4,0.4-0.1,0.8c0.1,0.1,0.1,0.1,0.1,0.2
			c-0.4,0.4-0.9,0.8-1.5,1c-0.8,0.3-1.6,0.6-2.5,0.5c-0.5-0.1-1.1-0.2-1.6-0.3c-0.3-0.1-0.5-0.2-0.7-0.5c-0.2-0.2-0.4-0.5-0.8-0.5
			c-0.4,0-1.3-0.7-1.5-1.1c-0.1-0.1-0.1-0.2-0.1-0.2c0.2-0.4,0-0.5-0.2-0.8c-0.5-0.6-1-1.3-1.6-1.9c0.2-0.1,0.4-0.1,0.5-0.1
			c-0.2-0.5-0.3-1-0.5-1.5l0,0c0.1,0,0.1,0.1,0.4,0.1c-0.2-0.2-0.3-0.4-0.4-0.6c-0.1-0.1-0.1-0.2-0.1-0.2c-0.1-0.1-0.1-0.3-0.2-0.3
			c-0.4-0.1-0.4-0.4-0.5-0.7c-0.2-0.8-0.5-1.5-0.7-2.3c-0.1-0.3-0.1-0.6-0.1-0.8c0.1-1,0.1-1.9,0.2-2.8c0.1-0.8,0.3-1.6,0.7-2.3
			c0.2-0.5,0.5-1,0.8-1.6c0.4-0.8,1-1.3,1.6-1.8c0.4-0.3,0.7-0.6,1.2-0.5c0.2,0.1,0.4,0.1,0.6,0.2c0.3,0.2,0.5,0.3,1,0.1
			c0.6-0.2,1.4,0.1,1.7,0.7l0,0c-0.2-0.1-0.5-0.2-0.7-0.4c-0.4-0.2-0.6-0.2-1.1,0c0.4,0.7,1,0.8,1.6,1c-0.2,0.1-0.3,0.1-0.5,0.2
			C688.9,392,689,392.1,689.3,392.1L689.3,392.1z M685.5,392.6c0.6-0.2,1-0.6,1.4-1c-0.2,0-0.3,0.1-0.4,0.1
			c-0.2,0.1-0.3,0.1-0.5,0.1C685.8,392,685.7,392.3,685.5,392.6z"/>
		<path fill="#FFFFFF" d="M674.8,405.6c0.2-0.3,0.2-0.8-0.1-0.9c-0.5-0.2-0.5-0.7-0.5-1c-0.2-1.3-0.4-2.6-0.7-3.9
			c-0.1-0.5-0.1-1.1-0.2-1.7c0.1,0,0.1,0,0.2,0c0.1,0.7,0.2,1.3,0.3,2c0.1,0.7,0.2,1.4,0.3,2s0.3,1.3,0.5,2.1
			c0.2-0.8-0.1-1.6-0.2-2.2c-0.2-0.9-0.3-1.9-0.5-2.8c-0.1-0.6-0.2-1.2-0.3-1.8c-0.1-0.4-0.1-0.8-0.2-1.3c-0.1-0.7-0.1-1.4-0.2-2
			c0-0.2-0.1-0.4-0.1-0.6c0-0.2,0-0.4,0.1-0.6c0.4,0.7,0.4,1.5,0.5,2.4c0.4-1-0.1-1.7-0.1-2.6c0-0.8-0.4-1.6-0.6-2.5
			c0.2,0.2,0.3,0.3,0.4,0.4c0.2-0.4-0.5-0.8,0.2-1.1c0.2,0.6,0.4,1.2,0.4,1.7c0.1,0.5,0.2,0.9,0.6,1.3c0.4-0.5-0.1-1.1,0.1-1.6
			c0.4,1,0.7,2.1,1.1,3.1c0,0.1,0.1,0.2,0.1,0.2c-0.2,0.6,0.2,1.1,0.4,1.6c0.1,0.4,0.2,0.8,0.2,1.3c0.1,0.2,0.1,0.5,0.2,0.7
			s0.3,0.4,0.5,0.5c-0.1-0.6-0.2-1.2-0.4-1.8c-0.3-0.7-0.3-1.6-0.4-2.3c0-0.1,0.1-0.2,0.2-0.4c0.2,0.8,0.7,1.4,0.9,2.2
			c0.2,0.7,0.3,1.3,0.5,1.9c0.1,0.3,0.1,0.7,0.2,1c0.2,1,0.5,2,0.7,3.1c0.2,0.9,0.2,1.8,0.4,2.7c0.1,0.8,0.2,1.6,0.4,2.4
			c0.1,0.3,0.1,0.5-0.3,0.7s-0.1,0.5,0,0.7c-0.1,0.1-0.2,0.1-0.2,0.2c-0.2,0-0.5-0.4-0.5-0.7c-0.1-0.3-0.1-0.6-0.1-0.9
			c0-0.1-0.1-0.3-0.2-0.4c-0.1,0-0.1,0-0.2,0c-0.1,0.4-0.1,0.7-0.1,1v0.1c0,0.3-0.1,0.6-0.1,0.9c0.1,0.4-0.5,0.4-0.5,0.7
			c-0.4-0.4-0.7-0.7-0.9-1c-0.4,0-0.7,0.1-1,0.1C674.9,407.6,674.8,406.6,674.8,405.6L674.8,405.6z"/>
		<path fill="#FFFFFF" d="M725.3,398.4c0.1,1.9,0.1,3.7,0.1,5.6c0.1,2,0.1,4,0.2,6c0,0.6-0.1,1.3,0.3,1.8c-0.2,0-0.3,0-0.5,0.1
			c-0.2-0.2-0.1-0.6-0.1-1c0.1-0.5-0.1-1.1-0.1-1.7c0-0.6,0-1.3,0-1.9c0-0.9,0-1.7,0-2.6c0-1.3-0.1-2.6-0.1-3.9
			c0-0.8,0.1-1.7,0.1-2.5C725.3,398.3,725.3,398.3,725.3,398.4z"/>
		<path fill="#FFFFFF" d="M589,408.9c-0.1,0.1-0.2,0.1-0.2,0.2c-0.2,0.4-0.3,0.9-0.4,1.3c-0.1,0.1-0.1,0.3-0.2,0.4
			c-0.1,0-0.1,0-0.1-0.1c0.1-0.2,0.1-0.4,0.1-0.5c0.2-0.6,0.4-1.2,0.5-1.8s0.1-1.3,0.2-1.9c0.1-0.8,0.2-1.6,0.4-2.5
			c0.4,0.1,0.2,0.4,0.3,0.6c0.1,0.2,0.1,0.4,0.2,0.7c-0.2,0.4-0.3,0.8-0.4,1.3c0,0.6-0.2,1.1-0.4,1.7
			C588.8,408.6,588.9,408.8,589,408.9C588.9,408.9,589,408.9,589,408.9z"/>
		<path fill="#FFFFFF" d="M621.1,389.1c-0.2,0-0.2,0.1-0.4,0.1c-0.1,0.2-0.1,0.3-0.1,0.6c-0.1-0.3-0.1-0.5-0.1-0.7
			c-0.2,0-0.4,0-0.5,0c0.3-0.6,0.2-0.7-0.2-1.1c0-0.2,0.1-0.4,0-0.5c-0.1-0.2-0.1-0.3,0.1-0.4c0.1-0.1,0.2,0.1,0.4,0.1
			c0-0.1,0-0.2,0-0.4c0.1,0.1,0.2,0.1,0.2,0.1c0.1,0.4,0.2,0.8,0.4,1.3C620.5,388.7,621.1,388.8,621.1,389.1z"/>
		<path fill="#FFFFFF" d="M777.8,379c-0.1,0.1-0.1,0.2-0.1,0.2c-0.1,0.1-0.1,0.1-0.2,0.2c0.1,0.1,0.2,0.1,0.3,0.1
			c0.2,0.1,0.2,0.3,0.1,0.4c-0.7,0.5-1.1,1.1-1.2,2c0,0.1-0.1,0.2-0.2,0.4c-0.1-0.1-0.2-0.2-0.2-0.2c0.1-0.4,0.2-0.8,0.3-1.2
			c0.2-0.4,0.4-0.8,0.5-1.3c0.2-0.4,0.4-0.7,0.5-1C777.7,378.9,777.7,378.9,777.8,379z"/>
		<path fill="#FFFFFF" d="M725.8,398c-0.1-0.1-0.1-0.2-0.1-0.4c0-0.8,0-1.7,0-2.5c0-0.1-0.1-0.2-0.1-0.4c-0.2,0.1-0.3,0.2-0.4,0.2
			c-0.1-0.9-0.1-1.8-0.2-2.8c0.5,0.4,0.3,0.8,0.3,1.1c0.1,0.4,0,0.7,0.1,1.1c0.1-0.2,0.1-0.4,0.1-0.7c0.1,0.3,0.1,0.4,0.1,0.5h0.1
			c0-0.2,0.1-0.4,0.1-0.5C725.9,395.3,726.1,396.6,725.8,398L725.8,398z"/>
		<path fill="#FFFFFF" d="M590.2,399.2c0,0.2,0,0.4-0.1,0.5c-0.2,0.3-0.1,0.5,0.2,0.8c-0.7,0.2-0.5,0.8-0.4,1.1
			c0.1,0.5-0.2,0.9-0.2,1.4c0,0.1,0,0.1-0.1,0.1c-0.4,0.1-0.4,0.5-0.7,0.7c0.1-1,0.1-1,0.3-1.2c0,0.1,0.1,0.2,0.1,0.5
			c0.1-0.1,0.1-0.2,0.1-0.2c0.1-0.7,0.2-1.3,0.3-2c0-0.1-0.1-0.2-0.1-0.2c-0.1-0.1-0.1-0.2-0.2-0.4c0.2,0,0.3,0,0.4,0
			c0.1-0.4,0.1-0.8,0.2-1.1C590.1,399.2,590.2,399.2,590.2,399.2z"/>
		<path fill="#FFFFFF" d="M724.5,405.9c0.3,1.1,0.1,2.3,0.2,3.5c0.1,0,0.2-0.1,0.4-0.1c0,0.1,0,0.1,0,0.2c-0.1,0.2-0.3,0.3-0.5,0.5
			c-0.1-0.3-0.1-0.6-0.1-0.8C724.5,408.1,724.5,407,724.5,405.9z"/>
		<path fill="#FFFFFF" d="M806.2,379.9c1.3-0.3,2.5-0.6,3.8-0.1c-0.2,0-0.5,0.1-0.7,0.1c-0.8-0.1-1.5,0-2.2,0.1
			c-0.2,0.1-0.5,0.1-0.8,0.1C806.2,380,806.2,379.9,806.2,379.9z"/>
		<path fill="#FFFFFF" d="M725.8,398.1c0.1,0.1,0.2,0.3,0.2,0.4c0,1.1-0.1,2.1-0.1,3.2c0,0.1-0.1,0.1-0.1,0.2
			C725.6,401.4,725.6,398.9,725.8,398.1L725.8,398.1z"/>
		<path fill="#FFFFFF" d="M722.7,375.2c0.3,0.2,0.5,0.4,0.8,0.5c0.1-0.2,0.2-0.5,0.3-0.8c0.5,0.3,0.1,0.9,0.4,1.3
			c-0.2-0.1-0.3-0.1-0.5-0.2s-0.4-0.1-0.5-0.2C722.9,375.9,722.8,375.6,722.7,375.2z"/>
		<path fill="#FFFFFF" d="M808.1,378.2c0.2-0.1,0.5-0.1,0.8-0.1c0.7,0,1.5-0.1,2.2,0c0.3,0,0.6,0.1,0.9,0.4
			C810.7,378.2,809.4,378.3,808.1,378.2z"/>
		<path fill="#FFFFFF" d="M671.9,407.7c-0.1-0.1-0.1-0.2-0.2-0.2c-0.1-0.2-0.2-0.4-0.3-0.5c-0.1-0.1-0.1-0.3-0.2-0.4l0,0
			c0.1,0.1,0.2,0.1,0.2,0.1c0.5,0.6,1,1.2,1.3,1.9c-0.2-0.1-0.3-0.2-0.5-0.2C672.1,408.1,672,407.9,671.9,407.7z"/>
		<path fill="#FFFFFF" d="M724.5,402.4c0.1,1,0.2,1.9,0.1,2.9C724.4,404.3,724.4,403.4,724.5,402.4z"/>
		<path fill="#FFFFFF" d="M750.5,417.3c-0.4-0.6-0.4-1.3-0.5-2c0.5,0.3,0.1,1,0.6,1.1C750.7,416.6,750.6,416.9,750.5,417.3
			L750.5,417.3z"/>
		<path fill="#FFFFFF" d="M740.3,371.7c0.4,0.5,0.6,0.9,0.8,1.3C740.3,372.8,740.1,372.5,740.3,371.7z"/>
		<path fill="#FFFFFF" d="M748.1,415.7c0.1,0.7,0.1,1.3,0.2,2c-0.1,0-0.1,0-0.2,0c-0.2-0.5-0.2-1.2-0.2-1.7
			C748,415.8,748.1,415.8,748.1,415.7z"/>
		<path fill="#FFFFFF" d="M752.7,421.1c0.1-0.1,0.1-0.2,0.2-0.3c0,0.2,0,0.4,0,0.5c-0.1,0-0.2,0-0.2,0c-0.3-0.2-0.5-0.4-0.8-0.7
			c0.1-0.2,0.2-0.3,0.3-0.4c0,0,0.1,0,0.1,0.1C752.3,420.6,752.4,420.9,752.7,421.1z"/>
		<path fill="#FFFFFF" d="M685,409c-0.7-0.5-1.1-1-1.4-1.7c0.2,0.2,0.4,0.5,0.7,0.8C684.4,408.3,684.9,408.4,685,409z"/>
		<path fill="#FFFFFF" d="M759.7,390.2c-0.2-0.1-0.5-0.3-0.8-0.5c0.2-0.1,0.4-0.2,0.6-0.2C759.5,389.7,759.7,390,759.7,390.2z"/>
		<path fill="#FFFFFF" d="M784.3,377.4c0-0.6-0.4-1.2,0.2-1.7c-0.1,0.3-0.1,0.5-0.1,0.8C784.3,376.8,784.3,377.1,784.3,377.4z"/>
		<path fill="#FFFFFF" d="M750.5,417.3c0.1,0.8,0.2,1.6,0.3,2.5C750.7,419.4,750.5,417.9,750.5,417.3L750.5,417.3z"/>
		<path fill="#FFFFFF" d="M689.5,390.8c0.5,0.2,0.9,0.7,1.1,1.2C690.2,391.6,689.6,391.4,689.5,390.8L689.5,390.8z"/>
		<path fill="#FFFFFF" d="M830.8,375c0.2-0.1,0.4-0.1,0.5-0.2c0.4,0.4,0.4,0.9,0.4,1.5c-0.1-0.3-0.1-0.5-0.2-0.8
			C831.4,375.1,831.3,375.1,830.8,375z"/>
		<path fill="#FFFFFF" d="M764.9,398c0.5-0.2,0.9-0.3,1.4-0.1C765.8,398,765.4,398.1,764.9,398z"/>
		<path fill="#FFFFFF" d="M792.7,380c-0.1-0.7,0-1.3,0.2-1.9c0-0.1,0.1-0.1,0.2-0.2C792.9,378.6,792.8,379.4,792.7,380L792.7,380z"
			/>
		<path fill="#FFFFFF" d="M744.1,390.8c-0.1-0.6-0.2-1.1-0.2-1.7c0.3,0.5,0.3,1.1,0.4,1.7C744.2,390.8,744.1,390.8,744.1,390.8z"/>
		<path fill="#FFFFFF" d="M722.4,376.1c0.4,0.1,0.8,0.4,1.1,0.7C723.1,376.8,722.6,376.5,722.4,376.1z"/>
		<path fill="#FFFFFF" d="M686.2,401.9c0.4,0.4,0.7,0.8,0.8,1.4C686.5,403,686.3,402.5,686.2,401.9L686.2,401.9z"/>
		<path fill="#FFFFFF" d="M625.9,410.7c-0.1-0.4-0.2-0.9-0.3-1.3C626,409.8,626,410.3,625.9,410.7z"/>
		<path fill="#FFFFFF" d="M591.1,392.1c0.1,0.1,0.1,0.3,0.2,0.5c-0.1,0.1-0.2,0.2-0.4,0.4c0.1-0.4,0.1-0.6,0.1-0.9
			C591,392.1,591,392.1,591.1,392.1z"/>
		<path fill="#FFFFFF" d="M591.7,393.2c-0.1,0.2-0.2,0.3-0.2,0.5c-0.1,0-0.1,0-0.1-0.1c0.1-0.4,0.1-0.8,0.2-1.3
			C591.7,392.7,591.7,392.9,591.7,393.2C591.8,393.2,591.7,393.2,591.7,393.2z"/>
		<path fill="#FFFFFF" d="M626.2,392.4c0-0.2,0-0.5,0-0.8c0.5,0.2,0.2,0.5,0.2,0.7C626.3,392.4,626.3,392.4,626.2,392.4z"/>
		<path fill="#FFFFFF" d="M806.8,397.2c-0.4,0.1-0.7,0.1-1.1,0.1c0-0.1,0-0.1,0-0.2c0.4-0.1,0.7-0.1,1.1-0.1
			C806.8,397.1,806.8,397.1,806.8,397.2z"/>
		<path fill="#CF0A2C" d="M558.1,408c0-0.2-0.3-0.5,0.1-0.8C558.3,407.6,558.3,407.6,558.1,408z"/>
		<path fill="#FFFFFF" d="M696.2,386.4c-0.1-0.4-0.2-0.7-0.3-1C696.4,385.8,696.4,385.8,696.2,386.4z"/>
		<path fill="#FFFFFF" d="M683,403.1c0,0.2,0,0.5,0.1,0.7c-0.1,0-0.1,0-0.1,0c-0.1-0.2-0.2-0.5-0.3-0.8c0.1,0,0.1-0.1,0.1-0.1
			C682.8,403.1,682.9,403.1,683,403.1C683,403.2,683,403.1,683,403.1z"/>
		<path fill="#FFFFFF" d="M832.9,375c-0.3,0.2-0.4-0.1-0.7-0.3c0.1-0.1,0.3-0.2,0.4-0.4c0.1,0.1,0.1,0.1,0.1,0.1
			C832.7,374.7,832.8,374.9,832.9,375L832.9,375z"/>
		<path fill="#FFFFFF" d="M606.8,409.6c-0.1-0.2-0.1-0.5-0.2-0.7C607,409,607,409,606.8,409.6z"/>
		<path fill="#FFFFFF" d="M591.4,390.6c0,0.2-0.1,0.4-0.1,0.7C591.1,390.9,591.1,390.9,591.4,390.6z"/>
		<path fill="#FFFFFF" d="M603.5,391.1c-0.1-0.1-0.2-0.3-0.1-0.4c0.1-0.2,0.2-0.5,0.4-0.7C603.8,390.3,603.7,390.7,603.5,391.1
			L603.5,391.1z"/>
		<path fill="#FFFFFF" d="M749,404.6c0.1,0.4,0.1,0.7,0.2,1c-0.1,0-0.1,0-0.2,0c-0.1-0.4-0.1-0.7-0.2-1
			C748.9,404.6,749,404.6,749,404.6z"/>
		<path fill="#FFFFFF" d="M791.9,379.7c0.1-0.4,0.1-0.8,0.1-1.3c0,0,0,0,0.1,0C792,378.9,791.9,379.4,791.9,379.7
			C791.9,379.8,791.9,379.8,791.9,379.7z"/>
		<path fill="#FFFFFF" d="M746.1,400c-0.1-0.3-0.1-0.7-0.2-1c0.1,0,0.1,0,0.1,0C746.1,399.3,746.1,399.7,746.1,400L746.1,400z"/>
		<path fill="#FFFFFF" d="M785.2,401.7c0.1,0.4,0.1,0.7,0.1,1.1c-0.1,0-0.1,0-0.1,0c-0.1-0.4-0.1-0.7-0.1-1.1
			C785,401.8,785.1,401.7,785.2,401.7z"/>
		<path fill="#FFFFFF" d="M686.2,401.9c-0.2-0.4-0.3-0.7-0.5-1C686.1,401.1,686.2,401.6,686.2,401.9L686.2,401.9z"/>
		<path fill="#FFFFFF" d="M611.3,406.7c-0.2-0.2-0.4-0.3-0.3-0.7C611.3,406.1,611.3,406.4,611.3,406.7z"/>
		<path fill="#FFFFFF" d="M781.1,400.7c0,0.2,0.1,0.5,0.1,0.8c-0.1,0-0.1,0-0.1,0c0-0.1,0-0.2,0-0.3c0-0.1-0.1-0.3-0.1-0.4
			C781,400.7,781,400.7,781.1,400.7z"/>
		<path fill="#FFFFFF" d="M725.8,392.8c0,0.2,0,0.5,0,0.7c-0.1,0-0.1,0-0.1,0c-0.1-0.2-0.1-0.5,0-0.7
			C725.8,392.8,725.8,392.8,725.8,392.8z"/>
		<path fill="#FFFFFF" d="M596.8,377c-0.2,0.2-0.4,0.3-0.6,0.5c-0.1-0.1-0.1-0.1-0.1-0.1c0.2-0.2,0.4-0.4,0.5-0.5
			C596.8,376.9,596.8,377,596.8,377z"/>
		<path fill="#FFFFFF" d="M604.3,388.3c-0.2,0.3-0.4,0.6-0.5,0.9C603.8,388.4,603.8,388.4,604.3,388.3
			C604.3,388.4,604.3,388.3,604.3,388.3z"/>
		<path fill="#FFFFFF" d="M725.3,397.3c0-0.2-0.1-0.5-0.1-0.7h0.1C725.3,396.8,725.3,397.1,725.3,397.3
			C725.3,397.3,725.3,397.3,725.3,397.3z"/>
		<path fill="#FFFFFF" d="M724.7,399.5c0,0.4-0.1,0.7-0.1,1C724.4,400.2,724.5,399.8,724.7,399.5z"/>
		<path fill="#FFFFFF" d="M587.9,408.3c0.1-0.4,0.2-0.7,0.2-1c0.1,0,0.1,0,0.1,0c-0.1,0.4-0.2,0.7-0.2,1
			C587.9,408.4,587.9,408.4,587.9,408.3z"/>
		<path fill="#FFFFFF" d="M590.3,390.5c-0.1,0.2-0.2,0.4-0.2,0.5c-0.1-0.2-0.1-0.4-0.2-0.6C590.1,390.4,590.2,390.5,590.3,390.5z"/>
		<path fill="#FFFFFF" d="M749.9,411.5c0-0.2-0.1-0.4-0.1-0.7C750.1,411,750.1,411.2,749.9,411.5z"/>
		<path fill="#FFFFFF" d="M764.3,398.6c0.3,0.1,0.7,0.1,1,0.2v0.1c-0.4,0-0.7-0.1-1-0.1C764.3,398.7,764.3,398.7,764.3,398.6z"/>
		<path fill="#FFFFFF" d="M766.8,402.5c0.5,0.2,0.5,0.2,0.1,0.6C766.9,402.9,766.9,402.8,766.8,402.5z"/>
		<path fill="#FFFFFF" d="M692.3,395.3c-0.1-0.2-0.2-0.5-0.3-0.8c0.1,0,0.1,0,0.1-0.1c0.1,0.2,0.2,0.5,0.3,0.8
			C692.4,395.3,692.3,395.3,692.3,395.3z"/>
		<path fill="#CF0A2C" d="M569.6,388.2c0.5,0.2,0.3,0.4,0.2,0.8C569.8,388.7,569.7,388.5,569.6,388.2z"/>
		<path fill="#FFFFFF" d="M683.2,402.9c0.1,0.1,0.1,0.2,0.1,0.2c0,0.2,0.1,0.4,0.1,0.5l0,0c-0.1-0.1-0.2-0.2-0.2-0.2
			c-0.1-0.1-0.2-0.2-0.2-0.3l0,0C683,403,683,402.8,683.2,402.9z"/>
		<path fill="#FFFFFF" d="M682.9,406.2c-0.1-0.2-0.2-0.4-0.3-0.6c0.1,0,0.1-0.1,0.1-0.1c0.1,0.2,0.2,0.4,0.3,0.6
			C682.9,406.2,682.9,406.2,682.9,406.2z"/>
		<path fill="#FFFFFF" d="M590.3,397.5c0,0.2-0.1,0.5-0.1,0.7h-0.1c0-0.2,0-0.5,0-0.7C590.3,397.5,590.3,397.5,590.3,397.5z"/>
		<path fill="#FFFFFF" d="M606.7,412.5c0,0.2,0,0.4,0.1,0.6h-0.1C606.7,412.8,606.7,412.7,606.7,412.5z"/>
		<path fill="#CF0A2C" d="M555.2,412.4c0.1-0.2,0.2-0.4,0.4-0.7c0.2,0.5-0.1,0.5-0.2,0.8C555.3,412.5,555.2,412.5,555.2,412.4z"/>
		<path fill="#FFFFFF" d="M747.1,404.6c0.2,0.3,0.2,0.6,0.1,0.9C747.1,405.2,747.1,404.9,747.1,404.6L747.1,404.6z"/>
		<path fill="#FFFFFF" d="M747.1,404.6c-0.1-0.3-0.1-0.7-0.1-1c0.1,0,0.1,0,0.1,0C747.1,403.9,747.1,404.3,747.1,404.6L747.1,404.6z
			"/>
		<path fill="#FFFFFF" d="M685.6,399.6c0.1,0.2,0.1,0.4,0.1,0.5C685.5,399.9,685.5,399.9,685.6,399.6z"/>
		<path fill="#FFFFFF" d="M586.9,410.4c0.1-0.2,0.2-0.5,0.4-0.7c0.1,0,0.1,0.1,0.1,0.1c-0.1,0.2-0.2,0.5-0.4,0.7
			C587,410.4,587,410.4,586.9,410.4z"/>
		<path fill="#FFFFFF" d="M809.9,398.3c0.2,0,0.4,0,0.6,0v0.1c-0.2,0-0.4,0.1-0.6,0.1C809.9,398.4,809.9,398.3,809.9,398.3z"/>
		<path fill="#FFFFFF" d="M690.7,392.6c0.2,0.2,0.4,0.3,0.5,0.5c0,0.1-0.1,0.1-0.1,0.1c-0.2-0.2-0.4-0.4-0.5-0.5
			C690.6,392.6,690.7,392.6,690.7,392.6z"/>
		<path fill="#FFFFFF" d="M783.4,377c0-0.2,0.1-0.5,0.1-0.7h0.1C783.5,376.5,783.4,376.8,783.4,377C783.4,377.1,783.4,377,783.4,377
			z"/>
		<path fill="#FFFFFF" d="M804,399.3c0.3-0.1,0.7-0.1,1-0.1c0,0.1,0,0.1,0,0.1C804.7,399.3,804.4,399.3,804,399.3L804,399.3z"/>
		<path fill="#FFFFFF" d="M597.4,401.9c-0.1-0.1-0.1-0.2-0.2-0.3l0.1-0.1c0.1,0.1,0.2,0.2,0.2,0.2
			C597.5,401.8,597.4,401.8,597.4,401.9z"/>
		<path fill="#FFFFFF" d="M617.6,393.5c0.1-0.2,0.2-0.3,0.2-0.5c0.1,0,0.1,0,0.1,0.1c0,0.1-0.1,0.2-0.1,0.3
			c-0.1,0.1-0.1,0.1-0.2,0.2C617.7,393.5,617.7,393.5,617.6,393.5z"/>
		<path fill="#FFFFFF" d="M617,408.5c-0.1-0.2-0.1-0.4-0.2-0.7C617.1,408,617.3,408.2,617,408.5z"/>
		<path fill="#FFFFFF" d="M724.6,400.8c0,0.2-0.1,0.4-0.1,0.5c-0.1,0-0.1,0-0.1,0c0-0.2,0-0.4,0-0.5
			C724.5,400.8,724.6,400.8,724.6,400.8z"/>
		<path fill="#FFFFFF" d="M781.3,402.1c0.1,0.2,0.1,0.4,0.1,0.6c-0.1,0-0.1,0-0.1,0c-0.1-0.2-0.1-0.4-0.1-0.6
			C781.3,402.2,781.3,402.2,781.3,402.1z"/>
		<path fill="#FFFFFF" d="M777.9,378.7c0.2-0.1,0.4-0.2,0.5-0.4c0,0.1,0.1,0.1,0.1,0.1c-0.2,0.1-0.4,0.2-0.5,0.4
			C778,378.8,778,378.7,777.9,378.7z"/>
		<path fill="#FFFFFF" d="M750.2,410.6c-0.1,0-0.2,0-0.3-0.1c0.1-0.1,0.1-0.2,0.2-0.5C750.1,410.3,750.1,410.5,750.2,410.6z"/>
		<path fill="#FFFFFF" d="M784.4,377.9c0,0.2,0,0.4,0,0.5h-0.1c0-0.2-0.1-0.4-0.1-0.5C784.3,377.9,784.3,377.9,784.4,377.9z"/>
		<path fill="#FFFFFF" d="M784.6,401.8L784.6,401.8c-0.1-0.2-0.1-0.4-0.1-0.5l0,0C784.7,401.4,784.7,401.6,784.6,401.8z"/>
		<path fill="#FFFFFF" d="M628.3,391.5c0.1,0.2,0.2,0.4,0.3,0.5C628.4,391.8,628.4,391.8,628.3,391.5z"/>
		<path fill="#FFFFFF" d="M674.8,405.6c-0.4-0.1-0.2-0.4-0.2-0.6c0.1,0,0.1,0,0.1-0.1C674.8,405.2,674.8,405.3,674.8,405.6
			L674.8,405.6z"/>
		<path fill="#FFFFFF" d="M681.4,401.1c0-0.1,0-0.3,0-0.4c0.1,0,0.1,0,0.1,0c0,0.1,0.1,0.3,0.1,0.4
			C681.5,401.1,681.4,401.1,681.4,401.1z"/>
		<path fill="#FFFFFF" d="M607,407.4c-0.2-0.2-0.2-0.2-0.4-0.4C607,407,607,407,607,407.4z"/>
		<path fill="#FFFFFF" d="M606.4,395.3c0.1-0.2,0.1-0.3,0.1-0.5c0.1,0.1,0.1,0.1,0.1,0.1C606.6,395,606.7,395.2,606.4,395.3z"/>
		<path fill="#FFFFFF" d="M744.5,392.7c-0.1,0-0.2-0.1-0.2-0.2c0.1-0.2,0.1-0.4,0.1-0.7l0,0C744.5,392.1,744.5,392.4,744.5,392.7
			L744.5,392.7z"/>
		<path fill="#FFFFFF" d="M725.9,402.8c-0.1-0.3-0.2-0.4-0.2-0.7C725.9,402.3,725.9,402.5,725.9,402.8z"/>
		<path fill="#FFFFFF" d="M728.8,382.5c0.3,0,0.3,0.2,0.3,0.4C728.9,382.8,728.9,382.7,728.8,382.5z"/>
		<path fill="#FFFFFF" d="M789.2,385.1c0-0.2,0.1-0.4,0.1-0.7h0.1c0,0.2,0,0.4,0,0.7C789.2,385.1,789.2,385.1,789.2,385.1z"/>
		<path fill="#FFFFFF" d="M640.2,389.3c0.1,0,0.3,0,0.4,0v0.1c-0.1,0.1-0.3,0.1-0.4,0.1C640.2,389.4,640.2,389.3,640.2,389.3z"/>
		<path fill="#FFFFFF" d="M637,391.5c0-0.2,0-0.4-0.1-0.5C637.3,391.1,637.3,391.3,637,391.5z"/>
		<path fill="#FFFFFF" d="M637.1,390c-0.1,0.2-0.1,0.3-0.1,0.5c-0.1,0-0.1,0-0.1-0.1c0.1-0.2,0.1-0.3,0.1-0.5
			C637,390,637.1,390,637.1,390z"/>
		<path fill="#FFFFFF" d="M725.8,391.4c0,0.2,0,0.4-0.1,0.5h-0.1C725.7,391.7,725.7,391.5,725.8,391.4L725.8,391.4z"/>
		<path fill="#FFFFFF" d="M725.9,381c-0.1-0.1-0.1-0.2-0.2-0.3l0.1-0.1C725.8,380.8,725.8,380.9,725.9,381
			C725.9,381,725.9,381,725.9,381z"/>
		<path fill="#FFFFFF" d="M805.2,388.6c-0.4,0.2-0.4,0.2-0.5-0.1C804.8,388.6,805,388.6,805.2,388.6
			C805.2,388.7,805.2,388.6,805.2,388.6z"/>
		<path fill="#FFFFFF" d="M595.9,378.6c-0.1,0-0.1,0.1-0.1,0.1c-0.1-0.1-0.1-0.1-0.2-0.2c0.1-0.1,0.1-0.1,0.2-0.1
			C595.8,378.4,595.9,378.5,595.9,378.6z"/>
		<path fill="#CF0A2C" d="M561.9,383.6c-0.1,0.2-0.1,0.4-0.2,0.7C561.5,384,561.8,383.8,561.9,383.6z"/>
		<path fill="#FFFFFF" d="M777.5,381c0,0.1,0,0.2,0,0.4c-0.1,0-0.1,0-0.1,0c0-0.1,0-0.2,0-0.4C777.4,381,777.5,381,777.5,381z"/>
		<path fill="#CF0A2C" d="M558.7,405.4c-0.2,0.1-0.5,0.1-0.5-0.4C558.4,405.2,558.5,405.3,558.7,405.4L558.7,405.4z"/>
		<path fill="#FFFFFF" d="M765,404c0-0.1,0-0.3-0.1-0.4c0.1,0,0.1,0,0.1,0c0,0.2,0.1,0.3,0.1,0.5C765.1,404,765.1,404,765,404z"/>
		<path fill="#FFFFFF" d="M769.1,385.5c-0.1-0.1-0.2-0.2-0.3-0.4c0.1,0,0.1-0.1,0.1-0.1C769.1,385.2,769.1,385.4,769.1,385.5
			L769.1,385.5z"/>
		<path fill="#FFFFFF" d="M587.6,409.2c0.1-0.2,0.1-0.3,0.2-0.5c0.1,0,0.1,0,0.1,0.1c-0.1,0.2-0.1,0.3-0.2,0.5
			C587.6,409.2,587.6,409.2,587.6,409.2z"/>
		<path fill="#FFFFFF" d="M679.1,397.7c0-0.1-0.1-0.3-0.1-0.4h0.1c0.1,0.1,0.1,0.2,0.1,0.4C679.1,397.7,679.1,397.7,679.1,397.7z"/>
		<path fill="#FFFFFF" d="M809.9,381.2c0.1-0.3,0.4-0.2,0.6-0.1C810.4,381.2,810.1,381.2,809.9,381.2L809.9,381.2z"/>
		<path fill="#FFFFFF" d="M744.5,391.8c-0.2-0.1-0.2-0.4-0.1-0.6C744.4,391.4,744.4,391.6,744.5,391.8L744.5,391.8z"/>
		<path fill="#FFFFFF" d="M590.5,395.1c-0.1-0.1-0.1-0.3-0.1-0.4c0.1,0,0.1,0,0.1,0c0.1,0.1,0.1,0.3,0.1,0.4
			C590.5,395.1,590.5,395.1,590.5,395.1z"/>
		<path fill="#FFFFFF" d="M590,404.6c0.1-0.1,0.1-0.2,0.2-0.4c0.1,0,0.1,0,0.1,0.1c-0.1,0.1-0.1,0.3-0.1,0.4
			C590,404.6,590,404.6,590,404.6z"/>
		<path fill="#FFFFFF" d="M689.4,392.1c0.3-0.1,0.5-0.1,0.8,0.2C689.9,392.3,689.6,392.2,689.4,392.1
			C689.3,392.1,689.4,392.1,689.4,392.1z"/>
		<path fill="#FFFFFF" d="M641.2,405.9c-0.2,0.1-0.4,0.1-0.5,0.1V406C640.9,405.9,641,405.9,641.2,405.9L641.2,405.9z"/>
		<path fill="#FFFFFF" d="M749.6,408.9c0.1,0.1,0.1,0.2,0.2,0.4c-0.1,0-0.1,0.1-0.1,0.1c-0.1-0.1-0.1-0.2-0.2-0.4
			C749.5,408.9,749.6,408.9,749.6,408.9z"/>
		<path fill="#FFFFFF" d="M647.1,386.5c0.1,0,0.3,0,0.5,0C647.4,386.8,647.2,386.7,647.1,386.5z"/>
		<path fill="#FFFFFF" d="M591.7,387.8c0.1,0.2,0.1,0.5-0.1,0.7C591.4,388.2,591.7,388,591.7,387.8L591.7,387.8z"/>
		<path fill="#FFFFFF" d="M602,395c-0.1-0.1-0.2-0.1-0.2-0.1c0-0.1,0.1-0.1,0.1-0.1c0.1,0.1,0.2,0.1,0.2,0.1
			C602,394.9,602,395,602,395z"/>
		<path fill="#CF0A2C" d="M566.1,383.4c-0.1,0.1-0.1,0.1-0.2,0.2c-0.1-0.1-0.1-0.1-0.1-0.2s0.1-0.1,0.2-0.1
			C565.9,383.3,566,383.4,566.1,383.4z"/>
		<path fill="#FFFFFF" d="M597.5,400.9c0.1-0.1,0.1-0.2,0.2-0.3c0.1,0,0.1,0.1,0.1,0.1c-0.1,0.1-0.1,0.2-0.2,0.4
			C597.5,401,597.5,401,597.5,400.9z"/>
		<path fill="#FFFFFF" d="M785.6,401c0,0.2,0,0.4-0.1,0.5c0,0,0,0-0.1,0c0-0.2,0-0.4,0-0.5C785.5,401,785.6,401,785.6,401z"/>
		<path fill="#FFFFFF" d="M793.7,383c0-0.1,0-0.3,0.1-0.4h0.1C793.9,382.7,793.8,382.8,793.7,383C793.8,383,793.8,383,793.7,383z"/>
		<path fill="#FFFFFF" d="M832.9,375c0,0.2-0.2,0.4-0.3,0.5l0,0C832.3,375.2,832.7,375.2,832.9,375L832.9,375z"/>
		<path fill="#CF0A2C" d="M571.5,385.2c0,0.2,0,0.4,0,0.5C571.4,385.6,571.1,385.5,571.5,385.2z"/>
		<path fill="#FFFFFF" d="M834.1,375.6c-0.2-0.1-0.4,0.2-0.4-0.2C833.8,375.5,833.9,375.6,834.1,375.6
			C834,375.6,834.1,375.6,834.1,375.6z"/>
		<path fill="#CF0A2C" d="M567.5,384.3c-0.1,0.1-0.1,0.2-0.1,0.4c-0.1,0-0.1,0-0.1-0.1c0-0.1,0.1-0.2,0.1-0.4
			C567.5,384.3,567.5,384.3,567.5,384.3z"/>
		<path fill="#FFFFFF" d="M778.7,380.4c0,0.2-0.1,0.3-0.1,0.5h-0.1C778.6,380.7,778.6,380.6,778.7,380.4
			C778.6,380.4,778.7,380.4,778.7,380.4z"/>
		<path fill="#FFFFFF" d="M832,375.2c0.1,0.1,0.2,0.1,0.3,0.2c0,0.1-0.1,0.1-0.1,0.1c-0.1-0.1-0.2-0.1-0.4-0.2
			C832,375.2,832,375.2,832,375.2z"/>
		<path fill="#FFFFFF" d="M781.4,380.7c-0.1,0.1-0.2,0.1-0.3,0.1c0,0,0-0.1-0.1-0.1c0.1-0.1,0.2-0.1,0.3-0.2
			C781.4,380.7,781.4,380.7,781.4,380.7z"/>
		<path fill="#FFFFFF" d="M724.3,377c0.1,0.1,0.1,0.3,0.1,0.4c-0.1,0-0.1,0-0.1,0.1c-0.1-0.1-0.1-0.3-0.1-0.4
			C724.2,377.1,724.3,377,724.3,377z"/>
		<path fill="#FFFFFF" d="M807.7,398.9c0.1,0,0.2-0.1,0.3-0.1v0.1C807.8,398.9,807.7,399,807.7,398.9L807.7,398.9z"/>
		<path fill="#FFFFFF" d="M697.6,387.2c-0.2-0.1-0.3-0.2-0.3-0.5C697.6,386.8,697.6,387,697.6,387.2L697.6,387.2z"/>
		<path fill="#FFFFFF" d="M689.9,404.5c0.1-0.1,0.2-0.1,0.3-0.1c0,0,0,0.1,0.1,0.1c-0.1,0-0.1,0.1-0.1,0.1S690,404.5,689.9,404.5
			C689.9,404.6,689.9,404.5,689.9,404.5z"/>
		<path fill="#FFFFFF" d="M687.8,404.9c-0.1-0.1-0.3-0.2-0.4-0.4c0.1-0.1,0.1-0.1,0.1-0.1C687.7,404.6,687.7,404.7,687.8,404.9
			L687.8,404.9z"/>
		<path fill="#FFFFFF" d="M747.7,409.3c0-0.1,0.1-0.2,0.1-0.4h0.1C747.8,409,747.8,409.1,747.7,409.3L747.7,409.3z"/>
		<path fill="#FFFFFF" d="M809.3,398.6c-0.1,0.1-0.2,0.1-0.4,0.1v-0.1C809,398.6,809.2,398.6,809.3,398.6
			C809.3,398.6,809.3,398.6,809.3,398.6z"/>
		<path fill="#FFFFFF" d="M810.1,388.2c0.2-0.1,0.4-0.1,0.7-0.2c0,0.1,0,0.1,0,0.2C810.5,388.2,810.3,388.2,810.1,388.2L810.1,388.2
			z"/>
		<path fill="#FFFFFF" d="M812.2,381.5c0.1,0,0.3,0,0.4,0v0.1C812.5,381.6,812.3,381.5,812.2,381.5L812.2,381.5z"/>
		<path fill="#FFFFFF" d="M757.9,387.2c-0.1-0.1-0.1-0.2-0.1-0.2c0-0.1,0.1-0.1,0.1-0.1c0.1,0.1,0.1,0.1,0.2,0.1
			C758,387,758,387.1,757.9,387.2z"/>
		<path fill="#FFFFFF" d="M758.3,387.4c-0.1-0.1-0.1-0.1-0.1-0.2s0.1-0.1,0.1-0.2C758.4,387.2,758.4,387.3,758.3,387.4
			C758.5,387.3,758.4,387.4,758.3,387.4z"/>
		<path fill="#FFFFFF" d="M607,411c-0.1,0.1-0.1,0.2-0.2,0.2c0-0.1,0-0.1,0-0.2C606.7,411.1,606.8,411.1,607,411z"/>
		<path fill="#FFFFFF" d="M622,389.7c-0.1,0.2-0.1,0.4-0.1,0.6C621.6,390,621.8,389.9,622,389.7z"/>
		<path fill="#FFFFFF" d="M761.6,393.6c-0.1-0.1-0.1-0.2-0.2-0.4l0.1-0.1c0.1,0.1,0.2,0.2,0.2,0.3
			C761.7,393.5,761.7,393.5,761.6,393.6z"/>
		<path fill="#CF0A2C" d="M570.2,389.4c-0.1,0-0.2,0-0.5,0.1C570,389.1,570.1,389.3,570.2,389.4L570.2,389.4z"/>
		<path fill="#FFFFFF" d="M612.4,405.6c0-0.1,0-0.2,0-0.2c0,0,0.1,0,0.1,0c0,0.1,0,0.2,0,0.3C612.5,405.6,612.5,405.6,612.4,405.6z"
			/>
		<path fill="#FFFFFF" d="M689,404.4c0.1,0,0.2,0,0.4,0.1v0.1c-0.1,0-0.2,0-0.4,0C689,404.4,689,404.4,689,404.4z"/>
		<path fill="#FFFFFF" d="M809.9,381.2c-0.2,0-0.3,0-0.5,0.1C809.7,381,809.7,381,809.9,381.2L809.9,381.2z"/>
		<path fill="#CF0A2C" d="M563,412.5c0,0.1,0,0.1,0,0.2s-0.1,0.1-0.1,0.2v-0.1C563,412.7,563,412.7,563,412.5
			C563,412.5,563,412.5,563,412.5z"/>
		<path fill="#FFFFFF" d="M606.5,414.3c-0.1-0.1-0.2-0.1-0.3-0.2c0-0.1,0.1-0.1,0.1-0.1c0.1,0.1,0.2,0.1,0.3,0.2
			C606.6,414.2,606.6,414.3,606.5,414.3z"/>
		<path fill="#FFFFFF" d="M807,386.6c0.1-0.1,0.2-0.1,0.3-0.1v0.1C807.2,386.6,807.1,386.6,807,386.6C807,386.7,807,386.6,807,386.6
			z"/>
		<path fill="#FFFFFF" d="M805.6,399.2c0.1,0,0.2,0,0.4,0.1v0.1C805.9,399.3,805.7,399.3,805.6,399.2
			C805.6,399.2,805.6,399.2,805.6,399.2z"/>
		<path fill="#FFFFFF" d="M805.4,387.2c0.2-0.1,0.4-0.1,0.5-0.2C805.7,387.2,805.6,387.3,805.4,387.2
			C805.4,387.2,805.4,387.2,805.4,387.2z"/>
		<path fill="#FFFFFF" d="M771,387.3c0.1,0.1,0.2,0.2,0.2,0.2l-0.1,0.1C771.1,387.6,771,387.5,771,387.3
			C770.9,387.4,770.9,387.4,771,387.3z"/>
		<path fill="#FFFFFF" d="M605.2,385.5c0.1-0.1,0.1-0.2,0.1-0.2l0.1,0.1C605.3,385.4,605.3,385.5,605.2,385.5
			C605.2,385.5,605.2,385.5,605.2,385.5z"/>
		<path fill="#FFFFFF" d="M783.5,378c0-0.1,0-0.2,0-0.4l0,0C783.5,377.7,783.5,377.9,783.5,378L783.5,378z"/>
		<path fill="#FFFFFF" d="M639.9,389.4c-0.1,0.1-0.2,0.2-0.2,0.2c0-0.1-0.1-0.1-0.1-0.1c0.1-0.1,0.2-0.1,0.3-0.2
			C639.9,389.4,639.9,389.4,639.9,389.4z"/>
		<path fill="#FFFFFF" d="M643.6,405c0-0.1-0.1-0.2-0.1-0.2c0.1,0,0.1,0,0.1,0c0,0.1,0.1,0.2,0.1,0.2C643.6,405,643.6,405,643.6,405
			z"/>
		<path fill="#FFFFFF" d="M590.5,398.7c0-0.1,0-0.3-0.1-0.4c0.1,0,0.1,0,0.1,0c0,0.1,0.1,0.3,0.1,0.4
			C590.6,398.7,590.6,398.7,590.5,398.7z"/>
		<path fill="#FFFFFF" d="M748.7,409.2c0-0.1,0-0.2,0-0.4h0.1C748.7,408.9,748.7,409.1,748.7,409.2
			C748.7,409.2,748.7,409.2,748.7,409.2z"/>
		<path fill="#FFFFFF" d="M672.7,392.4c0-0.1-0.1-0.2-0.1-0.2c0.1,0,0.1,0.1,0.2,0.1c0,0,0,0.1,0,0.1
			C672.8,392.3,672.7,392.3,672.7,392.4z"/>
		<path fill="#FFFFFF" d="M675.1,389.6c0-0.1-0.1-0.2-0.1-0.2h0.1C675.2,389.4,675.2,389.5,675.1,389.6
			C675.2,389.6,675.2,389.6,675.1,389.6z"/>
		<path fill="#FFFFFF" d="M765.1,402.6c0-0.1-0.1-0.2,0-0.3c0-0.1,0.1-0.1,0.1-0.1c0,0.1,0.1,0.1,0.1,0.2
			C765.2,402.5,765.1,402.5,765.1,402.6z"/>
		<path fill="#FFFFFF" d="M743.8,388.3c0-0.1,0-0.3,0-0.4c0.1,0,0.1,0,0.1,0c0,0.1,0,0.3,0,0.4C743.8,388.3,743.8,388.3,743.8,388.3
			z"/>
		<path fill="#CF0A2C" d="M569.2,398c0.1-0.2-0.6-0.4-0.2-0.7C569.1,397.5,569.2,397.7,569.2,398z"/>
		<path fill="#FFFFFF" d="M722.7,391.8c0,0.1-0.1,0.2-0.1,0.3c-0.1,0-0.1,0-0.1,0c0-0.1,0-0.2,0-0.3
			C722.6,391.8,722.6,391.8,722.7,391.8z"/>
	</g>
</g>
</svg>
