<?xml version="1.0" encoding="utf-8"?>
<!-- Generator: Adobe Illustrator 18.1.1, SVG Export Plug-In . SVG Version: 6.00 Build 0)  -->
<svg version="1.1" id="Layer_1" xmlns="http://www.w3.org/2000/svg" xmlns:xlink="http://www.w3.org/1999/xlink" x="0px" y="0px"
	 viewBox="0 0 35.3 29" enable-background="new 0 0 35.3 29" xml:space="preserve">
<g>
	<path d="M9.7,28.9c-0.3-0.2-0.6-0.2-0.9-0.2c-0.6,0-1.1-0.1-1.7-0.2c-0.3-0.1-0.6-0.1-0.9-0.2C6,28.2,5.8,28.1,5.5,28
		c-0.3-0.2-0.6-0.3-0.9-0.5c-0.1,0-0.2-0.1-0.3-0.1c-0.2-0.1-0.3-0.2-0.4-0.3c-0.2,0.1-0.3,0-0.5-0.1c-0.3-0.1-0.6-0.2-0.9-0.3
		c0,0,0,0,0,0c-0.1-0.1-0.3-0.2-0.4-0.3c-0.1,0-0.1-0.1-0.2-0.1c-0.1,0-0.3,0-0.4-0.1c-0.1,0-0.2-0.1-0.3-0.2
		c-0.2-0.1-0.3-0.2-0.5-0.3c-0.2-0.1-0.3-0.2-0.5-0.3c-0.1,0-0.1-0.1-0.1-0.1c0-0.1-0.1-0.1,0-0.2C0,25.1,0.1,25,0.2,25
		c0.1,0,0.2,0,0.3,0c0.2,0.1,0.4,0.2,0.6,0.2c0.1,0.1,0.2,0.2,0.4,0.2l0,0c0,0,0.1,0,0.1,0.1c0,0,0,0,0,0c0.5,0.1,0.9,0.3,1.3,0.6
		c0.1,0.1,0.4,0.2,0.6,0.2c0.7,0,1.4-0.2,2.1-0.6c-0.2-0.2-0.3-0.1-0.5,0c-0.3,0.1-0.6,0.2-1,0.3c-0.1,0-0.3,0-0.4,0c0,0,0,0,0,0
		c0,0-0.1-0.1-0.1-0.1c0,0,0,0,0,0c-0.1,0-0.2,0-0.3,0l0,0c0.2-0.3,0.4-0.4,0.7-0.5c0.4-0.1,0.7-0.2,1.1-0.3c0-0.1,0-0.3,0-0.4
		c0.1,0.1,0.2,0.2,0.4,0.2c0.3-0.1,0.5-0.2,0.8-0.3c0,0,0.1,0,0.1,0c0,0,0-0.1,0-0.1c-0.2-0.1-0.4,0-0.6,0.1
		c-0.1,0.1-0.2,0.2-0.3,0.1c-0.1,0-0.2,0-0.4,0c0-0.2,0.2-0.2,0.3-0.2c0.7-0.3,1.4-0.5,2.1-0.8c0.5-0.2,1-0.6,1.6-0.9
		c0.1,0,0.1-0.1,0.1-0.2c0-0.2-0.2-0.2-0.3-0.3c-0.1-0.1-0.3-0.1-0.4-0.1c-0.4-0.1-0.8-0.2-1.1-0.6c0,0,0,0,0,0
		c-0.3,0-0.5-0.2-0.7-0.4c0,0,0,0,0,0c-0.4-0.3-0.8-0.6-1.1-1.1c-0.2-0.4-0.6-0.7-0.9-1.1c-0.1-0.2-0.2-0.3-0.4-0.5
		c0-0.1-0.1-0.2-0.1-0.2C4,18.2,4,17.9,3.9,17.6c0-0.2,0.1-0.3,0.3-0.3c0.2,0,0.3,0.1,0.4,0.1c0.6,0.1,1.3,0.1,1.9,0
		c0.1,0,0.1-0.1,0.2-0.1c-0.4-0.3-0.7-0.5-1.1-0.7C5.1,16.3,4.5,16,4,15.5c-0.4-0.4-0.8-0.8-1.1-1.2c-0.1-0.1-0.2-0.2-0.3-0.3
		c-0.4-0.3-0.6-0.7-0.8-1.2c-0.2-0.5-0.4-1-0.5-1.5c-0.2-0.5-0.3-1-0.4-1.4C0.8,9.7,0.9,9.5,1,9.3c0,0,0.1-0.1,0.1-0.1
		c0.2,0,0.5,0,0.6,0.2C2,9.8,2.4,9.9,2.8,10c0.3,0.1,0.5,0.2,0.7,0.4c0.1,0.1,0.2,0.2,0.4,0c0-0.1-0.1-0.1-0.1-0.2
		C3.2,9.5,2.6,8.7,2.2,7.8C1.9,7.2,1.7,6.5,1.6,5.8C1.5,5.4,1.5,5,1.5,4.5c0-0.3,0.1-0.6,0.1-0.9c0-0.2,0.1-0.4,0.1-0.6
		C1.8,2.6,2,2.4,2.1,2.1c0.2-0.3,0.3-0.5,0.4-0.8C2.7,1.1,2.8,1,3,0.9C3.2,0.8,3.3,0.8,3.5,1c0,0,0,0,0,0c0.2,0.3,0.4,0.7,0.7,1
		c0.1,0.1,0.1,0.2,0.2,0.3c0,0,0,0,0,0s0,0,0,0c0.1,0.1,0.2,0.2,0.3,0.3C4.8,2.7,4.9,2.8,5.1,3c0,0,0,0,0,0c0.2,0,0.4,0.2,0.4,0.4
		c0,0.1,0.1,0.2,0.1,0.3c0,0,0.1,0,0.1,0c0,0,0-0.1,0-0.1l0,0c0.1,0.1,0.2,0.1,0.3,0.2c0.5,0.5,1,1,1.6,1.3c0.1,0.1,0.2,0.2,0.3,0.2
		C8,5.4,8.2,5.5,8.4,5.6C8.6,5.7,8.8,5.9,9,6c0,0,0,0,0,0c0,0,0,0,0,0C9,6.1,9.1,6.2,9.2,6.4c0,0-0.1,0-0.1,0c0,0,0,0,0-0.1
		c0,0,0,0,0,0c0,0,0,0,0,0c0,0,0,0,0.1,0c0,0,0.1,0,0.1,0c0,0,0.1-0.1,0.1-0.1c0,0.1,0.1,0.2,0.1,0.3c0.1-0.1,0.1-0.1,0.2-0.2
		C9.7,6.4,9.9,6.6,10,6.6c0.2,0.1,0.3,0.4,0.5,0.3c0.2,0,0.4,0.1,0.6,0.2c0.2,0.1,0.3,0.2,0.5,0.3c0.2,0.1,0.5,0.2,0.7,0.3
		c0.2,0,0.4,0,0.5,0.1c0.1,0,0.2,0,0.3,0.1c0.2,0.1,0.3,0.3,0.5,0.4c0,0,0,0,0,0c0.3-0.2,0.5,0.3,0.8,0.2c0.1,0,0.1,0,0.2,0
		c0.3,0.1,0.6,0.1,1,0c0.3-0.1,0.3,0,0.6,0.2c0,0,0.1,0,0.2,0.1c0,0,0,0,0,0c0,0,0.1,0,0.1,0c0,0,0,0,0,0c0.1,0,0.2,0,0.4,0.1
		c0.3,0.1,0.5,0,0.5-0.4c0-0.3,0-0.6,0-0.9c-0.1-0.6,0.1-1.2,0.1-1.7c0,0,0,0,0-0.1c0.4-0.8,0.8-1.8,1.4-2.5
		c0.4-0.4,0.7-0.9,1.1-1.3c0.1-0.1,0.3-0.2,0.4-0.2c0,0,0,0.1,0,0.1c0,0,0,0,0,0c0,0,0,0,0-0.1c0.2-0.1,0.3-0.3,0.5-0.4
		c0.5-0.3,1-0.6,1.5-0.7c0.3-0.1,0.7-0.2,1-0.3c0.8-0.2,1.5-0.2,2.3,0c0.6,0.1,1.2,0.4,1.8,0.6c0.3,0.1,0.6,0.2,0.9,0.4
		c0.4,0.3,0.7,0.6,1.1,0.9c0.2,0.2,0.5,0.4,0.6,0.7c0.1,0.1,0.2,0.2,0.3,0.3c0.2-0.3,0.4-0.3,0.7-0.4c0.4-0.1,0.9-0.3,1.3-0.4
		c0.5-0.1,0.9-0.4,1.4-0.7c0.2-0.1,0.4-0.3,0.7-0.3l0,0c0,0,0,0.1,0,0.1c-0.1,0.8-0.5,1.5-1.1,2.1c-0.1,0.1-0.3,0.3-0.4,0.4l0,0l0,0
		c-0.1,0.3-0.2,0.5-0.4,0.6c-0.2,0.1-0.3,0.3-0.6,0.6c0.4,0,0.8,0,1.1-0.1c0.6-0.2,1.2-0.4,1.8-0.6c0,0,0,0.1,0,0.1
		c-0.1,0-0.1,0.1-0.2,0.1c0,0,0,0,0,0c0,0,0,0,0-0.1c0.1,0,0.1-0.1,0.2-0.1c0,0,0-0.1,0-0.1c0,0,0.1,0,0.1-0.1l0,0
		C35,4.1,35.1,4,35.2,4c0,0,0.1,0,0.1,0.1c0,0,0,0.1,0,0.2c0,0.1-0.1,0.1-0.2,0.2c-0.1,0.1-0.2,0.2-0.3,0.3
		c-0.1,0.2-0.2,0.4-0.4,0.6c-0.3,0.4-0.7,0.8-1.1,1.1c-0.2,0.2-0.3,0.3-0.5,0.5c0,0-0.1,0.1-0.2,0.1c0-0.1,0-0.1,0-0.2c0,0,0,0,0,0
		c-0.2,0-0.3,0.1-0.3,0.3l0,0c-0.2,0.2-0.4,0.5-0.3,0.8c0,0.1,0,0.2,0,0.3c-0.1,0.5-0.1,0.9,0,1.4c0,0.1,0,0.2,0,0.3
		c-0.1,0.6-0.2,1.2-0.3,1.8c0,0.1-0.1,0.1-0.1,0.2l0,0l0,0c0.1,0.2,0,0.4,0,0.6c-0.1,0.2-0.1,0.3-0.1,0.5l0,0l0,0
		c-0.1,0.2,0,0.4,0,0.6c-0.1,0.3-0.1,0.6-0.3,0.8c-0.3,0.6-0.5,1.2-0.7,1.9c-0.2,0.6-0.4,1.1-0.6,1.6c-0.1,0.2-0.2,0.4-0.4,0.6
		c-0.1,0.3-0.2,0.5-0.4,0.8c0,0.1-0.1,0.2-0.1,0.2c-0.6,0.9-1.1,1.8-1.9,2.6c-0.1,0.1-0.2,0.2-0.3,0.2c0,0,0,0,0,0
		c0,0.1-0.1,0.1-0.2,0.2c-0.4,0.4-0.9,0.8-1.3,1.2c0,0-0.1,0.1-0.2,0.1c-0.2,0.1-0.4,0.2-0.6,0.4l0,0c-0.3,0.2-0.6,0.3-0.7,0.6l0,0
		c-0.1,0.1-0.1,0.1-0.2,0.2l0,0c-0.2,0-0.3,0-0.4,0.1l0,0c-0.1,0.1-0.2,0.2-0.3,0.3c-0.1,0.2-0.3,0.3-0.5,0.5
		c-0.7,0.5-1.4,0.8-2.1,1.1c-0.5,0.2-1,0.4-1.6,0.6c-0.2,0.1-0.3,0.1-0.5,0.3c-0.2,0.1-0.3,0.3-0.6,0.2c0,0-0.1,0-0.2,0
		c-0.6,0.3-1.2,0.3-1.9,0.5c-0.2,0-0.3,0.1-0.5,0.1c-0.7,0.2-1.5,0.1-2.2,0.1c-0.3,0-0.7,0-1,0c-0.5,0-1,0-1.5,0c0,0,0,0,0,0
		C10.3,28.9,10,28.9,9.7,28.9C9.7,28.9,9.7,28.9,9.7,28.9z M2.4,5C2.4,5,2.4,5,2.4,5L2.4,5z M2.4,11.1L2.4,11.1
		C2.4,11.1,2.4,11.1,2.4,11.1z M2.9,11.2C2.9,11.2,2.9,11.2,2.9,11.2L2.9,11.2z M1.9,5.4C2,5.4,2,5.4,1.9,5.4C2,5.3,2.1,5.2,2.1,5.2
		c0.1,0,0.2-0.1,0.1-0.2c0-0.1,0.1-0.2,0.1-0.2c0.1,0,0.1,0,0.2,0c0.1,0,0.1,0,0.2,0C2.7,4.7,2.9,4.6,3,4.6c0.1,0,0.1-0.1,0.2-0.2
		c-0.3,0-0.4,0.2-0.6,0.4c-0.1,0-0.1,0-0.2,0c0-0.2,0-0.2-0.2-0.1c0,0,0-0.1-0.1-0.1c0-0.1,0-0.2-0.1-0.3C1.9,4.4,1.8,4.6,1.9,4.9
		C2,4.8,2,4.8,2.2,4.6c0,0,0.1,0,0.1,0.1c0,0,0,0,0,0.1c0,0.1-0.1,0.1-0.1,0.2l0,0c0,0,0.1,0,0.1,0c0,0.1,0,0.1-0.1,0.2
		C2.1,5.2,2,5.3,1.9,5.4C2,5.4,2,5.4,1.9,5.4C1.9,5.4,1.9,5.4,1.9,5.4z M18.9,4.4L18.9,4.4C18.9,4.4,18.9,4.4,18.9,4.4z M18.6,4.9
		L18.6,4.9C18.6,4.9,18.6,4.9,18.6,4.9z M18.5,26.9L18.5,26.9C18.5,26.9,18.5,26.8,18.5,26.9c0.2-0.1,0.4-0.2,0.4-0.4
		c0,0,0.1-0.1,0.1-0.1c0,0,0,0,0,0c0,0-0.1,0.1-0.1,0.1c-0.1,0-0.2-0.1-0.3,0c-0.3,0.1-0.6,0.3-0.9,0.5c-0.1-0.1-0.1-0.2-0.3-0.2
		c0,0.1,0.1,0.2,0.3,0.2c0,0,0.1,0,0.1,0c0,0,0.1,0.1,0.1,0.1c0,0,0,0.1,0,0.1c0.1-0.1,0.2-0.2,0.3-0.2l0,0
		C18.3,26.8,18.4,26.8,18.5,26.9C18.5,26.8,18.5,26.9,18.5,26.9z M18.4,9.4L18.4,9.4C18.4,9.4,18.4,9.4,18.4,9.4z M20.9,18L20.9,18
		C20.9,18,20.9,18,20.9,18z M21.2,4.7L21.2,4.7C21.2,4.7,21.2,4.7,21.2,4.7c-0.1,0.1-0.1,0.1-0.1,0.1c0,0-0.1,0-0.1,0.1
		c0,0-0.1,0.1-0.1,0.1l0,0l0,0c0,0,0.1-0.1,0.1-0.1c0,0,0.1,0,0.1-0.1C21.1,4.8,21.1,4.8,21.2,4.7C21.2,4.7,21.2,4.7,21.2,4.7z
		 M20.1,18.7L20.1,18.7C20.1,18.7,20.1,18.7,20.1,18.7z M20,19.8L20,19.8C20,19.8,20,19.8,20,19.8z M20.4,16.8
		C20.4,16.8,20.4,16.8,20.4,16.8c0.1-0.1,0.2-0.1,0.2-0.1l0,0c0,0-0.1-0.1-0.1-0.1c0,0,0,0,0-0.1c0,0,0,0,0,0.1
		c-0.2,0-0.3,0.1-0.4,0.3l0,0C20.1,16.8,20.2,16.8,20.4,16.8C20.3,16.8,20.3,16.8,20.4,16.8z M16.3,27.5
		C16.3,27.5,16.3,27.5,16.3,27.5C16.4,27.5,16.4,27.5,16.3,27.5L16.3,27.5C16.4,27.5,16.4,27.5,16.3,27.5
		C16.4,27.5,16.4,27.5,16.3,27.5C16.4,27.5,16.4,27.5,16.3,27.5C16.4,27.5,16.4,27.5,16.3,27.5z M16.3,13.6
		C16.3,13.6,16.3,13.5,16.3,13.6L16.3,13.6C16.3,13.5,16.3,13.5,16.3,13.6C16.3,13.5,16.3,13.6,16.3,13.6
		C16.3,13.6,16.3,13.6,16.3,13.6z M15.1,24L15.1,24C15.1,24,15.1,24,15.1,24z M17.4,18.8L17.4,18.8C17.4,18.8,17.4,18.8,17.4,18.8z
		 M27.9,11.2L27.9,11.2C27.9,11.2,27.9,11.2,27.9,11.2z M24.9,2L24.9,2C24.9,2,24.9,2,24.9,2z M25,4.5L25,4.5C25,4.5,25,4.5,25,4.5z
		 M24.6,2.2L24.6,2.2C24.6,2.2,24.6,2.2,24.6,2.2z M25.5,4L25.5,4C25.5,4,25.5,4,25.5,4z M27.7,8.8L27.7,8.8
		C27.7,8.8,27.7,8.8,27.7,8.8c0.1-0.1,0.1-0.2,0.1-0.2c0,0,0,0,0,0C27.8,8.7,27.8,8.7,27.7,8.8C27.7,8.8,27.7,8.8,27.7,8.8z
		 M25.3,19.4L25.3,19.4C25.3,19.4,25.3,19.4,25.3,19.4z M25.4,20.9L25.4,20.9C25.4,20.9,25.4,20.9,25.4,20.9z M27.6,2.9
		C27.6,2.9,27.6,2.9,27.6,2.9c0-0.2,0-0.3-0.2-0.3c0,0-0.1,0-0.1,0c0,0,0-0.1,0-0.1c0,0-0.1,0.1-0.1,0.1c0,0,0,0.1,0,0.1
		C27.1,2.9,27,3,26.9,2.9c0-0.1,0-0.1,0-0.2c-0.5,0.1-0.8,0.3-1.1,0.6c-0.6,0.5-1.2,1-1.7,1.5c0,0,0,0,0,0.1c0.1,0,0.2-0.1,0.2-0.1
		c0.6-0.4,1.2-0.9,1.8-1.3c0.4-0.2,0.7-0.3,1.1-0.4c0,0,0,0,0,0c0,0,0,0,0,0C27.3,3,27.4,2.9,27.6,2.9C27.6,2.9,27.6,2.9,27.6,2.9
		L27.6,2.9z M27.6,2.5C27.6,2.5,27.6,2.5,27.6,2.5L27.6,2.5z M27.6,17.3L27.6,17.3C27.6,17.3,27.6,17.3,27.6,17.3L27.6,17.3
		C27.6,17.3,27.6,17.3,27.6,17.3z M31.4,7.4L31.4,7.4C31.4,7.4,31.4,7.4,31.4,7.4z M22.3,1L22.3,1C22.3,1,22.3,1,22.3,1z M22.8,23.2
		L22.8,23.2C22.8,23.2,22.8,23.2,22.8,23.2z M22.6,20.8C22.6,20.8,22.7,20.8,22.6,20.8c0.4-0.1,0.7-0.4,0.9-0.6c0,0,0-0.1,0-0.2
		c-0.2,0.1-0.3,0.2-0.4,0.4C22.9,20.5,22.8,20.6,22.6,20.8C22.7,20.8,22.6,20.8,22.6,20.8C22.6,20.8,22.6,20.9,22.6,20.8L22.6,20.8
		C22.6,20.9,22.6,20.8,22.6,20.8z M22.5,23.6L22.5,23.6C22.5,23.6,22.5,23.6,22.5,23.6z M21.7,3.6C21.7,3.6,21.7,3.6,21.7,3.6
		L21.7,3.6z M32.5,6.2L32.5,6.2C32.5,6.2,32.5,6.2,32.5,6.2z M22,2.3C22,2.3,22,2.3,22,2.3C22,2.3,22,2.3,22,2.3
		C22,2.3,22,2.3,22,2.3C22,2.3,22,2.3,22,2.3z M32.4,4.2L32.4,4.2C32.4,4.2,32.4,4.2,32.4,4.2z M23.6,3.1
		C23.6,3.1,23.6,3.1,23.6,3.1C23.6,3.1,23.6,3.1,23.6,3.1c-0.1,0.1-0.1,0.1-0.1,0.1C23.5,3.2,23.6,3.2,23.6,3.1
		C23.6,3.1,23.6,3.1,23.6,3.1z M29.7,14.4C29.7,14.4,29.7,14.4,29.7,14.4L29.7,14.4z M29.6,14.8L29.6,14.8
		C29.6,14.8,29.6,14.8,29.6,14.8z M23.7,23.2L23.7,23.2C23.7,23.2,23.7,23.2,23.7,23.2z M30.5,6.1C30.5,6.1,30.5,6.1,30.5,6.1
		L30.5,6.1z M23.3,1.5L23.3,1.5C23.3,1.5,23.3,1.5,23.3,1.5z M23.3,5.7L23.3,5.7C23.2,5.7,23.2,5.7,23.3,5.7
		c-0.1,0.1-0.1,0.1-0.1,0.1l0,0c0,0,0,0,0,0C23.1,5.8,23.2,5.8,23.3,5.7C23.2,5.7,23.2,5.7,23.3,5.7z M30.2,7.4L30.2,7.4
		C30.2,7.4,30.2,7.4,30.2,7.4z M6.9,27.6L6.9,27.6C6.9,27.6,6.9,27.6,6.9,27.6z M7.1,6.5L7.1,6.5C7.1,6.5,7.1,6.5,7.1,6.5z
		 M8.3,26.8C8.3,26.8,8.3,26.8,8.3,26.8L8.3,26.8z M8.2,11.1C8.2,11.1,8.2,11.1,8.2,11.1L8.2,11.1z M8.4,21.8L8.4,21.8
		C8.4,21.8,8.4,21.8,8.4,21.8z M7.5,25L7.5,25C7.5,25,7.5,25,7.5,25z M4.4,7.4L4.4,7.4C4.4,7.4,4.4,7.4,4.4,7.4z M4.1,8
		C4.1,8,4.1,8,4.1,8C4.2,8,4.2,8,4.1,8c0.1-0.1,0.1-0.1,0.1-0.1C4.2,7.9,4.2,7.9,4.1,8C4.2,8,4.2,8,4.1,8z M3,12.9L3,12.9
		C3,12.9,3,12.9,3,12.9z M3.7,6.9L3.7,6.9C3.7,6.9,3.7,6.9,3.7,6.9z M3.6,14.4C3.6,14.4,3.6,14.4,3.6,14.4L3.6,14.4z M4.9,12L4.9,12
		C4.9,12,4.9,12,4.9,12z M4.7,2.8L4.7,2.8C4.7,2.8,4.7,2.8,4.7,2.8z M4.9,9.3L4.9,9.3C4.9,9.3,4.9,9.3,4.9,9.3z M11.9,27.8
		L11.9,27.8C11.9,27.8,11.8,27.8,11.9,27.8c-0.2,0.1-0.4,0.2-0.5,0.3c-0.1,0-0.2,0.1-0.3,0.2l0,0l0,0c0.1,0,0.2,0,0.4,0c0,0,0,0,0,0
		c0.1,0,0.2,0.1,0.2,0c0.4-0.1,0.8-0.2,1.2-0.3c0.1,0,0.2-0.2,0.4-0.3c-0.2,0-0.2-0.1-0.3-0.1c-0.3,0-0.6,0-0.8,0.2
		C12,27.9,11.9,28,11.9,27.8C11.8,27.8,11.9,27.8,11.9,27.8z M14.5,19.9L14.5,19.9C14.5,19.9,14.5,19.9,14.5,19.9z M14.8,27.2
		L14.8,27.2L14.8,27.2L14.8,27.2c0,0.1-0.1,0.1-0.1,0.1l0,0c-0.1,0-0.2,0.1-0.3,0.1c0,0,0,0,0,0c-0.1,0.1-0.2,0.1-0.3,0.1
		c-0.2,0-0.2,0.1-0.2,0.3c0.2-0.1,0.3-0.1,0.4-0.1c0.3-0.1,0.6-0.2,0.9-0.2c0.1,0,0.1,0.1,0.2,0.1c0,0,0,0,0-0.1
		c-0.1,0-0.1,0-0.2-0.1c0.1-0.2,0.4-0.2,0.4-0.4c-0.1-0.1-0.2-0.1-0.3,0C15.2,27.2,15,27.2,14.8,27.2C14.8,27.3,14.8,27.3,14.8,27.2
		z M14.7,13.6L14.7,13.6C14.7,13.6,14.7,13.6,14.7,13.6L14.7,13.6C14.7,13.6,14.7,13.6,14.7,13.6z M10.6,14.5
		C10.6,14.5,10.6,14.5,10.6,14.5c0.1-0.1,0.1-0.1,0.2-0.2c0,0,0,0,0,0C10.7,14.4,10.6,14.4,10.6,14.5C10.6,14.5,10.6,14.5,10.6,14.5
		z M28.9,6.5L28.9,6.5L28.9,6.5C28.9,6.5,28.9,6.5,28.9,6.5z M27.7,20.3C27.6,20.3,27.6,20.3,27.7,20.3
		C27.6,20.3,27.6,20.3,27.7,20.3c-0.1,0-0.2,0-0.3,0.1c-0.1,0.1-0.2,0.3-0.2,0.4c-0.1,0-0.1,0-0.2,0.1c-0.1,0.2-0.3,0.3-0.5,0.4l0,0
		l0,0c-0.1,0.1-0.3,0.3-0.4,0.4c-0.1,0.1-0.3,0.3-0.4,0.4c0,0,0,0,0,0.1c0,0,0,0,0,0c0,0,0,0,0,0c0,0,0,0,0-0.1
		c0.5-0.1,0.8-0.4,1.2-0.6c0.2-0.1,0.3-0.3,0.2-0.5c0.1,0,0.1,0,0.2-0.1C27.4,20.7,27.5,20.5,27.7,20.3
		C27.6,20.3,27.6,20.3,27.7,20.3L27.7,20.3z M29.7,13.6L29.7,13.6C29.7,13.6,29.7,13.6,29.7,13.6L29.7,13.6z M31.3,7.2L31.3,7.2
		C31.3,7.2,31.3,7.2,31.3,7.2L31.3,7.2z M10.3,14.6L10.3,14.6L10.3,14.6L10.3,14.6L10.3,14.6z M7.8,18.8C7.8,18.8,7.8,18.8,7.8,18.8
		c0-0.2,0-0.3-0.1-0.2c-0.3,0.1-0.6,0.3-0.9,0.4c0,0,0,0.1,0,0.3c0.1-0.1,0.2-0.1,0.2-0.1C7.2,19,7.5,18.8,7.8,18.8
		C7.8,18.8,7.8,18.8,7.8,18.8L7.8,18.8L7.8,18.8z M7.7,19.6c-0.1,0-0.1,0-0.2,0.1c0,0,0,0,0,0c0,0,0,0,0,0
		C7.6,19.6,7.7,19.6,7.7,19.6c0,0,0.1-0.1,0.1-0.1c0,0,0.1,0,0.1-0.1c0.3-0.1,0.5-0.3,0.8-0.4c0.3-0.1,0.5-0.2,0.8-0.3l0,0
		c0.1-0.1,0.2-0.2,0.4-0.3c-0.3-0.1-0.5,0.1-0.7,0.1l0,0c0,0,0,0,0,0c-0.1,0-0.1,0.1-0.2,0.1c-0.4,0.2-0.8,0.3-1.1,0.5
		c-0.2,0.1-0.4,0.2-0.6,0.2c-0.1,0-0.1,0.1-0.2,0.2C7.4,19.5,7.6,19.5,7.7,19.6C7.7,19.5,7.7,19.5,7.7,19.6z M7.6,27.3
		C7.6,27.3,7.6,27.3,7.6,27.3C7.6,27.3,7.6,27.4,7.6,27.3c0,0.1,0,0.2,0,0.2c0.1-0.1,0.2-0.1,0.2-0.1c0,0,0,0,0,0
		C7.7,27.4,7.6,27.4,7.6,27.3C7.6,27.4,7.6,27.3,7.6,27.3z M13.8,19.4L13.8,19.4L13.8,19.4C13.8,19.4,13.8,19.4,13.8,19.4z
		 M13.5,27.8c0,0,0.1,0,0.1,0.1l0,0C13.6,27.9,13.5,27.9,13.5,27.8C13.5,27.8,13.5,27.8,13.5,27.8z M14.9,27.8L14.9,27.8L14.9,27.8
		C15,27.7,14.9,27.8,14.9,27.8z M15.1,10.1L15.1,10.1L15.1,10.1L15.1,10.1L15.1,10.1z M14.4,23.4L14.4,23.4L14.4,23.4L14.4,23.4z
		 M11.4,25.6L11.4,25.6L11.4,25.6C11.3,25.6,11.4,25.6,11.4,25.6z M12.3,25.8L12.3,25.8L12.3,25.8C12.3,25.8,12.3,25.8,12.3,25.8z
		 M3,5.6L3,5.6L3,5.6C3,5.6,3,5.6,3,5.6z M3.2,3.3L3.2,3.3L3.2,3.3C3.2,3.3,3.2,3.3,3.2,3.3z M5.5,11.9C5.5,11.9,5.5,11.9,5.5,11.9
		C5.6,11.9,5.6,11.9,5.5,11.9C5.6,11.9,5.6,11.8,5.5,11.9C5.6,11.8,5.6,11.8,5.5,11.9C5.5,11.9,5.5,11.9,5.5,11.9z M6.2,7L6.2,7
		C6.2,7,6.2,7,6.2,7L6.2,7z M4.2,13.9L4.2,13.9L4.2,13.9C4.2,13.9,4.2,13.9,4.2,13.9z M22.2,6.2L22.2,6.2L22.2,6.2
		C22.2,6.2,22.2,6.2,22.2,6.2z M22.5,19.6C22.4,19.6,22.4,19.6,22.5,19.6c-0.2,0.1-0.2,0.2-0.1,0.3C22.2,20,22,20.1,22,20.4
		c0.2-0.2,0.3-0.4,0.6-0.4c0.1,0,0.2-0.2,0.3-0.3c0.1-0.1,0.1-0.2,0.1-0.3c0,0,0.1,0,0.1,0c0.1,0,0.1,0,0.2-0.1l0,0
		c0.1-0.2,0.2-0.3,0.4-0.5c0.3-0.3,0.5-0.6,0.8-0.8c0.1-0.1,0.2-0.2,0.2-0.3c-0.2,0.1-0.2,0.1-0.4,0.3c0,0-0.1,0-0.1,0.1
		c-0.5,0.2-0.8,0.7-1.2,1c-0.1,0.3-0.4,0.4-0.6,0.6C22.4,19.7,22.4,19.7,22.5,19.6C22.4,19.6,22.4,19.6,22.5,19.6L22.5,19.6
		C22.5,19.6,22.5,19.6,22.5,19.6z M23.4,6.5L23.4,6.5L23.4,6.5C23.4,6.5,23.4,6.5,23.4,6.5z M23.3,24.1
		C23.3,24.1,23.2,24.2,23.3,24.1c-0.1,0.1-0.2,0.1-0.2,0.1c0,0,0,0,0,0c0,0,0,0,0,0C23.1,24.2,23.1,24.2,23.3,24.1
		C23.2,24.1,23.2,24.1,23.3,24.1L23.3,24.1C23.3,24.1,23.3,24.1,23.3,24.1z M22.9,22.8L22.9,22.8C22.9,22.8,22.9,22.8,22.9,22.8
		L22.9,22.8z M18.5,16.4L18.5,16.4L18.5,16.4L18.5,16.4z M21.2,17.8L21.2,17.8L21.2,17.8C21.2,17.8,21.2,17.8,21.2,17.8z M21.1,23.1
		L21.1,23.1c0,0-0.1,0.1-0.1,0.1c0,0-0.1,0-0.1,0.1c0,0,0,0,0,0c0,0,0.1-0.1,0.1-0.1C21,23.1,21,23.1,21.1,23.1z M20.2,25.6
		L20.2,25.6L20.2,25.6C20.2,25.6,20.2,25.6,20.2,25.6z M20.1,15.2L20.1,15.2L20.1,15.2C20,15.2,20.1,15.2,20.1,15.2z M25.9,13.4
		L25.9,13.4L25.9,13.4C25.9,13.3,25.9,13.4,25.9,13.4z M25.8,16.5C25.8,16.5,25.8,16.5,25.8,16.5c0.1-0.1,0.1-0.1,0.1-0.1
		C25.8,16.4,25.8,16.4,25.8,16.5C25.8,16.5,25.8,16.5,25.8,16.5c0,0.1,0,0.1-0.1,0.1l0,0C25.7,16.6,25.7,16.6,25.8,16.5z M24.1,7.6
		L24.1,7.6C24.1,7.6,24.1,7.6,24.1,7.6L24.1,7.6z M23.8,7.4L23.8,7.4L23.8,7.4L23.8,7.4z M23.8,5L23.8,5L23.8,5
		C23.8,5,23.8,5,23.8,5z M25,18L25,18L25,18C24.9,18,25,18,25,18z M18.1,18.2c0-0.1,0-0.1,0.1-0.2c0,0,0.1,0,0.1,0c0,0,0,0,0,0
		c0,0-0.1,0.1-0.1,0.1C18.1,18.1,18.1,18.1,18.1,18.2L18.1,18.2C18.1,18.2,18.1,18.2,18.1,18.2z M15.3,18.1
		C15.3,18.1,15.3,18.1,15.3,18.1c0,0,0.1-0.1,0.1-0.1c0,0,0,0,0.1,0c0,0,0,0,0,0c0,0,0,0,0,0c0,0,0,0-0.1,0
		C15.4,18.1,15.4,18.1,15.3,18.1z M16.8,27.4C16.9,27.4,16.9,27.4,16.8,27.4C16.9,27.4,16.9,27.4,16.8,27.4
		C16.8,27.4,16.8,27.4,16.8,27.4z M23.7,21.3L23.7,21.3L23.7,21.3c0,0.1-0.1,0.1-0.1,0.2c-0.3,0.1-0.3,0.1-0.3,0.4
		c0.1-0.2,0.2-0.3,0.3-0.4C23.6,21.4,23.7,21.4,23.7,21.3z M3,11.5C3,11.5,3,11.5,3,11.5c0,0.1,0,0.2,0,0.3c0.3-0.1,0.5-0.2,0.6-0.4
		c-0.1-0.2-0.2-0.1-0.3,0C3.1,11.4,3.1,11.5,3,11.5C3,11.5,3,11.5,3,11.5C3,11.4,3,11.4,3,11.5C3,11.4,3,11.4,3,11.5z M23.3,23.7
		C23.3,23.8,23.3,23.8,23.3,23.7C23.3,23.8,23.3,23.7,23.3,23.7C23.4,23.7,23.4,23.7,23.3,23.7C23.4,23.7,23.4,23.7,23.3,23.7z
		 M28.6,10.9C28.6,10.9,28.6,10.9,28.6,10.9c0,0.2,0,0.3-0.1,0.4c-0.3,0.1-0.3,0.3-0.4,0.5c0,0.1,0.1,0.1,0.1,0.2l0,0
		c0,0.1,0,0.1,0,0.2c-0.1,0-0.2-0.1-0.3-0.1c-0.3,0.4-0.7,0.8-0.8,1.3c0.3-0.3,0.6-0.7,0.8-1.1c0,0,0,0,0,0c0,0,0.1,0.1,0.1,0.1l0,0
		c0,0,0,0.1,0,0.1l0,0c0.1-0.2,0.2-0.3,0.4-0.5c0.2-0.2,0.3-0.5,0.5-0.7c0.2-0.3,0.5-0.6,0.7-1c0.1-0.1,0.2-0.2,0-0.3
		c0-0.2,0-0.4,0.2-0.4c0,0.1-0.1,0.2-0.1,0.3c0.1-0.1,0.1-0.2,0.1-0.3C30,9.3,30.1,9,30.2,8.7c0.1-0.2,0.2-0.4,0.2-0.6
		c-0.1,0-0.1,0.1-0.2,0.1c-0.2,0.3-0.5,0.5-0.8,0.5c-0.1,0-0.1,0.1-0.1,0.2c-0.2,0-0.4,0.1-0.5,0.3c-0.1,0.2-0.2,0.3-0.3,0.5
		c0-0.2,0.1-0.3,0.1-0.5c-0.1,0-0.1,0-0.2,0.1c0,0,0,0-0.1,0.1c-0.1,0-0.2,0-0.2,0c-0.4,0.2-0.8,0.4-1.1,0.6c0,0.1,0.1,0.2,0.1,0.4
		c-0.1,0-0.2,0-0.3,0c-0.2,0.1-0.3,0.3-0.4,0.5c0,0,0,0.1,0,0.2c0,0.1-0.1,0.2-0.1,0.4c0,0,0,0.1-0.1,0.1c0,0,0,0,0,0.1
		c-0.2,0.2-0.4,0.4-0.6,0.6c0,0-0.1,0.1-0.1,0.2c0,0.2-0.1,0.3-0.2,0.5c-0.1,0.1-0.1,0.2,0,0.2c0,0,0,0,0,0c0.1,0,0.1,0,0.2,0.1
		c0-0.2,0.3-0.3,0.4-0.4c0.2-0.3,0.4-0.6,0.6-0.8c0.1-0.2,0.3-0.4,0.5-0.6c-0.2,0-0.3,0.1-0.4,0.1c0.1-0.3,0.2-0.5,0.4-0.7
		c0.1-0.1,0.1-0.2,0.2-0.3c0.1,0,0.1-0.1,0.2-0.1c0.1,0,0.2,0,0.2-0.1c0.1-0.2,0.3-0.2,0.5-0.3c0.2-0.1,0.4-0.2,0.4-0.4
		c0,0,0,0,0.1-0.1c0,0.1,0.1,0.2,0.1,0.3c0,0.1,0,0.1,0.1,0.2c-0.1,0.2-0.1,0.3-0.3,0.4l0,0c-0.1,0.1-0.1,0.3-0.2,0.4
		c-0.2,0.3-0.4,0.6-0.6,0.9c0,0,0,0,0,0c-0.1,0.1-0.1,0.2-0.2,0.4c0,0,0,0.1,0,0.1c0,0.1,0,0.2-0.1,0.3c0,0,0,0,0.1,0
		c0-0.1,0.1-0.2,0.1-0.3c0.3-0.4,0.4-0.8,0.9-1c0,0,0.1-0.1,0.1-0.1c0.4-0.5,0.8-1.1,1.1-1.7c0,0,0.1,0,0.1,0l0,0
		c0.1,0.1,0,0.3-0.1,0.4c-0.1,0.1-0.1,0.1-0.1,0.2l0,0c-0.1,0.3,0.1,0.4,0.3,0.5c0,0.1-0.1,0.1-0.1,0.2l0,0c0,0-0.1-0.1-0.2-0.1
		c-0.1,0.1-0.1,0.2-0.2,0.3c0,0-0.1,0-0.1,0c0,0,0,0,0,0c0,0,0,0,0,0c0,0.2-0.1,0.3-0.1,0.5c0,0.1-0.1,0.3-0.2,0.4
		c-0.1,0.1-0.1,0.1-0.2,0C28.6,11.2,28.7,11.1,28.6,10.9C28.6,10.9,28.6,10.9,28.6,10.9C28.6,10.9,28.6,10.9,28.6,10.9
		C28.6,10.9,28.6,10.9,28.6,10.9z M24.7,18.8L24.7,18.8C24.6,18.9,24.6,18.9,24.7,18.8C24.6,18.9,24.6,18.9,24.7,18.8z M28.2,2.9
		L28.2,2.9L28.2,2.9C28.2,2.9,28.2,2.9,28.2,2.9C28.2,2.9,28.2,2.9,28.2,2.9z M2.7,5.3C2.7,5.3,2.7,5.3,2.7,5.3
		C2.7,5.3,2.7,5.3,2.7,5.3C2.7,5.3,2.7,5.3,2.7,5.3z M16.2,27C16.2,27,16.2,27,16.2,27C16.2,27,16.2,27,16.2,27L16.2,27L16.2,27z
		 M19.5,14.9L19.5,14.9L19.5,14.9C19.5,14.9,19.4,14.9,19.5,14.9C19.4,14.9,19.4,14.9,19.5,14.9C19.5,14.9,19.5,14.9,19.5,14.9z
		 M6.5,26.9C6.6,26.9,6.6,26.9,6.5,26.9C6.6,26.9,6.6,26.9,6.5,26.9C6.5,26.9,6.5,26.9,6.5,26.9z M22.2,0.7L22.2,0.7
		C22.2,0.7,22.2,0.7,22.2,0.7C22.2,0.7,22.2,0.7,22.2,0.7C22.2,0.7,22.2,0.7,22.2,0.7z M20.8,20.2L20.8,20.2
		C20.8,20.2,20.8,20.3,20.8,20.2C20.8,20.3,20.8,20.2,20.8,20.2z M20.6,15.9L20.6,15.9L20.6,15.9C20.7,15.9,20.7,15.9,20.6,15.9
		C20.7,15.9,20.7,15.9,20.6,15.9z M18,12.9C18,12.9,18.1,12.9,18,12.9C18.1,12.9,18,12.9,18,12.9C18,12.9,18,12.9,18,12.9z M4,8.4
		C4,8.4,4,8.4,4,8.4C4,8.4,4,8.4,4,8.4C4,8.4,4,8.3,4,8.4c0-0.1,0-0.1,0-0.1c0,0,0,0-0.1,0c0,0,0,0,0,0.1C3.9,8.3,4,8.3,4,8.4
		C4,8.3,4,8.4,4,8.4z M26.8,17.5C26.8,17.5,26.7,17.5,26.8,17.5c-0.1,0.2-0.2,0.2-0.1,0.4C26.7,17.7,26.7,17.6,26.8,17.5
		C26.7,17.5,26.8,17.5,26.8,17.5C26.8,17.4,26.8,17.4,26.8,17.5C26.8,17.4,26.8,17.4,26.8,17.5z M27.2,3.9
		C27.2,3.9,27.2,3.9,27.2,3.9C27.2,3.9,27.2,3.9,27.2,3.9L27.2,3.9C27.2,3.9,27.2,3.9,27.2,3.9z M27.2,3.4c-0.1,0-0.1,0-0.2,0
		c-0.1-0.1-0.1-0.1-0.2-0.1c0,0-0.1,0.1-0.1,0.1c0,0,0,0,0,0c0,0,0.1-0.1,0.1-0.1c0.1,0,0.1,0.1,0.2,0.1C27.1,3.4,27.2,3.4,27.2,3.4
		C27.2,3.4,27.3,3.4,27.2,3.4C27.3,3.4,27.2,3.4,27.2,3.4z M26.5,13.5L26.5,13.5L26.5,13.5c0,0.1-0.1,0.1-0.1,0.1c0,0,0,0-0.1,0.1
		c-0.1,0.1-0.2,0.2-0.3,0.3c0,0.1-0.1,0.1-0.1,0.2c-0.3,0.2-0.5,0.4-0.7,0.8c-0.2,0.3-0.5,0.5-0.6,0.9c0.2,0,0.3-0.2,0.4-0.3
		c0.3-0.3,0.6-0.6,0.9-1c0.1-0.1,0.2-0.2,0.2-0.2c0.3-0.3,0.3-0.3,0.2-0.7c0,0,0,0,0.1-0.1C26.4,13.6,26.4,13.6,26.5,13.5z
		 M10.9,27.9C10.9,27.9,11,27.9,10.9,27.9C11,27.9,10.9,27.9,10.9,27.9c0,0.1-0.1,0.1-0.1,0.2c-0.2,0-0.4,0.1-0.7,0.1l0,0
		c0.4,0.2,0.5,0.2,0.7-0.1C10.8,28,10.9,27.9,10.9,27.9z M13,19C13,19,13,19,13,19C13,19,13,19,13,19C13,19,13,19,13,19z M27.8,20.2
		C27.8,20.2,27.8,20.2,27.8,20.2C27.8,20.2,27.8,20.2,27.8,20.2L27.8,20.2L27.8,20.2z M26.7,12.9L26.7,12.9L26.7,12.9
		c0,0-0.1,0-0.1,0c0.1-0.1,0.1-0.2,0.2-0.4c0.1-0.1,0.2-0.2,0-0.3c0,0.2,0,0.3,0,0.3c-0.3,0-0.4,0.2-0.5,0.5
		c0.2-0.1,0.2-0.1,0.3-0.1C26.6,12.9,26.7,12.9,26.7,12.9z M20.4,22.8C20.4,22.8,20.4,22.8,20.4,22.8C20.4,22.9,20.4,22.9,20.4,22.8
		C20.4,22.8,20.4,22.8,20.4,22.8L20.4,22.8z M5.6,8.6C5.6,8.6,5.5,8.7,5.6,8.6C5.4,8.7,5.3,8.7,5.3,8.9C5.4,8.8,5.5,8.7,5.6,8.6
		C5.5,8.7,5.6,8.6,5.6,8.6C5.6,8.6,5.7,8.6,5.6,8.6C5.6,8.6,5.6,8.6,5.6,8.6z M8.7,15.7C8.7,15.7,8.7,15.7,8.7,15.7
		C8.7,15.7,8.7,15.7,8.7,15.7C8.7,15.7,8.8,15.7,8.7,15.7C8.8,15.6,8.8,15.6,8.7,15.7C8.8,15.6,8.8,15.6,8.7,15.7
		C8.7,15.7,8.7,15.7,8.7,15.7z M8.6,14.5C8.6,14.4,8.6,14.4,8.6,14.5C8.6,14.4,8.5,14.4,8.6,14.5C8.5,14.4,8.5,14.4,8.6,14.5
		C8.6,14.4,8.6,14.4,8.6,14.5L8.6,14.5z M8.7,26.7L8.7,26.7C8.6,26.7,8.6,26.7,8.7,26.7C8.6,26.8,8.6,26.8,8.7,26.7
		C8.6,26.8,8.6,26.8,8.7,26.7C8.6,26.8,8.6,26.7,8.7,26.7z M8.7,14.1L8.7,14.1C8.7,14.1,8.7,14.1,8.7,14.1C8.7,14,8.7,14,8.7,14.1
		C8.7,14,8.7,14,8.7,14.1C8.7,14.1,8.7,14.1,8.7,14.1z M9.8,9.7L9.8,9.7C9.8,9.7,9.8,9.7,9.8,9.7C9.8,9.7,9.8,9.7,9.8,9.7
		C9.8,9.8,9.8,9.8,9.8,9.7C9.8,9.7,9.8,9.7,9.8,9.7z M14.1,16L14.1,16c0,0,0.1,0,0.1,0c0,0,0,0,0,0C14.2,16,14.2,16,14.1,16z
		 M14.6,22.6c0,0,0,0.1,0,0.1C14.6,22.7,14.6,22.7,14.6,22.6C14.6,22.7,14.6,22.7,14.6,22.6C14.6,22.6,14.6,22.6,14.6,22.6
		C14.6,22.6,14.5,22.6,14.6,22.6C14.6,22.6,14.6,22.6,14.6,22.6z M14.6,22.3L14.6,22.3C14.6,22.3,14.6,22.3,14.6,22.3
		C14.6,22.3,14.6,22.3,14.6,22.3z M8.2,17.1L8.2,17.1c0,0-0.1,0-0.1,0c0,0,0,0,0,0.1C8.2,17.1,8.2,17.1,8.2,17.1z M23.1,3.4
		C23.1,3.4,23.1,3.4,23.1,3.4c0,0.1-0.1,0.1-0.1,0.2c-0.3,0.1-0.5,0.2-0.7,0.4c0.3,0,0.5-0.2,0.7-0.4C23,3.5,23.1,3.4,23.1,3.4z
		 M25.7,1.2C25.7,1.2,25.7,1.2,25.7,1.2c0-0.1,0-0.1,0-0.2c0,0,0,0,0-0.1c0,0,0,0.1,0,0.1C25.6,1.1,25.7,1.1,25.7,1.2
		C25.7,1.2,25.7,1.2,25.7,1.2C25.7,1.3,25.6,1.3,25.7,1.2C25.6,1.3,25.6,1.3,25.7,1.2C25.6,1.3,25.6,1.3,25.7,1.2
		C25.7,1.3,25.7,1.3,25.7,1.2z M2.6,7.2C2.6,7.1,2.7,7.1,2.6,7.2C2.7,7.1,2.6,7.2,2.6,7.2C2.6,7.2,2.6,7.2,2.6,7.2z M28.6,18.8
		C28.6,18.7,28.6,18.7,28.6,18.8C28.6,18.7,28.6,18.7,28.6,18.8C28.6,18.7,28.6,18.8,28.6,18.8C28.6,18.8,28.6,18.8,28.6,18.8z
		 M28.8,7.5c-0.1-0.1-0.1,0-0.1,0.1c0,0-0.1,0.1-0.1,0.1c0,0,0,0,0.1,0c0,0,0-0.1,0-0.1C28.7,7.6,28.8,7.5,28.8,7.5L28.8,7.5z
		 M29.8,13.9C29.8,13.8,29.7,13.8,29.8,13.9C29.7,13.8,29.8,13.8,29.8,13.9L29.8,13.9L29.8,13.9z M21.7,15.8
		C21.7,15.8,21.6,15.8,21.7,15.8C21.6,15.8,21.7,15.8,21.7,15.8C21.7,15.8,21.7,15.8,21.7,15.8C21.7,15.7,21.7,15.7,21.7,15.8
		C21.7,15.7,21.7,15.7,21.7,15.8C21.7,15.7,21.7,15.8,21.7,15.8z M21.4,1.2L21.4,1.2c0.1-0.1,0.1-0.1,0.2-0.1l0,0
		C21.5,1.1,21.4,1.1,21.4,1.2z M26.5,6.7L26.5,6.7C26.5,6.7,26.4,6.7,26.5,6.7C26.4,6.7,26.4,6.8,26.5,6.7
		C26.4,6.8,26.4,6.8,26.5,6.7C26.5,6.8,26.5,6.7,26.5,6.7z M27.2,10.7C27.2,10.7,27.2,10.8,27.2,10.7C27.2,10.8,27.2,10.7,27.2,10.7
		C27.2,10.7,27.2,10.7,27.2,10.7c-0.1,0-0.2,0.1-0.3,0.1c0,0,0,0,0,0.1C27,10.8,27.1,10.8,27.2,10.7C27.2,10.7,27.2,10.7,27.2,10.7z
		 M22.6,4.7C22.6,4.7,22.7,4.7,22.6,4.7C22.7,4.6,22.7,4.6,22.6,4.7C22.7,4.6,22.7,4.6,22.6,4.7C22.6,4.6,22.6,4.7,22.6,4.7
		c-0.1,0.1-0.1,0.1-0.2,0.2c-0.1,0-0.1,0.1-0.2,0.1C22.1,5,22,5.1,21.9,5.2c-0.1,0-0.1,0.1-0.2,0.1c-0.3,0.1-0.5,0.3-0.7,0.5
		c-0.1,0-0.2,0.1-0.3,0.2c0.2,0,0.2-0.1,0.3-0.2c0.3-0.1,0.5-0.3,0.6-0.5c0.1,0,0.1-0.1,0.2-0.1C22,5.1,22.1,5,22.2,5
		c0.1,0,0.2,0,0.2,0c0,0,0,0.1,0,0.1c0,0-0.1,0-0.1,0.1c0,0,0,0,0.1-0.1c0,0,0-0.1,0-0.1c0,0,0-0.1,0-0.1
		C22.5,4.8,22.5,4.7,22.6,4.7z M26.2,15.1L26.2,15.1c0,0-0.1,0.1-0.1,0.1c0,0,0,0,0,0C26.2,15.2,26.2,15.2,26.2,15.1z M14,18.9
		C14,18.9,14,18.9,14,18.9C14.1,18.9,14.1,18.9,14,18.9C14.1,18.9,14,18.9,14,18.9C14,18.9,14,18.9,14,18.9c0,0-0.1,0-0.1,0
		C13.9,19,13.9,19,14,18.9C13.9,19,14,18.9,14,18.9z M27,16.4C27,16.4,27,16.4,27,16.4c0.3-0.5,0.6-0.9,0.9-1.3
		c0.6-0.9,1.1-1.8,1.5-2.7c0.1-0.1,0-0.2,0-0.3c0,0,0.1-0.1,0.1-0.1c0,0,0,0,0,0c0,0,0,0.1-0.1,0.1c-0.1,0.1-0.2,0.3-0.3,0.4
		c0,0-0.1-0.1-0.1-0.1c0.3-0.4,0.5-0.7,0.8-1.1c0.1-0.1,0.1-0.2,0-0.4c-0.5,0.5-0.6,1-1,1.5c0,0,0,0.1,0,0.3
		c0.1-0.1,0.2-0.1,0.2-0.2c0.1,0,0.1,0,0.2,0.1c0,0.1,0,0.2-0.1,0.3c-0.4,0.6-0.8,1.2-1.2,1.8C27.5,15.1,27.2,15.7,27,16.4
		C27,16.4,27,16.4,27,16.4c0,0-0.1,0.1-0.1,0.1c0,0,0,0,0,0C27,16.5,27,16.5,27,16.4z M9.5,26.4C9.5,26.4,9.5,26.4,9.5,26.4
		C9.5,26.4,9.5,26.4,9.5,26.4L9.5,26.4z M30,13c0,0.1,0,0.1-0.1,0.2c0,0-0.1,0.1-0.1,0.1c0,0,0,0,0,0c0-0.1,0.1-0.1,0.1-0.2
		C29.9,13.1,30,13.1,30,13c0-0.1,0.2-0.1,0-0.2c0.1-0.2,0.2-0.3,0.3-0.5c0.1-0.2,0.2-0.4,0.3-0.6c0.1-0.1,0.2-0.2,0.1-0.3
		c0,0,0,0,0,0c0,0.1-0.1,0.2-0.1,0.3c-0.1,0.1-0.2,0-0.3,0c-0.1,0.2-0.2,0.4-0.3,0.7c-0.1,0.2-0.3,0.4-0.3,0.8
		c0.1-0.2,0.2-0.3,0.3-0.4C30,12.9,30,12.9,30,13z M21.5,14L21.5,14c0,0-0.1,0-0.1,0.1c0,0,0,0,0,0C21.4,14.1,21.5,14.1,21.5,14z
		 M33.9,4.7L33.9,4.7L33.9,4.7c0.1-0.1,0.2-0.1,0.3-0.2c0,0,0,0,0,0C34.1,4.6,34,4.6,33.9,4.7z M6,15.7L6,15.7c0,0-0.1,0.1-0.1,0.1
		c0,0,0,0,0,0C5.9,15.8,5.9,15.7,6,15.7z M19.8,15.6C19.7,15.7,19.7,15.7,19.8,15.6c-0.2,0.1-0.3,0.1-0.3,0.2
		C19.5,15.8,19.6,15.8,19.8,15.6C19.7,15.7,19.7,15.7,19.8,15.6c0,0,0.1,0,0.1,0c0,0,0,0,0,0C19.9,15.6,19.8,15.6,19.8,15.6
		C19.8,15.5,19.7,15.5,19.8,15.6C19.7,15.5,19.7,15.5,19.8,15.6C19.8,15.6,19.8,15.6,19.8,15.6z M4.6,13.1
		C4.6,13.2,4.6,13.2,4.6,13.1c0,0.1,0,0.1,0,0.1c0,0,0,0,0,0.1c0,0,0-0.1,0-0.1C4.7,13.3,4.7,13.2,4.6,13.1
		C4.6,13.2,4.6,13.2,4.6,13.1c0,0,0.1,0,0.1,0C4.7,13.1,4.7,13.1,4.6,13.1C4.7,13.1,4.7,13.1,4.6,13.1z M16.3,18.9
		C16.3,18.9,16.3,18.9,16.3,18.9c0,0-0.1,0-0.1,0c0.1-0.1,0.2-0.2,0.3-0.3c0.3,0.2,0.3,0.2,0.5-0.1c0.1-0.2,0.2-0.3,0.3-0.5
		c0-0.1,0-0.1,0-0.2c-0.2,0-0.3,0.2-0.4,0.3c-0.1,0.1-0.2,0.2-0.4,0.2c0.1-0.2,0.1-0.3,0.2-0.4c0,0,0,0,0,0c0,0,0,0,0,0
		c-0.1,0-0.3,0-0.4,0.1c-0.1,0.1-0.1,0.1-0.2,0.1c-0.6,0.3-1.1,0.6-1.5,1.1l0,0c0,0,0,0,0,0c0.2,0,0.3,0,0.5,0l0,0
		c0.1,0.2,0,0.3-0.1,0.5c0.3-0.1,0.5-0.2,0.6-0.4c0.1-0.3,0.2-0.3,0.5-0.2c0.1-0.1,0.2-0.2,0.4-0.3c0,0-0.1,0.1-0.1,0.1c0,0,0,0,0,0
		C16.2,19,16.3,19,16.3,18.9z M13.1,25.3C13.1,25.4,13.1,25.4,13.1,25.3C13.1,25.4,13.1,25.4,13.1,25.3c0.1-0.1,0.2-0.1,0.3-0.2
		c0.1,0,0.1,0,0.2,0c0,0,0,0,0-0.1c-0.1,0-0.1,0.1-0.2,0.1C13.3,25.2,13.2,25.2,13.1,25.3z M24.6,22.9c0,0.1,0.1,0.1,0.1,0.2
		c-0.2,0.1-0.2,0.1-0.1,0.2c0-0.1,0.1-0.2,0.1-0.2c0,0,0.1-0.1,0.1-0.1C24.7,23,24.6,23,24.6,22.9L24.6,22.9z M23.4,5.3
		C23.4,5.3,23.4,5.3,23.4,5.3C23.4,5.3,23.4,5.3,23.4,5.3c0.1,0,0.1,0,0.2-0.1c0,0,0,0,0-0.1C23.5,5.2,23.5,5.2,23.4,5.3z
		 M16.7,16.7L16.7,16.7c0.1,0,0.1-0.1,0.2-0.1c0,0,0,0,0-0.1C16.8,16.6,16.7,16.7,16.7,16.7z M3.5,3.6C3.5,3.6,3.4,3.6,3.5,3.6
		C3.4,3.6,3.5,3.6,3.5,3.6c0,0,0.1,0,0.1-0.1c0,0,0,0,0,0C3.6,3.5,3.5,3.5,3.5,3.6z M9.3,14.1c-0.1,0-0.2,0.1-0.4,0.1
		c0,0.1,0,0.2,0,0.2c0,0.1,0,0.2,0,0.3l0,0c0.1,0,0.2-0.1,0.3-0.1c0.1-0.1,0.2-0.1,0.3-0.1l0,0c0.1,0.1,0.2,0.1,0.4,0l0,0
		c0.1-0.1,0.2-0.1,0.2-0.2c0.2-0.1,0.4-0.3,0.6-0.4c0.1-0.1,0.1,0,0.2,0.1c0,0-0.1,0.1-0.1,0.1c0,0,0,0,0,0c0-0.1,0-0.1,0-0.2
		c0.2-0.3,0.4-0.5,0.4-0.9c0,0,0,0,0,0c0,0,0,0,0,0c-0.1,0.2-0.4,0.4-0.6,0.5c-0.4,0.1-0.8,0.3-1.2,0.6C9.4,14,9.4,14.1,9.3,14.1z
		 M6,8.5c0,0,0-0.1,0-0.1C5.9,8.4,5.9,8.5,6,8.5C5.9,8.5,5.9,8.5,6,8.5L6,8.5C6,8.6,6,8.5,6,8.5z M8.2,27.2
		C8.2,27.2,8.2,27.2,8.2,27.2C8.2,27.2,8.2,27.2,8.2,27.2c0.1,0,0.1,0,0.2-0.1c0,0,0,0,0,0C8.3,27.1,8.3,27.1,8.2,27.2z M11.6,22.2
		L11.6,22.2c-0.1,0-0.2,0-0.2,0c0,0,0,0,0,0C11.4,22.2,11.5,22.2,11.6,22.2z M2.3,6.8C2.3,6.8,2.3,6.8,2.3,6.8c0,0.1,0,0.1,0,0.1
		C2.3,6.9,2.4,6.9,2.3,6.8C2.3,6.8,2.3,6.8,2.3,6.8C2.3,6.8,2.3,6.8,2.3,6.8z M20.9,6.5L20.9,6.5L20.9,6.5c0.1,0,0.1-0.1,0.2-0.1
		c0,0,0,0,0-0.1C21.1,6.4,21,6.4,20.9,6.5z M21.3,14.5L21.3,14.5L21.3,14.5c0,0-0.1,0.1-0.1,0.1c0,0,0,0,0,0.1
		C21.2,14.6,21.3,14.6,21.3,14.5z M5.1,11.5C5.1,11.6,5.1,11.6,5.1,11.5C5.1,11.6,5.1,11.6,5.1,11.5c0.1,0,0.1-0.1,0.2-0.1
		c0,0,0,0,0,0C5.2,11.4,5.1,11.5,5.1,11.5z M27.1,18.8C27.1,18.8,27.1,18.8,27.1,18.8c0-0.1,0.1-0.1,0.1-0.2c0,0-0.1,0-0.1,0
		C27.1,18.7,27.1,18.8,27.1,18.8z M27.7,13.4C27.7,13.4,27.7,13.3,27.7,13.4C27.7,13.3,27.7,13.4,27.7,13.4
		c-0.1,0.1-0.2,0.2-0.1,0.3c-0.2,0.3-0.5,0.5-0.8,0.8c0.4,0,0.8-0.4,0.8-0.7c0,0,0-0.1,0-0.1C27.6,13.6,27.6,13.5,27.7,13.4z
		 M27.2,5.7C27.2,5.7,27.2,5.7,27.2,5.7c-0.4,0.2-0.7,0.3-1,0.5l0,0l0,0c0,0-0.1,0.1-0.1,0.1C25.6,6.7,25,7,24.4,7.4
		c-0.1,0.1-0.2,0.1-0.1,0.3C24.7,7.4,25,7.2,25.4,7c0.4-0.3,0.8-0.5,1.3-0.8C26.8,6.1,27,6,27.2,5.7C27.2,5.7,27.2,5.7,27.2,5.7
		c0.1,0,0.2,0,0.3-0.2C27.4,5.6,27.3,5.7,27.2,5.7z M7.6,16.5C7.7,16.5,7.7,16.5,7.6,16.5C7.7,16.5,7.7,16.5,7.6,16.5
		c-0.1,0.1-0.2,0.1-0.3,0.2c-0.2-0.1-0.4-0.2-0.6-0.4c0,0,0-0.1-0.1-0.1c0,0,0,0,0,0c0,0,0.1,0,0.1,0.1c0,0.1-0.1,0.1-0.1,0.3
		c0.2,0.1,0.3,0.1,0.5,0.2c0.1,0,0.1-0.1,0.2-0.1C7.5,16.7,7.6,16.6,7.6,16.5z M14.7,17.8L14.7,17.8c-0.1,0-0.1,0-0.2,0
		c0-0.1,0.1-0.1,0.1-0.2c-0.2,0-0.2,0.1-0.1,0.2c0,0-0.1,0.1-0.1,0.1c0,0,0,0,0.1,0.1C14.5,17.9,14.6,17.9,14.7,17.8z M22.9,6.7
		c0.1,0.1,0.1,0.1,0.2,0C23,6.7,23,6.7,22.9,6.7L22.9,6.7L22.9,6.7z M5,13.1L5,13.1c0.1,0,0.2-0.1,0.1-0.2l0,0l0,0
		C5,12.9,5,13,5,13.1z M24.4,19.4C24.4,19.4,24.4,19.4,24.4,19.4C24.4,19.4,24.4,19.4,24.4,19.4c0.1,0,0.2-0.1,0.2-0.2
		C24.5,19.2,24.5,19.3,24.4,19.4z M6,25.5L6,25.5c-0.1,0-0.2,0.1-0.2,0.2C5.8,25.6,5.9,25.6,6,25.5z M24,22.4L24,22.4L24,22.4
		c0.1-0.1,0.1-0.2,0.2-0.2c0,0,0.1,0,0.1,0c0,0,0,0,0,0c0,0-0.1,0-0.1,0.1c-0.1,0-0.2,0.1-0.3,0.1c-0.1,0-0.1,0-0.2-0.1
		c0,0,0,0,0,0.1c0.1,0,0.1,0,0.2,0C24,22.3,24,22.4,24,22.4z M27.9,12.7c0,0.1-0.1,0.1-0.1,0.2c0,0,0,0,0.1,0
		C27.9,12.8,27.9,12.8,27.9,12.7C27.9,12.7,27.9,12.7,27.9,12.7z M17.9,15.8C18,15.8,18,15.7,17.9,15.8C18,15.7,18,15.8,17.9,15.8
		c-0.1,0-0.1,0-0.2-0.1c0,0,0,0.1,0,0.1C17.8,15.8,17.9,15.8,17.9,15.8z M27.1,6.4L27.1,6.4c-0.1,0-0.2,0-0.3,0.1
		C26.9,6.6,27,6.5,27.1,6.4z M24.6,17.2L24.6,17.2c0.1,0,0.2-0.1,0.3-0.1c-0.2,0.1-0.3,0.3-0.5,0.4l0,0c0,0,0,0.1,0,0.2
		c0.3-0.1,0.5-0.3,0.7-0.5c0.2-0.1,0.3-0.3,0.4-0.5c0.1-0.4,0.3-0.7,0.5-1c0.1-0.1,0.2-0.2,0.3-0.1c0,0.1-0.1,0.2-0.1,0.3
		c0,0,0,0,0.1,0c0.2-0.4,0.6-0.6,0.5-1.1l0,0l0,0c-0.1,0.1-0.2,0.2-0.2,0.3c-0.1,0.1-0.2,0.3-0.3,0.3c-0.4,0.1-0.6,0.4-0.8,0.8l0,0
		c-0.1,0.3-0.2,0.7-0.5,1c0-0.1-0.1-0.1-0.2-0.1C24.7,17.1,24.6,17.2,24.6,17.2z M24.6,21.8c0,0.1,0,0.1,0,0.2c0.1,0,0.1,0,0.2,0
		c0,0,0,0,0.1,0c0.2-0.1,0.3-0.2,0.5-0.3c0.1-0.1,0.1-0.2,0-0.3c0,0-0.1,0-0.1,0c0,0,0.1,0,0.1,0c-0.1,0.2-0.3,0.2-0.4,0.3
		c0,0,0-0.1,0-0.1c0,0,0,0,0,0c0,0,0,0,0,0C24.8,21.7,24.7,21.7,24.6,21.8C24.6,21.8,24.6,21.8,24.6,21.8z M6.8,24.3L6.8,24.3
		L6.8,24.3c-0.1,0.1-0.1,0.1-0.1,0.3C6.7,24.5,6.7,24.4,6.8,24.3z M2.1,12.1c0,0,0,0.1,0,0.1c0,0,0.1,0.1,0.1,0.1c0,0,0-0.1,0-0.1
		C2.2,12.2,2.1,12.2,2.1,12.1C2.1,12.1,2.1,12.1,2.1,12.1C2.1,12.1,2.1,12.1,2.1,12.1z M7.3,15.9L7.3,15.9c-0.1,0-0.2,0-0.3,0.2
		C7.1,16.1,7.2,16,7.3,15.9z M16.6,23.7L16.6,23.7c-0.2,0.1-0.2,0.3-0.2,0.4c-0.2,0.2-0.5,0.2-0.5,0.5c0.4,0,0.5-0.1,0.5-0.5
		C16.5,24,16.6,23.8,16.6,23.7z M28.5,4.3C28.5,4.3,28.5,4.3,28.5,4.3c-0.1,0.1-0.3,0.2-0.4,0.3c0,0,0,0,0,0c0,0,0,0,0,0
		C28.2,4.6,28.4,4.5,28.5,4.3z M23.3,22.6c0,0.1-0.1,0.1-0.1,0.2C23.3,22.8,23.3,22.8,23.3,22.6c0,0,0-0.1,0-0.1c0,0,0,0,0,0
		C23.3,22.6,23.3,22.6,23.3,22.6z M13.8,26.6L13.8,26.6L13.8,26.6c0.2,0,0.3,0,0.4-0.2C14.1,26.4,13.9,26.5,13.8,26.6z M19.1,16.6
		L19.1,16.6c0.1,0,0.3,0,0.3-0.2C19.2,16.4,19.1,16.5,19.1,16.6z M22.4,7L22.4,7L22.4,7c0.1,0,0.2,0,0.3-0.1
		C22.5,6.8,22.4,6.8,22.4,7z M5.8,27c0-0.2,0-0.2-0.1-0.3c0.3-0.1,0.6-0.3,0.9-0.4c-0.1-0.2-0.2-0.1-0.4-0.1c-0.3,0-0.5,0.1-0.8,0.2
		c-0.2,0-0.3,0.1-0.5,0.1l0,0c-0.1,0.1-0.2,0.1-0.2,0.2c0.1,0.2,0.2,0.2,0.4,0.2c0.1,0,0.2,0,0.4,0C5.6,26.9,5.7,26.9,5.8,27L5.8,27
		L5.8,27z M2.7,6.4L2.7,6.4c0.3,0,0.3,0,0.5-0.2C3,6.2,2.8,6.3,2.7,6.4z M25,13.6L25,13.6L25,13.6c0.1,0,0.3-0.1,0.3-0.3
		C25.1,13.4,25.1,13.4,25,13.6z M25.3,22.3L25.3,22.3c-0.2,0-0.3,0.1-0.4,0.3C25.1,22.6,25.2,22.5,25.3,22.3z M23.8,18.3
		c0-0.1,0-0.2-0.1-0.1c-0.1,0-0.1,0.1-0.2,0.2c-0.1,0.1-0.2,0.1-0.3,0.2c0.2,0,0.3,0,0.3-0.2C23.6,18.4,23.7,18.3,23.8,18.3
		L23.8,18.3z M29.6,8L29.6,8c0.3,0,0.3,0,0.3-0.2C29.8,7.8,29.7,7.9,29.6,8z M13.6,17.6L13.6,17.6c-0.2,0.1-0.4,0.1-0.4,0.4
		C13.4,17.9,13.5,17.7,13.6,17.6z M23.8,19.9c0.1-0.1,0.2-0.3,0.3-0.4c-0.2,0.1-0.3,0.2-0.4,0.2C23.6,19.8,23.7,19.9,23.8,19.9
		c0.1,0.1,0.1,0,0.2-0.1C23.9,19.9,23.8,19.9,23.8,19.9z M16.5,16.5L16.5,16.5L16.5,16.5c0,0-0.1,0-0.1,0c0-0.1,0.2-0.2,0.1-0.3
		c-0.3,0-0.7,0.3-0.8,0.6c0,0,0,0-0.1,0c0,0,0,0,0,0c0,0,0,0,0,0c0,0,0,0,0-0.1c0.1,0,0.2,0,0.3,0c0,0,0.1,0.1,0.1,0.1
		c-0.1,0-0.2,0.1-0.3,0.1c0,0-0.1-0.1-0.1-0.1c0,0,0,0,0,0.1c0,0,0.1,0,0.1,0c-0.2,0.1-0.3,0.2-0.5,0.4l0,0c0,0,0,0,0,0
		c0.2,0,0.3-0.1,0.5-0.1l0,0c0.2-0.1,0.3-0.2,0.5-0.4c0,0,0.1,0,0.1,0c0,0,0,0,0,0c0,0-0.1,0-0.1,0.1c-0.1,0-0.1,0-0.2,0
		C16.3,16.8,16.4,16.6,16.5,16.5z M30.4,9.1c0-0.1,0-0.1,0.1-0.2c0.3-0.2,0.5-0.6,0.3-0.8c-0.1,0.3-0.2,0.6-0.3,0.8
		C30.4,9,30.4,9.1,30.4,9.1c-0.2,0-0.3,0.2-0.3,0.4c0.1-0.1,0.2-0.2,0.3-0.2C30.4,9.3,30.4,9.2,30.4,9.1z M12.9,10.5
		c-0.2-0.2-0.2-0.2-0.5,0C12.6,10.6,12.8,10.5,12.9,10.5L12.9,10.5z M8.5,7.9c0,0-0.1-0.1-0.1-0.1C8.3,7.8,8.2,7.8,8.1,8
		C8.3,8,8.4,7.9,8.5,7.9L8.5,7.9L8.5,7.9z M17.8,24.8c0.1,0,0.1-0.1,0.2-0.1c0,0,0,0,0-0.1C17.9,24.7,17.8,24.7,17.8,24.8
		c-0.3,0.1-0.5,0.1-0.7,0.4c0,0-0.1,0-0.1,0c0,0,0,0,0,0c0,0,0-0.1,0.1-0.1C17.4,25.1,17.6,25,17.8,24.8z M18.6,17.7L18.6,17.7
		c0.3,0,0.5-0.2,0.6-0.4C19,17.4,18.8,17.6,18.6,17.7z M5.9,19.3L5.9,19.3L5.9,19.3c-0.1,0-0.1,0.1-0.1,0.2c0,0.1,0,0.3,0.3,0.3
		C6,19.6,5.9,19.4,5.9,19.3z M33.2,2.6C33.2,2.6,33.2,2.6,33.2,2.6c0-0.1,0.1-0.2,0.1-0.3c0,0,0,0,0,0c0,0,0,0,0,0
		c-0.2,0-0.4,0.1-0.5,0.3c0,0,0,0,0,0c0,0.1,0,0.1,0,0.2C33,2.7,33.1,2.6,33.2,2.6z M16,13.7c0-0.1-0.1-0.1-0.2-0.1
		c-0.1,0.1-0.2,0.2-0.2,0.4C15.7,13.9,15.9,13.9,16,13.7L16,13.7z M23.3,12.9L23.3,12.9c-0.3-0.2-0.5-0.1-0.5,0.3
		C23,13.1,23.1,13,23.3,12.9z M15.4,16.3c0.1,0,0.2-0.1,0.3-0.1c0,0,0-0.1,0-0.2c0,0,0,0-0.1,0C15.5,16.1,15.5,16.2,15.4,16.3
		c-0.1,0-0.2-0.1-0.2-0.1c-0.1,0-0.2,0.1-0.1,0.1l0,0c-0.1,0.1-0.2,0.1-0.2,0.3C15.1,16.5,15.2,16.4,15.4,16.3z M28.3,19.1
		L28.3,19.1c-0.2,0.1-0.2,0.2,0,0.3c0.2-0.1,0.3-0.2,0.3-0.5C28.5,19,28.4,19,28.3,19.1z M7.2,13.6c-0.1,0-0.2,0-0.2,0.2
		C7.1,13.7,7.1,13.6,7.2,13.6c0.2,0,0.5,0.1,0.7-0.1c-0.1-0.2-0.2-0.2-0.4-0.1C7.4,13.4,7.3,13.5,7.2,13.6z M2.2,6.1L2.2,6.1
		c0,0,0.1,0,0.1,0C2.3,6.2,2.3,6.2,2.2,6.1c0,0.1,0,0.1,0,0.2c0.4-0.2,0.2-0.5,0.2-0.8C2.4,5.7,2.4,5.8,2.3,5.8
		C2.2,5.8,2.1,5.7,2,5.6C1.9,5.8,1.8,5.9,1.9,6c0.2,0,0.3-0.1,0.4-0.2C2.3,5.9,2.3,6,2.2,6.1z M2.6,3c0-0.2-0.1-0.2-0.3-0.2
		C2.2,2.9,2.2,3,2.3,3.2C2.4,3.1,2.5,3.1,2.6,3L2.6,3z M24.8,3.3c0,0,0.1,0,0.1,0C24.9,3.2,24.9,3.2,24.8,3.3
		C24.9,3.2,24.8,3.3,24.8,3.3c-0.5,0.2-0.7,0.3-0.8,0.6C24.3,3.8,24.7,3.6,24.8,3.3z M18.7,19.9C18.7,19.9,18.6,19.9,18.7,19.9
		C18.6,20,18.6,20,18.7,19.9C18.6,20,18.6,20,18.7,19.9C18.6,20,18.7,20,18.7,19.9c0.4-0.2,0.5-0.3,0.5-0.6
		C18.9,19.4,18.8,19.7,18.7,19.9z M13,16.9c0,0,0.1,0,0.1-0.1C13.1,16.9,13.1,16.9,13,16.9C13,16.9,13,16.9,13,16.9
		c-0.4,0-0.7,0-0.9,0.4l0,0c0.2-0.1,0.5-0.2,0.7-0.2C13,17.1,13,17.1,13,16.9z M26.3,1.2c0,0.2,0,0.4,0,0.6c0.2-0.1,0.3-0.1,0.4-0.3
		c-0.1-0.1-0.1-0.2-0.2-0.3c0,0,0-0.1,0,0c0,0,0,0,0,0C26.4,1.2,26.3,1.2,26.3,1.2C26.3,1.2,26.3,1.2,26.3,1.2z M25.2,10.5
		c-0.1,0.1-0.2,0.2-0.3,0.4c0,0.1,0,0.1-0.1,0.3c0.3-0.2,0.5-0.3,0.6-0.6C25.4,10.5,25.3,10.5,25.2,10.5L25.2,10.5z M11.7,8.3
		c0,0-0.1,0.1-0.1,0.1c0,0,0,0.1,0,0.2c0,0,0.1,0.1,0.2,0.1c0.2,0,0.4-0.1,0.6-0.3C12.1,8.4,11.9,8.3,11.7,8.3
		C11.7,8.3,11.7,8.3,11.7,8.3z M9.5,20.3c-0.1,0.1-0.2,0.1-0.3,0.3c0.1,0,0.2,0,0.2,0c0.2,0,0.4-0.2,0.6-0.3l0,0
		c0-0.1,0-0.2-0.1-0.2C9.7,20.2,9.6,20.3,9.5,20.3L9.5,20.3L9.5,20.3z M4.4,5.3L4.4,5.3L4.4,5.3C4.3,5.4,4.1,5.5,4,5.5
		C3.8,5.6,3.6,5.7,3.5,5.8c0,0-0.1,0.1-0.1,0.2C3.7,6,4.2,5.6,4.4,5.3z M24.1,17.2c0.1-0.1,0.1-0.1,0.1-0.3
		C24.2,17,24.2,17.1,24.1,17.2c-0.1-0.1-0.1-0.1-0.2,0c-0.2,0.2-0.4,0.4-0.5,0.7c0,0,0,0,0,0c0,0,0,0,0,0
		C23.7,17.7,24,17.4,24.1,17.2z M12.3,24.2L12.3,24.2c0.4-0.1,0.8-0.3,0.9-0.5C12.9,23.6,12.5,23.9,12.3,24.2z M10.7,21.8
		c-0.1,0.2-0.3,0.1-0.4,0.4c0.5,0.1,0.8,0,0.7-0.4C10.9,21.7,10.8,21.8,10.7,21.8L10.7,21.8z M17.4,16.1C17.4,16,17.4,16,17.4,16.1
		c0-0.2,0-0.3-0.1-0.3c-0.3,0-0.4,0.3-0.3,0.6c0.1,0,0.1,0,0.2-0.1C17.2,16.2,17.3,16.2,17.4,16.1z M22.2,10.1c0,0,0.1,0,0.1,0
		C22.3,10.1,22.3,10.1,22.2,10.1C22.2,10.1,22.2,10.1,22.2,10.1c-0.4,0.1-0.7,0.3-0.9,0.8C21.7,10.7,22,10.6,22.2,10.1z M25.9,8.1
		C25.9,8.1,25.9,8.1,25.9,8.1C25.9,8.1,25.9,8.1,25.9,8.1c0.1,0,0.2,0,0.3-0.1c0.3-0.2,0.6-0.3,0.8-0.5c0.2-0.1,0.3-0.3,0.5-0.4l0,0
		l0,0c-0.5,0.2-0.9,0.5-1.3,0.8C26.1,7.9,26,8,25.9,8.1z M6.5,15.6c-0.1,0.1-0.1,0.1-0.2,0.2c0.3,0,0.4,0,0.6-0.1c0,0,0,0,0,0
		c0,0,0,0,0,0c0.2-0.1,0.3-0.2,0.5-0.3c0.1,0,0.2,0,0.3,0l0,0c0.1-0.1,0-0.1,0-0.2c-0.1,0-0.1-0.1-0.2-0.1c0.2-0.4,0.5-0.5,0.9-0.6
		l0,0l0,0c0-0.1,0-0.2-0.1-0.1c-0.2,0.1-0.5,0.1-0.7,0.2c-0.5,0.2-1.1,0.4-1.6,0.6c-0.1,0-0.2,0.1-0.3,0.2c0,0,0,0.1,0,0.1
		c0,0-0.1,0-0.1,0.1c0,0-0.1,0-0.1,0c-0.1,0-0.2,0-0.3,0.1c0-0.1,0-0.2,0-0.4c-0.2,0-0.3,0.1-0.5,0.1l0,0c-0.1,0-0.1,0.1,0,0.1
		c0.1,0.1,0.2,0.2,0.4,0.3c0.3,0.2,0.5,0.2,0.8,0c0.1-0.1,0.1-0.2,0.2-0.2l0,0l0,0c-0.1,0-0.2,0-0.3-0.1c0,0,0-0.1,0-0.1
		c0.4,0,0.7,0,1.1-0.2C6.8,15.1,7,15.1,7.1,15l0,0c0.1,0,0.1-0.1,0.2-0.1c0,0,0,0,0,0c0,0,0.1,0.1,0.1,0.1c-0.1,0.1-0.2,0.2-0.3,0.3
		C6.9,15.4,6.7,15.5,6.5,15.6L6.5,15.6z M29.7,3.4L29.7,3.4c0.1-0.2,0-0.3-0.1-0.3c-0.1-0.1-0.2,0-0.3,0.1c-0.1,0.1-0.1,0.2,0,0.5
		C29.4,3.6,29.6,3.5,29.7,3.4z M28,8.8c-0.1,0.1-0.2,0.2-0.3,0.2c-0.1,0.1-0.1,0.2,0,0.3c0,0,0,0,0,0c0,0,0.1-0.1,0.1-0.1
		C27.9,9.1,28,8.9,28.2,9c0.1-0.1,0.3-0.2,0.3-0.4C28.3,8.6,28.1,8.7,28,8.8L28,8.8z M17.8,9.6C17.8,9.6,17.7,9.6,17.8,9.6
		c-0.3,0.1-0.6,0.1-0.8,0.2c0.1,0.2,0.3,0.2,0.5,0.1c0.3-0.1,0.5-0.2,0.5-0.4C17.9,9.5,17.9,9.6,17.8,9.6z M18.2,24L18.2,24
		C18.1,24,18,24,18,24c-0.3,0.1-0.6,0.3-0.9,0.6C17.4,24.6,18,24.3,18.2,24C18.2,24.1,18.2,24,18.2,24z M24.1,12.5
		c0.1,0.1,0.2,0.1,0.3,0c0.2-0.2,0.4-0.4,0.6-0.6c-0.1-0.1-0.1-0.1-0.1-0.2c-0.1-0.1-0.2-0.1-0.3,0C24.4,12,24.2,12.3,24.1,12.5
		C24.1,12.5,24,12.5,24.1,12.5C24,12.5,24.1,12.5,24.1,12.5z M16.5,15.3c0.3-0.1,0.4-0.3,0.5-0.6c0.1,0,0.2,0,0.2,0.1
		c0.1,0.1,0.2,0.1,0.4,0c0.1,0,0.1-0.1,0.2-0.1c0.2-0.1,0.3-0.3,0.3-0.6c-0.2,0.1-0.3,0.1-0.4,0.2c-0.2,0.2-0.4,0.3-0.6,0.5
		c-0.3-0.1-0.4,0.1-0.5,0.3c-0.2,0.3-0.3,0.6-0.5,0.8c0,0-0.1,0.1-0.1,0.3c0.2-0.1,0.3-0.3,0.4-0.4C16.4,15.5,16.5,15.4,16.5,15.3
		L16.5,15.3L16.5,15.3z M15.8,23.3L15.8,23.3c0-0.1,0.1-0.2,0.1-0.2c-0.3-0.1-0.5,0-0.8,0.2c-0.2,0.1-0.3,0.3-0.2,0.5
		c0.2,0.1,0.4,0,0.5-0.1C15.5,23.5,15.7,23.4,15.8,23.3z M17.4,26c0.3-0.2,0.6-0.3,0.8-0.5c0.2-0.2,0.5-0.4,0.8-0.5
		c0.1-0.1,0.3-0.1,0.3-0.3c-0.4,0.2-0.8,0.4-1.2,0.6c-0.4,0.2-0.8,0.4-1.1,0.8C17.1,26,17.2,26,17.4,26L17.4,26z M8.4,11.8
		c0.1-0.1,0.3-0.1,0.4-0.4C7.9,11.7,7,12,6.1,12.3c0.1,0.1,0.2,0.1,0.3,0.2l0,0c0.4-0.1,0.7-0.2,1.1-0.4c0,0,0,0,0,0
		C7.8,12,8.1,11.9,8.4,11.8L8.4,11.8z M9.9,15.9c0,0,0.1-0.1,0.1-0.1c0,0,0,0-0.1,0C9.9,15.8,9.9,15.9,9.9,15.9
		c-0.1,0.1-0.3,0.1-0.4,0.2c-0.2,0.1-0.5,0.1-0.7,0.2c-0.4,0.2-0.8,0.4-1.2,0.6c0.1,0,0.1,0.1,0.1,0.1c0.4,0,0.7,0,1.1-0.2
		c0.3-0.2,0.6-0.4,0.9-0.6C9.9,16.1,9.9,16,9.9,15.9z M25.4,18.1L25.4,18.1c-0.1,0-0.2,0.1-0.1,0.2c0.1,0.1,0.1,0,0.2,0c0,0,0,0,0,0
		c0.2-0.2,0.5-0.5,0.7-0.7c0.2-0.2,0.3-0.6,0.2-0.9c-0.1,0.1-0.2,0.2-0.3,0.3c-0.1,0.2-0.2,0.3-0.4,0.5
		C25.6,17.6,25.5,17.8,25.4,18.1z M30.4,6.4c-0.2,0.1-0.3,0.3-0.5,0.4c-0.2,0.1-0.3,0.3-0.4,0.5c0,0,0,0,0,0c0,0,0,0,0,0
		c0.1,0,0.3-0.1,0.4-0.1c0.1,0,0.2-0.1,0.3-0.1c0.3,0,0.5-0.1,0.7-0.3c0-0.2,0-0.4-0.1-0.6C30.7,6.2,30.6,6.3,30.4,6.4
		C30.4,6.4,30.4,6.4,30.4,6.4z M13.1,14.8L13.1,14.8c0.1,0,0.2-0.1,0.3-0.2c0.3-0.2,0.6-0.5,0.9-0.7c0,0,0-0.1,0-0.1
		c-0.1,0-0.2-0.1-0.3-0.1c-0.1,0-0.2,0-0.3,0c-0.3,0.3-0.7,0.5-1,0.9c-0.1,0.2-0.3,0.3-0.5,0.4c-0.2,0.1-0.3,0.2-0.3,0.4
		c0.1-0.1,0.2-0.1,0.3-0.1c0.1-0.1,0.2-0.2,0.2-0.2C12.8,15.2,12.9,15,13.1,14.8z M19.5,5.5c-0.1,0.1-0.2,0.1-0.4,0.2l0,0l0,0
		c-0.2,0.2-0.4,0.4-0.6,0.6c0.3-0.1,0.6-0.2,0.8-0.4c0.8-0.6,1.5-1.1,2.3-1.7C21.8,4.1,21.9,4,22,3.9l0,0l0,0c0-0.1,0-0.1,0-0.2
		c-0.3,0.1-0.9,0.4-1.1,0.5C20.5,4.7,20,5.1,19.5,5.5L19.5,5.5z M15.9,14.7c0.1,0.1,0.1,0.2,0.2,0.1c0.1-0.1,0.1-0.2,0.2-0.2
		c0.2,0.1,0.4-0.1,0.5-0.3c0.1-0.2,0.2-0.3,0.4-0.4c0.2-0.2,0.3-0.4,0.2-0.6c-0.3-0.1-0.4,0.1-0.6,0.2c-0.1,0.1-0.2,0.2-0.3,0.3
		c-0.2,0.1-0.3,0.2-0.4,0.4c-0.1,0.1-0.1,0.3-0.3,0.3c-0.1,0-0.1-0.1-0.2-0.2c-0.2,0.3-0.4,0.5-0.6,0.8c0,0-0.1,0.1,0,0.2
		c0,0.1,0,0.2,0.1,0.2c0.1,0,0.2,0,0.2-0.1c0.1-0.2,0.3-0.3,0.4-0.5C15.8,14.8,15.8,14.8,15.9,14.7L15.9,14.7z M15.3,21.3
		c0-0.1,0-0.1,0-0.2c-0.2,0.3-0.5,0.5-0.8,0.7c0-0.2-0.1-0.3-0.1-0.5c0-0.1,0-0.3,0.1-0.4c-0.3,0-0.5,0.2-0.7,0.3
		c-0.1,0.1-0.2,0.2-0.2,0.2c0,0.1,0,0.2,0.1,0.2c-0.1,0.1-0.3,0.2-0.4,0.3c-0.1,0.1-0.1,0.2-0.1,0.3c0.1,0.1,0.1,0.1,0.3,0.1
		c0.2,0,0.4-0.1,0.6-0.3c0.2-0.2,0.5-0.2,0.7-0.2c0.1,0,0.2,0,0.3,0c0.1-0.4,0.5-0.5,0.6-1C15.5,21.1,15.4,21.2,15.3,21.3L15.3,21.3
		z M3.8,9.5L3.8,9.5c-0.1,0-0.2,0-0.1-0.1c0-0.1,0.1-0.3,0.1-0.4c0,0,0,0,0,0c0,0,0.1,0,0.1-0.1C4,8.6,3.8,8.4,3.5,8.5l0,0
		c-0.2,0-0.3,0-0.5,0c0.2-0.3,0.2-0.5,0-0.7c0,0,0-0.1,0.1-0.1c0,0,0,0-0.1,0c0,0,0,0.1,0,0.1C2.9,7.8,2.8,7.7,2.8,7.6
		C2.5,7.9,2.5,7.9,2.6,8.1c0,0.1,0.1,0.1,0.1,0.2c0,0,0,0.1,0,0.1C2.8,8.6,2.9,8.7,3,8.9C3.3,9.2,3.5,9.6,3.8,10
		c0.2,0.2,0.4,0.3,0.6,0.4c0.2,0.1,0.3,0,0.4-0.2c-0.1,0-0.2,0-0.4,0l0,0C4.3,10,4.2,9.8,4.1,9.6l0,0c0-0.1,0-0.2,0-0.3
		C4,9.3,3.9,9.4,3.8,9.5z M13.3,25.6c-0.5,0.2-1.1,0.4-1.6,0.6c-0.5,0.2-1,0.4-1.5,0.6c-0.4,0.1-0.8,0.3-1.1,0.4
		c-0.1,0-0.2,0-0.2,0.1c-0.2,0.2-0.4,0.2-0.6,0.1C8.1,27.6,8,27.7,8,27.8c0.2,0,0.4,0,0.5-0.1c0.2-0.1,0.5-0.1,0.7-0.1
		c0,0,0,0.1,0,0c0,0,0,0,0,0c0,0,0.1-0.1,0.1-0.1c0.3-0.1,0.5-0.2,0.8-0.2l0,0c0,0,0,0.1,0,0.1l0,0c0.1,0,0.3,0,0.3-0.1
		c0.2-0.2,0.4-0.3,0.7-0.4c0.2-0.1,0.3-0.1,0.5-0.2c0.5-0.2,0.9-0.4,1.4-0.6c0.2-0.1,0.3-0.1,0.5-0.2c0.1,0,0.2-0.1,0.1-0.3
		C13.5,25.6,13.4,25.6,13.3,25.6C13.3,25.6,13.3,25.6,13.3,25.6z M4.1,13.6C4.1,13.6,4,13.5,4,13.5c0.1-0.1,0.1-0.2,0.2-0.3
		c-0.1-0.1-0.2-0.1-0.3-0.1c-0.2,0-0.3,0.1-0.5,0.1c-0.2,0.1-0.3,0.1-0.5,0C2.8,13.5,3,14,3.3,14.1c0,0,0.1,0,0.2-0.1
		c0,0,0-0.1,0-0.2c0.1,0,0.1,0,0.2,0C3.7,13.6,3.9,13.7,4.1,13.6z M13.9,12.4c-0.4,0-0.6,0.2-0.8,0.4c-0.1,0.1-0.3,0.5-0.4,0.8
		C13.5,13.2,13.9,12.8,13.9,12.4z M4.9,3.9c-0.2,0-0.4,0.1-0.5,0.2C4.1,4.3,3.8,4.5,3.5,4.7C3.3,4.8,3,4.9,3,5.2
		c0.1,0,0.3-0.1,0.4-0.1C4,4.6,4.7,4.1,4.9,3.9z M12.4,16.3c0.6-0.1,1.1-0.5,1.2-0.9c-0.4,0.1-0.8,0.3-1.1,0.6
		C12.4,16,12.3,16.1,12.4,16.3z M30.6,12.8c-0.2,0.3-0.8,1.6-0.8,1.9c0.3-0.1,0.4-0.3,0.5-0.5C30.4,13.8,30.5,13.3,30.6,12.8z
		 M24,15.3c0.5-0.3,0.7-0.7,1-1.1c0-0.1,0-0.1,0-0.2C24.4,14.2,24.1,14.7,24,15.3z M10.5,8.4c0.6-0.1,0.6-0.1,0.8-0.3
		c-0.2-0.1-0.2-0.1-0.3-0.1c-0.3,0-0.6-0.1-0.9,0.1C10.3,8.1,10.4,8.2,10.5,8.4z M18.4,22.4C18.4,22.4,18.4,22.4,18.4,22.4
		c0.1,0,0.2,0,0.2,0c0.4-0.3,0.5-0.7,0.7-1.1c0,0,0-0.1-0.1-0.1c0,0-0.1,0-0.2,0c-0.2,0.4-0.5,0.7-0.7,1.1
		C18.3,22.3,18.4,22.3,18.4,22.4z M28.6,15.1c-0.3,0.4-0.6,1-0.6,1.3C28.5,16.1,28.7,15.7,28.6,15.1z M29.5,5.9
		c-0.4,0-1.3,0.6-1.5,1C28.5,6.6,29,6.3,29.5,5.9z M15.9,20.1c-0.3-0.1-0.4-0.1-0.6,0.4c0.1,0,0.2,0.1,0.2,0
		c0.2-0.1,0.4-0.2,0.6-0.4c0.1-0.1,0.2-0.1,0.1-0.3c0,0-0.1,0-0.1,0C16.1,19.9,16,20,15.9,20.1z M15.2,13.8
		c-0.3,0.1-0.5,0.3-0.6,0.6c0.3,0.1,0.4-0.1,0.6-0.2C15.3,14.1,15.3,14,15.2,13.8z M27.7,1.4C27.8,1.4,27.8,1.3,27.7,1.4
		c-0.2-0.2-0.4-0.3-0.6-0.3C27,1,26.8,0.8,26.5,0.9C26.8,1.3,27.3,1.3,27.7,1.4z M11.7,24.4C11.7,24.4,11.6,24.3,11.7,24.4
		c-0.3,0-0.5,0.1-0.7,0.2c-0.2,0.1-0.5,0.1-0.6,0.4c0.1,0,0.2,0,0.2,0c0.3-0.1,0.6-0.2,0.9-0.4C11.6,24.5,11.6,24.5,11.7,24.4z
		 M17.1,21c0.5,0,0.8-0.5,0.7-0.9C17.6,20.3,17.4,20.6,17.1,21z M9.2,23.5c0.3,0.1,0.4-0.1,0.6-0.2c0.2-0.1,0.5-0.1,0.6-0.3
		c-0.2-0.1-0.3-0.1-0.5,0C9.8,23.1,9.5,23.3,9.2,23.5z M6.4,5.3C6.4,5.1,6.2,4.9,6,4.9C5.8,4.9,5.7,5,5.7,5.2
		C5.9,5.3,6.1,5.4,6.4,5.3z M19.9,18.1c-0.3,0.1-0.5,0.3-0.8,0.8C19.5,18.7,19.8,18.6,19.9,18.1z M17.7,13.5
		c0.3-0.1,0.6-0.3,0.7-0.6C18.2,13,18,13,17.9,13.1C17.7,13.2,17.7,13.3,17.7,13.5z M28.9,15.3c0.2-0.3,0.5-0.5,0.5-0.8
		C29,14.7,28.8,14.9,28.9,15.3z M18,21.9c-0.4,0.1-0.7,0.4-0.8,0.6c0.1-0.1,0.2-0.1,0.3-0.2C17.8,22.3,17.9,22.2,18,21.9z
		 M20.1,12.8c0.2-0.1,0.4-0.2,0.5-0.4c0-0.1,0-0.2-0.1-0.2c0,0-0.1,0-0.2,0C20.2,12.4,20.1,12.5,20.1,12.8z M18.5,24
		c0.3,0,0.5-0.2,0.6-0.4C18.7,23.5,18.6,23.6,18.5,24z M18.3,7.8c-0.1,0-0.3,0-0.3,0.1c-0.1,0.1,0,0.3,0.1,0.4
		C18.4,8.1,18.4,8.1,18.3,7.8z M21.1,19.4c0.3,0,0.5-0.2,0.6-0.5C21.4,18.9,21.1,19.1,21.1,19.4z M32.3,3.6
		c-0.2,0.1-0.4,0.2-0.6,0.2c0,0,0,0.1,0.1,0.2c-0.1,0.1-0.2,0.2-0.3,0.4C31.8,4.3,32.1,4,32.3,3.6z M12.6,21.6
		c0.4-0.2,0.4-0.2,0.5-0.4C12.8,21.1,12.6,21.3,12.6,21.6z M16.7,22.6c-0.4,0.2-0.5,0.3-0.4,0.6C16.5,23,16.6,22.9,16.7,22.6z
		 M24.3,1.2c0.2-0.1,0.4-0.2,0.6-0.4c-0.3,0-0.5,0.2-0.8,0.2c0,0,0,0,0,0.1C24.1,1.1,24.2,1.2,24.3,1.2z M11.5,17.6
		c-0.3-0.1-0.3,0.2-0.5,0.3C11.3,18.1,11.5,18,11.5,17.6z M9.5,8.4c-0.3,0-0.5,0-0.8,0.1c0,0-0.1,0.1-0.1,0.2C9,8.6,9.3,8.6,9.5,8.4
		z M10.3,17.5c-0.3-0.2-0.4-0.2-0.6,0.2C9.9,17.8,10.1,17.6,10.3,17.5z M28.2,2.2c0.1,0.2,0.3,0.2,0.4,0.2c0,0,0.1,0,0.2-0.1
		c0,0,0-0.1-0.1-0.2C28.5,2.1,28.4,2.2,28.2,2.2z M32.2,2.8c-0.3-0.1-0.6,0.1-0.6,0.4C31.8,3.1,32,3,32.2,2.8z M13.4,24.3
		c0.2,0,0.5,0,0.6-0.4C13.8,23.9,13.6,24.1,13.4,24.3z M11.4,12.1c0,0,0-0.1,0-0.1c-0.1,0-0.3,0.1-0.4,0.1c-0.1,0.1-0.3,0.1-0.4,0.3
		C10.9,12.3,11.1,12.2,11.4,12.1z M9.4,12.6c0.3,0.2,0.6,0.1,0.9-0.2C10,12.5,9.7,12.6,9.4,12.6z M4.4,14.7c-0.1,0-0.2,0-0.3,0
		c-0.1,0-0.2,0-0.3,0C4,14.9,4.1,14.9,4.4,14.7z M16,9.9c-0.4,0-0.4,0-0.6,0.1C15.6,10.1,15.8,10.1,16,9.9z M8.1,6.7
		c0.3,0,0.3,0,0.3-0.3C8.2,6.5,8.1,6.5,8.1,6.7z M11,15c0.2,0,0.4-0.1,0.4-0.3C11.1,14.6,11,14.7,11,15z M12.3,17.6
		c0.2,0,0.4-0.1,0.5-0.3C12.5,17.3,12.4,17.4,12.3,17.6z M9,6.9C8.7,6.8,8.6,6.9,8.6,7.2C8.8,7.1,8.9,7,9,6.9z M19.1,11.3
		c-0.3-0.1-0.3,0-0.3,0.3C18.9,11.6,19,11.5,19.1,11.3z M18.1,10.2C18.1,10.2,18.1,10.2,18.1,10.2c-0.3-0.1-0.4-0.1-0.6,0.2
		C17.8,10.4,17.9,10.3,18.1,10.2z M20.7,13c-0.2,0.1-0.2,0.3-0.3,0.6C20.7,13.4,20.7,13.2,20.7,13z M20.3,19.2
		c-0.2,0.1-0.4,0.1-0.4,0.4C20.1,19.5,20.1,19.5,20.3,19.2z M7.9,16c0,0.1,0,0.1-0.1,0.2c0.3,0,0.3,0,0.4-0.2C8.2,16,8,16,7.9,16z
		 M15.1,12.7c-0.2,0.1-0.4,0.2-0.5,0.4C14.8,13.1,15,13,15.1,12.7z M21.1,26.2c-0.2-0.1-0.4,0.1-0.6,0.2
		C20.8,26.4,21,26.4,21.1,26.2z M16.5,21.3c-0.2,0-0.4,0.1-0.5,0.4C16.2,21.6,16.4,21.5,16.5,21.3z M25.6,19.2
		c0.2-0.1,0.2-0.2,0.2-0.3C25.7,18.9,25.6,19,25.6,19.2z M22.9,11.4c-0.2,0.1-0.3,0.2-0.3,0.5C22.7,11.7,22.8,11.6,22.9,11.4z
		 M12.6,18.1c-0.1,0-0.2,0.1-0.3,0.2C12.6,18.3,12.6,18.3,12.6,18.1z M4.8,7.9C4.8,7.9,4.8,7.9,4.8,7.9c0.2,0,0.3,0,0.4-0.1
		C4.9,7.7,4.9,7.7,4.8,7.9z M14.6,15.6c-0.3,0-0.3,0-0.3,0.2C14.4,15.7,14.5,15.7,14.6,15.6z M17,19.5c0.3-0.1,0.3-0.1,0.3-0.4
		C17.2,19.2,17.1,19.3,17,19.5z M29.7,16.7C29.7,16.6,29.7,16.6,29.7,16.7c-0.2,0-0.3,0.1-0.2,0.3C29.6,16.8,29.7,16.8,29.7,16.7z
		 M6,12.6c-0.2-0.1-0.3-0.1-0.4,0.2C5.8,12.7,5.9,12.6,6,12.6z M3.8,7.6c0.1,0.2,0.1,0.2,0.3,0C4,7.6,3.9,7.6,3.8,7.6z M31.1,9.2
		c0.1-0.2,0.1-0.3,0.1-0.4C31,8.9,31,9,31.1,9.2z M16.5,13c0.1,0,0.1,0.1,0.1,0.1c0.1,0,0.1-0.1,0.2-0.1c0,0-0.1-0.1-0.1-0.1
		C16.6,12.9,16.6,12.9,16.5,13z M11,22.6c0.2,0.1,0.3,0.1,0.4-0.1C11.2,22.4,11.1,22.4,11,22.6z M13.3,10.8c0.2,0,0.3-0.1,0.4-0.2
		C13.5,10.6,13.4,10.6,13.3,10.8z M13.4,20.1C13.3,20.1,13.3,20.1,13.4,20.1c-0.1,0.1-0.1,0.2-0.2,0.2c0,0,0.1,0,0.1,0
		C13.3,20.3,13.4,20.2,13.4,20.1C13.4,20.2,13.4,20.1,13.4,20.1z M9.9,10.5c-0.2,0-0.2,0-0.4,0.2C9.7,10.7,9.8,10.7,9.9,10.5z
		 M21.1,12.9c0.1-0.1,0.2-0.1,0.2-0.3C21.1,12.7,21.1,12.8,21.1,12.9z M18,19.4c0.3-0.2,0.3-0.2,0.3-0.4
		C18.2,19.2,18.1,19.3,18,19.4z M29.3,17.3c0,0,0.1-0.1,0.1-0.1c0,0-0.1-0.1-0.1-0.1C29.3,17.2,29.3,17.2,29.3,17.3
		C29.3,17.3,29.3,17.3,29.3,17.3z M16.9,10.6c0.3,0,0.3,0,0.3-0.2C17.2,10.5,17.1,10.5,16.9,10.6z M11.6,21.9c0.1-0.1,0.1-0.2,0-0.4
		C11.6,21.7,11.5,21.8,11.6,21.9z M18.1,17.6C18.1,17.5,18,17.5,18.1,17.6c-0.2,0-0.3,0-0.2,0.3C18,17.7,18,17.6,18.1,17.6z
		 M23.8,13.8c0,0-0.1,0-0.1,0c0,0.1,0,0.1-0.1,0.2c0,0,0.1,0,0.1,0C23.8,13.9,23.8,13.8,23.8,13.8z M5.5,4.6c0-0.2-0.1-0.2-0.2-0.1
		c0,0-0.1,0.1-0.1,0.2C5.3,4.6,5.4,4.6,5.5,4.6z M7.2,5.9C7.2,5.9,7.2,5.9,7.2,5.9c0.1,0.1,0.2,0,0.2,0c0,0,0,0,0-0.1
		C7.3,5.8,7.2,5.8,7.2,5.9z M17.2,23C17.2,23,17.2,23,17.2,23c0.1,0,0.3,0,0.2-0.3C17.3,22.8,17.2,22.9,17.2,23z M5.6,19.2
		C5.5,19,5.5,19,5.4,18.8C5.4,19,5.4,19.1,5.6,19.2z M15.5,27.8c0.1,0.1,0.2,0.1,0.3-0.1C15.7,27.7,15.6,27.7,15.5,27.8z M9.8,21.6
		C9.8,21.6,9.9,21.5,9.8,21.6c0.1-0.1,0-0.1,0-0.1C9.8,21.4,9.7,21.5,9.8,21.6C9.7,21.5,9.8,21.5,9.8,21.6z M6.8,27.4
		c-0.2-0.1-0.2-0.1-0.3,0C6.6,27.3,6.7,27.4,6.8,27.4z M18.4,12.7c-0.1-0.1-0.1-0.1-0.2-0.2c0,0,0,0,0,0.1
		C18.1,12.7,18.2,12.7,18.4,12.7z M15.5,12.3C15.5,12.3,15.6,12.4,15.5,12.3c0.1,0,0.2-0.1,0.3-0.1c0,0,0,0,0-0.1
		C15.7,12.2,15.6,12.3,15.5,12.3z M21.1,17.4C21.1,17.4,21.1,17.4,21.1,17.4c-0.2,0-0.2,0.1-0.2,0.2C21,17.6,21.1,17.5,21.1,17.4z
		 M26.1,1C26,0.9,26,0.9,26.1,1c-0.1-0.1-0.2,0-0.2,0c0,0,0,0.1,0,0.1C26,1,26,1,26.1,1z M22,15.1c0,0.1-0.1,0.2-0.1,0.2
		C22.1,15.3,22.1,15.3,22,15.1z M24.4,16.7c0,0,0.1,0.1,0.1,0.1c0-0.1,0.1-0.1,0.1-0.2c0,0-0.1-0.1-0.1-0.1
		C24.5,16.6,24.4,16.6,24.4,16.7z M10.7,9.5c-0.2,0-0.2,0-0.2,0.2C10.5,9.6,10.6,9.6,10.7,9.5z M27.5,10.2
		C27.5,10.2,27.5,10.2,27.5,10.2c0.1,0,0.1-0.1,0.2-0.1c0,0,0,0,0,0C27.6,10.1,27.6,10.1,27.5,10.2z M14.4,14.5
		C14.4,14.4,14.4,14.4,14.4,14.5c-0.1,0-0.1,0.1-0.2,0.1c0,0,0,0,0.1,0C14.3,14.6,14.4,14.5,14.4,14.5z M8.1,21.3c0,0,0,0.1,0,0.1
		c0.1,0,0.1,0,0.2,0c0,0,0-0.1,0-0.1C8.2,21.4,8.2,21.4,8.1,21.3z M16.6,23.4C16.7,23.4,16.7,23.4,16.6,23.4c0.1,0,0.2-0.1,0.2-0.2
		c0,0,0,0-0.1-0.1C16.8,23.2,16.7,23.3,16.6,23.4z M6.3,20.2c0-0.1,0.1-0.1,0.1-0.1c0,0-0.1-0.1-0.1-0.1c0,0-0.1,0.1-0.1,0.1
		C6.2,20.1,6.2,20.1,6.3,20.2z M13,8.2C13.1,8.2,13.1,8.3,13,8.2c0.1,0,0.1,0,0.2-0.1c0,0,0,0,0,0C13.2,8.1,13.1,8.2,13,8.2z
		 M2.5,6.7C2.6,6.7,2.6,6.7,2.5,6.7c0.1,0,0.1,0,0.2-0.1c0,0,0,0,0,0C2.6,6.6,2.6,6.7,2.5,6.7z M11.8,21.5c0,0.1,0,0.2,0,0.2
		c0,0,0.1,0,0.1,0.1c0,0,0-0.1,0-0.1C12,21.7,11.9,21.6,11.8,21.5z M8.1,21.9C8.1,21.9,8.1,21.9,8.1,21.9c0-0.1,0-0.1,0-0.1
		C8,21.8,8,21.8,8.1,21.9C8,21.9,8,21.9,8.1,21.9z M23.3,11.8C23.3,11.8,23.3,11.8,23.3,11.8c0.1,0,0.2,0,0.2-0.1c0,0,0,0,0,0
		C23.4,11.7,23.4,11.7,23.3,11.8z M20.3,14.3c-0.1,0-0.1-0.1-0.1,0c0,0-0.1,0-0.1,0.1c0,0,0,0.1,0,0.1
		C20.2,14.4,20.3,14.3,20.3,14.3z M11.8,14.5c0-0.1,0.1-0.1,0.1-0.1c0,0,0-0.1,0,0c0,0-0.1,0-0.1,0.1C11.8,14.4,11.8,14.4,11.8,14.5
		z M20.5,17.9C20.6,17.9,20.6,17.8,20.5,17.9c0-0.1,0-0.1,0-0.1C20.5,17.8,20.5,17.8,20.5,17.9C20.5,17.8,20.5,17.9,20.5,17.9z
		 M12.9,27.5C12.9,27.5,12.8,27.5,12.9,27.5C12.8,27.5,12.8,27.5,12.9,27.5C12.8,27.6,12.8,27.6,12.9,27.5
		C12.8,27.6,12.9,27.5,12.9,27.5z M19.4,19C19.4,19,19.4,19,19.4,19c-0.1,0-0.1,0-0.2,0.1c0,0,0,0,0,0C19.4,19.1,19.4,19,19.4,19z
		 M18.6,12.3C18.6,12.3,18.6,12.3,18.6,12.3c-0.1,0-0.1,0-0.2,0c0,0,0,0,0,0C18.5,12.4,18.5,12.3,18.6,12.3z M12.5,19.8
		C12.5,19.8,12.5,19.9,12.5,19.8c0.1,0,0.1,0,0.2,0c0,0,0-0.1,0-0.1C12.6,19.8,12.6,19.8,12.5,19.8z M5.1,12.7c-0.1,0-0.1,0-0.1,0
		c0,0,0,0,0,0.1C5,12.8,5,12.8,5.1,12.7C5,12.8,5.1,12.8,5.1,12.7z M8.2,10.5C8.2,10.4,8.1,10.4,8.2,10.5c-0.1,0-0.1,0-0.2,0
		c0,0,0,0,0,0C8.1,10.5,8.1,10.5,8.2,10.5z M13,19.6C13,19.6,13,19.6,13,19.6C12.9,19.6,12.9,19.6,13,19.6
		C12.9,19.7,12.9,19.7,13,19.6C13,19.7,13,19.6,13,19.6z M1.6,25.7C1.6,25.7,1.6,25.7,1.6,25.7C1.6,25.7,1.6,25.7,1.6,25.7
		C1.6,25.8,1.6,25.8,1.6,25.7C1.6,25.8,1.6,25.7,1.6,25.7z M10.2,24.2C10.2,24.2,10.2,24.2,10.2,24.2c0,0,0.1,0,0.1,0
		C10.3,24.2,10.2,24.2,10.2,24.2z M13.6,11.1C13.6,11.2,13.6,11.2,13.6,11.1c0.1,0,0.1,0,0.1,0c0,0,0,0,0,0
		C13.7,11.1,13.6,11.1,13.6,11.1z M26,18.1C26,18.1,26,18.2,26,18.1c0,0,0.1-0.1,0.1-0.1c0,0,0,0,0,0C26,18.1,26,18.1,26,18.1z
		 M27,2C27,2,27.1,2,27,2C27.1,2,27.1,1.9,27,2C27,1.9,27,1.9,27,2C27,2,27,2,27,2z M22.6,24.5C22.6,24.5,22.6,24.5,22.6,24.5
		c-0.1,0-0.1,0-0.1,0c0,0,0,0,0,0C22.5,24.6,22.6,24.6,22.6,24.5z M29.8,15.6C29.9,15.6,29.9,15.6,29.8,15.6
		C29.9,15.6,29.9,15.6,29.8,15.6C29.9,15.6,29.9,15.5,29.8,15.6C29.9,15.6,29.9,15.6,29.8,15.6z M6.2,27.2
		C6.2,27.3,6.1,27.3,6.2,27.2c0,0.1,0,0.1,0,0.1C6.2,27.3,6.2,27.3,6.2,27.2C6.2,27.3,6.2,27.3,6.2,27.2z M5,18.3
		C5,18.3,5,18.3,5,18.3C5,18.2,5,18.2,5,18.3C5,18.2,5,18.2,5,18.3C5,18.3,5,18.3,5,18.3z M28.9,8.4C28.9,8.4,29,8.4,28.9,8.4
		c0-0.1,0-0.1,0-0.1C28.9,8.3,28.9,8.4,28.9,8.4C28.9,8.4,28.9,8.4,28.9,8.4z M24.2,23.4C24.2,23.4,24.2,23.4,24.2,23.4
		C24.2,23.3,24.2,23.3,24.2,23.4C24.2,23.3,24.1,23.3,24.2,23.4C24.1,23.4,24.2,23.4,24.2,23.4z M9.1,16.1
		C9.1,16.1,9.1,16.1,9.1,16.1C9.2,16.1,9.2,16.1,9.1,16.1C9.2,16.1,9.2,16.1,9.1,16.1C9.2,16.1,9.1,16.1,9.1,16.1z M28.6,3
		C28.6,3,28.6,3,28.6,3c0,0-0.1,0-0.1,0C28.5,3,28.5,3.1,28.6,3C28.6,3.1,28.6,3,28.6,3z M9,11.9L9,11.9L9,11.9L9,11.9z M9.6,21.8
		C9.6,21.8,9.6,21.8,9.6,21.8C9.6,21.7,9.6,21.7,9.6,21.8C9.6,21.7,9.5,21.7,9.6,21.8C9.6,21.7,9.6,21.8,9.6,21.8z M6.4,8.1
		C6.4,8.1,6.3,8.1,6.4,8.1C6.3,8.1,6.3,8.1,6.4,8.1C6.3,8.1,6.3,8.2,6.4,8.1C6.3,8.2,6.4,8.2,6.4,8.1z M6.4,6.9
		C6.4,6.9,6.4,6.9,6.4,6.9C6.4,6.9,6.4,6.9,6.4,6.9C6.4,6.9,6.4,6.8,6.4,6.9C6.4,6.8,6.4,6.8,6.4,6.9z M9.2,10.8L9.2,10.8L9.2,10.8
		L9.2,10.8z M6.8,26.3C6.8,26.3,6.8,26.3,6.8,26.3C6.8,26.3,6.8,26.3,6.8,26.3C6.8,26.3,6.8,26.3,6.8,26.3
		C6.8,26.3,6.8,26.3,6.8,26.3z M6.8,8C6.8,8,6.8,8,6.8,8C6.8,8,6.8,8,6.8,8C6.8,8,6.8,8,6.8,8C6.8,8,6.8,8,6.8,8z M6.8,19.8
		C6.8,19.8,6.8,19.8,6.8,19.8C6.9,19.7,6.8,19.7,6.8,19.8C6.8,19.7,6.8,19.7,6.8,19.8C6.8,19.8,6.8,19.8,6.8,19.8z M7.5,19.1
		C7.5,19.1,7.5,19,7.5,19.1C7.5,19,7.5,19,7.5,19.1C7.4,19,7.4,19,7.5,19.1C7.4,19.1,7.4,19.1,7.5,19.1z M4.8,11.7
		C4.8,11.7,4.8,11.7,4.8,11.7C4.8,11.7,4.8,11.6,4.8,11.7C4.8,11.6,4.7,11.6,4.8,11.7C4.7,11.7,4.7,11.7,4.8,11.7z M30.9,9.7
		C30.9,9.7,30.9,9.7,30.9,9.7C30.9,9.7,30.9,9.7,30.9,9.7C30.9,9.7,30.9,9.7,30.9,9.7C30.9,9.7,30.9,9.7,30.9,9.7z M22.8,5.8
		C22.8,5.8,22.8,5.8,22.8,5.8C22.8,5.8,22.7,5.8,22.8,5.8C22.7,5.8,22.7,5.8,22.8,5.8C22.7,5.9,22.8,5.9,22.8,5.8z M18.7,5.5
		C18.7,5.5,18.7,5.5,18.7,5.5C18.7,5.5,18.7,5.5,18.7,5.5C18.7,5.5,18.7,5.5,18.7,5.5C18.7,5.5,18.7,5.5,18.7,5.5z M30.3,5.4
		C30.4,5.3,30.4,5.3,30.3,5.4C30.4,5.3,30.4,5.3,30.3,5.4C30.3,5.3,30.3,5.3,30.3,5.4C30.3,5.3,30.3,5.3,30.3,5.4z M15.4,12.8
		C15.4,12.8,15.4,12.8,15.4,12.8C15.4,12.8,15.4,12.8,15.4,12.8C15.3,12.8,15.3,12.8,15.4,12.8C15.3,12.8,15.3,12.8,15.4,12.8z
		 M23,21.9C23,21.9,23,21.9,23,21.9C23,21.9,23.1,21.9,23,21.9C23.1,21.9,23.1,21.8,23,21.9C23,21.8,23,21.9,23,21.9z M20,13.5
		C20,13.5,20,13.5,20,13.5C20,13.5,20,13.5,20,13.5C20,13.6,20,13.6,20,13.5C20,13.6,20,13.5,20,13.5z M28.5,4.1
		C28.5,4,28.5,4,28.5,4.1C28.5,4,28.5,4,28.5,4.1C28.5,4,28.5,4,28.5,4.1C28.5,4,28.5,4.1,28.5,4.1z M20.4,26.6
		C20.4,26.6,20.4,26.6,20.4,26.6C20.4,26.6,20.3,26.6,20.4,26.6C20.4,26.6,20.4,26.6,20.4,26.6C20.4,26.6,20.4,26.6,20.4,26.6z
		 M21.9,17.9C21.9,17.9,21.9,17.9,21.9,17.9C21.9,17.9,21.8,17.9,21.9,17.9C21.8,17.9,21.8,18,21.9,17.9C21.9,18,21.9,18,21.9,17.9z
		 M28.4,8.1C28.4,8.1,28.4,8.1,28.4,8.1C28.4,8.1,28.4,8,28.4,8.1C28.3,8.1,28.3,8.1,28.4,8.1C28.3,8.1,28.3,8.1,28.4,8.1z M2.7,2.7
		C2.7,2.7,2.7,2.7,2.7,2.7C2.7,2.7,2.7,2.7,2.7,2.7C2.7,2.7,2.7,2.7,2.7,2.7C2.7,2.7,2.7,2.7,2.7,2.7z M2.4,11.6
		C2.4,11.6,2.4,11.6,2.4,11.6C2.4,11.6,2.4,11.7,2.4,11.6C2.4,11.7,2.4,11.7,2.4,11.6C2.4,11.7,2.4,11.7,2.4,11.6z M3.4,3.1
		C3.4,3.1,3.4,3.1,3.4,3.1C3.4,3.1,3.4,3.1,3.4,3.1C3.4,3.1,3.4,3.1,3.4,3.1z M29.6,14.2C29.6,14.2,29.6,14.2,29.6,14.2
		C29.6,14.2,29.6,14.1,29.6,14.2C29.6,14.1,29.6,14.2,29.6,14.2C29.6,14.2,29.6,14.2,29.6,14.2z M3.3,8C3.3,8,3.3,8,3.3,8
		C3.3,8.1,3.3,8.1,3.3,8C3.4,8.1,3.4,8.1,3.3,8C3.4,8,3.4,8,3.3,8z M16.7,21.2L16.7,21.2L16.7,21.2L16.7,21.2z M4.5,8
		C4.5,8.1,4.5,8.1,4.5,8C4.5,8.1,4.5,8.1,4.5,8C4.5,8.1,4.5,8.1,4.5,8z M5,8.9L5,8.9L5,8.9L5,8.9z M7.3,27.2
		C7.3,27.2,7.3,27.2,7.3,27.2C7.3,27.2,7.3,27.2,7.3,27.2C7.3,27.2,7.3,27.2,7.3,27.2C7.3,27.2,7.3,27.2,7.3,27.2z M18.4,5.7
		C18.4,5.7,18.4,5.7,18.4,5.7C18.4,5.7,18.4,5.7,18.4,5.7C18.4,5.7,18.4,5.7,18.4,5.7C18.4,5.7,18.4,5.7,18.4,5.7z M7,10
		C6.9,10,6.9,10,7,10C6.9,10,6.9,10,7,10C6.9,10,6.9,10,7,10z M7.2,26.6C7.2,26.7,7.2,26.7,7.2,26.6C7.2,26.7,7.2,26.7,7.2,26.6
		C7.3,26.7,7.3,26.7,7.2,26.6C7.3,26.6,7.2,26.6,7.2,26.6z M25.9,13.6C25.9,13.6,26,13.7,25.9,13.6C26,13.6,26,13.6,25.9,13.6
		C26,13.6,26,13.6,25.9,13.6C25.9,13.6,25.9,13.6,25.9,13.6z M13.6,19.6C13.6,19.6,13.6,19.6,13.6,19.6
		C13.6,19.5,13.6,19.5,13.6,19.6C13.6,19.5,13.6,19.5,13.6,19.6C13.6,19.5,13.6,19.6,13.6,19.6z M25.3,3.1
		C25.3,3.1,25.3,3.1,25.3,3.1C25.3,3.1,25.2,3.1,25.3,3.1C25.2,3.1,25.2,3.1,25.3,3.1C25.2,3.1,25.3,3.1,25.3,3.1z M14.7,9.1
		C14.8,9.1,14.8,9.1,14.7,9.1C14.8,9.1,14.8,9.1,14.7,9.1C14.8,9.1,14.8,9.1,14.7,9.1z M13.7,23.8C13.7,23.8,13.7,23.8,13.7,23.8
		C13.7,23.8,13.7,23.8,13.7,23.8C13.7,23.7,13.7,23.8,13.7,23.8C13.7,23.8,13.7,23.8,13.7,23.8z M2,10.8C2,10.8,2,10.8,2,10.8
		C2,10.8,2,10.8,2,10.8C2,10.8,2,10.7,2,10.8C2,10.7,2,10.8,2,10.8z M9.2,24.3L9.2,24.3L9.2,24.3L9.2,24.3z M14.3,9.3L14.3,9.3
		L14.3,9.3L14.3,9.3z M12.5,24.7C12.5,24.7,12.5,24.7,12.5,24.7C12.5,24.7,12.5,24.7,12.5,24.7C12.5,24.7,12.5,24.7,12.5,24.7
		C12.5,24.7,12.5,24.7,12.5,24.7z M27.1,12.5L27.1,12.5L27.1,12.5L27.1,12.5z M31.1,10.2C31.1,10.2,31.1,10.2,31.1,10.2
		C31.1,10.2,31.1,10.2,31.1,10.2C31,10.2,31,10.2,31.1,10.2C31,10.2,31,10.2,31.1,10.2z M31.7,11.4C31.7,11.5,31.7,11.5,31.7,11.4
		C31.7,11.5,31.7,11.5,31.7,11.4C31.7,11.5,31.7,11.4,31.7,11.4C31.7,11.4,31.7,11.4,31.7,11.4z M5.3,11.7L5.3,11.7L5.3,11.7
		L5.3,11.7z M20.7,6.8C20.7,6.8,20.7,6.7,20.7,6.8C20.7,6.7,20.7,6.7,20.7,6.8C20.7,6.7,20.6,6.7,20.7,6.8
		C20.6,6.7,20.6,6.7,20.7,6.8z M20.7,11.4C20.7,11.4,20.7,11.4,20.7,11.4C20.7,11.4,20.7,11.4,20.7,11.4
		C20.7,11.4,20.7,11.4,20.7,11.4C20.7,11.4,20.7,11.4,20.7,11.4z M21.9,25.5L21.9,25.5L21.9,25.5L21.9,25.5z M33.5,4.8L33.5,4.8
		L33.5,4.8L33.5,4.8z M24.7,18.5L24.7,18.5L24.7,18.5L24.7,18.5z M28.3,17.5L28.3,17.5L28.3,17.5L28.3,17.5z M24,23.7L24,23.7
		L24,23.7L24,23.7z M24.4,6.9L24.4,6.9L24.4,6.9L24.4,6.9z M25.6,21.3L25.6,21.3L25.6,21.3L25.6,21.3z M3.7,14.1L3.7,14.1L3.7,14.1
		L3.7,14.1z M3.9,14.3L3.9,14.3L3.9,14.3L3.9,14.3z M27.7,5.2L27.7,5.2L27.7,5.2L27.7,5.2z M3.5,8.3L3.5,8.3L3.5,8.3L3.5,8.3z
		 M14.5,14.1C14.5,14.1,14.5,14.1,14.5,14.1C14.5,14.1,14.5,14.1,14.5,14.1C14.5,14.1,14.5,14.1,14.5,14.1z M10.9,25.6L10.9,25.6
		L10.9,25.6L10.9,25.6z M10.4,20.1C10.5,20.1,10.5,20,10.4,20.1C10.5,20,10.4,20,10.4,20.1C10.4,20,10.4,20,10.4,20.1
		C10.4,20.1,10.4,20.1,10.4,20.1z M8.2,27.9L8.2,27.9L8.2,27.9L8.2,27.9z M7.9,6.3L7.9,6.3L7.9,6.3L7.9,6.3z M17.8,18.3
		C17.7,18.3,17.7,18.3,17.8,18.3C17.7,18.3,17.8,18.3,17.8,18.3C17.8,18.3,17.8,18.3,17.8,18.3C17.8,18.3,17.8,18.3,17.8,18.3z
		 M7.7,27L7.7,27L7.7,27L7.7,27z M9.1,11.3L9.1,11.3L9.1,11.3L9.1,11.3z M9.3,24.5L9.3,24.5L9.3,24.5L9.3,24.5z M10.2,20.1
		C10.2,20.1,10.2,20.1,10.2,20.1C10.2,20.1,10.2,20.1,10.2,20.1C10.2,20.1,10.2,20.1,10.2,20.1z M8.8,14.6
		C8.8,14.6,8.8,14.6,8.8,14.6C8.8,14.6,8.8,14.6,8.8,14.6C8.8,14.6,8.8,14.6,8.8,14.6C8.8,14.6,8.8,14.6,8.8,14.6z M11.4,13.3
		C11.4,13.3,11.4,13.3,11.4,13.3C11.4,13.3,11.4,13.3,11.4,13.3C11.4,13.3,11.4,13.3,11.4,13.3z M13,8.9L13,8.9L13,8.9L13,8.9z
		 M18.3,17C18.3,17,18.3,17,18.3,17C18.3,17,18.3,17,18.3,17C18.3,17,18.3,17,18.3,17C18.3,17,18.3,17,18.3,17z M18.2,21.3
		L18.2,21.3L18.2,21.3L18.2,21.3z M18.1,9.8L18.1,9.8L18.1,9.8L18.1,9.8z M9.8,28L9.8,28L9.8,28L9.8,28z M15.6,9.1L15.6,9.1
		L15.6,9.1L15.6,9.1z M6.2,25.4L6.2,25.4L6.2,25.4L6.2,25.4z M21.4,25L21.4,25L21.4,25L21.4,25z M6.3,26.9L6.3,26.9L6.3,26.9
		L6.3,26.9z M8.7,10.2L8.7,10.2L8.7,10.2L8.7,10.2z M28.2,4.2L28.2,4.2L28.2,4.2L28.2,4.2z M9.3,21.8C9.3,21.8,9.3,21.8,9.3,21.8
		C9.3,21.8,9.3,21.8,9.3,21.8C9.3,21.8,9.3,21.8,9.3,21.8C9.3,21.8,9.3,21.8,9.3,21.8z M17,21.7L17,21.7L17,21.7L17,21.7z"/>
</g>
</svg>
